<svg version="1.1" width="63.69" height="62.91" viewBox="0 0 63.69 62.91" xmlns="http://www.w3.org/2000/svg" xmlns:xlink="http://www.w3.org/1999/xlink" overflow="visible"><defs></defs><path d=" M 58.29 53.68 C 55.21 50.39 52.61 47.1 51.03 44.4 C 49.35 41.54 52.54 38.61 55.15 42.21 C 57.22 45.06 59.06 47.44 61.45 49.67 C 63.14 51.25 62.91 52.85 62.11 53.87 C 61.23 54.99 59.2 54.65 58.29 53.68 Z" fill-rule="evenodd" clip-rule="evenodd"/><path d=" M 26.16 53.98 C 29.25 50.69 32.13 47.09 33.71 44.39 C 35.39 41.53 32.2 38.6 29.59 42.2 C 27.52 45.05 25.68 47.43 23.29 49.66 C 21.6 51.24 21.83 52.84 22.63 53.86 C 23.51 54.99 25.25 54.96 26.16 53.98 Z" fill-rule="evenodd" clip-rule="evenodd"/><g><path d=" M 59.09 29.7 C 54.47 30.32 50.82 30.43 46.1 29.57 C 44.54 29.29 44.27 28.23 44.41 27.25 C 44.55 26.28 45.2 26.03 46.05 25.8 C 50.18 24.7 55.47 20.16 55.63 14.57 C 55.83 7.3 52.36 0.27 42.67 0.01 C 34.73 -0.21 28.86 5.98 29.27 13.1 C 29.69 20.48 34.32 23.88 38.49 25.45 C 38.87 25.59 39.8 26.3 39.83 27.15 C 39.86 28.15 39.25 28.98 38.11 28.93 C 31.17 28.6 27.46 29.41 25.31 30.13 C 22.03 31.23 22.48 36.22 27.21 35.54 C 30.43 35.08 33.03 34.74 35.03 35.51 C 37.28 36.38 37.81 37.78 37.8 40.51 C 37.77 46.09 36.52 51.04 34.9 56.15 C 33.05 61.98 39.58 64.27 42.42 59.71 C 44.74 55.98 46.3 46.77 46.54 40.39 C 46.68 36.63 48.52 35.83 51.46 35.83 C 54.88 35.83 59.27 35.78 61.71 34.92 C 65.04 33.74 64.19 29.01 59.09 29.7 Z M 38.98 21.97 C 34.44 20.19 32.65 15.84 32.9 11.8 C 33.23 6.54 37.95 3.2 42.66 3.28 C 47.38 3.36 52.22 6.98 52.19 12.99 C 52.17 17.09 50.19 19.91 47.02 21.54 C 44.36 22.92 41.41 22.92 38.98 21.97 Z" fill-rule="evenodd" clip-rule="evenodd"/><path d=" M 42.44 12.27 C 41.75 12.27 41.19 12.44 41.19 14.25 C 41.19 16.57 41.62 16.87 42.48 16.87 C 43.39 16.87 43.65 16.52 43.65 14.25 C 43.65 12.39 43.22 12.27 42.44 12.27 Z" fill="#030000" fill-rule="evenodd" clip-rule="evenodd"/><path d=" M 37.55 12.43 C 37.55 13.21 36.92 13.83 36.15 13.83 C 35.37 13.83 34.74 13.2 34.74 12.43 C 34.74 11.65 35.37 11.02 36.15 11.02 C 36.92 11.02 37.55 11.65 37.55 12.43 Z" fill-rule="evenodd" clip-rule="evenodd"/><path d=" M 50.24 12.43 C 50.24 13.21 49.61 13.83 48.83 13.83 C 48.05 13.83 47.42 13.2 47.42 12.43 C 47.42 11.65 48.05 11.02 48.83 11.02 C 49.61 11.02 50.24 11.65 50.24 12.43 Z" fill-rule="evenodd" clip-rule="evenodd"/></g><path d=" M 1.2 19.58 C 5.17 17.29 8.76 15.29 11.62 13.35 C 12.25 12.96 12.93 11.95 12.79 10.66 C 12.7 9.85 11.74 9.7 10.69 8.51 C 9.8 7.51 9.37 6.55 9.37 4.87 C 9.37 2.27 11.25 0.05 13.64 0.05 C 15.48 0.05 18.29 1.18 18.31 4.8 C 18.33 8.28 16.2 8.3 16.28 10.66 C 16.34 12.35 17.77 13.26 17.91 16.64 C 18.23 23.99 18.03 58.42 18.03 59.6 C 18.03 64.25 13.26 63.79 13.24 59.51 C 13.19 44.94 13.21 24.06 13.21 20.3 C 13.21 18.34 12.09 18.11 10.64 18.91 C 6.91 20.97 5.57 21.74 3.02 23.05 C 0.7 24.25 -1.4 21.08 1.2 19.58 Z" fill-rule="evenodd" clip-rule="evenodd"/></svg>