<svg version="1.1" width="59.14" height="60.12" viewBox="0 0 59.14 60.12" xmlns="http://www.w3.org/2000/svg" xmlns:xlink="http://www.w3.org/1999/xlink" overflow="visible"><defs></defs><path d=" M 4.91 41.11 C 4.91 42.27 3.97 43.22 2.8 43.22 C 1.63 43.22 0.69 42.28 0.69 41.11 C 0.69 39.94 1.64 39 2.8 39 C 3.97 39 4.91 39.94 4.91 41.11 Z" fill-rule="evenodd" clip-rule="evenodd"/><path d=" M 26.5 41.11 C 26.5 42.27 27.44 43.22 28.61 43.22 C 29.77 43.22 30.72 42.28 30.72 41.11 C 30.72 39.94 29.77 39 28.61 39 C 27.45 39 26.5 39.94 26.5 41.11 Z" fill-rule="evenodd" clip-rule="evenodd"/><path d=" M 26.98 47.43 C 26.53 46.67 26 46.7 25.42 47.43 C 24.6 48.47 23.32 49.66 21.55 50.4 C 20.47 50.86 19.42 50.66 19.42 48.88 C 19.42 47.94 19.41 38.48 19.41 37.05 C 19.41 36.24 19.92 35.37 20.89 35.37 C 21.9 35.37 24.94 35.37 24.94 35.37 C 26.4 35.37 26.4 33.14 24.94 33.14 C 24.94 33.14 21.91 33.14 20.9 33.14 C 19.92 33.14 19.39 32.86 19.39 31.76 C 19.39 31.76 19.39 22.36 19.39 21.94 C 19.39 21.23 19.01 20.86 18.28 20.86 L 13.28 20.86 C 12.4 20.86 12.11 21.37 12.11 21.91 C 12.11 22.73 12.11 31.76 12.11 31.76 C 12.11 32.66 11.97 33.14 10.69 33.14 C 9.65 33.14 6.51 33.14 6.51 33.14 C 5.01 33.14 5.01 35.37 6.51 35.37 C 6.51 35.37 9.65 35.37 10.69 35.37 C 11.66 35.37 12.11 36.06 12.11 37.05 L 12.11 48.92 C 12.11 50.55 11.16 50.82 10 50.33 C 8.18 49.59 6.83 48.52 5.97 47.5 C 5.41 46.84 4.94 46.62 4.46 47.43 C 3.56 48.96 2.4 50.55 0.96 52.1 C 0.56 52.53 0.33 53.16 0.85 53.77 C 8.09 62.28 23.38 62.21 30.58 53.8 C 31.13 53.15 30.89 52.53 30.5 52.12 C 29.05 50.56 27.87 48.96 26.98 47.43 Z"/><path d=" M 29.34 9.45 C 28.08 9 22.17 6.65 19.62 5.9 C 18.42 5.55 17.16 6.58 15.56 6.63 C 13.92 6.68 12.8 5.5 11.22 5.98 C 8.76 6.72 2.93 9.21 1.72 9.49 C 0.03 9.89 -0.73 7.57 0.89 6.94 C 1.65 6.65 7.84 4.05 10.55 3.36 C 12.29 2.92 13.37 3.29 14.23 3.63 C 15.23 4.02 16.23 3.83 16.67 3.63 C 17.44 3.28 18.5 2.81 20.31 3.28 C 23.08 4.01 29.36 6.59 30.32 6.96 C 32.35 7.74 31.28 10.15 29.34 9.45 Z"/><path d=" M 15.14 13.86 C 10.57 13.86 7.1 12.79 6.95 12.75 C 6.24 12.53 5.84 11.77 6.06 11.06 C 6.28 10.35 7.04 9.95 7.75 10.17 C 7.78 10.18 11 11.16 15.14 11.16 C 19.28 11.16 22.49 10.18 22.52 10.17 C 23.23 9.95 23.99 10.35 24.21 11.06 C 24.43 11.77 24.03 12.53 23.32 12.75 C 23.18 12.8 19.71 13.86 15.14 13.86 Z"/><path d=" M 50.26 23.61 C 55.58 21.85 58.59 17.85 59.09 12.53 C 59.68 6.26 55.42 0.85 48.87 0.08 C 43.06 -0.6 38.42 3.1 36.85 8.27 C 36.17 10.51 36.84 12.93 39.77 12.51 C 52.78 10.66 54.12 13.9 53.17 16.46 C 51.42 21.17 44.47 21.49 40.17 17.98 C 38.83 16.89 37.95 17.96 38.43 18.87 C 39.09 20.1 40.11 21.01 41.15 21.62 C 43.19 22.83 45.84 23.63 45.41 25.27 C 45.2 26.07 44.49 26.79 43.28 28.56 C 41.63 30.96 39.3 33.4 36.45 35.46 C 33.64 37.48 36.09 40.66 38.89 38.77 C 41.26 37.16 43.26 35.5 45.84 32.92 C 47.07 31.69 48.32 31.17 49.82 33.34 C 50.4 34.17 50.84 34.91 51.53 35.97 C 53.93 39.67 53.79 40.94 52.21 45.01 C 50.22 50.13 50.4 52.21 50.92 58.18 C 51.17 61.09 55.09 60.57 54.92 57.86 C 54.71 54.55 54.32 52.4 55.38 49.53 C 56.7 45.92 58.09 43.47 58.09 41.17 C 58.09 38.44 57.88 36.76 53.98 31.04 C 52.32 28.6 51.22 27.38 50.44 26.68 C 48.24 24.73 49.45 23.88 50.26 23.61 Z" fill-rule="evenodd" clip-rule="evenodd"/></svg>