<svg version="1.1" width="61.96" height="57.36" viewBox="0 0 61.96 57.36" xmlns="http://www.w3.org/2000/svg" xmlns:xlink="http://www.w3.org/1999/xlink" overflow="visible"><defs></defs><path d=" M 61.56 53.56 C 58.04 48.18 55.3 40.5 54.66 29.27 C 54.16 20.52 49.9 15.61 43.38 13.73 C 40.45 12.89 39.79 11.96 39.79 9.7 C 39.79 6.75 41.26 6.76 43.24 6.46 C 47.12 5.87 51.4 5.07 55.91 3.23 C 56.77 2.88 57.18 1.9 56.83 1.04 C 56.48 0.18 55.5 -0.23 54.64 0.12 C 49.73 2.13 44.98 2.82 40.79 3.42 C 26.28 5.52 22.63 12.98 21.34 30.06 C 20.67 38.92 19.94 49.04 15 53.67 C 13.09 55.46 15.45 57.82 17.28 56.14 C 23.23 50.66 24.04 39.83 24.7 30.32 C 25.55 17.89 28.3 11.16 33.26 9.35 C 34.34 8.96 36.45 8.92 36.45 11.54 C 36.45 14.02 36.45 26.74 36.45 29.75 C 36.45 31.24 35.84 31.57 35.08 32.05 C 33.34 33.14 32.65 35.13 32.14 36.6 C 31.86 37.41 31.6 38.17 31.25 38.66 C 29.01 41.82 27.87 44.66 27.87 47.1 C 27.87 52.76 32.48 57.36 38.13 57.36 C 44.45 57.36 48.53 53.33 48.53 47.1 C 48.53 43.68 46.2 40.17 45.21 38.82 C 44.68 38.11 44.31 37.22 43.92 36.27 C 43.4 35.01 42.76 33.48 41.55 32.44 C 40.17 31.26 39.8 31.15 39.8 29.66 C 39.8 28.79 39.8 20.27 39.8 19.78 C 39.8 16.95 40.28 16.14 43.21 17.17 C 47.66 18.75 50.6 21.09 51.33 29.45 C 52.41 41.9 54.36 48.45 58.74 55.34 C 60.09 57.5 63.02 55.79 61.56 53.56 Z M 42.49 40.82 C 44.16 43.07 45.15 45.42 45.15 47.1 C 45.15 51.49 42.58 54 38.11 54 C 34.3 54 31.21 50.9 31.21 47.1 C 31.21 45.39 32.17 43.14 33.97 40.6 C 34.59 39.72 34.95 38.69 35.29 37.69 C 36.09 35.39 36.51 34.59 38.11 34.59 C 39.47 34.59 39.88 35.31 40.8 37.54 C 41.23 38.6 41.72 39.78 42.49 40.82 Z"/><g><path d=" M 16.76 20.34 C 15.11 20.48 13.59 20.41 11.76 20.08 C 10.94 19.93 10.8 19.38 10.88 18.87 C 10.95 18.36 11.29 18.23 11.74 18.11 C 13.9 17.53 16.73 15.11 16.81 12.19 C 16.92 8.39 14.98 4.82 9.97 4.63 C 5.38 4.45 2.75 7.75 2.96 11.47 C 3.18 15.32 5.6 17.11 7.78 17.92 C 7.98 18 8.58 18.39 8.56 19.06 C 8.54 19.59 8.17 20 7.57 19.98 C 3.62 19.86 1.97 20.14 0.88 20.61 C -0.49 21.19 -0.34 23.51 1.87 23.19 C 3.55 22.95 4.91 22.77 5.96 23.17 C 7.14 23.62 7.42 24.35 7.41 25.78 C 7.39 28.7 6.32 33.83 5.47 36.51 C 4.41 39.85 8.57 41.05 9.81 37.87 C 10.95 34.95 11.85 29.06 11.97 25.72 C 12.04 23.76 13.06 23.54 14.6 23.54 C 15.35 23.54 16.19 23.5 17 23.42 C 19.21 23.2 19.2 20.14 16.76 20.34 Z M 8.03 16.11 C 5.66 15.18 4.72 12.91 4.85 10.79 C 5.02 8.04 7.49 6.3 9.95 6.34 C 12.42 6.38 14.95 8.27 14.93 11.42 C 14.92 13.56 13.88 15.04 12.23 15.89 C 10.85 16.6 9.3 16.6 8.03 16.11 Z" fill-rule="evenodd" clip-rule="evenodd"/><path d=" M 9.84 11.04 C 9.48 11.04 9.19 11.13 9.19 12.07 C 9.19 13.28 9.41 13.44 9.86 13.44 C 10.34 13.44 10.47 13.26 10.47 12.07 C 10.48 11.1 10.25 11.04 9.84 11.04 Z" fill="#030000" fill-rule="evenodd" clip-rule="evenodd"/><path d=" M 7.29 11.12 C 7.29 11.52 6.96 11.85 6.56 11.85 C 6.15 11.85 5.82 11.52 5.82 11.12 C 5.82 10.71 6.15 10.38 6.56 10.38 C 6.96 10.38 7.29 10.71 7.29 11.12 Z" fill-rule="evenodd" clip-rule="evenodd"/><path d=" M 13.92 11.12 C 13.92 11.52 13.59 11.85 13.19 11.85 C 12.78 11.85 12.45 11.52 12.45 11.12 C 12.45 10.71 12.78 10.38 13.19 10.38 C 13.59 10.38 13.92 10.71 13.92 11.12 Z" fill-rule="evenodd" clip-rule="evenodd"/></g></svg>