<svg version="1.1" width="58.85" height="61.08" viewBox="0 0 58.85 61.08" xmlns="http://www.w3.org/2000/svg" xmlns:xlink="http://www.w3.org/1999/xlink" overflow="visible"><defs></defs><path d=" M 5.12 32.56 C 12.16 30.24 19.21 30.32 25.01 32.18 C 26.49 32.65 26.8 33.49 26.66 34.45 C 26.52 35.39 25.89 35.64 25.06 35.86 C 20.55 37.04 15.95 40.98 15.64 47.14 C 15.28 54.24 18.99 60.72 28.37 61.08 C 36.95 61.41 41.72 54.59 41.48 48.28 C 41.2 41.07 36.55 37.75 32.47 36.21 C 32.1 36.07 31.19 35.38 31.16 34.55 C 31.13 33.57 31.73 32.8 32.84 32.81 C 41.68 32.86 50.54 31.86 56.24 30.22 C 60.31 29.05 59.61 23.87 54.38 24.93 C 48.18 26.19 43.28 26.91 36.55 25.99 C 34.73 25.74 33.13 24.18 33.14 21.5 C 33.17 16.04 34.39 11.21 35.97 6.21 C 37.95 -0.04 31.48 -2.33 28.51 2.93 C 26.4 6.66 24.83 15.38 24.6 21.61 C 24.46 25.29 22.01 25.13 20.5 25.08 C 17.16 24.98 10.08 24.36 2.57 27.46 C -1.58 29.18 -0.68 34.47 5.12 32.56 Z M 31.98 39.6 C 36.42 41.34 38.17 45.59 37.93 49.54 C 37.61 54.68 33 57.95 28.39 57.87 C 23.78 57.79 19.04 54.26 19.08 48.38 C 19.1 44.37 21.04 41.62 24.14 40.01 C 26.71 38.68 29.6 38.68 31.98 39.6 Z" fill-rule="evenodd" clip-rule="evenodd"/><path d=" M 28.41 48.79 C 29.08 48.79 29.63 48.62 29.63 46.86 C 29.63 44.59 29.21 44.29 28.37 44.29 C 27.48 44.29 27.22 44.63 27.22 46.86 C 27.23 48.66 27.66 48.79 28.41 48.79 Z" fill="#030000" fill-rule="evenodd" clip-rule="evenodd"/><circle cx="34.71" cy="48.93" r="1.38" fill-rule="evenodd" clip-rule="evenodd"/><circle cx="22.28" cy="48.93" r="1.38" fill-rule="evenodd" clip-rule="evenodd"/></svg>