<svg version="1.1" width="61.63" height="66.09" viewBox="0 0 61.63 66.09" xmlns="http://www.w3.org/2000/svg" xmlns:xlink="http://www.w3.org/1999/xlink" overflow="visible"><defs></defs><path d=" M 10.04 17.53 C 11.63 18.5 12.13 20.44 13.31 22.74 C 13.38 22.88 13.27 22.91 13.22 22.92 C 9.83 23.57 8.91 23.97 7 23.05 C 5.32 22.24 4.48 20.58 5.4 18.77 C 6.23 17.17 8.13 16.39 10.04 17.53 Z" fill-rule="evenodd" clip-rule="evenodd"/><path d=" M 3.42 29.65 C 5.29 29.7 6.68 31.15 8.84 32.56 C 8.97 32.65 8.89 32.73 8.85 32.76 C 6.23 35 5.62 35.81 3.51 35.95 C 1.65 36.08 0.1 35.05 0 33.02 C -0.08 31.23 1.19 29.6 3.42 29.65 Z" fill-rule="evenodd" clip-rule="evenodd"/><path d=" M 7.08 58.79 C 8.47 57.28 10.67 57.17 13.4 56.4 C 13.57 56.35 13.58 56.48 13.58 56.54 C 13.54 60.33 13.78 61.41 12.36 63.26 C 11.12 64.89 9.15 65.43 7.4 64.05 C 5.85 62.83 5.42 60.6 7.08 58.79 Z" fill-rule="evenodd" clip-rule="evenodd"/><path d=" M 19.21 15.69 C 24.2 14.04 29.19 14.1 33.3 15.42 C 34.34 15.76 34.57 16.35 34.47 17.03 C 34.37 17.7 33.92 17.87 33.33 18.03 C 30.47 18.8 26.72 22 26.61 25.88 C 26.47 30.91 29.03 35.64 35.67 35.89 C 41.75 36.12 45.23 31.75 44.95 26.82 C 44.66 21.72 41.45 19.36 38.56 18.27 C 38.3 18.17 37.65 17.68 37.64 17.1 C 37.62 16.41 38.04 15.84 38.83 15.87 C 44.06 16.03 51.38 15.27 55.4 14.03 C 58.09 13.2 57.79 9.53 54.08 10.29 C 49.69 11.18 46.22 11.7 41.45 11.04 C 40.16 10.86 39.03 9.75 39.04 7.86 C 39.05 6.46 39.16 5.12 39.36 3.81 C 40.02 -0.46 34.23 -1.74 33.45 3.15 C 33.19 4.83 33.05 6.5 33 7.93 C 32.9 10.53 31.16 10.42 30.09 10.39 C 27.73 10.32 22.71 9.88 17.39 12.08 C 14.46 13.3 15.09 17.05 19.21 15.69 Z M 38.23 20.68 C 41.37 21.91 42.61 24.92 42.44 27.72 C 42.22 31.36 38.95 33.67 35.68 33.62 C 32.42 33.57 29.06 31.06 29.08 26.9 C 29.1 24.06 30.47 22.11 32.66 20.97 C 34.5 20.02 36.55 20.02 38.23 20.68 Z" fill-rule="evenodd" clip-rule="evenodd"/><path d=" M 35.71 27.18 C 36.19 27.18 36.57 27.06 36.57 25.81 C 36.57 24.2 36.27 23.99 35.68 23.99 C 35.05 23.99 34.87 24.23 34.87 25.81 C 34.87 27.1 35.17 27.18 35.71 27.18 Z" fill="#030000" fill-rule="evenodd" clip-rule="evenodd"/><path d=" M 39.19 27.29 C 39.19 26.75 39.63 26.32 40.16 26.32 C 40.7 26.32 41.14 26.76 41.14 27.29 C 41.14 27.83 40.7 28.26 40.16 28.26 C 39.63 28.26 39.19 27.83 39.19 27.29 Z" fill-rule="evenodd" clip-rule="evenodd"/><path d=" M 30.39 27.29 C 30.39 26.75 30.83 26.32 31.36 26.32 C 31.9 26.32 32.33 26.76 32.33 27.29 C 32.33 27.83 31.89 28.26 31.36 28.26 C 30.82 28.26 30.39 27.83 30.39 27.29 Z" fill-rule="evenodd" clip-rule="evenodd"/><g><path d=" M 54.73 65.39 C 53.33 65.39 51.8 65.04 50.39 64.12 C 48.76 63.05 46.79 60.84 46.61 56.36 C 46.18 45.86 45.75 42.16 43.88 39.49 C 43.4 38.81 43.57 37.88 44.25 37.4 C 44.92 36.92 45.86 37.09 46.34 37.77 C 48.77 41.24 49.19 45.82 49.61 56.24 C 49.71 58.77 50.55 60.63 52.04 61.61 C 53.6 62.63 55.45 62.49 56.57 62.07 C 57.46 61.73 58.08 61.09 58.4 60.19 C 58.78 59.12 58.64 57.97 58.3 57.38 C 57.89 56.66 58.14 55.74 58.86 55.33 C 59.58 54.92 60.5 55.17 60.91 55.89 C 61.74 57.33 61.86 59.42 61.23 61.19 C 60.62 62.91 59.35 64.21 57.65 64.86 C 56.83 65.18 55.82 65.39 54.73 65.39 Z"/></g><g><path d=" M 40.86 57.97 C 40.83 57.97 40.81 57.97 40.78 57.97 C 39.95 57.93 39.32 57.22 39.36 56.39 C 39.36 56.36 39.52 53.21 39.36 48.01 C 39.22 43.4 37.4 41.46 37.38 41.44 C 36.79 40.85 36.79 39.9 37.38 39.32 C 37.96 38.74 38.92 38.73 39.5 39.32 C 39.77 39.59 42.18 42.16 42.36 47.92 C 42.53 53.25 42.37 56.41 42.36 56.55 C 42.32 57.35 41.66 57.97 40.86 57.97 Z"/></g><g><path d=" M 37.31 66.09 C 37.13 66.09 36.94 66.06 36.77 65.99 C 32.89 64.48 32.4 60.18 32.4 56.59 C 32.4 56.48 32.56 53.33 32.4 48.14 C 32.26 43.77 30.55 42.4 30.47 42.35 C 29.83 41.85 29.68 40.92 30.15 40.27 C 30.63 39.61 31.52 39.44 32.19 39.9 C 32.5 40.11 35.2 42.13 35.39 48.05 C 35.56 53.38 35.4 56.54 35.39 56.68 C 35.39 61.58 36.64 62.73 37.85 63.2 C 38.62 63.5 39 64.37 38.7 65.14 C 38.48 65.73 37.91 66.09 37.31 66.09 Z"/></g></svg>