<svg version="1.1" width="25.94" height="61.2" viewBox="0 0 25.94 61.2" xmlns="http://www.w3.org/2000/svg" xmlns:xlink="http://www.w3.org/1999/xlink" overflow="visible"><defs></defs><path d=" M 16.55 28.79 C 15.02 28.51 14.69 27.59 14.83 26.63 C 14.97 25.69 15.6 25.44 16.43 25.22 C 20.46 24.14 25.61 20.25 25.92 14.14 C 26.26 7.41 22.5 0.36 13.12 -1.77636e-15 C 4.54 -0.32 -0.33 6.5 0.02 12.81 C 0.41 20.02 4.95 23.34 9.03 24.88 C 9.4 25.02 10.31 25.71 10.34 26.54 C 10.37 27.52 9.51 28.17 8.66 28.28 C 6.76 28.54 6.87 31.26 7.68 32.92 C 8.47 34.56 8.38 37.3 8.36 39.59 C 8.29 45.05 7.1 49.88 5.52 54.88 C 3.54 61.13 9.73 63.67 12.97 58.17 C 15.21 54.37 16.71 45.71 16.89 39.47 C 16.97 36.59 17.14 34.04 17.67 32.45 C 18.09 31.21 18.2 29.1 16.55 28.79 Z M 9.51 21.48 C 5.07 19.74 3.32 15.49 3.56 11.54 C 3.89 6.4 8.5 3.13 13.11 3.21 C 17.72 3.29 22.46 6.82 22.42 12.7 C 22.4 16.71 20.46 19.46 17.36 21.07 C 14.77 22.41 11.89 22.41 9.51 21.48 Z" fill-rule="evenodd" clip-rule="evenodd"/><path d=" M 13.07 12.3 C 12.4 12.3 11.85 12.47 11.85 14.23 C 11.85 16.5 12.27 16.8 13.11 16.8 C 14 16.8 14.26 16.46 14.26 14.23 C 14.26 12.42 13.83 12.3 13.07 12.3 Z" fill="#030000" fill-rule="evenodd" clip-rule="evenodd"/><circle cx="6.77" cy="12.15" r="1.38" fill-rule="evenodd" clip-rule="evenodd"/><circle cx="19.21" cy="12.15" r="1.38" fill-rule="evenodd" clip-rule="evenodd"/></svg>