<svg version="1.1" width="58.12" height="58.23" viewBox="0 0 58.12 58.23" xmlns="http://www.w3.org/2000/svg" xmlns:xlink="http://www.w3.org/1999/xlink" overflow="visible"><defs></defs><path d=" M 30.96 10.25 L 30.94 10.25 C 30.79 9.41 30.06 8.78 29.18 8.78 C 18.16 8.78 9.02 1.12 8.93 1.04 C 8.27 0.47 7.29 0.46 6.62 1.02 C 6.35 1.25 0 6.65 0 16.15 C 0 25.65 6.36 30.95 6.64 31.17 C 7.29 31.7 8.29 31.7 8.94 31.15 C 9 31.1 12.2 28.22 17.65 25.97 C 18.71 25.54 20.09 25.45 20.09 27.59 C 20.09 38.42 20.09 56.13 20.09 56.13 C 20.09 58.89 24.11 58.96 24.11 56.2 C 24.11 56.2 24.11 37.3 24.11 26.15 C 24.11 24.26 25 23.75 26.42 23.59 C 27.32 23.48 28.25 23.43 29.18 23.43 C 30.12 23.43 30.88 22.71 30.96 21.79 L 30.96 21.79 L 30.96 21.78 C 30.96 21.71 30.96 10.25 30.96 10.25 Z M 11.51 24.61 C 10.57 25.1 9.85 25.1 9.11 24.05 C 7.83 22.2 6.58 19.89 6.58 16.14 C 6.58 12.64 7.52 10.63 8.64 8.91 C 9.44 7.68 10.57 7.1 12.15 7.96 C 15.12 9.58 20.72 11.8 26.89 12.26 C 28.33 12.37 28.45 13.2 28.45 13.87 C 28.45 14.93 28.45 17.04 28.45 18.09 C 28.45 19.56 27.65 19.85 26.99 19.9 C 20.36 20.4 14.72 22.96 11.51 24.61 Z" fill="#030000"/><path d=" M 49.74 22.26 C 54.75 20.6 57.59 16.83 58.07 11.82 C 58.63 5.91 54.61 0.81 48.43 0.08 C 42.96 -0.56 38.59 2.93 37.11 7.8 C 36.47 9.91 37.1 12.19 39.86 11.8 C 52.13 10.06 53.38 13.11 52.49 15.53 C 50.84 19.97 44.29 20.28 40.23 16.96 C 38.97 15.93 38.14 16.95 38.59 17.8 C 39.22 18.96 40.17 19.81 41.15 20.39 C 43.07 21.53 45.57 22.29 45.17 23.83 C 44.97 24.59 44.3 25.27 43.16 26.93 C 41.23 29.74 38.3 32.61 34.68 34.77 C 31.74 36.52 33.8 39.82 36.87 37.95 C 39.76 36.19 42.47 34.12 45.56 31.04 C 46.72 29.88 47.9 29.39 49.31 31.44 C 49.85 32.22 50.27 32.92 50.92 33.92 C 53.18 37.41 53.06 38.6 51.57 42.44 C 49.69 47.27 49.91 48.36 50.42 56.2 C 50.6 58.95 54.29 59.02 54.19 55.9 C 53.98 49.65 53.77 48.86 54.76 46.16 C 56.01 42.76 57.07 40.82 57.26 38.65 C 57.47 36.27 56.91 34.66 53.23 29.27 C 51.66 26.97 50.63 25.82 49.89 25.16 C 47.84 23.31 48.98 22.51 49.74 22.26 Z" fill-rule="evenodd" clip-rule="evenodd"/></svg>