<svg version="1.1" width="44.16" height="63.29" viewBox="0 0 44.16 63.29" xmlns="http://www.w3.org/2000/svg" xmlns:xlink="http://www.w3.org/1999/xlink" overflow="visible"><defs></defs><path d=" M 3.85 16.66 C 9.14 14.91 14.44 14.97 18.8 16.37 C 19.91 16.73 20.15 17.36 20.04 18.08 C 19.94 18.79 19.46 18.97 18.83 19.14 C 15.8 19.95 11.98 22.83 11.87 27.64 C 11.74 32.98 14.27 37.83 21.32 38.1 C 27.77 38.35 31.47 33.71 31.17 28.48 C 30.86 23.06 27.46 20.56 24.39 19.41 C 24.11 19.3 23.43 18.79 23.41 18.16 C 23.39 17.42 23.84 16.83 24.67 16.85 C 30.22 17.02 38 16.21 42.26 14.9 C 45.12 14.02 44.79 10.12 40.86 10.93 C 36.2 11.88 32.52 12.42 27.45 11.72 C 26.08 11.53 24.88 10.36 24.89 8.34 C 24.9 6.86 25.02 5.43 25.23 4.04 C 25.93 -0.49 19.79 -1.85 18.95 3.34 C 18.66 5.13 18.52 6.9 18.46 8.42 C 18.36 11.18 16.51 11.07 15.38 11.03 C 12.87 10.96 7.54 10.48 1.9 12.82 C -1.19 14.11 -0.52 18.09 3.85 16.66 Z M 24.04 21.95 C 27.38 23.26 28.69 26.45 28.51 29.42 C 28.27 33.29 24.8 35.74 21.34 35.68 C 17.88 35.62 14.31 32.96 14.34 28.55 C 14.36 25.53 15.82 23.46 18.14 22.26 C 20.09 21.25 22.26 21.25 24.04 21.95 Z" fill-rule="evenodd" clip-rule="evenodd"/><path d=" M 21.36 28.85 C 21.87 28.85 22.28 28.73 22.28 27.4 C 22.28 25.69 21.97 25.47 21.33 25.47 C 20.66 25.47 20.47 25.72 20.47 27.4 C 20.47 28.76 20.79 28.85 21.36 28.85 Z" fill="#030000" fill-rule="evenodd" clip-rule="evenodd"/><path d=" M 25.07 28.97 C 25.07 28.4 25.53 27.94 26.1 27.94 C 26.67 27.94 27.14 28.4 27.14 28.97 C 27.14 29.54 26.68 30 26.1 30 C 25.53 30 25.07 29.54 25.07 28.97 Z" fill-rule="evenodd" clip-rule="evenodd"/><path d=" M 15.72 28.97 C 15.72 28.4 16.18 27.94 16.75 27.94 C 17.32 27.94 17.78 28.4 17.78 28.97 C 17.78 29.54 17.32 30 16.75 30 C 16.18 30 15.72 29.54 15.72 28.97 Z" fill-rule="evenodd" clip-rule="evenodd"/><path d=" M 10.89 48.6 C 9.23 51.66 7.82 57.13 7.41 61.28 C 7.2 63.45 10.59 64.3 11.07 61.54 C 11.44 59.44 12.08 55.3 13.46 51.78 C 14.44 49.28 17.21 45.83 19.29 44.82 C 22.03 43.49 25.79 44.19 26.96 48.2 C 27.49 50.03 28.05 52.47 28.53 54.81 C 29.51 59.58 33.36 60.96 39.92 62.88 C 43.03 63.8 43.69 60.15 41.18 59.55 C 37.1 58.27 33.02 57.87 31.92 53.22 C 31.34 50.75 31.13 49.91 30.5 47.39 C 28.81 40.51 21.03 37.46 14.26 44.03 C 13.03 45.23 11.84 46.86 10.89 48.6 Z" fill-rule="evenodd" clip-rule="evenodd"/></svg>