<svg version="1.1" width="62.39" height="62.91" viewBox="0 0 62.39 62.91" xmlns="http://www.w3.org/2000/svg" xmlns:xlink="http://www.w3.org/1999/xlink" overflow="visible"><defs></defs><path d=" M 1.56 20.79 C 6.29 18.18 10.78 15.65 14.16 13.35 C 14.79 12.96 15.47 11.95 15.33 10.66 C 15.24 9.85 14.28 9.7 13.23 8.51 C 12.34 7.5 11.76 6.39 11.76 4.72 C 11.76 2.12 13.67 0.27 16.2 0.18 C 18.03 0.12 20.83 1.18 20.85 4.8 C 20.87 8.28 18.74 8.3 18.82 10.66 C 18.88 12.35 20.31 13.26 20.45 16.64 C 20.77 23.99 20.57 58.42 20.57 59.6 C 20.57 64.25 15.8 63.79 15.78 59.51 C 15.73 44.94 15.75 24.06 15.75 20.3 C 15.75 18.34 14.63 18.11 13.18 18.91 C 8.44 21.53 7.55 22.07 3.17 24.26 C 0.51 25.61 -1.54 22.5 1.56 20.79 Z" fill-rule="evenodd" clip-rule="evenodd"/><g><path d=" M 58.81 30.06 C 55.23 30.48 52.04 30.28 48.14 29.57 C 46.58 29.29 46.31 28.23 46.45 27.25 C 46.59 26.28 47.24 26.03 48.09 25.8 C 52.22 24.7 57.4 20.82 57.65 14.41 C 57.93 7.15 54.3 0.34 44.71 0.01 C 36.49 -0.28 30.89 5.99 31.3 13.1 C 31.72 20.48 36.35 23.88 40.52 25.45 C 40.9 25.59 41.83 26.3 41.86 27.15 C 41.89 28.15 41.28 28.97 40.14 28.93 C 32.59 28.7 30.14 29.14 27.84 29.93 C 24.08 31.22 25.28 36.14 29.24 35.53 C 32.45 35.04 35.51 34.67 37.43 35.65 C 39.03 36.47 39.85 37.76 39.83 40.5 C 39.8 46.08 38.65 51.06 36.93 56.14 C 35.03 61.76 41.76 64.8 44.78 59.01 C 46.74 55.26 48.33 46.76 48.57 40.38 C 48.71 36.62 50.66 36.21 53.6 36.21 C 55.54 36.21 57.6 36.06 59.41 35.83 C 63.72 35.27 63.22 29.54 58.81 30.06 Z M 41.01 21.97 C 36.47 20.19 34.68 15.85 34.93 11.8 C 35.26 6.54 39.27 3.23 44.69 3.28 C 49.84 3.32 54.25 6.98 54.22 12.99 C 54.2 17.09 52.22 19.91 49.05 21.54 C 46.4 22.92 43.44 22.92 41.01 21.97 Z" fill-rule="evenodd" clip-rule="evenodd"/><path d=" M 44.48 12.27 C 43.79 12.27 43.23 12.44 43.23 14.25 C 43.23 16.57 43.66 16.87 44.52 16.87 C 45.43 16.87 45.69 16.52 45.69 14.25 C 45.69 12.39 45.26 12.27 44.48 12.27 Z" fill="#030000" fill-rule="evenodd" clip-rule="evenodd"/><path d=" M 39.59 12.43 C 39.59 13.21 38.96 13.83 38.19 13.83 C 37.41 13.83 36.78 13.2 36.78 12.43 C 36.78 11.65 37.41 11.02 38.19 11.02 C 38.96 11.02 39.59 11.65 39.59 12.43 Z" fill-rule="evenodd" clip-rule="evenodd"/><path d=" M 52.27 12.43 C 52.27 13.21 51.64 13.83 50.86 13.83 C 50.08 13.83 49.45 13.2 49.45 12.43 C 49.45 11.65 50.08 11.02 50.86 11.02 C 51.65 11.02 52.27 11.65 52.27 12.43 Z" fill-rule="evenodd" clip-rule="evenodd"/></g></svg>