<svg version="1.1" width="54.25" height="59.31" viewBox="0 0 54.25 59.31" xmlns="http://www.w3.org/2000/svg" xmlns:xlink="http://www.w3.org/1999/xlink" overflow="visible"><defs></defs><path d=" M 53.87 17.16 C 49.46 11.22 39.68 10.11 31.53 14.35 C 29.49 15.41 28.52 14.99 28.52 12.99 C 28.52 10.48 28.54 10.15 28.54 10.15 L 28.51 10.15 C 28.51 7.37 27.91 3.46 23.51 1.47 C 21.76 0.68 19.89 0.32 18.07 0.64 C 17.6 0.72 17.44 0.67 16.9 0.37 C 16.12 -0.07 15.15 -0.13 14.28 0.3 L 6.67 4.08 C 5.28 4.76 4.72 6.45 5.41 7.85 C 5.68 8.39 6.11 8.81 6.61 9.08 C 7.38 9.49 8.34 9.54 9.19 9.12 L 16.8 5.34 C 17.39 5.05 17.82 4.58 18.08 4.04 C 18.25 3.67 18.4 3.43 18.88 3.36 C 20.08 3.19 21.21 3.37 22.21 3.78 C 25.24 5.03 25.71 6.93 25.71 10.16 C 25.71 10.16 25.66 10.49 25.66 13 C 25.66 15.01 24.76 15.42 22.72 14.36 C 14.57 10.12 4.79 11.23 0.38 17.17 C -0.09 17.8 -0.16 18.63 0.41 19.18 C 0.97 19.73 1.87 19.71 2.42 19.15 C 7 14.42 14.63 13.67 21.5 16.92 C 24.41 18.3 25.56 19.37 25.5 20.47 C 25.44 21.77 24.12 22.05 21.95 23.08 C 20.43 23.8 18.76 24.59 17.1 25.75 C 14.8 27.36 16.64 29.55 18.6 28.16 C 20.08 27.11 21.64 26.37 23.17 25.65 C 25.42 24.58 25.73 26.04 25.73 27.78 C 25.73 28.63 25.73 28.24 25.73 28.58 C 25.73 29.35 26.35 29.98 27.11 30 L 27.11 30 C 27.11 30 27.13 30 27.13 30 C 27.13 30 27.14 30 27.15 30 L 27.15 30 C 27.91 29.98 28.53 29.36 28.53 28.58 C 28.53 28.24 28.53 28.63 28.53 27.78 C 28.53 25.25 28.67 24.45 31.09 25.59 C 32.62 26.32 34.18 27.05 35.66 28.1 C 37.61 29.49 39.46 27.3 37.16 25.69 C 35.5 24.53 33.83 23.74 32.31 23.02 C 30.13 21.98 28.85 21.69 28.75 20.4 C 28.67 19.29 29.86 18.3 32.75 16.92 C 39.61 13.67 47.24 14.43 51.83 19.15 C 52.38 19.71 53.28 19.73 53.84 19.18 C 54.41 18.63 54.34 17.79 53.87 17.16 Z"/><path d=" M 40.37 47.55 C 36.63 48.78 32.16 48.74 29.08 47.75 C 28.3 47.5 28.13 47.05 28.2 46.55 C 28.27 46.05 28.61 45.92 29.05 45.8 C 31.19 45.23 33.87 43.05 34.01 39.87 C 34.18 36.1 32.33 32.55 27.36 32.28 C 23.13 32.05 20.12 35.51 20.33 39.2 C 20.55 43.03 22.95 44.79 25.11 45.61 C 25.31 45.68 25.79 46.05 25.8 46.49 C 25.81 47.01 25.5 47.43 24.91 47.41 C 21 47.3 15.51 47.87 12.5 48.79 C 10.48 49.41 10.71 52.16 13.49 51.59 C 16.78 50.92 19.38 50.54 22.96 51.03 C 23.92 51.16 24.77 51.99 24.77 53.41 C 24.77 54.46 24.68 55.46 24.53 56.45 C 24.04 59.65 28.37 60.61 28.96 56.94 C 29.16 55.68 29.26 54.43 29.3 53.35 C 29.37 51.4 30.68 51.48 31.48 51.51 C 33.25 51.56 37.75 51.89 41.73 50.25 C 43.92 49.34 43.45 46.53 40.37 47.55 Z M 25.37 43.81 C 23.02 42.89 22.09 40.63 22.22 38.53 C 22.39 35.8 24.65 34.03 27.29 34.11 C 29.95 34.19 32.25 36.03 32.24 39.15 C 32.23 41.28 31.19 42.74 29.55 43.59 C 28.17 44.3 26.63 44.3 25.37 43.81 Z" fill-rule="evenodd" clip-rule="evenodd"/><path d=" M 27.26 38.94 C 26.9 38.94 26.61 39.03 26.61 39.97 C 26.61 41.17 26.83 41.33 27.28 41.33 C 27.75 41.33 27.89 41.15 27.89 39.97 C 27.89 39 27.67 38.94 27.26 38.94 Z" fill="#030000" fill-rule="evenodd" clip-rule="evenodd"/><path d=" M 24.65 38.86 C 24.65 39.26 24.32 39.59 23.92 39.59 C 23.52 39.59 23.19 39.26 23.19 38.86 C 23.19 38.46 23.52 38.13 23.92 38.13 C 24.32 38.13 24.65 38.45 24.65 38.86 Z" fill-rule="evenodd" clip-rule="evenodd"/><path d=" M 31.25 38.86 C 31.25 39.26 30.92 39.59 30.52 39.59 C 30.12 39.59 29.79 39.26 29.79 38.86 C 29.79 38.46 30.12 38.13 30.52 38.13 C 30.92 38.13 31.25 38.45 31.25 38.86 Z" fill-rule="evenodd" clip-rule="evenodd"/></svg>