<svg version="1.1" width="61.65" height="62.71" viewBox="0 0 61.65 62.71" xmlns="http://www.w3.org/2000/svg" xmlns:xlink="http://www.w3.org/1999/xlink" overflow="visible"><defs></defs><path d=" M 40.41 37.98 L 21.5 37.98 C 18.59 37.98 18.58 38 18.58 40.91 L 18.58 59.8 C 18.58 62.71 18.6 62.71 21.51 62.71 L 40.38 62.71 C 43.29 62.71 43.31 62.71 43.31 59.81 L 43.31 40.91 C 43.31 38 43.31 37.98 40.41 37.98 Z M 29.63 47.58 C 29.63 47.58 29.63 47.6 29.63 47.6 C 29.63 49.05 29.64 49.03 28.19 49.03 C 28.19 49.03 24.01 49.03 22.66 49.03 C 21.22 49.03 21.22 49.03 21.22 47.59 C 21.22 46.51 21.22 42.35 21.22 42.06 C 21.22 40.62 21.22 40.62 22.66 40.62 C 23.74 40.62 27.91 40.62 28.18 40.62 C 29.63 40.62 29.63 40.62 29.63 42.07 C 29.63 42.35 29.63 47.42 29.63 47.58 Z M 29.63 58.63 C 29.63 58.63 29.63 58.65 29.63 58.65 C 29.63 60.1 29.64 60.08 28.19 60.08 C 28.19 60.08 24.01 60.08 22.66 60.08 C 21.22 60.08 21.22 60.08 21.22 58.64 C 21.22 57.56 21.22 53.4 21.22 53.11 C 21.22 51.67 21.22 51.67 22.66 51.67 C 23.74 51.67 27.91 51.67 28.18 51.67 C 29.63 51.67 29.63 51.68 29.63 53.12 C 29.63 53.4 29.63 58.48 29.63 58.63 Z M 40.68 58.63 C 40.68 58.63 40.68 58.65 40.68 58.65 C 40.68 60.1 40.69 60.08 39.24 60.08 C 39.24 60.08 35.06 60.08 33.71 60.08 C 32.27 60.08 32.27 60.08 32.27 58.64 C 32.27 57.56 32.27 53.4 32.27 53.11 C 32.27 51.67 32.27 51.67 33.71 51.67 C 34.79 51.67 38.96 51.67 39.23 51.67 C 40.68 51.67 40.68 51.68 40.68 53.12 C 40.68 53.4 40.68 58.48 40.68 58.63 Z M 40.68 47.58 C 40.68 47.58 40.68 47.6 40.68 47.6 C 40.68 49.05 40.69 49.03 39.24 49.03 C 39.24 49.03 35.06 49.03 33.71 49.03 C 32.27 49.03 32.27 49.03 32.27 47.59 C 32.27 46.51 32.27 42.35 32.27 42.06 C 32.27 40.62 32.27 40.62 33.71 40.62 C 34.79 40.62 38.96 40.62 39.23 40.62 C 40.68 40.62 40.68 40.62 40.68 42.07 C 40.68 42.35 40.68 47.42 40.68 47.58 Z" fill="#030000"/><path d=" M 54.5 20.5 C 55.75 21.95 55.42 22.79 53.84 24.35 C 52.66 25.52 50.59 27.42 47.63 30.36 C 45.86 32.12 44.75 33.94 45.74 35.78 C 46.76 37.67 49.6 37.84 51.05 37.92 C 53.28 38.04 53.85 37.99 59.44 37.78 C 62.45 37.67 62.37 34.27 59.32 34.46 C 56.88 34.62 54.68 34.53 52.15 34.6 C 49.75 34.66 49.76 33.62 50.58 32.87 C 56.5 27.41 58.71 25.86 59.29 23.68 C 59.57 22.64 59.63 21.12 58.73 19.72 C 56.13 15.65 49.09 12 46.59 11.03 C 44.31 10.14 42.08 9.75 41.63 8.36 C 41 6.41 42.93 5.96 42.01 3.03 C 41.07 0.02 38.53 -0.27 37 0.16 C 35 0.73 33.6 2.93 34.22 5.1 C 34.62 6.5 35.28 7.41 36.36 8.06 C 37.75 8.89 39.04 8.61 39.4 9.22 C 40.09 10.41 38.65 10.17 39.22 17.24 C 39.52 20.94 39.44 25.22 37.85 29.53 C 36.8 32.41 39.82 33.29 40.7 30.87 C 42.14 26.94 43.11 23.76 42.65 17.49 C 42.42 14.4 44.36 14.36 45.76 14.86 C 47.46 15.49 51.73 17.3 54.5 20.5 Z" fill-rule="evenodd" clip-rule="evenodd"/><path d=" M 7.14 20.5 C 5.89 21.95 6.22 22.79 7.8 24.35 C 8.98 25.52 11.06 27.42 14.01 30.36 C 15.78 32.12 16.89 33.94 15.9 35.78 C 14.88 37.67 12.05 37.84 10.59 37.92 C 8.36 38.04 7.79 37.99 2.2 37.78 C -0.81 37.67 -0.73 34.27 2.32 34.46 C 4.76 34.62 6.96 34.53 9.49 34.6 C 11.89 34.66 11.88 33.62 11.06 32.87 C 5.14 27.41 2.93 25.86 2.35 23.68 C 2.07 22.64 2.01 21.12 2.91 19.72 C 5.51 15.65 12.55 12 15.05 11.03 C 17.33 10.14 19.56 9.75 20.01 8.36 C 20.64 6.41 18.71 5.96 19.62 3.03 C 20.56 0.04 23.11 -0.26 24.64 0.18 C 26.64 0.75 28.04 2.95 27.42 5.12 C 27.02 6.52 26.36 7.43 25.28 8.08 C 23.89 8.91 22.6 8.63 22.25 9.24 C 21.56 10.43 23 10.19 22.43 17.26 C 22.13 20.96 22.22 25.24 23.8 29.55 C 24.85 32.43 21.83 33.31 20.95 30.89 C 19.51 26.96 18.54 23.78 19 17.51 C 19.23 14.42 17.29 14.38 15.9 14.88 C 14.19 15.49 9.91 17.3 7.14 20.5 Z" fill-rule="evenodd" clip-rule="evenodd"/></svg>