<svg version="1.1" width="25.25" height="57.55" viewBox="0 0 25.25 57.55" xmlns="http://www.w3.org/2000/svg" xmlns:xlink="http://www.w3.org/1999/xlink" overflow="visible"><defs></defs><path d=" M 16.74 22.6 C 21.83 20.92 24.72 17.09 25.2 11.99 C 25.77 5.99 21.69 0.81 15.41 0.07 C 9.85 -0.58 5.41 2.96 3.91 7.91 C 3.26 10.06 3.9 12.37 6.7 11.97 C 19.16 10.2 20.44 13.3 19.52 15.76 C 17.84 20.26 11.19 20.58 7.07 17.21 C 5.79 16.16 4.94 17.2 5.41 18.06 C 6.05 19.24 7.02 20.11 8.01 20.69 C 9.96 21.85 12.5 22.62 12.09 24.18 C 11.89 24.95 11.21 25.64 10.05 27.33 C 8.09 30.18 5.12 33.1 1.44 35.29 C -1.55 37.07 0.54 40.42 3.67 38.52 C 6.61 36.73 9.36 34.63 12.49 31.5 C 13.67 30.32 14.86 29.82 16.3 31.9 C 16.85 32.7 17.28 33.4 17.93 34.42 C 20.22 37.96 20.1 39.18 18.58 43.07 C 16.67 47.97 16.85 49.96 17.35 55.68 C 17.59 58.47 21.34 57.96 21.18 55.37 C 20.98 52.2 20.61 50.14 21.62 47.4 C 22.89 43.95 24.21 41.6 24.21 39.4 C 24.21 36.79 24.01 35.18 20.28 29.7 C 18.69 27.37 17.64 26.2 16.89 25.53 C 14.81 23.67 15.97 22.86 16.74 22.6 Z" fill-rule="evenodd" clip-rule="evenodd"/></svg>