<svg version="1.1" width="59.59" height="61.09" viewBox="0 0 59.59 61.09" xmlns="http://www.w3.org/2000/svg" xmlns:xlink="http://www.w3.org/1999/xlink" overflow="visible"><defs></defs><path d=" M 54.65 28.61 C 47.63 31.07 39.51 30.86 33.69 28.99 C 32.2 28.52 31.89 27.68 32.03 26.72 C 32.17 25.77 32.81 25.52 33.64 25.3 C 38.35 24.05 43.01 19.68 43.16 14.18 C 43.36 7.05 39.66 0.43 30.61 0.01 C 22.4 -0.36 16.77 5.86 17.18 12.84 C 17.59 20.07 22.13 23.41 26.22 24.95 C 26.59 25.09 27.5 25.78 27.53 26.61 C 27.56 27.59 26.96 28.39 25.85 28.36 C 18.44 28.13 8.06 29.21 2.37 30.96 C -1.45 32.13 -0.52 37.3 4.23 36.26 C 10.43 34.91 15.36 34.27 22.12 35.2 C 23.94 35.45 25.55 37.02 25.53 39.71 C 25.51 45.19 24.27 50.03 22.69 55.05 C 20.7 61.32 28.34 63.57 30.57 57.57 C 31.7 54.51 33.87 45.86 34.11 39.59 C 34.25 35.9 36.71 36.06 38.23 36.11 C 41.58 36.21 49.69 36.83 57.22 33.72 C 61.37 32 59.79 26.81 54.65 28.61 Z M 26.7 21.54 C 22.25 19.79 20.49 15.53 20.73 11.57 C 21.05 6.41 25.68 3.13 30.31 3.21 C 34.94 3.29 39.69 6.84 39.66 12.73 C 39.64 16.75 37.69 19.52 34.58 21.13 C 31.98 22.47 29.08 22.47 26.7 21.54 Z" fill-rule="evenodd" clip-rule="evenodd"/><path d=" M 10.79 56.29 C 14.51 52.32 17.6 48.4 19.5 45.14 C 21.52 41.7 17.68 38.16 14.54 42.5 C 12.05 45.94 9.82 48.81 6.94 51.49 C 4.9 53.39 5.2 55.31 6.14 56.55 C 7.42 58.2 9.69 57.46 10.79 56.29 Z" fill-rule="evenodd" clip-rule="evenodd"/><path d=" M 49.81 56.31 C 46.09 52.34 42.98 48.4 41.07 45.14 C 39.05 41.7 42.89 38.16 46.03 42.5 C 48.52 45.94 50.75 48.81 53.63 51.49 C 55.67 53.39 55.47 55.4 54.43 56.55 C 53.08 58.04 50.92 57.49 49.81 56.31 Z" fill-rule="evenodd" clip-rule="evenodd"/><path d=" M 30.27 12.33 C 29.6 12.33 29.05 12.5 29.05 14.27 C 29.05 16.55 29.47 16.85 30.31 16.85 C 31.2 16.85 31.46 16.51 31.46 14.27 C 31.46 12.45 31.04 12.33 30.27 12.33 Z" fill="#030000" fill-rule="evenodd" clip-rule="evenodd"/><path d=" M 25.33 12.18 C 25.33 12.94 24.71 13.56 23.95 13.56 C 23.19 13.56 22.57 12.94 22.57 12.18 C 22.57 11.42 23.19 10.8 23.95 10.8 C 24.72 10.8 25.33 11.42 25.33 12.18 Z" fill-rule="evenodd" clip-rule="evenodd"/><path d=" M 37.81 12.18 C 37.81 12.94 37.19 13.56 36.43 13.56 C 35.67 13.56 35.05 12.94 35.05 12.18 C 35.05 11.42 35.67 10.8 36.43 10.8 C 37.2 10.8 37.81 11.42 37.81 12.18 Z" fill-rule="evenodd" clip-rule="evenodd"/></svg>