<svg version="1.1" width="61.64" height="61.14" viewBox="0 0 61.64 61.14" xmlns="http://www.w3.org/2000/svg" xmlns:xlink="http://www.w3.org/1999/xlink" overflow="visible"><defs></defs><path d=" M 11.18 18.87 C 11.26 16.28 12.81 12.41 15.13 9.86 C 15.56 9.39 15.3 8.33 14.27 8.56 C 10.24 9.47 9.62 13.91 9.61 13.96 C 9.42 16.03 6.64 15.71 6.8 13.72 C 6.99 11.43 8.68 6.81 13.7 5.8 C 16.89 5.16 19.53 6.58 22.07 5.13 C 25.55 3.15 27.83 2.09 31.96 1.43 C 33.11 1.24 33.89 1.56 34.1 2.47 C 34.25 3.12 33.74 3.84 32.85 4 C 29.53 4.58 27.5 5.49 25.25 6.68 C 24.33 7.16 24.08 7.65 24.03 8.01 C 23.89 8.87 24.75 9.51 25.36 10.96 C 26.65 14.05 26.69 16.92 25.31 19.55 C 24.31 21.47 21.79 20.19 22.82 18.24 C 23.87 16.24 23.88 14.22 22.86 12.24 C 22.62 11.79 21.89 10.44 20.67 10.18 C 19.85 10 19.02 10.2 18.21 10.84 C 15.6 12.88 14.07 16.94 14 18.97 C 13.93 21.12 11.12 20.92 11.18 18.87 Z" fill="#030000"/><path d=" M 61.36 57.06 C 60.81 56.16 60.04 55.98 58.89 56.51 C 52.95 59.26 47.7 55.24 46.46 52.01 C 42.76 42.33 48.36 25.83 48.42 25.67 C 48.65 25 48.5 24.26 48.01 23.74 C 47.53 23.22 46.8 23.01 46.11 23.2 C 40.73 24.65 37.13 18.73 40.23 13.85 C 41.8 11.38 46.37 3.44 46.69 2.93 C 47.25 2.03 46.98 0.85 46.08 0.29 C 45.2 -0.27 44.02 0 43.46 0.9 C 43.38 1.03 38.5 9.29 37.03 11.78 C 33.78 17.29 35.43 23.45 40.59 26.27 L 40.59 26.27 C 41.36 26.56 43.78 27.17 42.63 32.62 L 42.63 32.62 C 41.38 38.74 40.48 47.08 42.89 53.38 C 45.71 60.77 55.16 62.89 60.72 59.69 C 61.64 59.17 61.91 57.97 61.36 57.06 Z"/><path d=" M 33.79 40.13 C 29.36 41.59 24.93 41.54 21.28 40.37 C 20.35 40.07 20.15 39.54 20.24 38.94 C 20.33 38.35 20.73 38.19 21.25 38.05 C 24.09 37.31 26.98 34.83 27.17 30.96 C 27.4 26.5 25.06 22.42 19.17 22.2 C 13.77 21.99 10.78 26.28 10.93 30.25 C 11.1 34.79 14.03 36.88 16.6 37.84 C 16.84 37.93 17.41 38.36 17.42 38.88 C 17.44 39.5 17.06 39.98 16.36 39.98 C 10.8 39.95 5.23 40.57 1.65 41.61 C -0.91 42.35 -0.47 45.6 2.82 44.93 C 6.72 44.14 9.8 43.68 14.03 44.27 C 15.17 44.43 16.18 45.41 16.17 47.09 C 16.15 50.52 15.38 53.56 14.39 56.71 C 13.14 60.64 17.21 62.08 19.08 58.77 C 20.41 56.42 21.39 50.94 21.54 47.02 C 21.63 44.71 23.17 44.81 24.12 44.84 C 26.22 44.9 30.67 45.29 35.39 43.34 C 38 42.26 37.44 38.93 33.79 40.13 Z M 16.9 35.7 C 14.11 34.61 13.01 31.94 13.16 29.45 C 13.36 26.22 16.26 24.16 19.16 24.21 C 22.06 24.26 25.04 26.48 25.02 30.18 C 25.01 32.7 23.79 34.43 21.84 35.44 C 20.21 36.29 18.39 36.29 16.9 35.7 Z" fill-rule="evenodd" clip-rule="evenodd"/><path d=" M 19.14 29.93 C 18.72 29.93 18.37 30.04 18.37 31.15 C 18.37 32.58 18.63 32.76 19.16 32.76 C 19.72 32.76 19.88 32.55 19.88 31.15 C 19.89 30.01 19.62 29.93 19.14 29.93 Z" fill="#030000" fill-rule="evenodd" clip-rule="evenodd"/><path d=" M 16.04 29.84 C 16.04 30.32 15.65 30.7 15.18 30.7 C 14.7 30.7 14.32 30.31 14.32 29.84 C 14.32 29.36 14.71 28.98 15.18 28.98 C 15.66 28.97 16.04 29.36 16.04 29.84 Z" fill-rule="evenodd" clip-rule="evenodd"/><path d=" M 23.86 29.84 C 23.86 30.32 23.47 30.7 23 30.7 C 22.52 30.7 22.14 30.31 22.14 29.84 C 22.14 29.36 22.53 28.98 23 28.98 C 23.48 28.97 23.86 29.36 23.86 29.84 Z" fill-rule="evenodd" clip-rule="evenodd"/></svg>