<svg version="1.1" width="63.12" height="54.5" viewBox="0 0 63.12 54.5" xmlns="http://www.w3.org/2000/svg" xmlns:xlink="http://www.w3.org/1999/xlink" overflow="visible"><defs></defs><g><path d=" M 59.71 49.06 C 56.46 49.45 49.7 49.7 46.32 49.98 C 43.11 50.24 43.05 48.85 44.09 47.78 C 51.62 40.04 54.46 37.81 55.08 34.83 C 55.67 32.01 54.08 29.24 47.97 17.95 C 45.76 13.86 44.45 14.21 44.38 12.25 C 44.28 9.51 46.94 9.63 46.83 5.51 C 46.72 1.32 43.54 0 41.4 0 C 38.62 0 36 2.33 36 5.35 C 36 7.3 36.51 8.72 37.67 9.95 C 39.15 11.53 40.16 11.4 40.4 12.31 C 41.05 14.74 39.34 14.75 38.63 24.23 C 38.26 29.19 37.09 35.16 34.11 40.55 C 32.12 44.14 36.11 45.62 37.78 42.6 C 40.49 37.69 42.84 31.47 43.13 25.28 C 43.42 19.02 45.68 24.16 48.77 30.52 C 49.89 32.83 49.83 33.92 47.83 36.13 C 46.33 37.79 43.69 40.48 39.95 44.63 C 37.71 47.12 36.36 49.64 37.81 52.02 C 39.31 54.48 43.12 54.49 45.08 54.49 C 48.08 54.49 52.94 54.15 60.41 53.45 C 64.44 53.09 63.78 48.58 59.71 49.06 Z" fill-rule="evenodd" clip-rule="evenodd"/><path d=" M 24.47 24.24 C 23.76 14.75 22.05 14.75 22.7 12.32 C 22.94 11.41 23.95 11.53 25.43 9.96 C 26.59 8.73 27.1 7.3 27.1 5.36 C 27.1 2.34 24.48 0.01 21.7 0.01 C 19.57 0.01 16.39 1.33 16.28 5.53 C 16.17 9.65 18.83 9.53 18.73 12.27 C 18.66 14.23 17.35 13.88 15.14 17.97 C 9.03 29.26 7.44 32.03 8.03 34.85 C 8.65 37.82 11.49 40.05 19.03 47.8 C 20.07 48.87 20.01 50.26 16.8 50 C 13.42 49.73 6.66 49.47 3.41 49.08 C -0.66 48.6 -1.32 53.11 2.7 53.48 C 10.17 54.17 15.03 54.52 18.03 54.52 C 19.98 54.52 23.8 54.51 25.3 52.05 C 26.75 49.67 25.4 47.15 23.16 44.66 C 19.41 40.51 16.78 37.82 15.28 36.16 C 13.28 33.95 13.22 32.85 14.34 30.55 C 17.42 24.2 19.69 19.05 19.98 25.31 C 20.27 31.5 22.61 37.72 25.33 42.63 C 27 45.65 30.99 44.17 29 40.58 C 26.01 35.17 24.84 29.2 24.47 24.24 Z" fill-rule="evenodd" clip-rule="evenodd"/></g></svg>