<svg version="1.1" width="61.67" height="61.14" viewBox="0 0 61.67 61.14" xmlns="http://www.w3.org/2000/svg" xmlns:xlink="http://www.w3.org/1999/xlink" overflow="visible"><defs></defs><g><path d=" M 34.9 29.04 C 30.45 29.64 26.93 29.74 22.38 28.91 C 20.87 28.64 20.62 27.62 20.75 26.68 C 20.88 25.75 21.51 25.5 22.33 25.29 C 26.31 24.23 31.15 20.63 31.54 14.35 C 31.97 7.36 28.31 0.79 19.07 0.43 C 10.61 0.1 5.92 6.59 6.16 13.04 C 6.42 20.15 11.02 23.43 15.04 24.94 C 15.41 25.08 16.3 25.76 16.33 26.57 C 16.36 27.54 15.77 28.32 14.67 28.29 C 7.39 28.07 4.45 28.89 2.33 29.45 C -1.24 30.4 -0.78 35.38 4.16 34.66 C 7.26 34.21 9.77 33.89 11.7 34.63 C 13.87 35.46 14.38 36.81 14.37 39.45 C 14.34 44.83 13.14 49.6 11.58 54.52 C 9.63 60.68 16.03 62.92 19.1 57.44 C 21.29 53.54 22.56 45.48 22.79 39.34 C 22.92 35.72 24.81 35.32 27.64 35.32 C 30.93 35.32 34.07 35.07 36.5 34.49 C 39.68 33.73 39.81 28.38 34.9 29.04 Z M 15.51 21.59 C 11.14 19.88 9.18 16.31 9.65 11.79 C 10.18 6.74 14.1 3.51 19.06 3.58 C 23.89 3.65 28.27 7.14 28.24 12.94 C 28.22 16.89 26.31 19.61 23.26 21.18 C 20.71 22.51 17.86 22.51 15.51 21.59 Z" fill-rule="evenodd" clip-rule="evenodd"/><path d=" M 18.85 12.54 C 18.19 12.54 17.65 12.7 17.65 14.45 C 17.65 16.69 18.07 16.98 18.89 16.98 C 19.77 16.98 20.02 16.65 20.02 14.45 C 20.02 12.66 19.6 12.54 18.85 12.54 Z" fill="#030000" fill-rule="evenodd" clip-rule="evenodd"/><path d=" M 14.11 12.39 C 14.11 13.14 13.5 13.74 12.76 13.74 C 12.01 13.74 11.4 13.13 11.4 12.39 C 11.4 11.64 12 11.03 12.76 11.03 C 13.5 11.04 14.11 11.64 14.11 12.39 Z" fill-rule="evenodd" clip-rule="evenodd"/><path d=" M 26.36 12.39 C 26.36 13.14 25.76 13.74 25.01 13.74 C 24.26 13.74 23.65 13.13 23.65 12.39 C 23.65 11.64 24.26 11.03 25.01 11.03 C 25.76 11.04 26.36 11.64 26.36 12.39 Z" fill-rule="evenodd" clip-rule="evenodd"/></g><path d=" M 61.39 57.06 C 60.84 56.16 60.07 55.98 58.92 56.51 C 52.98 59.26 47.73 55.24 46.49 52.01 C 42.79 42.33 48.39 25.83 48.45 25.67 C 48.68 25 48.53 24.26 48.04 23.74 C 47.56 23.22 46.83 23.01 46.14 23.2 C 40.76 24.65 37.16 18.73 40.26 13.85 C 41.83 11.38 46.4 3.44 46.72 2.93 C 47.28 2.03 47.01 0.85 46.11 0.29 C 45.23 -0.27 44.05 0 43.49 0.9 C 43.41 1.03 38.53 9.29 37.06 11.78 C 33.81 17.29 35.46 23.45 40.62 26.27 L 40.62 26.27 C 41.39 26.56 43.81 27.17 42.66 32.62 L 42.66 32.62 C 41.41 38.74 40.51 47.08 42.92 53.38 C 45.74 60.77 55.19 62.89 60.75 59.69 C 61.67 59.17 61.94 57.97 61.39 57.06 Z"/></svg>