<svg version="1.1" width="61.01" height="62.11" viewBox="0 0 61.01 62.11" xmlns="http://www.w3.org/2000/svg" xmlns:xlink="http://www.w3.org/1999/xlink" overflow="visible"><defs></defs><path d=" M 57.61 56.38 C 54.37 56.76 47.62 57.02 44.25 57.29 C 41.05 57.55 40.99 56.16 42.02 55.1 C 49.54 47.37 52.37 45.15 52.99 42.18 C 53.58 39.36 51.99 36.6 45.89 25.33 C 43.68 21.25 42.38 21.6 42.31 19.65 C 42.21 16.92 44.87 17.04 44.76 12.93 C 44.65 8.73 41.48 7.42 39.35 7.42 C 36.58 7.42 33.96 9.75 33.96 12.76 C 33.96 14.7 34.47 16.12 35.63 17.35 C 37.11 18.93 38.12 18.8 38.36 19.71 C 39 22.13 37.3 22.14 36.59 31.61 C 36.22 36.56 35.06 42.52 32.08 47.89 C 30.09 51.47 34.07 52.95 35.74 49.93 C 38.45 45.03 40.79 38.82 41.08 32.65 C 41.37 26.4 43.63 31.53 46.71 37.88 C 47.83 40.18 47.77 41.27 45.77 43.48 C 44.27 45.14 41.64 47.82 37.9 51.96 C 35.66 54.44 34.32 56.96 35.77 59.33 C 37.26 61.78 41.07 61.8 43.02 61.8 C 46.02 61.8 50.86 61.46 58.32 60.76 C 62.32 60.4 61.67 55.9 57.61 56.38 Z" fill-rule="evenodd" clip-rule="evenodd"/><path d=" M 30.69 23.39 C 25.66 19.73 19.4 17.31 15.17 15.05 C 14.39 14.68 13.97 13.77 14.11 12.86 C 14.32 11.52 15.5 11.38 16.82 10.06 C 17.93 8.95 18.51 7.38 18.51 5.41 C 18.51 2.36 15.86 1.77636e-15 13.05 1.77636e-15 C 10.9 1.77636e-15 7.62 1.33 7.57 5.57 C 7.52 10.27 10.59 9.84 10.49 12.61 C 10.42 14.59 7.54 16.34 5.29 19.61 C 1.15 25.64 -0.11 28.15 -0.01 31.39 C 0.1 34.86 2.29 39.01 3.69 42.82 C 4.8 45.85 5.08 47.26 4.19 59.15 C 3.92 62.75 8.56 63.3 8.9 59.49 C 10.13 45.65 9.9 43.75 7.8 38.33 C 6.36 34.61 4.9 31.4 7.19 27.26 C 8.3 25.25 9.69 22.56 11.22 21.02 C 12.37 19.86 13.31 19.35 15.31 20.06 C 19.77 21.65 23.82 23.57 28.39 26.9 C 31.22 28.95 34.05 25.83 30.69 23.39" fill-rule="evenodd" clip-rule="evenodd"/></svg>