<svg version="1.1" width="60.18" height="61.33" viewBox="0 0 60.18 61.33" xmlns="http://www.w3.org/2000/svg" xmlns:xlink="http://www.w3.org/1999/xlink" overflow="visible"><defs></defs><path d=" M 28.97 20.85 C 25.47 16.39 24.78 16.58 25.51 13.85 C 25.78 12.83 26.92 12.96 28.58 11.19 C 29.88 9.8 30.46 8.21 30.46 6.02 C 30.46 2.62 27.51 1.77636e-15 24.39 1.77636e-15 C 21.99 1.77636e-15 18.42 1.48 18.3 6.2 C 18.18 10.83 21.18 10.7 21.06 13.77 C 20.98 15.79 17.96 15.77 12.96 17.17 C 0.87 20.55 -0.92 25.95 7.52 37.37 C 9.07 39.47 10.7 40.94 12.33 43.19 C 13.45 44.74 13.75 45.48 12.58 46.53 C 12.38 46.71 11.32 47.59 11.32 47.59 C 10.46 48.33 10.36 49.63 11.1 50.49 C 11.84 51.35 13.14 51.45 14 50.71 C 14 50.71 14.79 50.06 15.06 49.84 C 16.19 48.93 17.1 48.76 18.05 49.77 C 19.05 50.82 20.24 52.52 21.38 53.7 C 22.54 54.91 22.48 56.46 18.87 56.17 C 15.07 55.86 7.07 55.43 3.42 55.1 C -0.9 54.72 -1.22 59.69 3.03 60.08 C 11.43 60.86 16.89 61.24 20.26 61.24 C 22.46 61.24 26.55 61.93 28.24 59.17 C 29.87 56.49 28.24 54.28 25.76 50.87 C 24.68 49.38 23.51 48 22.49 46.58 C 22.08 46.02 21.41 44.92 22.62 43.88 C 33.39 34.6 38.24 32.67 28.97 20.85 Z M 9.37 31.3 C 6.73 26.96 6.23 23.91 12.96 22.06 C 15.43 21.38 15.46 22.57 14.65 24.1 C 12.97 27.26 12.13 29.32 11.14 31.24 C 10.64 32.21 10.14 32.56 9.37 31.3 Z M 19.99 40.67 C 19.61 41 18.28 42.17 16.97 40.71 C 14.73 38.21 14.83 36.9 16.09 34.31 C 17.03 32.37 17.95 30.4 18.72 28.6 C 18.98 27.99 19.39 27.96 19.96 28.36 C 20.37 28.65 20.92 28.71 21.45 28.71 C 23.28 28.71 24.77 27.22 24.77 25.39 C 24.77 24.38 24.62 22.57 26.43 24.61 C 32.67 31.69 26.42 35.06 19.99 40.67 Z" fill-rule="evenodd" clip-rule="evenodd"/><path d=" M 57.61 41.46 C 54.16 42.02 50.84 41.79 47.97 40.88 C 47.01 40.57 46.8 40.02 46.89 39.4 C 46.98 38.78 47.39 38.62 47.94 38.48 C 50.57 37.77 53.78 35.27 54.13 31.25 C 54.54 26.63 51.86 22.24 46.03 22.01 C 40.74 21.8 37.06 25.81 37.32 30.35 C 37.59 35.06 40.45 37.25 43.11 38.25 C 43.35 38.34 43.95 38.79 43.96 39.33 C 43.98 39.97 43.59 40.49 42.86 40.47 C 39.69 40.37 35.69 40.64 32.27 41.16 C 29.23 41.62 30.14 45.27 32.64 44.93 C 35.11 44.59 37.51 44.51 40.44 44.92 C 41.63 45.08 42.67 46.1 42.66 47.85 C 42.65 50.48 42.14 53.17 41.5 55.56 C 40.26 60.16 45.57 61.86 46.95 56.71 C 47.69 53.97 48.14 50.46 48.24 47.77 C 48.33 45.37 49.93 45.48 50.92 45.5 C 52.42 45.54 55.09 45.75 58.22 45.21 C 61.23 44.69 60.57 40.97 57.61 41.46 Z M 43.42 36.03 C 40.52 34.9 39.38 32.12 39.54 29.54 C 39.75 26.19 42.76 24.05 45.77 24.11 C 48.78 24.16 51.87 26.47 51.85 30.3 C 51.84 32.92 50.57 34.72 48.55 35.76 C 46.86 36.63 44.97 36.63 43.42 36.03 Z" fill-rule="evenodd" clip-rule="evenodd"/><path d=" M 45.75 30.03 C 45.31 30.03 44.95 30.14 44.95 31.29 C 44.95 32.77 45.23 32.96 45.77 32.96 C 46.35 32.96 46.52 32.74 46.52 31.29 C 46.52 30.12 46.24 30.03 45.75 30.03 Z" fill="#030000" fill-rule="evenodd" clip-rule="evenodd"/><path d=" M 42.53 29.94 C 42.53 30.44 42.13 30.84 41.63 30.84 C 41.13 30.84 40.73 30.44 40.73 29.94 C 40.73 29.44 41.13 29.04 41.63 29.04 C 42.13 29.04 42.53 29.44 42.53 29.94 Z" fill-rule="evenodd" clip-rule="evenodd"/><path d=" M 50.65 29.94 C 50.65 30.44 50.25 30.84 49.75 30.84 C 49.25 30.84 48.85 30.44 48.85 29.94 C 48.85 29.44 49.25 29.04 49.75 29.04 C 50.25 29.04 50.65 29.44 50.65 29.94 Z" fill-rule="evenodd" clip-rule="evenodd"/></svg>