<svg version="1.1" width="62.44" height="62.2" viewBox="0 0 62.44 62.2" xmlns="http://www.w3.org/2000/svg" xmlns:xlink="http://www.w3.org/1999/xlink" overflow="visible"><defs></defs><path d=" M 50.25 17.72 C 51.33 18.97 51.04 19.7 49.68 21.05 C 48.66 22.07 46.87 23.71 44.31 26.25 C 42.78 27.77 41.82 29.35 42.67 30.93 C 43.55 32.56 46 32.71 47.26 32.78 C 49.19 32.88 49.68 32.84 54.51 32.66 C 57.11 32.56 57.05 29.62 54.4 29.79 C 52.29 29.93 50.39 29.85 48.2 29.91 C 46.12 29.96 46.14 29.07 46.84 28.42 C 51.96 23.7 53.87 22.36 54.37 20.47 C 54.61 19.57 54.66 18.26 53.88 17.04 C 51.63 13.52 45.54 10.37 43.38 9.52 C 41.41 8.75 39.48 8.42 39.09 7.21 C 38.55 5.53 40.22 5.14 39.42 2.6 C 38.61 0.01 36.41 -0.24 35.08 0.13 C 33.35 0.62 32.14 2.53 32.67 4.4 C 33.01 5.61 33.58 6.4 34.52 6.96 C 35.72 7.68 36.84 7.43 37.15 7.96 C 37.74 8.99 36.5 8.78 36.99 14.9 C 37.25 18.1 37.18 21.8 35.81 25.52 C 34.9 28.01 37.51 28.77 38.27 26.68 C 39.51 23.28 40.35 20.53 39.96 15.12 C 39.76 12.45 41.44 12.41 42.64 12.85 C 44.16 13.39 47.85 14.96 50.25 17.72 Z" fill-rule="evenodd" clip-rule="evenodd"/><path d=" M 15.37 0.53 C 14.9 0.19 14.27 0.12 13.69 0.53 C 13.17 0.91 0 8.82 0 35.35 C 0 53.83 7.21 60.86 7.51 61.29 C 9.02 63.39 11.73 61.44 10.21 59.34 C 10.2 59.32 9.47 58.36 10.69 58.36 C 12.55 58.36 16.28 58.36 18.15 58.36 C 19.5 58.36 18.87 59.31 18.85 59.34 C 17.35 61.43 20.06 63.41 21.55 61.29 C 21.85 60.86 29.06 53.83 29.06 35.35 C 29.07 8.82 15.9 0.92 15.37 0.53 Z M 15.45 4.8 C 17.74 6.92 21.59 11.49 23.88 20.01 C 24.33 21.68 23.6 21.83 22.46 21.83 C 18.49 21.83 10.55 21.81 6.58 21.83 C 6.03 21.83 4.72 21.85 5.18 20.14 C 7.45 11.58 11.48 7.01 13.64 4.81 C 14.35 4.08 14.91 4.31 15.45 4.8 Z M 18.7 55.03 C 16.63 55.05 12.49 55.03 10.42 55.03 C 9.44 55.03 7.78 54.9 6.77 52.99 C 4.7 49.07 2.23 39.54 3.79 27.5 C 4.05 25.48 5.33 25.17 6.16 25.17 C 10.5 25.17 18.55 25.18 22.69 25.17 C 23.57 25.17 25.03 25.15 25.31 27.49 C 26.65 38.87 24.71 47.88 22.34 52.88 C 21.31 55.02 19.73 55.02 18.7 55.03 Z" fill="#030000"/><path d=" M 59.59 60.91 C 59.56 60.88 56.97 57.62 53.17 54.26 C 52.7 53.84 51.7 53.25 50.38 54.01 C 48.28 55.22 45.32 58.39 39.34 59.03 C 37.11 59.27 36.69 56.42 38.96 56.14 C 40.93 55.89 43.03 55.38 45.68 53.64 C 48.81 51.58 47.98 49.17 44.7 47.45 C 40.37 45.13 34.91 46.88 34.86 46.89 C 32.37 47.48 31.75 44.48 34.16 43.94 C 35.39 43.66 40.34 42.08 46.12 44.76 C 47.29 45.3 47.99 44.44 46.83 42.67 C 44.09 38.47 38.69 39.86 38.45 39.9 C 35.96 40.34 35.38 37.46 37.66 36.96 C 40.62 36.29 46.36 36.13 49.41 41.05 C 50.56 42.9 51.32 44.69 51.67 46.36 C 51.84 47.13 52.59 49.43 54.06 50.75 C 57.82 54.09 59.82 56.35 61.85 58.89 C 63.63 61.08 60.89 62.59 59.59 60.91 Z" fill="#030000"/></svg>