<svg version="1.1" width="41.61" height="65.59" viewBox="0 0 41.61 65.59" xmlns="http://www.w3.org/2000/svg" xmlns:xlink="http://www.w3.org/1999/xlink" overflow="visible"><defs></defs><path d=" M 31.14 52.08 C 30.26 50.8 29.95 49.54 29.62 48.19 C 29.14 46.22 28.59 43.99 26.21 41.8 C 22.85 38.72 18.89 37.42 15.61 38.32 C 13.4 38.93 11.76 40.53 11.12 42.69 C 10.56 44.58 10.54 50.28 11.08 57.58 C 11.27 60.26 12.23 62.33 13.91 63.73 C 15.86 65.35 18.24 65.57 19.39 65.57 C 19.79 65.57 20.04 65.54 20.07 65.54 C 20.84 65.46 21.39 64.76 21.3 64 C 21.21 63.23 20.52 62.68 19.76 62.77 C 19.73 62.77 17.38 62.99 15.69 61.59 C 14.61 60.69 13.99 59.28 13.86 57.38 C 13.78 56.22 14.19 54.36 17.09 54.68 C 19.86 54.98 23.33 55.32 27.12 55.39 C 30.25 55.45 30.17 57.04 30.1 57.78 C 29.89 60.01 28.3 61.45 28.03 61.68 C 27.44 62.17 27.36 63.05 27.85 63.65 C 28.34 64.24 29.22 64.32 29.81 63.83 C 31.88 62.11 34.84 57.42 31.14 52.08 Z M 16.35 41.02 C 17.51 40.7 18.84 40.82 20.22 41.31 C 22.96 42.28 21.25 43.37 20.42 43.86 C 19.14 44.61 17.56 45.39 15.7 46.02 C 15.01 46.25 13.5 46.72 13.61 44.61 C 13.64 44.08 13.72 43.71 13.79 43.5 C 14.17 42.24 15.05 41.38 16.35 41.02 Z M 13.51 50.46 C 13.49 50 13.66 49.55 15.37 49.05 C 18.49 48.15 20.98 46.85 22.79 45.69 C 24.51 44.6 25.77 45.33 26.37 46.97 C 26.59 47.57 26.74 48.2 26.9 48.86 C 26.99 49.22 27.1 49.58 27.19 49.97 C 27.48 51.36 27.52 52.65 25.43 52.59 C 21.56 52.47 18.11 51.99 15.6 51.65 C 13.95 51.41 13.54 51.04 13.51 50.46 Z" fill="#000100"/><path d=" M 3.63 15.69 C 8.62 14.04 13.61 14.1 17.72 15.42 C 18.76 15.76 18.99 16.35 18.89 17.03 C 18.79 17.7 18.34 17.87 17.75 18.03 C 14.89 18.8 11.3 21.5 11.19 26.03 C 11.07 31.06 13.46 35.63 20.09 35.89 C 26.17 36.12 29.65 31.75 29.37 26.82 C 29.08 21.72 25.87 19.36 22.98 18.27 C 22.72 18.17 22.07 17.68 22.06 17.1 C 22.04 16.41 22.46 15.84 23.25 15.87 C 28.48 16.03 35.8 15.27 39.82 14.03 C 42.51 13.2 42.21 9.53 38.5 10.29 C 34.11 11.18 30.64 11.7 25.87 11.04 C 24.58 10.86 23.45 9.75 23.46 7.86 C 23.47 6.46 23.58 5.12 23.78 3.81 C 24.44 -0.46 18.65 -1.74 17.87 3.15 C 17.6 4.83 17.46 6.5 17.41 7.94 C 17.31 10.54 15.57 10.43 14.5 10.4 C 12.14 10.33 7.12 9.89 1.8 12.09 C -1.12 13.3 -0.49 17.05 3.63 15.69 Z M 22.65 20.68 C 25.79 21.91 27.03 24.92 26.86 27.72 C 26.64 31.36 23.37 33.67 20.1 33.62 C 16.84 33.57 13.48 31.06 13.5 26.9 C 13.52 24.06 14.89 22.11 17.08 20.97 C 18.92 20.02 20.97 20.02 22.65 20.68 Z" fill-rule="evenodd" clip-rule="evenodd"/><path d=" M 20.13 27.18 C 20.61 27.18 20.99 27.06 20.99 25.81 C 20.99 24.2 20.69 23.99 20.1 23.99 C 19.47 23.99 19.29 24.23 19.29 25.81 C 19.29 27.1 19.59 27.18 20.13 27.18 Z" fill="#030000" fill-rule="evenodd" clip-rule="evenodd"/><path d=" M 23.61 27.29 C 23.61 26.75 24.05 26.32 24.58 26.32 C 25.12 26.32 25.56 26.76 25.56 27.29 C 25.56 27.83 25.12 28.26 24.58 28.26 C 24.05 28.26 23.61 27.83 23.61 27.29 Z" fill-rule="evenodd" clip-rule="evenodd"/><path d=" M 14.81 27.29 C 14.81 26.75 15.25 26.32 15.78 26.32 C 16.32 26.32 16.75 26.76 16.75 27.29 C 16.75 27.83 16.31 28.26 15.78 28.26 C 15.24 28.26 14.81 27.83 14.81 27.29 Z" fill-rule="evenodd" clip-rule="evenodd"/></svg>