<svg version="1.1" width="60.88" height="62.21" viewBox="0 0 60.88 62.21" xmlns="http://www.w3.org/2000/svg" xmlns:xlink="http://www.w3.org/1999/xlink" overflow="visible"><defs></defs><path d=" M 27.79 46.29 C 31.2 40.14 32.53 33.33 32.95 27.67 C 33.76 16.84 35.71 16.83 34.97 14.06 C 34.69 13.02 33.54 13.16 31.85 11.36 C 30.53 9.95 29.94 8.33 29.94 6.11 C 29.93 2.66 32.93 0 36.1 0 C 38.53 0 42.16 1.5 42.29 6.3 C 42.42 11.01 39.38 10.87 39.49 13.99 C 39.57 16.23 41.06 15.83 43.59 20.49 C 50.57 33.38 52.38 36.54 51.71 39.76 C 51 43.15 47.75 45.7 39.16 54.54 C 37.98 55.76 38.04 57.35 41.71 57.05 C 45.57 56.74 53.29 56.44 57 56 C 61.65 55.45 62.4 60.6 57.81 61.03 C 49.28 61.82 43.74 62.21 40.31 62.21 C 38.08 62.21 33.72 62.2 32.02 59.39 C 30.36 56.67 31.9 53.79 34.46 50.96 C 38.74 46.22 41.75 43.15 43.46 41.26 C 45.74 38.73 45.81 37.49 44.53 34.85 C 41.01 27.6 38.43 21.72 38.09 28.87 C 37.76 35.93 35.08 43.04 31.98 48.64 C 30.07 52.08 25.51 50.4 27.79 46.29 Z" fill-rule="evenodd" clip-rule="evenodd"/><path d=" M 12.26 35.92 C 4.06 35.92 2.66 32.48 0.83 26.71 C 0.23 24.81 -0.5 22.69 0.45 21.29 C 1.3 20.04 2.95 19.83 4.1 19.7 C 5.44 19.55 6.63 17.86 9.17 17.91 C 10.55 17.93 11.45 18.59 12.04 19.04 C 12.1 19.09 12.39 19.09 12.45 19.04 C 13.05 18.59 13.95 17.95 15.32 17.91 C 18.01 17.84 18.93 19.34 20.48 19.71 C 21.64 19.98 23.33 20.24 24.13 21.57 C 25.01 23.02 23.94 25.83 23.36 27.48 C 21.58 32.6 20.49 35.92 12.26 35.92 Z M 7.25 21.76 C 6.53 22.21 5.68 22.65 4.63 22.72 C 3.17 22.82 3.37 24.23 3.9 25.9 C 5.57 31.2 6.02 32.63 12.26 32.82 C 18.21 32.63 18.71 31.22 20.36 26.55 C 20.97 24.84 21.52 22.94 19.8 22.71 C 18.85 22.58 18.06 22.15 17.37 21.77 C 16.64 21.37 15.47 20.59 14.1 21.54 C 13.62 21.87 13.06 22.33 12.26 22.33 C 11.46 22.33 10.9 21.87 10.42 21.54 C 9.71 21.05 8.6 20.91 7.25 21.76 Z" fill="#030000"/></svg>