<svg version="1.1" width="63.76" height="60.34" viewBox="0 0 63.76 60.34" xmlns="http://www.w3.org/2000/svg" xmlns:xlink="http://www.w3.org/1999/xlink" overflow="visible"><defs></defs><path d=" M 1.32 17.63 C 5.35 15.41 9.16 13.26 12.03 11.31 C 12.57 10.98 13.14 10.12 13.02 9.02 C 12.94 8.33 12.13 8.2 11.23 7.2 C 10.47 6.34 10.11 5.53 10.11 4.1 C 10.11 1.89 11.71 0 13.74 0 C 15.3 0 17.69 0.96 17.71 4.04 C 17.75 7 15.93 7.02 16 9.02 C 16.05 10.45 17.26 11.23 17.39 14.11 C 17.66 20.36 17.49 56.52 17.49 57.52 C 17.49 61.47 13.43 61.09 13.42 57.45 C 13.37 45.06 13.39 20.42 13.39 17.22 C 13.39 15.55 12.44 15.36 11.2 16.04 C 7.17 18.26 6.42 18.72 2.69 20.59 C 0.43 21.73 -1.31 19.09 1.32 17.63 Z" fill-rule="evenodd" clip-rule="evenodd"/><path d=" M 61.59 51.18 C 59.15 51.41 56.75 51.54 54.15 51.71 C 51.82 51.86 51.78 50.89 52.53 50.11 C 58 44.49 60.06 42.87 60.51 40.72 C 60.94 38.67 59.78 36.66 55.35 28.47 C 53.74 25.51 52.8 25.76 52.75 24.34 C 52.68 22.35 54.61 22.44 54.53 19.45 C 54.45 16.4 52.15 15.45 50.6 15.45 C 48.58 15.45 46.68 17.14 46.68 19.33 C 46.68 20.74 47.05 21.77 47.89 22.67 C 48.96 23.82 49.7 23.73 49.87 24.39 C 50.34 26.15 49.1 26.16 48.58 33.04 C 48.31 36.64 47.47 40.97 45.3 44.88 C 43.85 47.49 46.75 48.56 47.96 46.36 C 49.93 42.8 51.63 38.29 51.84 33.8 C 52.05 29.25 53.69 32.99 55.93 37.6 C 56.75 39.27 56.7 40.07 55.25 41.67 C 54.16 42.87 52.25 44.83 49.53 47.84 C 47.9 49.64 46.93 51.47 47.98 53.2 C 49.07 54.98 51.84 55.03 53.25 54.99 C 55.41 54.94 56.55 54.89 61.97 54.39 C 64.58 54.15 64.24 50.94 61.59 51.18 Z" fill-rule="evenodd" clip-rule="evenodd"/><path d=" M 43.67 28.82 C 40.2 26.3 35.89 24.63 32.99 23.07 C 32.45 22.81 32.16 22.19 32.26 21.56 C 32.41 20.63 33.22 20.54 34.13 19.63 C 34.9 18.86 35.3 17.78 35.3 16.43 C 35.3 14.33 33.48 12.7 31.54 12.7 C 30.06 12.7 27.8 13.61 27.77 16.54 C 27.73 19.78 29.85 19.48 29.78 21.39 C 29.73 22.75 27.75 23.96 26.2 26.21 C 23.35 30.37 22.48 32.09 22.55 34.32 C 22.62 36.71 24.13 39.57 25.09 42.19 C 25.86 44.28 26.24 45.23 25.43 53 C 25.16 55.6 28.42 56 28.68 53.24 C 29.6 43.47 29.36 42.83 27.92 39.09 C 26.93 36.52 25.92 34.31 27.5 31.46 C 28.27 30.07 29.22 28.22 30.28 27.16 C 31.08 26.37 31.72 26.01 33.09 26.5 C 36.16 27.59 38.95 28.91 42.1 31.21 C 44.03 32.65 45.98 30.5 43.67 28.82" fill-rule="evenodd" clip-rule="evenodd"/></svg>