<svg version="1.1" width="60.5" height="61" viewBox="0 0 60.5 61" xmlns="http://www.w3.org/2000/svg" xmlns:xlink="http://www.w3.org/1999/xlink" overflow="visible"><defs></defs><path d=" M 56.47 12.22 C 54.91 11.55 44.38 7.51 38.59 5.72 C 35.93 4.89 33.09 7.03 29.95 6.97 C 26.75 6.91 24.82 4.79 21.74 5.71 C 16.95 7.15 5.91 11.59 3.63 12.41 C 0.27 13.62 -1.74 8.96 2.04 7.43 C 3.82 6.72 15.16 2.3 20.45 0.61 C 23.79 -0.45 25.95 0.48 27.61 1.13 C 29.56 1.89 31.52 1.52 32.36 1.14 C 33.87 0.47 35.98 -0.64 39.45 0.47 C 44.79 2.17 56.62 6.68 58.48 7.43 C 62.39 9.02 60.02 13.75 56.47 12.22 Z"/><path d=" M 29.82 19.71 C 20.92 19.71 14.15 17.64 13.87 17.55 C 9.9 16.32 11.46 11.3 15.43 12.53 C 15.49 12.55 21.75 14.45 29.82 14.45 C 37.88 14.45 44.15 12.55 44.21 12.53 C 48.54 11.19 50.1 16.21 45.77 17.55 C 45.49 17.63 38.73 19.71 29.82 19.71 Z"/><g><path d=" M 22.22 48.97 C 25.45 45.51 26.6 44.76 26.89 40.94 C 27.43 33.64 28.75 33.64 28.25 31.77 C 28.06 31.07 27.29 31.16 26.15 29.95 C 25.26 29 24.86 27.91 24.86 26.41 C 24.86 24.09 26.88 22.29 29.01 22.29 C 30.65 22.29 33.09 23.3 33.18 26.53 C 33.27 29.7 31.22 29.61 31.29 31.71 C 31.34 33.22 32.35 32.95 34.05 36.09 C 38.75 44.77 38.8 44.38 38.35 46.55 C 37.87 48.83 36.32 49.86 30.53 55.81 C 29.73 56.63 29.78 57.7 32.25 57.5 C 34.85 57.29 40.05 57.09 42.55 56.79 C 45.68 56.42 46.19 59.89 43.09 60.18 C 37.34 60.74 33.61 61 31.3 61 C 29.8 61 26.86 60.99 25.71 59.1 C 24.6 57.27 25.63 55.33 27.36 53.42 C 30.24 50.23 31.63 48.85 32.79 47.57 C 34.33 45.87 34.32 45.05 33.51 43.25 C 31.64 39.07 30.59 39.26 30.35 41.74 C 29.94 45.87 27.74 47.55 24.58 51.18 C 22.84 53.19 20.07 51.28 22.22 48.97 Z" fill-rule="evenodd" clip-rule="evenodd"/></g></svg>