<svg version="1.1" width="56.03" height="57.25" viewBox="0 0 56.03 57.25" xmlns="http://www.w3.org/2000/svg" xmlns:xlink="http://www.w3.org/1999/xlink" overflow="visible"><defs></defs><path d=" M 24.53 17.77 C 22.89 17.77 18.93 17.77 17.27 17.77 C 16.33 17.77 15.93 17.45 15.93 16.59 C 15.93 16.23 15.93 16.03 15.93 16.03 C 15.93 15.35 16.03 14.59 17.28 14.59 C 18.8 14.59 23.94 14.59 23.94 14.59 C 27.79 14.67 27.69 9.2 24.18 9.2 C 24.18 9.2 18.76 9.2 17.15 9.2 C 16.17 9.2 15.92 8.68 15.92 7.97 C 15.92 7.49 15.92 1.68 15.92 1.68 C 15.92 -0.54 13.32 -0.54 13.32 1.68 C 13.32 1.68 13.32 7.49 13.32 7.97 C 13.32 8.84 13.18 9.2 12.1 9.2 C 10.49 9.2 5.01 9.2 5.01 9.2 C 1.4 9.2 1.4 14.59 5.01 14.59 C 5.01 14.59 10.35 14.59 11.92 14.59 C 13.17 14.59 13.32 15.36 13.32 16.06 C 13.32 16.06 13.32 16.43 13.32 16.55 C 13.32 17.26 13 17.78 12.05 17.78 C 9.45 17.78 6.38 17.78 4.6 17.78 C 1.14 17.77 0 18.26 0 22.01 C 0 25.46 0 32.36 0 35.81 C 0 39.81 1.2 40.14 4.57 40.14 C 6.33 40.14 10.34 40.14 12.05 40.14 C 12.91 40.14 13.34 40.53 13.34 41.38 C 13.34 41.65 13.34 42.44 13.34 42.44 C 13.34 43.04 13.04 43.49 12.31 43.49 C 10.65 43.49 5.03 43.49 5.03 43.49 C 1.43 43.49 1.43 48.88 5.03 48.88 C 5.03 48.88 10.58 48.88 12.22 48.88 C 12.84 48.88 13.33 49.24 13.33 49.98 C 13.33 50.47 13.33 55.63 13.33 55.63 C 13.33 57.77 15.93 57.77 15.93 55.63 C 15.93 55.63 15.93 50.47 15.93 49.98 C 15.93 49.28 16.44 48.88 17.13 48.88 C 18.74 48.88 24.18 48.88 24.18 48.88 C 27.74 48.88 27.74 43.49 24.18 43.49 C 24.18 43.49 18.64 43.49 16.99 43.49 C 16.58 43.49 15.93 43.39 15.93 42.43 C 15.93 42.43 15.93 41.64 15.93 41.38 C 15.93 40.59 16.26 40.14 17.2 40.14 C 18.87 40.14 22.91 40.14 24.49 40.14 C 27.51 40.14 29.23 39.52 29.23 35.81 C 29.23 32.37 29.23 25.49 29.23 22.05 C 29.23 19.05 29.17 17.77 24.53 17.77 Z M 4.71 23.18 C 6.49 23.18 9.34 23.18 11.94 23.18 C 13.17 23.18 13.32 23.84 13.32 24.65 C 13.32 25.83 13.02 26.25 11.9 26.25 C 9.32 26.25 6.5 26.25 4.73 26.25 C 3.46 26.25 3.23 26.07 3.23 24.71 C 3.24 23.38 3.51 23.18 4.71 23.18 Z M 11.55 34.73 C 8.94 34.73 6.39 34.73 4.9 34.73 C 3.53 34.73 3.24 34.47 3.24 33.16 C 3.24 31.9 3.47 31.67 4.88 31.67 C 6.37 31.67 8.92 31.67 11.54 31.67 C 13 31.67 13.33 31.98 13.33 33.18 C 13.33 34.23 13.16 34.73 11.55 34.73 Z M 24.45 34.73 C 23.02 34.73 20.2 34.73 17.73 34.73 C 16.24 34.73 15.96 34.41 15.96 33.13 C 15.96 31.97 16.45 31.67 17.65 31.67 C 20.11 31.67 22.93 31.67 24.36 31.67 C 25.85 31.67 26.06 31.97 26.06 33.27 C 26.05 34.5 25.73 34.73 24.45 34.73 Z M 26.05 24.78 C 26.05 26.02 25.89 26.25 24.55 26.25 C 22.91 26.25 20.12 26.25 17.75 26.25 C 16.45 26.25 15.96 26.13 15.95 24.74 C 15.95 23.27 16.23 23.18 17.62 23.18 C 20.05 23.18 22.89 23.18 24.57 23.18 C 26.3 23.18 26.05 23.91 26.05 24.78 Z" fill="#030000"/><path d=" M 48.22 20.76 C 52.89 19.22 55.55 15.7 55.99 11.02 C 56.51 5.51 52.76 0.75 47 0.07 C 41.89 -0.53 37.82 2.73 36.44 7.27 C 35.83 9.25 36.42 11.37 39 11 C 50.44 9.38 51.62 12.22 50.78 14.48 C 49.24 18.62 43.13 18.91 39.34 15.81 C 38.16 14.85 37.39 15.8 37.81 16.59 C 38.39 17.67 39.29 18.47 40.2 19.01 C 41.99 20.07 44.33 20.78 43.95 22.22 C 43.76 22.93 43.14 23.56 42.07 25.11 C 40.64 27.2 37.91 30.23 34.37 32.33 C 31.91 33.78 33.62 36.89 36.15 35.49 C 39 33.91 42.16 31.1 44.32 28.94 C 45.4 27.86 46.5 27.4 47.82 29.31 C 48.33 30.04 48.72 30.69 49.32 31.62 C 51.43 34.88 51.31 35.99 49.92 39.57 C 48.17 44.07 47.75 46.01 48.33 55.12 C 48.49 57.69 51.94 57.75 51.84 54.84 C 51.61 47.45 51.78 46.06 52.7 43.54 C 53.86 40.37 55.04 38.05 55.22 36.03 C 55.42 33.81 54.9 32.31 51.46 27.28 C 50 25.14 49.03 24.06 48.34 23.45 C 46.45 21.75 47.51 21 48.22 20.76 Z" fill-rule="evenodd" clip-rule="evenodd"/></svg>