<svg version="1.1" width="58.76" height="58.64" viewBox="0 0 58.76 58.64" xmlns="http://www.w3.org/2000/svg" xmlns:xlink="http://www.w3.org/1999/xlink" overflow="visible"><defs></defs><path d=" M 24.65 38.12 C 20.83 37.99 15.13 35.7 11.37 32.27 C 10.67 31.64 9.11 32.01 9.46 33.54 C 10.79 39.48 17.34 40.41 17.41 40.42 C 20.95 40.75 20.47 44.84 17.05 44.56 C 13.67 44.27 6.86 41.77 5.39 34.36 C 4.46 29.66 6.52 25.78 4.43 22.02 C 2.52 18.6 1.01 17.35 0.04 11.26 C -0.44 8.24 3.37 7.91 3.95 10.51 C 4.89 14.74 5.76 15.94 6.71 17.33 C 8.72 20.31 10.19 18.36 13.02 17.18 C 17.58 15.28 21.81 15.24 25.68 17.28 C 28.69 18.87 26.92 22.63 23.74 20.95 C 20.79 19.4 17.82 19.37 14.9 20.88 C 11.96 22.39 10.63 24.93 12.81 27.74 C 15.81 31.59 21.8 33.85 24.79 33.97 C 28.17 34.11 28.08 38.24 24.65 38.12 Z" fill="#030000"/><path d=" M 28.44 42.91 C 31.98 37.34 33.61 31.03 34.33 25.76 C 35.7 15.66 37.53 15.77 36.99 13.13 C 36.79 12.14 35.7 12.21 34.22 10.43 C 33.06 9.04 32.6 7.48 32.73 5.4 C 32.93 2.17 35.88 -0.15 38.85 0.03 C 41.13 0.17 44.44 1.78 44.29 6.28 C 44.14 10.7 41.31 10.39 41.23 13.33 C 41.18 15.43 42.6 15.14 44.7 19.65 C 50.5 32.12 52.03 35.18 51.22 38.16 C 50.36 41.29 47.18 43.5 38.63 51.29 C 37.45 52.36 37.43 53.85 40.87 53.78 C 44.5 53.71 51.75 53.87 55.25 53.66 C 59.64 53.41 60.05 58.28 55.72 58.41 C 47.68 58.67 42.47 58.72 39.26 58.53 C 37.17 58.4 33.09 58.15 31.65 55.42 C 30.25 52.78 31.86 50.17 34.42 47.66 C 38.69 43.47 41.69 40.76 43.4 39.08 C 45.68 36.84 45.82 35.68 44.77 33.14 C 41.88 26.15 39.8 20.5 39.08 27.17 C 38.37 33.77 35.46 40.27 32.24 45.34 C 30.25 48.46 26.08 46.62 28.44 42.91 Z" fill-rule="evenodd" clip-rule="evenodd"/></svg>