<svg version="1.1" width="63.17" height="62.73" viewBox="0 0 63.17 62.73" xmlns="http://www.w3.org/2000/svg" xmlns:xlink="http://www.w3.org/1999/xlink" overflow="visible"><defs></defs><path d=" M 60.13 41.29 C 55.54 42.85 50.93 42.75 47.14 41.54 C 46.17 41.23 45.97 40.69 46.06 40.06 C 46.15 39.44 46.56 39.28 47.11 39.14 C 49.74 38.43 53.21 35.48 53.31 31.9 C 53.44 27.26 51.07 22.9 44.95 22.66 C 39.34 22.44 36.13 26.47 36.39 31.02 C 36.66 35.73 39.61 37.9 42.28 38.9 C 42.52 38.99 43.12 39.44 43.13 39.98 C 43.15 40.62 42.76 41.14 42.03 41.12 C 37.21 40.97 30.45 41.67 26.74 42.81 C 24.26 43.57 24.54 46.96 27.95 46.26 C 32 45.44 35.2 44.96 39.6 45.57 C 40.78 45.74 41.83 46.76 41.82 48.5 C 41.8 52.06 41 55.22 39.97 58.49 C 38.8 62.18 42.77 63.81 44.81 60.7 C 46.35 58.36 47.25 52.5 47.4 48.43 C 47.49 46.03 49.1 46.13 50.08 46.16 C 52.26 46.22 56.85 46.55 61.79 44.6 C 64.1 43.71 63.47 40.15 60.13 41.29 Z M 42.58 36.69 C 39.68 35.56 38.53 32.78 38.7 30.2 C 38.91 26.84 41.92 24.71 44.93 24.76 C 47.94 24.81 51.04 27.12 51.01 30.96 C 51 33.58 49.73 35.38 47.71 36.42 C 46.02 37.29 44.13 37.29 42.58 36.69 Z" fill-rule="evenodd" clip-rule="evenodd"/><path d=" M 44.91 30.69 C 44.47 30.69 44.11 30.8 44.11 31.95 C 44.11 33.44 44.39 33.63 44.93 33.63 C 45.51 33.63 45.68 33.41 45.68 31.95 C 45.68 30.77 45.4 30.69 44.91 30.69 Z" fill="#030000" fill-rule="evenodd" clip-rule="evenodd"/><path d=" M 41.69 30.59 C 41.69 31.09 41.29 31.49 40.79 31.49 C 40.29 31.49 39.89 31.09 39.89 30.59 C 39.89 30.09 40.29 29.69 40.79 29.69 C 41.29 29.7 41.69 30.1 41.69 30.59 Z" fill-rule="evenodd" clip-rule="evenodd"/><path d=" M 49.81 30.59 C 49.81 31.09 49.41 31.49 48.91 31.49 C 48.41 31.49 48.01 31.09 48.01 30.59 C 48.01 30.09 48.41 29.69 48.91 29.69 C 49.41 29.7 49.81 30.1 49.81 30.59 Z" fill-rule="evenodd" clip-rule="evenodd"/><path d=" M 1.56 20.61 C 6.29 18 10.78 15.47 14.16 13.17 C 14.79 12.78 15.47 11.77 15.33 10.48 C 15.24 9.67 14.28 9.52 13.23 8.33 C 12.34 7.32 11.76 6.21 11.76 4.54 C 11.76 1.94 13.67 0.09 16.2 -1.77636e-15 C 18.03 -0.06 20.83 1 20.85 4.62 C 20.87 8.1 18.74 8.12 18.82 10.48 C 18.88 12.17 20.31 13.08 20.45 16.46 C 20.77 23.81 20.57 58.24 20.57 59.42 C 20.57 64.07 15.8 63.61 15.78 59.33 C 15.73 44.76 15.75 23.88 15.75 20.12 C 15.75 18.16 14.63 17.93 13.18 18.73 C 8.44 21.36 7.55 21.9 3.17 24.1 C 0.51 25.43 -1.54 22.32 1.56 20.61 Z" fill-rule="evenodd" clip-rule="evenodd"/><path d=" M 36.73 19.46 C 36.82 16.64 38.51 12.44 41.02 9.66 C 41.49 9.15 41.21 7.99 40.08 8.25 C 35.7 9.24 35.02 14.07 35.02 14.12 C 34.82 16.37 31.79 16.03 31.97 13.86 C 32.18 11.37 34.01 6.35 39.47 5.25 C 42.94 4.56 45.81 6.09 48.57 4.53 C 52.35 2.38 54.83 1.23 59.32 0.51 C 60.57 0.31 61.42 0.65 61.65 1.64 C 61.81 2.34 61.25 3.13 60.29 3.3 C 56.68 3.93 54.48 4.92 52.03 6.21 C 51.03 6.73 50.76 7.27 50.7 7.66 C 50.55 8.6 51.49 9.29 52.15 10.87 C 53.56 14.23 53.6 17.35 52.09 20.21 C 51 22.29 48.27 20.91 49.38 18.79 C 50.52 16.61 50.54 14.42 49.42 12.27 C 49.16 11.78 48.37 10.31 47.04 10.03 C 46.14 9.84 45.25 10.06 44.36 10.74 C 41.52 12.96 39.86 17.37 39.78 19.58 C 39.72 21.91 36.66 21.69 36.73 19.46 Z" fill="#030000"/></svg>