<svg version="1.1" width="60.11" height="62.18" viewBox="0 0 60.11 62.18" xmlns="http://www.w3.org/2000/svg" xmlns:xlink="http://www.w3.org/1999/xlink" overflow="visible"><defs></defs><path d=" M 35.77 16.71 C 35.77 16.71 26.34 16.71 23.44 16.71 C 20.99 16.71 20.43 16 20.43 14.11 C 20.43 10.77 20.43 1.53 20.43 1.53 C 20.43 0.41 20.36 0 18.4 0 C 16.39 0 16.37 0.41 16.37 1.53 C 16.37 1.53 16.37 10.78 16.37 14.11 C 16.37 16.02 15.7 16.71 13.62 16.71 C 10.6 16.71 1.02 16.71 1.02 16.71 C 0.46 16.71 0 17.17 0 17.73 C 0 18.29 0.46 18.75 1.02 18.75 C 1.02 18.75 6.45 18.75 8.26 18.75 C 10.11 18.75 10.33 19.42 10.65 20.55 C 11.29 22.84 12.92 24.71 15.04 25.69 C 16.21 26.23 16.36 26.74 16.36 27.59 C 16.36 29.28 16.36 34.51 16.36 34.51 C 16.36 35.31 17.38 37.23 17.98 38.28 C 18.22 38.71 18.58 38.68 18.84 38.21 C 19.44 37.15 20.42 35.28 20.42 34.5 C 20.42 34.5 20.42 29.5 20.42 27.61 C 20.42 26.54 20.8 26.11 21.72 25.69 C 23.9 24.69 25.56 22.76 26.17 20.39 C 26.42 19.42 26.94 18.74 28.36 18.74 C 30.22 18.74 35.76 18.74 35.76 18.74 C 36.32 18.74 36.78 18.28 36.78 17.72 C 36.79 17.17 36.33 16.71 35.77 16.71 Z" fill="#030000"/><path d=" M 56.47 46.43 C 51.46 48.08 45.47 48.02 41.34 46.7 C 40.29 46.36 40.07 45.77 40.17 45.09 C 40.26 44.42 40.72 44.25 41.31 44.09 C 44.18 43.32 47.77 40.4 47.95 36.15 C 48.18 31.1 45.7 26.35 39.05 25.99 C 33.38 25.68 29.35 30.32 29.64 35.26 C 29.93 40.39 33.14 42.75 36.05 43.84 C 36.31 43.94 36.96 44.43 36.98 45.02 C 37 45.72 36.58 46.28 35.78 46.26 C 30.53 46.1 23.18 46.86 19.14 48.1 C 16.44 48.93 16.74 52.62 20.46 51.86 C 24.87 50.96 28.35 50.45 33.14 51.11 C 34.43 51.29 35.57 52.4 35.56 54.3 C 35.55 55.7 35.43 57.05 35.23 58.37 C 34.57 62.66 40.38 63.94 41.17 59.03 C 41.44 57.34 41.58 55.66 41.63 54.22 C 41.73 51.61 43.47 51.72 44.55 51.75 C 46.92 51.82 52.95 52.27 58.28 50.06 C 61.23 48.83 60.59 45.06 56.47 46.43 Z M 36.38 41.42 C 33.23 40.19 31.98 37.16 32.16 34.35 C 32.39 30.69 35.42 28.33 38.95 28.43 C 42.51 28.53 45.59 31 45.57 35.18 C 45.55 38.03 44.17 39.99 41.97 41.13 C 40.13 42.08 38.07 42.08 36.38 41.42 Z" fill-rule="evenodd" clip-rule="evenodd"/><path d=" M 38.92 34.89 C 38.44 34.89 38.05 35.01 38.05 36.27 C 38.05 37.88 38.35 38.09 38.95 38.09 C 39.58 38.09 39.77 37.85 39.77 36.27 C 39.76 34.98 39.46 34.89 38.92 34.89 Z" fill="#030000" fill-rule="evenodd" clip-rule="evenodd"/><path d=" M 35.42 34.78 C 35.42 35.32 34.98 35.76 34.44 35.76 C 33.9 35.76 33.46 35.32 33.46 34.78 C 33.46 34.24 33.9 33.8 34.44 33.8 C 34.98 33.81 35.42 34.24 35.42 34.78 Z" fill-rule="evenodd" clip-rule="evenodd"/><path d=" M 44.26 34.78 C 44.26 35.32 43.82 35.76 43.28 35.76 C 42.74 35.76 42.3 35.32 42.3 34.78 C 42.3 34.24 42.74 33.8 43.28 33.8 C 43.82 33.81 44.26 34.24 44.26 34.78 Z" fill-rule="evenodd" clip-rule="evenodd"/></svg>