<svg version="1.1" width="61.82" height="62.24" viewBox="0 0 61.82 62.24" xmlns="http://www.w3.org/2000/svg" xmlns:xlink="http://www.w3.org/1999/xlink" overflow="visible"><defs></defs><path d=" M 50.77 62.24 C 53.07 62.24 55.86 62.09 59.3 61.78 C 62.76 61.47 62.59 57.49 59.21 57.49 C 59.01 57.49 51.6 57.98 49.39 57.98 C 45.82 57.98 46.85 55.97 48.07 54.75 C 56.94 45.88 60.13 42.78 60.72 39.93 C 61.35 36.94 60.28 34.38 52.5 20.61 C 49.99 16.16 48.34 15.78 48.28 13.8 C 48.23 12.35 48.76 11.53 49.43 10.69 C 50.22 9.69 51.2 8.45 51.13 5.97 C 51 1.26 47.38 0 45.26 0 C 42.09 0 39.42 2.65 39.42 5.78 C 39.42 8.92 40.86 10.97 43.24 12.39 C 45.27 13.6 44.99 14.81 44.25 17.31 C 43.76 18.95 42.94 21.69 42.49 27.75 C 41.95 35.08 41.78 41.96 39.49 47.65 C 38.16 50.93 41.93 52.35 43.21 49.17 C 46.05 42.12 46.57 35.11 46.86 28.91 C 46.99 26.27 47.4 25.2 48.28 25.2 C 49.52 25.2 50.65 28.01 54.23 34.83 C 55.76 37.73 55.42 39.22 53.07 41.83 C 52.4 42.57 46.59 48.74 43.92 51.7 C 40.88 55.06 40.13 57.55 41.48 59.77 C 42.47 61.44 45.52 62.24 50.77 62.24 Z" fill-rule="evenodd" clip-rule="evenodd"/><path d=" M 24.83 62.24 C 22.53 62.24 19.74 62.09 16.3 61.78 C 12.84 61.47 13.01 57.49 16.39 57.49 C 16.59 57.49 24 57.98 26.21 57.98 C 29.78 57.98 28.75 55.97 27.53 54.75 C 18.66 45.88 15.47 42.78 14.88 39.93 C 14.25 36.94 15.32 34.38 23.1 20.61 C 25.61 16.16 27.26 15.78 27.32 13.8 C 27.37 12.35 26.84 11.53 26.17 10.69 C 25.38 9.69 24.4 8.45 24.47 5.97 C 24.6 1.26 28.22 0 30.34 0 C 33.51 0 36.18 2.65 36.18 5.78 C 36.18 8.92 34.74 10.97 32.36 12.39 C 30.33 13.6 30.61 14.81 31.36 17.31 C 31.85 18.95 32.67 21.69 33.12 27.75 C 33.67 35.08 34.06 41.93 36.35 47.62 C 37.68 50.9 33.91 52.32 32.63 49.14 C 29.79 42.09 29.04 35.11 28.75 28.91 C 28.63 26.27 28.22 25.2 27.33 25.2 C 26.09 25.2 24.96 28.01 21.38 34.83 C 19.85 37.73 20.19 39.22 22.54 41.83 C 23.21 42.57 29.02 48.74 31.69 51.7 C 34.73 55.06 35.48 57.55 34.13 59.77 C 33.13 61.44 30.08 62.24 24.83 62.24 Z" fill-rule="evenodd" clip-rule="evenodd"/><path d=" M 19.4 4.77 C 16.08 -1.1 9.62 0.41 6.4 2.93 C 5.73 3.45 3.42 4.72 1.87 3.56 C 0.53 2.55 -0.78 4.27 0.56 5.29 C 0.61 5.33 1.39 5.92 2.55 6.2 C 3.62 6.46 3.89 7 4.03 7.75 C 4.79 12.05 6.27 13.77 5.58 19.16 C 5.41 20.49 5.33 20.58 4.43 21.21 C 3.19 22.07 3.98 23.77 5.63 22.92 C 5.65 22.91 7.07 22.12 8.67 22.15 C 10.2 22.18 11.07 22.69 11.07 22.69 C 12.37 23.48 13.21 22.19 12.64 21.31 C 12.53 21.15 12.1 20.7 12.82 19.9 C 14.63 17.89 16.92 15.09 15.52 12.11 C 13.99 8.86 10.4 10.08 7.76 9.3 C 7.22 9.15 6.73 9.17 6.26 7.81 C 5.76 6.36 6.26 5.86 7.77 4.62 C 9.75 3 14.72 1.11 17.53 5.87 C 19.47 9.15 18.85 13.25 15.57 18.79 C 14.01 21.42 13.3 23.36 12.78 24.78 C 11.51 28.2 9.8 28.08 7.93 26.35 C 6.58 25.09 5.08 26.53 6.37 27.86 C 9.01 30.59 12.92 30.91 14.73 25.77 C 15.2 24.43 15.99 22.36 17.44 19.89 C 21.17 13.61 21.71 8.84 19.4 4.77 Z M 8.7 19.98 C 8.08 19.98 7.68 19.94 7.8 18.89 C 7.84 18.52 7.9 18.09 7.96 17.59 C 8.01 17.21 8.07 16.61 9.85 17.1 C 11.69 17.6 11.45 18.16 10.69 18.98 C 9.71 20.05 9.53 19.98 8.7 19.98 Z M 13.53 13.01 C 14.05 14.39 13.55 15.75 10.32 14.98 C 8.26 14.49 7.92 14.32 7.62 12.37 C 7.57 12.04 7.55 11.54 8.55 11.66 C 10.91 11.93 12.95 11.47 13.53 13.01 Z" fill="#020303"/></svg>