<svg width="37.07" height="56.08" viewBox="0 0 37.07 56.08" xmlns="http://www.w3.org/2000/svg" xmlns:xlink="http://www.w3.org/1999/xlink" overflow="visible"><defs></defs><path d="M33.87 29.67C31.59 26.76 31.14 26.88 31.61 25.1 31.79 24.43 32.53 24.52 33.62 23.36 34.47 22.46 34.85 21.41 34.85 19.98 34.85 17.76 32.93 16.06 30.89 16.06 29.33 16.06 27 17.02 26.91 20.11 26.83 23.13 28.79 23.04 28.71 25.05 28.66 26.37 26.68 26.35 23.42 27.26 15.53 29.47 14.36 32.99 19.87 40.44 20.88 41.81 21.95 42.77 23.01 44.24 23.74 45.25 23.93 45.73 23.17 46.41 23.04 46.53 22.35 47.11 22.35 47.11 21.79 47.59 21.72 48.44 22.21 49 22.69 49.56 23.54 49.63 24.1 49.14 24.1 49.14 24.62 48.71 24.79 48.57 25.53 47.98 26.12 47.87 26.74 48.52 27.39 49.2 28.17 50.31 28.91 51.08 29.67 51.87 29.63 52.88 27.27 52.69 24.79 52.49 19.78 52.22 17.45 52.02 14.65 51.77 14.45 55.01 16.93 55.25 22.41 55.77 25.97 56.01 28.17 56.01 29.6 56.01 32.28 56.46 33.38 54.66 34.44 52.91 33.38 51.47 31.76 49.24 31.06 48.27 30.29 47.37 29.63 46.45 29.36 46.08 28.93 45.36 29.72 44.68 36.75 38.64 39.92 37.38 33.87 29.67ZM21.09 36.49C19.36 33.66 19.04 31.67 23.43 30.46 25.04 30.01 25.06 30.79 24.53 31.79 23.43 33.85 22.89 35.2 22.24 36.45 21.91 37.08 21.59 37.31 21.09 36.49ZM28.02 42.6C27.77 42.82 26.9 43.58 26.05 42.63 24.59 41 24.65 40.15 25.48 38.45 26.1 37.18 26.69 35.9 27.19 34.73 27.36 34.33 27.63 34.31 28 34.57 28.27 34.76 28.62 34.8 28.97 34.8 30.17 34.8 31.14 33.83 31.14 32.64 31.14 31.98 31.05 30.8 32.22 32.13 36.29 36.74 32.21 38.95 28.02 42.6Z" fill-rule="evenodd" clip-rule="evenodd"/><path d="M12.64 2.49C12.96 2.49 13.22 2.75 13.22 3.07 13.22 3.07 13.22 4.12 13.22 4.48 13.22 4.87 13.03 5.07 12.6 5.07 11.89 5.07 10.48 5.07 9.78 5.07 9.34 5.07 9.15 4.84 9.15 4.48 9.15 4.13 9.15 3.07 9.15 3.07 9.15 2.75 9.41 2.49 9.73 2.49L12.64 2.49ZM19.24 19.19C18.16 21.31 15.8 22.43 12.43 22.43L9.94 22.43C6.57 22.43 4.22 21.31 3.14 19.19 1.95 16.87 2.55 13.9 3.72 12.28 4.71 10.9 5.55 10.3 6.24 9.9 7.03 9.44 7.69 8.8 8.17 8.05 8.39 7.71 8.57 7.56 9.04 7.56 9.51 7.56 9.63 7.84 9.59 8.19 9.33 10.46 8.51 11.22 7.79 11.61 7.19 11.94 6.96 12.7 7.29 13.3 7.52 13.72 7.94 13.95 8.39 13.95 8.59 13.95 8.8 13.9 8.99 13.8 9.74 13.39 10.31 12.85 10.75 12.24 10.97 11.93 11.42 11.93 11.64 12.24 12.08 12.85 12.65 13.39 13.4 13.8 13.59 13.9 13.79 13.95 14 13.95 14.44 13.95 14.87 13.72 15.1 13.3 15.43 12.7 15.21 11.94 14.6 11.61 13.88 11.22 13.08 10.46 12.8 8.19 12.76 7.9 12.89 7.57 13.36 7.57 13.86 7.57 14.02 7.77 14.18 8.02 14.67 8.78 15.33 9.44 16.14 9.91 16.83 10.31 17.68 10.91 18.67 12.29 19.83 13.89 20.43 16.86 19.24 19.19ZM20.68 10.82C19.69 9.44 18.67 8.49 17.38 7.74 16.71 7.35 17.01 6.98 16.99 6.31 16.98 5.85 16.75 5.45 16.38 5.24 16.06 5.05 15.71 4.95 15.71 4.47 15.71 4.12 15.71 3.42 15.71 3.06 15.71 2.71 15.9 2.48 16.24 2.48 16.56 2.48 17.03 2.48 17.21 2.48 17.9 2.48 18.46 1.92 18.46 1.23 18.46 0.56 17.9 0 17.21 0L5.18 0C4.49 0 3.94 0.56 3.94 1.25 3.94 1.94 4.5 2.5 5.19 2.5 5.37 2.5 5.74 2.5 6.07 2.5 6.49 2.5 6.67 2.71 6.67 3.08 6.67 3.43 6.67 4.13 6.67 4.49 6.67 4.99 6.26 5.14 6.1 5.22 5.68 5.41 5.38 5.83 5.4 6.32 5.43 7.03 5.62 7.36 4.99 7.75 3.72 8.54 2.69 9.45 1.69 10.82 0.05 13.09-0.74 17.08 0.91 20.32 1.79 22.04 4.13 24.92 9.93 24.92L12.42 24.92C18.23 24.92 20.57 22.04 21.44 20.32 23.11 17.08 22.32 13.09 20.68 10.82Z" fill="#030000"/></svg>