<svg version="1.1" width="62.81" height="64.04" viewBox="0 0 62.81 64.04" xmlns="http://www.w3.org/2000/svg" xmlns:xlink="http://www.w3.org/1999/xlink" overflow="visible"><defs></defs><path d=" M 21.21 9.55 C 21.06 12.64 20.68 15.23 20.14 17.37 C 19.46 20.05 17.93 19.26 18.49 16.22 C 18.68 15.21 18.82 14.18 18.9 13.17 C 19.24 8.94 19.32 7.24 19.39 4.6 C 19.47 1.98 16.54 1.91 16.46 4.51 C 16.39 7.1 16.37 8.78 15.98 12.93 C 15.6 16.98 14.34 18.28 14.15 14.74 C 13.76 7.13 13.04 4.12 12.11 1.37 C 11.35 -0.95 8.61 -0.1 9.33 2.24 C 10.17 4.95 11.19 10.42 11.25 15.35 C 11.28 17.61 10.2 17.85 9.62 15.5 C 7.94 8.74 5.71 5.51 5.62 5.38 C 4.12 3.24 1.73 4.91 3.22 7.06 C 3.24 7.09 5.25 10.04 6.78 16.21 C 7.33 18.41 7.98 20.67 9.01 22.31 C 9.66 23.34 8.71 24.25 8.02 23.31 C 7.22 22.22 6.55 21.02 5.7 19.2 C 4.49 16.61 3.15 15.35 2.06 14.77 C 0.49 13.92 -0.76 15.75 0.54 16.97 C 1.49 17.86 2.49 18.85 3.06 20.28 C 4.59 24.13 6.52 26.82 8.99 28.05 C 10.8 28.95 11.47 29.8 11.64 32.24 C 11.64 32.31 11.65 61.11 11.65 61.11 C 11.65 65.1 16.37 64.94 16.36 61.11 C 16.36 61.11 16.36 35.17 16.36 30.7 C 16.36 29.19 16.82 28.15 18.2 27.04 C 21 24.8 23.64 19.9 24.13 9.69 C 24.25 7.25 21.33 7.11 21.21 9.55 Z" fill="#030000"/><path d=" M 60.63 60.17 C 58.19 60.4 55.79 60.53 53.19 60.7 C 50.86 60.85 50.82 59.88 51.57 59.11 C 57.04 53.49 59.1 51.87 59.55 49.72 C 59.98 47.67 58.82 45.66 54.39 37.47 C 52.78 34.51 51.84 34.76 51.79 33.34 C 51.72 31.35 53.65 31.44 53.57 28.45 C 53.49 25.4 51.19 24.45 49.64 24.45 C 47.62 24.45 45.72 26.14 45.72 28.33 C 45.72 29.74 46.09 30.78 46.93 31.67 C 48 32.82 48.74 32.73 48.91 33.39 C 49.38 35.15 48.14 35.16 47.62 42.04 C 47.35 45.64 46.51 49.97 44.34 53.88 C 42.89 56.49 45.79 57.56 47 55.37 C 48.97 51.81 50.67 47.29 50.88 42.81 C 51.09 38.27 52.73 42 54.97 46.61 C 55.79 48.28 55.74 49.08 54.29 50.68 C 53.2 51.88 51.29 53.84 48.57 56.85 C 46.94 58.65 45.97 60.48 47.02 62.21 C 48.11 63.99 50.88 64.04 52.29 64 C 54.45 63.95 55.59 63.9 61.01 63.4 C 63.63 63.13 63.29 59.93 60.63 60.17 Z" fill-rule="evenodd" clip-rule="evenodd"/><path d=" M 43.64 36.65 C 40.02 34.02 35.52 32.28 32.49 30.65 C 31.93 30.38 31.62 29.73 31.73 29.07 C 31.88 28.1 32.73 28.01 33.68 27.05 C 34.48 26.25 34.9 25.12 34.9 23.71 C 34.9 21.51 33 19.82 30.98 19.82 C 29.43 19.82 27.07 20.78 27.04 23.83 C 27 27.21 29.21 26.9 29.14 28.89 C 29.09 30.31 27.02 31.57 25.4 33.92 C 22.43 38.26 21.52 40.06 21.59 42.39 C 21.67 44.89 23.24 47.87 24.25 50.61 C 25.05 52.79 25.61 53.27 24.62 61.73 C 24.3 64.44 27.69 64.77 27.99 62.15 C 29.17 51.97 28.7 51.28 27.2 47.38 C 26.16 44.7 25.12 42.39 26.76 39.42 C 27.56 37.97 28.56 36.04 29.66 34.93 C 30.49 34.1 31.16 33.73 32.6 34.24 C 35.8 35.38 38.72 36.76 42.01 39.16 C 44.03 40.65 46.06 38.4 43.64 36.65" fill-rule="evenodd" clip-rule="evenodd"/></svg>