<svg version="1.1" width="58.83" height="61.48" viewBox="0 0 58.83 61.48" xmlns="http://www.w3.org/2000/svg" xmlns:xlink="http://www.w3.org/1999/xlink" overflow="visible"><defs></defs><path d=" M 47.91 61.48 C 50.18 61.48 52.93 61.33 56.34 61.03 C 59.75 60.73 59.59 56.79 56.24 56.79 C 56.04 56.79 48.73 57.28 46.54 57.28 C 43.01 57.28 44.04 55.29 45.23 54.09 C 53.99 45.33 57.14 42.26 57.73 39.45 C 58.35 36.5 57.3 33.97 49.61 20.37 C 47.13 15.98 45.5 15.6 45.44 13.64 C 45.39 12.21 45.92 11.4 46.57 10.57 C 47.35 9.58 48.32 8.35 48.25 5.91 C 48.14 1.25 44.57 0 42.47 0 C 39.34 0 36.7 2.61 36.7 5.71 C 36.7 8.81 38.12 10.83 40.47 12.24 C 42.48 13.44 42.2 14.63 41.46 17.1 C 40.98 18.72 40.17 21.42 39.72 27.41 C 39.18 34.65 39.02 41.45 36.76 47.07 C 35.45 50.31 39.17 51.71 40.43 48.57 C 43.24 41.61 43.75 34.68 44.03 28.56 C 44.15 25.95 44.56 24.89 45.43 24.89 C 46.66 24.89 47.76 27.66 51.31 34.4 C 52.82 37.27 52.49 38.74 50.16 41.31 C 49.5 42.04 43.76 48.14 41.12 51.06 C 38.12 54.38 37.38 56.84 38.71 59.03 C 39.71 60.68 42.72 61.48 47.91 61.48 Z" fill-rule="evenodd" clip-rule="evenodd"/><g><path d=" M 32.12 13.61 C 31.24 13.28 30.63 13.18 29.64 13.02 C 28.57 12.85 27.86 12.93 27.53 11.03 C 27.17 9.05 26.46 4.63 26.08 2.5 C 25.91 1.56 25.44 1.21 24.55 1.21 C 24.55 1.21 20.56 1.2 20.55 1.2 C 19.68 1.2 18.99 1.9 18.99 2.76 L 18.99 4.16 C 18.99 10.01 16.91 12.51 12.04 12.51 L 1.7 12.39 C 0.84 12.39 0.14 13.09 0.14 13.96 C 0.14 14.82 0.84 15.52 1.7 15.52 C 1.7 15.52 2.36 15.61 6.32 15.64 C 11.97 15.67 14.4 17.79 14.4 22.58 L 14.4 40.89 C 14.4 45.73 10.39 45.73 5.52 48.44 C 3.61 49.5 1.27 50.9 0.79 51.18 C 0.04 51.61 -0.22 52.57 0.2 53.31 C 0.63 54.06 1.58 54.31 2.34 53.9 C 3.95 53.03 5.26 52.41 6.24 51.8 C 10.11 49.38 12.25 49.2 13.84 49.12 C 15.85 49.02 16.46 50.24 16.18 52.11 C 15.69 55.41 10.05 58.21 9.72 58.33 C 8.9 58.61 8.48 59.49 8.76 60.32 C 9.04 61.14 9.96 61.65 10.75 61.29 C 13.95 59.84 17.82 57.35 19.47 52.67 C 21.51 46.9 20.3 37.73 20.3 23.17 C 20.3 20.22 21.88 18.51 23.19 17.59 C 25.4 16.05 28.56 15.63 31.05 16.55 C 31.86 16.85 32.76 16.44 33.06 15.63 C 33.35 14.81 32.93 13.91 32.12 13.61 Z M 23.29 13.96 C 22.62 14.25 21.71 14.78 21.11 15.2 C 19.6 16.25 18.86 16.72 18.15 15.88 C 17.66 15.31 17.67 14.46 18.91 13.34 C 20.73 11.71 22.02 9.01 22.11 4.65 C 22.12 4.25 22.31 4.05 22.64 4.05 C 23.1 4.05 23.2 4.24 23.27 4.67 C 23.62 6.81 24.12 9.72 24.45 11.59 C 24.59 12.43 24.45 13.46 23.29 13.96 Z" fill="#020303"/><path d=" M 22.95 10.61 C 22.5 10.61 22.14 10.98 22.14 11.42 C 22.14 11.87 22.5 12.23 22.95 12.23 C 23.4 12.23 23.76 11.87 23.76 11.42 C 23.76 10.98 23.39 10.61 22.95 10.61 Z" fill="#020303"/></g></svg>