<svg width="62.12" height="61.98" viewBox="0 0 62.12 61.98" xmlns="http://www.w3.org/2000/svg" xmlns:xlink="http://www.w3.org/1999/xlink" overflow="visible"><defs></defs><path d="M29.29 21.07C25.75 16.56 25.06 16.75 25.79 13.99 26.07 12.95 27.21 13.09 28.9 11.3 30.22 9.9 30.8 8.28 30.8 6.07 30.8 2.65 27.82 0 24.66 0 22.24 0 18.63 1.49 18.5 6.27 18.37 10.95 21.41 10.81 21.29 13.92 21.2 15.96 18.15 15.94 13.1 17.35 0.88 20.77-0.93 26.23 7.6 37.76 9.17 39.88 10.82 41.37 12.46 43.65 13.59 45.21 13.89 45.96 12.72 47.02 12.52 47.2 11.45 48.09 11.45 48.09 10.58 48.84 10.48 50.15 11.23 51.02 11.98 51.89 13.29 51.99 14.16 51.24 14.16 51.24 14.96 50.58 15.23 50.36 16.37 49.44 17.29 49.27 18.25 50.29 19.26 51.35 20.47 53.07 21.62 54.26 22.79 55.48 22.73 57.05 19.09 56.76 15.25 56.45 7.57 56.15 3.88 55.72-0.75 55.17-1.49 60.3 3.08 60.72 11.57 61.51 17.08 61.9 20.49 61.9 22.71 61.9 26.85 62.6 28.55 59.81 30.2 57.1 28.55 54.87 26.04 51.42 24.95 49.92 23.77 48.52 22.73 47.09 22.32 46.52 21.64 45.41 22.86 44.36 33.76 34.96 38.65 33.01 29.29 21.07ZM9.48 31.63C6.81 27.25 6.31 24.16 13.11 22.29 15.61 21.6 15.64 22.81 14.82 24.35 13.12 27.54 12.27 29.63 11.27 31.57 10.76 32.55 10.26 32.9 9.48 31.63ZM20.22 41.1C19.84 41.43 18.49 42.61 17.17 41.14 14.91 38.62 15.01 37.29 16.28 34.67 17.24 32.7 18.16 30.71 18.93 28.9 19.19 28.28 19.61 28.25 20.19 28.66 20.61 28.95 21.16 29.02 21.7 29.02 23.55 29.02 25.05 27.52 25.05 25.67 25.05 24.65 24.9 22.82 26.72 24.88 33.03 32.02 26.71 35.44 20.22 41.1Z" fill-rule="evenodd" clip-rule="evenodd"/><path d="M61.48 32.38C61 32.38 60.57 31.91 60.57 30.67 60.57 28.72 57.82 28.72 57.82 30.67 57.82 31.93 57.61 32.16 56.4 32.16L55.88 32.16C54.73 32.16 54.07 30.85 54.76 29.93 58.91 24.35 60.19 17.89 58.04 12.11 55.26 4.61 47.44 0.13 37.12 0.13 36.32 0.13 35.67 0.78 35.67 1.58 35.67 2.38 36.32 3.03 37.12 3.03 46.18 3.03 52.98 6.8 55.32 13.12 56.45 16.17 56.42 19.47 55.35 22.7 54.89 24.08 52.85 23.9 52.64 22.46 52.31 20.17 51.54 18.04 50.34 16.21 47.61 12.07 42.91 9.79 37.12 9.79 36.32 9.79 35.67 10.44 35.67 11.24 35.67 12.04 36.32 12.69 37.12 12.69 41.98 12.69 45.71 14.46 47.92 17.81 48.89 19.27 49.5 20.98 49.77 22.83 49.97 24.21 48.28 24.97 47.34 23.94 44.8 21.18 41.16 19.44 37.12 19.44 36.32 19.44 35.67 20.09 35.67 20.89 35.67 21.69 36.32 22.34 37.12 22.34 42.15 22.34 46.4 25.73 47.71 30.34 47.97 31.25 47.3 32.17 46.36 32.17 45.16 32.17 44.95 31.94 44.95 30.68 44.95 28.73 42.2 28.73 42.2 30.68 42.2 31.92 41.76 32.39 41.29 32.39 40.84 32.39 40.66 32.67 40.66 33.55 40.66 34.51 40.89 34.76 41.38 34.76 42.21 34.76 42.21 35.4 42.21 36.41 42.21 38.38 44.96 38.38 44.96 36.41 44.96 35.18 45.34 34.93 46.38 34.93 46.8 34.93 47.22 34.93 47.45 34.93L47.45 34.93C48.57 34.93 49.48 35.84 49.48 36.96L49.48 47.79C49.48 49.92 48.53 51.94 46.89 53.29L46.86 53.31C45.42 54.5 43.92 55.74 42.91 57.08 42.54 57.57 42.63 58.26 43.12 58.64 43.32 58.79 43.56 58.87 43.79 58.87 44.12 58.87 44.46 58.72 44.67 58.43 45.53 57.3 46.93 56.15 48.27 55.03 48.88 54.52 49.47 54.77 49.47 55.54 49.47 56.65 49.47 59.97 49.47 59.97 49.47 60.93 50.13 61.82 51.08 61.98 52.29 62.18 53.33 61.25 53.33 60.08 53.33 60.08 53.33 56.68 53.33 55.54 53.33 54.69 53.98 54.57 54.53 55.03 55.87 56.15 57.27 57.3 58.13 58.43 58.35 58.72 58.68 58.87 59.01 58.87 59.24 58.87 59.48 58.8 59.68 58.64 60.17 58.27 60.26 57.57 59.89 57.08 58.87 55.74 57.38 54.51 55.94 53.31L55.91 53.29C54.27 51.93 53.32 49.91 53.32 47.79L53.32 36.94C53.32 35.82 54.23 34.91 55.35 34.91L56.37 34.91C57.41 34.91 57.79 35.17 57.79 36.39 57.79 38.36 60.54 38.36 60.54 36.39 60.54 35.39 60.53 34.74 61.37 34.74 61.86 34.74 62.09 34.49 62.09 33.53 62.12 32.65 61.94 32.38 61.48 32.38Z" fill="#030000"/></svg>