<svg version="1.1" width="51.61" height="63.21" viewBox="0 0 51.61 63.21" xmlns="http://www.w3.org/2000/svg" xmlns:xlink="http://www.w3.org/1999/xlink" overflow="visible"><defs></defs><path d=" M 47.7 57.43 C 43.88 57.75 34.36 57.86 30.38 57.85 C 28.6 57.84 27.94 57.34 27.88 56.37 C 27.81 55.36 28.88 54.28 30.7 53.06 C 41.06 46.06 42.42 45.31 44.13 42.19 C 46.24 38.32 45.84 35.61 38.45 21.51 C 36.07 16.98 33.19 16.69 33.11 14.39 C 33 11.18 36.12 11.32 35.99 6.48 C 35.85 1.54 32.12 0 29.62 0 C 26.36 0 23.28 2.73 23.28 6.28 C 23.28 8.56 23.88 10.23 25.24 11.68 C 26.98 13.53 28.68 13.75 28.98 14.82 C 29.59 17 28.54 17.78 25.5 18.61 C 21.83 19.61 18.8 19.47 10.99 18.8 C 3.91 18.2 -0.4 22.88 0.03 28.26 C 0.36 32.41 5.23 31.62 5.01 28.03 C 4.86 25.49 6.57 23.18 10.38 23.95 C 9.58 25.39 9.21 27.05 9.35 28.81 C 9.68 32.96 14.55 32.17 14.33 28.58 C 14.15 25.63 15.6 23.94 18.7 24.2 C 21.78 24.46 23.79 24.29 27.52 23.51 C 30.4 22.91 31.59 23.93 32.44 25.56 C 33.82 28.21 34.36 29.51 36.33 34.35 C 37.46 37.14 38.58 40.1 34.58 43.04 C 31.82 45.07 30.34 45.93 26.89 48.33 C 23.66 50.57 20.37 53.89 20.87 58.2 C 21.33 62.15 23.5 63.23 27.37 63.23 C 30.89 63.23 39.54 63.15 48.34 62.64 C 53.08 62.35 52.5 57.03 47.7 57.43 Z" fill-rule="evenodd" clip-rule="evenodd"/></svg>