<svg version="1.1" width="60.65" height="64.46" viewBox="0 0 60.65 64.46" xmlns="http://www.w3.org/2000/svg" xmlns:xlink="http://www.w3.org/1999/xlink" overflow="visible"><defs></defs><path d=" M 44.59 28.48 C 44.78 27.59 43.77 26.82 43.64 24.93 C 43.55 23.67 43.95 22.4 44.95 21.18 C 46.5 19.28 49.27 19.26 51.09 20.59 C 52.59 21.69 53.75 24.14 51.66 26.84 C 49.61 29.49 48.04 28.13 46.69 29.9 C 45.73 31.16 46.51 33.63 46.24 36.81 C 45.75 42.66 45.18 44.95 43.47 46.91 C 41.64 49.01 37.95 50.3 35.15 51.96 C 32.92 53.28 32.25 54.14 29.3 58.24 C 27.75 60.39 25.01 58.27 26.39 56.21 C 30.34 50.3 31.34 49.41 35.39 47.1 C 38.18 45.52 40.67 44.25 41.4 40.53 C 41.83 38.29 41.88 36.92 41.84 35.3 C 41.76 32.41 42.25 31.28 43.56 30.07 C 44.02 29.67 44.45 29.17 44.59 28.48 Z" fill-rule="evenodd" clip-rule="evenodd"/><path d=" M 52.14 35.24 C 52.4 34.37 51.45 33.52 51.47 31.62 C 51.48 30.36 51.99 29.13 53.08 27.99 C 54.78 26.22 57.71 26.56 59.41 28.05 C 60.81 29.28 61.34 32.1 59.32 34.17 C 56.98 36.56 55.61 35.17 54.12 36.82 C 53.06 38 53.64 40.53 53.12 43.67 C 52.16 49.46 51.41 51.7 49.55 53.52 C 47.56 55.47 43.78 56.46 40.85 57.89 C 38.52 59.03 37.88 59.67 34.52 63.68 C 32.82 65.71 30.24 63.37 31.78 61.42 C 36.19 55.85 37.26 55.04 41.49 53.07 C 44.4 51.72 46.98 50.66 48 47 C 48.61 44.81 48.77 43.44 48.86 41.82 C 49.02 38.94 49.59 37.84 50.99 36.75 C 51.47 36.37 51.94 35.92 52.14 35.24 Z" fill-rule="evenodd" clip-rule="evenodd"/><g><path d=" M 35.6 44.54 C 34.49 43.47 33.87 42.04 33.84 40.5 C 33.81 38.96 34.38 37.51 35.45 36.4 C 36.52 35.29 37.95 34.67 39.49 34.64 C 40.06 34.63 40.52 35.08 40.53 35.65 C 40.54 36.22 40.09 36.68 39.53 36.69 C 38.54 36.71 37.62 37.11 36.93 37.82 C 36.24 38.53 35.87 39.47 35.89 40.46 C 35.91 41.45 36.31 42.37 37.02 43.06 C 38.19 44.19 36.64 45.56 35.6 44.54 Z"/></g><path d=" M 50.3 11.83 C 52.76 12.63 53.87 10.35 57.59 11.74 C 60.83 12.96 59.55 15.69 56.99 15.96 C 54.28 16.24 54.16 14.84 47.68 14.84 C 44.61 14.84 40.98 18.53 32.59 15.75 C 29.85 14.84 27.94 16.12 26.13 15.43 C 23.67 14.49 25.05 12.09 27.96 11.5 C 30.44 11 31.51 11.34 34.33 12.05 C 36.49 12.6 40.8 7.21 50.3 11.83 Z" fill="#030000" fill-rule="evenodd" clip-rule="evenodd"/><path d=" M 43.33 3.09 C 43.33 4.8 41.95 6.18 40.24 6.18 C 38.54 6.18 37.15 4.8 37.15 3.09 C 37.15 1.38 38.53 0 40.24 0 C 41.95 0 43.33 1.38 43.33 3.09 Z" fill="#030000" fill-rule="evenodd" clip-rule="evenodd"/><path d=" M 28.62 35.61 C 25.6 36.79 22.72 37.2 18.74 35.92 C 17.73 35.59 17.51 35.02 17.61 34.36 C 17.7 33.71 18.14 33.55 18.71 33.39 C 21.96 32.52 25.17 29.29 25.22 25.03 C 25.28 20.64 22.82 16.21 16.39 15.95 C 10.73 15.72 7.18 20.1 7.45 24.87 C 7.73 29.81 10.83 32.09 13.63 33.15 C 13.89 33.25 14.51 33.72 14.53 34.28 C 14.55 34.95 14.14 35.5 13.38 35.48 C 8.32 35.32 5.48 35.53 1.59 36.72 C -1.02 37.52 -0.28 41.18 2.74 40.38 C 6.24 39.45 8.94 39.2 10.84 39.82 C 12.04 40.21 13.18 41.4 13.17 43.23 C 13.15 46.97 12.31 50.29 11.23 53.71 C 9.87 58 13.72 60 16.12 56.34 C 17.73 53.88 18.87 47.43 19.03 43.15 C 19.12 40.63 20.81 40.74 21.84 40.77 C 24.13 40.84 27 40.71 30.37 39.09 C 33.14 37.77 31.71 34.4 28.62 35.61 Z M 13.96 30.83 C 10.92 29.64 9.71 26.73 9.88 24.01 C 10.1 20.49 13.26 18.25 16.42 18.3 C 19.58 18.35 22.83 20.78 22.81 24.81 C 22.79 27.56 21.46 29.45 19.34 30.55 C 17.57 31.46 15.59 31.46 13.96 30.83 Z" fill-rule="evenodd" clip-rule="evenodd"/><path d=" M 16.41 24.53 C 15.95 24.53 15.57 24.65 15.57 25.86 C 15.57 27.42 15.86 27.62 16.43 27.62 C 17.04 27.62 17.22 27.39 17.22 25.86 C 17.22 24.62 16.92 24.53 16.41 24.53 Z" fill="#030000" fill-rule="evenodd" clip-rule="evenodd"/><path d=" M 13.03 24.43 C 13.03 24.95 12.61 25.37 12.09 25.37 C 11.57 25.37 11.15 24.95 11.15 24.43 C 11.15 23.91 11.57 23.49 12.09 23.49 C 12.61 23.49 13.03 23.91 13.03 24.43 Z" fill-rule="evenodd" clip-rule="evenodd"/><path d=" M 21.56 24.43 C 21.56 24.95 21.14 25.37 20.62 25.37 C 20.1 25.37 19.68 24.95 19.68 24.43 C 19.68 23.91 20.1 23.49 20.62 23.49 C 21.14 23.49 21.56 23.91 21.56 24.43 Z" fill-rule="evenodd" clip-rule="evenodd"/><path d=" M 58 58.53 C 53.61 55.68 52.9 55.13 51.48 52.95 C 50.97 52.17 50.49 51.31 50.01 50.44 C 49.81 50.83 49.51 51.16 49.1 51.35 C 48.21 51.77 47.37 52.27 46.5 52.73 C 46.54 52.79 46.57 52.85 46.61 52.91 C 49.08 56.87 50.02 57.83 56.08 61.53 C 58.21 62.81 60.22 59.97 58 58.53 Z" fill-rule="evenodd" clip-rule="evenodd"/></svg>