<svg version="1.1" width="55.56" height="57.68" viewBox="0 0 55.56 57.68" xmlns="http://www.w3.org/2000/svg" xmlns:xlink="http://www.w3.org/1999/xlink" overflow="visible"><defs></defs><path d=" M 7.27 9.97 C 9.09 10.82 9.97 10.42 13.16 9.76 C 13.21 9.75 13.31 9.72 13.24 9.58 C 12.08 7.42 11.58 5.58 10.06 4.69 C 8.23 3.63 6.43 4.4 5.68 5.94 C 4.84 7.67 5.66 9.23 7.27 9.97 Z" fill-rule="evenodd" clip-rule="evenodd"/><path d=" M 8.4 23.02 C 8.44 22.99 8.52 22.91 8.39 22.82 C 6.38 21.43 5.09 20.03 3.32 19.93 C 1.21 19.83 -0.04 21.33 4.44089e-16 23.04 C 0.04 24.96 1.49 25.98 3.25 25.9 C 5.26 25.83 5.86 25.08 8.4 23.02 Z" fill-rule="evenodd" clip-rule="evenodd"/><path d=" M 5.43 48.17 C 6.86 47.04 8.82 47.26 11.33 46.97 C 11.49 46.95 11.47 47.07 11.46 47.12 C 10.89 50.44 10.94 51.43 9.43 52.85 C 8.11 54.1 6.3 54.3 4.97 52.84 C 3.78 51.53 3.72 49.52 5.43 48.17 Z" fill-rule="evenodd" clip-rule="evenodd"/><path d=" M 41.77 19.65 C 41.66 19.21 41.74 18.71 42 18.3 C 43.43 16.05 43.65 13.68 42.63 11.25 C 41.31 8.09 38.94 7.94 37.15 9.11 C 33.92 11.23 31.73 15.81 31.46 18.17 C 31.38 18.85 30.79 20.03 29.51 19.61 C 28.88 19.4 28.54 18.51 28.61 17.85 C 28.97 14.74 31.26 10.51 33.94 8.01 C 34.88 7.13 34.56 5.88 32.92 6.12 C 28.1 6.8 26.92 11.97 26.91 12.02 C 26.56 14.02 23.7 13.91 24.09 11.54 C 24.52 8.97 26.85 3.93 32.59 3.28 C 37.49 2.72 39.42 4.63 42.31 3.3 C 46.59 1.32 49.28 0.37 53.94 0.01 C 55.82 -0.13 56.17 2.46 54.39 2.68 C 50.86 3.12 48.52 3.65 45.66 5.01 C 43.62 5.99 44.84 8.84 45.27 10.16 C 46.46 13.82 46.17 17.08 44.41 19.84 C 43.56 21.2 42.03 20.66 41.77 19.65 Z" fill="#030000"/><path d=" M 51.18 40.83 C 46.75 42.29 42.33 42.24 38.68 41.07 C 37.75 40.77 37.55 40.25 37.64 39.65 C 37.73 39.06 38.13 38.9 38.65 38.76 C 41.18 38.08 44.51 35.24 44.61 31.8 C 44.74 27.34 42.46 23.15 36.57 22.92 C 31.18 22.71 28.09 26.59 28.34 30.96 C 28.6 35.49 31.44 37.58 34 38.54 C 34.23 38.63 34.8 39.06 34.82 39.58 C 34.84 40.19 34.46 40.7 33.77 40.67 C 29.13 40.53 22.63 41.2 19.07 42.3 C 16.88 42.97 17.17 46.24 20.24 45.62 C 24.13 44.83 27.21 44.37 31.44 44.96 C 32.58 45.12 33.58 46.1 33.58 47.78 C 33.58 50.07 33.26 52.26 32.82 53.91 C 31.73 57.98 36.35 58.94 37.51 55.88 C 38.25 53.93 38.7 51.02 38.95 47.71 C 39.12 45.41 40.58 45.5 41.53 45.53 C 43.63 45.59 48.08 45.98 52.79 44.03 C 55.07 43.09 54.5 39.73 51.18 40.83 Z M 34.31 36.4 C 31.52 35.31 30.42 32.64 30.57 30.16 C 30.77 26.93 33.67 24.88 36.57 24.93 C 39.47 24.98 42.44 27.2 42.42 30.89 C 42.41 33.41 41.19 35.14 39.24 36.15 C 37.61 36.99 35.8 36.99 34.31 36.4 Z" fill-rule="evenodd" clip-rule="evenodd"/><path d=" M 36.54 30.64 C 36.12 30.64 35.78 30.75 35.78 31.85 C 35.78 33.28 36.04 33.46 36.57 33.46 C 37.13 33.46 37.29 33.25 37.29 31.85 C 37.29 30.71 37.02 30.64 36.54 30.64 Z" fill="#030000" fill-rule="evenodd" clip-rule="evenodd"/><path d=" M 33.45 30.54 C 33.45 31.02 33.06 31.4 32.59 31.4 C 32.11 31.4 31.73 31.01 31.73 30.54 C 31.73 30.06 32.12 29.67 32.59 29.67 C 33.06 29.68 33.45 30.06 33.45 30.54 Z" fill-rule="evenodd" clip-rule="evenodd"/><path d=" M 41.26 30.54 C 41.26 31.02 40.87 31.4 40.4 31.4 C 39.92 31.4 39.54 31.01 39.54 30.54 C 39.54 30.06 39.93 29.67 40.4 29.67 C 40.88 29.68 41.26 30.06 41.26 30.54 Z" fill-rule="evenodd" clip-rule="evenodd"/></svg>