<svg version="1.1" width="43.35" height="59.25" viewBox="0 0 43.35 59.25" xmlns="http://www.w3.org/2000/svg" xmlns:xlink="http://www.w3.org/1999/xlink" overflow="visible"><defs></defs><path d=" M 13.76 19.01 C 13.85 16.19 15.54 11.99 18.05 9.21 C 18.52 8.7 18.24 7.54 17.11 7.8 C 12.73 8.79 12.05 13.62 12.05 13.67 C 11.85 15.92 8.82 15.58 9 13.41 C 9.21 10.92 11.04 5.9 16.5 4.8 C 19.97 4.11 22.84 5.64 25.6 4.08 C 29.38 1.93 31.86 0.78 36.35 0.06 C 37.6 -0.14 38.45 0.2 38.68 1.19 C 38.84 1.89 38.28 2.68 37.32 2.85 C 33.71 3.48 31.51 4.47 29.06 5.76 C 28.06 6.28 27.79 6.82 27.73 7.21 C 27.58 8.15 28.52 8.84 29.18 10.42 C 30.59 13.78 30.63 16.9 29.12 19.76 C 28.03 21.84 25.3 20.46 26.41 18.34 C 27.55 16.16 27.57 13.97 26.45 11.82 C 26.19 11.33 25.4 9.86 24.07 9.58 C 23.17 9.39 22.28 9.61 21.39 10.29 C 18.55 12.51 16.89 16.92 16.81 19.13 C 16.75 21.46 13.7 21.24 13.76 19.01 Z" fill="#030000"/><path d=" M 39.66 43.28 C 34.58 44.95 28.5 44.9 24.32 43.56 C 23.25 43.22 23.03 42.61 23.13 41.92 C 23.23 41.24 23.69 41.06 24.29 40.9 C 27.2 40.12 30.84 37.16 31.03 32.85 C 31.26 27.73 28.75 22.91 22 22.54 C 16.25 22.23 12.17 26.93 12.46 31.94 C 12.76 37.14 16.02 39.53 18.96 40.64 C 19.23 40.74 19.88 41.24 19.9 41.83 C 19.92 42.54 19.49 43.11 18.69 43.09 C 13.37 42.92 5.91 43.7 1.82 44.96 C -0.92 45.8 -0.61 49.54 3.16 48.77 C 7.63 47.86 11.16 47.34 16.02 48.01 C 17.33 48.19 18.48 49.32 18.47 51.25 C 18.46 52.67 18.34 54.04 18.14 55.37 C 17.48 59.72 23.36 61.02 24.16 56.04 C 24.43 54.33 24.58 52.62 24.63 51.17 C 24.73 48.52 26.5 48.63 27.59 48.67 C 30 48.74 36.11 49.19 41.52 46.95 C 44.49 45.72 43.84 41.9 39.66 43.28 Z M 19.3 38.2 C 16.1 36.95 14.84 33.88 15.02 31.03 C 15.25 27.32 18.32 24.92 21.9 25.03 C 25.51 25.14 28.64 27.64 28.62 31.87 C 28.6 34.76 27.2 36.75 24.97 37.9 C 23.09 38.87 21.01 38.87 19.3 38.2 Z" fill-rule="evenodd" clip-rule="evenodd"/><path d=" M 21.86 31.58 C 21.38 31.58 20.98 31.7 20.98 32.97 C 20.98 34.61 21.28 34.82 21.89 34.82 C 22.53 34.82 22.72 34.58 22.72 32.97 C 22.72 31.67 22.41 31.58 21.86 31.58 Z" fill="#030000" fill-rule="evenodd" clip-rule="evenodd"/><path d=" M 18.32 31.47 C 18.32 32.02 17.87 32.46 17.33 32.46 C 16.78 32.46 16.34 32.01 16.34 31.47 C 16.34 30.92 16.79 30.48 17.33 30.48 C 17.87 30.48 18.32 30.92 18.32 31.47 Z" fill-rule="evenodd" clip-rule="evenodd"/><path d=" M 27.28 31.47 C 27.28 32.02 26.83 32.46 26.29 32.46 C 25.74 32.46 25.3 32.01 25.3 31.47 C 25.3 30.92 25.74 30.48 26.29 30.48 C 26.84 30.48 27.28 30.92 27.28 31.47 Z" fill-rule="evenodd" clip-rule="evenodd"/></svg>