<svg version="1.1" width="48.34" height="65.68" viewBox="0 0 48.34 65.68" xmlns="http://www.w3.org/2000/svg" xmlns:xlink="http://www.w3.org/1999/xlink" overflow="visible"><defs></defs><path d=" M 28.99 47.85 C 25.18 49.11 21.37 49.06 18.24 48.06 C 17.44 47.8 17.27 47.35 17.35 46.83 C 17.42 46.32 17.77 46.19 18.22 46.07 C 20.4 45.48 23.08 43.38 23.35 40.08 C 23.66 36.25 21.53 32.25 16.4 32.26 C 11.76 32.27 9.14 35.6 9.35 39.36 C 9.57 43.26 12.02 45.06 14.22 45.89 C 14.42 45.97 14.91 46.34 14.93 46.79 C 14.95 47.32 14.62 47.75 14.02 47.73 C 10.03 47.61 4.44 48.19 1.37 49.13 C -0.69 49.76 -0.45 52.56 2.37 51.99 C 5.72 51.31 8.37 50.92 12.01 51.42 C 12.99 51.55 13.86 52.4 13.85 53.85 C 13.84 56.8 13.17 59.41 12.32 62.12 C 11.4 65.01 14.56 66.66 16.18 64.19 C 17.45 62.25 18.35 57.16 18.47 53.79 C 18.54 51.8 19.87 51.89 20.69 51.91 C 22.49 51.96 26.32 52.3 30.38 50.62 C 32.61 49.68 32.13 46.81 28.99 47.85 Z M 14.47 44.04 C 12.07 43.1 11.12 40.8 11.26 38.67 C 11.43 35.89 13.48 34.01 16.39 34.01 C 19.23 34.01 21.47 36.12 21.45 39.3 C 21.44 41.47 20.39 42.96 18.72 43.82 C 17.32 44.54 15.75 44.54 14.47 44.04 Z" fill-rule="evenodd" clip-rule="evenodd"/><path d=" M 16.4 39.08 C 16.04 39.08 15.74 39.17 15.74 40.13 C 15.74 41.36 15.97 41.52 16.42 41.52 C 16.9 41.52 17.04 41.34 17.04 40.13 C 17.04 39.14 16.81 39.08 16.4 39.08 Z" fill="#030000" fill-rule="evenodd" clip-rule="evenodd"/><path d=" M 13.73 39 C 13.73 39.41 13.4 39.74 12.99 39.74 C 12.58 39.74 12.25 39.41 12.25 39 C 12.25 38.59 12.58 38.26 12.99 38.26 C 13.4 38.25 13.73 38.59 13.73 39 Z" fill-rule="evenodd" clip-rule="evenodd"/><path d=" M 20.46 39 C 20.46 39.41 20.13 39.74 19.72 39.74 C 19.31 39.74 18.98 39.41 18.98 39 C 18.98 38.59 19.31 38.26 19.72 38.26 C 20.12 38.25 20.46 38.59 20.46 39 Z" fill-rule="evenodd" clip-rule="evenodd"/><path d=" M 43.41 24.64 C 39.85 23.58 36 22.95 33.1 20.58 C 30.35 18.33 30.14 13.86 26.04 13.08 C 24.29 12.75 24.11 11.1 24.51 9.84 C 25.23 7.52 25.5 5.34 24.02 3.02 C 21.6 -0.77 17.33 -0.36 15.19 0.87 C 12.41 2.47 11.39 5.37 12.39 8.52 C 13.22 11.15 15.28 12.47 17.02 12.94 C 19.08 13.5 19.99 12.93 20.95 13.44 C 22.9 14.48 22.95 16.12 21.37 18.06 C 18.09 22.09 12.93 25.28 5.23 26.69 C 1.5 27.36 2.72 31.47 5.71 31 C 10.94 30.18 16.76 28.25 21.32 24.88 C 21.52 24.73 22.23 24.14 22.56 24.97 C 23.35 27 25.84 26.97 26.93 25.68 C 27.8 24.65 29.25 25.2 28.62 26.46 C 27.78 28.15 26.75 30.82 27.46 33.42 C 28.69 37.92 34.42 39.69 38.67 36.81 C 40.06 35.87 40.34 36.46 39.94 37.56 C 39.46 38.87 39.03 39.93 38.9 40.27 C 35.79 48.22 36.18 54.37 36.55 62.36 C 36.78 67.49 42.58 66.16 41.95 61.82 C 41.72 60.26 41.79 49.06 43.18 45.65 C 44.93 41.36 47.79 36.71 48.28 32.77 C 48.8 28.61 46.39 25.53 43.41 24.64 Z"/></svg>