<svg version="1.1" width="58.01" height="53.43" viewBox="0 0 58.01 53.43" xmlns="http://www.w3.org/2000/svg" xmlns:xlink="http://www.w3.org/1999/xlink" overflow="visible"><defs></defs><path d=" M 41.52 26.1 C 34.55 26.1 33.36 23.18 31.81 18.27 C 31.3 16.66 30.68 14.86 31.49 13.66 C 32.21 12.6 33.61 12.42 34.6 12.31 C 35.74 12.18 36.75 10.75 38.91 10.79 C 40.08 10.81 40.84 11.37 41.35 11.75 C 41.4 11.79 41.65 11.79 41.7 11.75 C 42.21 11.37 42.97 10.82 44.14 10.79 C 46.43 10.73 47.21 12.01 48.53 12.32 C 49.52 12.55 50.95 12.77 51.64 13.9 C 52.39 15.13 51.48 17.52 50.98 18.92 C 49.44 23.27 48.51 26.1 41.52 26.1 Z M 37.26 14.07 C 36.65 14.45 35.92 14.82 35.04 14.89 C 33.8 14.98 33.97 16.17 34.42 17.6 C 35.84 22.1 36.22 23.32 41.52 23.48 C 46.58 23.32 47 22.12 48.4 18.15 C 48.92 16.69 49.39 15.08 47.93 14.88 C 47.12 14.77 46.45 14.41 45.86 14.08 C 45.24 13.74 44.25 13.08 43.09 13.88 C 42.68 14.16 42.21 14.55 41.52 14.55 C 40.84 14.55 40.37 14.16 39.96 13.88 C 39.35 13.47 38.41 13.34 37.26 14.07 Z" fill="#030000"/><path d=" M 31.83 51.83 C 32.01 53.92 35.38 54.13 35.34 51.43 C 35.31 49.37 35.2 45.25 35.88 41.67 C 36.37 39.13 38.27 35.19 40.17 34.05 C 41.66 33.15 43.5 33.73 43.38 35.46 C 43.25 37.29 43.22 39.7 43.03 41.99 C 42.63 46.66 45.82 49.37 51.35 52.94 C 53.97 54.63 55.57 51.44 53.42 50.2 C 50 47.91 46.34 46.04 46.6 41.46 C 46.73 39.02 46.92 37.32 47.14 34.83 C 47.59 29.71 39.23 27.51 35.14 34.21 C 32.61 38.36 31.16 43.94 31.83 51.83 Z" fill-rule="evenodd" clip-rule="evenodd"/><path d=" M 27.76 9.24 L 34.15 2.85 C 35.97 1.01 33.8 -1.13 31.98 0.7 L 25.59 7.09 C 25.12 7.56 25.02 9.02 25 9.61 C 24.99 9.76 25.06 9.86 25.17 9.86 C 25.7 9.84 27.27 9.74 27.76 9.24 Z" fill="#030000"/><path d=" M 55.25 9.24 L 48.86 2.85 C 47.13 1.1 49.3 -1.05 51.03 0.7 L 57.42 7.09 C 57.89 7.57 57.99 9.03 58.01 9.62 C 58.02 9.77 57.95 9.87 57.84 9.87 C 57.32 9.84 55.74 9.74 55.25 9.24 Z" fill="#030000"/><path d=" M 16.61 21.69 C 16.61 22.98 15.57 24.02 14.28 24.02 C 12.99 24.02 11.94 22.98 11.94 21.69 C 11.94 20.4 12.99 19.35 14.28 19.35 C 15.57 19.35 16.61 20.4 16.61 21.69 Z" fill-rule="evenodd" clip-rule="evenodd"/><path d=" M 27.62 21.28 C 26.16 16.95 25.41 16.13 25.16 15.86 C 24.04 14.64 23.48 14.44 20.88 13.6 C 19.35 13.11 18.54 15.44 20.08 15.9 C 22.3 16.56 22.68 16.76 23.37 17.52 C 23.48 17.64 24.08 18.41 25.31 22.06 C 25.47 22.53 25.22 22.91 25 23.02 C 24.76 23.15 24.37 23.36 23.93 23.55 C 23.05 23.92 22.74 23.58 22.69 22.73 C 22.66 22.21 22.56 20.65 22.56 20.65 C 22.46 19.08 20.03 19.23 20.13 20.81 C 20.13 20.81 20.88 33.68 21.09 37.44 C 21.16 38.65 21.22 39.2 19.7 39.2 C 17.21 39.2 12.23 39.26 9.74 39.26 C 8.49 39.26 8.22 38.62 8.31 37.57 C 8.59 34.1 8.61 26.59 7.28 20.7 C 6.93 19.17 4.56 19.71 4.9 21.24 C 5.04 21.85 5.16 22.46 5.27 23.07 C 5.34 23.45 5.23 24.11 4.62 23.93 C 4.04 23.75 3.48 23.56 3.14 23.46 C 2.62 23.31 2.35 22.83 2.47 22.22 C 2.64 21.3 2.88 20.35 3.18 19.41 C 3.9 17.12 5.35 16.72 7.48 16.37 C 9.02 16.11 8.62 13.71 7.08 13.97 C 4.54 14.39 1.98 15.1 0.85 18.68 C 0.53 19.71 0.27 20.75 0.07 21.77 C -0.28 23.62 0.73 25.31 2.48 25.81 C 2.97 25.95 4.02 26.34 4.85 26.58 C 5.66 26.82 5.8 27.42 5.86 27.92 C 6.13 30.12 5.97 36.83 5.8 38.54 C 5.63 40.18 6.26 41.68 8.69 41.68 C 8.69 41.68 16.98 41.62 20.27 41.62 C 22.3 41.62 23.89 41.09 23.66 38.22 C 22.93 29.12 23.09 29.57 23.08 28.77 C 23.07 28.01 22.99 26.81 24.42 26.02 C 25.06 25.67 25.75 25.39 26.13 25.19 C 27.48 24.48 28.13 22.8 27.62 21.28 Z"/></svg>