<svg version="1.1" width="40.82" height="56.01" viewBox="0 0 40.82 56.01" xmlns="http://www.w3.org/2000/svg" xmlns:xlink="http://www.w3.org/1999/xlink" overflow="visible"><defs></defs><path d=" M 17.79 26.12 C 5.9 26.12 3.86 21.13 1.22 12.77 C 0.35 10.01 -0.71 6.94 0.67 4.91 C 1.9 3.1 4.29 2.8 5.97 2.61 C 7.92 2.39 9.63 -0.06 13.33 0 C 15.33 0.03 16.63 0.99 17.49 1.64 C 17.58 1.71 18 1.71 18.09 1.64 C 18.95 0.99 20.26 0.05 22.25 0 C 26.16 -0.11 27.49 2.08 29.74 2.61 C 31.42 3.01 33.87 3.37 35.04 5.31 C 36.31 7.42 34.76 11.48 33.92 13.88 C 31.3 21.3 29.72 26.12 17.79 26.12 Z M 10.38 5.44 C 9.32 6.11 8.05 6.75 6.51 6.86 C 4.36 7.01 4.64 9.09 5.42 11.57 C 7.9 19.4 8.56 21.52 17.79 21.8 C 26.59 21.53 27.33 19.43 29.77 12.52 C 30.67 9.99 31.49 7.18 28.94 6.84 C 27.53 6.65 26.37 6.01 25.34 5.45 C 24.27 4.86 22.53 3.71 20.51 5.11 C 19.8 5.6 18.97 6.27 17.79 6.27 C 16.61 6.27 15.78 5.59 15.07 5.11 C 14.01 4.39 12.37 4.18 10.38 5.44 Z"/><path d=" M 4.49 39.24 C 2.6 42.73 0.99 48.98 0.52 53.72 C 0.28 56.2 4.15 57.17 4.7 54.01 C 5.12 51.61 5.85 46.89 7.43 42.87 C 8.55 40.01 11.71 36.07 14.08 34.92 C 17.21 33.4 21.5 34.2 22.83 38.78 C 23.44 40.87 24.08 43.65 24.63 46.32 C 25.75 51.77 30.15 53.34 37.63 55.54 C 41.18 56.59 41.93 52.42 39.06 51.74 C 34.4 50.28 29.75 49.82 28.49 44.52 C 27.83 41.71 27.58 40.74 26.87 37.86 C 24.94 30 16.06 26.51 8.34 34.01 C 6.92 35.39 5.57 37.25 4.49 39.24 Z" fill-rule="evenodd" clip-rule="evenodd"/></svg>