<svg version="1.1" width="58.21" height="58.66" viewBox="0 0 58.21 58.66" xmlns="http://www.w3.org/2000/svg" xmlns:xlink="http://www.w3.org/1999/xlink" overflow="visible"><defs></defs><path d=" M 17.96 33.61 C 22.86 30.21 22.94 22.62 22.94 22.54 C 22.95 20.79 25.24 20.79 25.24 22.54 C 25.24 22.9 25.17 31.41 19.26 35.5 C 17.91 36.47 16.54 34.58 17.96 33.61 Z"/><path d=" M 16.97 48.24 C 16.08 46.85 17.98 45.54 18.91 47.01 C 20.3 49.21 26.04 50.87 27.26 46.47 C 27.73 44.79 27.26 43.49 26.52 42.09 C 24.68 38.64 24.92 34.12 28.53 31.43 C 29.78 30.48 31.21 32.3 29.91 33.27 C 27.63 34.98 27.19 38.31 28.63 41.15 C 29.43 42.73 30.18 44.6 29.49 47.09 C 27.71 53.46 19.46 52.17 16.97 48.24 Z"/><path d=" M 0.87 48.37 C 0.18 45.88 0.98 43.94 1.73 42.43 C 3.93 38.02 1.35 35.22 0.44 34.55 C -0.69 33.71 0.58 31.74 1.82 32.71 C 5.06 35.25 5.8 39.44 3.83 43.37 C 3.08 44.85 2.62 46.08 3.09 47.75 C 4.36 52.3 10.17 50.29 11.44 48.28 C 12.28 46.94 14.19 48.25 13.38 49.51 C 10.65 53.81 2.54 54.4 0.87 48.37 Z"/><path d=" M 6.26 34.56 C 6.26 33.17 5.71 31.92 5.13 30.6 C 4.01 28.04 2.75 25.14 4.65 20.44 C 5.28 18.9 7.47 19.62 6.78 21.3 C 5.23 25.11 6.2 27.33 7.23 29.68 C 7.88 31.16 8.55 32.7 8.55 34.56 C 8.56 36.45 6.26 36.45 6.26 34.56 Z"/><path d=" M 15.46 45.66 C 10.87 44.55 7.18 36.49 13.55 27.95 C 16.68 23.75 18.04 19.12 14.77 14.21 C 13.73 12.64 15.73 11.57 16.68 12.94 C 20.42 18.28 19.04 24.68 15.46 29.22 C 9.33 36.99 14.01 42.93 16 43.43 C 17.54 43.81 16.78 45.98 15.46 45.66 Z"/><path d=" M 49.54 23.04 C 54.72 21.33 57.67 17.42 58.16 12.23 C 58.74 6.12 54.58 0.83 48.19 0.08 C 42.52 -0.58 38 3.03 36.47 8.07 C 35.81 10.26 36.46 12.61 39.32 12.21 C 52.02 10.41 53.32 13.57 52.39 16.07 C 50.68 20.66 43.9 20.98 39.7 17.55 C 38.39 16.48 37.53 17.53 38.01 18.41 C 38.66 19.61 39.65 20.49 40.66 21.09 C 42.65 22.27 45.24 23.05 44.82 24.65 C 44.61 25.43 43.92 26.14 42.74 27.86 C 40.74 30.76 37.71 33.74 33.97 35.98 C 30.93 37.79 33.06 41.21 36.24 39.27 C 39.24 37.45 42.04 35.31 45.23 32.12 C 46.43 30.92 47.65 30.41 49.11 32.53 C 49.67 33.34 50.11 34.06 50.78 35.09 C 53.12 38.7 52.99 39.94 51.45 43.91 C 49.51 48.91 49.68 50.93 50.19 56.76 C 50.44 59.6 54.25 59.09 54.09 56.45 C 53.89 53.22 53.51 51.12 54.53 48.32 C 55.82 44.8 57.17 42.41 57.17 40.17 C 57.17 37.51 56.97 35.86 53.16 30.29 C 51.54 27.91 50.47 26.72 49.7 26.04 C 47.58 24.13 48.76 23.3 49.54 23.04 Z" fill-rule="evenodd" clip-rule="evenodd"/></svg>