<svg version="1.1" width="64.22" height="65.06" viewBox="0 0 64.22 65.06" xmlns="http://www.w3.org/2000/svg" xmlns:xlink="http://www.w3.org/1999/xlink" overflow="visible"><defs></defs><path d=" M 2.97 9.7 C 3.12 12.84 3.5 15.46 4.06 17.64 C 4.75 20.36 6.3 19.56 5.73 16.47 C 5.54 15.45 5.39 14.4 5.31 13.37 C 4.96 9.08 4.89 7.34 4.81 4.67 C 4.73 2.01 7.71 1.94 7.78 4.58 C 7.86 7.21 7.87 8.91 8.27 13.13 C 8.66 17.24 9.94 18.56 10.13 14.96 C 10.53 7.24 11.26 4.18 12.2 1.39 C 12.99 -0.97 15.77 -0.11 15.04 2.26 C 14.19 5.01 13.15 10.57 13.09 15.58 C 13.06 17.88 14.16 18.11 14.74 15.74 C 16.45 8.88 18.71 5.6 18.81 5.46 C 20.34 3.28 22.76 4.98 21.24 7.16 C 21.22 7.19 19.18 10.19 17.63 16.45 C 17.07 18.68 16.41 20.98 15.37 22.65 C 14.71 23.7 15.67 24.62 16.37 23.67 C 17.19 22.57 17.87 21.34 18.73 19.5 C 19.96 16.87 21.32 15.59 22.42 15 C 24.01 14.14 25.28 16 23.96 17.23 C 22.99 18.14 21.99 19.14 21.4 20.59 C 19.84 24.5 17.88 27.23 15.38 28.48 C 13.54 29.4 12.86 30.26 12.69 32.74 C 12.69 32.81 12.68 62.08 12.68 62.08 C 12.68 66.13 7.88 65.97 7.89 62.08 C 7.89 62.08 7.89 35.71 7.89 31.17 C 7.89 29.64 7.43 28.58 6.02 27.46 C 3.18 25.18 0.51 20.21 0 9.84 C -0.11 7.37 2.85 7.22 2.97 9.7 Z" fill="#030000"/><path d=" M 60.88 58.29 C 57.62 58.56 49.49 58.66 46.09 58.65 C 44.57 58.64 44.01 58.22 43.96 57.39 C 43.9 56.53 44.82 55.61 46.37 54.56 C 55.22 48.59 56.38 47.95 57.83 45.28 C 59.63 41.97 59.29 39.67 52.98 27.63 C 50.95 23.76 48.49 23.51 48.42 21.55 C 48.33 18.81 50.99 18.93 50.88 14.8 C 50.77 10.59 47.59 9.27 45.45 9.27 C 42.66 9.27 40.04 11.6 40.04 14.63 C 40.04 16.58 40.55 18.01 41.72 19.24 C 43.21 20.82 44.66 21.01 44.91 21.92 C 45.43 23.78 44.54 24.44 41.94 25.15 C 38.81 26 36.22 25.88 29.55 25.32 C 23.51 24.81 19.83 28.8 20.2 33.4 C 20.48 36.95 24.64 36.26 24.45 33.2 C 24.32 31.03 25.78 29.06 29.04 29.72 C 28.36 30.95 28.04 32.37 28.16 33.87 C 28.44 37.41 32.6 36.73 32.41 33.67 C 32.26 31.15 33.5 29.71 36.14 29.93 C 38.77 30.15 40.49 30 43.67 29.34 C 46.13 28.83 47.15 29.7 47.87 31.09 C 49.05 33.35 49.51 34.46 51.19 38.6 C 52.16 40.98 53.11 43.51 49.7 46.02 C 47.34 47.75 46.08 48.49 43.13 50.53 C 40.37 52.44 37.57 55.28 37.99 58.96 C 38.38 62.33 40.23 63.25 43.54 63.25 C 46.54 63.25 53.93 63.18 61.44 62.75 C 65.47 62.49 64.97 57.95 60.88 58.29 Z" fill-rule="evenodd" clip-rule="evenodd"/></svg>