<svg version="1.1" width="43.41" height="63.49" viewBox="0 0 43.41 63.49" xmlns="http://www.w3.org/2000/svg" xmlns:xlink="http://www.w3.org/1999/xlink" overflow="visible"><defs></defs><path d=" M 28.8 58.41 C 24.85 56.05 21.11 54.58 20.69 49.46 C 20.45 46.44 20.39 45.05 20.45 41.87 C 20.53 37.63 18.5 36.03 18.16 34.85 C 17.51 32.56 19.07 32.06 19.7 31.85 C 21.29 31.31 23.27 30.63 25.02 29.22 C 25.64 28.72 26.22 28.06 26.77 27.3 C 28.28 25.22 28.04 23.95 28.06 22.77 C 28.08 21.69 28.28 20.67 28.67 19.8 C 29.06 18.93 30.52 17.87 30.46 14.69 C 30.27 5.75 25.59 0 15.7 0 C 5.63 0 0.31 5.79 0 14.54 C -0.08 16.86 1.31 18 1.78 18.64 C 2.57 19.7 3.06 21.16 3.06 22.78 C 3.06 22.78 3.09 25.16 3.34 26.01 C 3.84 27.69 5.2 29.03 6.57 30.06 C 8.3 31.36 10.28 31.89 11.75 32.34 C 12.25 32.49 13.59 33.08 13.59 34.62 C 13.59 37.07 7.33 39.22 5.24 47.66 C 4.34 51.29 4.18 57.37 4.8 61.82 C 5.12 64.15 8.89 64.18 8.7 61.17 C 8.55 58.87 8.19 54.38 8.74 50.35 C 9.14 47.48 11.03 42.97 13.09 41.59 C 14.7 40.51 16.79 41.04 16.75 42.98 C 16.71 45.03 16.83 47.72 16.74 50.3 C 16.57 55.54 20.26 57.95 26.65 61.62 C 29.68 63.33 31.28 59.67 28.8 58.41 Z M 22.52 8.61 C 25.09 8.61 27.18 10.69 27.18 13.27 C 27.18 15.84 25.09 17.93 22.52 17.93 C 19.94 17.93 17.86 15.84 17.86 13.27 C 17.86 10.7 19.94 8.61 22.52 8.61 Z M 13.05 19.28 C 13.73 17.04 14.91 15.83 15.32 15.81 C 15.77 15.79 17.1 17.03 17.78 19.28 C 18.55 21.81 17.28 22.72 16.54 22.36 C 16.13 22.16 15.79 21.94 15.55 21.56 C 15.5 21.49 15.32 21.51 15.26 21.59 C 15.02 21.95 14.69 22.16 14.29 22.36 C 13.55 22.72 12.28 21.82 13.05 19.28 Z M 3.49 13.27 C 3.49 10.69 5.57 8.61 8.15 8.61 C 10.72 8.61 12.81 10.69 12.81 13.27 C 12.81 15.84 10.72 17.93 8.15 17.93 C 5.58 17.93 3.49 15.85 3.49 13.27 Z M 15.52 29.26 C 9.79 29.26 5.3 26.46 5.3 22.89 C 5.3 22.08 5.84 21.45 6.65 21.45 C 7.11 21.45 7.91 21.94 8.15 22.92 C 8.53 24.49 11.35 26.32 15.52 26.32 C 19.69 26.32 22.55 24.45 23 22.89 C 23.28 21.91 23.95 21.42 24.5 21.42 C 25.31 21.42 25.75 22.08 25.75 22.89 C 25.74 26.47 21.25 29.26 15.52 29.26 Z"/><path d=" M 37.01 52.97 C 34.15 52.97 31.44 51.25 30.44 48.68 C 29.09 45.22 29.86 41.9 32.99 37.58 C 34.84 35.03 35.26 32.43 34.24 29.85 C 34.01 29.27 34.3 28.6 34.88 28.37 C 35.46 28.14 36.12 28.42 36.36 29.01 C 37.67 32.31 37.14 35.74 34.84 38.91 C 32.18 42.57 31.52 45.16 32.57 47.85 C 33.32 49.77 35.53 50.97 37.74 50.64 C 38.83 50.47 39.83 49.84 40.48 48.91 C 41.05 48.08 41.27 47.14 41.09 46.27 C 40.63 44.09 39.26 43.28 38.13 43.24 C 37.25 43.22 36.26 43.66 35.97 44.7 C 35.77 45.46 36.05 45.97 36.35 46.17 C 36.67 46.39 37.09 46.33 37.51 46.01 C 38.01 45.63 38.72 45.73 39.1 46.23 C 39.48 46.73 39.39 47.44 38.88 47.82 C 37.68 48.73 36.22 48.82 35.08 48.05 C 33.86 47.23 33.35 45.68 33.77 44.1 C 34.29 42.16 36.07 40.9 38.19 40.96 C 40.1 41.02 42.58 42.31 43.31 45.79 C 43.62 47.28 43.28 48.85 42.35 50.2 C 41.35 51.65 39.79 52.63 38.09 52.89 C 37.72 52.94 37.36 52.97 37.01 52.97 Z" fill="#020303"/></svg>