<svg version="1.1" width="58.04" height="58.46" viewBox="0 0 58.04 58.46" xmlns="http://www.w3.org/2000/svg" xmlns:xlink="http://www.w3.org/1999/xlink" overflow="visible"><defs></defs><path d=" M 41.55 31.13 C 34.58 31.13 33.39 28.21 31.84 23.3 C 31.33 21.69 30.71 19.89 31.52 18.69 C 32.24 17.63 33.64 17.45 34.63 17.34 C 35.77 17.21 36.78 15.78 38.94 15.82 C 40.11 15.84 40.87 16.4 41.38 16.78 C 41.43 16.82 41.68 16.82 41.73 16.78 C 42.24 16.4 43 15.85 44.17 15.82 C 46.46 15.76 47.24 17.04 48.56 17.35 C 49.55 17.58 50.98 17.8 51.67 18.93 C 52.42 20.16 51.51 22.55 51.01 23.95 C 49.47 28.3 48.54 31.13 41.55 31.13 Z M 37.29 19.1 C 36.68 19.48 35.95 19.85 35.07 19.92 C 33.83 20.01 34 21.2 34.45 22.63 C 35.87 27.13 36.25 28.35 41.55 28.51 C 46.61 28.35 47.03 27.15 48.44 23.18 C 48.96 21.72 49.43 20.11 47.97 19.91 C 47.16 19.8 46.49 19.44 45.9 19.11 C 45.28 18.77 44.29 18.11 43.13 18.91 C 42.72 19.19 42.25 19.58 41.56 19.58 C 40.88 19.58 40.41 19.19 40 18.91 C 39.38 18.5 38.43 18.37 37.29 19.1 Z" fill="#030000"/><path d=" M 31.86 56.86 C 32.04 58.95 35.41 59.16 35.37 56.46 C 35.34 54.4 35.23 50.28 35.91 46.7 C 36.4 44.16 38.3 40.22 40.2 39.08 C 41.69 38.18 43.53 38.76 43.41 40.49 C 43.28 42.32 43.25 44.73 43.06 47.02 C 42.66 51.69 45.85 54.4 51.38 57.97 C 54 59.66 55.6 56.47 53.45 55.23 C 50.03 52.94 46.37 51.07 46.63 46.49 C 46.76 44.05 46.95 42.35 47.16 39.86 C 47.61 34.74 39.25 32.54 35.16 39.24 C 32.63 43.39 31.18 48.97 31.86 56.86 Z" fill-rule="evenodd" clip-rule="evenodd"/><path d=" M 27.79 14.27 L 34.18 7.88 C 35.99 6.05 33.82 3.9 32 5.73 L 25.61 12.12 C 25.14 12.6 25.04 14.06 25.02 14.65 C 25.01 14.8 25.08 14.9 25.19 14.9 C 25.72 14.87 27.3 14.77 27.79 14.27 Z" fill="#030000"/><path d=" M 55.28 14.27 L 48.89 7.88 C 47.16 6.13 49.33 3.98 51.06 5.73 L 57.45 12.12 C 57.92 12.6 58.02 14.06 58.04 14.65 C 58.05 14.8 57.98 14.9 57.87 14.9 C 57.34 14.87 55.77 14.77 55.28 14.27 Z" fill="#030000"/><path d=" M 13.23 0 L 8.09 0 C 5.66 0 5.66 3.34 8.09 3.34 C 9.06 3.34 9.67 3.86 9.94 4.18 C 10.83 5.28 10.64 5.26 11.51 4.17 C 11.83 3.77 12.29 3.34 13.23 3.34 C 15.8 3.34 15.8 0 13.23 0 Z" fill-rule="evenodd" clip-rule="evenodd"/><path d=" M 18.59 9.64 L 2.32 9.64 C 0.85 9.64 0.85 11.72 2.32 11.72 L 18.58 11.72 C 20.11 11.72 20.11 9.64 18.59 9.64 Z"/><path d=" M 17.18 45.14 C 15.91 44.84 15.15 43.59 12.94 43.66 C 12.37 43.68 11.49 44.26 11.49 43.35 C 11.49 31.73 12.15 31.54 13.41 30.46 C 14.56 29.47 16.12 29.33 17.08 29.53 C 18.56 29.84 19.02 27.9 17.59 27.53 C 17.48 27.5 14.72 26.82 12.14 28.83 C 10.65 29.99 10.14 29.89 8.77 28.83 C 6.19 26.83 3.44 27.5 3.32 27.53 C 1.94 27.87 2.28 29.94 3.82 29.53 C 4.66 29.31 6.38 29.39 7.5 30.46 C 8.45 31.36 9.42 31.73 9.42 43.38 C 9.42 44.31 8.49 43.68 7.87 43.67 C 5.78 43.63 4.81 45.02 3.7 45.15 C 0.89 45.47 -0.33 47 0.81 50.27 C 3.1 56.85 3.66 58.48 10.4 58.48 C 17.16 58.48 17.66 56.44 19.96 50.36 C 21.29 46.85 20.01 45.81 17.18 45.14 Z M 17.77 49.55 C 17.64 49.98 17.47 50.37 17.34 50.75 C 15.93 54.76 15.5 55.97 10.4 56.13 C 5.05 55.96 4.67 54.74 3.24 50.2 L 3.04 49.56 C 2.67 48.33 2.83 47.55 3.87 47.47 C 4.76 47.41 5.5 47.04 6.11 46.65 C 7.27 45.92 8.21 46.04 8.83 46.46 C 10.27 47.45 10.66 47.37 11.98 46.46 C 13.15 45.65 14.15 46.32 14.78 46.66 C 15.37 46.99 16.05 47.36 16.86 47.46 C 17.99 47.61 18.19 48.22 17.77 49.55 Z" fill="#030000"/><path d=" M 14.67 20.12 C 14.44 20.85 13.72 21.25 12.92 21.94 C 12.86 21.99 12.84 21.95 12.83 21.92 C 12.23 20.63 11.98 20.3 12.16 19.45 C 12.54 17.63 15.26 18.19 14.67 20.12 Z" fill-rule="evenodd" clip-rule="evenodd"/><path d=" M 8.61 19.44 C 8.78 20.19 8.38 20.9 8.01 21.89 C 8 21.92 7.95 21.95 7.92 21.93 C 6.72 21.09 6.37 20.95 6.1 20.12 C 5.54 18.39 8.15 17.65 8.61 19.44 Z" fill-rule="evenodd" clip-rule="evenodd"/><path d=" M 2.41 17.67 C 2.88 18.28 2.78 19.1 2.9 20.16 C 2.91 20.22 2.86 20.22 2.84 20.21 C 1.44 19.96 1.03 19.98 0.43 19.34 C -0.91 17.92 1.2 16.11 2.41 17.67 Z" fill-rule="evenodd" clip-rule="evenodd"/><path d=" M 18.54 17.67 C 18.07 18.28 18.17 19.1 18.05 20.16 C 18.04 20.22 18.09 20.22 18.11 20.21 C 19.51 19.96 19.92 19.98 20.52 19.34 C 21.8 17.99 19.79 16.08 18.54 17.67 Z" fill-rule="evenodd" clip-rule="evenodd"/></svg>