<svg version="1.1" width="62.29" height="63.74" viewBox="0 0 62.29 63.74" xmlns="http://www.w3.org/2000/svg" xmlns:xlink="http://www.w3.org/1999/xlink" overflow="visible"><defs></defs><path d=" M 15.02 58.41 C 16.33 57.95 19.39 56.15 20.29 51.77 C 20.98 48.38 20.39 44.55 16.84 42.47 C 14.42 41.05 12.11 39.97 10.47 39.17 C 4.29 36.17 3.78 39.58 3.32 42.6 C 2.39 48.65 4.74 55.92 10.11 57.76 C 12.32 58.51 11.64 61.23 9.72 60.86 C 2.1 59.38 -1.08 49.79 0.32 40.63 C 2.47 26.64 3.84 19.88 6.98 13.98 C 10.87 6.69 17.35 8.04 18.92 12.59 C 19.97 15.65 19.79 17.74 21.01 20.55 C 22.57 24.14 22.56 26.37 23.02 29.83 C 23.38 32.53 23.57 33.22 23.57 35.65 C 23.57 39.09 22.2 41.38 22.94 45.49 C 25 56.91 17.87 60.8 15.87 61.18 C 13.85 61.56 13.21 59.05 15.02 58.41 Z M 17.07 23.66 C 15.33 24.43 13.94 25.06 10.07 25.13 C 6.82 25.19 5.66 25.95 5.15 28.68 C 4.4 32.66 5.87 32.97 7.71 34.18 C 8.78 34.89 15.13 38.28 17.53 38.76 C 18.84 39.02 20.66 38.85 20.79 34.92 C 20.81 34.42 20.33 30.44 20.14 28.75 C 19.8 25.66 19.34 22.66 17.07 23.66 Z M 9.25 15.31 C 7.75 18.26 7.29 20.4 8.45 21.16 C 10.4 22.43 14 21.66 15.32 20.41 C 17.12 18.7 16.95 16.64 16.78 15.47 C 16.35 12.54 15 11.91 14.1 11.84 C 12.11 11.68 10.42 13 9.25 15.31 Z" fill="#000100"/><path d=" M 54.41 24.25 C 54.1 22.81 52.91 21.68 50.48 22.61 C 47.74 23.66 46.19 23.9 43.21 23.92 C 40.72 23.94 39.32 25.52 39.46 27.88 C 39.63 30.75 35.92 30.71 35.73 28.01 C 35.66 26.98 35.83 25.76 36.18 24.73 C 36.42 24.02 36.29 23.63 35.47 23.6 C 31.64 23.48 30.86 25.49 30.93 27.55 C 31.03 30.43 27.39 30.63 27.24 27.65 C 27.03 23.34 30.36 19.5 36 20.09 C 45.61 21.08 50.12 19.38 52.31 15.73 C 52.66 15.14 52.74 14.42 52.5 13.62 C 52.04 12.08 50.3 12.05 48.68 10.27 C 47.51 8.97 46.95 7.51 46.95 5.46 C 46.95 2.5 49.47 0 52.46 0 C 54.46 0 57.78 1.2 57.99 5.67 C 58.08 7.59 57.44 9.04 56.74 10.04 C 55.96 11.14 55.12 11.74 55.18 13.41 C 55.26 15.61 58.11 15.19 59.04 22.59 C 60.94 37.6 61.88 40.79 60.62 43.41 C 59.51 45.7 57.76 46.99 51.62 50.7 C 49.96 51.7 46.9 53.63 44.72 55.05 C 43.21 56.03 42.29 57.08 42.32 58.34 C 42.35 59.46 43.21 59.96 45.14 59.96 C 47.67 59.96 57.72 59.63 60.03 59.5 C 62.75 59.35 63.17 63.07 60.39 63.22 C 51.53 63.69 46.28 63.83 43 63.72 C 40.98 63.65 37.99 63.19 37.41 60.31 C 36.71 56.87 38.9 53.45 41.89 51.44 C 45.15 49.25 53.16 44.03 53.99 43.47 C 57.01 41.43 56.78 40.21 56.29 36.75 C 55.46 30.84 55.27 28.27 54.41 24.25 Z" fill-rule="evenodd" clip-rule="evenodd"/></svg>