<svg version="1.1" width="43.79" height="59.85" viewBox="0 0 43.79 59.85" xmlns="http://www.w3.org/2000/svg" xmlns:xlink="http://www.w3.org/1999/xlink" overflow="visible"><defs></defs><path d=" M 6.66 7.44 C 8.76 8.41 9.76 7.96 13.44 7.19 C 13.5 7.17 13.62 7.14 13.54 6.99 C 12.21 4.51 11.63 2.4 9.88 1.37 C 7.77 0.15 5.7 1.04 4.84 2.8 C 3.87 4.79 4.82 6.59 6.66 7.44 Z" fill-rule="evenodd" clip-rule="evenodd"/><path d=" M 9.12 16.95 C 9.14 16.9 9.19 16.78 9.02 16.75 C 6.25 16.28 4.22 15.45 2.33 16.21 C 0.08 17.14 -0.48 19.31 0.39 21.07 C 1.37 23.06 3.37 23.4 5.17 22.47 C 7.23 21.41 7.48 20.34 9.12 16.95 Z" fill-rule="evenodd" clip-rule="evenodd"/><path d=" M 34.98 23.42 C 40.25 21.68 43.24 17.71 43.74 12.43 C 44.32 6.22 40.1 0.84 33.6 0.08 C 27.84 -0.59 23.24 3.08 21.68 8.21 C 21.01 10.44 21.67 12.83 24.58 12.42 C 37.49 10.59 38.81 13.8 37.87 16.34 C 36.13 21.01 29.24 21.33 24.97 17.85 C 23.64 16.77 22.77 17.84 23.25 18.73 C 23.91 19.95 24.92 20.85 25.95 21.46 C 27.97 22.66 30.6 23.46 30.18 25.08 C 29.97 25.88 29.26 26.59 28.06 28.34 C 26.03 31.29 22.95 34.32 19.14 36.59 C 16.04 38.43 18.21 41.9 21.45 39.93 C 24.5 38.08 27.35 35.9 30.59 32.66 C 31.81 31.44 33.05 30.92 34.53 33.08 C 35.1 33.91 35.55 34.64 36.22 35.69 C 38.6 39.36 38.47 40.62 36.9 44.65 C 34.92 49.73 35.1 51.79 35.62 57.71 C 35.87 60.6 39.76 60.68 39.58 57.39 C 39.41 54.1 38.99 51.97 40.03 49.13 C 41.34 45.55 42.67 42.94 42.88 40.66 C 43.1 38.15 42.51 36.46 38.64 30.79 C 36.99 28.37 35.9 27.16 35.13 26.47 C 32.98 24.53 34.18 23.68 34.98 23.42 Z" fill-rule="evenodd" clip-rule="evenodd"/></svg>