<svg version="1.1" width="41.03" height="66.39" viewBox="0 0 41.03 66.39" xmlns="http://www.w3.org/2000/svg" xmlns:xlink="http://www.w3.org/1999/xlink" overflow="visible"><defs></defs><path d=" M 37.79 24.18 C 30.52 23.8 23.23 21.75 18.83 18.27 C 17.31 17.07 16.86 16.22 17.23 14.58 C 17.47 13.49 19.05 12.7 19.82 11.75 C 20.4 11.03 20.89 10.22 21.24 9.3 C 21.52 8.58 21.98 8.45 22.6 8.64 C 26.79 9.97 30.2 11.66 30.25 11.68 C 30.39 11.75 30.55 11.79 30.7 11.79 C 31.07 11.79 31.42 11.59 31.6 11.24 C 31.85 10.75 31.65 10.15 31.15 9.9 C 30.93 9.79 27.3 8 22.87 6.63 C 22.52 6.52 21.85 6.18 21.77 5.46 C 21.68 4.71 21.92 4.58 22.73 4.84 C 26.86 6.16 30.2 7.82 30.25 7.84 C 30.39 7.91 30.55 7.95 30.7 7.95 C 31.07 7.95 31.42 7.75 31.6 7.4 C 31.85 6.91 31.65 6.31 31.15 6.06 C 30.9 5.94 26.56 3.79 21.54 2.4 C 20.56 2.13 19.85 1.64 19.27 1.22 C 18.26 0.49 17.1 0.09 16.06 0.03 C 14.99 -0.04 13.88 0.17 12.89 0.67 C 11.88 1.18 11.78 1.26 10.67 1.37 C 5.47 1.85 0.93 3.37 0.68 3.46 C 0.16 3.61 -0.12 4.18 0.05 4.7 C 0.23 5.23 0.8 5.51 1.32 5.33 C 1.37 5.31 4.76 4.18 8.94 3.58 C 9.76 3.46 10.13 3.62 9.92 4.37 C 9.67 5.31 9.75 5.29 8.59 5.46 C 4.31 6.08 0.9 7.22 0.68 7.29 C 0.16 7.47 -0.12 8.04 0.05 8.56 C 0.23 9.08 0.8 9.36 1.32 9.19 C 1.37 9.17 4.4 8.16 8.27 7.54 C 9.41 7.35 9.66 7.7 9.84 8.54 C 10.49 11.53 12.52 11.85 12.42 14.57 C 12.34 16.88 9.18 18.95 6.55 22.78 C 1.71 29.84 0.24 32.95 0.35 36.73 C 0.47 40.79 3.45 45.65 5.09 50.11 C 6.39 53.66 6.49 54.65 5.89 62.59 C 5.53 67.36 10.95 67.65 11.4 63.35 C 12.25 55.2 12.24 51.24 9.89 44.86 C 7.12 37.36 6.17 36.68 8.79 31.81 C 10.48 28.67 11.47 27.09 12.51 25.64 C 14.05 23.48 16.05 23.41 17.77 24.21 C 24.49 27.33 30.92 28.79 37.54 29.14 C 41.62 29.36 42.64 24.43 37.79 24.18 Z"/><path d=" M 36.59 48.78 C 33.02 47.07 29.94 44.61 28.24 42.07 C 26.97 40.3 26.2 39.7 26.3 38.68 C 26.37 37.96 27.2 38.14 28.23 37.04 C 28.92 36.31 29.31 35.33 29.31 34.08 C 29.31 32.14 27.63 30.64 25.84 30.64 C 24.47 30.64 22.43 31.49 22.36 34.18 C 22.29 36.83 23.93 36.79 23.87 38.55 C 23.83 39.81 22.11 40.93 20.68 43.01 C 18.05 46.85 17.25 48.53 17.31 50.59 C 17.38 52.8 19 55.44 19.88 57.86 C 20.59 59.79 20.36 63.76 20.32 64.64 C 20.21 66.74 22.94 66.81 23.13 64.85 C 23.67 59.25 23.5 58.2 22.17 54.75 C 21.25 52.38 20.36 50.36 21.78 47.71 C 21.95 47.4 22.11 47.12 22.26 46.85 L 22.27 46.86 C 22.64 46.2 22.99 46.17 23.47 46.49 C 23.9 46.77 24.86 47.04 25.5 46.64 C 25.97 46.35 26.36 45.87 26.41 45.08 C 26.43 44.75 26.6 44.54 26.87 44.84 C 29.66 47.93 32.18 49.67 35.44 51.19 C 37.48 52.18 38.61 49.75 36.59 48.78 Z" fill-rule="evenodd" clip-rule="evenodd"/></svg>