<svg version="1.1" width="60.88" height="61.54" viewBox="0 0 60.88 61.54" xmlns="http://www.w3.org/2000/svg" xmlns:xlink="http://www.w3.org/1999/xlink" overflow="visible"><defs></defs><path d=" M 59.92 24.15 C 59.92 24.15 42.55 10.91 40.05 9.09 C 37.58 7.29 36.91 6.62 36.91 2.87 C 36.91 1.28 35.62 -0.01 34.03 -0.01 C 32.44 -0.01 31.15 1.28 31.15 2.87 C 31.15 6.27 30.96 6.93 27.54 9.43 C 25.18 11.18 1.13 29.53 1.13 29.53 C -1.49 31.55 0.91 35.15 3.83 33.02 C 4.78 32.33 6.05 31.39 7.57 30.21 C 9.61 28.62 10.8 29.64 10.8 31.23 L 10.8 59.19 C 10.8 62.35 14.78 62.32 14.78 59.16 L 14.78 31.3 C 14.78 25.7 15.86 23.77 21.05 19.78 C 33.91 9.89 32.67 8.56 46.49 18.81 C 50.12 21.5 57.32 27.21 57.32 27.21 C 58.18 27.87 59.7 28.34 60.57 27 C 61.14 26.14 60.92 24.92 59.92 24.15 Z" fill="#030000"/><path d=" M 51.45 57.71 C 51.45 57.71 37.59 57.71 32.87 57.71 C 30.06 57.71 29.8 56.71 29.8 54.71 C 29.81 48.11 30.05 46.71 28.37 41.7 C 26.78 36.95 25.39 33.43 29.27 32.31 C 32.01 31.52 35.06 33.11 36.85 34.46 C 38.04 35.36 38.16 36.78 38.19 37.45 C 38.32 41.39 37.54 46.06 39.38 52.76 C 40.1 55.39 43.22 54.76 42.64 52.02 C 42.32 50.5 41.79 47.92 41.79 46.11 C 41.79 45.43 42.06 44.99 42.58 44.74 C 43.4 44.35 44.05 43.52 44.09 42.55 C 44.12 41.75 43.81 41.14 43.13 40.55 C 42.64 40.12 42.39 40.02 42.27 39.39 C 42.16 38.85 42.32 36.97 42.4 36.44 C 42.62 34.88 42.92 34.17 43.8 34.14 C 44.56 34.12 44.48 34.69 46.68 35.55 C 47.85 36.01 49.2 35.86 50.62 35.2 C 52.83 34.17 53.64 31.57 52.93 29.44 C 52.31 27.57 49.41 25.44 46.35 26.9 C 43.63 28.2 43.85 30.82 42.22 31.5 C 39.96 32.44 36.26 27.94 29.96 27.85 C 24.8 27.78 21.23 31.44 22.05 36.45 C 22.5 39.19 24.08 41.8 25.22 45.43 C 26.02 47.98 26.33 49.91 26.14 55.06 C 26.08 56.58 25.88 57.73 23.47 57.73 C 22.68 57.73 20.3 57.73 20.3 57.73 C 19.33 57.73 18.55 58.51 18.55 59.48 C 18.55 60.45 19.33 61.23 20.3 61.23 L 51.43 61.23 C 52.4 61.23 53.18 60.45 53.18 59.48 C 53.18 58.51 52.42 57.71 51.45 57.71 Z"/></svg>