<svg version="1.1" width="57" height="58.23" viewBox="0 0 57 58.23" xmlns="http://www.w3.org/2000/svg" xmlns:xlink="http://www.w3.org/1999/xlink" overflow="visible"><defs></defs><path d=" M 6.76 48.11 C 2.24 48.11 1.47 46.21 0.47 43.04 C 0.14 41.99 -0.26 40.83 0.26 40.06 C 0.73 39.37 1.64 39.26 2.28 39.19 C 3.02 39.11 3.67 38.18 5.07 38.2 C 5.83 38.21 6.32 38.58 6.65 38.82 C 6.69 38.85 6.84 38.85 6.88 38.82 C 7.21 38.57 7.71 38.22 8.46 38.2 C 9.94 38.16 10.45 38.99 11.3 39.19 C 11.94 39.34 12.87 39.48 13.31 40.22 C 13.79 41.02 13.2 42.56 12.89 43.48 C 11.89 46.27 11.29 48.11 6.76 48.11 Z M 4 40.31 C 3.6 40.56 3.13 40.8 2.56 40.84 C 1.76 40.9 1.87 41.67 2.16 42.59 C 3.08 45.51 3.33 46.3 6.76 46.4 C 10.04 46.3 10.31 45.52 11.22 42.95 C 11.56 42 11.86 40.96 10.91 40.83 C 10.39 40.76 9.95 40.52 9.57 40.31 C 9.17 40.09 8.53 39.66 7.77 40.18 C 7.51 40.36 7.2 40.61 6.75 40.61 C 6.31 40.61 6 40.36 5.74 40.18 C 5.35 39.91 4.74 39.83 4 40.31 Z" fill="#030000"/><path d=" M 21.07 29.56 L 12.04 29.56 C 11.23 29.56 10.57 30.22 10.57 31.03 C 10.57 31.84 11.23 32.5 12.04 32.5 C 12.04 32.5 15.45 32.5 16.56 32.5 C 17.28 32.5 17.64 32.89 17.64 33.59 C 17.64 37.74 17.64 45.96 17.64 51.43 C 17.64 51.95 17.4 52.13 17.31 52.22 C 17.15 52.39 17.05 52.62 17.05 52.96 L 17.05 56.74 C 17.05 57.72 17.38 58.08 18.82 58.08 C 20.33 58.08 20.59 57.72 20.59 56.74 L 20.59 52.96 C 20.59 52.64 20.5 52.41 20.35 52.25 C 20.15 52.04 20 51.95 20 51.47 C 20 45.97 20 37.62 20 33.54 C 20 32.88 20.44 32.5 21.08 32.5 C 21.93 32.5 22.55 31.84 22.55 31.03 C 22.54 30.22 21.88 29.56 21.07 29.56 Z" fill="#030000"/><path d=" M 13.57 19.67 C 9.05 19.67 8.28 17.77 7.28 14.6 C 6.95 13.55 6.55 12.39 7.07 11.61 C 7.54 10.92 8.45 10.81 9.09 10.74 C 9.83 10.66 10.48 9.73 11.88 9.75 C 12.64 9.76 13.13 10.12 13.46 10.37 C 13.49 10.4 13.65 10.4 13.69 10.37 C 14.02 10.12 14.51 9.77 15.27 9.75 C 16.75 9.71 17.26 10.54 18.11 10.74 C 18.75 10.89 19.68 11.03 20.12 11.77 C 20.6 12.57 20.01 14.11 19.69 15.03 C 18.7 17.83 18.1 19.67 13.57 19.67 Z M 10.81 11.86 C 10.41 12.11 9.94 12.35 9.37 12.39 C 8.57 12.45 8.67 13.22 8.97 14.14 C 9.89 17.06 10.14 17.85 13.57 17.95 C 16.85 17.85 17.12 17.07 18.03 14.5 C 18.37 13.55 18.67 12.51 17.72 12.38 C 17.19 12.31 16.76 12.07 16.38 11.86 C 15.98 11.64 15.33 11.21 14.58 11.73 C 14.32 11.91 14.01 12.16 13.56 12.16 C 13.12 12.16 12.81 11.91 12.55 11.73 C 12.16 11.47 11.55 11.39 10.81 11.86 Z" fill="#030000"/><path d=" M 27.88 1.11 L 18.85 1.11 C 18.04 1.11 17.38 1.77 17.38 2.58 C 17.38 3.39 18.04 4.05 18.85 4.05 C 18.85 4.05 22.26 4.05 23.37 4.05 C 24.09 4.05 24.45 4.44 24.45 5.14 C 24.45 9.29 24.45 17.51 24.45 22.98 C 24.45 23.5 24.21 23.68 24.12 23.77 C 23.96 23.94 23.86 24.17 23.86 24.51 L 23.86 28.29 C 23.86 29.27 24.19 29.63 25.63 29.63 C 27.14 29.63 27.4 29.27 27.4 28.29 L 27.4 24.51 C 27.4 24.19 27.31 23.96 27.16 23.8 C 26.96 23.59 26.81 23.5 26.81 23.02 C 26.81 17.52 26.81 9.16 26.81 5.09 C 26.81 4.43 27.25 4.05 27.89 4.05 C 28.74 4.05 29.36 3.39 29.36 2.58 C 29.35 1.77 28.69 1.11 27.88 1.11 Z" fill="#030000"/><path d=" M 48.43 22.78 C 53.56 21.09 56.47 17.22 56.95 12.09 C 57.52 6.04 53.41 0.82 47.08 0.08 C 41.48 -0.57 37 3 35.49 7.99 C 34.83 10.15 35.48 12.48 38.31 12.08 C 50.87 10.3 52.16 13.42 51.24 15.9 C 49.55 20.44 42.84 20.76 38.69 17.36 C 37.4 16.31 36.55 17.35 37.02 18.22 C 37.66 19.41 38.64 20.28 39.64 20.87 C 41.61 22.04 44.17 22.81 43.75 24.39 C 43.54 25.17 42.86 25.86 41.69 27.56 C 39.72 30.43 36.72 33.38 33.01 35.59 C 30 37.38 32.11 40.76 35.25 38.84 C 38.21 37.04 40.99 34.92 44.14 31.76 C 45.33 30.57 46.53 30.07 47.98 32.16 C 48.54 32.96 48.97 33.68 49.63 34.7 C 51.94 38.27 51.82 39.5 50.29 43.42 C 48.37 48.36 48.54 50.37 49.05 56.13 C 49.3 58.94 53.07 59.02 52.91 55.82 C 52.74 52.62 52.33 50.55 53.35 47.78 C 54.63 44.3 55.92 41.76 56.12 39.54 C 56.34 37.1 55.76 35.46 52 29.94 C 50.4 27.59 49.34 26.41 48.58 25.73 C 46.48 23.86 47.65 23.04 48.43 22.78 Z" fill-rule="evenodd" clip-rule="evenodd"/></svg>