<svg version="1.1" width="62.67" height="62.51" viewBox="0 0 62.67 62.51" xmlns="http://www.w3.org/2000/svg" xmlns:xlink="http://www.w3.org/1999/xlink" overflow="visible"><defs></defs><path d=" M 26.18 43.75 C 25.77 43.31 25.55 42.68 25.59 42.05 C 25.82 38.55 24.57 35.68 21.87 33.53 C 18.36 30.72 15.52 32.05 14.21 34.52 C 11.82 39 12.2 45.66 13.37 48.55 C 13.71 49.39 13.77 51.12 12.04 51.43 C 11.19 51.59 10.22 50.78 9.89 49.96 C 8.34 46.15 8.31 39.83 9.82 35.26 C 10.35 33.66 9.19 32.42 7.45 33.72 C 2.33 37.55 4.22 44.25 4.24 44.31 C 5.1 46.83 1.73 48.52 0.68 45.54 C -0.45 42.31 -0.95 35.03 5.26 30.65 C 10.55 26.91 16.43 29.08 18.25 24.48 C 20.39 19.06 22.19 15.86 26.38 11.36 C 28.07 9.55 30.72 11.74 29.2 13.54 C 26.18 17.12 24.39 19.7 22.85 23.57 C 21.38 27.27 22.41 28.86 24.23 30.57 C 27.92 34.03 29.63 37.98 29.36 42.27 C 29.22 44.41 27.12 44.75 26.18 43.75 Z" fill="#030000"/><path d=" M 54.94 23.79 C 54.64 22.38 53.47 21.27 51.08 22.18 C 48.4 23.21 46.88 23.45 43.95 23.47 C 41.51 23.49 40.13 25.04 40.27 27.35 C 40.44 30.17 36.8 30.13 36.61 27.47 C 36.54 26.46 36.71 25.26 37.05 24.25 C 37.29 23.56 37.16 23.17 36.36 23.15 C 32.6 23.04 31.83 25 31.9 27.02 C 32 29.84 28.43 30.04 28.28 27.12 C 28.07 22.89 31.34 19.13 36.87 19.7 C 46.3 20.67 50.71 19 52.86 15.43 C 53.2 14.85 53.28 14.15 53.05 13.36 C 52.6 11.85 50.89 11.82 49.31 10.07 C 48.16 8.8 47.61 7.36 47.61 5.35 C 47.61 2.45 50.08 4.44089e-15 53.02 4.44089e-15 C 54.98 4.44089e-15 58.24 1.17 58.45 5.56 C 58.54 7.45 57.91 8.87 57.22 9.84 C 56.45 10.92 55.63 11.51 55.69 13.14 C 55.77 15.29 58.56 14.88 59.48 22.14 C 61.34 36.86 62.27 39.99 61.03 42.55 C 59.94 44.8 58.22 46.06 52.21 49.7 C 50.58 50.69 47.58 52.57 45.44 53.97 C 43.96 54.93 43.06 55.96 43.09 57.2 C 43.12 58.29 43.97 58.78 45.85 58.78 C 48.33 58.78 58.19 58.46 60.45 58.33 C 63.12 58.18 63.53 61.83 60.8 61.98 C 52.11 62.44 46.96 62.58 43.74 62.47 C 41.76 62.4 38.83 61.95 38.25 59.13 C 37.57 55.76 39.71 52.4 42.64 50.43 C 45.84 48.28 53.69 43.16 54.5 42.62 C 57.47 40.62 57.23 39.42 56.76 36.03 C 55.97 30.24 55.78 27.72 54.94 23.79 Z" fill-rule="evenodd" clip-rule="evenodd"/></svg>