<svg version="1.1" width="50.44" height="54.46" viewBox="0 0 50.44 54.46" xmlns="http://www.w3.org/2000/svg" xmlns:xlink="http://www.w3.org/1999/xlink" overflow="visible"><defs></defs><path d=" M 5.73 6.28 C 7.71 7.2 8.66 6.77 12.14 6.05 C 12.19 6.03 12.3 6 12.23 5.85 C 10.97 3.5 10.42 1.5 8.77 0.53 C 6.77 -0.62 4.82 0.22 4 1.89 C 3.09 3.77 3.98 5.47 5.73 6.28 Z" fill-rule="evenodd" clip-rule="evenodd"/><path d=" M 9.13 18.73 C 9.17 18.69 9.26 18.61 9.12 18.51 C 6.94 17 5.53 15.48 3.61 15.37 C 1.31 15.26 -0.04 16.9 0 18.75 C 0.04 20.84 1.62 21.94 3.54 21.86 C 5.72 21.78 6.37 20.97 9.13 18.73 Z" fill-rule="evenodd" clip-rule="evenodd"/><path d=" M 4.85 45.52 C 6.41 44.29 8.53 44.53 11.26 44.21 C 11.43 44.19 11.42 44.31 11.41 44.37 C 10.79 47.98 10.84 49.06 9.21 50.61 C 7.77 51.98 5.8 52.2 4.35 50.6 C 3.06 49.19 2.99 47 4.85 45.52 Z" fill-rule="evenodd" clip-rule="evenodd"/><path d=" M 36.1 22.36 C 26.48 22.36 24.84 18.33 22.7 11.56 C 22 9.33 21.14 6.85 22.26 5.2 C 23.25 3.74 25.19 3.49 26.55 3.34 C 28.13 3.16 29.51 1.18 32.5 1.24 C 34.11 1.27 35.17 2.04 35.87 2.57 C 35.95 2.63 36.28 2.63 36.36 2.57 C 37.06 2.04 38.11 1.29 39.73 1.24 C 42.89 1.15 43.97 2.92 45.78 3.35 C 47.14 3.67 49.12 3.97 50.07 5.53 C 51.1 7.23 49.85 10.52 49.16 12.46 C 47.03 18.45 45.75 22.36 36.1 22.36 Z M 30.22 5.75 C 29.38 6.28 28.37 6.79 27.15 6.88 C 25.44 7 25.67 8.65 26.29 10.61 C 28.25 16.82 28.78 18.51 36.09 18.73 C 43.07 18.51 43.66 16.85 45.59 11.37 C 46.3 9.36 46.96 7.13 44.93 6.86 C 43.81 6.71 42.89 6.2 42.08 5.76 C 41.23 5.29 39.85 4.38 38.25 5.49 C 37.69 5.88 37.03 6.41 36.09 6.41 C 35.15 6.41 34.49 5.87 33.93 5.49 C 33.1 4.91 31.8 4.74 30.22 5.75 Z" fill="#030000"/><path d=" M 23.77 37.15 C 22.52 41 22.07 47.69 22.49 52.53 C 22.71 55.06 26.78 55.31 26.74 52.04 C 26.71 49.55 26.57 44.57 27.39 40.24 C 27.98 37.17 30.28 32.41 32.58 31.03 C 34.38 29.95 36.61 30.64 36.46 32.74 C 36.3 34.95 36.27 37.86 36.03 40.64 C 35.55 46.29 39.4 49.56 46.09 53.88 C 49.26 55.93 51.2 52.07 48.59 50.57 C 44.45 47.8 40.03 45.54 40.34 40 C 40.5 37.05 40.73 34.99 40.99 31.98 C 41.53 25.79 31.42 23.13 26.48 31.23 C 25.43 32.94 24.48 34.96 23.77 37.15 Z" fill-rule="evenodd" clip-rule="evenodd"/></svg>