<svg version="1.1" width="38.79" height="51.52" viewBox="0 0 38.79 51.52" xmlns="http://www.w3.org/2000/svg" xmlns:xlink="http://www.w3.org/1999/xlink" overflow="visible"><defs></defs><path d=" M 16.52 23.1 C 9.55 23.1 8.36 20.18 6.81 15.27 C 6.3 13.66 5.68 11.86 6.49 10.66 C 7.21 9.61 8.61 9.44 9.6 9.32 C 10.74 9.19 11.75 7.76 13.91 7.8 C 15.08 7.82 15.84 8.38 16.35 8.76 C 16.4 8.8 16.65 8.8 16.7 8.76 C 17.21 8.38 17.97 7.83 19.14 7.8 C 21.43 7.74 22.21 9.02 23.53 9.33 C 24.52 9.56 25.95 9.78 26.64 10.91 C 27.39 12.14 26.48 14.53 25.98 15.93 C 24.44 20.27 23.51 23.1 16.52 23.1 Z M 12.26 11.07 C 11.65 11.45 10.92 11.82 10.04 11.89 C 8.8 11.98 8.97 13.17 9.42 14.6 C 10.84 19.1 11.22 20.32 16.52 20.48 C 21.58 20.32 22 19.12 23.41 15.15 C 23.93 13.69 24.4 12.08 22.94 11.88 C 22.13 11.77 21.46 11.41 20.87 11.08 C 20.25 10.74 19.26 10.08 18.1 10.88 C 17.69 11.16 17.22 11.55 16.53 11.55 C 15.85 11.55 15.38 11.16 14.97 10.88 C 14.35 10.47 13.41 10.34 12.26 11.07 Z" fill="#030000"/><path d=" M 2.76 9.24 L 9.15 2.85 C 10.97 1.01 8.8 -1.13 6.98 0.7 L 0.59 7.09 C 0.12 7.56 0.02 9.02 0 9.61 C -0.01 9.76 0.06 9.86 0.17 9.86 C 0.7 9.84 2.27 9.74 2.76 9.24 Z" fill="#030000"/><path d=" M 30.25 9.24 L 23.86 2.85 C 22.13 1.1 24.3 -1.05 26.03 0.7 L 32.42 7.09 C 32.89 7.57 32.99 9.03 33.01 9.62 C 33.02 9.77 32.95 9.87 32.84 9.87 C 32.31 9.84 30.74 9.74 30.25 9.24 Z" fill="#030000"/><path d=" M 4.3 35.27 C 2.44 38.57 0.81 44.52 0.29 49.04 C 0.02 51.41 3.71 52.39 4.28 49.38 C 4.71 47.09 5.49 42.59 7.05 38.78 C 8.16 36.07 11.24 32.35 13.52 31.29 C 16.53 29.88 20.62 30.71 21.82 35.11 C 22.37 37.11 22.94 39.78 23.42 42.34 C 24.41 47.56 28.58 49.13 35.71 51.34 C 39.09 52.39 39.87 48.42 37.14 47.73 C 32.71 46.27 28.27 45.75 27.16 40.67 C 26.57 37.97 26.35 37.04 25.72 34.28 C 23.99 26.75 15.56 23.29 8.06 30.33 C 6.69 31.63 5.36 33.39 4.3 35.27 Z" fill-rule="evenodd" clip-rule="evenodd"/></svg>