<svg version="1.1" width="58.65" height="59.07" viewBox="0 0 58.65 59.07" xmlns="http://www.w3.org/2000/svg" xmlns:xlink="http://www.w3.org/1999/xlink" overflow="visible"><defs></defs><path d=" M 56.68 33.9 L 55.84 36.65 C 55.01 39.37 53.69 40.75 51.92 40.75 C 50.37 40.75 50.27 40.21 50.72 39.27 C 50.96 38.77 51.16 38.23 51.33 37.65 C 51.95 35.52 49.06 34.69 48.45 36.82 C 47.62 39.69 46.81 42.49 34.83 42.49 L 23.83 42.49 C 11.85 42.49 11.04 39.69 10.21 36.82 C 9.58 34.62 6.69 35.46 7.33 37.65 C 7.47 38.15 7.65 38.62 7.85 39.06 C 8.12 39.67 8.28 40.74 6.74 40.74 C 4.97 40.74 3.65 39.36 2.82 36.64 L 1.96 33.9 C 1.58 32.66 -0.33 33.24 0.05 34.48 L 0.89 37.23 C 2.28 41.79 4.83 42.75 6.72 42.75 C 6.72 42.75 7.55 42.75 8.16 42.75 C 9.59 42.75 10.07 43.04 11.25 43.53 C 14.13 44.72 16.72 45.42 21.96 45.48 C 23.46 45.48 24.03 45.99 24.14 46.1 C 24.89 46.85 24.88 48.21 24.88 50.48 C 24.88 53.63 24.35 54.87 23.42 55.54 C 23.11 55.76 22.01 56.07 21.21 56.07 C 19.76 56.07 15.41 56.07 15.41 56.07 C 13.26 56.07 13.26 59.07 15.41 59.07 L 29.82 59.07 L 43.23 59.07 C 45.69 59.07 45.69 56.07 43.23 56.07 C 43.23 56.07 38.91 56.07 37.46 56.07 C 36.13 56.07 35.43 55.72 35.09 55.44 C 34.24 54.75 33.76 53.48 33.76 50.48 C 33.76 48.34 33.76 46.85 34.5 46.1 C 34.61 45.99 35.35 45.49 36.68 45.48 C 41.61 45.45 44.25 44.71 46.91 43.76 C 48.11 43.33 48.97 42.76 50.84 42.76 C 51.36 42.76 51.93 42.76 51.93 42.76 C 53.82 42.76 56.37 41.8 57.76 37.24 L 58.6 34.49 C 59 33.13 57.09 32.55 56.68 33.9 Z M 27.75 56.07 C 27.24 56.07 27.04 55.73 27.22 55.26 C 27.69 54.02 27.89 52.47 27.89 50.48 C 27.89 50.48 27.89 47.58 27.53 46.28 C 27.46 46.01 27.55 45.49 28.17 45.49 C 28.58 45.49 30.05 45.49 30.46 45.49 C 31.16 45.49 31.18 46.05 31.1 46.34 C 30.76 47.62 30.76 49.44 30.76 50.48 C 30.76 52.5 30.97 54.08 31.46 55.33 C 31.66 55.86 31.5 56.07 31.02 56.07 C 30.46 56.07 28.26 56.07 27.75 56.07 Z"/><path d=" M 37.97 15.57 C 41.48 14.41 43.47 11.77 43.8 8.26 C 44.19 4.13 41.38 0.56 37.06 0.05 C 33.23 -0.4 30.17 2.04 29.14 5.45 C 28.69 6.93 29.13 8.52 31.06 8.25 C 39.64 7.03 40.52 9.17 39.89 10.86 C 38.74 13.96 34.15 14.18 31.32 11.86 C 30.44 11.14 29.86 11.85 30.17 12.45 C 30.61 13.26 31.28 13.86 31.96 14.26 C 33.3 15.06 35.05 15.59 34.77 16.67 C 34.63 17.2 34.16 17.67 33.36 18.84 C 32.01 20.8 29.96 22.81 27.43 24.32 C 25.37 25.55 26.81 27.85 28.97 26.54 C 31 25.31 32.89 23.86 35.05 21.7 C 35.86 20.89 36.68 20.55 37.67 21.98 C 38.05 22.53 38.34 23.02 38.8 23.71 C 40.38 26.15 40.29 26.99 39.25 29.67 C 37.94 33.05 38 34.34 38.4 37.35 C 38.65 39.26 41.31 38.94 41.01 36.98 C 40.72 35.07 40.64 34.54 41.34 32.65 C 42.21 30.27 43.13 28.66 43.13 27.14 C 43.13 25.34 42.99 24.23 40.42 20.46 C 39.32 18.85 38.6 18.05 38.08 17.58 C 36.64 16.31 37.44 15.75 37.97 15.57 Z" fill-rule="evenodd" clip-rule="evenodd"/><path d=" M 16.9 8.86 C 18.65 9.67 19.49 9.29 22.56 8.65 C 22.61 8.64 22.71 8.61 22.64 8.48 C 21.53 6.41 21.05 4.65 19.59 3.79 C 17.83 2.77 16.11 3.52 15.39 4.99 C 14.58 6.65 15.36 8.15 16.9 8.86 Z" fill-rule="evenodd" clip-rule="evenodd"/><path d=" M 18.95 16.79 C 18.97 16.75 19.01 16.65 18.86 16.62 C 16.55 16.23 14.86 15.54 13.28 16.17 C 11.4 16.94 10.94 18.76 11.66 20.23 C 12.48 21.89 14.14 22.18 15.65 21.4 C 17.37 20.51 17.58 19.62 18.95 16.79 Z" fill-rule="evenodd" clip-rule="evenodd"/></svg>