<svg version="1.1" width="49.49" height="57.72" viewBox="0 0 49.49 57.72" xmlns="http://www.w3.org/2000/svg" xmlns:xlink="http://www.w3.org/1999/xlink" overflow="visible"><defs></defs><path d=" M 13.73 42.03 C 12.05 45.33 10.7 51.2 10.38 55.63 C 10.21 57.95 13.86 58.76 14.29 55.8 C 14.62 53.55 15.19 49.13 16.56 45.34 C 17.53 42.65 20.39 38.9 22.57 37.76 C 25.45 36.27 29.48 36.91 30.83 41.14 C 31.45 43.07 32.11 45.49 32.69 47.97 C 33.86 53.02 38 54.38 45.05 56.25 C 48.39 57.14 48.89 53.56 46.29 52.67 C 38.98 50.15 37.26 49.86 36.26 46.19 C 35.55 43.59 35.32 42.85 34.59 40.18 C 32.6 32.91 24.23 29.86 17.2 37.05 C 15.92 38.38 14.69 40.15 13.73 42.03 Z" fill-rule="evenodd" clip-rule="evenodd"/><g><path d=" M 16.1 9.01 C 16.03 9.98 16.34 10.89 16.93 11.57 C 18.36 13.24 19.55 12.05 20.73 11.14 C 22.02 10.13 23.25 11.71 21.96 12.72 C 20.39 13.94 20.08 14.48 19.91 15.97 C 19.62 18.51 21.44 20.81 23.97 21.1 C 26.5 21.39 28.81 19.57 29.1 17.03 L 30.56 4.43 C 30.85 1.98 27.57 1.6 27.29 4.05 C 27.29 4.05 27.09 5.76 27.03 6.33 C 26.97 6.78 26.81 7.08 26.15 7 C 25.9 6.97 25.4 6.91 25.15 6.88 C 24.4 6.79 24.32 6.43 24.37 5.97 C 24.48 4.99 24.82 2.04 24.82 2.04 C 25.11 -0.41 21.83 -0.79 21.55 1.66 C 21.55 1.66 21.21 4.62 21.09 5.61 C 21.02 6.22 20.5 6.16 20.24 6.11 C 19.43 5.97 19 4.78 19.11 3.82 C 19.4 1.37 16.12 0.99 15.84 3.44 C 15.74 4.29 15.85 5.11 16.1 5.87 C 16.66 7.56 16.18 7.99 16.1 9.01 Z" fill="#030000"/><path d=" M 47.54 25.1 L 1.81 25.1 C -0.6 25.1 -0.6 28.25 1.81 28.25 L 47.54 28.25 C 50.14 28.25 50.14 25.1 47.54 25.1 Z" fill="#030000"/></g></svg>