<svg version="1.1" width="51.89" height="52.99" viewBox="0 0 51.89 52.99" xmlns="http://www.w3.org/2000/svg" xmlns:xlink="http://www.w3.org/1999/xlink" overflow="visible"><defs></defs><path d=" M 49.46 48.13 L 49.46 48.13 C 45.34 48.13 45.28 47.04 44.17 43.87 C 41.33 35.68 37.64 30.87 32.6 25.83 C 31.27 24.5 29.04 22.74 29.04 20.9 C 29.04 19.53 29.29 18.49 31.55 18.59 C 35.14 18.75 41.65 20.45 46.21 22.16 C 49.29 23.31 50.58 19.76 47.84 18.58 C 43.97 16.9 37.79 15.03 28.89 14.03 C 27.39 13.86 26.77 11.76 28.67 10.88 C 30.18 10.18 31.76 8.27 31.73 5.81 C 31.7 2.62 29.45 0 25.94 0 C 22.43 0 20.18 2.62 20.14 5.79 C 20.11 8.25 21.68 10.16 23.2 10.86 C 25.11 11.74 24.48 13.84 22.98 14.01 C 14.08 15.02 7.9 16.88 4.03 18.56 C 1.29 19.75 2.59 23.3 5.66 22.14 C 10.22 20.43 16.73 18.73 20.32 18.57 C 22.57 18.47 22.83 19.52 22.83 20.88 C 22.83 22.72 20.6 24.48 19.27 25.81 C 14.23 30.85 10.55 35.67 7.7 43.85 C 6.6 47.03 6.53 48.11 2.41 48.11 C 1.09 48.13 0 49.22 0 50.56 C 0 51.9 1.09 52.99 2.43 52.99 L 2.43 52.99 L 49.47 52.99 C 50.81 52.99 51.9 51.9 51.9 50.56 C 51.89 49.22 50.8 48.13 49.46 48.13 Z M 36.85 48.13 L 15.04 48.13 C 12.75 48.13 12.01 47.47 12.45 45.84 C 16.03 35.5 21.5 29.11 25.94 29.05 C 30.38 29.11 35.85 35.5 39.43 45.84 C 39.88 47.47 39.13 48.13 36.85 48.13 Z"/></svg>