<svg version="1.1" width="58.34" height="58.87" viewBox="0 0 58.34 58.87" xmlns="http://www.w3.org/2000/svg" xmlns:xlink="http://www.w3.org/1999/xlink" overflow="visible"><defs></defs><path d=" M 27.82 39.31 L 27.82 36.46 C 27.82 35.99 27.53 35.65 27.18 35.38 C 26.92 35.17 26.71 35.18 26.61 34.18 C 26.06 28.13 21.01 23.37 14.83 23.37 C 8.65 23.37 3.64 28.14 3.05 34.18 C 2.98 34.89 2.92 35.11 2.5 35.37 C 2.13 35.6 1.85 35.98 1.85 36.45 L 1.85 39.3 C 1.85 43.5 3.87 47.16 6.87 49.63 C 8.13 50.67 7.78 51.46 7.54 52.04 C 7.04 53.27 5.59 56.98 5.59 56.98 C 5.25 57.85 5.61 58.67 6.74 58.67 L 22.94 58.67 C 23.87 58.67 24.47 57.96 24.09 56.98 C 24.09 56.98 22.67 53.35 22.18 52.14 C 21.81 51.23 21.81 50.44 22.76 49.66 C 25.79 47.23 27.82 43.53 27.82 39.31 Z M 6.27 33.89 C 6.74 29.58 10.4 26.21 14.83 26.21 C 19.26 26.21 22.92 29.58 23.39 33.89 C 23.42 34.19 23.38 34.85 22.41 34.85 C 18.62 34.85 11.05 34.85 7.27 34.85 C 6.28 34.84 6.24 34.19 6.27 33.89 Z M 19.93 56.21 C 17.37 56.21 12.25 56.21 9.69 56.21 C 9.12 56.21 8.64 55.97 9.01 55.04 C 9.22 54.52 9.67 53.37 9.99 52.54 C 10.24 51.91 10.48 51.68 11.32 51.92 C 13.43 52.53 16.31 52.48 18.18 51.97 C 19.06 51.73 19.4 51.83 19.68 52.54 C 20 53.37 20.46 54.52 20.67 55.03 C 20.88 55.59 20.62 56.21 19.93 56.21 Z M 14.83 49.6 C 9.36 49.6 4.92 45.1 4.92 39.57 C 4.92 38.11 5.52 37.48 6.75 37.48 C 10.94 37.48 18.47 37.48 22.66 37.48 C 24.16 37.48 24.75 38.23 24.75 39.57 C 24.74 45.1 20.29 49.6 14.83 49.6 Z" fill="#030000"/><path d=" M 27.68 13.36 C 26.92 13.03 21.75 11.05 18.92 10.17 C 17.61 9.77 16.22 10.81 14.69 10.79 C 13.12 10.76 12.18 9.72 10.67 10.17 C 8.32 10.88 2.91 13.05 1.79 13.45 C 0.14 14.04 -0.85 11.76 1 11.01 C 1.87 10.66 7.43 8.49 10.02 7.67 C 11.66 7.15 12.71 7.61 13.53 7.92 C 14.49 8.29 15.44 8.11 15.86 7.93 C 16.6 7.6 17.63 7.06 19.34 7.6 C 21.95 8.43 27.76 10.64 28.67 11.01 C 30.58 11.79 29.42 14.11 27.68 13.36 Z"/><path d=" M 14.62 17.02 C 10.26 17.02 6.94 16 6.8 15.96 C 4.85 15.36 5.62 12.9 7.56 13.5 C 7.59 13.51 10.66 14.44 14.61 14.44 C 18.56 14.44 21.63 13.51 21.66 13.5 C 23.78 12.84 24.55 15.3 22.42 15.96 C 22.3 16.01 18.98 17.02 14.62 17.02 Z"/><path d=" M 49.66 23.04 C 54.84 21.33 57.79 17.42 58.28 12.23 C 58.86 6.12 54.7 0.83 48.31 0.08 C 42.64 -0.58 38.12 3.03 36.59 8.07 C 35.93 10.26 36.58 12.61 39.44 12.21 C 52.14 10.41 53.44 13.57 52.51 16.07 C 50.8 20.66 44.02 20.98 39.82 17.55 C 38.51 16.48 37.65 17.53 38.13 18.41 C 38.78 19.61 39.77 20.49 40.78 21.09 C 42.77 22.27 45.36 23.05 44.94 24.65 C 44.73 25.43 44.04 26.14 42.86 27.86 C 40.86 30.76 37.83 33.74 34.09 35.98 C 31.05 37.79 33.18 41.21 36.36 39.27 C 39.36 37.45 42.16 35.31 45.35 32.12 C 46.55 30.92 47.77 30.41 49.23 32.53 C 49.79 33.34 50.23 34.06 50.9 35.09 C 53.24 38.7 53.11 39.94 51.57 43.91 C 49.63 48.91 49.8 50.93 50.31 56.76 C 50.56 59.6 54.38 59.68 54.21 56.45 C 54.04 53.22 53.63 51.12 54.65 48.32 C 55.94 44.8 57.29 42.41 57.29 40.17 C 57.29 37.51 57.09 35.86 53.28 30.29 C 51.66 27.91 50.59 26.72 49.82 26.04 C 47.7 24.13 48.88 23.3 49.66 23.04 Z" fill-rule="evenodd" clip-rule="evenodd"/></svg>