<svg width="64.14" height="60.97" viewBox="0 0 64.14 60.97" xmlns="http://www.w3.org/2000/svg" xmlns:xlink="http://www.w3.org/1999/xlink" overflow="visible"><defs></defs><g><path d="M18.63 14.49C17.62 15.58 17.83 16.7 18.65 17.45 19.54 18.25 20.81 17.89 21.25 17.4 21.96 16.6 22.01 15.52 21.4 14.74 20.76 13.92 19.34 13.75 18.63 14.49Z" fill="#030000"/><path d="M30.9 26.84C32.06 26.73 38.53 25.47 42.87 24.35 45.62 23.64 44.39 20.31 41.96 20.92 36.72 22.24 27.63 23.89 22.2 22.81 20.97 22.56 19.93 21.73 19.49 20.34 18.9 18.5 17.45 17.41 16.11 16.71 15.57 16.43 15.33 15.37 16.35 14.36 17.82 12.9 18.97 12.53 20.73 12.79 22.8 13.09 23.68 15.08 23.78 15.53 24.12 17.16 23.27 18.27 22.8 18.71 22.11 19.35 22.06 20.44 22.7 21.14 23.11 21.58 24.42 21.89 25.13 21.23 26.63 19.83 27.73 17.65 27.13 14.82 26.91 13.76 26.24 12.1 24.35 10.9L24.35 10.9C23.87 10.63 24.19 10.28 24.19 10.28L24.19 10.28C25.24 9.44 25.81 8.57 25.86 8.5 26.2 7.96 26.04 7.25 25.51 6.9 24.97 6.55 24.25 6.71 23.9 7.25 23.88 7.27 22.45 9.45 20 9.54 19.94 9.54 19.87 9.55 19.81 9.57 19.51 9.57 19.22 9.59 18.93 9.63L18.93 9.62C18.4 9.64 18.31 9.41 18.31 9.24 18.32 9.19 18.32 9.15 18.33 9.1 18.33 9.1 18.34 9.09 18.34 9.09L18.34 9.09C18.5 7.94 18.38 7.08 18.37 7 18.28 6.37 17.69 5.93 17.05 6.02 16.41 6.11 15.98 6.7 16.07 7.34 16.07 7.37 16.41 9.94 14.64 11.62 14.51 11.74 14.38 11.86 14.27 11.98 13.08 13.25 12.13 15.37 11.88 19.19 11.85 19.67 12.06 19.88 12.46 19.37 14.11 17.25 16.71 20.26 16.52 23.56 16.44 24.93 15.94 26.23 15.28 27.73 14.26 30.02 13.22 32.61 13.58 36.28 14.66 47.1 20.75 50.71 26.33 54.37 28.92 56.07 31.6 57.82 33.81 60.29 34.43 60.99 35.62 61.31 36.48 60.55 37.18 59.92 37 58.71 36.37 58 34.76 56.2 33 54.78 31.21 53.51 29.85 52.54 28.51 51.43 28.03 49.72 27.75 48.75 27.59 47.62 27.48 46.39 27.25 43.63 27.68 43.04 30.76 42.45 33.08 42.01 35.42 41.18 37.51 39.76 38.3 39.23 38.5 38.16 37.97 37.37 37.43 36.58 36.37 36.38 35.58 36.91 33.89 38.07 31.94 38.74 29.99 39.09 27.84 39.48 27.4 39.12 27.42 37.26 27.45 35.42 28.33 35.1 29.83 34.83 33.12 34.22 36.77 33.83 40.18 32.27 41.04 31.88 41.45 30.88 41.08 30.01 40.7 29.14 39.71 28.79 38.82 29.11 34.16 30.78 31.5 31.27 30.04 31.34 28.91 31.4 27.4 31.46 27.07 29.32 26.84 27.78 28.56 27.06 30.9 26.84ZM23.98 45.28C24.1 47.73 23.5 48.31 21.86 46.62 21.23 45.98 20.65 45.28 20.12 44.52 19.17 43.15 19.48 42.3 21.16 42.54 23.54 42.88 23.87 42.93 23.98 45.28ZM24 37.04C23.98 38.79 23.75 39.41 21.75 39.13 21.06 39.03 20.45 38.93 19.93 38.83 17.97 38.44 17.31 37.82 17.07 36.34 16.81 34.62 17.77 34.33 19.27 34.54 19.98 34.64 20.86 34.75 21.89 34.83 23.74 34.97 24.03 35.24 24 37.04ZM23.71 29.94C23.92 31.38 23.14 31.46 22.38 31.41 21.15 31.32 20.15 31.2 19.44 31.09 18.27 30.92 17.92 30.27 18.44 29.11 18.74 28.43 19.05 27.74 19.3 27.03 19.7 25.92 20.18 25.9 21.21 26.11 22.8 26.45 22.94 26.89 23.26 27.87 23.45 28.49 23.6 29.19 23.71 29.94Z" fill="#030000"/></g><path d="M56.92 23C61.24 21.57 63.69 18.32 64.1 14 64.58 8.91 61.12 4.5 55.79 3.88 51.07 3.33 47.3 6.34 46.02 10.54 45.47 12.36 46.01 14.32 48.39 13.99 58.96 12.49 60.05 15.12 59.28 17.2 57.86 21.02 52.21 21.29 48.71 18.43 47.62 17.54 46.91 18.42 47.3 19.15 47.84 20.15 48.67 20.89 49.51 21.38 51.17 22.36 53.32 23.02 52.97 24.35 52.8 25 52.22 25.59 51.24 27.02 49.58 29.44 47.05 31.92 43.93 33.78 41.4 35.29 43.17 38.13 45.82 36.52 48.32 35 50.65 33.22 53.31 30.56 54.31 29.56 55.32 29.14 56.54 30.9 57.01 31.58 57.37 32.18 57.93 33.04 59.88 36.05 59.77 37.08 58.48 40.38 56.86 44.54 57.01 46.23 57.43 51.08 57.64 53.45 60.82 53.02 60.68 50.82 60.51 48.13 60.2 46.38 61.05 44.05 62.13 41.12 63.25 39.13 63.25 37.26 63.25 35.05 63.08 33.67 59.91 29.03 58.56 27.05 57.67 26.06 57.03 25.49 55.28 23.91 56.26 23.22 56.92 23Z" fill-rule="evenodd" clip-rule="evenodd"/><g><path d="M8.58 0.04 3.3 0.04C1.48 0.04 0 1.52 0 3.34L0 8.49C0 10.31 1.48 11.8 3.3 11.8L8.57 11.8C10.39 11.8 11.87 10.32 11.87 8.49L11.87 3.34C11.88 1.52 10.4 0.04 8.58 0.04ZM10.43 8.49C10.43 9.51 9.6 10.34 8.58 10.34L3.3 10.34C2.28 10.34 1.45 9.51 1.45 8.49L1.45 3.34C1.45 2.32 2.28 1.49 3.3 1.49L8.57 1.49C9.59 1.49 10.42 2.32 10.42 3.34L10.42 8.49Z" fill="#030000"/></g><g><path d="M36.74 0 31.47 0C29.65 0 28.17 1.48 28.17 3.31L28.17 8.46C28.17 10.28 29.65 11.77 31.47 11.77L36.74 11.77C38.56 11.77 40.04 10.29 40.04 8.46L40.04 3.31C40.05 1.48 38.56 0 36.74 0ZM38.59 8.46C38.59 9.48 37.76 10.31 36.74 10.31L31.47 10.31C30.45 10.31 29.62 9.48 29.62 8.46L29.62 3.31C29.62 2.29 30.45 1.46 31.47 1.46L36.74 1.46C37.76 1.46 38.59 2.29 38.59 3.31L38.59 8.46Z" fill="#030000"/></g></svg>