<svg version="1.1" width="61.59" height="61.69" viewBox="0 0 61.59 61.69" xmlns="http://www.w3.org/2000/svg" xmlns:xlink="http://www.w3.org/1999/xlink" overflow="visible"><defs></defs><path d=" M 41.15 25.63 C 41.15 27.28 39.82 28.61 38.17 28.61 C 36.52 28.61 35.19 27.28 35.19 25.63 C 35.19 23.98 36.52 22.65 38.17 22.65 C 39.82 22.64 41.15 23.98 41.15 25.63 Z" fill-rule="evenodd" clip-rule="evenodd"/><path d=" M 28.9 36.29 C 30.85 35.68 33.16 35.51 34.58 35.91 C 36.12 36.35 36.4 37.18 36.4 39.13 C 36.4 41.25 36.55 42.28 35.1 44.37 C 33.98 45.98 32.52 47.74 31.52 50.83 C 30.78 53.13 30.51 57.05 30.76 59.93 C 30.89 61.44 33.32 61.59 33.29 59.64 C 33.27 58.16 33.19 55.26 33.68 52.67 C 34.03 50.84 35.4 48 36.77 47.17 C 37.85 46.53 39.17 46.94 39.08 48.19 C 38.98 49.51 38.97 51.24 38.83 52.9 C 38.54 56.27 40.86 58.15 44.85 60.73 C 46.74 61.95 47.9 59.65 46.34 58.76 C 43.87 57.11 41.22 55.83 41.4 52.52 C 41.5 50.77 41.62 49.53 41.79 47.74 C 42.13 44.12 41.56 43.08 40.92 37.73 C 40.78 36.48 41.04 35.81 43.05 36.18 C 44.38 36.42 45.83 36.58 47.48 36.64 C 49.06 36.7 49.19 34.4 47.69 34.29 C 45.16 34.11 43.37 33.67 40.79 33.09 C 39.88 32.89 39.72 32.51 39.57 32.06 C 39.38 31.49 38.81 31.16 38.02 31.18 C 37.09 31.2 36.56 31.73 36.48 32.42 C 36.41 32.94 35.98 33.25 35.34 33.23 C 33.26 33.15 30.51 33.36 28.22 34.15 C 26.71 34.69 27.38 36.76 28.9 36.29 Z" fill-rule="evenodd" clip-rule="evenodd"/><path d=" M 60.98 20.49 C 60.98 20.49 43.99 7.53 42.26 6.28 C 40.55 5.04 40.09 4.58 40.09 1.99 C 40.09 0.89 39.2 0 38.1 0 C 37 0 36.11 0.89 36.11 1.99 C 36.11 4.34 35.98 4.79 33.61 6.53 C 31.98 7.73 15.37 20.4 15.37 20.4 C 14.68 20.93 14.55 21.92 15.08 22.61 C 15.43 23.06 16.41 23.53 17.29 22.89 C 17.95 22.41 19.27 21.39 20.31 20.57 C 21.29 19.81 21.73 20.15 21.73 21.25 L 21.73 60.06 C 21.73 60.94 22.44 61.65 23.32 61.65 C 24.2 61.65 24.91 60.94 24.91 60.06 L 24.91 21.26 C 24.91 17.8 26.04 16.13 29.62 13.38 C 37.94 6.98 37.94 6.98 46.56 13.38 C 50.19 16.07 51.27 17.81 51.27 21.26 L 51.27 60.07 C 51.27 60.95 51.98 61.66 52.86 61.66 C 53.74 61.66 54.45 60.95 54.45 60.07 L 54.45 21.26 C 54.45 20.25 55.06 19.93 55.97 20.62 C 56.74 21.21 59.04 22.99 59.04 22.99 C 59.33 23.21 59.66 23.32 60 23.32 C 60.47 23.32 60.94 23.11 61.26 22.71 C 61.79 22.02 61.67 21.03 60.98 20.49 Z" fill="#030000"/><path d=" M 18.42 59.11 C 16.8 59.11 16.55 58.79 16.79 57.42 C 17.01 56.16 17.25 54.82 17.36 54.11 C 17.61 52.53 16.9 51.18 14.64 51.18 L 12.34 51.18 C 11.01 51.18 10.48 50.89 10.74 49.45 C 10.95 48.29 11.2 46.85 11.31 46.16 C 11.56 44.57 10.96 43.53 9.09 43.53 L 4.89 43.53 C 3.08 43.53 2.77 42.87 2.77 41.34 L 2.77 7.89 C 2.77 7.13 2.15 6.51 1.39 6.51 C 0.62 6.51 0 7.13 0 7.89 L 0 60.29 C 0 61.02 0.65 61.69 1.3 61.69 L 18.47 61.69 C 20.24 61.69 20.3 59.11 18.42 59.11 Z M 5.05 46.29 L 6.17 46.29 C 8.03 46.29 8.32 47.07 8.11 48.41 C 8.02 48.95 7.83 50.07 7.67 50.98 C 7.24 53.39 8.53 53.95 10.28 53.95 L 12.72 53.95 C 14.07 53.95 14.48 54.42 14.25 55.86 C 14.2 56.14 14.14 56.56 14.05 57.03 C 13.77 58.66 13.22 59.11 11.41 59.11 L 4.68 59.11 C 2.9 59.11 2.75 58.62 2.75 57.1 L 2.75 48.38 C 2.75 46.81 3.38 46.29 5.05 46.29" fill="#030000"/></svg>