<svg version="1.1" width="55" height="58.66" viewBox="0 0 55 58.66" xmlns="http://www.w3.org/2000/svg" xmlns:xlink="http://www.w3.org/1999/xlink" overflow="visible"><defs></defs><path d=" M 13.77 33.93 C 4.57 33.93 2.99 30.07 0.94 23.59 C 0.27 21.45 -0.56 19.08 0.51 17.5 C 1.46 16.1 3.31 15.87 4.61 15.72 C 6.12 15.55 7.45 13.66 10.31 13.71 C 11.85 13.74 12.86 14.47 13.53 14.98 C 13.6 15.03 13.92 15.03 13.99 14.98 C 14.66 14.47 15.67 13.75 17.21 13.71 C 20.23 13.63 21.26 15.32 23 15.73 C 24.3 16.04 26.19 16.32 27.1 17.82 C 28.09 19.45 26.89 22.6 26.23 24.45 C 24.23 30.19 23 33.93 13.77 33.93 Z M 8.14 18.03 C 7.34 18.54 6.37 19.02 5.2 19.11 C 3.56 19.23 3.78 20.8 4.38 22.68 C 6.25 28.63 6.76 30.23 13.76 30.45 C 20.44 30.24 21 28.65 22.85 23.41 C 23.53 21.49 24.16 19.36 22.22 19.1 C 21.15 18.96 20.27 18.47 19.49 18.04 C 18.67 17.59 17.36 16.72 15.82 17.78 C 15.29 18.15 14.65 18.66 13.75 18.66 C 12.85 18.66 12.22 18.15 11.69 17.78 C 10.9 17.23 9.66 17.07 8.14 18.03 Z" fill="#030000"/><path d=" M 46.33 23.04 C 51.52 21.33 54.46 17.42 54.95 12.23 C 55.53 6.12 51.37 0.83 44.98 0.08 C 39.3 -0.58 34.78 3.03 33.25 8.07 C 32.59 10.26 33.24 12.61 36.1 12.21 C 48.79 10.41 50.1 13.57 49.17 16.07 C 47.46 20.66 40.68 20.98 36.48 17.55 C 35.17 16.48 34.31 17.53 34.79 18.41 C 35.44 19.61 36.43 20.49 37.44 21.09 C 39.43 22.27 42.02 23.05 41.6 24.65 C 41.39 25.43 40.7 26.14 39.52 27.86 C 37.52 30.76 34.49 33.74 30.75 35.98 C 27.71 37.79 29.84 41.21 33.02 39.27 C 36.02 37.45 38.82 35.31 42.01 32.12 C 43.21 30.92 44.43 30.41 45.89 32.53 C 46.45 33.34 46.89 34.06 47.55 35.09 C 49.89 38.7 49.76 39.94 48.22 43.91 C 46.28 48.91 46.45 50.93 46.96 56.76 C 47.21 59.6 51.02 59.09 50.86 56.45 C 50.66 53.22 50.28 51.12 51.3 48.32 C 52.59 44.8 53.94 42.41 53.94 40.17 C 53.94 37.51 53.74 35.86 49.93 30.29 C 48.31 27.91 47.24 26.72 46.47 26.04 C 44.36 24.13 45.54 23.3 46.33 23.04 Z" fill-rule="evenodd" clip-rule="evenodd"/></svg>