<svg version="1.1" width="55.59" height="56.46" viewBox="0 0 55.59 56.46" xmlns="http://www.w3.org/2000/svg" xmlns:xlink="http://www.w3.org/1999/xlink" overflow="visible"><defs></defs><path d=" M 15.29 53.6 C 16.62 53.13 19.74 51.3 20.65 46.84 C 21.36 43.39 20.76 39.5 17.14 37.37 C 14.68 35.92 12.34 34.82 10.66 34.01 C 4.37 30.95 3.85 34.43 3.38 37.5 C 2.43 43.66 4.83 51.06 10.29 52.93 C 12.54 53.7 11.85 56.46 9.89 56.09 C 2.13 54.6 -1.11 44.83 0.32 35.52 C 2.52 21.28 3.91 14.39 7.11 8.38 C 11.07 0.95 17.67 2.33 19.26 6.96 C 20.33 10.07 20.15 12.2 21.39 15.06 C 22.98 18.71 22.97 20.98 23.44 24.5 C 23.8 27.25 23.99 27.95 23.99 30.42 C 23.99 33.92 22.6 36.25 23.35 40.44 C 25.46 52.07 18.2 56.03 16.16 56.41 C 14.1 56.81 13.45 54.26 15.29 53.6 Z M 17.38 18.23 C 15.6 19.01 14.19 19.66 10.25 19.72 C 6.94 19.78 5.77 20.56 5.24 23.34 C 4.48 27.39 5.97 27.7 7.84 28.94 C 8.93 29.66 15.4 33.11 17.84 33.6 C 19.18 33.87 21.03 33.69 21.16 29.69 C 21.18 29.18 20.69 25.13 20.5 23.41 C 20.15 20.27 19.69 17.22 17.38 18.23 Z M 9.41 9.73 C 7.89 12.73 7.41 14.92 8.6 15.69 C 10.59 16.98 14.77 16.31 16.12 15.04 C 17.95 13.3 17.39 11.43 17.08 9.9 C 16.49 6.97 15.27 6.28 14.35 6.21 C 12.33 6.05 10.61 7.39 9.41 9.73 Z" fill="#000100"/><path d=" M 40.56 27.6 C 33.33 27.6 32.09 24.57 30.49 19.48 C 29.96 17.81 29.32 15.94 30.16 14.7 C 30.91 13.6 32.36 13.42 33.38 13.3 C 34.56 13.17 35.61 11.68 37.85 11.72 C 39.06 11.74 39.86 12.32 40.38 12.72 C 40.44 12.76 40.69 12.76 40.74 12.72 C 41.27 12.32 42.06 11.76 43.27 11.72 C 45.64 11.65 46.45 12.99 47.82 13.31 C 48.84 13.55 50.33 13.78 51.04 14.95 C 51.81 16.23 50.87 18.7 50.36 20.16 C 48.77 24.66 47.81 27.6 40.56 27.6 Z M 36.14 15.11 C 35.51 15.51 34.75 15.89 33.83 15.96 C 32.54 16.05 32.72 17.29 33.18 18.77 C 34.65 23.44 35.05 24.7 40.54 24.87 C 45.79 24.71 46.23 23.46 47.68 19.34 C 48.22 17.83 48.71 16.15 47.19 15.95 C 46.35 15.84 45.65 15.46 45.04 15.12 C 44.4 14.77 43.37 14.08 42.16 14.92 C 41.74 15.21 41.24 15.61 40.53 15.61 C 39.83 15.61 39.33 15.21 38.91 14.92 C 38.31 14.49 37.33 14.36 36.14 15.11 Z" fill="#030000"/><path d=" M 30.51 54.8 C 30.7 56.97 34.19 57.19 34.16 54.38 C 34.13 52.24 34.01 47.97 34.72 44.26 C 35.22 41.62 37.2 37.54 39.18 36.36 C 40.72 35.43 42.64 36.03 42.5 37.82 C 42.36 39.72 42.34 42.22 42.14 44.59 C 41.73 49.44 45.03 52.24 50.77 55.95 C 53.49 57.71 55.15 54.39 52.91 53.11 C 49.36 50.74 45.57 48.8 45.83 44.04 C 45.97 41.51 46.16 39.75 46.38 37.16 C 46.84 31.85 38.17 29.56 33.93 36.52 C 31.31 40.83 29.81 46.62 30.51 54.8 Z" fill-rule="evenodd" clip-rule="evenodd"/><path d=" M 28.36 9.58 L 34.98 2.95 C 36.87 1.05 34.61 -1.18 32.73 0.72 L 26.1 7.35 C 25.61 7.85 25.51 9.36 25.49 9.97 C 25.48 10.13 25.55 10.23 25.66 10.22 C 26.22 10.2 27.85 10.1 28.36 9.58 Z" fill="#030000"/><path d=" M 52.73 9.58 L 46.1 2.96 C 44.3 1.14 46.55 -1.09 48.35 0.73 L 54.98 7.36 C 55.47 7.86 55.57 9.37 55.59 9.98 C 55.6 10.14 55.53 10.24 55.42 10.23 C 54.87 10.2 53.24 10.1 52.73 9.58 Z" fill="#030000"/></svg>