<svg version="1.1" width="64.59" height="63.25" viewBox="0 0 64.59 63.25" xmlns="http://www.w3.org/2000/svg" xmlns:xlink="http://www.w3.org/1999/xlink" overflow="visible"><defs></defs><g><g><path d=" M 2.7 19.25 C 0.5 19.25 0.5 16.25 2.7 16.25 C 4.38 16.25 6.09 16.25 7.1 16.25 C 8.77 16.25 9.15 15.78 9.15 14.2 C 9.15 12.87 9.16 10.78 9.16 8.13 C 9.16 5.75 12.16 5.75 12.16 8.13 C 12.16 10.7 12.16 12.67 12.16 14.2 C 12.16 17.91 10.92 19.26 7.19 19.26 C 6.03 19.25 4.41 19.25 2.7 19.25 Z" fill="#030000"/></g><g><path d=" M 62.84 51.87 L 28.26 51.87 C 21.21 51.87 16.38 50.78 16.47 42.64 C 16.56 34.01 16.47 16.75 16.47 8.12 C 16.47 5.84 19.47 5.84 19.47 8.12 L 19.47 42.14 C 19.56 45.55 19.97 48.8 27.26 48.87 L 62.84 48.87 C 65.1 48.87 65.1 51.87 62.84 51.87 Z" fill="#030000"/></g><g><path d=" M 1.81 63.25 C -0.61 63.25 -0.61 60.25 1.81 60.25 C 6.24 60.25 9.58 58.47 12.32 54.66 C 13.94 52.41 15.89 53.13 16.91 53.75 C 19.51 55.35 22.55 56.16 25.96 56.16 L 62.84 56.16 C 65.17 56.16 65.17 59.16 62.84 59.16 L 25.96 59.16 C 22.52 59.16 19.38 58.45 16.6 57.01 C 15.57 56.48 14.82 56.41 13.96 57.45 C 10.76 61.34 6.79 63.25 1.81 63.25 Z" fill="#030000"/></g><g><path d=" M 1.81 55.36 C -0.59 55.36 -0.59 52.36 1.81 52.36 C 6.48 52.36 9.15 47.87 9.15 40.06 C 9.15 40.06 9.14 29.81 9.14 28.48 C 9.14 27.7 8.28 26.5 6.97 26.5 C 5.94 26.5 4.5 26.51 2.7 26.51 C 0.38 26.51 0.38 23.51 2.7 23.51 C 4.95 23.51 6.03 23.51 7.83 23.51 C 10.49 23.51 12.16 25.64 12.16 28.3 C 12.16 29.92 12.16 40.07 12.16 40.07 C 12.16 43.64 11.41 55.36 1.81 55.36 Z" fill="#030000"/></g></g><path d=" M 62.41 39.63 C 59.97 39.86 57.57 39.99 54.97 40.16 C 52.64 40.31 52.6 39.34 53.35 38.57 C 58.81 32.95 60.88 31.33 61.33 29.18 C 61.76 27.13 60.6 25.12 56.17 16.93 C 54.56 13.97 53.62 14.22 53.57 12.8 C 53.5 10.81 55.43 10.9 55.35 7.91 C 55.27 4.86 52.96 3.91 51.42 3.91 C 49.4 3.91 47.5 5.6 47.5 7.79 C 47.5 9.2 47.87 10.24 48.71 11.13 C 49.79 12.28 50.52 12.19 50.69 12.85 C 51.16 14.61 49.92 14.62 49.4 21.5 C 49.13 25.1 48.29 29.43 46.12 33.34 C 44.67 35.95 47.57 37.02 48.78 34.83 C 50.75 31.27 52.45 26.75 52.66 22.27 C 52.87 17.73 54.51 21.46 56.75 26.07 C 57.57 27.74 57.52 28.54 56.07 30.14 C 54.98 31.34 53.07 33.3 50.35 36.31 C 48.72 38.11 47.75 39.94 48.8 41.67 C 49.89 43.45 52.65 43.5 54.07 43.46 C 56.23 43.41 57.37 43.36 62.79 42.86 C 65.41 42.6 65.06 39.39 62.41 39.63 Z" fill-rule="evenodd" clip-rule="evenodd"/><path d=" M 45.41 16.8 C 41.8 14.17 37.3 12.43 34.27 10.81 C 33.71 10.54 33.41 9.89 33.51 9.24 C 33.66 8.28 34.51 8.18 35.46 7.23 C 36.26 6.43 36.67 5.3 36.67 3.89 C 36.67 1.7 34.77 0.01 32.75 0.01 C 31.2 0.01 28.85 0.96 28.82 4.01 C 28.78 7.39 30.99 7.08 30.92 9.06 C 30.87 10.48 28.8 11.74 27.18 14.09 C 24.21 18.42 23.3 20.22 23.37 22.55 C 23.45 25.04 25.02 28.02 26.03 30.76 C 26.83 32.94 27.03 33.95 26.39 42.49 C 26.2 45.07 29.53 45.47 29.77 42.73 C 30.64 32.79 30.48 31.42 28.97 27.53 C 27.93 24.85 26.89 22.55 28.53 19.58 C 29.33 18.13 30.32 16.2 31.43 15.1 C 32.26 14.27 32.93 13.9 34.37 14.41 C 37.57 15.55 40.48 16.93 43.77 19.32 C 45.79 20.8 47.82 18.55 45.41 16.8" fill-rule="evenodd" clip-rule="evenodd"/></svg>