<svg version="1.1" width="62.65" height="63.26" viewBox="0 0 62.65 63.26" xmlns="http://www.w3.org/2000/svg" xmlns:xlink="http://www.w3.org/1999/xlink" overflow="visible"><defs></defs><path d=" M 34.46 21.63 C 34.46 23.57 32.89 25.13 30.96 25.13 C 29.02 25.13 27.46 23.56 27.46 21.63 C 27.46 19.69 29.03 18.13 30.96 18.13 C 32.89 18.13 34.46 19.69 34.46 21.63 Z" fill-rule="evenodd" clip-rule="evenodd"/><path d=" M 18.04 34.46 C 20.35 33.12 24.04 32.56 26.31 33.03 C 28.37 33.45 28.88 34.01 28.88 36.93 C 28.88 39.42 29.06 40.64 27.35 43.09 C 26.04 44.98 24.32 47.05 23.15 50.68 C 22.28 53.38 21.96 57.99 22.25 61.38 C 22.4 63.16 25.26 63.33 25.22 61.04 C 25.2 59.3 25.1 55.88 25.68 52.85 C 26.09 50.7 27.7 47.36 29.32 46.39 C 30.58 45.63 32.14 46.12 32.04 47.59 C 31.93 49.14 31.91 51.18 31.74 53.13 C 31.4 57.09 34.12 59.3 38.81 62.33 C 41.04 63.77 42.39 61.06 40.57 60.01 C 37.67 58.07 34.55 56.56 34.76 52.68 C 34.87 50.62 35.02 49.17 35.21 47.06 C 35.61 42.81 34.94 41.58 34.19 35.29 C 34.02 33.83 34.33 33.04 36.69 33.47 C 38.86 33.86 41.31 34.07 44.27 34.04 C 46.37 34.01 46.49 31.39 44.25 31.35 C 40.06 31.28 37.74 30.67 34.04 29.85 C 32.97 29.61 32.79 29.17 32.61 28.64 C 32.38 27.97 31.71 27.59 30.78 27.61 C 29.68 27.64 29.07 28.26 28.96 29.07 C 28.88 29.68 28.37 30.05 27.62 30.02 C 24.33 29.9 19.62 30.37 16.73 32.33 C 15.11 33.41 16.48 35.36 18.04 34.46 Z" fill-rule="evenodd" clip-rule="evenodd"/><path d=" M 61.83 27.41 C 61.83 27.41 39.1 10.08 36.79 8.4 C 34.51 6.74 33.89 6.12 33.89 2.66 C 33.89 1.19 32.7 0 31.23 0 C 29.76 0 28.57 1.19 28.57 2.66 C 28.57 5.8 28.39 6.41 25.23 8.73 C 23.05 10.33 0.82 27.29 0.82 27.29 C -0.1 28 -0.27 29.33 0.44 30.25 C 0.91 30.86 2.23 31.49 3.4 30.63 C 4.28 29.99 6.04 28.62 7.44 27.53 C 8.75 26.51 9.35 26.96 9.35 28.44 L 9.35 61.12 C 9.35 62.29 10.3 63.25 11.48 63.25 C 12.65 63.25 13.61 62.3 13.61 61.12 L 13.61 28.44 C 13.61 23.82 15.12 21.58 19.91 17.89 C 31.04 9.33 31.04 9.33 42.57 17.89 C 47.42 21.49 48.87 23.81 48.87 28.44 L 48.87 61.12 C 48.87 62.29 49.82 63.25 51 63.25 C 52.17 63.25 53.13 62.3 53.13 61.12 L 53.13 28.44 C 53.13 27.09 53.95 26.66 55.16 27.58 C 56.19 28.36 59.26 30.75 59.26 30.75 C 59.64 31.04 60.09 31.19 60.54 31.19 C 61.17 31.19 61.8 30.91 62.22 30.37 C 62.93 29.45 62.76 28.13 61.83 27.41 Z" fill="#030000"/></svg>