<svg version="1.1" width="58.37" height="59.3" viewBox="0 0 58.37 59.3" xmlns="http://www.w3.org/2000/svg" xmlns:xlink="http://www.w3.org/1999/xlink" overflow="visible"><defs></defs><g><g><path d=" M 19.65 29.94 L 23.69 29.94 C 26.31 29.94 26.31 33.77 23.69 33.77 L 19.65 33.77 C 17 33.77 17 29.94 19.65 29.94 Z"/></g><g><path d=" M 19.51 18.31 L 23.52 17.82 C 26.18 17.5 26.65 21.29 23.99 21.62 L 19.98 22.11 C 17.21 22.44 16.75 18.65 19.51 18.31 Z"/></g><g><path d=" M 19.51 45.4 L 23.52 45.89 C 26.08 46.21 26.55 42.41 23.99 42.09 L 19.98 41.6 C 17.32 41.29 16.86 45.08 19.51 45.4 Z"/></g><g><path d=" M 6.31 29.94 L 2.27 29.94 C -0.55 29.94 -0.55 33.77 2.27 33.77 L 6.31 33.77 C 9.05 33.77 9.05 29.94 6.31 29.94 Z"/></g><g><path d=" M 6.46 18.31 L 2.45 17.82 C -0.48 17.47 -0.95 21.26 1.98 21.62 L 5.99 22.11 C 8.7 22.44 9.17 18.64 6.46 18.31 Z"/></g><g><path d=" M 6.46 45.4 L 2.45 45.9 C -0.46 46.26 -0.93 42.46 1.98 42.1 L 5.99 41.61 C 8.74 41.27 9.21 45.07 6.46 45.4 Z"/></g><path d=" M 11.62 52.09 L 11.62 11.55 C 11.62 9.87 14.05 9.87 14.05 11.55 L 14.05 52.09 C 14.05 53.96 11.62 53.96 11.62 52.09 Z"/></g><path d=" M 56.52 55.65 L 54.66 55.65 C 54.13 55.65 53.37 55.45 53.3 54.17 C 52.43 38.08 54.03 36.73 46.94 23.66 C 46.18 22.26 45.61 20.44 45.61 18.86 C 45.61 17.31 46.01 16.07 48.32 16.16 C 50.73 16.26 52.34 16.63 56.01 18.22 C 58.35 19.03 59.29 16.3 57.2 15.36 C 53.03 13.49 48.85 12.63 45.42 12.63 C 43.88 12.63 43.51 10.96 44.96 10.18 C 46.8 9.19 47.98 7.57 47.91 5.16 C 47.87 4.04 47.53 2.86 46.92 2.04 C 44.87 -0.71 40.41 -0.62 38.65 2.02 C 38.03 2.95 37.64 4.1 37.63 5.35 C 37.6 7.59 38.91 9.34 40.58 10.18 C 42.04 10.96 41.66 12.63 40.12 12.63 C 36.69 12.63 32.51 13.49 28.34 15.36 C 26.25 16.3 27.18 19.03 29.53 18.22 C 33.2 16.63 34.81 16.25 37.22 16.16 C 39.53 16.07 39.93 17.31 39.93 18.86 C 39.93 20.44 39.36 22.27 38.6 23.66 C 31.51 36.73 33.11 38.08 32.24 54.17 C 32.17 55.45 31.41 55.65 30.88 55.65 C 29.92 55.65 29.02 55.65 29.02 55.65 C 28.01 55.65 27.2 56.47 27.2 57.47 C 27.2 58.48 28.02 59.29 29.02 59.29 L 56.49 59.29 C 57.5 59.29 58.31 58.47 58.31 57.47 C 58.34 56.47 57.53 55.65 56.52 55.65 Z M 48.27 55.65 L 37.31 55.65 C 36.67 55.65 36.34 55.15 36.36 54.48 C 36.84 39.6 35.97 35.98 41.62 26.73 C 42.75 24.88 43.31 25.69 43.97 26.73 C 49.61 35.98 48.75 39.6 49.23 54.48 L 49.23 54.48 C 49.24 55.15 48.91 55.65 48.27 55.65 Z"/></svg>