<svg version="1.1" width="47.21" height="62.12" viewBox="0 0 47.21 62.12" xmlns="http://www.w3.org/2000/svg" xmlns:xlink="http://www.w3.org/1999/xlink" overflow="visible"><defs></defs><path d=" M 44.65 26.31 C 37.68 26.66 33.61 25.89 27.68 24.57 C 26.57 24.32 26.05 23.62 25.83 23 C 25.52 22.14 24.67 21.64 23.47 21.67 C 22.05 21.71 21.24 22.51 21.12 23.56 C 21.06 24.06 20.69 24.72 19.39 24.79 C 15.02 25.05 5.71 26.83 1.69 28.89 C -1.52 30.53 0.38 33.49 2.98 32.53 C 7.27 30.94 13.57 29.12 17.06 29.15 C 19.92 29.18 19.91 30.64 19.91 33.42 C 19.91 37.68 15.84 39.53 13.57 46.54 C 12.44 50.03 12.03 55.99 12.41 60.38 C 12.61 62.68 16.3 62.9 16.26 59.94 C 16.23 57.68 16.1 53.27 16.85 49.35 C 17.38 46.56 19.47 42.25 21.55 41 C 23.18 40.02 25.2 40.65 25.07 42.55 C 24.92 44.55 24.9 47.2 24.68 49.71 C 24.24 54.83 27.73 57.38 33.8 61.3 C 36.68 63.15 38.43 59.66 36.07 58.3 C 32.32 55.79 28.31 54.15 28.59 49.13 C 28.74 46.46 28.92 44.59 29.18 41.86 C 29.69 36.36 28.43 35.35 27.86 31.64 C 27.57 29.75 28.04 28.73 31.1 29.28 C 34.84 29.96 39.21 30.24 44.98 29.84 C 48.34 29.57 47.64 26.15 44.65 26.31 Z" fill-rule="evenodd" clip-rule="evenodd"/><path d=" M 27.14 16.1 C 27.14 18.05 25.56 19.64 23.6 19.64 C 21.65 19.64 20.06 18.06 20.06 16.1 C 20.06 14.15 21.64 12.56 23.6 12.56 C 25.56 12.56 27.14 14.14 27.14 16.1 Z" fill-rule="evenodd" clip-rule="evenodd"/><path d=" M 33.89 9.23 C 35.03 6.17 33.47 2.75 30.41 1.61 L 27.08 0.37 C 24.02 -0.77 20.6 0.79 19.46 3.85 L 18.3 6.95 C 18.14 7.38 17.87 7.49 17.59 7.39 C 16.94 7.15 16.21 7.48 15.97 8.13 C 15.77 8.67 15.96 9.26 16.4 9.59 C 16.68 9.8 16.78 10.07 16.66 10.37 C 16.14 11.62 15.22 13.46 13.96 14.73 C 13.76 14.93 13.76 15.24 13.96 15.44 C 14.06 15.54 14.19 15.59 14.31 15.59 C 14.44 15.59 14.57 15.54 14.66 15.44 C 16.08 14.02 17.07 11.99 17.62 10.66 C 17.82 10.17 18.15 10.06 18.58 9.96 C 19.61 9.73 22.28 10.13 24.7 11.1 C 28.46 12.6 29.95 13.82 30.77 14.68 C 31.14 15.07 31.2 15.36 31.09 15.99 C 30.86 17.29 30.76 18.99 31.25 20.61 C 31.32 20.83 31.51 20.96 31.73 20.96 C 31.78 20.96 31.83 20.95 31.88 20.94 C 32.14 20.86 32.29 20.58 32.21 20.32 C 31.74 18.79 31.9 17.11 32.14 15.89 C 32.22 15.5 32.42 15.59 32.68 15.56 C 33.14 15.51 33.55 15.22 33.72 14.76 C 33.96 14.11 33.63 13.38 32.98 13.14 C 32.71 13.04 32.55 12.84 32.69 12.46 L 33.89 9.23 Z M 20.93 7.15 C 21.16 6.55 21.83 4.73 21.83 4.73 C 22.48 2.98 24.44 2.08 26.2 2.74 L 29.53 3.98 C 31.28 4.63 32.18 6.59 31.52 8.35 C 31.52 8.35 30.77 10.32 30.54 10.98 C 30.4 11.38 30.18 11.52 29.77 11.29 C 28.62 10.64 27.18 9.93 25.45 9.24 C 23.92 8.63 22.52 8.23 21.3 7.98 C 20.82 7.87 20.77 7.56 20.93 7.15 Z"/></svg>