<svg version="1.1" width="48.73" height="54.46" viewBox="0 0 48.73 54.46" xmlns="http://www.w3.org/2000/svg" xmlns:xlink="http://www.w3.org/1999/xlink" overflow="visible"><defs></defs><path d=" M 6.56 23.77 C 8.01 24.44 8.7 24.13 11.25 23.6 C 11.29 23.59 11.37 23.57 11.32 23.46 C 10.4 21.74 10 20.28 8.79 19.57 C 7.33 18.73 5.9 19.34 5.31 20.56 C 4.63 21.94 5.28 23.18 6.56 23.77 Z" fill-rule="evenodd" clip-rule="evenodd"/><path d=" M 6.68 30.72 C 6.71 30.69 6.77 30.63 6.67 30.56 C 5.03 29.51 3.97 28.43 2.56 28.4 C 0.87 28.39 -0.07 29.62 0 30.98 C 0.09 32.51 1.26 33.27 2.66 33.17 C 4.26 33.04 4.72 32.43 6.68 30.72 Z" fill-rule="evenodd" clip-rule="evenodd"/><path d=" M 9.71 44.44 C 9.72 44.4 9.73 44.32 9.61 44.32 C 7.67 44.47 6.17 44.25 5.03 45.07 C 3.67 46.06 3.66 47.62 4.54 48.66 C 5.53 49.83 6.93 49.73 7.98 48.81 C 9.18 47.75 9.17 46.98 9.71 44.44 Z" fill-rule="evenodd" clip-rule="evenodd"/><path d=" M 43.14 31.49 C 46.48 30.38 48.38 27.87 48.7 24.52 C 49.07 20.58 46.39 17.17 42.27 16.69 C 38.61 16.26 35.7 18.59 34.71 21.85 C 34.28 23.26 34.7 24.78 36.55 24.52 C 44.74 23.36 45.58 25.39 44.98 27.01 C 43.88 29.97 39.51 30.18 36.8 27.96 C 35.96 27.27 35.4 27.95 35.71 28.52 C 36.13 29.3 36.77 29.86 37.42 30.25 C 38.7 31.01 40.37 31.52 40.1 32.55 C 39.97 33.06 39.52 33.51 38.76 34.62 C 37.47 36.49 35.52 38.41 33.1 39.85 C 31.14 41.02 32.51 43.22 34.56 41.97 C 36.49 40.79 38.3 39.41 40.36 37.36 C 41.13 36.58 41.92 36.26 42.86 37.62 C 43.22 38.14 43.5 38.61 43.93 39.27 C 45.44 41.6 45.36 42.4 44.36 44.96 C 43.11 48.18 43.22 49.49 43.55 53.25 C 43.71 55.08 46.17 54.75 46.06 53.05 C 45.93 50.96 45.68 49.61 46.35 47.81 C 47.18 45.54 48.05 44 48.05 42.55 C 48.05 40.84 47.92 39.77 45.46 36.18 C 44.41 34.65 43.72 33.88 43.23 33.44 C 41.87 32.19 42.63 31.66 43.14 31.49 Z" fill-rule="evenodd" clip-rule="evenodd"/><g><path d=" M 39.4 6.13 C 39.2 4.25 38.23 2.52 36.72 1.4 C 35.09 0.18 32.98 -0.26 30.77 0.15 C 26.9 0.88 24.68 3.95 24.68 8.57 C 24.68 8.57 24.68 12.46 24.68 13.42 C 24.68 14.49 24.48 14.63 23.52 14.63 C 22.75 14.63 22.38 14.44 22.38 13.46 C 22.38 12.49 22.38 8.57 22.38 8.57 C 22.38 3.95 20.16 0.88 16.29 0.15 C 14.09 -0.27 11.98 0.18 10.35 1.4 C 8.84 2.52 7.86 4.25 7.67 6.13 C 7.48 7.94 8.05 9.72 9.22 11.01 C 10.26 12.16 11.65 12.79 13.14 12.79 C 15.81 12.79 17.67 11.15 17.67 8.81 C 17.67 7.26 16.87 6 15.57 5.54 C 14.43 5.13 13.14 5.44 12.33 6.33 C 11.95 6.74 11.89 7.38 12.27 7.79 C 12.7 8.25 13.42 8.22 13.81 7.75 C 14.07 7.44 14.48 7.33 14.87 7.47 C 15.34 7.64 15.61 8.13 15.61 8.81 C 15.61 10.02 14.68 10.74 13.13 10.74 C 12.23 10.74 11.37 10.35 10.73 9.64 C 9.95 8.78 9.57 7.57 9.7 6.34 C 9.84 5.01 10.5 3.84 11.56 3.04 C 12.73 2.17 14.27 1.86 15.9 2.16 C 19.74 2.89 20.32 6.48 20.32 8.56 C 20.32 8.56 20.32 12.43 20.32 13.38 C 20.32 14.67 20.88 16.13 22.15 16.52 C 22.6 16.66 22.73 16.86 22.76 17.2 L 22.76 25.32 C 22.76 25.65 22.43 25.87 22.13 25.75 C 21.8 25.62 21.44 25.55 21.06 25.55 C 20.78 25.55 20.55 25.78 20.55 26.06 C 20.55 26.34 20.78 26.57 21.06 26.57 C 22.13 26.57 23.01 27.44 23.01 28.52 L 23.01 30.7 C 23.01 31.1 22.54 31.32 22.24 31.05 C 21.83 30.69 21.57 30.17 21.57 29.59 C 21.57 29.31 21.34 29.08 21.06 29.08 C 20.78 29.08 20.55 29.31 20.55 29.59 C 20.55 31.22 21.88 32.55 23.51 32.55 C 25.14 32.55 26.47 31.22 26.47 29.59 C 26.47 29.31 26.24 29.08 25.96 29.08 C 25.68 29.08 25.45 29.31 25.45 29.59 C 25.45 30.17 25.19 30.69 24.78 31.05 C 24.48 31.31 24.01 31.09 24.01 30.7 L 24.01 28.52 C 24.01 27.45 24.88 26.57 25.96 26.57 C 26.24 26.57 26.47 26.34 26.47 26.06 C 26.47 25.78 26.24 25.55 25.96 25.55 C 25.56 25.55 25.19 25.63 24.84 25.77 C 24.54 25.9 24.2 25.67 24.2 25.34 C 24.2 23.53 24.2 17.2 24.2 17.2 C 24.23 16.86 24.36 16.66 24.81 16.52 C 26.09 16.12 26.7 14.78 26.7 13.39 C 26.7 12.43 26.7 8.55 26.7 8.55 C 26.7 6.47 27.27 2.87 31.12 2.15 C 32.75 1.84 34.29 2.15 35.46 3.03 C 36.52 3.82 37.19 4.99 37.32 6.33 C 37.45 7.56 37.07 8.76 36.29 9.63 C 35.65 10.34 34.8 10.73 33.89 10.73 C 32.34 10.73 31.41 10.01 31.41 8.8 C 31.41 8.12 31.68 7.63 32.15 7.46 C 32.52 7.33 32.92 7.42 33.18 7.71 C 33.52 8.09 34.08 8.23 34.52 7.97 C 35.08 7.64 35.18 6.91 34.79 6.43 C 33.98 5.46 32.64 5.1 31.45 5.53 C 30.2 6 29.4 7.26 29.4 8.81 C 29.4 11.16 31.26 12.79 33.93 12.79 C 35.42 12.79 36.82 12.16 37.85 11.01 C 39.02 9.72 39.59 7.94 39.4 6.13 Z" fill="#221D1E" fill-rule="evenodd" clip-rule="evenodd"/><path d=" M 28.53 20.27 C 28.04 20.18 27.55 20.51 27.46 21.01 C 27.37 21.51 27.7 21.99 28.19 22.08 C 28.69 22.17 29.18 21.84 29.27 21.34 C 29.37 20.84 29.03 20.37 28.53 20.27 Z" fill="#221D1E" fill-rule="evenodd" clip-rule="evenodd"/><path d=" M 18.53 20.27 C 18.03 20.37 17.7 20.84 17.79 21.35 C 17.88 21.85 18.37 22.18 18.87 22.09 C 19.36 22 19.7 21.52 19.6 21.02 C 19.51 20.51 19.03 20.18 18.53 20.27 Z" fill="#221D1E" fill-rule="evenodd" clip-rule="evenodd"/></g></svg>