<svg version="1.1" width="52.61" height="56.29" viewBox="0 0 52.61 56.29" xmlns="http://www.w3.org/2000/svg" xmlns:xlink="http://www.w3.org/1999/xlink" overflow="visible"><defs></defs><path d=" M 8.18 11.17 C 10.29 12.15 11.29 11.69 14.99 10.92 C 15.05 10.9 15.17 10.87 15.09 10.71 C 13.75 8.21 13.17 6.09 11.41 5.06 C 9.29 3.83 7.22 4.73 6.35 6.5 C 5.38 8.5 6.33 10.31 8.18 11.17 Z" fill-rule="evenodd" clip-rule="evenodd"/><path d=" M 9.71 22.62 C 9.75 22.58 9.84 22.49 9.69 22.39 C 7.31 20.87 5.76 19.3 3.71 19.25 C 1.27 19.22 -0.11 21.01 8.88178e-16 22.98 C 0.13 25.2 1.83 26.31 3.87 26.16 C 6.2 25.99 6.86 25.1 9.71 22.62 Z" fill-rule="evenodd" clip-rule="evenodd"/><path d=" M 13.35 44.91 C 13.37 44.86 13.42 44.74 13.25 44.71 C 10.46 44.24 8.43 43.4 6.52 44.16 C 4.26 45.09 3.69 47.27 4.57 49.04 C 5.55 51.04 7.56 51.39 9.37 50.46 C 11.44 49.39 11.7 48.31 13.35 44.91 Z" fill-rule="evenodd" clip-rule="evenodd"/><path d=" M 44.29 22.11 C 49.27 20.47 52.09 16.72 52.56 11.74 C 53.11 5.87 49.13 0.8 42.99 0.08 C 37.55 -0.55 33.21 2.91 31.74 7.75 C 31.1 9.85 31.73 12.11 34.47 11.72 C 46.65 9.99 47.9 13.02 47.01 15.42 C 45.37 19.82 38.87 20.13 34.84 16.84 C 33.59 15.82 32.76 16.83 33.21 17.67 C 33.83 18.82 34.79 19.67 35.76 20.25 C 37.67 21.38 40.15 22.14 39.75 23.67 C 39.55 24.42 38.89 25.1 37.75 26.75 C 35.83 29.54 32.92 32.39 29.33 34.54 C 26.41 36.28 28.45 39.56 31.51 37.7 C 34.39 35.95 37.07 33.9 40.14 30.83 C 41.29 29.68 42.46 29.19 43.86 31.22 C 44.4 32 44.82 32.69 45.46 33.68 C 47.7 37.15 47.58 38.33 46.1 42.14 C 44.23 46.93 44.4 48.88 44.89 54.47 C 45.13 57.2 48.79 56.7 48.63 54.17 C 48.44 51.07 48.07 49.06 49.06 46.37 C 50.3 42.99 51.59 40.7 51.59 38.54 C 51.59 35.99 51.4 34.41 47.74 29.06 C 46.18 26.78 45.16 25.63 44.42 24.98 C 42.41 23.15 43.54 22.36 44.29 22.11 Z" fill-rule="evenodd" clip-rule="evenodd"/></svg>