<svg version="1.1" width="61.66" height="62.33" viewBox="0 0 61.66 62.33" xmlns="http://www.w3.org/2000/svg" xmlns:xlink="http://www.w3.org/1999/xlink" overflow="visible"><defs></defs><path d=" M 29.33 27.58 L 29.33 24.36 C 29.33 23.84 29 23.44 28.61 23.15 C 28.31 22.92 28.07 22.93 27.97 21.8 C 27.34 14.97 21.65 9.59 14.67 9.59 C 7.69 9.59 2.04 14.98 1.37 21.8 C 1.29 22.61 1.22 22.84 0.74 23.15 C 0.32 23.39 0 23.82 0 24.35 L 0 27.57 C 0 32.31 2.29 36.45 5.66 39.23 C 7.08 40.4 6.69 41.3 6.42 41.95 C 5.85 43.34 4.22 47.53 4.22 47.53 C 3.83 48.51 4.25 49.44 5.52 49.44 L 23.81 49.44 C 24.86 49.44 25.54 48.63 25.11 47.53 C 25.11 47.53 23.51 43.43 22.96 42.07 C 22.54 41.05 22.54 40.15 23.62 39.28 C 27.04 36.52 29.33 32.34 29.33 27.58 Z M 4.17 21.78 C 4.74 16.49 9.23 12.36 14.67 12.36 C 20.11 12.36 24.6 16.49 25.17 21.78 C 25.21 22.16 25.16 22.96 23.97 22.96 C 19.32 22.96 10.03 22.96 5.39 22.96 C 4.18 22.96 4.13 22.16 4.17 21.78 Z M 20.42 46.65 C 17.53 46.65 11.75 46.65 8.86 46.65 C 8.21 46.65 7.67 46.38 8.09 45.33 C 8.32 44.74 8.84 43.45 9.2 42.51 C 9.48 41.8 9.75 41.54 10.69 41.81 C 13.07 42.5 16.32 42.44 18.43 41.87 C 19.43 41.6 19.81 41.71 20.12 42.52 C 20.49 43.45 21 44.75 21.24 45.34 C 21.5 45.96 21.21 46.65 20.42 46.65 Z M 14.66 39.6 C 8.11 39.6 2.78 34.21 2.78 27.58 C 2.78 26.42 3.34 25.75 4.52 25.75 C 9.54 25.75 19.57 25.75 24.59 25.75 C 26.1 25.75 26.53 26.27 26.53 27.58 C 26.54 34.2 21.21 39.6 14.66 39.6 Z" fill="#030000"/><path d=" M 57.76 56.27 C 54.05 56.71 49.67 56.85 45.8 57.16 C 42.13 57.46 42.06 55.87 43.25 54.65 C 51.87 45.79 55.12 43.24 55.83 39.84 C 56.51 36.61 54.69 33.44 47.7 20.53 C 45.17 15.86 43.67 16.26 43.59 14.02 C 43.48 10.89 46.52 11.03 46.39 6.31 C 46.26 1.5 42.62 0 40.18 0 C 37 0 34.01 2.67 34.01 6.12 C 34.01 8.35 34.6 9.97 35.92 11.38 C 37.62 13.18 38.77 13.04 39.05 14.08 C 39.79 16.86 37.83 16.87 37.02 27.72 C 36.6 33.39 35.26 40.22 31.85 46.38 C 29.57 50.49 34.14 52.18 36.05 48.72 C 39.16 43.11 41.84 35.99 42.17 28.91 C 42.5 21.75 45.09 27.63 48.62 34.9 C 49.9 37.54 49.83 38.79 47.54 41.32 C 45.83 43.22 42.81 46.3 38.53 51.04 C 35.96 53.88 34.42 56.77 36.08 59.49 C 37.79 62.3 42.15 62.32 44.39 62.32 C 47.82 62.32 50.02 62.09 58.57 61.3 C 63.17 60.88 62.42 55.72 57.76 56.27 Z" fill-rule="evenodd" clip-rule="evenodd"/></svg>