<svg version="1.1" width="58.07" height="59.69" viewBox="0 0 58.07 59.69" xmlns="http://www.w3.org/2000/svg" xmlns:xlink="http://www.w3.org/1999/xlink" overflow="visible"><defs></defs><path d=" M 46.39 8.03 C 46.39 10.94 44.04 13.29 41.13 13.29 C 38.23 13.29 35.87 10.94 35.87 8.03 C 35.87 5.13 38.23 2.77 41.13 2.77 C 44.04 2.77 46.39 5.12 46.39 8.03 Z" fill-rule="evenodd" clip-rule="evenodd"/><path d=" M 26.62 24.95 C 29.16 23.47 33.18 22.84 35.76 23.3 C 38.42 23.77 38.69 25.24 38.86 27.74 C 39.19 32.75 39.06 34.74 37.14 37.51 C 35.66 39.64 33.72 41.98 32.39 46.08 C 31.4 49.13 31.05 54.33 31.38 58.16 C 31.55 60.16 34.77 60.36 34.74 57.77 C 34.72 55.8 34.61 51.95 35.26 48.52 C 35.73 46.09 37.55 42.32 39.37 41.23 C 40.8 40.38 42.56 40.92 42.44 42.58 C 42.31 44.33 42.29 46.63 42.1 48.83 C 41.72 53.3 44.79 55.8 50.09 59.22 C 52.6 60.84 54.13 57.78 52.07 56.6 C 48.79 54.41 45.27 52.71 45.52 48.32 C 45.65 45.99 45.81 44.35 46.03 41.97 C 46.48 37.17 45.73 32.96 44.88 25.86 C 44.68 24.21 45.04 23.32 47.71 23.8 C 50.16 24.24 52.92 24.48 56.27 24.44 C 58.64 24.41 58.77 21.44 56.25 21.4 C 51.51 21.32 48.9 20.64 44.72 19.71 C 43.52 19.44 43.3 18.94 43.1 18.34 C 42.84 17.58 42.09 17.15 41.04 17.18 C 39.8 17.21 39.11 17.91 38.99 18.83 C 38.9 19.52 38.32 19.94 37.48 19.91 C 33.76 19.77 28.45 20.3 25.18 22.51 C 23.31 23.76 24.86 25.97 26.62 24.95 Z" fill-rule="evenodd" clip-rule="evenodd"/><g><path d=" M 19.08 19.6 C 20.34 19.34 21.3 18.22 21.3 16.88 L 21.3 5.8 C 21.3 4.47 20.35 3.35 19.09 3.09 C 18.46 2.96 18.23 2.69 18.09 2.13 C 17.79 0.91 16.69 0 15.39 0 L 5.91 0 C 4.59 0 3.48 0.93 3.2 2.17 C 3.1 2.64 2.84 2.96 2.25 3.08 C 0.97 3.32 0 4.45 0 5.8 L 0 16.89 C 0 18.42 1.24 19.66 2.77 19.66 L 3.13 19.66 L 3.13 21.51 L 2.77 21.51 C 1.24 21.5 0 22.75 0 24.28 L 0 35.37 C 0 36.71 0.95 37.83 2.21 38.08 C 3 38.24 3.13 38.41 3.13 39.03 C 3.13 39.78 2.87 39.9 2.22 40.04 C 0.96 40.29 0 41.41 0 42.75 L 0 53.84 C 0 55.18 0.95 56.3 2.21 56.56 C 2.95 56.71 3.05 56.8 3.18 57.45 C 3.43 58.73 4.55 59.7 5.9 59.7 L 15.38 59.7 C 16.64 59.7 17.7 58.86 18.04 57.7 C 18.23 57.03 18.47 56.68 19.06 56.56 C 20.33 56.31 21.29 55.18 21.29 53.84 L 21.29 42.75 C 21.29 41.4 20.32 40.27 19.04 40.03 C 18.33 39.89 18.15 39.89 18.15 39.06 C 18.15 38.41 18.27 38.24 19.06 38.08 C 20.32 37.82 21.28 36.7 21.28 35.36 L 21.28 24.28 C 21.28 22.95 20.33 21.83 19.07 21.57 C 18.27 21.41 18.14 21.17 18.14 20.6 C 18.16 19.94 18.22 19.78 19.08 19.6 Z M 5.91 1.85 L 15.39 1.85 C 15.9 1.85 16.31 2.26 16.31 2.77 C 16.31 2.94 16.22 3.03 15.97 3.03 C 13.51 3.03 6.68 3.03 5.25 3.03 C 5.08 3.03 4.98 2.96 4.98 2.77 C 4.98 2.26 5.4 1.85 5.91 1.85 Z M 2.77 17.81 C 2.26 17.81 1.85 17.4 1.85 16.89 L 1.85 5.8 C 1.85 5.29 2.26 4.88 2.77 4.88 C 2.77 4.88 6.65 4.88 7.94 4.88 C 8.96 4.88 9.28 5.22 9.28 6.31 C 9.28 8.81 9.28 13.82 9.28 16.33 C 9.28 17.35 8.87 17.82 7.91 17.82 C 6.63 17.81 2.77 17.81 2.77 17.81 Z M 5.87 21.5 C 5.18 21.5 4.98 21.29 4.98 20.56 C 4.98 19.89 5.24 19.65 5.87 19.65 C 8.27 19.65 13.08 19.65 15.48 19.65 C 16.2 19.65 16.31 19.7 16.31 20.56 C 16.31 21.38 16.12 21.5 15.48 21.5 C 13.08 21.5 8.27 21.5 5.87 21.5 Z M 2.77 36.29 C 2.26 36.29 1.85 35.88 1.85 35.37 L 1.85 24.28 C 1.85 23.77 2.26 23.36 2.77 23.36 C 2.77 23.36 6.39 23.36 7.66 23.36 C 8.89 23.36 9.29 23.8 9.29 25.08 C 9.29 27.49 9.29 32.26 9.29 34.65 C 9.29 35.94 9.15 36.3 7.6 36.3 C 6.39 36.29 2.77 36.29 2.77 36.29 Z M 5.9 39.98 C 5.14 39.98 4.98 39.82 4.98 39.04 C 4.98 38.38 5.14 38.13 5.9 38.13 C 8.05 38.13 13.38 38.13 15.45 38.13 C 16.11 38.13 16.32 38.39 16.32 39.08 C 16.32 39.9 16.14 39.97 15.46 39.97 C 13.39 39.98 8.05 39.98 5.9 39.98 Z M 2.77 54.76 C 2.26 54.76 1.85 54.35 1.85 53.84 L 1.85 42.75 C 1.85 42.24 2.26 41.83 2.77 41.83 C 2.77 41.83 6.55 41.83 7.81 41.83 C 9.32 41.83 9.29 42.4 9.29 43.35 C 9.29 45.41 9.29 50.43 9.29 53.08 C 9.29 54.5 8.9 54.77 7.56 54.77 C 6.36 54.76 2.77 54.76 2.77 54.76 Z M 15.39 57.84 L 5.91 57.84 C 5.4 57.84 4.99 57.42 4.99 56.92 C 4.99 56.7 5.1 56.61 5.39 56.61 C 7.78 56.61 13.52 56.61 15.91 56.61 C 16.21 56.61 16.32 56.74 16.32 56.92 C 16.31 57.43 15.9 57.84 15.39 57.84 Z M 18.53 41.83 C 19.04 41.83 19.45 42.25 19.45 42.75 L 19.45 53.84 C 19.45 54.35 19.03 54.76 18.53 54.76 C 18.53 54.76 15.05 54.76 13.89 54.76 C 12.12 54.76 12.06 54.43 12.06 53.09 C 12.06 50.45 12.06 45.41 12.06 43.35 C 12.06 42.06 12.32 41.83 13.61 41.83 C 14.84 41.83 18.53 41.83 18.53 41.83 Z M 18.53 23.35 C 19.04 23.35 19.45 23.77 19.45 24.27 L 19.45 35.36 C 19.45 35.87 19.03 36.28 18.53 36.28 C 18.53 36.28 15.05 36.28 13.9 36.28 C 12.54 36.28 12.06 35.92 12.06 34.62 C 12.06 32.25 12.06 27.52 12.06 25.15 C 12.06 23.71 12.35 23.34 13.85 23.34 C 15.02 23.35 18.53 23.35 18.53 23.35 Z M 12.06 16.15 C 12.06 13.71 12.06 8.83 12.06 6.39 C 12.06 5.15 12.19 4.88 13.73 4.88 C 14.93 4.88 18.53 4.88 18.53 4.88 C 19.04 4.88 19.45 5.29 19.45 5.8 L 19.45 16.89 C 19.45 17.4 19.03 17.81 18.53 17.81 L 13.76 17.81 C 12.45 17.81 12.06 17.5 12.06 16.15 Z"/></g></svg>