<svg version="1.1" width="58.01" height="66.39" viewBox="0 0 58.01 66.39" xmlns="http://www.w3.org/2000/svg" xmlns:xlink="http://www.w3.org/1999/xlink" overflow="visible"><defs></defs><path d=" M 37.5 23.38 C 30.24 23.89 23.23 21.75 18.83 18.27 C 17.31 17.07 16.86 16.22 17.23 14.58 C 17.47 13.49 19.05 12.7 19.82 11.75 C 20.4 11.03 20.89 10.22 21.24 9.3 C 21.52 8.58 21.98 8.45 22.6 8.64 C 26.79 9.97 30.2 11.66 30.25 11.68 C 30.39 11.75 30.55 11.79 30.7 11.79 C 31.07 11.79 31.42 11.59 31.6 11.24 C 31.85 10.75 31.65 10.15 31.15 9.9 C 30.93 9.79 27.3 8 22.87 6.63 C 22.52 6.52 21.85 6.18 21.77 5.46 C 21.68 4.71 21.92 4.58 22.73 4.84 C 26.86 6.16 30.2 7.82 30.25 7.84 C 30.39 7.91 30.55 7.95 30.7 7.95 C 31.07 7.95 31.42 7.75 31.6 7.4 C 31.85 6.91 31.65 6.31 31.15 6.06 C 30.9 5.94 26.56 3.79 21.54 2.4 C 20.56 2.13 19.85 1.64 19.27 1.22 C 18.26 0.49 17.1 0.09 16.06 0.03 C 14.99 -0.04 13.88 0.17 12.89 0.67 C 11.88 1.18 11.78 1.26 10.67 1.37 C 5.47 1.85 0.93 3.37 0.68 3.46 C 0.16 3.61 -0.12 4.18 0.05 4.7 C 0.23 5.23 0.8 5.51 1.32 5.33 C 1.37 5.31 4.76 4.18 8.94 3.58 C 9.76 3.46 10.13 3.62 9.92 4.37 C 9.67 5.31 9.75 5.29 8.59 5.46 C 4.31 6.08 0.9 7.22 0.68 7.29 C 0.16 7.47 -0.12 8.04 0.05 8.56 C 0.23 9.08 0.8 9.36 1.32 9.19 C 1.37 9.17 4.4 8.16 8.27 7.54 C 9.41 7.35 9.66 7.7 9.84 8.54 C 10.49 11.53 12.52 11.85 12.42 14.57 C 12.34 16.88 9.18 18.95 6.55 22.78 C 1.71 29.84 0.24 32.95 0.35 36.73 C 0.47 40.79 3.45 45.65 5.09 50.11 C 6.39 53.66 6.49 54.65 5.89 62.59 C 5.53 67.36 10.95 67.65 11.4 63.35 C 12.25 55.2 12.24 51.24 9.89 44.86 C 7.12 37.36 6.17 36.68 8.79 31.81 C 10.48 28.67 11.47 27.09 12.51 25.64 C 14.05 23.48 16.05 23.41 17.77 24.21 C 24.49 27.33 31.24 28.79 37.85 28.33 C 41.93 28.06 42.34 23.04 37.5 23.38 Z"/><path d=" M 54.62 51.78 C 49.95 53.32 44.28 53.27 40.43 52.03 C 39.45 51.71 39.24 51.16 39.33 50.53 C 39.42 49.9 39.84 49.74 40.39 49.59 C 43.06 48.87 46.41 46.15 46.59 42.19 C 46.8 37.48 44.5 33.05 38.29 32.71 C 33 32.42 29.25 36.75 29.51 41.36 C 29.78 46.14 32.78 48.35 35.49 49.36 C 35.74 49.45 36.34 49.91 36.36 50.46 C 36.38 51.11 35.98 51.64 35.25 51.62 C 30.36 51.47 23.5 52.18 19.74 53.34 C 17.22 54.12 17.5 57.55 20.97 56.84 C 25.08 56 28.33 55.52 32.79 56.14 C 33.99 56.31 35.05 57.34 35.05 59.12 C 35.04 60.43 34.99 60.86 34.8 62.08 C 34.19 66.08 39.65 67.29 40.34 62.7 C 40.51 61.59 40.61 60.56 40.71 59.05 C 40.87 56.62 42.43 56.72 43.43 56.75 C 45.64 56.81 51.34 57.23 56.32 55.17 C 59.06 54.03 58.47 50.51 54.62 51.78 Z M 35.81 47.11 C 32.87 45.96 31.71 43.14 31.87 40.52 C 32.08 37.11 34.91 34.9 38.2 35 C 41.52 35.1 44.4 37.4 44.38 41.29 C 44.36 43.95 43.08 45.77 41.02 46.84 C 39.3 47.73 37.38 47.73 35.81 47.11 Z" fill-rule="evenodd" clip-rule="evenodd"/><path d=" M 38.17 41.02 C 37.72 41.02 37.36 41.13 37.36 42.3 C 37.36 43.81 37.64 44 38.19 44 C 38.78 44 38.95 43.78 38.95 42.3 C 38.96 41.11 38.68 41.02 38.17 41.02 Z" fill="#030000" fill-rule="evenodd" clip-rule="evenodd"/><path d=" M 34.91 40.92 C 34.91 41.42 34.5 41.83 34 41.83 C 33.5 41.83 33.09 41.42 33.09 40.92 C 33.09 40.42 33.5 40.01 34 40.01 C 34.5 40.01 34.91 40.42 34.91 40.92 Z" fill-rule="evenodd" clip-rule="evenodd"/><path d=" M 43.15 40.92 C 43.15 41.42 42.74 41.83 42.24 41.83 C 41.74 41.83 41.33 41.42 41.33 40.92 C 41.33 40.42 41.74 40.01 42.24 40.01 C 42.74 40.01 43.15 40.42 43.15 40.92 Z" fill-rule="evenodd" clip-rule="evenodd"/></svg>