<svg version="1.1" width="44.65" height="47.14" viewBox="0 0 44.65 47.14" xmlns="http://www.w3.org/2000/svg" xmlns:xlink="http://www.w3.org/1999/xlink" overflow="visible"><defs></defs><path d=" M 30.03 42.53 C 29.57 40.36 28.12 35.97 28.35 29.18 C 28.38 28.2 28.75 27.61 29.47 27.22 C 30.99 26.41 31.5 25.5 31.63 24.09 C 31.72 23.06 31.23 22.07 30.26 21.23 C 29.56 20.62 29.21 20.47 29.02 19.57 C 28.86 18.8 29.12 15.11 29.23 14.35 C 29.54 12.12 29.97 11.1 31.23 11.06 C 32.32 11.03 32.21 11.84 35.35 13.07 C 37.03 13.72 38.95 13.52 40.98 12.56 C 44.14 11.08 45.3 7.37 44.29 4.33 C 43.4 1.65 39.26 -1.38 34.88 0.7 C 30.99 2.55 31.31 6.3 28.98 7.27 C 25.75 8.62 21.25 2.18 11.6 2.18 C 4.42 2.18 -1.02 7.19 0.16 14.35 C 0.8 18.27 3.06 22 4.69 27.19 C 6.04 31.48 6.16 38.85 5.92 43.36 C 5.67 48.07 11.11 48.56 11.32 43.9 C 11.68 35.91 11.89 29.99 9.18 21.89 C 6.91 15.1 4.71 10.76 10.05 8.53 C 13.69 7.01 18.75 9.61 21.32 11.53 C 23.03 12.81 23.2 14.85 23.23 15.8 C 23.42 21.43 22.75 34.01 25.38 43.59 C 26.41 47.34 30.87 46.45 30.03 42.53 Z"/></svg>