<svg version="1.1" width="64.01" height="64.56" viewBox="0 0 64.01 64.56" xmlns="http://www.w3.org/2000/svg" xmlns:xlink="http://www.w3.org/1999/xlink" overflow="visible"><defs></defs><path d=" M 1.95 22.68 C 8.24 19.1 9.13 18.62 13.66 15.55 C 14.5 15.03 15.81 14.35 15.64 12.79 C 15.53 11.82 13.7 11.61 12.39 10.23 C 11.4 9.19 10.63 7.76 10.63 5.74 C 10.63 2.6 13.22 -0.12 16.49 0 C 18.94 0.08 22.3 1.78 22.13 6.19 C 21.98 10.05 19.41 9.95 19.51 12.79 C 19.58 14.82 21.06 15.42 21.06 19.96 C 21.06 30.14 21.22 59.63 21.22 61.21 C 21.23 65.59 15.85 65.78 15.84 61.1 C 15.77 41.58 15.8 29.91 15.8 24.87 C 15.8 22.24 13.93 21.46 11.98 22.54 C 8.36 24.52 5.09 26.21 3.34 27.03 C 0.79 28.23 -1.95 24.9 1.95 22.68 Z" fill-rule="evenodd" clip-rule="evenodd"/><path d=" M 62.03 59.83 C 62.03 59.83 44.39 59.83 38.61 59.83 C 36.22 59.83 35.91 58.91 36.01 57.3 C 36.84 43.57 36.82 42.18 34.28 34.5 C 32.42 28.87 30.58 25.29 35 23.45 C 38.01 22.19 42.2 24.34 44.32 25.94 C 45.73 27 45.87 28.69 45.9 29.48 C 46.06 34.14 45.5 44.55 47.68 52.48 C 48.53 55.59 52.23 54.85 51.53 51.6 C 51.15 49.8 49.95 46.17 50.14 40.55 C 50.17 39.74 50.47 39.25 51.07 38.93 C 52.33 38.26 52.75 37.51 52.85 36.34 C 52.93 35.49 52.52 34.67 51.72 33.97 C 51.14 33.47 50.85 33.34 50.7 32.6 C 50.57 31.96 50.78 28.91 50.87 28.28 C 51.13 26.44 51.48 25.59 52.53 25.56 C 53.43 25.53 53.34 26.21 55.94 27.22 C 57.33 27.76 58.92 27.59 60.6 26.8 C 63.21 25.58 64.18 22.51 63.34 19.99 C 62.6 17.77 59.18 15.26 55.56 16.99 C 52.34 18.52 52.61 21.62 50.68 22.43 C 48.01 23.54 44.28 18.21 36.3 18.21 C 30.36 18.21 25.86 22.35 26.83 28.28 C 27.36 31.52 29.23 34.61 30.58 38.9 C 31.65 42.31 32.47 44.19 31.57 57.18 C 31.48 58.52 31.22 59.84 28.76 59.84 C 28.51 59.84 27.78 59.84 27.78 59.84 C 26.69 59.84 25.8 60.73 25.8 61.82 C 25.8 62.91 26.69 63.8 27.78 63.8 L 62.05 63.8 C 63.14 63.8 64.03 62.91 64.03 61.82 C 64.01 60.72 63.13 59.83 62.03 59.83 Z"/></svg>