<svg version="1.1" width="49.26" height="64.89" viewBox="0 0 49.26 64.89" xmlns="http://www.w3.org/2000/svg" xmlns:xlink="http://www.w3.org/1999/xlink" overflow="visible"><defs></defs><path d=" M 49.05 35.99 C 48.25 35.9 46.87 35.61 46.48 35.72 C 46.38 35.74 35.08 38.56 26.85 40.61 C 26.22 40.77 25.95 40.76 25.37 40.41 C 22.43 38.63 20.14 36.64 18.14 34.09 C 17.59 33.39 16.97 32.71 16.46 32.12 C 15.16 30.62 15.8 28.94 15.8 28.94 C 15.8 28.94 16.06 28.16 17.2 27.75 C 18.58 27.27 20.31 26.69 21.83 25.46 C 22.37 25.03 22.87 24.45 23.36 23.79 C 24.67 21.98 24.47 20.87 24.49 19.84 C 24.51 18.89 24.68 18.01 25.02 17.25 C 25.36 16.49 26.64 15.57 26.58 12.8 C 26.38 5.01 22.3 0 13.68 0 C 4.91 0 0.27 5.05 0 12.67 C -0.07 14.69 1.14 15.69 1.55 16.24 C 2.24 17.17 2.67 18.44 2.67 19.85 C 2.67 19.85 2.7 21.93 2.92 22.66 C 3.36 24.12 4.54 25.3 5.73 26.19 C 7.24 27.33 8.96 27.78 10.25 28.17 C 10.25 28.17 11.61 28.36 11.65 29.29 C 11.65 29.29 11.96 30.97 10.96 32.13 L 10.97 32.13 C 10.29 32.86 9.54 33.78 8.66 34.89 C 5.13 39.32 4.48 41.62 4.56 44.13 C 4.64 46.82 6.61 50.03 7.69 52.98 C 8.55 55.33 8.75 57.25 8.22 62.91 C 7.98 65.45 11.42 65.56 11.63 63.17 C 12.33 55.5 12.08 53.4 10.46 49.2 C 9.35 46.31 8.25 43.85 9.99 40.62 C 11.03 38.69 11.83 37.63 12.86 36.45 C 14.21 34.89 15.63 36.5 16.21 37.14 C 17.78 38.89 19.29 40.26 20.85 41.43 C 21.24 41.72 21.22 42.01 20.77 42.12 C 19.45 42.45 18.59 42.67 18.42 42.71 C 17.55 42.93 16.56 44.23 16.56 44.23 C 16.56 44.23 18.14 44.91 18.92 44.71 C 19.22 44.64 20.9 44.22 23.29 43.62 C 23.86 43.48 24.14 43.59 24.57 43.81 C 25.34 44.2 25.93 44.53 26.65 44.87 C 28.43 45.72 29.89 44.19 29.13 42.86 C 28.97 42.58 28.94 42.21 29.42 42.09 C 33.96 40.96 38.93 39.72 42 38.96 C 42.49 38.84 42.62 39.09 42.49 39.54 C 41.83 41.81 41.2 43.96 40.99 44.7 C 40.86 45.15 41.11 46.48 41.18 47.29 C 41.2 47.54 41.31 47.57 41.46 47.37 C 41.94 46.72 42.87 45.67 42.97 45.27 C 43.05 44.97 43.96 41.86 44.82 38.89 C 44.94 38.47 45.17 38.17 45.69 38.04 C 46.63 37.81 46.84 37.75 46.87 37.74 C 46.89 37.74 46.91 37.73 46.95 37.72 C 47.41 37.61 48.44 36.73 49.1 36.27 C 49.33 36.13 49.3 36.02 49.05 35.99 Z M 19.62 7.5 C 21.86 7.5 23.68 9.32 23.68 11.56 C 23.68 13.8 21.86 15.62 19.62 15.62 C 17.37 15.62 15.56 13.8 15.56 11.56 C 15.56 9.32 17.38 7.5 19.62 7.5 Z M 11.37 16.8 C 11.96 14.85 12.99 13.79 13.34 13.78 C 13.73 13.76 14.9 14.85 15.49 16.8 C 16.16 19.01 15.05 19.8 14.41 19.49 C 14.05 19.32 13.76 19.12 13.54 18.79 C 13.5 18.72 13.34 18.74 13.29 18.82 C 13.08 19.14 12.79 19.32 12.44 19.49 C 11.81 19.8 10.7 19.01 11.37 16.8 Z M 3.04 11.57 C 3.04 9.32 4.86 7.51 7.1 7.51 C 9.34 7.51 11.16 9.33 11.16 11.57 C 11.16 13.81 9.34 15.63 7.1 15.63 C 4.86 15.63 3.04 13.81 3.04 11.57 Z M 13.65 25.58 C 8.65 25.58 4.74 23.14 4.74 20.03 C 4.74 19.32 5.21 18.78 5.92 18.78 C 6.33 18.78 7.02 19.21 7.23 20.06 C 7.56 21.43 10.02 23.02 13.65 23.02 C 17.28 23.02 19.78 21.39 20.16 20.03 C 20.41 19.18 20.99 18.75 21.47 18.75 C 22.18 18.75 22.56 19.32 22.56 20.03 C 22.56 23.14 18.64 25.58 13.65 25.58 Z"/></svg>