<svg version="1.1" width="60.32" height="54.05" viewBox="0 0 60.32 54.05" xmlns="http://www.w3.org/2000/svg" xmlns:xlink="http://www.w3.org/1999/xlink" overflow="visible"><defs></defs><path d=" M 57.05 5.93 C 48.15 6.38 42.95 5.39 35.37 3.71 C 33.95 3.4 33.29 2.5 33 1.7 C 32.61 0.6 31.51 -0.04 29.98 0 C 28.16 0.05 27.14 1.07 26.98 2.41 C 26.9 3.05 26.43 3.89 24.77 3.99 C 19.19 4.33 7.29 6.59 2.16 9.22 C -1.94 11.32 0.49 15.1 3.81 13.87 C 8.77 12.03 15.81 9.95 20.42 9.6 C 24.65 9.28 25.45 10.92 25.45 17.37 C 25.45 22.81 20.25 25.17 17.35 34.12 C 15.91 38.58 15.39 46.2 15.87 51.8 C 16.12 54.74 20.84 55.02 20.79 51.24 C 20.75 48.36 20.59 42.72 21.55 37.71 C 22.23 34.15 24.89 28.64 27.56 27.04 C 29.65 25.79 32.23 26.59 32.05 29.02 C 31.86 31.58 31.83 34.96 31.56 38.17 C 31 44.71 35.46 47.97 43.21 52.97 C 46.88 55.34 49.13 50.87 46.11 49.13 C 41.32 45.92 36.2 43.83 36.56 37.41 C 36.75 34 36.98 31.61 37.31 28.12 C 37.97 21.09 36.86 23.09 35.63 12.7 C 35.34 10.28 35.86 8.98 39.77 9.69 C 44.55 10.56 50.14 10.91 57.5 10.4 C 61.75 10.11 60.86 5.74 57.05 5.93 Z" fill-rule="evenodd" clip-rule="evenodd"/></svg>