<svg version="1.1" width="44.37" height="58.05" viewBox="0 0 44.37 58.05" xmlns="http://www.w3.org/2000/svg" xmlns:xlink="http://www.w3.org/1999/xlink" overflow="visible"><defs></defs><g><path d=" M 12.09 49.18 C 12.08 49.02 12.07 48.86 12.07 48.7 C 12.04 47.72 13.36 47.7 13.39 48.67 C 13.39 48.81 13.4 48.95 13.41 49.08 C 13.48 50.08 12.16 50.16 12.09 49.18 Z"/><path d=" M 12.3 46.33 C 12.34 46.17 12.38 46.02 12.42 45.87 C 12.68 44.93 13.95 45.29 13.69 46.23 C 13.65 46.36 13.62 46.5 13.59 46.63 C 13.37 47.6 12.08 47.29 12.3 46.33 Z"/><path d=" M 13.35 43.67 C 13.43 43.53 13.52 43.4 13.6 43.26 C 14.12 42.44 15.23 43.16 14.71 43.97 C 14.63 44.09 14.56 44.2 14.5 44.32 C 13.99 45.19 12.86 44.52 13.35 43.67 Z"/><path d=" M 15.13 41.44 C 15.25 41.33 15.37 41.23 15.49 41.13 C 16.23 40.5 17.08 41.51 16.33 42.14 C 16.22 42.23 16.12 42.32 16.02 42.41 C 15.3 43.08 14.41 42.1 15.13 41.44 Z"/><path d=" M 17.49 39.83 C 17.63 39.76 17.78 39.7 17.93 39.63 C 18.83 39.25 19.33 40.47 18.44 40.84 C 18.31 40.89 18.19 40.95 18.06 41.01 C 17.17 41.45 16.61 40.25 17.49 39.83 Z"/><path d=" M 20.23 38.99 C 20.39 38.96 20.55 38.95 20.71 38.93 C 21.68 38.83 21.8 40.14 20.84 40.24 C 20.7 40.25 20.56 40.27 20.43 40.29 C 19.44 40.44 19.26 39.13 20.23 38.99 Z"/><path d=" M 23.09 38.99 C 23.25 39.01 23.4 39.04 23.56 39.08 C 24.52 39.26 24.25 40.56 23.3 40.37 C 23.16 40.34 23.03 40.32 22.89 40.3 C 21.9 40.15 22.12 38.84 23.09 38.99 Z"/><path d=" M 25.82 39.84 C 25.96 39.91 26.1 39.98 26.24 40.06 C 27.1 40.52 26.46 41.68 25.61 41.21 C 25.49 41.14 25.37 41.08 25.24 41.02 C 24.35 40.59 24.93 39.41 25.82 39.84 Z"/><path d=" M 28.17 41.45 C 28.29 41.56 28.4 41.67 28.51 41.79 C 29.2 42.48 28.25 43.4 27.57 42.71 C 27.47 42.61 27.37 42.52 27.27 42.42 C 26.55 41.74 27.46 40.78 28.17 41.45 Z"/><path d=" M 29.95 43.69 C 30.03 43.83 30.1 43.97 30.18 44.11 C 30.63 44.97 29.45 45.57 29.01 44.71 C 28.95 44.59 28.88 44.47 28.81 44.35 C 28.31 43.48 29.47 42.84 29.95 43.69 Z"/><path d=" M 30.99 46.35 C 31.03 46.51 31.05 46.66 31.08 46.82 C 31.25 47.78 29.95 48 29.78 47.05 C 29.76 46.91 29.73 46.78 29.7 46.64 C 29.49 45.67 30.78 45.39 30.99 46.35 Z"/><path d=" M 31.2 49.2 C 31.19 49.36 31.17 49.52 31.15 49.68 C 31.04 50.65 29.72 50.48 29.85 49.52 C 29.87 49.38 29.88 49.25 29.89 49.11 C 29.96 48.11 31.28 48.22 31.2 49.2 Z"/><path d=" M 30.56 51.99 C 30.5 52.14 30.44 52.28 30.37 52.43 C 29.98 53.32 28.77 52.77 29.17 51.89 C 29.23 51.76 29.28 51.64 29.33 51.51 C 29.7 50.57 30.92 51.07 30.56 51.99 Z"/><path d=" M 29.13 54.46 C 29.03 54.58 28.93 54.7 28.82 54.82 C 28.18 55.56 27.19 54.67 27.83 53.95 C 27.92 53.85 28.01 53.74 28.1 53.63 C 28.72 52.86 29.74 53.69 29.13 54.46 Z"/><path d=" M 27.03 56.4 C 26.9 56.49 26.76 56.57 26.63 56.66 C 25.8 57.17 25.12 56.04 25.94 55.54 C 26.06 55.47 26.17 55.39 26.29 55.31 C 27.11 54.75 27.84 55.85 27.03 56.4 Z"/><path d=" M 24.45 57.63 C 24.3 57.68 24.15 57.72 23.99 57.76 C 23.05 58.01 22.73 56.72 23.67 56.49 C 23.8 56.46 23.94 56.42 24.07 56.38 C 25.02 56.08 25.39 57.35 24.45 57.63 Z"/><path d=" M 21.62 58.05 C 21.46 58.05 21.3 58.04 21.14 58.04 C 20.17 58 20.24 56.67 21.21 56.73 C 21.35 56.74 21.49 56.74 21.62 56.74 C 22.62 56.73 22.61 58.06 21.62 58.05 Z"/><path d=" M 18.8 57.62 C 18.65 57.58 18.5 57.52 18.35 57.47 C 17.43 57.14 17.89 55.9 18.8 56.23 C 18.93 56.28 19.06 56.32 19.19 56.36 C 20.14 56.66 19.74 57.91 18.8 57.62 Z"/><path d=" M 16.23 56.37 C 16.1 56.28 15.97 56.19 15.84 56.09 C 15.06 55.51 15.87 54.46 16.63 55.04 C 16.74 55.12 16.85 55.2 16.97 55.28 C 17.8 55.85 17.04 56.93 16.23 56.37 Z"/><path d=" M 14.14 54.42 C 14.04 54.3 13.95 54.17 13.85 54.04 C 13.28 53.25 14.36 52.49 14.92 53.27 C 15 53.38 15.09 53.49 15.17 53.6 C 15.79 54.39 14.75 55.19 14.14 54.42 Z"/><path d=" M 12.72 51.94 C 12.66 51.79 12.61 51.64 12.56 51.49 C 12.24 50.57 13.5 50.16 13.81 51.07 C 13.85 51.2 13.9 51.33 13.95 51.46 C 14.31 52.39 13.07 52.86 12.72 51.94 Z"/><path d=" M 21.65 53.87 C 18.66 53.87 16.23 51.44 16.23 48.46 C 16.23 45.47 18.66 43.04 21.65 43.04 C 24.64 43.04 27.06 45.47 27.06 48.46 C 27.07 51.44 24.64 53.87 21.65 53.87 Z" fill-rule="evenodd" clip-rule="evenodd"/></g><path d=" M 37.87 36.67 C 36.01 33.58 35.14 31.73 33.84 27.2 C 33.59 26.35 34.26 25.76 34.74 25.18 C 35.47 24.29 35.65 23.26 35.48 22.43 C 35.27 21.41 34.73 20.71 33.74 20.1 C 33.03 19.66 32.51 19.66 32.21 18.89 C 31.95 18.22 31.65 14.88 31.63 14.18 C 31.58 12.14 31.82 11.16 32.94 10.94 C 33.91 10.75 33.93 11.5 36.92 12.14 C 38.52 12.48 40.21 12.01 41.89 10.86 C 44.5 9.07 45 5.58 43.64 3 C 42.45 0.73 38.3 -1.38 34.68 1.13 C 31.47 3.36 32.39 6.81 30.36 7.88 C 28.38 8.92 22.14 4.84 10.68 6.11 C 4.27 6.83 -0.07 10.28 0 16.87 C 0.04 20.47 1.56 24.14 2.31 29.01 C 2.93 33.04 2.03 39.68 1.2 43.7 C 0.33 47.89 5.14 49.07 5.97 44.92 C 7.39 37.8 8.39 32.51 7.07 24.87 C 5.96 18.47 4.52 13.86 10.12 12.08 C 13.65 10.95 21.54 11.49 24.12 12.84 C 25.84 13.74 26.28 15.54 26.46 16.39 C 28.67 26.52 30.46 33.18 34.22 39 C 36.12 41.97 39.83 39.95 37.87 36.67 Z"/></svg>