<svg version="1.1" width="58.27" height="61.1" viewBox="0 0 58.27 61.1" xmlns="http://www.w3.org/2000/svg" xmlns:xlink="http://www.w3.org/1999/xlink" overflow="visible"><defs></defs><g><path d=" M 1.62 47.88 C -0.54 47.88 -0.54 45.18 1.62 45.18 C 7.35 45.18 8.2 40 8.2 36.91 L 8.2 23.65 C 8.2 17.14 12.65 13.7 18.94 13.7 L 33.33 13.7 C 35.22 13.7 35.22 16.4 33.33 16.4 L 18.94 16.4 C 14.16 16.4 10.9 18.64 10.9 23.66 L 10.9 36.92 C 10.9 43.78 7.43 47.88 1.62 47.88 Z"/></g><g><path d=" M 15.14 40.65 L 15.14 28.37 C 15.14 24.17 18.56 20.76 22.75 20.76 L 23.58 20.76 C 27.78 20.76 31.19 24.17 31.19 28.37 L 31.19 40.65 C 31.19 44.85 27.77 48.27 23.58 48.27 L 22.75 48.27 C 18.56 48.26 15.14 44.85 15.14 40.65 Z M 22.75 23.45 C 20.04 23.45 17.83 25.66 17.83 28.38 L 17.83 40.66 C 17.83 43.38 20.04 45.59 22.75 45.59 L 23.58 45.59 C 26.3 45.59 28.5 43.38 28.5 40.66 L 28.5 28.37 C 28.5 25.65 26.29 23.44 23.58 23.44 L 22.75 23.44 Z" fill="#030000"/></g><path d=" M 49.9 22.24 C 54.9 20.59 57.75 16.82 58.22 11.8 C 58.78 5.9 54.77 0.8 48.59 0.07 C 43.12 -0.57 38.75 2.92 37.27 7.79 C 36.63 9.9 37.26 12.17 40.02 11.78 C 52.28 10.04 53.53 13.09 52.64 15.5 C 50.99 19.93 44.44 20.24 40.39 16.93 C 39.13 15.9 38.3 16.92 38.75 17.76 C 39.38 18.92 40.33 19.77 41.31 20.35 C 43.23 21.49 45.73 22.25 45.32 23.79 C 45.12 24.55 44.45 25.23 43.31 26.89 C 41.77 29.12 39.6 31.4 36.95 33.33 C 34.48 35.13 36.62 38.27 39.17 36.51 C 41.3 35.04 43.39 33.3 45.71 30.99 C 46.87 29.83 48.04 29.34 49.46 31.39 C 50 32.17 50.42 32.87 51.07 33.86 C 53.33 37.35 53.2 38.54 51.71 42.37 C 49.83 47.19 49.39 49.27 50 59.03 C 50.17 61.78 53.86 61.85 53.76 58.73 C 53.51 50.81 53.69 49.33 54.68 46.63 C 55.93 43.23 57.19 40.75 57.38 38.59 C 57.59 36.21 57.03 34.6 53.36 29.22 C 51.79 26.93 50.76 25.77 50.02 25.11 C 48 23.29 49.14 22.49 49.9 22.24 Z" fill-rule="evenodd" clip-rule="evenodd"/></svg>