<svg version="1.1" width="57.19" height="61.46" viewBox="0 0 57.19 61.46" xmlns="http://www.w3.org/2000/svg" xmlns:xlink="http://www.w3.org/1999/xlink" overflow="visible"><defs></defs><path d=" M 55.87 22.3 C 50.68 18.91 43.07 16.13 33.22 17.63 C 30.49 18.05 29.54 14.87 31.9 13.52 C 34.3 12.15 35.67 9.79 35.58 6.6 C 35.45 2.86 32.53 -0.03 28.6 0 C 24.66 -0.03 21.74 2.86 21.63 6.61 C 21.53 9.8 22.91 12.15 25.31 13.53 C 27.66 14.88 26.72 18.05 23.99 17.64 C 14.14 16.14 6.52 18.91 1.34 22.31 C -1.57 24.21 0.72 28.33 4.21 26.44 C 7.72 24.54 11.59 21.43 19.31 22.57 C 24.38 23.32 24.65 23.66 24.62 30.04 C 24.6 33.79 23.93 35.07 19.44 36.14 C 9.3 38.55 5.37 44.88 5.37 57.65 C 5.37 62.4 11.46 63.07 11.46 57.63 C 11.46 46.82 14.19 43.04 20.92 41.33 C 26.26 39.97 31.15 40.02 36.29 41.33 C 43.01 43.04 45.75 46.82 45.75 57.63 C 45.75 63.06 51.84 62.4 51.84 57.65 C 51.84 44.88 47.91 38.55 37.78 36.13 C 33.28 35.06 32.61 33.79 32.6 30.03 C 32.57 23.65 32.84 23.32 37.91 22.56 C 45.63 21.41 49.49 24.53 53.01 26.43 C 56.49 28.32 58.78 24.2 55.87 22.3 Z"/></svg>