<svg version="1.1" width="63.4" height="63.7" viewBox="0 0 63.4 63.7" xmlns="http://www.w3.org/2000/svg" xmlns:xlink="http://www.w3.org/1999/xlink" overflow="visible"><defs></defs><g><g><path d=" M 40.06 18.43 C 40.06 13.1 35.84 13.76 35.85 11.32 C 35.87 8.8 38.4 8.53 38.34 5.08 C 38.27 1.59 35.59 -0.03 33.04 0.01 C 30.28 0.05 27.94 2.13 27.94 5.2 C 27.94 7.39 28.88 8.66 29.76 9.37 C 30.91 10.31 32.43 10.37 32.48 11.54 C 32.53 12.76 31.46 13.3 30.67 13.35 C 25.35 13.66 21.47 13.4 17.11 12.6 C 14.07 12.04 13.41 16.1 16.25 16.59 C 18.85 17.04 21.47 17.36 23.56 17.61 C 26.94 18.02 27.18 19.61 27.18 21.7 C 27.18 22.95 27.18 24.55 27.15 26.53 C 27.14 27.47 27.34 29.23 25.48 32.19 C 22.57 36.8 21.31 38.61 19.17 42.07 C 17.25 45.16 20.87 47.69 23.01 44.28 C 23.37 43.7 25.25 40.92 29.05 34.91 C 30.19 33.1 30.72 32.85 32.79 32.85 C 34.89 32.85 35.69 33.34 35.69 35.49 C 35.69 39.31 35.71 54.29 35.71 61.09 C 35.71 64.59 40.07 64.59 40.07 61.17 C 40.05 60.17 40.06 19.39 40.06 18.43 Z M 35.69 27.27 C 35.69 28.36 35.34 28.73 34.23 28.73 C 33.76 28.73 32.82 28.73 32.35 28.73 C 31.27 28.73 30.9 28.36 30.9 27.29 C 30.9 25.29 30.9 21.29 30.9 19.29 C 30.9 18.22 31.26 17.82 32.36 17.82 C 32.82 17.82 33.76 17.82 34.23 17.82 C 35.29 17.82 35.69 18.19 35.69 19.27 C 35.69 21.27 35.69 25.27 35.69 27.27 Z"/></g><path d=" M 33.48 22.51 L 33.11 22.51 C 32.42 22.51 31.86 21.95 31.86 21.26 C 31.86 20.57 32.42 20.01 33.11 20.01 L 33.48 20.01 C 34.17 20.01 34.73 20.57 34.73 21.26 C 34.74 21.95 34.18 22.51 33.48 22.51 Z"/><path d=" M 33.48 26.79 L 33.11 26.79 C 32.42 26.79 31.86 26.23 31.86 25.54 C 31.86 24.85 32.42 24.29 33.11 24.29 L 33.48 24.29 C 34.17 24.29 34.73 24.85 34.73 25.54 C 34.74 26.23 34.18 26.79 33.48 26.79 Z"/></g><path d=" M 49.84 36.13 L 45.93 37.27 C 45.23 37.48 44.49 37.07 44.29 36.37 C 44.09 35.67 44.49 34.93 45.19 34.73 L 49.11 33.59 C 49.67 33.43 50.82 33.95 51.28 34.18 C 51.4 34.24 51.4 34.38 51.35 34.46 C 51.11 34.85 50.42 35.96 49.84 36.13 Z"/><path d=" M 62.73 39.3 C 62.14 38.59 59.42 35.65 58.93 31.5 C 58.43 27.24 61.7 27.71 63.12 21.08 C 64.01 16.94 62.93 13.12 57.82 9.71 C 55.87 8.41 54.19 10.9 56.14 12.21 C 60.24 14.96 60.58 18.1 59.97 20.74 C 59.34 23.48 58.18 22.65 58 21.6 C 57.14 16.59 55.7 13.84 50.64 10.31 C 49.96 9.83 48.95 9.92 48.47 10.6 C 47.99 11.28 48.24 12.3 48.92 12.77 C 53.93 16.26 54.45 18.85 55.02 22.26 C 55.62 25.8 53.13 26.1 51.47 24.42 C 49.48 22.41 47.86 21.88 45.45 21.08 C 44.66 20.82 43.82 21.26 43.56 22.04 C 43.3 22.82 43.75 23.63 44.51 23.94 C 47.85 25.3 48.22 25.86 49.95 27.49 C 52.4 29.8 53.95 28.58 55.26 32.42 C 56.53 36.17 57.8 39.27 60.13 41.49 C 61.96 43.23 64.22 41.09 62.73 39.3 Z" fill="#030000"/><path d=" M 14.12 3.02 L 8.63 3.02 C 6.04 3.02 6.04 6.58 8.63 6.58 C 9.66 6.58 10.32 7.13 10.6 7.48 C 11.55 8.65 11.35 8.64 12.28 7.46 C 12.62 7.03 13.12 6.58 14.12 6.58 C 16.85 6.58 16.85 3.02 14.12 3.02 Z" fill-rule="evenodd" clip-rule="evenodd"/><path d=" M 9.59 13.43 L 2.48 13.43 C 0.92 13.43 0.92 15.65 2.48 15.65 L 9.6 15.65 C 11.22 15.65 11.22 13.43 9.59 13.43 Z"/><path d=" M 18.32 49.41 C 16.96 49.09 16.15 47.76 13.79 47.83 C 13.19 47.85 12.25 48.47 12.25 47.5 C 12.25 36.5 12.96 35.81 14.3 34.66 C 15.53 33.6 17.19 33.45 18.22 33.67 C 19.79 34 20.29 31.93 18.76 31.54 C 18.64 31.51 15.7 30.78 12.95 32.93 C 11.36 34.17 10.81 34.06 9.35 32.93 C 6.59 30.79 3.66 31.51 3.54 31.54 C 2.06 31.91 2.43 34.11 4.07 33.67 C 4.96 33.43 6.8 33.52 8 34.66 C 9.02 35.63 10.05 36.44 10.05 47.53 C 10.05 48.53 9.06 47.85 8.4 47.84 C 6.17 47.8 5.13 49.28 3.95 49.42 C 0.95 49.76 -0.35 51.39 0.87 54.89 C 3.31 61.91 3.92 63.65 11.1 63.65 C 18.32 63.65 18.85 61.48 21.31 54.99 C 22.72 51.24 21.35 50.13 18.32 49.41 Z M 18.96 54.12 C 18.82 54.57 18.64 55 18.5 55.4 C 17 59.67 16.54 60.97 11.1 61.14 C 5.4 60.96 4.99 59.65 3.46 54.81 L 3.25 54.13 C 2.85 52.81 3.03 51.98 4.14 51.9 C 5.09 51.83 5.88 51.44 6.53 51.02 C 7.76 50.24 8.77 50.37 9.43 50.82 C 10.97 51.88 11.39 51.79 12.8 50.82 C 14.05 49.96 15.12 50.67 15.79 51.03 C 16.42 51.38 17.14 51.77 18.01 51.89 C 19.19 52.05 19.4 52.7 18.96 54.12 Z" fill="#030000"/><path d=" M 15.65 24.55 C 15.41 25.33 14.63 25.75 13.78 26.49 C 13.72 26.55 13.69 26.5 13.68 26.47 C 13.04 25.1 12.77 24.75 12.96 23.84 C 13.38 21.9 16.28 22.5 15.65 24.55 Z" fill-rule="evenodd" clip-rule="evenodd"/><path d=" M 9.18 23.84 C 9.36 24.64 8.94 25.39 8.54 26.45 C 8.53 26.48 8.48 26.52 8.45 26.5 C 7.17 25.6 6.79 25.45 6.5 24.57 C 5.91 22.71 8.7 21.92 9.18 23.84 Z" fill-rule="evenodd" clip-rule="evenodd"/><path d=" M 2.57 21.95 C 3.07 22.6 2.97 23.47 3.09 24.61 C 3.1 24.68 3.05 24.67 3.02 24.67 C 1.53 24.41 1.09 24.42 0.45 23.75 C -0.97 22.21 1.28 20.28 2.57 21.95 Z" fill-rule="evenodd" clip-rule="evenodd"/><path d=" M 19.78 21.95 C 19.28 22.6 19.38 23.47 19.26 24.61 C 19.25 24.68 19.3 24.67 19.33 24.67 C 20.82 24.41 21.26 24.42 21.9 23.75 C 23.26 22.28 21.11 20.24 19.78 21.95 Z" fill-rule="evenodd" clip-rule="evenodd"/></svg>