<svg version="1.1" width="60.21" height="61.38" viewBox="0 0 60.21 61.38" xmlns="http://www.w3.org/2000/svg" xmlns:xlink="http://www.w3.org/1999/xlink" overflow="visible"><defs></defs><g><path d=" M 58.62 15.8 C 55.08 14.26 51.47 13.45 45.93 12.98 C 44.56 12.86 43.99 10.9 45.73 10.1 C 47.11 9.46 48.58 7.54 48.55 5.29 C 48.51 2.38 46.51 0.02 43.48 0 C 40.5 -0.02 38 1.97 38 5.06 C 38 7.48 39.16 9.2 40.98 10.24 C 42.45 11.08 41.9 12.86 40.62 12.95 C 35.08 13.34 31.47 14.24 27.93 15.77 C 25.1 17 26.42 20.15 29.02 19.2 C 31.38 18.34 33.75 17.75 36.6 17.76 C 38.13 17.77 39.29 18.13 39.29 20.68 C 39.29 20.88 39.3 30.35 39.3 30.52 C 39.3 32 38.91 33.27 37.99 34.45 L 37.99 34.45 C 36.9 35.85 35.82 37.25 35.14 38.24 C 32.09 42.63 32.49 46.35 36.34 49.3 C 37.22 49.98 38.15 50.7 38.9 51.26 C 39.93 52.04 40.05 52.65 38.89 53.55 C 35 56.57 32.82 58.1 32.78 58.13 C 31.99 58.72 31.82 59.83 32.41 60.63 C 32.76 61.1 33.3 61.35 33.85 61.35 C 34.22 61.35 34.59 61.24 34.91 61 C 34.95 60.97 37.57 59.03 41.72 55.89 C 42.69 55.16 44.03 55.16 45 55.89 C 49.16 59.03 51.77 60.97 51.81 61 C 52.13 61.24 52.5 61.35 52.87 61.35 C 53.42 61.35 53.96 61.1 54.31 60.63 C 54.9 59.84 54.73 58.72 53.94 58.13 C 53.9 58.1 51.58 56.38 47.83 53.55 C 46.67 52.65 46.79 52.04 47.82 51.26 C 48.65 50.63 49.5 49.97 50.38 49.3 C 54.22 46.34 54.62 42.62 51.58 38.24 C 50.89 37.25 49.8 35.82 48.69 34.41 C 47.65 33.1 47.29 31.98 47.29 30.64 C 47.29 30.52 47.28 20.83 47.29 20.69 C 47.29 18.14 48.45 17.78 49.98 17.77 C 52.82 17.76 55.2 18.35 57.56 19.21 C 60.13 20.18 61.45 17.03 58.62 15.8 Z M 48.62 40.3 C 50.58 43.12 50.46 44.74 48.18 46.5 C 47.07 47.35 46.01 48.17 44.99 48.95 C 44.02 49.69 42.69 49.69 41.72 48.95 C 40.7 48.17 39.63 47.35 38.53 46.5 C 36.25 44.74 36.13 43.12 38.09 40.3 C 38.88 39.16 40.29 37.35 41.6 35.7 C 42.5 34.56 44.23 34.56 45.13 35.7 C 46.42 37.34 47.82 39.15 48.62 40.3 Z"/></g><g><path d=" M 10.66 29.11 C 8.43 29.11 5.55 29.11 4.03 29.11 C 3 29.11 2.77 29.28 2.77 30.42 C 2.77 31.58 2.97 32.74 4.05 32.74 C 5.56 32.74 8.42 32.74 10.63 32.74 C 11.59 32.74 11.85 31.38 11.85 30.37 C 11.84 29.68 11.71 29.11 10.66 29.11 Z" fill="none"/><path d=" M 10.31 37.36 C 8.07 37.36 5.44 37.36 4.17 37.36 C 2.97 37.36 2.77 37.56 2.77 38.64 C 2.77 39.76 3.02 40.99 4.19 40.99 C 5.47 40.99 8.09 40.99 10.33 40.99 C 11.71 40.99 11.85 39.57 11.85 38.66 C 11.84 37.62 11.56 37.36 10.31 37.36 Z" fill="none"/><path d=" M 22.83 37.36 C 21.6 37.36 18.71 37.36 16.6 37.36 C 15.57 37.36 15.15 37.62 15.15 38.61 C 15.15 39.7 15.4 40.98 16.67 40.98 C 18.78 40.98 21.67 40.98 22.9 40.98 C 24 40.98 24.27 39.79 24.27 38.72 C 24.28 37.62 24.11 37.36 22.83 37.36 Z" fill="none"/><path d=" M 22.98 24.48 C 21.58 24.48 17.7 24.48 16.28 24.48 C 15.47 24.48 15.14 24.2 15.14 23.47 C 15.14 23.16 15.14 21.99 15.14 21.99 C 15.14 21.4 15.22 20.75 16.3 20.75 C 17.6 20.75 19.49 20.75 19.49 20.75 C 20.76 20.75 22 19.72 22 18.44 C 22 17.17 20.97 16.13 19.69 16.13 C 19.69 16.13 17.57 16.13 16.19 16.13 C 15.35 16.13 15.14 15.69 15.14 15.08 C 15.14 14.67 15.14 8.45 15.14 8.45 C 15.14 7.54 14.4 6.8 13.49 6.8 C 12.58 6.8 11.84 7.54 11.84 8.45 C 11.84 8.45 11.84 14.67 11.84 15.08 C 11.84 15.82 11.72 16.13 10.8 16.13 C 9.42 16.13 7.29 16.13 7.29 16.13 C 6.02 16.13 4.98 17.16 4.98 18.44 C 4.98 19.71 6.01 20.75 7.29 20.75 C 7.29 20.75 9.31 20.75 10.64 20.75 C 11.71 20.75 11.83 21.41 11.83 22.01 C 11.83 22.01 11.83 23.32 11.83 23.43 C 11.83 24.04 11.56 24.49 10.75 24.49 C 8.52 24.49 6.45 24.49 4.93 24.49 C 1.98 24.48 0 24.9 0 28.1 C 0 31.05 0 38.95 0 41.91 C 0 45.34 1.03 45.62 3.9 45.62 C 5.41 45.62 9.28 45.62 10.74 45.62 C 11.47 45.62 11.84 45.95 11.84 46.68 C 11.84 46.91 11.84 48.59 11.84 48.59 C 11.84 49.11 11.58 49.49 10.96 49.49 C 9.54 49.49 7.29 49.49 7.29 49.49 C 6.02 49.49 4.98 50.52 4.98 51.8 C 4.98 53.07 6.01 54.11 7.29 54.11 C 7.29 54.11 9.49 54.11 10.89 54.11 C 11.42 54.11 11.84 54.42 11.84 55.05 C 11.84 55.47 11.84 59.73 11.84 59.73 C 11.84 60.64 12.58 61.38 13.49 61.38 C 14.4 61.38 15.14 60.64 15.14 59.73 C 15.14 59.73 15.14 55.47 15.14 55.05 C 15.14 54.45 15.57 54.11 16.17 54.11 C 17.55 54.11 19.69 54.11 19.69 54.11 C 20.96 54.11 22 53.08 22 51.8 C 22 50.53 20.97 49.49 19.69 49.49 C 19.69 49.49 17.46 49.49 16.05 49.49 C 15.7 49.49 15.14 49.4 15.14 48.58 C 15.14 48.58 15.14 46.91 15.14 46.68 C 15.14 46.01 15.42 45.62 16.22 45.62 C 17.65 45.62 21.6 45.62 22.94 45.62 C 25.53 45.62 27 45.09 27 41.91 C 27 38.97 27 31.08 27 28.14 C 27 25.58 26.95 24.48 22.98 24.48 Z M 24.28 31.37 C 24.28 32.12 24.29 32.74 23.01 32.74 C 21.58 32.74 18.49 32.74 16.42 32.74 C 15.16 32.74 15.15 32.14 15.15 31.4 L 15.15 30.45 C 15.15 30.46 15.15 30.45 15.15 30.45 C 15.15 30.45 15.15 30.45 15.15 30.45 C 15.15 29.72 15.16 29.12 16.42 29.12 C 18.5 29.12 21.58 29.12 23.01 29.12 C 24.29 29.12 24.28 29.74 24.28 30.49 L 24.28 31.37 Z M 24.28 39.62 C 24.28 40.37 24.29 40.99 23.01 40.99 C 21.58 40.99 18.49 40.99 16.42 40.99 C 15.16 40.99 15.15 40.39 15.15 39.66 L 15.15 38.7 C 15.15 38.71 15.15 38.7 15.15 38.7 C 15.15 38.7 15.15 38.7 15.15 38.7 C 15.15 37.97 15.16 37.37 16.42 37.37 C 18.5 37.37 21.58 37.37 23.01 37.37 C 24.29 37.37 24.28 37.99 24.28 38.74 L 24.28 39.62 Z M 11.87 31.37 C 11.87 32.12 11.88 32.74 10.6 32.74 C 9.17 32.74 6.08 32.74 4.01 32.74 C 2.75 32.74 2.74 32.14 2.74 31.4 L 2.74 30.45 C 2.74 30.46 2.74 30.45 2.74 30.45 C 2.74 30.45 2.74 30.45 2.74 30.45 C 2.74 29.72 2.75 29.12 4.01 29.12 C 6.09 29.12 9.17 29.12 10.6 29.12 C 11.88 29.12 11.87 29.74 11.87 30.49 L 11.87 31.37 Z M 11.87 39.62 C 11.87 40.37 11.88 40.99 10.6 40.99 C 9.17 40.99 6.08 40.99 4.01 40.99 C 2.75 40.99 2.74 40.39 2.74 39.66 L 2.74 38.7 C 2.74 38.71 2.74 38.7 2.74 38.7 C 2.74 38.7 2.74 38.7 2.74 38.7 C 2.74 37.97 2.75 37.37 4.01 37.37 C 6.09 37.37 9.17 37.37 10.6 37.37 C 11.88 37.37 11.87 37.99 11.87 38.74 L 11.87 39.62 Z" fill="#030000"/></g><path d=" M 13.16 30.47 C 13.16 30.46 13.16 30.44 13.16 30.43 L 13.16 30.47 Z" fill="#030000"/></svg>