<svg version="1.1" width="63.1" height="64.73" viewBox="0 0 63.1 64.73" xmlns="http://www.w3.org/2000/svg" xmlns:xlink="http://www.w3.org/1999/xlink" overflow="visible"><defs></defs><path d=" M 53.45 64.64 C 55.46 64.64 57.89 64.51 60.89 64.24 C 63.91 63.97 63.76 60.49 60.81 60.49 C 60.63 60.49 54.17 60.92 52.24 60.92 C 49.12 60.92 50.03 59.16 51.09 58.11 C 58.83 50.37 61.61 47.66 62.13 45.18 C 62.68 42.57 61.75 40.34 54.96 28.32 C 52.77 24.44 51.33 24.11 51.27 22.38 C 51.23 21.11 51.69 20.4 52.27 19.66 C 52.96 18.78 53.81 17.7 53.76 15.54 C 53.65 11.41 50.49 10.31 48.64 10.31 C 45.88 10.31 43.54 12.62 43.54 15.36 C 43.54 18.1 44.79 19.89 46.87 21.13 C 48.64 22.19 48.4 23.24 47.75 25.43 C 47.32 26.86 46.61 29.25 46.21 34.54 C 45.73 40.93 45.59 46.94 43.59 51.91 C 42.43 54.77 45.72 56.01 46.84 53.23 C 49.32 47.08 49.77 40.96 50.02 35.55 C 50.13 33.25 50.49 32.31 51.26 32.31 C 52.34 32.31 53.32 34.76 56.45 40.71 C 57.78 43.24 57.49 44.54 55.44 46.82 C 54.85 47.47 49.78 52.85 47.45 55.44 C 44.8 58.37 44.15 60.55 45.32 62.48 C 46.21 63.94 48.87 64.64 53.45 64.64 Z" fill-rule="evenodd" clip-rule="evenodd"/><path d=" M 28.81 64.64 C 26.81 64.64 24.37 64.51 21.37 64.24 C 18.35 63.97 18.5 60.49 21.45 60.49 C 21.63 60.49 28.09 60.92 30.02 60.92 C 33.14 60.92 32.23 59.16 31.17 58.11 C 23.43 50.37 20.65 47.66 20.13 45.18 C 19.58 42.57 20.51 40.34 27.3 28.32 C 29.49 24.44 30.93 24.11 30.99 22.38 C 31.03 21.11 30.57 20.4 29.99 19.66 C 29.3 18.78 28.45 17.7 28.51 15.54 C 28.62 11.41 31.78 10.31 33.63 10.31 C 36.39 10.31 38.73 12.62 38.73 15.36 C 38.73 18.1 37.48 19.89 35.4 21.13 C 33.63 22.19 33.87 23.24 34.52 25.43 C 34.95 26.86 35.66 29.25 36.06 34.54 C 36.54 40.93 36.88 46.92 38.88 51.88 C 40.04 54.74 36.75 55.98 35.63 53.2 C 33.15 47.05 32.5 40.96 32.25 35.55 C 32.14 33.25 31.79 32.31 31.01 32.31 C 29.93 32.31 28.94 34.76 25.81 40.71 C 24.48 43.24 24.77 44.54 26.83 46.82 C 27.42 47.47 32.49 52.85 34.82 55.44 C 37.47 58.37 38.13 60.55 36.95 62.48 C 36.05 63.94 33.39 64.64 28.81 64.64 Z" fill-rule="evenodd" clip-rule="evenodd"/><path d=" M 17.73 16.97 C 20.45 14.74 23.85 11.96 25.03 5.75 C 25.4 3.82 22.95 3.35 22.58 5.28 C 21.57 10.6 18.81 12.86 16.15 15.04 C 14.46 16.42 13.77 15.69 13.77 14.17 C 13.77 10.97 13.77 1.36 13.77 1.36 C 13.77 -0.46 11.28 -0.46 11.28 1.36 C 11.28 1.36 11.28 11.02 11.28 14.24 C 11.28 16 10.47 16.31 8.91 15.03 C 6.25 12.86 3.5 10.6 2.48 5.28 C 2.11 3.3 -0.33 3.77 0.04 5.74 C 1.22 11.95 4.62 14.73 7.34 16.96 C 9.52 18.75 11.13 20.07 11.28 22.63 C 11.28 22.63 11.29 48.7 11.29 48.72 C 11.23 51.44 9.59 52.79 7.34 54.63 C 6.2 55.56 5.01 56.65 3.78 57.93 C 2.37 59.41 4.14 61.22 5.56 59.67 C 6.55 58.59 7.76 57.51 8.91 56.56 C 10.6 55.18 11.29 55.9 11.29 57.43 C 11.29 60.63 11.29 63.4 11.29 63.4 C 11.29 65.17 13.78 65.17 13.78 63.4 C 13.78 63.4 13.78 60.57 13.78 57.35 C 13.78 55.6 14.59 55.28 16.14 56.56 C 16.71 57.03 17.28 57.5 17.84 58 C 19.13 59.15 20.81 57.33 19.48 56.13 C 18.88 55.59 18.28 55.1 17.71 54.63 C 15.52 52.84 13.92 51.52 13.77 48.97 C 13.77 48.97 13.76 22.9 13.76 22.88 C 13.84 20.16 15.48 18.82 17.73 16.97 Z" fill="#030000"/></svg>