<svg version="1.1" width="49.36" height="60.7" viewBox="0 0 49.36 60.7" xmlns="http://www.w3.org/2000/svg" xmlns:xlink="http://www.w3.org/1999/xlink" overflow="visible"><defs></defs><path d=" M 45.53 56.3 C 40 50.59 35.53 47.41 29.83 44.96 C 28.32 44.31 27.57 43.62 27.57 41.15 C 27.57 38.24 28.21 37.76 32.44 38.03 C 34.54 38.16 38.95 37.83 40.44 37.64 C 45.79 36.97 44.04 32.14 40.01 32.79 C 38.02 33.11 32.24 33.42 27.34 33.11 C 25.64 33 23.63 33.01 21.9 33.11 C 16.29 33.44 10.91 32.89 8.97 32.45 C 5.78 31.73 4.12 36.06 8.38 37.33 C 10.01 37.81 14.23 38.19 16.8 38.03 C 21.03 37.76 21.67 38.24 21.67 41.15 C 21.67 43.62 20.91 44.31 19.41 44.96 C 13.7 47.41 9.24 50.59 3.71 56.3 C 1.34 58.74 4.28 62.62 7.51 59.59 C 15.02 51.19 20.15 48.75 24.63 48.75 C 29.11 48.75 34.24 51.19 41.75 59.59 C 44.96 62.62 47.9 58.74 45.53 56.3 Z" fill="#030000" fill-rule="evenodd" clip-rule="evenodd"/><g><path d=" M 24.9 0 C 16.73 -0.06 10.94 5.59 10.71 12.92 C 10.53 18.41 12.72 22.44 16.67 25.18 C 21.55 28.57 29.1 27.68 33.41 24.49 C 36.24 22.39 38.43 18.52 38.36 13.94 C 38.25 6.45 33.2 0.06 24.9 0 Z M 24.68 11.92 C 25.53 11.92 26.01 12.06 26.01 14.09 C 26.01 16.59 25.72 16.97 24.72 16.97 C 23.78 16.97 23.31 16.64 23.31 14.09 C 23.3 12.11 23.92 11.92 24.68 11.92 Z M 16.02 11.63 C 16.02 10.69 16.78 9.92 17.73 9.92 C 18.67 9.92 19.44 10.68 19.44 11.63 C 19.44 12.58 18.67 13.34 17.73 13.34 C 16.78 13.34 16.02 12.57 16.02 11.63 Z M 29.12 21.02 C 28.33 21.2 26.44 21.34 24.73 21.34 C 23.02 21.34 21.13 21.2 20.34 21.02 C 18.9 20.68 18.05 19.64 18.05 18.23 C 18.05 17.82 18.39 17.48 18.8 17.48 C 19.21 17.48 19.55 17.82 19.55 18.23 C 19.55 18.95 19.92 19.38 20.68 19.56 C 21.27 19.7 22.98 19.84 24.73 19.84 C 26.48 19.84 28.19 19.69 28.78 19.56 C 29.54 19.38 29.91 18.95 29.91 18.23 C 29.91 17.82 30.25 17.48 30.66 17.48 C 31.07 17.48 31.41 17.82 31.41 18.23 C 31.41 19.65 30.56 20.69 29.12 21.02 Z M 31.61 13.34 C 30.66 13.34 29.9 12.57 29.9 11.63 C 29.9 10.69 30.67 9.92 31.61 9.92 C 32.55 9.92 33.32 10.68 33.32 11.63 C 33.32 12.57 32.56 13.34 31.61 13.34 Z" fill="#030000"/></g><path d=" M 3.1 35.16 C 3.68 34.91 3.68 34.14 3.62 33.71 C 3.62 33.69 3.44 31.26 3.74 28.3 C 3.78 27.93 3.97 27.28 4.84 27.08 C 6.22 26.77 8.76 26.95 11.58 24.85 C 11.97 24.56 12.06 23.84 11.71 23.49 C 11.39 23.16 10.69 23.33 10.28 23.63 C 9.6 24.13 8.56 24.65 6.73 24.95 C 5.86 25.1 5.27 25.04 4.91 24.64 C 4.23 23.88 4.57 22.35 4.68 22 C 5.62 19.29 8.66 17.87 8.69 17.85 C 9.21 17.56 9.4 16.89 9.2 16.49 C 8.91 15.92 8.21 16.08 7.95 16.23 C 7.31 16.6 4.42 17.96 3 21.41 C 2.71 22.11 2.07 22.01 1.86 20.79 C 1.37 17.9 4.25 16.35 4.36 16.27 C 4.89 15.93 5.08 15.35 4.84 14.91 C 4.57 14.41 3.97 14.43 3.53 14.69 C 2 15.57 -0.53 17.78 0.11 21.12 C 0.35 22.37 0.73 23.44 1.24 24.3 C 1.48 24.7 2.07 25.98 1.96 27.13 C 1.67 30.06 1.72 32.02 1.86 33.92 C 1.91 34.78 2.27 35.51 3.1 35.16 Z" fill="#030000"/><path d=" M 46.27 35.16 C 45.69 34.91 45.69 34.14 45.75 33.71 C 45.75 33.69 45.93 31.26 45.63 28.3 C 45.59 27.93 45.4 27.28 44.53 27.08 C 43.15 26.77 40.61 26.95 37.79 24.85 C 37.4 24.56 37.31 23.84 37.66 23.49 C 37.98 23.16 38.68 23.33 39.09 23.63 C 39.77 24.13 40.81 24.65 42.64 24.95 C 43.51 25.1 44.1 25.04 44.46 24.64 C 45.14 23.88 44.8 22.35 44.69 22 C 43.75 19.29 40.71 17.87 40.68 17.85 C 40.16 17.56 39.97 16.89 40.17 16.49 C 40.46 15.92 41.16 16.08 41.42 16.23 C 42.06 16.6 44.95 17.96 46.37 21.41 C 46.66 22.11 47.3 22.01 47.51 20.79 C 48 17.9 45.12 16.35 45.01 16.27 C 44.48 15.93 44.29 15.35 44.53 14.91 C 44.8 14.41 45.4 14.43 45.84 14.69 C 47.37 15.57 49.9 17.78 49.26 21.12 C 49.02 22.37 48.64 23.44 48.13 24.3 C 47.89 24.7 47.3 25.98 47.41 27.13 C 47.7 30.06 47.65 32.02 47.51 33.92 C 47.45 34.78 47.09 35.51 46.27 35.16 Z" fill="#030000"/></svg>