<svg version="1.1" width="50.68" height="61.74" viewBox="0 0 50.68 61.74" xmlns="http://www.w3.org/2000/svg" xmlns:xlink="http://www.w3.org/1999/xlink" overflow="visible"><defs></defs><g><path d=" M 1.54 61.74 C 0.69 61.74 0 61.05 0 60.21 C 0 59.36 0.69 58.67 1.54 58.67 C 8.05 58.67 9.03 52.78 9.03 49.27 L 9.03 33.63 C 9.03 26.22 12.81 22.31 19.97 22.31 L 49.15 22.31 C 50 22.31 50.69 23 50.69 23.85 C 50.69 24.7 50 25.39 49.15 25.39 L 19.96 25.39 C 14.52 25.39 12.09 27.93 12.09 33.64 L 12.09 49.28 C 12.09 57.08 8.14 61.74 1.54 61.74 Z"/></g><g><path d=" M 21.08 43.21 C 20.61 43.06 20.23 42.66 20.12 42.15 C 19.96 41.38 20.45 40.62 21.23 40.45 C 26.46 39.34 34.12 34.1 36.99 30.5 C 37.48 29.88 38.38 29.78 39 30.27 C 39.62 30.76 39.72 31.66 39.23 32.28 C 36.01 36.33 27.71 42.01 21.83 43.25 C 21.57 43.3 21.31 43.28 21.08 43.21 Z" fill="#030000"/></g><g><path d=" M 21.58 50.16 C 21.63 48.28 21.98 47.52 23.73 47.13 C 28.6 46.05 35.98 40.77 38.9 37.48 C 40.93 35.19 42.03 35.81 42.48 37.93 C 42.94 40.12 42.37 41.14 40.67 42.76 C 36.65 46.61 29.88 50.9 24.81 52.02 C 24.01 52.21 21.5 53.11 21.58 50.16 Z" fill="#030000"/></g><g><path d=" M 23.79 59.8 C 23.29 59.64 22.91 59.21 22.82 58.66 C 22.7 57.88 23.24 57.15 24.02 57.03 C 29.15 56.24 37.27 51.4 40.32 47.99 C 40.85 47.4 41.75 47.35 42.34 47.88 C 42.93 48.41 42.98 49.31 42.46 49.9 C 39.02 53.76 30.4 58.95 24.46 59.87 C 24.23 59.89 24 59.87 23.79 59.8 Z" fill="#030000"/></g><path d=" M 34.42 9.21 C 36.41 9.5 38.55 10.22 39.51 10.55 C 40.99 11.07 41.62 9.33 40.37 8.76 C 38.37 7.86 34.8 6.94 31.25 6.74 C 30.58 6.7 30.3 5.77 31.06 5.33 C 32.01 4.79 32.55 3.86 32.51 2.6 C 32.47 1.15 31.35 0.02 29.84 1.77636e-15 C 29.84 1.77636e-15 29.84 1.77636e-15 29.84 1.77636e-15 C 29.84 1.77636e-15 29.84 1.77636e-15 29.83 1.77636e-15 C 28.62 -0.02 27.2 0.91 27.15 2.6 C 27.11 3.86 27.65 4.78 28.6 5.33 C 29.37 5.77 29.08 6.71 28.41 6.74 C 24.86 6.94 21.29 7.86 19.29 8.76 C 18.04 9.32 18.67 11.07 20.15 10.55 C 21.11 10.21 23.25 9.5 25.24 9.21 C 26.46 9.03 26.71 9.43 26.97 10.06 C 28.1 12.75 27.41 12.76 26.2 13.4 C 23.98 14.59 22.12 16.12 19.89 18.57 C 18.8 19.78 20.27 21.58 21.76 20.08 C 27.37 13.34 31.8 12.81 37.87 20.08 C 39.36 21.58 40.83 19.78 39.74 18.57 C 37.52 16.11 35.65 14.59 33.43 13.4 C 32.22 12.75 31.53 12.74 32.66 10.06 C 32.96 9.43 33.21 9.03 34.42 9.21 Z M 31 9.87 C 30.82 10.42 30.67 10.98 30.54 11.53 C 30.31 12.52 29.42 12.71 29.14 11.53 C 29.01 10.99 28.86 10.42 28.68 9.87 C 28.55 9.48 28.65 9.16 28.89 9.04 C 29.43 8.77 30.25 8.77 30.79 9.04 C 31.03 9.16 31.13 9.48 31 9.87 Z" fill-rule="evenodd" clip-rule="evenodd"/></svg>