<svg version="1.1" width="62.86" height="63.24" viewBox="0 0 62.86 63.24" xmlns="http://www.w3.org/2000/svg" xmlns:xlink="http://www.w3.org/1999/xlink" overflow="visible"><defs></defs><path d=" M 39.45 10.97 C 38.96 10.97 38.56 11.09 38.56 12.38 C 38.56 14.03 38.87 14.25 39.48 14.25 C 40.13 14.25 40.31 14 40.31 12.38 C 40.31 11.06 40 10.97 39.45 10.97 Z" fill="#030000" fill-rule="evenodd" clip-rule="evenodd"/><path d=" M 35.96 10.86 C 35.96 11.41 35.51 11.86 34.96 11.86 C 34.41 11.86 33.96 11.41 33.96 10.86 C 33.96 10.31 34.41 9.86 34.96 9.86 C 35.51 9.86 35.96 10.31 35.96 10.86 Z" fill-rule="evenodd" clip-rule="evenodd"/><path d=" M 42.69 5.72 C 42.69 6.6 41.27 7.32 39.52 7.32 C 37.77 7.32 36.35 6.6 36.35 5.72 C 36.35 4.84 37.77 4.12 39.52 4.12 C 41.27 4.13 42.69 4.84 42.69 5.72 Z" fill-rule="evenodd" clip-rule="evenodd"/><path d=" M 45.01 10.86 C 45.01 11.41 44.56 11.86 44.01 11.86 C 43.46 11.86 43.01 11.41 43.01 10.86 C 43.01 10.31 43.46 9.86 44.01 9.86 C 44.57 9.86 45.01 10.31 45.01 10.86 Z" fill-rule="evenodd" clip-rule="evenodd"/><path d=" M 61.65 44.99 C 61.4 44.48 60.79 44.26 60.28 44.5 C 59.21 45.01 56.74 45.88 55.36 43.73 C 54.69 42.69 54.72 40.42 54.91 39.3 C 55.79 34.3 56.3 30.03 51.38 26.42 C 48.78 24.51 44.91 23.88 41.17 23.74 C 40.7 23.72 40.6 23.63 40.61 23.1 C 40.61 23.01 40.62 22.01 40.62 21.92 C 40.68 20.97 40.9 20.76 41.62 20.63 C 43.19 20.34 44.67 19.74 45.8 18.82 C 47.8 17.2 49.46 14.47 49.41 11.14 C 49.33 5.68 45.85 1.04 39.8 0.99 C 33.85 0.94 29.44 5.06 29.27 10.4 C 29.14 14.4 30.76 17.31 33.61 19.33 C 34.64 20.06 36.05 20.54 37.57 20.74 C 38.14 20.82 38.35 21.1 38.31 21.85 C 38.3 21.96 38.29 22.98 38.27 23.07 C 38.18 23.52 38.22 23.73 37.48 23.76 C 36.12 23.8 34.86 23.88 33.76 23.94 C 32.97 23.99 31.69 23.95 31.69 23.95 C 30.59 23.92 30.15 23.56 29.55 22.6 C 27.32 18.99 22.9 19.62 20.85 20.47 C 20.33 20.69 20.08 21.29 20.29 21.81 C 20.51 22.34 21.11 22.59 21.63 22.37 C 21.76 22.31 24.25 21.37 26.25 22.25 C 27.25 22.69 27.66 23.67 26.03 23.85 C 22.28 24.27 20.16 26.19 20.06 26.29 C 19.65 26.68 19.62 27.33 20.01 27.74 C 20.4 28.16 21.05 28.18 21.46 27.79 C 21.48 27.77 23.31 26.11 26.6 25.85 C 28.53 25.7 28.64 26.47 28.19 27.56 C 27.48 29.3 25.37 29.66 24.09 31.2 C 23.73 31.63 23.69 32.3 24.14 32.65 C 24.53 32.96 25.2 33 25.59 32.6 C 26.62 31.55 27.67 31.09 28.27 30.62 C 29.23 29.89 29.84 28.92 30.16 27.87 C 30.51 26.72 31.32 26.36 31.99 26.26 C 32.52 26.24 33.15 26.2 33.89 26.16 C 34.76 26.11 35.77 26.05 36.87 26.01 C 37.35 25.99 37.51 26.2 37.3 26.59 C 36.54 27.96 35.3 29.07 33.39 30.34 C 30.77 32.08 29.28 34.12 29.31 36.26 C 29.33 37.62 29.87 39.78 32.89 41.34 C 36.56 43.24 41.22 43.48 45.22 41.94 C 47.43 41.09 48.97 39.81 49.48 38.28 C 50.61 34.89 48.51 32.39 48.42 32.28 C 48 31.76 47.23 31.69 46.72 32.11 C 46.2 32.53 46.13 33.3 46.55 33.82 C 46.56 33.83 47.79 35.41 47.09 37.51 C 46.83 38.31 45.86 39.05 44.37 39.61 C 40.71 40.98 36.78 40.84 34.12 39.25 C 33.04 38.61 31.74 37.56 31.73 36.22 C 31.71 34.97 32.9 33.71 34.68 32.38 C 37.85 30.01 39.16 28.56 39.88 26.58 C 40.06 26.07 40.31 25.96 40.75 25.97 C 44.23 26.08 47.84 26.6 50.05 28.22 C 53.59 30.82 53.77 33.55 52.69 38.97 C 52.4 40.44 52.18 42.93 53.44 44.92 C 54.4 46.43 55.92 47.21 57.71 47.21 C 58.78 47.21 59.95 46.93 61.15 46.36 C 61.67 46.11 61.89 45.5 61.65 44.99 Z M 31.59 10.09 C 31.88 6.17 36.05 3.08 39.5 3.08 C 43.27 3.08 47.2 6.31 47.18 11.12 C 47.16 14.4 45.66 16.9 43.05 17.96 C 40.84 18.86 38.63 18.89 36.63 18.3 C 32.81 17.17 31.31 13.97 31.59 10.09 Z"/><g><path d=" M 2.96 20.79 C 2.3 20.79 1.76 20.25 1.76 19.59 C 1.76 18.93 2.3 18.39 2.96 18.39 L 6.65 18.39 C 8.45 18.39 8.99 17.84 8.99 16.04 L 9 1.38 C 9 0.72 9.54 0.18 10.2 0.18 C 10.86 0.18 11.4 0.72 11.4 1.38 L 11.4 16.03 C 11.4 19.63 10.27 20.79 6.74 20.79 L 2.96 20.79 Z" fill="#030000"/></g><g><path d=" M 31.39 53.23 C 23.12 53.23 15.03 52.54 14.89 44.29 L 14.89 1.2 C 14.89 0.54 15.43 0 16.09 0 C 16.75 0 17.29 0.54 17.29 1.2 L 17.29 44.27 C 17.36 48.62 19.56 50.83 31.38 50.83 L 61.63 50.83 C 62.29 50.83 62.83 51.37 62.83 52.03 C 62.83 52.69 62.29 53.23 61.63 53.23 L 31.39 53.23 Z" fill="#030000"/></g><g><path d=" M 1.2 63.24 C 0.54 63.24 0 62.7 0 62.04 C 0 61.38 0.54 60.84 1.2 60.84 C 5.73 60.84 9.15 59.02 11.95 55.13 C 12.62 54.19 13.42 53.72 14.31 53.72 C 15.04 53.72 15.7 54.04 16.14 54.3 C 18.79 55.93 21.88 56.76 25.34 56.76 L 61.65 56.76 C 62.31 56.76 62.85 57.3 62.85 57.96 C 62.85 58.62 62.31 59.16 61.65 59.16 L 25.34 59.16 C 21.94 59.16 18.84 58.45 16.12 57.04 C 15.57 56.76 15.15 56.63 14.75 56.63 C 14.15 56.63 13.63 56.92 13.11 57.56 C 9.96 61.38 6.06 63.24 1.2 63.24 Z" fill="#030000"/></g><g><path d=" M 1.95 56.34 C 1.29 56.34 0.75 55.8 0.75 55.14 C 0.75 54.48 1.29 54.04 1.95 53.94 C 6.91 53.2 8.88 50.8 8.88 43.45 L 8.87 29.76 C 8.87 28.83 7.91 27.48 6.4 27.48 L 2.84 27.49 C 2.18 27.49 1.64 26.95 1.64 26.29 C 1.64 25.63 2.18 25.09 2.84 25.09 L 7.26 25.09 C 9.63 25.09 11.28 26.94 11.28 29.58 L 11.28 45.2 C 11.28 50.51 8.84 56.34 1.95 56.34 Z" fill="#030000"/></g></svg>