<svg version="1.1" width="56.14" height="63.05" viewBox="0 0 56.14 63.05" xmlns="http://www.w3.org/2000/svg" xmlns:xlink="http://www.w3.org/1999/xlink" overflow="visible"><defs></defs><path d=" M 26.48 13.4 C 25.82 13.4 25.28 13.56 25.28 15.29 C 25.28 17.51 25.69 17.8 26.51 17.8 C 27.38 17.8 27.63 17.47 27.63 15.29 C 27.64 13.52 27.22 13.4 26.48 13.4 Z" fill="#030000" fill-rule="evenodd" clip-rule="evenodd"/><path d=" M 21.78 13.26 C 21.78 14 21.18 14.6 20.43 14.6 C 19.69 14.6 19.09 14 19.09 13.26 C 19.09 12.52 19.69 11.91 20.43 11.91 C 21.18 11.91 21.78 12.51 21.78 13.26 Z" fill-rule="evenodd" clip-rule="evenodd"/><path d=" M 30.83 6.36 C 30.83 7.54 28.92 8.51 26.57 8.51 C 24.22 8.51 22.31 7.55 22.31 6.36 C 22.31 5.17 24.22 4.21 26.57 4.21 C 28.92 4.21 30.83 5.17 30.83 6.36 Z" fill-rule="evenodd" clip-rule="evenodd"/><path d=" M 33.95 13.26 C 33.95 14 33.35 14.6 32.6 14.6 C 31.86 14.6 31.26 14 31.26 13.26 C 31.26 12.52 31.86 11.91 32.6 11.91 C 33.35 11.91 33.95 12.51 33.95 13.26 Z" fill-rule="evenodd" clip-rule="evenodd"/><path d=" M 56 60.06 C 55.67 59.37 54.85 59.08 54.16 59.41 C 52.72 60.1 49.4 61.27 47.55 58.37 C 46.65 56.97 46.75 53.93 46.95 52.42 C 48.01 44.31 49.11 37.22 42.51 32.38 C 39.01 29.81 33.82 28.97 28.79 28.78 C 28.16 28.76 28.02 28.63 28.04 27.92 C 28.08 26.59 28.34 26.59 29.4 26.39 C 31.51 26 33.5 25.2 35.02 23.96 C 37.7 21.79 39.93 18.12 39.87 13.64 C 39.75 6.31 35.07 0.06 26.95 0 C 18.96 -0.06 13.04 5.47 12.81 12.64 C 12.64 18.01 14.81 21.92 18.64 24.64 C 20.03 25.63 21.91 26.26 23.96 26.53 C 24.85 26.65 25.09 26.97 24.91 27.86 C 24.79 28.47 24.84 28.75 23.84 28.78 C 22.02 28.83 20.32 28.94 18.84 29.02 C 17.77 29.08 16.06 29.04 16.06 29.04 C 14.58 29 13.99 28.52 13.19 27.23 C 10.19 22.38 4.25 23.22 1.5 24.37 C 0.8 24.66 0.46 25.47 0.75 26.17 C 1.04 26.87 1.85 27.21 2.55 26.92 C 2.73 26.84 6.07 25.57 8.76 26.76 C 10.1 27.35 10.65 28.66 8.46 28.91 C 3.42 29.48 0.57 32.05 0.43 32.19 C -0.13 32.71 -0.16 33.58 0.36 34.14 C 0.88 34.7 1.75 34.73 2.31 34.2 C 2.34 34.17 4.79 31.94 9.21 31.6 C 11.81 31.4 11.95 32.44 11.35 33.9 C 10.4 36.24 7.57 36.72 5.84 38.78 C 5.35 39.36 5.31 40.26 5.9 40.73 C 6.43 41.15 7.33 41.2 7.85 40.67 C 9.23 39.26 10.64 38.64 11.46 38.01 C 12.74 37.03 13.58 35.73 14 34.31 C 14.47 32.77 15.55 32.28 16.46 32.15 C 17.17 32.12 18.01 32.07 19.01 32.01 C 20.17 31.94 21.54 31.86 23.02 31.8 C 23.66 31.78 23.88 32.06 23.59 32.58 C 22.57 34.42 20.91 35.91 18.34 37.62 C 14.82 39.96 12.82 42.69 12.86 45.57 C 12.88 47.4 13.61 50.3 17.67 52.4 C 22.61 54.95 28.86 55.28 34.24 53.21 C 37.21 52.07 39.28 50.35 39.96 48.29 C 41.48 43.73 38.65 40.37 38.54 40.23 C 37.97 39.53 36.94 39.44 36.25 40.01 C 35.56 40.58 35.46 41.61 36.03 42.3 C 36.05 42.32 37.7 44.44 36.76 47.26 C 36.4 48.33 35.1 49.34 33.11 50.08 C 28.19 51.91 22.91 51.73 19.33 49.6 C 17.88 48.74 16.14 47.33 16.12 45.53 C 16.1 43.85 17.7 42.16 20.08 40.38 C 24.34 37.2 26.1 35.25 27.07 32.59 C 27.32 31.91 27.65 31.76 28.24 31.78 C 32.92 31.92 37.76 32.62 40.73 34.8 C 45.49 38.29 45.2 43.17 43.98 51.99 C 43.7 53.99 43.3 57.31 44.99 59.98 C 46.28 62.01 48.33 63.06 50.73 63.06 C 52.17 63.06 53.74 62.68 55.35 61.91 C 56.04 61.57 56.33 60.75 56 60.06 Z M 15.92 12.23 C 16.31 6.96 21.92 2.81 26.54 2.82 C 31.61 2.82 36.89 7.17 36.85 13.62 C 36.82 18.02 34.8 21.39 31.3 22.81 C 28.33 24.02 25.35 24.06 22.67 23.26 C 17.56 21.74 15.54 17.43 15.92 12.23 Z"/></svg>