<svg version="1.1" width="60.86" height="59.48" viewBox="0 0 60.86 59.48" xmlns="http://www.w3.org/2000/svg" xmlns:xlink="http://www.w3.org/1999/xlink" overflow="visible"><defs></defs><path d=" M 58.98 20.1 C 54.72 18.63 48.77 17.39 42.43 16.89 C 41.03 16.78 40.42 14.84 42.04 13.91 C 44.04 12.77 45.18 10.81 45.09 8.16 C 45 5.05 42.66 2.82 39.31 2.82 C 36.15 2.82 33.84 5.11 33.75 8.16 C 33.67 10.81 34.81 12.77 36.81 13.91 C 38.43 14.83 37.82 16.78 36.41 16.89 C 31.6 17.27 27.02 18.07 23.23 19.08 C 20.08 19.92 21.1 24.09 24.31 23.28 C 25.64 22.95 27.29 22.6 28.82 22.37 C 31.38 21.99 31.87 22.86 32.36 23.9 C 33.31 25.9 33.71 27.54 34 28.93 C 34.57 31.7 33.83 33.71 32.1 35.44 C 27.01 40.53 23.89 45.48 20.82 53.84 C 19.64 57.06 23.94 59.43 25.67 55.31 C 27.58 49.37 30.17 44.79 32.86 41.87 C 38.58 35.67 40.16 35.57 45.98 41.87 C 48.68 44.79 51.27 49.37 53.17 55.31 C 54.9 59.43 59.2 57.06 58.02 53.84 C 54.96 45.49 51.84 40.54 46.75 35.44 C 45.02 33.71 44.27 31.7 44.85 28.93 C 45.14 27.54 45.54 25.9 46.48 23.9 C 46.97 22.86 47.46 22 50.02 22.37 C 53.08 22.82 55.82 23.59 57.87 24.25 C 60.91 25.23 62.2 21.21 58.98 20.1 Z M 41.94 23.3 C 41.4 25.03 40.7 27.23 40.36 29.38 C 40.16 30.65 38.66 30.57 38.47 29.38 C 38.13 27.23 37.43 25.02 36.89 23.3 C 36.63 22.48 36.88 21.99 37.39 21.74 C 38.53 21.18 40.31 21.18 41.45 21.74 C 41.96 21.99 42.2 22.48 41.94 23.3 Z" fill-rule="evenodd" clip-rule="evenodd"/><g><path d=" M 8.68 58.01 L 8.68 49.83 C 8.68 47.94 11.37 47.94 11.37 49.83 L 11.37 58.01 C 11.37 59.97 8.68 59.97 8.68 58.01 Z" fill="#030000"/></g><g><path d=" M 16.16 50.35 L 13.37 47.58 C 11.95 46.15 13.86 44.24 15.27 45.68 L 18.06 48.45 C 19.64 49.99 17.72 51.92 16.16 50.35 Z" fill="#030000"/></g><g><path d=" M 0.51 49.96 L 4.83 45.64 C 6.26 44.18 8.18 46.09 6.73 47.54 L 2.42 51.86 C 0.97 53.28 -0.92 51.39 0.51 49.96 Z" fill="#030000"/></g><g><path d=" M 15.61 26.04 C 15.37 26.04 15.13 25.98 14.9 25.86 C 14.17 25.47 13.9 24.56 14.29 23.83 C 14.67 23.13 14.87 22.34 14.87 21.54 C 14.87 19.55 13.67 17.79 11.83 17.05 C 11.17 16.79 10.54 16.52 9.87 16.24 C 9.08 15.91 8.22 15.54 7.15 15.12 C 4.15 13.93 2.21 11.07 2.21 7.84 C 2.2 3.51 5.71 0 10.03 0 C 14.35 0 17.86 3.51 17.86 7.83 C 17.86 8.77 17.69 9.69 17.37 10.56 C 17.08 11.34 16.21 11.73 15.44 11.44 C 14.66 11.15 14.27 10.29 14.56 9.51 C 14.76 8.97 14.86 8.4 14.86 7.82 C 14.86 5.16 12.69 2.99 10.03 2.99 C 7.36 3 5.2 5.17 5.2 7.83 C 5.2 9.82 6.4 11.59 8.25 12.32 C 9.34 12.76 10.22 13.13 11.03 13.47 C 11.69 13.75 12.3 14 12.94 14.26 C 15.94 15.46 17.87 18.31 17.87 21.54 C 17.87 22.83 17.55 24.12 16.94 25.25 C 16.66 25.75 16.14 26.04 15.61 26.04 Z" fill="#030000"/></g><g><path d=" M 10.03 43.08 C 5.71 43.08 2.2 39.57 2.2 35.25 C 2.2 33.73 2.64 32.25 3.46 30.98 C 3.91 30.28 4.84 30.09 5.54 30.54 C 6.23 30.99 6.43 31.92 5.98 32.62 C 5.47 33.4 5.2 34.31 5.2 35.25 C 5.2 37.91 7.37 40.08 10.03 40.08 C 12.69 40.08 14.86 37.91 14.86 35.25 C 14.86 33.26 13.67 31.5 11.82 30.76 C 11.16 30.5 10.53 30.23 9.86 29.95 C 9.07 29.62 8.21 29.25 7.14 28.83 C 4.14 27.64 2.2 24.78 2.2 21.55 C 2.2 20.29 2.51 19.03 3.09 17.92 C 3.48 17.19 4.38 16.9 5.12 17.29 C 5.85 17.67 6.14 18.58 5.75 19.31 C 5.38 20.01 5.2 20.76 5.2 21.55 C 5.2 23.54 6.4 25.3 8.25 26.04 C 9.34 26.48 10.22 26.85 11.03 27.19 C 11.69 27.47 12.3 27.72 12.94 27.98 C 15.94 29.17 17.87 32.03 17.87 35.26 C 17.86 39.56 14.35 43.08 10.03 43.08 Z" fill="#030000"/></g></svg>