<svg version="1.1" width="62.84" height="61.45" viewBox="0 0 62.84 61.45" xmlns="http://www.w3.org/2000/svg" xmlns:xlink="http://www.w3.org/1999/xlink" overflow="visible"><defs></defs><path d=" M 52.48 56.53 C 48.65 54.25 45.03 52.83 44.63 47.87 C 44.39 44.95 44.34 43.6 44.39 40.52 C 44.47 36.41 42.51 34.87 42.18 33.73 C 41.55 31.52 43.06 31.03 43.68 30.82 C 45.22 30.3 47.13 29.64 48.82 28.28 C 49.42 27.8 49.98 27.16 50.51 26.42 C 51.97 24.4 51.74 23.17 51.76 22.03 C 51.78 20.98 51.97 20 52.35 19.16 C 52.72 18.31 54.14 17.29 54.08 14.21 C 53.9 5.57 49.37 0 39.8 0 C 30.06 0 24.91 5.61 24.61 14.07 C 24.53 16.31 25.87 17.42 26.33 18.03 C 27.09 19.06 27.57 20.47 27.57 22.04 C 27.57 22.04 27.6 24.35 27.84 25.16 C 28.33 26.78 29.64 28.09 30.96 29.08 C 32.64 30.34 34.55 30.85 35.97 31.28 C 36.45 31.43 37.75 32 37.75 33.49 C 37.75 35.86 31.69 37.94 29.67 46.11 C 28.79 49.63 28.64 55.51 29.24 59.81 C 29.55 62.07 33.2 62.1 33.01 59.18 C 32.87 56.96 32.51 52.61 33.05 48.71 C 33.43 45.93 35.26 41.57 37.26 40.23 C 38.82 39.18 40.84 39.69 40.8 41.58 C 40.76 43.56 40.87 46.17 40.79 48.66 C 40.62 53.74 44.2 56.07 50.38 59.61 C 53.34 61.29 54.88 57.75 52.48 56.53 Z M 46.4 8.33 C 48.89 8.33 50.91 10.35 50.91 12.84 C 50.91 15.33 48.89 17.35 46.4 17.35 C 43.91 17.35 41.89 15.33 41.89 12.84 C 41.89 10.35 43.91 8.33 46.4 8.33 Z M 37.24 18.66 C 37.9 16.49 39.04 15.32 39.43 15.3 C 39.87 15.28 41.16 16.49 41.82 18.66 C 42.56 21.11 41.34 21.99 40.62 21.64 C 40.22 21.44 39.9 21.23 39.66 20.86 C 39.62 20.79 39.44 20.81 39.38 20.89 C 39.14 21.24 38.83 21.45 38.44 21.64 C 37.72 21.99 36.49 21.12 37.24 18.66 Z M 27.98 12.85 C 27.98 10.35 30 8.34 32.49 8.34 C 34.98 8.34 37 10.36 37 12.85 C 37 15.34 34.98 17.36 32.49 17.36 C 30 17.36 27.98 15.34 27.98 12.85 Z M 39.62 28.32 C 34.07 28.32 29.73 25.61 29.73 22.16 C 29.73 21.38 30.25 20.77 31.04 20.77 C 31.49 20.77 32.26 21.24 32.49 22.19 C 32.86 23.71 35.59 25.48 39.62 25.48 C 43.65 25.48 46.42 23.67 46.85 22.16 C 47.12 21.21 47.77 20.74 48.3 20.74 C 49.09 20.74 49.51 21.38 49.51 22.16 C 49.52 25.61 45.17 28.32 39.62 28.32 Z"/><path d=" M 56.64 52.98 C 53.87 52.98 51.25 51.32 50.28 48.82 C 48.98 45.47 49.72 42.26 52.75 38.08 C 54.54 35.61 54.95 33.1 53.96 30.6 C 53.73 30.03 54.01 29.39 54.58 29.17 C 55.14 28.95 55.78 29.22 56.01 29.79 C 57.28 32.98 56.77 36.3 54.54 39.37 C 51.96 42.91 51.33 45.42 52.34 48.02 C 53.06 49.88 55.21 51.04 57.34 50.72 C 58.4 50.56 59.36 49.95 59.99 49.04 C 60.55 48.24 60.76 47.33 60.58 46.48 C 60.14 44.37 58.81 43.58 57.72 43.55 C 56.87 43.53 55.91 43.95 55.63 44.96 C 55.43 45.69 55.71 46.18 56 46.38 C 56.31 46.59 56.71 46.54 57.12 46.23 C 57.6 45.86 58.29 45.96 58.66 46.44 C 59.03 46.92 58.94 47.62 58.45 47.98 C 57.29 48.86 55.88 48.95 54.77 48.2 C 53.59 47.41 53.1 45.91 53.5 44.38 C 54.01 42.5 55.73 41.28 57.78 41.34 C 59.62 41.39 62.03 42.65 62.74 46.02 C 63.04 47.47 62.71 48.98 61.81 50.28 C 60.84 51.68 59.33 52.63 57.68 52.88 C 57.32 52.95 56.98 52.98 56.64 52.98 Z" fill="#020303"/><path d=" M 28.92 35.27 C 27.39 30.74 26.6 29.88 26.34 29.6 C 25.16 28.33 24.35 28.06 22.89 27.58 C 22.59 27.48 22.25 27.37 21.86 27.23 C 21.19 27 20.47 27.35 20.24 28.02 C 20.01 28.69 20.36 29.41 21.03 29.64 C 21.44 29.78 21.79 29.9 22.1 30 C 23.43 30.44 23.75 30.54 24.48 31.33 C 24.59 31.45 25.23 32.26 26.52 36.09 C 26.69 36.58 26.42 36.98 26.2 37.1 C 25.94 37.23 25.54 37.45 25.08 37.65 C 24.16 38.04 23.84 37.69 23.79 36.79 C 23.76 36.25 23.65 34.62 23.65 34.62 C 23.61 33.92 23.02 33.39 22.29 33.43 C 21.59 33.48 21.05 34.08 21.1 34.78 C 21.1 34.78 21.88 46.56 22.11 50.49 C 22.18 51.75 22.25 52.33 20.65 52.33 C 18.04 52.33 12.83 52.39 10.22 52.39 C 8.92 52.39 8.63 51.72 8.72 50.62 C 9.02 47 9.05 40.84 7.65 34.67 C 7.49 33.98 6.81 33.55 6.12 33.71 C 5.43 33.87 5 34.55 5.16 35.24 C 5.3 35.88 5.43 36.52 5.54 37.15 C 5.61 37.55 5.49 38.24 4.85 38.05 C 4.24 37.87 3.65 37.66 3.3 37.56 C 2.75 37.41 2.48 36.9 2.6 36.26 C 2.78 35.29 3.03 34.3 3.34 33.32 C 4.09 30.93 5.61 30.51 7.84 30.14 C 8.54 30.03 9.01 29.37 8.89 28.67 C 8.77 27.97 8.12 27.5 7.42 27.62 C 4.76 28.06 2.07 28.8 0.9 32.56 C 0.56 33.64 0.29 34.73 0.09 35.79 C -0.27 37.72 0.79 39.5 2.61 40.01 C 3.12 40.15 4.22 40.56 5.09 40.82 C 5.94 41.07 6.07 41.7 6.15 42.22 C 6.8 46.27 6.26 50.41 6.08 51.64 C 5.84 53.35 6.56 54.93 9.11 54.93 C 9.11 54.93 17.78 54.87 21.23 54.87 C 23.36 54.87 24.97 54.32 24.78 51.31 C 24.64 49.07 24.32 45.72 24.18 43.12 C 24.14 42.32 24.08 41.07 25.58 40.24 C 26.25 39.87 26.98 39.58 27.37 39.38 C 28.78 38.62 29.45 36.86 28.92 35.27 Z"/><path d=" M 17.44 35.7 C 17.44 37.05 16.35 38.14 15 38.14 C 13.65 38.14 12.55 37.05 12.55 35.7 C 12.55 34.35 13.65 33.25 15 33.25 C 16.35 33.25 17.44 34.35 17.44 35.7 Z" fill-rule="evenodd" clip-rule="evenodd"/></svg>