<svg version="1.1" width="58.53" height="59.3" viewBox="0 0 58.53 59.3" xmlns="http://www.w3.org/2000/svg" xmlns:xlink="http://www.w3.org/1999/xlink" overflow="visible"><defs></defs><path d=" M 56.68 55.65 C 56.68 55.65 55.79 55.65 54.82 55.65 C 54.29 55.65 53.53 55.45 53.46 54.17 C 52.59 38.08 54.19 36.73 47.1 23.66 C 46.34 22.26 45.77 20.44 45.77 18.86 C 45.77 17.31 46.17 16.07 48.48 16.16 C 50.89 16.26 52.5 16.63 56.17 18.22 C 58.51 19.03 59.45 16.3 57.36 15.36 C 53.19 13.49 49.01 12.63 45.58 12.63 C 44.04 12.63 43.67 10.96 45.12 10.18 C 46.96 9.19 48.14 7.57 48.07 5.16 C 48.03 4.04 47.69 2.86 47.08 2.04 C 45.03 -0.71 40.57 -0.62 38.81 2.02 C 38.19 2.95 37.84 4.11 37.83 5.36 C 37.8 7.6 39.18 9.35 40.85 10.19 C 42.24 10.89 42.13 12.77 40.46 13.01 C 34.87 13.81 33.65 14.7 29.26 14.7 C 24.87 14.7 23.62 13.81 18.03 13.01 C 16.36 12.77 16.26 10.89 17.64 10.19 C 19.31 9.35 20.69 7.6 20.66 5.36 C 20.64 4.11 20.3 2.95 19.68 2.02 C 17.92 -0.61 13.46 -0.7 11.41 2.04 C 10.8 2.86 10.45 4.04 10.42 5.16 C 10.35 7.57 11.53 9.2 13.37 10.18 C 14.83 10.96 14.45 12.63 12.91 12.63 C 9.48 12.63 5.3 13.49 1.13 15.36 C -0.96 16.3 -0.03 19.03 2.32 18.22 C 5.99 16.63 7.6 16.25 10.01 16.16 C 12.32 16.07 12.72 17.31 12.72 18.86 C 12.72 20.44 12.15 22.27 11.39 23.66 C 4.34 36.73 5.93 38.08 5.07 54.17 C 5 55.45 4.24 55.65 3.71 55.65 C 2.75 55.65 1.85 55.65 1.85 55.65 C 0.84 55.65 0.03 56.47 0.03 57.47 C 0.03 58.48 0.85 59.29 1.85 59.29 L 56.68 59.29 C 57.69 59.29 58.5 58.47 58.5 57.47 C 58.5 56.47 57.69 55.65 56.68 55.65 Z M 21.07 55.65 L 10.11 55.65 C 9.47 55.65 9.14 55.15 9.16 54.48 C 9.64 39.6 8.77 35.98 14.42 26.73 C 15.55 24.88 16.11 25.69 16.77 26.73 C 22.41 35.98 21.55 39.6 22.03 54.48 C 22.04 55.15 21.71 55.65 21.07 55.65 Z M 31.07 55.65 C 30.3 55.65 28.24 55.65 27.47 55.65 C 26.94 55.65 26.18 55.45 26.11 54.17 C 25.24 38.08 26.84 36.73 19.75 23.66 C 18.99 22.26 18.42 20.44 18.42 18.86 C 18.42 17.31 19.38 16.63 21.01 16.94 C 23.73 17.46 25.84 17.89 29.28 17.89 C 32.72 17.89 34.8 17.46 37.52 16.94 C 39.15 16.63 40.11 17.31 40.11 18.86 C 40.11 20.44 39.54 22.27 38.78 23.66 C 31.69 36.73 33.29 38.08 32.42 54.17 C 32.36 55.45 31.6 55.65 31.07 55.65 Z M 48.43 55.65 L 37.47 55.65 C 36.83 55.65 36.5 55.15 36.52 54.48 C 37 39.6 36.13 35.98 41.78 26.73 C 42.44 25.69 43 24.88 44.13 26.73 C 49.77 35.98 48.91 39.6 49.39 54.48 C 49.4 55.15 49.07 55.65 48.43 55.65 Z"/></svg>