<svg version="1.1" width="62.66" height="60.72" viewBox="0 0 62.66 60.72" xmlns="http://www.w3.org/2000/svg" xmlns:xlink="http://www.w3.org/1999/xlink" overflow="visible"><defs></defs><path d=" M 34.14 38.79 C 33 38.16 31.21 37.13 31.21 37.13 C 30.64 36.84 30.02 37.19 28.86 36.54 C 27.22 35.62 26.81 35.03 26.66 33.09 C 25.43 16.81 18.29 11.76 17.98 11.49 C 17.68 11.23 17.27 11.18 16.9 11.49 C 16.59 11.75 9.49 16.78 8.23 32.96 C 8.07 35.04 7.87 35.5 6.02 36.54 C 4.85 37.19 4.24 36.84 3.67 37.13 C 3.67 37.13 1.88 38.15 0.74 38.79 C -0.1 39.26 -0.17 39.47 0.28 40.26 C 0.36 40.39 0.51 40.67 0.58 40.81 C 1.1 41.75 1.27 41.76 2.13 41.28 C 3.26 40.65 5.03 39.64 5.03 39.64 C 5.68 39.23 5.71 38.49 6.78 37.89 C 7.45 37.52 8.03 37.54 8.04 38.52 C 8.14 52.29 12.7 59.88 12.9 60.2 C 13.25 60.77 13.92 60.9 14.41 60.48 C 14.89 60.07 15 59.28 14.65 58.71 C 14.65 58.7 14.17 57.97 14.96 57.97 C 16.17 57.97 18.58 57.97 19.79 57.97 C 20.67 57.97 20.25 58.7 20.24 58.71 C 19.89 59.28 20 60.08 20.48 60.48 C 20.67 60.65 20.89 60.72 21.11 60.72 C 21.45 60.72 21.77 60.54 21.98 60.19 C 22.18 59.87 26.73 52.28 26.84 38.52 C 26.85 37.72 27.36 37.48 28.1 37.89 C 29.17 38.49 29.2 39.23 29.85 39.64 C 29.85 39.64 31.62 40.65 32.75 41.28 C 33.61 41.76 33.78 41.75 34.3 40.81 C 34.38 40.67 34.53 40.4 34.6 40.26 C 35.05 39.47 34.99 39.26 34.14 38.79 Z M 11.38 26.44 C 12.3 21.52 13.83 17.78 16.85 14.76 C 17.36 14.24 17.65 14.4 18.03 14.75 C 20.63 17.14 22.8 21.49 23.49 26.35 C 23.67 27.64 23.31 27.74 22.57 27.74 C 20 27.74 14.86 27.72 12.29 27.74 C 11.93 27.73 11.14 27.76 11.38 26.44 Z M 24.69 38.02 C 24.69 44.89 23.48 50.18 22.35 53.7 C 21.81 55.39 20.8 56.03 20.14 56.04 C 18.8 56.06 16.12 56.04 14.78 56.04 C 14.14 56.04 13.09 55.44 12.59 53.9 C 11.45 50.38 10.19 45.05 10.19 38.03 C 10.19 36.42 10.4 35.88 11.98 34.99 C 12.28 34.82 13.2 34.31 13.2 34.31 C 13.57 34.1 13.71 33.63 13.5 33.26 C 13.29 32.89 12.82 32.75 12.45 32.96 C 10.57 34.01 10.34 33.18 10.49 31.45 C 10.62 29.91 11.48 29.68 12.02 29.68 C 14.83 29.68 20.04 29.69 22.72 29.68 C 23.29 29.68 24.18 29.67 24.42 31.45 C 24.75 33.85 23.75 33.68 22.46 32.96 C 22.09 32.75 21.61 32.89 21.41 33.26 C 21.2 33.64 21.34 34.11 21.71 34.31 C 21.71 34.31 22.6 34.81 22.9 34.97 C 24.49 35.87 24.69 36.24 24.69 38.02 Z" fill="#020303"/><path d=" M 61.81 14.38 C 58.47 12.19 53.56 10.4 47.21 11.37 C 45.45 11.64 44.84 9.59 46.36 8.72 C 47.91 7.84 48.79 6.32 48.73 4.26 C 48.65 1.84 46.77 -0.02 44.23 0 C 41.69 -0.02 39.81 1.84 39.74 4.26 C 39.68 6.32 40.56 7.83 42.11 8.72 C 43.63 9.59 43.02 11.64 41.26 11.37 C 34.91 10.4 30 12.19 26.66 14.38 C 24.78 15.61 26.26 18.26 28.51 17.05 C 30.77 15.83 33.27 13.82 38.24 14.56 C 41.3 15.01 41.66 15.47 41.66 18.63 C 41.66 18.87 41.66 40.19 41.66 40.45 C 41.65 42.87 41.22 43.69 38.32 44.38 C 31.79 45.94 29.26 50.02 29.26 58.25 C 29.26 61.31 33.18 61.74 33.18 58.24 C 33.18 51.27 34.94 48.83 39.28 47.73 C 42.72 46.85 45.88 46.89 49.19 47.73 C 53.52 48.83 55.29 51.27 55.29 58.24 C 55.29 61.74 59.21 61.31 59.21 58.25 C 59.21 50.02 56.68 45.93 50.15 44.38 C 47.25 43.69 46.82 42.87 46.81 40.45 C 46.81 40.21 46.81 18.9 46.81 18.68 C 46.81 15.47 47.16 15.02 50.23 14.56 C 55.21 13.82 57.7 15.83 59.96 17.05 C 62.21 18.26 63.68 15.6 61.81 14.38 Z"/></svg>