<svg version="1.1" width="55.07" height="56.07" viewBox="0 0 55.07 56.07" xmlns="http://www.w3.org/2000/svg" xmlns:xlink="http://www.w3.org/1999/xlink" overflow="visible"><defs></defs><path d=" M 22.66 19.99 C 23.24 19.88 23.84 19.77 24.45 19.68 C 27.03 19.3 27.52 20.17 28.01 21.22 C 28.97 23.23 29.37 25.91 29.66 27.31 C 30.24 30.1 29.49 32.12 27.74 33.86 C 22.61 38.99 19.47 43.97 16.39 52.38 C 15.2 55.62 19.53 58.01 21.27 53.86 C 23.19 47.88 25.8 43.27 28.51 40.33 C 34.36 33.99 35.96 34.08 41.71 40.33 C 44.42 43.27 47.03 47.89 48.95 53.86 C 50.7 58.01 55.02 55.63 53.84 52.38 C 50.76 43.97 47.62 38.99 42.49 33.86 C 40.75 32.12 40 30.09 40.57 27.31 C 40.86 25.91 41.26 23.23 42.22 21.22 C 42.72 20.18 43.2 19.3 45.78 19.68 C 48.14 20.03 50.31 20.56 52.13 21.09 C 55.14 21.97 56.32 17.82 53.29 16.9 C 49.16 15.64 43.81 14.61 38.14 14.16 C 36.72 14.05 36.11 12.09 37.74 11.16 C 39.75 10.01 40.9 8.04 40.82 5.37 C 40.74 2.31 38.41 0 35.23 0 C 31.85 0 29.5 2.24 29.41 5.37 C 29.33 8.04 30.48 10.01 32.48 11.16 C 34.11 12.09 33.5 14.05 32.08 14.16 C 28.43 14.45 24.92 15 21.78 15.66 C 18.58 16.34 19.44 20.62 22.66 19.99 Z M 33.08 19.04 C 34.22 18.48 36.02 18.48 37.17 19.04 C 37.68 19.29 37.9 19.78 37.67 20.61 C 37.16 22.48 36.42 25.6 36.08 27.77 C 35.89 28.96 34.38 29.04 34.18 27.77 C 33.84 25.6 33.1 22.5 32.59 20.61 C 32.35 19.77 32.56 19.29 33.08 19.04 Z" fill-rule="evenodd" clip-rule="evenodd"/><path d=" M 14.87 36.23 C 14.4 35.66 13.55 35.58 12.98 36.05 C 12.41 36.52 12.41 37.31 12.8 37.94 C 14.35 40.48 13.11 43.35 10.39 44.36 C 8.44 45.09 6.39 44.89 4.78 43.93 C 1.93 42.24 1.59 38.71 5.4 36.31 C 8.68 34.24 11.42 33.3 11.59 28.63 C 11.64 27.28 11.96 26.67 13.4 26.17 C 15.41 25.47 18.17 24.51 17.93 20.43 C 17.75 17.38 15.51 15.65 13.54 14.12 C 12.93 13.65 12.36 13.2 11.88 12.75 C 10.79 11.72 10.94 11.44 10.86 10.17 C 10.81 9.43 10.16 8.87 9.43 8.91 C 8.69 8.96 8.13 9.6 8.18 10.34 C 8.25 11.53 7.95 12.09 7.51 12.55 C 7.02 13.06 6.38 13.55 5.71 14.07 C 3.77 15.56 1.58 17.24 1.5 20.32 C 1.4 24.37 4.16 25.37 6.16 26.13 C 7.29 26.56 8.21 26.94 8.61 27.69 C 9.31 29.03 9.38 31.27 5.76 33.15 C -2.64 37.51 -0.42 43.62 3.52 46.07 C 6.49 47.92 9.64 47.42 11.24 46.82 C 16.38 44.9 17.53 39.5 14.87 36.23 Z M 12.29 15.72 C 14.08 17.11 15.78 18.42 15.9 20.55 C 16.03 22.8 15.03 23.44 13.21 24.1 C 12 24.54 11.51 24.37 11.47 23.02 C 11.41 20.95 11.3 18.5 11.19 16.3 C 11.15 15.5 11.83 15.36 12.29 15.72 Z M 6.84 24.24 C 4.67 23.44 3.44 22.86 3.5 20.37 C 3.55 18.25 5.19 16.99 6.92 15.67 C 7.95 14.88 8.44 15.15 8.5 16.31 C 8.61 18.52 8.73 20.98 8.79 23.06 C 8.83 24.49 8.28 24.77 6.84 24.24 Z" fill="#030000"/></svg>