<svg version="1.1" width="60.49" height="60.98" viewBox="0 0 60.49 60.98" xmlns="http://www.w3.org/2000/svg" xmlns:xlink="http://www.w3.org/1999/xlink" overflow="visible"><defs></defs><path d=" M 53.85 20.21 C 49.33 16.76 40.09 9.72 38.88 8.84 C 37.29 7.68 36.86 7.25 36.86 4.84 C 36.86 3.82 36.03 2.99 35.01 2.99 C 33.99 2.99 33.16 3.82 33.16 4.84 C 33.16 7.03 33.04 7.45 30.83 9.07 C 29.8 9.83 22.43 15.44 17.74 19.03 C 15.66 20.62 17.69 22.78 19.26 21.63 C 20.91 20.42 21.76 21.4 21.76 22.82 L 21.76 59.5 C 21.76 60.32 22.42 60.98 23.24 60.98 C 24.06 60.98 24.72 60.32 24.72 59.5 L 24.72 22.81 C 24.72 18.01 25.09 16.99 28.71 14.24 C 34.45 9.88 35.35 9.91 41.35 14.32 C 44.86 16.9 45.29 17.83 45.29 22.81 L 45.29 59.5 C 45.29 60.32 45.95 60.98 46.77 60.98 C 47.59 60.98 48.25 60.32 48.25 59.5 L 48.25 22.81 C 48.25 21.27 49.46 20.54 50.82 21.57 C 51.06 21.75 51.56 22.14 52.12 22.57 C 53.79 23.85 55.91 21.78 53.85 20.21 Z" fill="#030000"/><g><path d=" M 17.08 35.4 C 17.08 31.74 14.18 32.2 14.19 30.52 C 14.2 28.79 15.94 28.61 15.9 26.24 C 15.85 23.85 14.01 22.74 12.26 22.76 C 10.37 22.78 8.76 24.22 8.76 26.32 C 8.76 27.82 9.41 28.69 10.01 29.18 C 10.8 29.82 11.84 29.87 11.88 30.67 C 11.91 31.51 11.18 31.88 10.64 31.91 C 7.25 32.11 4.71 31.97 1.96 31.51 C -0.32 31.12 -0.79 33.89 1.56 34.27 C 3.06 34.51 4.54 34.68 5.75 34.83 C 8.07 35.11 8.23 36.2 8.23 37.63 C 8.23 38.48 8.23 42.59 8.21 43.95 C 8.2 44.59 8.34 45.8 7.06 47.83 C 5.06 50.99 3.99 52.64 2.52 55.01 C 1.2 57.13 3.69 58.87 5.15 56.52 C 5.4 56.12 6.89 53.8 9.51 49.69 C 10.3 48.45 10.66 48.28 12.08 48.28 C 13.52 48.28 14.07 48.62 14.07 50.09 C 14.07 52.71 14.08 54.51 14.08 59.17 C 14.08 61.57 17.08 61.57 17.08 59.23 C 17.07 58.56 17.08 36.06 17.08 35.4 Z M 14.07 44.47 C 14.07 45.22 13.83 45.47 13.07 45.47 C 12.75 45.47 12.1 45.47 11.78 45.47 C 11.04 45.47 10.79 45.22 10.79 44.48 C 10.79 43.11 10.79 37.36 10.79 35.99 C 10.79 35.26 11.04 34.99 11.79 34.99 C 12.11 34.99 12.75 34.99 13.07 34.99 C 13.8 34.99 14.07 35.24 14.07 35.99 C 14.07 37.35 14.07 43.1 14.07 44.47 Z"/></g><path d=" M 12.54 39.1 L 12.3 39.1 C 11.86 39.1 11.5 38.74 11.5 38.3 C 11.5 37.86 11.86 37.5 12.3 37.5 L 12.54 37.5 C 12.98 37.5 13.34 37.86 13.34 38.3 C 13.34 38.74 12.98 39.1 12.54 39.1 Z"/><path d=" M 12.54 43.01 L 12.3 43.01 C 11.86 43.01 11.5 42.65 11.5 42.21 C 11.5 41.77 11.86 41.4 12.3 41.4 L 12.54 41.4 C 12.98 41.4 13.34 41.76 13.34 42.21 C 13.34 42.65 12.98 43.01 12.54 43.01 Z"/><path d=" M 60.44 12.68 C 60.28 12.27 59.81 12.07 59.4 12.23 C 56.06 13.56 51.56 13.96 43.11 7.33 C 42.06 6.51 41.94 6.42 41.49 6.03 C 40.62 5.29 40.29 4.88 40.29 3.67 C 40.29 0.87 38.53 0.05 36.3 4.44089e-16 L 36.3 0 C 36.3 0 36.3 0 36.3 0 C 36.3 0 36.3 0 36.3 0 L 36.06 0 C 36.06 0 36.06 0 36.06 0 C 36.06 0 36.06 0 36.06 0 L 36.06 0 L 36.06 0 L 33.83 0 L 33.83 0 L 33.83 0 C 33.83 0 33.83 0 33.83 0 C 33.83 0 33.83 0 33.83 0 C 31.49 0 29.61 0.78 29.61 3.68 C 29.61 4.89 29.28 5.31 28.41 6.04 C 27.96 6.42 27.83 6.51 26.79 7.34 C 18.35 13.97 13.85 13.57 10.5 12.24 C 10.09 12.08 9.63 12.28 9.46 12.69 C 9.3 13.1 9.5 13.56 9.91 13.73 C 11.17 14.23 12.64 14.64 14.41 14.64 C 17.65 14.64 21.89 13.24 27.78 8.6 C 28.74 7.84 29.09 7.6 29.53 7.2 C 30.59 6.23 31.21 5.5 31.21 3.69 L 31.21 3.69 C 31.21 3.01 31.36 1.82 32.96 1.65 C 33.21 1.62 33.5 1.61 33.83 1.61 L 36.06 1.61 C 36.39 1.61 36.68 1.63 36.93 1.65 C 38.52 1.82 38.68 3.01 38.68 3.69 L 38.68 3.69 C 38.68 5.5 39.3 6.23 40.36 7.2 C 40.8 7.6 41.15 7.84 42.11 8.6 C 48 13.24 52.24 14.64 55.48 14.64 C 57.26 14.64 58.72 14.23 59.98 13.73 C 60.4 13.56 60.6 13.09 60.44 12.68 Z"/><path d=" M 41.47 22.79 C 41.47 21.44 41.57 20.54 41.08 19.71 C 40.7 19.06 40.1 18.8 39.03 18.69 C 38.12 18.6 38.03 17.78 36.9 17.67 C 36.02 17.58 35.44 18.18 35.04 18.48 C 34.99 18.52 34.91 18.52 34.86 18.48 C 34.46 18.18 33.87 17.58 33 17.67 C 31.87 17.78 31.78 18.6 30.87 18.69 L 30.87 18.69 C 29.8 18.8 29.2 19.06 28.82 19.71 C 28.33 20.54 28.43 21.44 28.43 22.79 C 28.43 55.22 28.18 56.38 29.85 58.65 C 31.01 60.23 32.53 60.93 34.95 60.93 C 34.95 60.93 34.95 60.93 34.95 60.93 L 34.95 60.93 C 34.95 60.93 34.95 60.93 34.95 60.93 C 37.38 60.93 38.9 60.24 40.05 58.65 C 41.72 56.38 41.47 55.11 41.47 22.79 Z M 38.61 57.35 C 37.78 58.55 36.78 59 34.95 59 C 33.12 59 32.12 58.56 31.29 57.35 C 30.15 55.7 30.35 50.44 30.35 22.97 C 30.35 21.73 30.13 20.95 31.01 20.72 C 31.58 20.57 31.83 20.45 32.34 20.13 L 32.34 20.13 C 32.8 19.84 33.15 19.63 33.65 19.97 C 34.62 20.64 35.31 20.62 36.25 19.97 C 36.75 19.62 37.11 19.84 37.56 20.13 C 38.07 20.45 38.32 20.56 38.89 20.72 C 39.76 20.95 39.55 21.73 39.55 22.97 C 39.55 49.76 39.75 55.7 38.61 57.35 Z" fill="#030000"/></svg>