<svg version="1.1" width="59.22" height="59.22" viewBox="0 0 59.22 59.22" xmlns="http://www.w3.org/2000/svg" xmlns:xlink="http://www.w3.org/1999/xlink" overflow="visible"><defs></defs><g><path d=" M 26.6 20.57 C 26.42 16.49 21.81 15.98 21.83 13.21 C 21.85 10.36 24.3 10.35 24.28 6.14 C 24.25 1.77 20.86 0.4 18.65 0.4 C 15.76 0.4 13.49 3.08 13.49 6.22 C 13.49 8.24 14.01 9.4 15.08 10.61 C 16.34 12.04 17.5 12.23 17.61 13.2 C 17.78 14.76 16.77 15.19 15.88 15.23 C 12.31 15.94 7.13 15.8 2.98 15.22 C -0.35 14.76 -1.29 19.29 2.19 19.73 C 3.4 19.88 5.98 20.09 7.88 20.3 C 11.72 20.73 11.88 22.56 11.98 24.92 C 12.04 26.28 12.05 28.15 12.02 30.4 C 12.01 31.46 12.17 33.44 10.05 36.79 C 6.75 42.01 3.33 47.4 0.9 51.31 C -1.82 55.7 2.12 58.81 5.1 54.06 C 5.51 53.41 9.48 47.16 13.76 40.35 C 15.43 37.7 16.55 37.56 18.32 37.53 C 20.52 37.49 21.61 37.57 21.61 41.18 C 21.61 45.5 21.57 47.37 21.63 55.06 C 21.68 60.22 26.76 60.51 26.65 54.9 C 26.4 41.21 26.99 29.44 26.6 20.57 Z M 19.02 32.91 C 16.26 32.91 16.18 32.1 16.18 24.5 C 16.18 21.11 16.65 20.57 19.19 20.57 C 20.53 20.57 21.6 20.88 21.6 25.05 C 21.61 32.1 21.61 32.91 19.02 32.91 Z"/><path d=" M 19.5 23.57 C 17.67 23.57 17.24 23.6 17.24 24.61 C 17.24 25.56 17.62 25.56 19.35 25.56 C 20.32 25.56 20.55 25.17 20.55 24.68 C 20.55 23.74 20.29 23.57 19.5 23.57 Z"/><path d=" M 19.5 27.86 C 17.67 27.86 17.24 27.89 17.24 28.9 C 17.24 29.85 17.62 29.85 19.35 29.85 C 20.32 29.85 20.55 29.46 20.55 28.97 C 20.55 28.03 20.29 27.86 19.5 27.86 Z"/></g><path d=" M 50.37 34.33 C 52.69 32.43 55.41 30.19 57.29 26.36 C 58.39 24.11 55.66 22.9 54.71 24.9 C 53.13 28.22 50.78 30.15 48.48 32.03 C 46.47 33.68 45.65 32.81 45.65 30.99 C 45.65 27.19 45.65 20.19 45.65 20.19 C 45.65 17.89 42.69 17.89 42.69 20.19 C 42.69 20.19 42.69 27.26 42.69 31.09 C 42.69 33.18 41.73 33.55 39.88 32.03 C 37.59 30.15 35.24 28.23 33.67 24.92 C 32.64 22.76 29.9 23.96 31.08 26.36 C 32.96 30.19 35.69 32.42 38.01 34.33 C 40.61 36.46 42.52 38.03 42.7 41.07 C 42.7 41.07 42.69 44.12 42.69 44.14 C 42.62 47.37 40.67 48.97 37.99 51.17 C 36.64 52.28 35.15 53.5 33.76 55.09 C 31.98 57.13 34.41 58.88 35.89 57.15 C 37.12 55.71 38.51 54.57 39.87 53.46 C 41.88 51.81 42.7 52.68 42.7 54.49 C 42.7 58.3 42.7 57.59 42.7 57.59 C 42.7 59.77 45.66 59.77 45.66 57.59 C 45.66 57.59 45.66 58.23 45.66 54.4 C 45.66 52.31 46.62 51.94 48.47 53.46 C 49.83 54.57 51.2 55.7 52.43 57.12 C 53.95 58.88 56.39 57.16 54.59 55.09 C 53.21 53.5 51.71 52.27 50.36 51.16 C 47.76 49.03 45.85 47.46 45.67 44.42 C 45.67 44.42 45.68 41.37 45.68 41.36 C 45.74 38.13 47.68 36.52 50.37 34.33 Z" fill="#030000"/><g><path d=" M 49.22 15.05 C 49.22 7.81 39.13 7.81 39.13 15.05 C 39.13 22.39 29.13 22.39 29.13 15.05 C 29.12 6.75 35.87 0 44.17 0 C 52.47 0 59.22 6.75 59.22 15.05 C 59.22 22.56 49.22 22.56 49.22 15.05 Z" fill="#030000"/></g></svg>