<svg version="1.1" width="61.07" height="60.7" viewBox="0 0 61.07 60.7" xmlns="http://www.w3.org/2000/svg" xmlns:xlink="http://www.w3.org/1999/xlink" overflow="visible"><defs></defs><path d=" M 60.21 14.38 C 56.87 12.19 51.96 10.4 45.61 11.37 C 43.85 11.64 43.24 9.59 44.76 8.72 C 46.31 7.84 47.19 6.32 47.13 4.26 C 47.05 1.84 45.17 -0.02 42.63 0 C 40.09 -0.02 38.21 1.84 38.14 4.26 C 38.08 6.32 38.96 7.83 40.51 8.72 C 42.03 9.59 41.42 11.64 39.66 11.37 C 33.31 10.4 28.4 12.19 25.06 14.38 C 23.18 15.61 24.66 18.26 26.91 17.05 C 29.17 15.83 31.67 13.82 36.64 14.56 C 39.7 15.01 40.06 15.47 40.06 18.63 C 40.06 18.87 40.06 40.19 40.06 40.45 C 40.05 42.87 39.62 43.69 36.72 44.38 C 30.19 45.94 27.66 50.02 27.66 58.25 C 27.66 61.31 31.58 61.74 31.58 58.24 C 31.58 51.27 33.34 48.83 37.68 47.73 C 41.12 46.85 44.28 46.89 47.59 47.73 C 51.93 48.83 53.69 51.27 53.69 58.24 C 53.69 61.74 57.61 61.31 57.61 58.25 C 57.61 50.02 55.08 45.93 48.55 44.38 C 45.65 43.69 45.22 42.87 45.21 40.45 C 45.21 40.21 45.21 18.9 45.21 18.68 C 45.21 15.47 45.56 15.02 48.63 14.56 C 53.61 13.82 56.1 15.83 58.36 17.05 C 60.61 18.26 62.09 15.6 60.21 14.38 Z"/><path d=" M 16.33 30.31 C 20.78 27.22 20.86 20.31 20.86 20.25 C 20.87 18.66 22.95 18.66 22.95 20.25 C 22.95 20.58 22.89 28.31 17.51 32.03 C 16.28 32.9 15.04 31.19 16.33 30.31 Z"/><path d=" M 15.43 43.61 C 14.62 42.34 16.35 41.15 17.19 42.49 C 18.46 44.49 23.68 46 24.79 42 C 25.21 40.47 24.79 39.29 24.11 38.02 C 22.44 34.89 22.66 30.77 25.93 28.32 C 27.07 27.45 28.37 29.11 27.18 30 C 25.11 31.55 24.7 34.59 26.01 37.17 C 26.74 38.61 27.42 40.31 26.79 42.57 C 25.21 48.36 17.7 47.19 15.43 43.61 Z"/><path d=" M 0.79 43.73 C 0.16 41.47 0.89 39.7 1.57 38.33 C 3.57 34.32 1.22 31.78 0.4 31.16 C -0.63 30.39 0.53 28.61 1.65 29.49 C 4.6 31.8 5.27 35.61 3.47 39.19 C 2.79 40.54 2.37 41.65 2.79 43.18 C 3.94 47.32 9.23 45.49 10.39 43.67 C 11.15 42.45 12.89 43.65 12.15 44.79 C 9.69 48.68 2.31 49.21 0.79 43.73 Z"/><path d=" M 5.69 31.16 C 5.69 29.9 5.19 28.76 4.67 27.56 C 3.65 25.23 2.5 22.6 4.24 18.32 C 4.81 16.91 6.81 17.57 6.18 19.11 C 4.77 22.58 5.66 24.59 6.59 26.73 C 7.18 28.08 7.79 29.47 7.79 31.17 C 7.79 32.89 5.69 32.89 5.69 31.16 Z"/><path d=" M 14.06 41.26 C 9.89 40.25 6.53 32.92 12.32 25.15 C 15.17 21.33 16.4 17.12 13.43 12.65 C 12.49 11.22 14.3 10.25 15.17 11.49 C 18.57 16.35 17.32 22.17 14.06 26.3 C 8.49 33.37 12.74 38.76 14.55 39.23 C 15.95 39.58 15.27 41.56 14.06 41.26 Z"/></svg>