<svg version="1.1" width="67.27" height="65.21" viewBox="0 0 67.27 65.21" xmlns="http://www.w3.org/2000/svg" xmlns:xlink="http://www.w3.org/1999/xlink" overflow="visible"><defs></defs><path d=" M 55.18 65.21 C 54.28 65.21 53.55 64.48 53.55 63.58 L 53.55 30.48 C 53.55 25.21 51.94 22.5 46.36 18.36 C 39.92 13.59 36.69 11.19 33.36 11.19 C 30.02 11.19 26.9 13.59 20.69 18.37 C 15.12 22.65 13.51 25.37 13.51 30.48 L 13.51 63.58 C 13.51 64.48 12.78 65.21 11.88 65.21 C 10.98 65.21 10.25 64.48 10.25 63.58 L 10.25 30.48 C 10.25 28.48 9.3 28.18 8.73 28.18 C 8.23 28.18 7.68 28.43 7.03 28.93 C 5.83 29.86 3.67 31.54 2.62 32.31 C 2.32 32.52 2 32.63 1.66 32.63 C 1.1 32.63 0.56 32.32 0.33 32.03 C 0.07 31.69 -0.05 31.26 0.01 30.84 C 0.07 30.41 0.28 30.03 0.62 29.77 C 0.86 29.59 25 11.17 27.37 9.43 C 31.02 6.75 31.32 5.88 31.32 2.22 C 31.32 1 32.31 0.01 33.53 0.01 C 34.75 0.01 35.74 1 35.74 2.22 C 35.74 6.35 36.63 7.21 39.21 9.08 C 41.7 10.89 66.39 29.72 66.64 29.91 C 66.98 30.17 67.2 30.55 67.25 30.98 C 67.3 31.41 67.19 31.83 66.93 32.17 C 66.62 32.57 66.16 32.8 65.65 32.8 C 65.28 32.8 64.94 32.68 64.66 32.46 L 64.66 32.46 C 64.66 32.46 61.29 29.84 60.16 28.98 C 59.57 28.53 59 28.3 58.49 28.3 C 57.72 28.3 56.81 28.87 56.81 30.48 L 56.81 63.58 C 56.81 64.47 56.08 65.21 55.18 65.21 Z" fill="#030000"/><path d=" M 32.33 26.76 C 31.9 26.76 31.56 26.87 31.56 27.98 C 31.56 29.42 31.83 29.6 32.36 29.6 C 32.92 29.6 33.09 29.39 33.09 27.98 C 33.08 26.84 32.81 26.76 32.33 26.76 Z" fill="#030000" fill-rule="evenodd" clip-rule="evenodd"/><path d=" M 29.29 26.66 C 29.29 27.14 28.9 27.53 28.42 27.53 C 27.94 27.53 27.55 27.14 27.55 26.66 C 27.55 26.18 27.94 25.79 28.42 25.79 C 28.9 25.79 29.29 26.18 29.29 26.66 Z" fill-rule="evenodd" clip-rule="evenodd"/><path d=" M 35.15 22.2 C 35.15 22.97 33.91 23.59 32.39 23.59 C 30.87 23.59 29.63 22.97 29.63 22.2 C 29.63 21.43 30.87 20.81 32.39 20.81 C 33.91 20.81 35.15 21.43 35.15 22.2 Z" fill-rule="evenodd" clip-rule="evenodd"/><path d=" M 37.17 26.66 C 37.17 27.14 36.78 27.53 36.3 27.53 C 35.82 27.53 35.43 27.14 35.43 26.66 C 35.43 26.18 35.82 25.79 36.3 25.79 C 36.78 25.79 37.17 26.18 37.17 26.66 Z" fill-rule="evenodd" clip-rule="evenodd"/><path d=" M 51.44 59.5 C 51.23 59.05 50.69 58.86 50.25 59.08 C 49.32 59.53 47.17 60.28 45.97 58.41 C 45.39 57.5 45.45 55.54 45.58 54.56 C 46.27 49.31 46.98 44.72 42.7 41.59 C 40.44 39.93 37.08 39.38 33.82 39.26 C 33.41 39.24 33.32 39.16 33.33 38.7 C 33.33 38.59 33.34 36.78 33.35 36.62 C 33.41 35.55 33.62 35.27 34.21 35.16 C 35.57 34.9 36.86 34.39 37.85 33.59 C 39.59 32.19 41.03 29.81 40.99 26.91 C 40.92 22.17 37.89 18.12 32.64 18.08 C 27.47 18.04 23.64 21.62 23.49 26.26 C 23.38 29.74 24.78 32.26 27.26 34.02 C 28.16 34.66 29.38 35.07 30.71 35.24 C 31.19 35.3 31.37 35.55 31.36 36.52 C 31.36 36.72 31.35 38.54 31.33 38.64 C 31.25 39.03 31.29 39.22 30.64 39.24 C 29.46 39.28 28.36 39.34 27.4 39.4 C 26.71 39.44 25.6 39.41 25.6 39.41 C 24.64 39.38 24.26 39.07 23.74 38.24 C 21.8 35.1 17.96 35.65 16.17 36.39 C 15.72 36.58 15.5 37.1 15.69 37.55 C 15.88 38.01 16.4 38.22 16.86 38.04 C 16.98 37.99 19.14 37.17 20.88 37.93 C 21.75 38.31 22.1 39.16 20.69 39.32 C 17.43 39.69 15.58 41.36 15.49 41.44 C 15.13 41.78 15.11 42.34 15.45 42.7 C 15.79 43.06 16.35 43.08 16.71 42.74 C 16.73 42.72 18.32 41.28 21.18 41.06 C 22.86 40.93 22.95 41.6 22.56 42.55 C 21.94 44.07 20.11 44.38 18.99 45.71 C 18.67 46.09 18.64 46.67 19.03 46.97 C 19.37 47.24 19.95 47.27 20.29 46.93 C 21.19 46.02 22.09 45.62 22.62 45.21 C 23.45 44.57 23.99 43.73 24.26 42.82 C 24.56 41.82 25.27 41.51 25.85 41.42 C 26.31 41.4 26.86 41.37 27.5 41.33 C 28.25 41.28 29.14 41.23 30.1 41.2 C 30.52 41.18 30.66 41.37 30.47 41.7 C 29.81 42.89 28.74 43.86 27.07 44.96 C 24.79 46.47 23.5 48.24 23.52 50.11 C 23.53 51.29 24.01 53.17 26.63 54.53 C 29.83 56.18 33.87 56.4 37.36 55.05 C 39.28 54.31 40.62 53.2 41.06 51.87 C 42.04 48.92 40.21 46.74 40.14 46.65 C 39.77 46.2 39.11 46.14 38.66 46.51 C 38.21 46.88 38.15 47.54 38.51 47.99 C 38.52 48 39.59 49.38 38.98 51.2 C 38.75 51.9 37.91 52.54 36.61 53.03 C 33.42 54.22 30.01 54.1 27.7 52.72 C 26.76 52.16 25.64 51.25 25.62 50.09 C 25.6 49.01 26.64 47.91 28.18 46.75 C 30.94 44.69 32.08 43.43 32.7 41.71 C 32.86 41.27 33.08 41.17 33.45 41.18 C 36.48 41.27 39.61 41.73 41.53 43.14 C 44.61 45.4 44.42 48.56 43.63 54.26 C 43.45 55.55 43.19 57.71 44.28 59.43 C 45.11 60.75 46.44 61.42 47.99 61.42 C 48.92 61.42 49.94 61.18 50.98 60.68 C 51.46 60.48 51.65 59.94 51.44 59.5 Z M 25.5 26 C 25.75 22.59 29.38 19.91 32.38 19.91 C 35.66 19.91 39.08 22.72 39.05 26.9 C 39.03 29.75 37.72 31.93 35.45 32.85 C 33.53 33.63 31.6 33.66 29.87 33.14 C 26.56 32.15 25.25 29.36 25.5 26 Z"/></svg>