<svg version="1.1" width="56.64" height="65.64" viewBox="0 0 56.64 65.64" xmlns="http://www.w3.org/2000/svg" xmlns:xlink="http://www.w3.org/1999/xlink" overflow="visible"><defs></defs><path d=" M 54.92 21.95 C 49.86 19.68 41.26 17.61 31.94 16.88 C 30.26 16.75 29.53 14.42 31.47 13.3 C 33.86 11.93 35.23 9.58 35.14 6.4 C 35.02 2.67 32.22 0 28.19 0 C 24.4 0 21.62 2.75 21.51 6.41 C 21.41 9.59 22.78 11.94 25.18 13.31 C 27.12 14.42 26.39 16.75 24.71 16.89 C 15.39 17.62 6.78 19.69 1.73 21.96 C -1.44 23.38 0.07 27.84 3.81 26.53 C 6.23 25.68 10.56 24.21 15.6 23.47 C 18.68 23.02 19.26 24.06 19.85 25.3 C 20.99 27.7 21.47 29.67 21.81 31.34 C 22.5 34.66 21.6 37.08 19.52 39.16 C 13.4 45.28 9.66 51.22 5.98 61.25 C 4.56 65.12 9.73 67.96 11.81 63.01 C 14.1 55.88 17.21 50.38 20.45 46.87 C 27.31 39.43 29.22 39.31 36.2 46.87 C 39.44 50.38 42.55 55.88 44.84 63.01 C 46.92 67.96 52.08 65.12 50.67 61.25 C 47 51.22 43.25 45.28 37.13 39.16 C 35.05 37.08 34.16 34.66 34.84 31.34 C 35.19 29.67 35.66 27.71 36.8 25.3 C 37.39 24.05 37.97 23.01 41.05 23.47 C 46.09 24.21 50.42 25.68 52.84 26.53 C 56.58 27.84 58.09 23.38 54.92 21.95 Z M 31.35 24.58 C 30.7 26.65 29.86 29.3 29.45 31.88 C 29.21 33.4 27.41 33.31 27.18 31.88 C 26.77 29.3 25.93 26.65 25.28 24.58 C 24.97 23.59 25.26 23.01 25.88 22.7 C 27.25 22.03 29.39 22.03 30.76 22.7 C 31.37 23.01 31.66 23.59 31.35 24.58 Z" fill-rule="evenodd" clip-rule="evenodd"/></svg>