<svg version="1.1" width="59.29" height="59.25" viewBox="0 0 59.29 59.25" xmlns="http://www.w3.org/2000/svg" xmlns:xlink="http://www.w3.org/1999/xlink" overflow="visible"><defs></defs><path d=" M 58.15 19.17 C 53.69 16.25 47.15 13.87 38.68 15.16 C 36.33 15.52 35.52 12.79 37.54 11.63 C 39.6 10.45 40.78 8.43 40.7 5.69 C 40.61 2.46 38.1 -0.03 34.71 0 C 31.33 -0.03 28.81 2.46 28.72 5.68 C 28.64 8.42 29.82 10.44 31.88 11.62 C 33.9 12.78 33.09 15.51 30.74 15.15 C 22.27 13.86 15.73 16.24 11.27 19.16 C 8.77 20.8 10.73 24.34 13.74 22.71 C 16.76 21.08 20.08 18.4 26.72 19.39 C 30.8 19.99 31.29 20.6 31.29 24.81 C 31.29 25.13 31.29 31.87 31.29 32.22 C 31.28 35.45 30.7 36.54 26.83 37.46 C 18.12 39.54 14.75 44.98 14.75 55.96 C 14.75 60.04 19.98 60.61 19.98 55.94 C 19.98 46.65 22.33 43.4 28.11 41.93 C 32.7 40.76 36.91 40.8 41.32 41.93 C 47.1 43.4 49.45 46.65 49.45 55.94 C 49.45 60.61 54.68 60.04 54.68 55.96 C 54.68 44.98 51.3 39.54 42.6 37.46 C 38.73 36.54 38.16 35.45 38.14 32.22 C 38.14 31.9 38.14 25.17 38.14 24.88 C 38.14 20.6 38.6 20 42.7 19.39 C 49.34 18.4 52.66 21.08 55.68 22.71 C 58.69 24.35 60.65 20.8 58.15 19.17 Z"/><path d=" M 16.33 36.16 C 16.33 36.16 12.94 36.16 11.41 36.16 C 10.33 36.16 9.74 35.88 9.74 34.75 C 9.74 34.6 9.75 34.39 9.75 34.32 C 9.71 33.86 9.72 33.69 10.35 33.69 C 11.65 33.69 12.24 33.69 12.24 33.69 C 15.44 33.69 15.44 28.89 12.24 28.89 C 12.24 28.89 11.65 28.89 10.35 28.89 C 10.1 28.89 9.74 28.72 9.74 28.29 C 9.74 27.82 9.74 26.8 9.74 26.8 C 9.74 26.51 9.24 25.77 8.99 25.39 C 8.89 25.24 8.74 25.25 8.62 25.42 C 8.33 25.81 7.91 26.52 7.91 26.8 C 7.91 26.8 7.91 27.8 7.91 28.26 C 7.91 28.67 7.69 28.88 7.19 28.88 C 5.92 28.88 5.23 28.88 5.23 28.88 C 1.79 28.88 1.79 33.68 5.23 33.68 C 5.23 33.68 5.95 33.68 7.22 33.68 C 7.77 33.68 7.93 33.89 7.92 34.25 C 7.92 34.32 7.91 34.53 7.91 34.7 C 7.91 35.87 7.57 36.15 6.46 36.15 C 4.83 36.15 1.59 36.15 1.59 36.15 C -0.52 36.15 -0.52 38.67 1.59 38.67 L 16.34 38.67 C 18.16 38.68 18.16 36.16 16.33 36.16 Z"/></svg>