<svg version="1.1" width="61.41" height="62.45" viewBox="0 0 61.41 62.45" xmlns="http://www.w3.org/2000/svg" xmlns:xlink="http://www.w3.org/1999/xlink" overflow="visible"><defs></defs><g><path d=" M 59.86 25.33 C 56.45 23.85 52.95 22.71 45.11 21.83 C 43.79 21.68 43.24 19.83 44.92 19.05 C 46.25 18.43 47.66 16.58 47.63 14.42 C 47.59 11.62 45.67 9.35 42.74 9.33 C 39.87 9.31 37.46 11.23 37.46 14.21 C 37.46 16.54 38.58 18.2 40.33 19.21 C 41.75 20.02 41.22 21.76 39.98 21.83 C 33.41 22.19 28.74 23.4 25.04 25.06 C 22.72 26.1 23.9 29.33 26.64 28.37 C 28.75 27.63 30.89 26.76 35.47 26.4 C 37.45 26.24 38.56 26.37 38.69 29.29 C 38.7 29.48 38.7 31.34 38.7 31.49 C 38.7 32.92 38.33 34.15 37.43 35.28 L 37.43 35.28 C 36.38 36.63 35.34 37.98 34.68 38.93 C 31.74 43.16 32.13 46.75 35.83 49.6 C 36.68 50.25 37.57 50.95 38.3 51.49 C 39.29 52.24 39.41 52.83 38.29 53.7 C 34.54 56.61 32.44 58.09 32.4 58.11 C 31.64 58.68 31.47 59.75 32.04 60.52 C 32.38 60.98 32.9 61.22 33.42 61.22 C 33.78 61.22 34.14 61.11 34.44 60.88 C 34.48 60.85 37 58.98 41.01 55.95 C 41.94 55.25 43.24 55.25 44.17 55.95 C 48.18 58.98 50.7 60.85 50.74 60.88 C 51.05 61.11 51.41 61.22 51.76 61.22 C 52.29 61.22 52.81 60.98 53.14 60.52 C 53.7 59.76 53.54 58.68 52.78 58.11 C 52.74 58.08 50.5 56.42 46.89 53.7 C 45.77 52.83 45.88 52.24 46.88 51.49 C 47.68 50.88 48.5 50.25 49.35 49.6 C 53.05 46.75 53.44 43.16 50.5 38.93 C 49.84 37.97 48.78 36.6 47.72 35.24 C 46.72 33.97 46.37 32.9 46.37 31.61 C 46.37 31.5 46.37 29.66 46.38 29.52 C 46.46 26.88 47.3 26.5 48.97 26.48 C 51.71 26.45 56.13 27.66 58.41 28.49 C 61.47 29.61 62.59 26.52 59.86 25.33 Z M 47.69 40.89 C 49.58 43.61 49.47 45.17 47.27 46.86 C 46.2 47.68 45.18 48.47 44.19 49.22 C 43.26 49.93 41.97 49.93 41.04 49.22 C 40.05 48.47 39.03 47.68 37.96 46.86 C 35.76 45.17 35.65 43.6 37.54 40.89 C 38.31 39.79 39.66 38.04 40.92 36.45 C 41.79 35.35 43.46 35.35 44.32 36.45 C 45.57 38.04 46.93 39.79 47.69 40.89 Z"/></g><path d=" M 20.7 19.9 C 23.88 17.29 27.83 14.05 29.22 6.8 C 29.67 4.42 26.82 3.88 26.37 6.26 C 25.19 12.47 21.97 15.11 18.86 17.66 C 16.89 19.28 16.08 18.42 16.08 16.64 C 16.08 12.91 16.08 1.7 16.08 1.7 C 16.08 -0.55 13.17 -0.55 13.17 1.7 C 13.17 1.7 13.17 12.98 13.17 16.74 C 13.17 18.79 12.23 19.16 10.41 17.67 C 7.3 15.1 4.08 12.47 2.9 6.26 C 2.46 3.94 -0.39 4.48 0.05 6.8 C 1.43 14.05 5.39 17.29 8.57 19.9 C 11.12 21.99 12.99 23.53 13.17 26.51 C 13.17 26.51 13.18 43.7 13.18 43.72 C 13.11 46.89 11.2 48.46 8.57 50.62 C 7.24 51.71 5.78 52.91 4.42 54.47 C 2.68 56.47 5.05 58.19 6.5 56.5 C 7.71 55.09 9.07 53.97 10.41 52.88 C 12.38 51.26 13.19 52.11 13.19 53.9 C 13.19 57.63 13.19 60.86 13.19 60.86 C 13.19 63 16.1 63 16.1 60.86 C 16.1 60.86 16.1 57.56 16.1 53.81 C 16.1 51.76 17.04 51.39 18.86 52.88 C 20.19 53.97 21.54 55.07 22.74 56.47 C 24.23 58.2 26.62 56.52 24.86 54.48 C 23.5 52.92 22.03 51.72 20.71 50.63 C 18.16 48.54 16.28 47 16.11 44.02 C 16.11 44.02 16.1 26.83 16.1 26.82 C 16.15 23.63 18.06 22.05 20.7 19.9 Z" fill="#030000"/></svg>