<svg version="1.1" width="63.23" height="65.31" viewBox="0 0 63.23 65.31" xmlns="http://www.w3.org/2000/svg" xmlns:xlink="http://www.w3.org/1999/xlink" overflow="visible"><defs></defs><path d=" M 1.46 8.18 C 2.3 8.13 3.02 8.79 3.06 9.63 C 3.22 12.87 3.61 15.57 4.18 17.81 C 4.89 20.61 6.49 19.78 5.9 16.61 C 5.71 15.55 5.56 14.48 5.47 13.42 C 5.12 9 5.04 7.21 4.96 4.46 C 4.94 3.61 5.6 2.91 6.44 2.88 C 6.46 2.88 6.47 2.88 6.49 2.88 C 7.32 2.88 7.99 3.54 8.02 4.37 C 8.1 7.08 8.12 8.83 8.53 13.18 C 8.93 17.42 10.25 18.78 10.44 15.07 C 10.85 7.11 11.35 3.35 12.06 1.08 C 12.31 0.27 13.17 -0.18 13.97 0.07 C 14.78 0.32 15.23 1.18 14.98 1.99 C 14.45 3.73 13.19 9.02 13.49 15.71 C 13.59 18.08 14.59 18.32 15.2 15.87 C 16.95 8.8 19.29 5.42 19.39 5.28 C 19.87 4.59 20.82 4.42 21.52 4.91 C 22.21 5.39 22.38 6.34 21.9 7.04 C 21.88 7.07 19.78 10.16 18.17 16.62 C 17.6 18.92 16.92 21.29 15.84 23.01 C 15.16 24.09 16.15 25.04 16.87 24.06 C 17.71 22.93 18.41 21.66 19.3 19.76 C 20.57 17.05 21.98 15.63 23.11 15.12 C 23.87 14.78 24.98 14.62 25.36 15.36 C 25.74 16.11 25.31 16.85 24.7 17.42 C 23.7 18.35 22.66 19.39 22.06 20.88 C 20.46 24.91 18.44 27.72 15.85 29.01 C 13.95 29.95 13.24 30.85 13.06 33.4 C 13.06 33.47 13.06 62.86 13.06 62.86 C 13.06 64.22 11.96 65.32 10.59 65.32 C 9.22 65.32 8.12 64.22 8.12 62.86 C 8.12 62.86 8.12 36.47 8.12 31.79 C 8.12 30.21 7.64 29.12 6.2 27.96 C 3.27 25.6 0.52 20.47 0 9.79 C -0.04 8.94 0.61 8.22 1.46 8.18 Z" fill="#030000"/><path d=" M 62.16 32.82 C 57.99 30.09 51.87 27.86 43.95 29.07 C 41.75 29.4 40.99 26.85 42.89 25.77 C 44.82 24.67 45.92 22.77 45.85 20.21 C 45.76 17.2 43.41 14.87 40.25 14.9 C 37.08 14.87 34.74 17.2 34.65 20.21 C 34.57 22.77 35.68 24.67 37.61 25.77 C 39.5 26.85 38.74 29.41 36.55 29.07 C 28.63 27.86 22.51 30.09 18.34 32.82 C 16 34.35 17.84 37.66 20.65 36.14 C 23.48 34.61 26.58 32.11 32.79 33.03 C 36.61 33.6 37.06 34.16 37.06 38.1 C 37.06 38.39 37.06 39.71 37.06 40.03 C 37.05 43.05 36.51 44.07 32.89 44.93 C 24.75 46.87 21.59 51.96 21.59 62.23 C 21.59 66.05 26.48 66.58 26.48 62.22 C 26.48 53.53 28.68 50.49 34.08 49.12 C 38.37 48.03 42.31 48.07 46.44 49.12 C 51.84 50.5 54.04 53.53 54.04 62.22 C 54.04 66.59 58.93 66.05 58.93 62.23 C 58.93 51.97 55.77 46.87 47.63 44.93 C 44.01 44.07 43.48 43.05 43.46 40.03 C 43.46 39.73 43.46 38.44 43.46 38.16 C 43.46 34.16 43.89 33.59 47.73 33.03 C 53.94 32.11 57.04 34.61 59.87 36.14 C 62.67 37.66 64.5 34.35 62.16 32.82 Z"/></svg>