<svg version="1.1" width="60.22" height="62.48" viewBox="0 0 60.22 62.48" xmlns="http://www.w3.org/2000/svg" xmlns:xlink="http://www.w3.org/1999/xlink" overflow="visible"><defs></defs><path d=" M 35.91 46.23 C 34.75 49.83 34.33 56.07 34.71 60.59 C 34.92 62.96 38.72 63.19 38.68 60.14 C 38.65 57.82 38.52 53.17 39.29 49.13 C 39.84 46.26 41.99 41.82 44.14 40.53 C 45.82 39.52 47.9 40.17 47.76 42.13 C 47.61 44.19 47.58 46.91 47.36 49.5 C 46.91 54.77 50.5 57.83 56.76 61.86 C 59.72 63.77 61.53 60.17 59.1 58.77 C 55.24 56.18 51.11 54.07 51.4 48.9 C 51.55 46.15 51.76 44.22 52 41.41 C 52.5 35.63 43.07 33.14 38.45 40.71 C 37.45 42.29 36.57 44.18 35.91 46.23 Z" fill-rule="evenodd" clip-rule="evenodd"/><g><path d=" M 14.19 60.81 L 14.19 23.01 C 14.19 22.09 14.94 21.34 15.86 21.34 C 16.78 21.34 17.53 22.09 17.53 23.01 L 17.53 60.8 C 17.53 61.72 16.78 62.47 15.86 62.47 C 14.94 62.48 14.19 61.73 14.19 60.81 Z"/></g><path d=" M 8.42 11.64 C 6.18 12.27 5.16 10.46 1.77 11.57 C -1.19 12.54 -0.02 14.71 2.32 14.92 C 4.8 15.14 4.91 14.03 10.82 14.03 C 13.62 14.03 16.94 16.96 24.6 14.75 C 27.1 14.03 28.85 15.05 30.5 14.5 C 32.74 13.75 31.49 11.85 28.82 11.39 C 26.56 11 25.58 11.26 23 11.83 C 21.03 12.25 17.09 7.97 8.42 11.64 Z" fill="#030000" fill-rule="evenodd" clip-rule="evenodd"/><path d=" M 19.23 3.42 C 19.23 5.31 17.7 6.84 15.81 6.84 C 13.92 6.84 12.39 5.31 12.39 3.42 C 12.39 1.53 13.92 0 15.81 0 C 17.7 0 19.23 1.53 19.23 3.42 Z" fill="#030000" fill-rule="evenodd" clip-rule="evenodd"/><path d=" M 4.75 28.55 L 9.68 21.82 C 10.14 21.19 10 20.31 9.36 19.85 C 8.73 19.39 7.85 19.53 7.39 20.16 L 2.46 26.9 C 2.1 27.4 2.21 28.75 2.28 29.29 C 2.29 29.43 2.37 29.51 2.47 29.49 C 2.95 29.39 4.37 29.08 4.75 28.55 Z" fill="#030000"/><path d=" M 26.87 28.55 L 21.94 21.82 C 21.48 21.19 21.62 20.31 22.26 19.85 C 22.89 19.39 23.77 19.53 24.23 20.16 L 29.16 26.89 C 29.52 27.39 29.4 28.74 29.34 29.28 C 29.33 29.42 29.25 29.5 29.15 29.48 C 28.67 29.39 27.25 29.08 26.87 28.55 Z" fill="#030000"/><path d=" M 46.33 33.14 C 38.13 33.14 36.73 29.7 34.9 23.93 C 34.3 22.03 33.57 19.91 34.52 18.51 C 35.37 17.26 37.02 17.05 38.17 16.92 C 39.51 16.77 40.7 15.08 43.24 15.13 C 44.62 15.15 45.52 15.81 46.11 16.26 C 46.17 16.31 46.46 16.31 46.52 16.26 C 47.12 15.81 48.02 15.17 49.39 15.13 C 52.08 15.06 53 16.57 54.55 16.93 C 55.71 17.2 57.4 17.46 58.2 18.79 C 59.08 20.24 58.01 23.05 57.43 24.7 C 55.65 29.81 54.55 33.14 46.33 33.14 Z M 41.32 18.98 C 40.6 19.43 39.75 19.87 38.7 19.94 C 37.24 20.04 37.44 21.45 37.97 23.12 C 39.64 28.42 40.09 29.85 46.33 30.04 C 52.28 29.85 52.78 28.44 54.43 23.77 C 55.04 22.06 55.59 20.16 53.87 19.93 C 52.92 19.8 52.13 19.37 51.44 18.99 C 50.71 18.59 49.54 17.81 48.17 18.76 C 47.69 19.09 47.13 19.55 46.33 19.55 C 45.53 19.55 44.97 19.09 44.49 18.76 C 43.77 18.27 42.67 18.13 41.32 18.98 Z" fill="#030000"/></svg>