<svg version="1.1" width="60.76" height="61.61" viewBox="0 0 60.76 61.61" xmlns="http://www.w3.org/2000/svg" xmlns:xlink="http://www.w3.org/1999/xlink" overflow="visible"><defs></defs><path d=" M 59.44 23.57 C 62.11 18.72 60.52 14.29 56.31 11.36 L 55.5 10.82 C 52.03 8.53 48.1 5.93 46.09 1.19 C 45.12 -1.07 41.9 0.29 42.85 2.57 C 43.72 4.65 43.88 5.21 43.88 7.09 C 43.88 17.48 43.88 45.28 43.88 54.06 C 43.88 57.28 43.7 56.81 42.85 58.82 C 41.75 61.42 45.05 62.66 46.09 60.2 C 48.1 55.45 52.03 52.86 55.5 50.57 L 56.31 50.03 C 60.73 47.08 62.02 42.26 59.44 37.82 C 56.14 32.13 56.22 29.43 59.44 23.57 Z M 54.36 47.09 C 52.43 48.34 48.54 50.94 46.26 53.49 C 45.52 54.32 45.06 54.12 45.06 52.88 C 45.06 41.76 45.06 19.53 45.06 8.41 C 45.06 7.12 45.81 7.39 46.26 7.89 C 48.54 10.43 51.22 12.23 53.56 13.76 C 56.65 15.78 58.48 17.89 56.19 22.19 C 52.36 29.38 52.7 32.57 56.19 39.19 C 57.66 41.98 57.73 44.92 54.36 47.09 Z"/><g><path d=" M 34.37 22.15 C 34.37 15.74 29.28 16.53 29.3 13.6 C 29.32 10.57 32.37 10.25 32.29 6.1 C 32.21 1.91 28.98 -0.04 25.91 -1.77636e-15 C 22.59 0.04 19.77 2.55 19.77 6.24 C 19.77 8.87 20.91 10.4 21.97 11.26 C 23.35 12.39 25.19 12.46 25.24 13.87 C 25.3 15.34 24.01 15.99 23.07 16.04 C 15.33 16.49 10.11 15.95 3.35 14.44 C -0.45 13.6 -1.35 18.37 2.36 19.24 C 6.48 20.21 11.07 20.74 14.49 21.15 C 18.56 21.64 18.85 23.55 18.85 26.06 C 18.85 27.56 18.85 29.49 18.81 31.87 C 18.79 33 19.04 35.11 16.8 38.67 C 13.3 44.21 11.41 47.11 8.83 51.26 C 6.52 54.98 10.88 58.02 13.45 53.91 C 13.88 53.22 16.51 49.15 21.09 41.93 C 22.47 39.76 23.1 39.46 25.59 39.46 C 28.12 39.46 29.08 40.05 29.08 42.64 C 29.08 47.23 29.1 50.27 29.1 58.44 C 29.1 62.64 34.35 62.64 34.35 58.54 C 34.37 57.36 34.37 23.31 34.37 22.15 Z M 29.11 32.78 C 29.11 34.09 28.69 34.53 27.35 34.53 C 26.78 34.53 25.65 34.53 25.09 34.53 C 23.79 34.53 23.35 34.09 23.35 32.8 C 23.35 30.4 23.35 25.59 23.35 23.18 C 23.35 21.89 23.79 21.42 25.1 21.42 C 25.66 21.42 26.79 21.42 27.35 21.42 C 28.62 21.42 29.11 21.86 29.11 23.17 C 29.11 25.57 29.11 30.37 29.11 32.78 Z"/></g><path d=" M 26.42 26.97 L 26 26.97 C 25.22 26.97 24.59 26.34 24.59 25.56 C 24.59 24.78 25.22 24.15 26 24.15 L 26.41 24.15 C 27.19 24.15 27.82 24.78 27.82 25.56 C 27.83 26.34 27.2 26.97 26.42 26.97 Z"/><path d=" M 26.42 31.8 L 26 31.8 C 25.22 31.8 24.59 31.17 24.59 30.39 C 24.59 29.61 25.22 28.98 26 28.98 L 26.41 28.98 C 27.19 28.98 27.82 29.61 27.82 30.39 C 27.83 31.16 27.2 31.8 26.42 31.8 Z"/></svg>