<svg version="1.1" width="52.07" height="62.95" viewBox="0 0 52.07 62.95" xmlns="http://www.w3.org/2000/svg" xmlns:xlink="http://www.w3.org/1999/xlink" overflow="visible"><defs></defs><path d=" M 50.41 22.8 C 46.11 20.93 39.23 18.85 29.33 17.73 C 27.66 17.54 26.97 15.2 29.09 14.22 C 30.17 13.72 31.27 12.67 31.91 11.25 C 32.58 9.76 32.59 9.41 34.56 9.41 L 38.04 9.41 C 38.74 9.41 39.3 8.85 39.3 8.15 C 39.3 7.45 38.74 6.89 38.04 6.89 L 35.8 6.89 C 33.72 6.89 32.73 6.27 32.73 4.12 C 32.73 1.84 30.88 8.88178e-16 28.61 8.88178e-16 L 23.46 8.88178e-16 C 21.18 8.88178e-16 19.34 1.85 19.34 4.12 C 19.34 6.27 18.36 6.89 16.27 6.89 L 14.03 6.89 C 13.33 6.89 12.77 7.46 12.77 8.15 C 12.77 8.85 13.33 9.41 14.03 9.41 L 17.51 9.41 C 19.48 9.41 19.49 9.76 20.16 11.25 C 20.8 12.66 21.9 13.72 22.98 14.22 C 25.1 15.2 24.41 17.54 22.74 17.73 C 12.84 18.85 5.96 20.93 1.66 22.8 C -1.38 24.12 0.05 28.05 3.48 26.79 C 6.35 25.73 13.85 23.52 17.85 23.6 C 21.65 23.67 22.57 24.65 22.58 30.35 C 22.58 33.92 20.11 36.45 18.62 37.94 C 12.87 43.7 8.61 49.14 5.51 58.73 C 4.15 62.95 9.45 64.83 10.93 60.49 C 14.91 48.83 21.06 41.61 26.04 41.54 C 31.02 41.61 37.22 48.81 41.15 60.49 C 42.56 64.67 47.93 62.87 46.57 58.73 C 43.41 49.16 39.21 43.7 33.46 37.94 C 31.98 36.46 29.5 33.93 29.5 30.35 C 29.5 24.65 30.43 23.68 34.23 23.6 C 38.23 23.52 45.73 25.73 48.6 26.79 C 52.02 28.05 53.45 24.13 50.41 22.8 Z"/></svg>