<svg version="1.1" width="57.87" height="57.72" viewBox="0 0 57.87 57.72" xmlns="http://www.w3.org/2000/svg" xmlns:xlink="http://www.w3.org/1999/xlink" overflow="visible"><defs></defs><path d=" M 5.27 8.91 C 7.09 9.76 7.97 9.36 11.16 8.7 C 11.21 8.69 11.31 8.66 11.24 8.52 C 10.08 6.36 9.58 4.52 8.06 3.63 C 6.23 2.56 4.43 3.34 3.68 4.87 C 2.84 6.6 3.66 8.16 5.27 8.91 Z" fill-rule="evenodd" clip-rule="evenodd"/><path d=" M 8.4 21.95 C 8.44 21.92 8.52 21.84 8.39 21.75 C 6.38 20.36 5.09 18.96 3.32 18.86 C 1.21 18.76 -0.04 20.26 4.44089e-16 21.97 C 0.04 23.89 1.49 24.91 3.25 24.83 C 5.26 24.76 5.86 24.01 8.4 21.95 Z" fill-rule="evenodd" clip-rule="evenodd"/><path d=" M 3.43 50.21 C 4.86 49.08 6.82 49.3 9.33 49.01 C 9.49 48.99 9.47 49.11 9.46 49.16 C 8.89 52.48 8.94 53.47 7.43 54.89 C 6.11 56.14 4.3 56.34 2.96 54.88 C 1.78 53.58 1.72 51.56 3.43 50.21 Z" fill-rule="evenodd" clip-rule="evenodd"/><path d=" M 23.67 42.03 C 21.99 45.33 20.64 51.2 20.32 55.63 C 20.15 57.95 23.8 58.76 24.23 55.8 C 24.56 53.55 25.13 49.13 26.5 45.34 C 27.47 42.65 30.33 38.9 32.51 37.76 C 35.39 36.27 39.42 36.91 40.77 41.14 C 41.39 43.07 42.05 45.49 42.63 47.97 C 43.8 53.02 47.94 54.38 54.99 56.25 C 58.33 57.14 58.83 53.56 56.23 52.67 C 48.92 50.15 47.2 49.86 46.2 46.19 C 45.49 43.59 45.26 42.85 44.53 40.18 C 42.54 32.91 34.17 29.86 27.14 37.05 C 25.85 38.38 24.63 40.15 23.67 42.03 Z" fill-rule="evenodd" clip-rule="evenodd"/><g><path d=" M 28.04 9.01 C 27.97 9.98 28.28 10.89 28.87 11.57 C 30.3 13.24 31.49 12.05 32.67 11.14 C 33.96 10.13 35.19 11.71 33.9 12.72 C 32.33 13.94 32.02 14.48 31.85 15.97 C 31.56 18.51 33.38 20.81 35.91 21.1 C 38.44 21.39 40.75 19.57 41.04 17.03 L 42.5 4.43 C 42.79 1.98 39.51 1.6 39.23 4.05 C 39.23 4.05 39.03 5.76 38.97 6.33 C 38.91 6.78 38.75 7.08 38.09 7 C 37.84 6.97 37.34 6.91 37.09 6.88 C 36.34 6.79 36.26 6.43 36.31 5.97 C 36.42 4.99 36.76 2.04 36.76 2.04 C 37.05 -0.41 33.77 -0.79 33.49 1.66 C 33.49 1.66 33.15 4.62 33.03 5.61 C 32.96 6.22 32.44 6.16 32.18 6.11 C 31.36 5.96 30.92 4.77 31.03 3.82 C 31.32 1.37 28.04 0.99 27.76 3.44 C 27.66 4.29 27.77 5.11 28.02 5.87 C 28.6 7.56 28.11 7.99 28.04 9.01 Z" fill="#030000"/><path d=" M 55.55 25.1 L 15.82 25.1 C 13.41 25.1 13.41 28.25 15.82 28.25 L 55.55 28.25 C 58.15 28.25 58.16 25.1 55.55 25.1 Z" fill="#030000"/></g></svg>