<svg version="1.1" width="38.38" height="60.58" viewBox="0 0 38.38 60.58" xmlns="http://www.w3.org/2000/svg" xmlns:xlink="http://www.w3.org/1999/xlink" overflow="visible"><defs></defs><path d=" M 8.4 46.75 C 6.84 49.63 5.51 54.79 5.12 58.7 C 4.92 60.75 8.12 61.55 8.57 58.94 C 8.91 56.96 9.52 53.06 10.82 49.74 C 11.74 47.38 14.35 44.13 16.31 43.18 C 18.89 41.93 22.44 42.58 23.53 46.36 C 24.03 48.08 24.56 50.38 25.01 52.59 C 25.93 57.08 29.56 58.38 35.74 60.2 C 38.67 61.06 39.29 57.62 36.92 57.06 C 33.07 55.86 29.23 55.48 28.2 51.1 C 27.66 48.78 27.45 47.98 26.87 45.6 C 25.27 39.12 17.94 36.24 11.57 42.43 C 10.41 43.57 9.29 45.11 8.4 46.75 Z" fill-rule="evenodd" clip-rule="evenodd"/><path d=" M 23.96 21.31 C 28.86 17.91 28.94 10.32 28.94 10.24 C 28.95 8.49 31.24 8.49 31.24 10.24 C 31.24 10.6 31.17 19.11 25.26 23.2 C 23.91 24.16 22.54 22.28 23.96 21.31 Z"/><path d=" M 23.97 34.94 C 23.08 33.55 24.98 32.24 25.91 33.71 C 27.3 35.91 33.04 37.57 34.26 33.17 C 34.73 31.49 34.26 30.19 33.52 28.79 C 31.68 25.34 31.92 20.82 35.53 18.13 C 36.78 17.18 38.21 19 36.91 19.97 C 34.63 21.68 34.19 25.01 35.63 27.85 C 36.43 29.43 37.18 31.3 36.49 33.79 C 34.71 40.16 26.46 38.87 23.97 34.94 Z"/><path d=" M 0.87 34.07 C 0.18 31.58 0.98 29.64 1.73 28.13 C 3.93 23.72 1.35 20.92 0.44 20.25 C -0.69 19.41 0.58 17.44 1.82 18.41 C 5.06 20.95 5.8 25.14 3.83 29.07 C 3.08 30.55 2.62 31.78 3.09 33.45 C 4.36 38 10.17 35.99 11.44 33.98 C 12.28 32.64 14.19 33.95 13.38 35.21 C 10.65 39.51 2.54 40.1 0.87 34.07 Z"/><path d=" M 9.26 22.25 C 9.26 20.86 8.71 19.61 8.13 18.29 C 7.01 15.73 5.75 12.83 7.65 8.13 C 8.28 6.59 10.47 7.31 9.78 8.99 C 8.23 12.8 9.2 15.02 10.23 17.36 C 10.88 18.84 11.55 20.38 11.55 22.24 C 11.56 24.15 9.26 24.15 9.26 22.25 Z"/><path d=" M 19.46 33.35 C 14.87 32.24 11.18 24.18 17.55 15.64 C 20.68 11.44 22.04 6.81 18.77 1.9 C 17.73 0.33 19.73 -0.74 20.68 0.63 C 24.42 5.97 23.04 12.37 19.46 16.91 C 13.33 24.68 18.01 30.62 20 31.12 C 21.54 31.51 20.78 33.68 19.46 33.35 Z"/></svg>