<svg version="1.1" width="45.29" height="46.66" viewBox="0 0 45.29 46.66" xmlns="http://www.w3.org/2000/svg" xmlns:xlink="http://www.w3.org/1999/xlink" overflow="visible"><defs></defs><path d=" M 2.36 18.12 C 0.3 24.47 -0.44 35.49 0.24 43.46 C 0.6 47.64 7.31 48.05 7.24 42.66 C 7.19 38.56 6.95 30.35 8.32 23.22 C 9.29 18.15 13.08 10.31 16.88 8.03 C 19.84 6.25 23.53 7.39 23.27 10.85 C 23 14.5 22.96 19.3 22.57 23.87 C 21.78 33.18 28.12 38.57 39.16 45.69 C 44.39 49.06 47.58 42.7 43.29 40.23 C 36.47 35.66 29.19 31.94 29.69 22.8 C 29.96 17.95 30.33 14.54 30.76 9.57 C 31.64 -0.63 14.98 -5.02 6.83 8.34 C 5.1 11.18 3.53 14.5 2.36 18.12 Z" fill-rule="evenodd" clip-rule="evenodd"/></svg>