<svg version="1.1" width="64.27" height="64.25" viewBox="0 0 64.27 64.25" xmlns="http://www.w3.org/2000/svg" xmlns:xlink="http://www.w3.org/1999/xlink" overflow="visible"><defs></defs><path d=" M 19.41 18.46 C 22.4 16.01 26.11 12.96 27.41 6.16 C 27.55 5.42 27.07 4.71 26.33 4.56 C 25.59 4.42 24.88 4.91 24.73 5.65 C 23.62 11.48 20.6 13.96 17.68 16.35 C 15.83 17.87 15.07 17.07 15.07 15.39 C 15.07 11.88 15.07 1.36 15.07 1.36 C 15.07 0.61 14.46 1.11022e-15 13.7 1.11022e-15 C 12.95 1.11022e-15 12.34 0.61 12.34 1.36 C 12.34 1.36 12.34 11.95 12.34 15.48 C 12.34 17.4 11.46 17.75 9.75 16.35 C 6.83 13.96 3.81 11.48 2.7 5.65 C 2.56 4.91 1.85 4.43 1.1 4.56 C 0.36 4.7 -0.12 5.42 0.02 6.16 C 1.32 12.96 5.03 16.01 8.02 18.46 C 10.41 20.42 12.26 21.86 12.34 24.67 C 12.51 30.2 12.35 46.79 12.35 46.8 C 12.28 49.78 10.49 51.26 8.02 53.28 C 6.77 54.3 5.4 55.43 4.12 56.89 C 2.35 58.93 4.58 60.54 6.07 58.79 C 7.21 57.47 8.49 56.42 9.74 55.39 C 11.59 53.87 12.35 54.67 12.35 56.35 C 12.35 59.86 12.35 62.89 12.35 62.89 C 12.35 63.64 12.96 64.25 13.71 64.25 C 14.46 64.25 15.08 63.64 15.08 62.89 C 15.08 62.89 15.08 59.79 15.08 56.26 C 15.08 54.34 15.96 53.99 17.67 55.39 C 19.46 56.86 21.19 54.75 19.4 53.28 C 17.01 51.32 15.25 49.87 15.08 47.07 C 15.08 47.07 15.07 26.37 15.07 24.94 C 15.08 21.96 16.94 20.49 19.41 18.46 Z" fill="#030000"/><path d=" M 63.23 23.67 C 59.16 21.01 53.19 18.83 45.46 20.01 C 43.32 20.34 42.58 17.84 44.42 16.79 C 46.3 15.71 47.38 13.87 47.3 11.37 C 47.21 8.43 44.92 6.16 41.83 6.18 C 38.74 6.15 36.45 8.42 36.36 11.37 C 36.28 13.87 37.36 15.72 39.24 16.79 C 41.09 17.85 40.35 20.34 38.2 20.01 C 30.47 18.83 24.5 21.01 20.43 23.67 C 18.15 25.16 19.94 28.4 22.68 26.91 C 25.44 25.42 28.47 22.98 34.53 23.88 C 38.26 24.43 38.7 24.99 38.7 28.83 C 38.7 29.12 38.7 39.28 38.7 39.59 C 38.69 42.54 38.16 43.53 34.63 44.37 C 26.68 46.27 23.6 51.24 23.6 61.25 C 23.6 64.98 28.37 65.5 28.37 61.24 C 28.37 52.76 30.52 49.79 35.79 48.45 C 39.98 47.38 43.82 47.42 47.85 48.45 C 53.12 49.79 55.27 52.75 55.27 61.24 C 55.27 65.5 60.05 64.98 60.05 61.25 C 60.05 51.23 56.97 46.26 49.02 44.37 C 45.49 43.53 44.97 42.53 44.95 39.59 C 44.95 39.29 44.95 29.16 44.95 28.89 C 44.95 24.99 45.37 24.43 49.12 23.88 C 55.18 22.98 58.21 25.42 60.97 26.91 C 63.72 28.4 65.51 25.16 63.23 23.67 Z"/></svg>