<svg version="1.1" width="58.24" height="57.01" viewBox="0 0 58.24 57.01" xmlns="http://www.w3.org/2000/svg" xmlns:xlink="http://www.w3.org/1999/xlink" overflow="visible"><defs></defs><path d=" M 29.11 57.01 C 20.87 57.01 19.45 53.56 17.62 47.75 C 17.01 45.84 16.28 43.71 17.24 42.3 C 18.09 41.05 19.75 40.84 20.92 40.71 C 22.27 40.56 23.46 38.86 26.02 38.91 C 27.4 38.93 28.31 39.59 28.91 40.05 C 28.97 40.1 29.26 40.1 29.33 40.05 C 29.93 39.6 30.83 38.95 32.21 38.91 C 34.92 38.84 35.84 40.35 37.4 40.72 C 38.57 41 40.26 41.25 41.08 42.59 C 41.96 44.05 40.89 46.87 40.3 48.53 C 38.48 53.66 37.38 57.01 29.11 57.01 Z M 23.85 42.54 C 23.1 43.02 22.2 43.47 21.11 43.55 C 19.58 43.66 19.79 45.13 20.34 46.89 C 22.09 52.44 22.56 53.94 29.1 54.15 C 35.33 53.96 35.86 52.47 37.59 47.57 C 38.23 45.77 38.81 43.79 37.01 43.55 C 36.01 43.41 35.19 42.96 34.46 42.57 C 33.7 42.15 32.47 41.33 31.03 42.32 C 29.59 43.32 28.56 43.28 27.17 42.32 C 26.43 41.8 25.27 41.65 23.85 42.54 Z" fill="#030000"/><path d=" M 31.3 32.79 L 26.79 32.79 C 24.66 32.79 24.66 35.71 26.79 35.71 C 27.64 35.71 28.18 36.17 28.41 36.45 C 29.19 37.41 29.02 37.4 29.79 36.44 C 30.07 36.09 30.48 35.71 31.3 35.71 C 33.54 35.71 33.54 32.79 31.3 32.79 Z" fill-rule="evenodd" clip-rule="evenodd"/><path d=" M 25.46 11.52 C 23.29 10.58 19.81 9.53 14.82 8.96 C 13.98 8.86 13.63 7.68 14.7 7.19 C 15.25 6.94 15.8 6.41 16.13 5.69 C 16.47 4.94 16.47 4.76 17.47 4.76 L 19.23 4.76 C 19.58 4.76 19.87 4.47 19.87 4.12 C 19.87 3.77 19.59 3.48 19.23 3.48 L 18.1 3.48 C 17.05 3.48 16.55 3.17 16.55 2.08 C 16.53 0.93 15.6 0 14.45 0 L 11.85 0 C 10.7 0 9.77 0.93 9.77 2.08 C 9.77 3.17 9.27 3.48 8.22 3.48 L 7.09 3.48 C 6.74 3.48 6.45 3.77 6.45 4.12 C 6.45 4.47 6.73 4.76 7.09 4.76 L 8.85 4.76 C 9.85 4.76 9.85 4.94 10.19 5.69 C 10.51 6.4 11.07 6.94 11.62 7.19 C 12.69 7.69 12.34 8.87 11.5 8.96 C 6.5 9.53 3.03 10.57 0.86 11.52 C -0.68 12.19 0.05 14.17 1.78 13.53 C 3.23 13 7.02 11.88 9.04 11.92 C 10.96 11.96 11.43 12.37 11.43 14.33 C 11.43 16.14 10.18 17.41 9.43 18.16 C 6.52 21.07 4.37 23.82 2.81 28.66 C 2.12 30.79 4.8 31.74 5.55 29.55 C 7.56 23.66 10.66 20.02 13.18 19.98 C 15.7 20.01 18.83 23.65 20.81 29.55 C 21.52 31.66 24.24 30.75 23.55 28.66 C 21.95 23.83 19.83 21.07 16.93 18.16 C 16.18 17.41 14.93 16.13 14.93 14.33 C 14.93 12.39 15.4 11.96 17.32 11.92 C 19.34 11.88 23.13 13 24.58 13.53 C 26.27 14.17 26.99 12.18 25.46 11.52 Z"/><path d=" M 57.4 11.52 C 55.23 10.58 51.75 9.53 46.76 8.96 C 45.92 8.86 45.57 7.68 46.64 7.19 C 47.19 6.94 47.74 6.41 48.07 5.69 C 48.41 4.94 48.41 4.76 49.41 4.76 L 51.17 4.76 C 51.52 4.76 51.81 4.47 51.81 4.12 C 51.81 3.77 51.53 3.48 51.17 3.48 L 50.04 3.48 C 48.99 3.48 48.49 3.17 48.49 2.08 C 48.49 0.93 47.56 0 46.41 0 L 43.81 0 C 42.66 0 41.73 0.93 41.73 2.08 C 41.73 3.17 41.23 3.48 40.18 3.48 L 39.05 3.48 C 38.7 3.48 38.41 3.77 38.41 4.12 C 38.41 4.47 38.7 4.76 39.05 4.76 L 40.81 4.76 C 41.81 4.76 41.81 4.94 42.15 5.69 C 42.47 6.4 43.03 6.94 43.58 7.19 C 44.65 7.69 44.3 8.87 43.46 8.96 C 38.46 9.53 34.99 10.57 32.82 11.52 C 31.28 12.19 32.01 14.17 33.74 13.53 C 35.19 13 38.98 11.88 41 11.92 C 42.92 11.96 43.39 12.37 43.39 14.33 C 43.39 16.14 42.14 17.41 41.39 18.16 C 38.48 21.07 36.33 23.82 34.77 28.66 C 34.08 30.79 36.76 31.74 37.51 29.55 C 39.52 23.66 42.62 20.02 45.14 19.98 C 47.66 20.01 50.79 23.65 52.77 29.55 C 53.48 31.66 56.2 30.75 55.51 28.66 C 53.91 23.83 51.79 21.07 48.89 18.16 C 48.14 17.41 46.89 16.13 46.89 14.33 C 46.89 12.39 47.36 11.96 49.28 11.92 C 51.3 11.88 55.09 13 56.54 13.53 C 58.21 14.17 58.94 12.18 57.4 11.52 Z"/></svg>