<svg version="1.1" width="36.54" height="64.49" viewBox="0 0 36.54 64.49" xmlns="http://www.w3.org/2000/svg" xmlns:xlink="http://www.w3.org/1999/xlink" overflow="visible"><defs></defs><g><path d=" M 36.54 23.55 C 36.54 16.74 31.13 17.58 31.16 14.46 C 31.19 11.24 34.43 10.9 34.34 6.49 C 34.25 2.03 30.82 -0.04 27.55 0 C 24.02 0.05 21.02 2.71 21.02 6.63 C 21.02 9.43 22.23 11.05 23.35 11.96 C 24.82 13.16 26.77 13.24 26.83 14.73 C 26.89 16.29 25.52 16.98 24.52 17.04 C 16.29 17.52 10.75 16.94 3.56 15.34 C -0.48 14.44 -1.43 19.52 2.51 20.45 C 6.89 21.48 11.77 22.04 15.4 22.48 C 19.73 23 20.03 25.03 20.03 27.7 C 20.03 29.29 20.03 31.34 19.99 33.88 C 19.97 35.08 20.24 37.33 17.85 41.11 C 14.13 47 12.47 49.5 9.72 53.91 C 7.27 57.86 11.9 61.1 14.63 56.73 C 15.09 55.99 17.54 52.25 22.4 44.58 C 23.86 42.27 24.54 41.95 27.19 41.95 C 29.88 41.95 30.9 42.58 30.9 45.33 C 30.9 50.21 30.93 52.44 30.93 61.12 C 30.93 65.59 36.51 65.59 36.51 61.22 C 36.53 59.98 36.54 24.78 36.54 23.55 Z M 30.94 34.84 C 30.94 36.24 30.49 36.7 29.07 36.7 C 28.47 36.7 27.27 36.7 26.66 36.7 C 25.28 36.7 24.81 36.23 24.81 34.86 C 24.81 32.31 24.81 27.19 24.81 24.64 C 24.81 23.27 25.28 22.77 26.67 22.77 C 27.27 22.77 28.46 22.77 29.06 22.77 C 30.41 22.77 30.93 23.24 30.93 24.63 C 30.94 27.18 30.94 32.29 30.94 34.84 Z"/></g><path d=" M 28.08 28.67 L 27.64 28.67 C 26.81 28.67 26.14 28 26.14 27.17 C 26.14 26.34 26.81 25.67 27.64 25.67 L 28.08 25.67 C 28.91 25.67 29.58 26.34 29.58 27.17 C 29.58 28 28.91 28.67 28.08 28.67 Z"/><path d=" M 28.08 33.8 L 27.64 33.8 C 26.81 33.8 26.14 33.13 26.14 32.3 C 26.14 31.47 26.81 30.8 27.64 30.8 L 28.08 30.8 C 28.91 30.8 29.58 31.47 29.58 32.3 C 29.58 33.13 28.91 33.8 28.08 33.8 Z"/></svg>