<svg version="1.1" width="54.53" height="56.88" viewBox="0 0 54.53 56.88" xmlns="http://www.w3.org/2000/svg" xmlns:xlink="http://www.w3.org/1999/xlink" overflow="visible"><defs></defs><path d=" M 11.56 2.74 C 11.04 5.46 9.63 6.62 8.27 7.74 C 7.41 8.45 7.05 8.08 7.05 7.3 C 7.05 5.66 7.05 0.74 7.05 0.74 C 7.05 -0.24 5.78 -0.24 5.78 0.74 C 5.78 0.74 5.78 5.69 5.78 7.34 C 5.78 8.24 5.37 8.4 4.57 7.75 C 3.21 6.63 1.8 5.48 1.28 2.75 C 1.09 1.75 -0.16 1.98 0.03 2.99 C 0.64 6.17 2.37 7.59 3.77 8.73 C 4.89 9.65 5.71 10.32 5.79 11.63 L 5.79 13.12 C 5.79 14.32 7.06 14.32 7.06 13.12 C 7.06 13.12 7.07 11.79 7.07 11.76 C 7.1 10.37 7.94 9.68 9.09 8.73 C 10.49 7.59 12.22 6.16 12.83 2.99 C 12.99 2.01 11.75 1.78 11.56 2.74 Z"/><path d=" M 53.26 2.74 C 52.74 5.46 51.33 6.62 49.97 7.74 C 49.11 8.45 48.75 8.07 48.75 7.3 C 48.75 5.66 48.75 0.74 48.75 0.74 C 48.75 -0.24 47.48 -0.24 47.48 0.74 C 47.48 0.74 47.48 5.69 47.48 7.34 C 47.48 8.24 47.07 8.4 46.27 7.75 C 44.91 6.63 43.5 5.48 42.98 2.75 C 42.79 1.75 41.54 1.98 41.73 2.99 C 42.34 6.17 44.07 7.59 45.47 8.73 C 46.59 9.65 47.41 10.32 47.49 11.63 L 47.49 13.12 C 47.49 14.32 48.76 14.32 48.76 13.12 C 48.76 13.12 48.77 11.79 48.77 11.76 C 48.8 10.37 49.64 9.68 50.79 8.73 C 52.19 7.59 53.92 6.16 54.53 2.99 C 54.69 2.01 53.44 1.78 53.26 2.74 Z"/><path d=" M 46.78 24.73 C 43.34 23.23 37.83 21.57 29.9 20.67 C 28.57 20.52 28.01 18.65 29.71 17.86 C 30.57 17.46 31.46 16.62 31.97 15.48 C 32.51 14.29 32.51 14 34.09 14 L 36.88 14 C 37.44 14 37.89 13.55 37.89 12.99 C 37.89 12.43 37.44 11.98 36.88 11.98 L 35.09 11.98 C 33.42 11.98 32.63 11.49 32.63 9.76 C 32.63 7.94 31.15 6.46 29.33 6.46 L 25.2 6.46 C 23.38 6.46 21.9 7.94 21.9 9.76 C 21.9 11.48 21.11 11.98 19.44 11.98 L 17.65 11.98 C 17.09 11.98 16.64 12.43 16.64 12.99 C 16.64 13.55 17.09 14 17.65 14 L 20.44 14 C 22.02 14 22.02 14.28 22.56 15.48 C 23.07 16.61 23.96 17.46 24.82 17.86 C 26.52 18.65 25.96 20.52 24.63 20.67 C 16.7 21.57 11.2 23.23 7.75 24.73 C 5.31 25.79 6.46 28.93 9.21 27.92 C 11.51 27.08 17.51 25.3 20.72 25.37 C 23.76 25.43 24.5 26.21 24.5 30.77 C 24.5 33.63 22.52 35.66 21.33 36.84 C 16.72 41.45 13.31 45.81 10.83 53.49 C 9.74 56.87 13.98 58.37 15.17 54.9 C 18.36 45.56 23.28 39.78 27.27 39.73 C 31.26 39.78 36.22 45.55 39.37 54.9 C 40.5 58.25 44.8 56.81 43.71 53.49 C 41.18 45.83 37.82 41.46 33.21 36.84 C 32.02 35.65 30.04 33.63 30.04 30.77 C 30.04 26.2 30.79 25.43 33.82 25.37 C 37.03 25.31 43.03 27.08 45.33 27.92 C 48.07 28.94 49.21 25.79 46.78 24.73 Z"/></svg>