<svg version="1.1" width="57.22" height="58.35" viewBox="0 0 57.22 58.35" xmlns="http://www.w3.org/2000/svg" xmlns:xlink="http://www.w3.org/1999/xlink" overflow="visible"><defs></defs><path d=" M 11.2 41.96 C 3.74 41.96 2.45 38.83 0.8 33.58 L 0.58 32.88 C 0.09 31.33 -0.37 29.87 0.46 28.65 C 1.23 27.52 2.73 27.33 3.79 27.21 C 5.01 27.07 6.09 25.54 8.41 25.58 C 9.66 25.6 10.48 26.2 11.02 26.61 C 11.08 26.65 11.34 26.65 11.4 26.61 C 11.94 26.2 12.76 25.61 14.01 25.58 C 16.46 25.51 17.29 26.88 18.71 27.22 C 19.76 27.47 21.3 27.69 22.04 28.91 C 22.82 30.19 22.28 31.67 21.8 32.98 C 21.63 33.44 21.48 33.87 21.34 34.29 C 19.68 38.93 18.69 41.96 11.2 41.96 Z M 6.61 29.04 C 5.96 29.46 5.17 29.85 4.22 29.92 C 3.11 30 2.93 30.84 3.32 32.16 L 3.54 32.84 C 5.07 37.7 5.48 39.01 11.2 39.18 C 16.65 39.01 17.1 37.71 18.61 33.43 C 18.76 33.02 18.93 32.6 19.07 32.15 C 19.52 30.73 19.3 30.07 18.11 29.91 C 17.24 29.79 16.52 29.4 15.88 29.05 C 15.22 28.68 14.14 27.97 12.89 28.84 C 12.45 29.14 11.94 29.56 11.2 29.56 C 10.46 29.56 9.95 29.14 9.51 28.84 C 8.86 28.39 7.84 28.26 6.61 29.04 Z" fill="#030000"/><g><path d=" M 55.6 17.28 C 52.04 15.73 46.33 14.01 38.13 13.08 C 36.75 12.92 36.17 10.99 37.93 10.17 C 39.33 9.52 40.8 7.59 40.77 5.32 C 40.73 2.4 38.71 0.02 35.66 0 C 32.65 -0.02 30.14 1.98 30.14 5.11 C 30.14 7.55 31.31 9.29 33.14 10.34 C 34.62 11.19 34.07 13 32.78 13.08 C 25.91 13.46 18.99 15.25 15.11 16.99 C 12.69 18.08 13.92 21.46 16.78 20.45 C 18.98 19.67 23.26 18.24 28.06 17.86 C 30.13 17.69 31.29 17.82 31.43 20.88 C 31.44 21.08 31.44 27.11 31.44 27.27 C 31.44 28.76 31.05 30.05 30.11 31.23 L 30.11 31.23 C 29.01 32.64 27.92 34.06 27.23 35.05 C 24.16 39.47 24.56 43.22 28.44 46.2 C 29.33 46.88 30.26 47.61 31.02 48.18 C 32.06 48.97 32.18 49.58 31.01 50.49 C 27.09 53.53 24.89 55.08 24.85 55.11 C 24.05 55.7 23.88 56.83 24.47 57.63 C 24.82 58.11 25.37 58.36 25.92 58.36 C 26.29 58.36 26.67 58.25 26.99 58.01 C 27.03 57.98 29.67 56.03 33.86 52.86 C 34.83 52.12 36.19 52.12 37.16 52.86 C 41.35 56.03 43.99 57.98 44.03 58.01 C 44.35 58.25 44.73 58.36 45.1 58.36 C 45.65 58.36 46.19 58.11 46.55 57.63 C 47.14 56.83 46.97 55.7 46.17 55.11 C 46.13 55.08 43.79 53.34 40.01 50.49 C 38.84 49.58 38.96 48.97 40 48.18 C 40.83 47.54 41.69 46.88 42.58 46.2 C 46.45 43.22 46.86 39.47 43.79 35.05 C 43.1 34.05 42 32.61 40.88 31.19 C 39.83 29.86 39.47 28.74 39.47 27.39 C 39.47 27.27 39.47 21.26 39.48 21.12 C 39.56 18.36 40.45 17.96 42.18 17.94 C 45.05 17.91 51.72 19.71 54.09 20.58 C 57.28 21.75 58.45 18.51 55.6 17.28 Z M 40.84 37.1 C 42.81 39.94 42.7 41.57 40.4 43.35 C 39.29 44.21 38.21 45.03 37.18 45.82 C 36.2 46.57 34.86 46.57 33.88 45.82 C 32.85 45.03 31.77 44.21 30.66 43.35 C 28.36 41.58 28.24 39.94 30.22 37.1 C 31.02 35.95 32.44 34.12 33.75 32.46 C 34.66 31.31 36.4 31.31 37.31 32.46 C 38.62 34.12 40.04 35.95 40.84 37.1 Z"/></g></svg>