<svg version="1.1" width="61.04" height="64.02" viewBox="0 0 61.04 64.02" xmlns="http://www.w3.org/2000/svg" xmlns:xlink="http://www.w3.org/1999/xlink" overflow="visible"><defs></defs><path d=" M 10.91 43.8 C 3.65 43.8 2.39 40.75 0.78 35.64 L 0.56 34.95 C 0.08 33.44 -0.37 32.02 0.44 30.83 C 1.19 29.73 2.65 29.54 3.68 29.43 C 4.87 29.29 5.92 27.8 8.18 27.84 C 9.4 27.86 10.2 28.44 10.73 28.84 C 10.79 28.88 11.04 28.88 11.1 28.84 C 11.63 28.44 12.43 27.87 13.64 27.84 C 16.03 27.77 16.84 29.11 18.22 29.44 C 19.25 29.69 20.74 29.9 21.46 31.09 C 22.22 32.34 21.69 33.78 21.23 35.05 C 21.07 35.5 20.92 35.92 20.78 36.32 C 19.17 40.84 18.2 43.8 10.91 43.8 Z M 6.28 31.05 C 5.62 31.47 4.83 31.87 3.87 31.94 C 2.75 32.02 2.57 32.86 2.97 34.19 L 3.19 34.88 C 4.73 39.78 5.15 41.1 10.91 41.28 C 16.41 41.11 16.87 39.8 18.39 35.48 C 18.54 35.07 18.71 34.65 18.85 34.19 C 19.3 32.76 19.08 32.1 17.87 31.93 C 16.99 31.81 16.26 31.41 15.62 31.06 C 14.95 30.69 13.87 29.97 12.61 30.85 C 12.17 31.15 11.65 31.58 10.91 31.58 C 10.17 31.58 9.65 31.16 9.21 30.85 C 8.55 30.39 7.52 30.26 6.28 31.05 Z" fill="#030000"/><path d=" M 59.89 19.29 C 55.41 16.36 48.82 13.95 40.3 15.25 C 37.94 15.61 37.12 12.86 39.16 11.7 C 41.24 10.51 42.42 8.48 42.34 5.72 C 42.24 2.48 39.72 -0.03 36.31 -8.88178e-16 C 32.9 -0.03 30.38 2.47 30.28 5.72 C 30.19 8.48 31.38 10.51 33.46 11.7 C 35.5 12.87 34.68 15.61 32.32 15.25 C 23.8 13.95 17.21 16.35 12.73 19.29 C 10.21 20.94 12.19 24.5 15.21 22.87 C 18.25 21.23 21.59 18.53 28.27 19.53 C 32.38 20.14 32.87 20.75 32.87 24.98 C 32.87 25.3 32.87 36.49 32.87 36.85 C 32.86 40.1 32.28 41.2 28.39 42.12 C 19.63 44.21 16.23 49.69 16.23 60.73 C 16.23 64.84 21.49 65.41 21.49 60.71 C 21.49 51.36 23.86 48.09 29.67 46.62 C 34.29 45.45 38.52 45.49 42.96 46.62 C 48.77 48.1 51.14 51.36 51.14 60.71 C 51.14 65.41 56.4 64.83 56.4 60.73 C 56.4 49.69 53 44.21 44.24 42.12 C 40.35 41.19 39.77 40.09 39.76 36.85 C 39.76 36.52 39.76 25.35 39.76 25.05 C 39.76 20.75 40.23 20.14 44.35 19.53 C 51.03 18.54 54.37 21.23 57.41 22.87 C 60.43 24.49 62.41 20.93 59.89 19.29 Z"/></svg>