<svg width="59.26" height="57.93" viewBox="0 0 59.26 57.93" xmlns="http://www.w3.org/2000/svg" xmlns:xlink="http://www.w3.org/1999/xlink" overflow="visible"><defs></defs><g><path d="M9.5 56.66 9.5 51.11C9.5 49.47 11.83 49.47 11.83 51.11L11.83 56.66C11.83 58.36 9.5 58.36 9.5 56.66Z" fill="#030000"/></g><g><path d="M19.25 53.98 14.75 49.48C13.52 48.24 15.18 46.59 16.4 47.83L20.9 52.33C22.26 53.67 20.6 55.33 19.25 53.98Z" fill="#030000"/></g><g><path d="M0.44 52.33 4.97 47.8C6.21 46.53 7.87 48.19 6.62 49.45L2.09 53.98C0.84 55.21-0.8 53.57 0.44 52.33Z" fill="#030000"/></g><g><path d="M16.67 27.53C16.46 27.53 16.24 27.48 16.04 27.37 15.39 27.02 15.15 26.21 15.5 25.56 15.93 24.77 16.15 23.87 16.15 22.96 16.15 20.7 14.79 18.69 12.69 17.85 11.98 17.57 11.31 17.28 10.58 16.98 9.72 16.62 8.79 16.23 7.63 15.76 4.5 14.51 2.48 11.54 2.48 8.17 2.49 3.66 6.15 0 10.66 0 15.16 0 18.83 3.66 18.83 8.17 18.83 9.15 18.66 10.11 18.32 11.02 18.06 11.71 17.29 12.06 16.6 11.81 15.91 11.55 15.56 10.78 15.81 10.09 16.04 9.48 16.15 8.83 16.15 8.17 16.15 5.14 13.68 2.67 10.65 2.67 7.62 2.67 5.15 5.14 5.15 8.17 5.15 10.43 6.51 12.44 8.62 13.28 9.8 13.75 10.75 14.15 11.62 14.52 12.33 14.82 12.98 15.1 13.68 15.37 16.8 16.62 18.82 19.59 18.82 22.96 18.82 24.31 18.48 25.65 17.85 26.83 17.61 27.27 17.15 27.53 16.67 27.53Z" fill="#030000"/></g><g><path d="M10.66 45.91C6.16 45.91 2.49 42.25 2.49 37.74 2.49 36.15 2.95 34.62 3.81 33.29 4.21 32.67 5.04 32.5 5.66 32.9 6.28 33.3 6.45 34.13 6.05 34.75 5.47 35.64 5.16 36.67 5.16 37.74 5.16 40.77 7.63 43.24 10.66 43.24 13.69 43.24 16.16 40.77 16.16 37.74 16.16 35.48 14.8 33.47 12.7 32.63 11.99 32.35 11.32 32.06 10.59 31.76 9.74 31.4 8.8 31.01 7.64 30.54 4.51 29.3 2.49 26.32 2.49 22.95 2.49 21.63 2.81 20.32 3.42 19.16 3.76 18.51 4.57 18.26 5.22 18.6 5.87 18.94 6.12 19.75 5.78 20.4 5.36 21.19 5.15 22.05 5.15 22.95 5.15 25.22 6.51 27.22 8.62 28.06 9.8 28.53 10.75 28.93 11.62 29.3 12.33 29.6 12.98 29.88 13.68 30.15 16.8 31.4 18.82 34.37 18.82 37.74 18.83 42.25 15.16 45.91 10.66 45.91Z" fill="#030000"/></g><path d="M57.68 0.99C57.61 0.99 42.64 1.83 36.07 1.95 29.75 2.06 25.13 2.02 21.65 1.9 19.25 1.82 19.14 4.81 21.55 4.9 22.86 4.95 27.14 5 27.69 5.02 28.88 5.07 30.14 5.52 30.22 7.48 30.29 9.15 30.32 14.5 30.32 14.5 30.4 16.95 33.39 16.75 33.32 14.41 33.32 14.41 33.29 9.2 33.22 7.58 33.14 5.56 34.23 4.98 35.99 4.95 43.01 4.82 49.02 4.4 52.84 4.23 53.86 4.19 54.44 3.97 54.01 4.97 53.29 6.61 47.95 10.43 38.93 11.29 38.05 11.37 37.21 11.74 37.41 13.57 37.61 15.38 38.46 15.56 39.27 15.49 48.02 14.75 58.52 9.67 59.25 2.67 59.34 1.76 59.03 0.92 57.68 0.99Z" fill="#030000"/><path d="M53.4 52.57C50.88 52.78 44.61 52.85 41.99 52.85 40.82 52.84 40.38 52.52 40.34 51.88 40.3 51.21 41 50.5 42.2 49.69 49.03 45.08 49.93 44.58 51.05 42.53 52.44 39.98 50.48 35.88 48.38 31.81 46.83 28.81 44.92 28.63 44.86 27.12 44.79 25 46.84 25.1 46.76 21.91 46.67 18.66 44.22 17.64 42.57 17.64 40.42 17.64 38.4 19.44 38.4 21.78 38.4 23.28 38.8 24.39 39.69 25.34 40.84 26.56 41.96 26.71 42.15 27.41 42.55 28.85 41.86 29.36 39.85 29.9 37.43 30.56 35.43 30.46 30.29 30.03 25.63 29.63 22.79 32.72 23.07 36.26 23.29 39 26.5 38.47 26.35 36.1 26.25 34.43 27.38 32.9 29.89 33.42 29.36 34.37 29.12 35.46 29.21 36.62 29.43 39.36 32.63 38.83 32.49 36.47 32.37 34.52 33.33 33.41 35.37 33.58 37.4 33.75 38.72 33.64 41.18 33.12 43.08 32.72 43.86 33.4 44.42 34.47 44.84 35.27 45.35 36.26 46.03 37.65 46.9 39.43 47.39 41.14 44.76 43.08 42.94 44.42 41.97 44.98 39.69 46.56 37.56 48.04 35.39 50.22 35.72 53.06 36.02 55.66 37.45 56.37 40 56.37 42.32 56.37 48.02 56.32 53.82 55.98 56.94 55.81 56.56 52.31 53.4 52.57Z" fill-rule="evenodd" clip-rule="evenodd"/></svg>