<svg version="1.1" width="65.28" height="65.49" viewBox="0 0 65.28 65.49" xmlns="http://www.w3.org/2000/svg" xmlns:xlink="http://www.w3.org/1999/xlink" overflow="visible"><defs></defs><path d=" M 51.09 38.37 L 47.9 40.92 C 47.33 41.38 46.49 41.28 46.04 40.71 C 45.58 40.14 45.68 39.3 46.25 38.84 L 49.44 36.29 C 49.89 35.93 51.16 35.98 51.67 36.01 C 51.8 36.02 51.86 36.15 51.85 36.24 C 51.78 36.71 51.57 37.99 51.09 38.37 Z"/><path d=" M 64.24 36.41 C 63.43 35.98 59.78 34.29 57.75 30.63 C 55.67 26.88 58.88 26.06 57.67 19.38 C 56.92 15.21 54.47 12.07 48.43 10.87 C 46.13 10.41 45.52 13.35 47.83 13.82 C 52.67 14.81 54.18 17.59 54.63 20.27 C 55.09 23.05 53.7 22.72 53.13 21.81 C 50.43 17.5 48.05 15.5 42.01 14.15 C 41.19 13.97 40.29 14.44 40.11 15.25 C 39.93 16.06 40.54 16.91 41.35 17.09 C 47.32 18.42 48.79 20.62 50.62 23.56 C 52.52 26.61 50.33 27.84 48.15 26.92 C 45.54 25.81 43.84 25.94 41.3 26.12 C 40.47 26.18 39.86 26.9 39.92 27.73 C 39.97 28.56 40.7 29.13 41.52 29.13 C 45.13 29.11 45.68 29.5 47.91 30.34 C 51.06 31.55 52.03 29.83 54.71 32.89 C 57.32 35.88 59.67 38.27 62.67 39.44 C 65.02 40.34 66.3 37.5 64.24 36.41 Z" fill="#030000"/><g><path d=" M 36.54 23.55 C 36.54 16.74 31.13 17.58 31.16 14.46 C 31.19 11.24 34.43 10.9 34.34 6.49 C 34.25 2.03 30.82 -0.04 27.55 0 C 24.02 0.05 21.02 2.71 21.02 6.63 C 21.02 9.43 22.23 11.05 23.35 11.96 C 24.82 13.16 26.77 13.24 26.83 14.73 C 26.89 16.29 25.52 16.98 24.52 17.04 C 16.29 17.52 10.75 16.94 3.56 15.34 C -0.48 14.44 -1.43 19.52 2.51 20.45 C 6.89 21.48 11.77 22.04 15.4 22.48 C 19.73 23 20.03 25.03 20.03 27.7 C 20.03 29.29 20.03 31.34 19.99 33.88 C 19.97 35.08 20.24 37.33 17.85 41.11 C 14.13 47 12.12 50.08 9.38 54.49 C 6.93 58.44 11.56 61.68 14.29 57.31 C 14.75 56.57 17.54 52.25 22.41 44.58 C 23.87 42.27 24.55 41.95 27.2 41.95 C 29.89 41.95 30.91 42.58 30.91 45.33 C 30.91 50.21 30.94 53.44 30.94 62.12 C 30.94 66.59 36.52 66.59 36.52 62.22 C 36.53 60.98 36.54 24.78 36.54 23.55 Z M 30.94 34.84 C 30.94 36.24 30.49 36.7 29.07 36.7 C 28.47 36.7 27.27 36.7 26.66 36.7 C 25.28 36.7 24.81 36.23 24.81 34.86 C 24.81 32.31 24.81 27.19 24.81 24.64 C 24.81 23.27 25.28 22.77 26.67 22.77 C 27.27 22.77 28.46 22.77 29.06 22.77 C 30.41 22.77 30.93 23.24 30.93 24.63 C 30.94 27.18 30.94 32.29 30.94 34.84 Z"/></g><path d=" M 28.08 28.67 L 27.64 28.67 C 26.81 28.67 26.14 28 26.14 27.17 C 26.14 26.34 26.81 25.67 27.64 25.67 L 28.08 25.67 C 28.91 25.67 29.58 26.34 29.58 27.17 C 29.58 28 28.91 28.67 28.08 28.67 Z"/><path d=" M 28.08 33.8 L 27.64 33.8 C 26.81 33.8 26.14 33.13 26.14 32.3 C 26.14 31.47 26.81 30.8 27.64 30.8 L 28.08 30.8 C 28.91 30.8 29.58 31.47 29.58 32.3 C 29.58 33.13 28.91 33.8 28.08 33.8 Z"/></svg>