<svg version="1.1" width="52.14" height="50.71" viewBox="0 0 52.14 50.71" xmlns="http://www.w3.org/2000/svg" xmlns:xlink="http://www.w3.org/1999/xlink" overflow="visible"><defs></defs><g><path d=" M 27.39 37.27 C 32.04 40.57 41.43 40.57 46.49 36.48 C 49.62 33.95 52.22 29.67 52.14 24.44 C 52.02 15.89 46.19 9.1 37.11 8.78 C 27.92 8.46 21.08 14.89 20.81 23.26 C 20.6 29.53 22.91 34.1 27.39 37.27 Z M 24.21 22.8 C 24.77 15.95 30.84 11.93 36.97 12.12 C 42.88 12.31 48.68 16.89 48.64 24.42 C 48.61 29.56 46.25 33.48 42.16 35.14 C 38.7 36.55 35.21 36.66 32.09 35.67 C 26.92 34.02 23.72 28.87 24.21 22.8 Z"/></g><path d=" M 36.53 24.17 C 35.76 24.17 35.14 24.36 35.14 26.38 C 35.14 28.97 35.62 29.31 36.58 29.31 C 37.59 29.31 37.89 28.93 37.89 26.38 C 37.89 24.31 37.4 24.17 36.53 24.17 Z" fill="#030000" fill-rule="evenodd" clip-rule="evenodd"/><path d=" M 31.06 24 C 31.06 24.87 30.36 25.57 29.49 25.57 C 28.62 25.57 27.92 24.87 27.92 24 C 27.92 23.13 28.62 22.43 29.49 22.43 C 30.35 22.43 31.06 23.13 31.06 24 Z" fill-rule="evenodd" clip-rule="evenodd"/><path d=" M 41.61 15.91 C 41.61 17.29 39.38 18.41 36.64 18.41 C 33.89 18.41 31.67 17.29 31.67 15.91 C 31.67 14.52 33.9 13.4 36.64 13.4 C 39.38 13.4 41.61 14.52 41.61 15.91 Z" fill-rule="evenodd" clip-rule="evenodd"/><path d=" M 45.25 24 C 45.25 24.87 44.55 25.57 43.68 25.57 C 42.81 25.57 42.11 24.87 42.11 24 C 42.11 23.13 42.81 22.43 43.68 22.43 C 44.55 22.43 45.25 23.13 45.25 24 Z" fill-rule="evenodd" clip-rule="evenodd"/><g><g><path d=" M 8.58 49.39 L 8.58 43.51 C 8.58 41.82 10.98 41.82 10.98 43.51 L 10.98 49.39 C 10.98 51.15 8.58 51.15 8.58 49.39 Z" fill="#030000"/></g></g><g><g><path d=" M 17.41 45.25 L 12.77 40.61 C 11.5 39.33 13.21 37.63 14.47 38.91 L 19.11 43.55 C 20.52 44.93 18.8 46.65 17.41 45.25 Z" fill="#030000"/></g></g><g><g><path d=" M 0.45 43.55 L 5.12 38.87 C 6.4 37.56 8.11 39.27 6.82 40.57 L 2.15 45.24 C 0.87 46.52 -0.82 44.83 0.45 43.55 Z" fill="#030000"/></g></g><g><path d=" M 14.5 22.19 C 14.28 22.19 14.06 22.14 13.86 22.03 C 13.2 21.67 12.95 20.85 13.31 20.19 C 13.62 19.61 13.79 18.97 13.79 18.3 C 13.79 16.65 12.8 15.2 11.28 14.59 C 10.72 14.37 10.19 14.14 9.62 13.9 C 8.95 13.62 8.23 13.31 7.32 12.95 C 4.75 11.93 3.09 9.48 3.09 6.71 C 3.07 3.01 6.08 0 9.79 0 C 13.49 0 16.5 3.01 16.5 6.71 C 16.5 7.52 16.36 8.31 16.08 9.05 C 15.82 9.75 15.03 10.11 14.33 9.85 C 13.63 9.59 13.27 8.81 13.53 8.1 C 13.7 7.66 13.78 7.19 13.78 6.7 C 13.78 4.5 11.99 2.71 9.79 2.71 C 7.59 2.71 5.8 4.5 5.8 6.7 C 5.8 8.35 6.79 9.8 8.32 10.41 C 9.25 10.78 9.99 11.09 10.68 11.38 C 11.23 11.61 11.75 11.83 12.29 12.05 C 14.86 13.07 16.52 15.52 16.52 18.29 C 16.52 19.4 16.24 20.5 15.72 21.47 C 15.45 21.93 14.98 22.19 14.5 22.19 Z" fill="#030000"/></g><g><path d=" M 9.79 36.6 C 6.09 36.6 3.08 33.59 3.08 29.89 C 3.08 28.58 3.46 27.32 4.16 26.23 C 4.57 25.6 5.41 25.42 6.04 25.83 C 6.67 26.24 6.85 27.08 6.44 27.71 C 6.02 28.35 5.8 29.1 5.8 29.88 C 5.8 32.08 7.59 33.87 9.79 33.87 C 11.99 33.87 13.78 32.08 13.78 29.88 C 13.78 28.23 12.79 26.78 11.27 26.17 C 10.71 25.95 10.18 25.72 9.61 25.48 C 8.94 25.2 8.22 24.89 7.31 24.53 C 4.74 23.51 3.08 21.06 3.08 18.29 C 3.08 17.21 3.34 16.13 3.84 15.18 C 4.19 14.52 5.01 14.26 5.68 14.61 C 6.34 14.96 6.6 15.78 6.25 16.44 C 5.95 17.01 5.8 17.64 5.8 18.29 C 5.8 19.94 6.79 21.39 8.32 22 C 9.25 22.37 9.99 22.68 10.68 22.97 C 11.23 23.2 11.75 23.42 12.29 23.64 C 14.86 24.66 16.52 27.11 16.52 29.88 C 16.5 33.58 13.49 36.6 9.79 36.6 Z" fill="#030000"/></g></svg>