<svg width="94.8083" height="93.0679" viewBox="49.476 128 94.8083 93.0679" xmlns="http://www.w3.org/2000/svg" xmlns:xlink="http://www.w3.org/1999/xlink" overflow="hidden"><defs><clipPath id="clip0"><rect x="449" y="132" width="37" height="38"/></clipPath><clipPath id="clip-1"><rect x="324" y="266" width="36" height="38"/></clipPath></defs><g clip-path="url(#clip0)" transform="matrix(1.78798 0 0 2.46287 -753.328 -197.36)"><path d="M17.6912 12.7286C15.5579 10.0089 15.1326 10.1184 15.5773 8.45567 15.7448 7.83052 16.4344 7.9143 17.4527 6.83156 18.2519 5.98728 18.5999 5.00766 18.5999 3.67358 18.5999 1.59833 16.8018 5.72419e-16 14.8941 5.72419e-16 13.4311 5.72419e-16 11.2527 0.902282 11.1754 3.78314 11.0981 6.61244 12.9349 6.52865 12.8575 8.40411 12.806 9.63508 10.9627 9.62219 7.9143 10.4794 0.534924 12.5417-0.560704 15.8415 4.59519 22.8084 5.54259 24.0909 6.5351 24.9932 7.53405 26.366 8.21721 27.3069 8.39767 27.7645 7.68873 28.4025 7.56628 28.5121 6.92179 29.0535 6.92179 29.0535 6.39331 29.5046 6.33531 30.2973 6.78645 30.8258 7.23759 31.3543 8.03031 31.4123 8.55879 30.9612 8.55879 30.9612 9.04215 30.5616 9.20327 30.4327 9.89288 29.8784 10.4471 29.7753 11.0272 30.3876 11.6394 31.0256 12.3677 32.0632 13.0573 32.7851 13.7662 33.5198 13.7276 34.4736 11.5234 34.2932 9.20327 34.1063 4.56297 33.9258 2.33304 33.6616-0.464031 33.3329-0.908727 36.4264 1.84968 36.6842 6.97979 37.1611 10.3053 37.3931 12.3677 37.3931 13.7082 37.3931 16.2088 37.8121 17.2336 36.1299 18.2261 34.4929 17.2336 33.146 15.719 31.0578 15.0617 30.1491 14.3463 29.3048 13.7211 28.4412 13.4762 28.0932 13.0638 27.4294 13.7985 26.7913 20.3851 21.1198 23.3498 19.9404 17.6912 12.7286ZM5.72949 19.1026C4.11183 16.4538 3.80892 14.5912 7.92075 13.4633 9.42885 13.0444 9.44818 13.7791 8.95193 14.7072 7.92719 16.6342 7.4116 17.8974 6.80578 19.0639 6.49643 19.6633 6.19997 19.876 5.72949 19.1026ZM12.213 24.8256C11.981 25.0254 11.169 25.7408 10.3698 24.8514 9.00348 23.3304 9.06149 22.5248 9.83487 20.9458 10.4085 19.76 10.9692 18.5548 11.4396 17.4592 11.6008 17.0854 11.8457 17.066 12.2001 17.3174 12.4515 17.4914 12.7866 17.53 13.1089 17.53 14.2238 17.53 15.1326 16.6213 15.1326 15.5064 15.1326 14.8941 15.0423 13.7856 16.1444 15.0294 19.9533 19.3411 16.1315 21.4034 12.213 24.8256Z" fill-rule="evenodd" transform="matrix(1 0 0 1.00932 449 132.106)"/></g><g clip-path="url(#clip-1)" transform="matrix(1.54222 0 0 2.18274 -410.915 -444.751)"><path d="M34.6338 30.2757C29.4283 27.9065 28.0103 27.6355 26.5979 25.9408 24.465 23.387 22.4243 20.7584 19.8994 15.5299 19.248 14.1752 17.8645 12.1864 19.8994 11.0623 23.8021 8.90056 25.6064 9.24644 29.7512 10.3648 31.9821 10.9643 32.6623 8.23763 30.3795 7.56317 24.3901 5.80496 21.9862 6.88295 17.755 8.38175 17.0344 8.63539 16.4003 8.68727 15.8642 7.51129 15.0802 5.79344 16.5906 5.78767 15.9334 2.79584 15.3915 0.328583 12.9416-0.466934 10.9182 0.253643 9.11385 0.893515 7.87446 2.68054 8.59504 5.08439 8.98127 6.3699 10.0823 7.33835 11.0853 7.71305 12.7167 8.3241 13.4258 7.82834 13.7371 8.39904 14.2328 9.31561 13.5468 9.76525 12.5438 10.3014 7.67846 12.9012 7.29223 13.0453 2.27702 11.7483-0.305524 11.0796-0.807046 13.8812 1.32586 14.4865 6.9233 16.066 8.46821 15.3915 11.7079 14.0772 13.397 13.3912 14.3712 13.2701 15.4895 16.6424 16.5098 19.7034 16.1986 20.1934 12.2037 24.2575 9.42514 27.0821 9.25797 27.9641 7.74187 35.0834 7.13659 37.9139 10.3014 38.4903 10.8778 35.8732 11.7483 31.9244 11.927 29.584 13.4027 27.9526 14.4346 26.8112 15.9161 25.4796 17.3976 24.3151 18.6889 23.2948 19.6573 23.2602 20.6604 24.4823 21.2311 25.1741 22.7068 26.8804 23.1392 27.4165 25.1452 29.9126 26.1598 30.0452 33.5443 33.3368 35.8962 34.3744 37.1183 31.4056 34.6338 30.2757Z" transform="matrix(1 0 0 1.00684 324 266.096)"/></g></svg>