<svg version="1.1" width="59.41" height="59.71" viewBox="0 0 59.41 59.71" xmlns="http://www.w3.org/2000/svg" xmlns:xlink="http://www.w3.org/1999/xlink" overflow="visible"><defs></defs><path d=" M 58.02 18.83 C 54.4 17.55 49.35 16.29 42.7 15.54 C 41.29 15.38 40.7 13.4 42.5 12.56 C 43.93 11.9 45.18 10.05 45.14 7.73 C 45.1 4.73 43.3 2.18 40.17 2.15 C 37.09 2.13 34.81 4.39 34.72 7.31 C 34.64 9.8 35.72 11.64 37.59 12.71 C 39.11 13.58 38.54 15.44 37.22 15.51 C 31.52 15.83 25.79 17.09 21.72 18.51 C 18.93 19.48 20.27 23.21 22.92 22.36 C 25.33 21.59 28.72 20.69 32.4 20.4 C 34.52 20.23 35.71 20.36 35.85 23.49 C 35.86 23.7 35.86 29.82 35.86 29.99 C 35.86 31.52 35.59 33.18 34.81 34.24 C 32.04 38 28.27 41.58 28.46 44.35 C 28.59 46.21 29.86 47.98 34.25 50.94 C 35.11 51.52 35.02 52.05 34.36 52.47 C 31.79 54.08 30.32 54.99 28.39 56.22 C 26.07 57.69 27.97 60.7 30.29 59.33 C 33.76 57.29 36.12 55.89 38.86 54.25 C 39.62 53.79 40.14 53.58 41.21 54.2 C 44.08 55.87 46.29 57.32 49.83 59.33 C 52.32 60.74 53.88 57.58 51.88 56.31 C 49.53 54.82 48.54 54.21 45.77 52.47 C 45.17 52.09 45.02 51.51 45.77 51 C 50.24 48 51.52 46.21 51.66 44.34 C 51.86 41.56 47.95 38.05 45.29 34.19 C 44.48 33.01 44.07 31.49 44.07 30.11 C 44.07 29.99 44.07 23.88 44.08 23.74 C 44.17 20.92 45.07 20.5 46.85 20.49 C 49.18 20.47 53.98 21.63 57.07 22.55 C 59.39 23.27 60.47 19.7 58.02 18.83 Z M 38.79 49.18 C 34.98 47.02 32.96 45.65 33.03 43.87 C 33.08 42.49 35.6 39.56 38.31 36.93 C 39.68 35.59 40.83 36.06 41.66 36.91 C 44.3 39.63 47.05 42.48 47.11 43.87 C 47.18 45.64 45.1 47.12 41.39 49.17 C 40.72 49.54 39.95 49.84 38.79 49.18 Z"/><g><path d=" M 8.61 58.39 L 8.61 53.87 C 8.61 52.17 11.02 52.17 11.02 53.87 L 11.02 58.39 C 11.02 60.15 8.61 60.15 8.61 58.39 Z" fill="#030000"/></g><g><path d=" M 17.47 55.61 L 12.81 50.95 C 11.54 49.67 13.25 47.96 14.51 49.25 L 19.17 53.91 C 20.59 55.29 18.87 57.02 17.47 55.61 Z" fill="#030000"/></g><g><path d=" M 0.46 53.9 L 5.15 49.21 C 6.44 47.9 8.15 49.61 6.86 50.92 L 2.17 55.61 C 0.87 56.89 -0.83 55.19 0.46 53.9 Z" fill="#030000"/></g><g><path d=" M 15.85 27.71 C 15.63 27.71 15.41 27.66 15.2 27.55 C 14.53 27.19 14.28 26.35 14.64 25.69 C 15.07 24.88 15.29 24.01 15.29 23.09 C 15.29 20.83 13.93 18.83 11.83 17.99 C 11.12 17.7 10.44 17.42 9.71 17.11 C 8.85 16.75 7.92 16.35 6.75 15.89 C 3.6 14.63 1.56 11.63 1.56 8.24 C 1.57 3.7 5.26 0 9.81 0 C 14.35 0 18.05 3.7 18.05 8.24 C 18.05 9.23 17.87 10.2 17.53 11.12 C 17.26 11.83 16.47 12.2 15.76 11.93 C 15.05 11.67 14.68 10.87 14.95 10.16 C 15.18 9.55 15.29 8.9 15.3 8.24 C 15.3 5.22 12.84 2.76 9.82 2.76 C 6.8 2.76 4.34 5.22 4.34 8.24 C 4.34 10.5 5.7 12.5 7.8 13.34 C 8.99 13.81 9.94 14.21 10.81 14.58 C 11.52 14.88 12.18 15.16 12.88 15.44 C 16.03 16.7 18.07 19.7 18.07 23.1 C 18.07 24.46 17.73 25.81 17.09 27 C 16.81 27.45 16.34 27.71 15.85 27.71 Z" fill="#030000"/></g><g><path d=" M 9.81 46.17 C 5.27 46.17 1.57 42.47 1.57 37.93 C 1.57 36.33 2.03 34.78 2.9 33.44 C 3.31 32.8 4.17 32.62 4.81 33.04 C 5.45 33.46 5.63 34.31 5.21 34.95 C 4.63 35.83 4.33 36.87 4.33 37.94 C 4.33 40.96 6.79 43.42 9.81 43.42 C 12.83 43.42 15.29 40.96 15.29 37.93 C 15.29 35.67 13.93 33.67 11.84 32.84 C 11.12 32.55 10.44 32.27 9.71 31.96 C 8.86 31.6 7.92 31.21 6.77 30.74 C 3.62 29.49 1.58 26.48 1.58 23.09 C 1.58 21.76 1.91 20.44 2.52 19.27 C 2.87 18.6 3.71 18.34 4.38 18.69 C 5.05 19.04 5.31 19.87 4.96 20.55 C 4.55 21.33 4.34 22.21 4.33 23.1 C 4.33 25.36 5.69 27.36 7.79 28.19 C 8.97 28.66 9.92 29.06 10.79 29.43 C 11.51 29.73 12.17 30.01 12.87 30.29 C 16.02 31.54 18.06 34.55 18.06 37.94 C 18.04 42.48 14.35 46.17 9.81 46.17 Z" fill="#030000"/></g></svg>