<svg version="1.1" width="61.3" height="62.73" viewBox="0 0 61.3 62.73" xmlns="http://www.w3.org/2000/svg" xmlns:xlink="http://www.w3.org/1999/xlink" overflow="visible"><defs></defs><path d=" M 29.73 25.7 C 29.73 27.38 28.37 28.74 26.69 28.74 C 25.01 28.74 23.65 27.38 23.65 25.7 C 23.65 24.02 25.01 22.66 26.69 22.66 C 28.37 22.66 29.73 24.02 29.73 25.7 Z" fill-rule="evenodd" clip-rule="evenodd"/><path d=" M 15.51 37.33 C 17.61 36.11 21 35.69 22.94 36.15 C 24.39 36.5 24.95 37.15 24.9 39.46 C 24.85 41.61 25.05 42.67 23.58 44.79 C 22.44 46.43 20.95 48.22 19.94 51.37 C 19.18 53.71 18.91 57.7 19.16 60.64 C 19.29 62.18 21.76 62.33 21.74 60.34 C 21.72 58.83 21.64 55.87 22.14 53.24 C 22.5 51.37 23.89 48.48 25.29 47.64 C 26.38 46.98 27.74 47.4 27.65 48.68 C 27.55 50.02 27.53 51.79 27.39 53.48 C 27.1 56.91 29.45 58.83 33.52 61.45 C 35.45 62.69 36.63 60.35 35.04 59.44 C 32.53 57.76 29.82 56.45 30.01 53.08 C 30.11 51.29 30.23 50.04 30.4 48.21 C 30.74 44.53 30.17 43.46 29.52 38.01 C 29.37 36.74 29.65 36.06 31.69 36.43 C 32.33 36.55 32.99 36.64 33.68 36.72 C 35.64 36.93 35.85 34.51 34.04 34.24 C 32.54 34.02 31.15 33.68 29.39 33.29 C 28.47 33.09 28.3 32.7 28.15 32.24 C 27.95 31.66 27.37 31.33 26.57 31.35 C 25.62 31.37 25.08 31.91 25 32.62 C 24.93 33.15 24.49 33.47 23.84 33.45 C 20.99 33.34 16.91 33.75 14.4 35.45 C 12.97 36.42 14.16 38.11 15.51 37.33 Z" fill-rule="evenodd" clip-rule="evenodd"/><path d=" M 60.49 26.77 C 60.49 26.77 38.69 10.13 36.54 8.55 C 33.54 6.35 33.26 5.12 33.26 2.6 C 33.26 1.17 32.1 0 30.66 0 C 30.66 0 30.65 0 30.65 0 C 30.65 0 30.65 0 30.64 0 C 29.2 0 28.03 1.17 28.03 2.61 C 28.03 5.5 27.1 6.84 24.75 8.56 C 22.61 10.14 0.81 26.77 0.81 26.77 C -0.1 27.47 -0.26 28.77 0.44 29.67 C 0.9 30.26 2.19 30.88 3.34 30.04 C 4.2 29.41 3.79 29.72 5.17 28.64 C 6.45 27.64 7.04 28.09 7.04 29.54 L 7.04 60.63 C 7.04 61.78 7.98 62.72 9.13 62.72 C 10.28 62.72 11.21 61.79 11.21 60.63 L 11.21 29.55 C 11.21 25.01 11.33 24.03 19.53 17.56 C 19.54 17.55 19.55 17.54 19.56 17.54 L 19.55 17.56 C 25.07 13.46 27.92 11.34 30.66 11.22 C 33.39 11.33 36.24 13.46 41.76 17.56 L 41.75 17.54 C 41.76 17.55 41.77 17.56 41.78 17.56 C 49.98 24.03 50.1 25.02 50.1 29.55 L 50.1 60.64 C 50.1 61.79 51.03 62.73 52.18 62.73 C 53.33 62.73 54.26 61.8 54.26 60.64 L 54.26 29.55 C 54.26 28.1 54.85 27.65 56.13 28.65 C 57.51 29.73 57.1 29.42 57.96 30.05 C 59.11 30.89 60.41 30.27 60.86 29.68 C 61.56 28.77 61.4 27.47 60.49 26.77 Z" fill="#030000"/><path d=" M 46.06 62.68 C 45.45 62.49 45.38 61.72 45.4 61.29 C 45.4 61.26 45.34 58.82 44.75 55.9 C 44.68 55.53 44.42 54.91 43.54 54.79 C 42.13 54.61 39.62 55.05 36.6 53.23 C 36.18 52.97 36.02 52.26 36.33 51.88 C 36.62 51.52 37.33 51.62 37.77 51.88 C 38.5 52.31 39.59 52.73 41.45 52.85 C 42.33 52.91 42.92 52.79 43.24 52.36 C 43.84 51.54 43.36 50.03 43.21 49.71 C 42.01 47.09 38.83 45.97 38.8 45.96 C 38.25 45.72 38 45.07 38.16 44.65 C 38.39 44.05 39.1 44.15 39.38 44.27 C 40.06 44.57 43.08 45.65 44.83 48.96 C 45.18 49.63 45.82 49.47 45.91 48.23 C 46.12 45.29 43.09 44.03 42.97 43.96 C 42.41 43.67 42.16 43.11 42.36 42.65 C 42.58 42.12 43.17 42.09 43.65 42.3 C 45.27 43.04 48.01 45 47.7 48.38 C 47.58 49.66 47.3 50.76 46.88 51.67 C 46.68 52.09 46.21 53.43 46.44 54.57 C 47.02 57.47 47.15 59.43 47.2 61.34 C 47.21 62.18 46.92 62.94 46.06 62.68 Z"/><path d=" M 47.71 31.47 C 47.69 30.9 47.19 30.49 46.64 30.58 C 46.64 30.58 45.57 30.75 43.96 31.01 C 43.69 31.05 43.49 30.77 43.63 30.53 L 44.94 28.24 C 45.17 27.83 45.12 27.29 44.74 27 C 44.29 26.65 43.65 26.79 43.38 27.27 C 43.38 27.27 35.17 41.57 33.32 44.8 C 32.69 45.91 34.03 47.03 34.92 45.72 L 41.36 34.49 C 41.84 33.65 42.67 33.08 43.63 32.92 L 46.88 32.4 C 47.33 32.33 47.72 31.94 47.71 31.47 Z" fill="#030000"/></svg>