<svg version="1.1" width="39.34" height="49.84" viewBox="0 0 39.34 49.84" xmlns="http://www.w3.org/2000/svg" xmlns:xlink="http://www.w3.org/1999/xlink" overflow="visible"><defs></defs><path d=" M 27.07 47.98 C 18.84 47.98 17.43 44.53 15.6 38.74 C 15 36.83 14.26 34.71 15.22 33.3 C 16.07 32.05 17.73 31.84 18.89 31.71 C 20.24 31.56 21.43 29.86 23.98 29.91 C 25.36 29.93 26.26 30.59 26.86 31.04 C 26.92 31.09 27.21 31.09 27.27 31.04 C 27.87 30.59 28.77 29.94 30.15 29.91 C 32.86 29.84 33.78 31.35 35.33 31.72 C 36.5 32 38.19 32.25 39 33.59 C 39.88 35.05 38.81 37.86 38.22 39.52 C 36.42 44.64 35.32 47.98 27.07 47.98 Z M 21.83 33.55 C 21.08 34.03 20.18 34.48 19.09 34.55 C 17.57 34.66 17.77 36.13 18.32 37.88 C 20.07 43.42 20.54 44.92 27.07 45.12 C 33.29 44.93 33.81 43.44 35.54 38.55 C 36.18 36.76 36.76 34.77 34.96 34.53 C 33.96 34.39 33.14 33.94 32.42 33.55 C 31.66 33.13 30.43 32.32 29 33.31 C 27.56 34.31 26.54 34.27 25.15 33.31 C 24.39 32.81 23.24 32.66 21.83 33.55 Z" fill="#030000"/><path d=" M 29.43 40.37 L 25.05 40.37 C 22.89 40.37 22.89 37.53 25.05 37.53 L 29.43 37.53 C 31.47 37.53 31.47 40.37 29.43 40.37 Z"/><path d=" M 29.11 19.72 C 23.61 19.09 18.41 17.23 15.02 14.65 C 12.54 12.89 12.45 12.65 12.59 11.23 C 12.68 10.22 13.85 10.47 15.29 8.94 C 16.25 7.92 16.79 6.55 16.79 4.8 C 16.79 2.09 14.44 -0.01 11.94 -0.01 C 10.03 -0.01 7.17 1.17 7.07 4.95 C 6.97 8.66 9.27 8.6 9.18 11.06 C 9.12 12.82 6.72 14.39 4.72 17.3 C 1.03 22.67 -0.08 25.03 0 27.91 C 0.1 31 2.36 34.69 3.6 38.08 C 4.59 40.78 4.27 46.33 4.21 47.56 C 4.06 50.49 7.87 50.59 8.13 47.86 C 8.88 40.03 8.65 38.56 6.79 33.74 C 5.51 30.43 4.25 27.6 6.25 23.89 C 6.49 23.45 6.71 23.06 6.93 22.69 L 6.95 22.71 C 7.47 21.79 7.95 21.75 8.64 22.2 C 9.24 22.6 10.58 22.97 11.49 22.42 C 12.15 22.01 12.7 21.34 12.76 20.24 C 12.85 18.61 13.63 18.5 14.5 18.99 C 19.6 21.81 23.71 22.96 28.73 23.49 C 31.83 23.8 32.21 20.07 29.11 19.72 Z" fill-rule="evenodd" clip-rule="evenodd"/></svg>