<svg version="1.1" width="56.46" height="59.01" viewBox="0 0 56.46 59.01" xmlns="http://www.w3.org/2000/svg" xmlns:xlink="http://www.w3.org/1999/xlink" overflow="visible"><defs></defs><path d=" M 2.12 29.51 C 4.36 28.21 7.84 27.62 10.22 27.93 C 12.97 28.29 13.42 29.45 13.42 32.08 C 13.42 34.68 13.61 35.95 11.83 38.5 C 10.46 40.47 8.67 42.63 7.44 46.42 C 6.53 49.24 6.2 54.05 6.5 57.58 C 6.66 59.43 9.64 59.62 9.61 57.22 C 9.59 55.4 9.48 51.84 10.09 48.68 C 10.52 46.43 12.2 42.95 13.88 41.94 C 15.2 41.15 16.83 41.66 16.72 43.19 C 16.6 44.81 16.58 46.94 16.41 48.97 C 16.06 53.1 18.9 55.41 23.79 58.57 C 26.11 60.07 27.53 57.24 25.62 56.15 C 22.59 54.12 19.34 52.55 19.56 48.5 C 19.68 46.35 19.83 44.83 20.04 42.63 C 20.45 38.19 19.76 36.91 18.97 30.35 C 18.79 28.82 19.12 28 21.58 28.45 C 23.85 28.86 26.4 29.08 29.49 29.04 C 31.68 29.01 31.8 26.27 29.47 26.23 C 25.09 26.15 22.68 25.53 18.81 24.67 C 17.7 24.42 17.5 23.96 17.31 23.4 C 17.07 22.7 16.37 22.3 15.4 22.33 C 14.26 22.36 13.61 23.01 13.51 23.85 C 13.43 24.49 12.89 24.87 12.12 24.84 C 8.7 24.73 3.8 25.22 0.77 27.26 C -0.94 28.42 0.5 30.46 2.12 29.51 Z" fill-rule="evenodd" clip-rule="evenodd"/><path d=" M 18.7 16.1 C 18.7 18.05 17.12 19.64 15.16 19.64 C 13.2 19.64 11.62 18.06 11.62 16.1 C 11.62 14.15 13.2 12.56 15.16 12.56 C 17.12 12.56 18.7 14.14 18.7 16.1 Z" fill-rule="evenodd" clip-rule="evenodd"/><path d=" M 25.44 9.23 C 26.58 6.17 25.02 2.75 21.96 1.61 L 18.63 0.37 C 15.57 -0.77 12.15 0.79 11.01 3.85 L 9.85 6.95 C 9.7 7.38 9.43 7.5 9.15 7.39 C 8.5 7.15 7.77 7.48 7.53 8.14 C 7.33 8.68 7.52 9.27 7.96 9.6 C 8.24 9.81 8.34 10.08 8.22 10.38 C 7.7 11.63 6.78 13.47 5.52 14.74 C 5.32 14.94 5.32 15.25 5.52 15.45 C 5.62 15.55 5.75 15.6 5.87 15.6 C 6 15.6 6.13 15.55 6.22 15.45 C 7.64 14.03 8.63 12 9.18 10.67 C 9.38 10.18 9.71 10.07 10.14 9.97 C 11.17 9.74 13.84 10.14 16.26 11.11 C 20.02 12.61 21.51 13.83 22.33 14.69 C 22.7 15.08 22.76 15.37 22.65 16 C 22.42 17.3 22.32 19 22.81 20.62 C 22.88 20.84 23.07 20.97 23.29 20.97 C 23.34 20.97 23.39 20.96 23.44 20.95 C 23.7 20.87 23.85 20.59 23.77 20.33 C 23.3 18.8 23.46 17.12 23.7 15.9 C 23.78 15.51 23.98 15.6 24.24 15.57 C 24.7 15.52 25.11 15.23 25.28 14.77 C 25.52 14.12 25.19 13.39 24.54 13.15 C 24.27 13.05 24.11 12.85 24.25 12.47 L 25.44 9.23 Z M 12.48 7.15 C 12.71 6.55 13.38 4.73 13.38 4.73 C 14.03 2.98 15.99 2.08 17.75 2.74 L 21.08 3.98 C 22.83 4.63 23.73 6.59 23.07 8.35 C 23.07 8.35 22.32 10.32 22.09 10.98 C 21.95 11.38 21.73 11.52 21.32 11.29 C 20.17 10.64 18.73 9.93 17 9.24 C 15.47 8.63 14.07 8.23 12.85 7.98 C 12.37 7.87 12.33 7.56 12.48 7.15 Z"/><path d=" M 50.76 29.5 C 50.79 14.62 44.51 6.77 44.22 6.42 C 42.94 4.86 40.36 4.23 38.81 5.51 C 37.25 6.79 37.31 9.49 38.58 11.04 C 38.62 11.09 41.75 15.41 43.06 23.66 C 43.59 26.99 42.6 28.97 38.69 30.24 C 35.18 31.38 31.5 32.98 28.15 39.01 C 27.19 40.74 28.09 42.58 29.05 42.98 C 30.15 43.44 31.56 42.56 32.3 40.98 C 33.37 38.71 36.56 34.59 40.05 34.91 C 41.59 35.05 42.3 36.03 42.34 38.55 C 42.37 40.93 42.45 48.17 37.68 52.37 C 36.37 53.53 36.52 55.2 37.24 56 C 37.96 56.8 39.59 56.76 40.69 55.84 C 46.14 51.31 46.68 45.36 47.21 40.47 C 47.49 37.85 49.05 38.65 49.8 39.65 C 52.44 43.14 52.37 48.17 49.65 53.9 C 49.1 55.04 49.27 56.55 50.61 57.33 C 51.9 58.09 53.42 56.67 53.8 55.87 C 57.86 47.35 57.15 40.61 52.38 34.68 C 51.34 33.37 50.76 30.53 50.76 29.5 Z" fill="#030000"/></svg>