<svg version="1.1" width="58.92" height="59.24" viewBox="0 0 58.92 59.24" xmlns="http://www.w3.org/2000/svg" xmlns:xlink="http://www.w3.org/1999/xlink" overflow="visible"><defs></defs><path d=" M 1.38 18.2 C 6.66 15.24 8.53 14.17 12.16 12.05 C 13.24 11.42 13.27 10.66 13.15 9.5 C 13.07 8.78 12.21 8.64 11.27 7.58 C 10.47 6.68 10.09 5.82 10.09 4.32 C 10.09 1.99 11.77 0 13.92 0 C 15.56 0 18.08 1.01 18.1 4.26 C 18.12 7.38 16.21 7.4 16.28 9.51 C 16.33 11.02 17.74 11.84 17.74 14.87 C 17.74 21.92 17.85 47.94 17.85 56.44 C 17.85 60.22 13.57 60.2 13.56 56.36 C 13.51 43.31 13.55 21.52 13.55 18.15 C 13.55 16.39 12.55 16.22 11.22 16.91 C 7.33 18.93 6.62 19.31 2.82 21.33 C 0.47 22.58 -1.38 19.75 1.38 18.2 Z" fill-rule="evenodd" clip-rule="evenodd"/><path d=" M 57.25 55.42 C 57.25 55.42 55.6 55.42 54.72 55.42 L 54.72 55.42 C 54.23 55.42 53.55 55.23 53.47 54.07 C 52.88 45.38 50.93 36.82 44.94 30.65 C 43.45 29.12 43.29 28.41 43.29 27.29 C 43.29 26.23 43.98 25.61 45.31 25.58 C 48.1 25.52 51.56 25.97 55.45 27.55 C 57.56 28.4 58.61 25.9 56.71 24.99 L 56.71 24.99 C 53.19 23.38 49.39 22.72 43.14 22.19 C 41.8 22.08 41.37 20.66 42.62 20 C 44.23 19.15 45.33 17.69 45.27 15.59 C 45.24 14.61 44.84 13.44 44.31 12.73 C 42.66 10.52 38.88 10.29 37.01 12.73 C 36.47 13.44 36.08 14.62 36.05 15.59 C 35.99 17.69 37.08 19.16 38.7 20 C 39.95 20.66 39.52 22.08 38.18 22.19 C 31.93 22.72 28.13 23.38 24.61 24.99 L 24.61 24.99 C 22.72 25.9 23.77 28.4 25.87 27.55 C 29.75 25.97 33.21 25.52 36.01 25.58 C 37.34 25.61 38.03 26.22 38.03 27.29 C 38.03 28.41 37.87 29.11 36.38 30.65 C 30.38 36.82 28.44 45.38 27.85 54.07 C 27.77 55.24 27.09 55.42 26.6 55.42 C 25.72 55.42 24.07 55.42 24.07 55.42 C 23.15 55.42 22.4 56.17 22.4 57.09 C 22.4 58.01 23.15 58.76 24.07 58.76 L 57.28 58.76 C 58.2 58.76 58.95 58.01 58.95 57.09 C 58.92 56.17 58.17 55.42 57.25 55.42 Z M 32.15 55.42 C 31.56 55.42 31.24 54.96 31.28 54.34 C 31.82 45.03 34.79 37.7 38.64 33.85 C 40.05 32.44 41.29 32.44 42.66 33.85 L 42.66 33.85 C 46.51 37.7 49.48 45.03 50.02 54.34 C 50.06 54.95 49.73 55.42 49.15 55.42 L 32.15 55.42 Z"/></svg>