<svg version="1.1" width="59.29" height="58.79" viewBox="0 0 59.29 58.79" xmlns="http://www.w3.org/2000/svg" xmlns:xlink="http://www.w3.org/1999/xlink" overflow="visible"><defs></defs><g><path d=" M 0.96 36.27 C -0.31 36.27 -0.31 34.52 0.96 34.52 C 4.68 34.52 5.24 31.15 5.24 29.15 L 5.24 21.63 C 5.24 17.4 7.4 15.16 11.49 15.16 L 19.28 15.16 C 20.83 15.16 20.83 16.91 19.28 16.91 L 11.49 16.91 C 8.38 16.91 6.99 18.36 6.99 21.63 L 6.99 29.15 C 6.99 33.61 4.73 36.27 0.96 36.27 Z"/></g><path d=" M 58.12 56.45 C 58.12 56.45 57.13 56.45 56.8 56.45 C 56.17 56.45 55.97 56.35 55.91 55.5 C 55.17 45.28 55.84 42.54 49.93 35.47 L 49.93 35.46 C 49.83 35.36 48.77 34.49 48.77 32.73 C 48.77 32.73 48.74 14.04 48.76 13.27 C 48.8 11.01 49.32 10.4 51.58 10.57 C 53.95 10.76 55.03 11.06 57.43 11.96 C 58.96 12.4 59.45 10.67 58.1 10.08 C 55.84 9.09 53.65 8.69 48.58 8.12 C 47.64 8.02 47.57 6.9 48.22 6.54 C 48.95 6.14 50.18 4.88 50.16 3.44 C 50.15 2.64 49.93 1.89 49.53 1.3 C 48.4 -0.39 45.66 -0.48 44.34 1.29 C 43.95 1.82 43.71 2.47 43.69 3.19 C 43.64 4.74 44.31 5.88 45.47 6.55 C 45.47 6.55 45.91 6.76 45.83 7.45 C 45.78 7.9 45.41 8.09 45.17 8.13 C 35.83 9.57 32.59 8.73 27.25 8.14 C 26.31 8.04 26.24 6.92 26.89 6.56 C 27.62 6.16 28.85 4.9 28.83 3.46 C 28.82 2.64 28.6 1.9 28.2 1.3 C 27.07 -0.39 24.33 -0.48 23.01 1.29 C 22.62 1.82 22.38 2.47 22.36 3.19 C 22.31 4.74 22.98 5.88 24.14 6.55 C 24.14 6.55 24.58 6.76 24.5 7.45 C 24.45 7.9 23.84 8.13 23.84 8.13 C 19.44 8.27 16.98 8.77 14.33 10.09 L 14.33 10.09 C 13 10.73 13.46 12.41 15 11.97 C 17.41 11.07 18.48 10.77 20.85 10.58 C 23.04 10.41 23.62 11.01 23.72 13.28 L 23.73 32.74 C 23.73 34.5 22.67 35.37 22.57 35.47 L 22.57 35.48 C 16.66 42.98 17.15 45.17 16.59 55.51 C 16.55 56.33 16.06 56.46 15.72 56.46 C 15.1 56.46 13.25 56.46 13.25 56.46 C 12.6 56.46 12.08 56.98 12.08 57.63 C 12.08 58.28 12.6 58.8 13.25 58.8 L 58.11 58.8 C 58.76 58.8 59.28 58.28 59.28 57.63 C 59.29 56.97 58.76 56.45 58.12 56.45 Z M 31.31 56.45 C 28.32 56.45 22.82 56.45 19.84 56.45 C 19.43 56.45 19.21 56.13 19.23 55.7 C 19.54 46.14 19.05 43.95 24.19 37.72 C 25.08 36.65 26.07 36.71 27.01 37.72 C 32.09 43.16 31.42 46.57 31.89 55.7 C 31.91 56.16 31.69 56.45 31.31 56.45 Z M 35.47 56.45 C 34.84 56.45 34.64 56.35 34.58 55.5 C 33.84 45.28 34.51 42.54 28.6 35.47 L 28.6 35.46 C 28.5 35.36 27.44 34.49 27.44 32.73 C 27.44 32.73 27.41 14.04 27.43 13.27 C 27.47 11.01 27.99 10.4 30.25 10.57 C 35.63 11 36.13 11.05 42.17 10.57 C 44.36 10.4 44.94 11 45.04 13.27 L 45.05 32.73 C 45.05 34.49 43.99 35.36 43.89 35.46 L 43.89 35.47 C 37.98 42.97 38.47 45.16 37.91 55.5 C 37.87 56.32 37.38 56.45 37.04 56.45 C 36.98 56.45 35.8 56.45 35.47 56.45 Z M 52.63 56.45 C 49.64 56.45 44.14 56.45 41.16 56.45 C 40.75 56.45 40.53 56.13 40.55 55.7 C 40.86 46.14 40.37 43.95 45.51 37.72 C 46.4 36.65 47.39 36.71 48.33 37.72 C 53.41 43.16 52.74 46.57 53.21 55.7 C 53.23 56.16 53.01 56.45 52.63 56.45 Z"/><path d=" M 20.43 25.07 C 20.43 22.29 18.17 20.03 15.39 20.03 L 14.95 20.03 C 12.17 20.03 9.91 22.29 9.91 25.07 L 9.91 25.07 L 9.91 30.05 C 9.91 32.83 12.17 35.09 14.95 35.09 L 15.39 35.09 C 18.17 35.09 20.43 32.83 20.43 30.05 L 20.43 25.07 L 20.43 25.07 Z M 18.66 30.05 C 18.66 31.85 17.2 33.31 15.4 33.31 L 14.96 33.31 C 13.16 33.31 11.7 31.85 11.7 30.05 L 11.7 25.07 L 11.7 25.07 C 11.7 23.27 13.16 21.81 14.96 21.81 L 15.4 21.81 C 17.2 21.81 18.66 23.27 18.66 25.07 L 18.66 25.07 L 18.66 30.05 Z" fill="#030000"/></svg>