<svg version="1.1" width="62.9" height="63.77" viewBox="0 0 62.9 63.77" xmlns="http://www.w3.org/2000/svg" xmlns:xlink="http://www.w3.org/1999/xlink" overflow="visible"><defs></defs><path d=" M 1.46 8.22 C 2.31 8.17 3.03 8.83 3.07 9.68 C 3.22 12.93 3.62 15.65 4.19 17.9 C 4.91 20.72 6.51 19.88 5.92 16.69 C 5.72 15.63 5.57 14.55 5.49 13.48 C 5.14 9.04 5.06 7.25 4.98 4.48 C 4.96 3.63 5.63 2.92 6.47 2.89 C 6.48 2.89 6.5 2.89 6.52 2.89 C 7.35 2.89 8.03 3.55 8.06 4.38 C 8.14 7.1 8.15 8.86 8.57 13.23 C 8.97 17.49 10.3 18.86 10.49 15.13 C 10.9 7.13 11.41 3.36 12.12 1.08 C 12.37 0.27 13.23 -0.19 14.04 0.06 C 14.85 0.31 15.31 1.17 15.06 1.98 C 14.52 3.73 13.26 9.04 13.56 15.77 C 13.67 18.15 14.66 18.39 15.27 15.93 C 17.04 8.82 19.38 5.43 19.48 5.29 C 19.97 4.6 20.92 4.43 21.62 4.91 C 22.32 5.39 22.49 6.35 22 7.05 C 21.98 7.08 19.87 10.18 18.26 16.67 C 17.69 18.98 17 21.36 15.92 23.09 C 15.24 24.17 16.23 25.13 16.96 24.15 C 17.8 23.01 18.51 21.74 19.4 19.83 C 20.67 17.11 22.08 15.58 23.51 14.97 C 25.11 14.29 26.31 16.45 24.82 17.48 C 23.58 18.33 22.77 19.45 22.17 20.96 C 20.56 25.01 18.53 27.83 15.93 29.13 C 14.03 30.08 13.32 30.98 13.14 33.54 C 13.14 33.61 13.13 61.29 13.13 61.29 C 13.13 62.66 12.02 63.77 10.65 63.77 C 9.28 63.77 8.17 62.66 8.17 61.29 C 8.17 61.29 8.17 36.62 8.17 31.92 C 8.17 30.34 7.69 29.24 6.23 28.07 C 3.29 25.71 0.52 20.57 0 9.83 C -0.04 8.98 0.62 8.26 1.46 8.22 Z" fill="#030000"/><path d=" M 60.81 59.08 L 37.57 59.08 C 35.7 59.08 34.85 58.45 34.97 56.31 C 35.71 43.73 35.62 42.19 33.16 34.75 C 31.3 29.12 29.46 25.54 33.88 23.7 C 36.89 22.44 41.08 24.59 43.2 26.19 C 44.61 27.25 44.75 28.94 44.78 29.73 C 44.94 34.39 44.38 44.8 46.56 52.73 C 47.41 55.84 51.11 55.1 50.41 51.85 C 50.03 50.05 48.83 46.42 49.02 40.8 C 49.05 39.99 49.35 39.5 49.95 39.18 C 51.21 38.51 51.63 37.76 51.73 36.59 C 51.81 35.74 51.4 34.92 50.6 34.22 C 50.02 33.72 49.73 33.59 49.58 32.85 C 49.45 32.21 49.66 29.16 49.75 28.53 C 50.01 26.69 50.36 25.84 51.41 25.81 C 52.31 25.78 52.22 26.46 54.82 27.47 C 56.21 28.01 57.8 27.84 59.48 27.05 C 62.09 25.83 63.06 22.76 62.22 20.24 C 61.48 18.02 58.06 15.51 54.44 17.24 C 51.22 18.77 51.49 21.87 49.56 22.68 C 46.89 23.79 43.16 18.46 35.18 18.46 C 29.24 18.46 24.74 22.6 25.71 28.53 C 26.24 31.77 28.11 34.86 29.46 39.15 C 30.49 42.44 31.35 44.31 30.54 56.12 C 30.43 57.79 29.77 59.1 27.36 59.1 L 26.76 59.1 C 25.77 59.1 24.86 59.77 24.7 60.75 C 24.5 61.99 25.45 63.06 26.65 63.06 L 60.92 63.06 C 62.12 63.06 63.08 61.99 62.87 60.75 C 62.71 59.75 61.8 59.08 60.81 59.08 Z"/></svg>