<svg version="1.1" width="59.68" height="60.04" viewBox="0 0 59.68 60.04" xmlns="http://www.w3.org/2000/svg" xmlns:xlink="http://www.w3.org/1999/xlink" overflow="visible"><defs></defs><path d=" M 49.05 52.02 L 44.67 52.02 C 42.51 52.02 42.51 49.18 44.67 49.18 L 49.05 49.18 C 51.09 49.18 51.09 52.02 49.05 52.02 Z"/><path d=" M 46.82 60.04 C 38.18 60.04 36.7 56.42 34.78 50.34 C 34.26 48.68 33.44 46.01 34.38 44.63 C 35.27 43.32 37.01 43.1 38.23 42.96 C 39.65 42.8 40.89 41.02 43.58 41.07 C 45.03 41.09 45.98 41.79 46.6 42.26 C 46.67 42.31 46.97 42.31 47.04 42.26 C 47.67 41.79 48.62 41.11 50.07 41.07 C 52.91 40.99 53.87 42.58 55.51 42.97 C 56.73 43.26 58.51 43.52 59.36 44.93 C 60.14 46.21 59.41 48.69 58.55 51.16 C 56.64 56.54 55.49 60.04 46.82 60.04 Z M 41.31 44.89 C 40.52 45.39 39.58 45.86 38.44 45.95 C 36.86 46.06 37.01 47.48 37.63 49.45 C 39.47 55.27 39.96 56.85 46.82 57.06 C 53.35 56.85 53.9 55.3 55.71 50.16 C 56.46 48.05 57.38 46.24 55.1 45.94 C 54.05 45.8 53.19 45.32 52.43 44.9 C 51.63 44.46 50.34 43.61 48.84 44.65 C 47.54 45.55 46.09 45.54 44.79 44.65 C 44.01 44.11 42.79 43.95 41.31 44.89 Z" fill="#030000"/><path d=" M 16.01 56.22 C 17.4 55.72 20.67 53.81 21.62 49.14 C 22.36 45.53 21.73 41.45 17.95 39.22 C 15.37 37.7 12.91 36.55 11.16 35.7 C 4.58 32.5 4.04 36.14 3.54 39.36 C 2.55 45.81 5.06 53.56 10.78 55.51 C 13.14 56.31 12.42 59.21 10.37 58.81 C 2.24 57.26 -1.15 47.04 0.35 37.28 C 2.64 22.38 4.1 15.16 7.44 8.88 C 11.58 1.1 18.49 2.55 20.16 7.39 C 21.28 10.65 21.08 12.87 22.39 15.87 C 24.05 19.7 24.04 22.07 24.53 25.76 C 24.91 28.63 25.11 29.37 25.11 31.96 C 25.11 35.62 23.65 38.07 24.44 42.45 C 26.64 54.63 19.04 58.77 16.91 59.17 C 14.76 59.58 14.08 56.91 16.01 56.22 Z M 18.2 19.2 C 16.34 20.02 14.86 20.69 10.74 20.76 C 7.27 20.82 6.05 21.63 5.5 24.55 C 4.7 28.78 6.26 29.12 8.23 30.42 C 9.37 31.17 16.14 34.79 18.7 35.3 C 20.1 35.58 22.04 35.39 22.18 31.21 C 22.2 30.68 21.69 26.43 21.49 24.63 C 21.1 21.32 20.61 18.13 18.2 19.2 Z M 9.85 10.29 C 8.25 13.43 7.76 15.72 9 16.53 C 11.08 17.88 14.92 17.07 16.32 15.73 C 18.24 13.91 18.06 11.72 17.87 10.47 C 17.41 7.35 15.98 6.68 15.01 6.6 C 12.9 6.43 11.1 7.84 9.85 10.29 Z" fill="#000100"/><path d=" M 55.68 16.5 C 51.08 15.97 46.73 14.41 43.89 12.26 C 41.81 10.79 41.74 10.59 41.85 9.4 C 41.93 8.56 42.9 8.77 44.11 7.49 C 44.91 6.64 45.37 5.49 45.37 4.03 C 45.37 1.75 43.4 0 41.31 0 C 39.71 0 37.32 0.99 37.24 4.15 C 37.16 7.25 39.08 7.2 39.01 9.26 C 38.96 10.73 36.95 12.04 35.28 14.48 C 32.2 18.97 31.27 20.94 31.34 23.35 C 31.42 25.93 33.31 29.02 34.35 31.86 C 35.05 33.76 35.2 34.78 35.01 37.85 C 34.83 40.68 38.1 40.73 38.31 38.27 C 38.73 33.23 38.43 31.87 37.03 28.23 C 35.96 25.46 34.91 23.09 36.58 19.99 C 36.78 19.62 36.96 19.3 37.15 18.99 L 37.14 19 C 37.58 18.23 37.98 18.19 38.55 18.57 C 39.05 18.9 40.18 19.22 40.93 18.75 C 41.48 18.41 41.94 17.85 41.99 16.92 C 42.07 15.56 42.72 15.47 43.45 15.87 C 47.71 18.23 51.16 19.19 55.35 19.63 C 57.96 19.91 58.28 16.79 55.68 16.5 Z" fill-rule="evenodd" clip-rule="evenodd"/></svg>