<svg version="1.1" width="61.89" height="63.78" viewBox="0 0 61.89 63.78" xmlns="http://www.w3.org/2000/svg" xmlns:xlink="http://www.w3.org/1999/xlink" overflow="visible"><defs></defs><g><path d=" M 10.48 7.05 C 10.47 6.52 10.04 6.09 9.5 6.09 C 9.5 6.09 9.49 6.09 9.49 6.09 C 8.95 6.09 8.52 6.54 8.53 7.08 C 8.53 7.1 8.51 9.48 6.54 12.73 C 5.25 14.85 4.24 17.79 4.14 19.1 C 4.1 19.64 4.5 20.11 5.04 20.15 C 5.07 20.15 5.09 20.15 5.12 20.15 C 5.62 20.15 6.05 19.76 6.09 19.25 C 6.16 18.33 7.05 15.66 8.22 13.74 C 10.5 9.96 10.49 7.17 10.48 7.05 Z" fill="#030000"/><path d=" M 13.84 7.24 C 13.82 6.7 13.35 6.27 12.83 6.29 C 12.29 6.31 11.87 6.76 11.88 7.3 C 12.01 11.73 10.77 14.63 9.56 17.44 C 8.63 19.62 7.66 21.88 7.4 24.73 C 7.35 25.27 7.75 25.74 8.29 25.79 C 8.32 25.79 8.35 25.79 8.38 25.79 C 8.88 25.79 9.31 25.41 9.35 24.9 C 9.58 22.36 10.45 20.34 11.36 18.21 C 12.65 15.2 13.98 12.1 13.84 7.24 Z" fill="#030000"/><path d=" M 18.34 7.66 C 18 3.1 14.74 0 10.54 0 C 6.38 0 3 3.38 3 7.54 C 3 8.95 2.64 9.33 1.3 9.33 C 0.58 9.33 0 9.91 0 10.63 C 0 11.35 0.58 11.93 1.3 11.93 C 2.91 11.93 5.6 11.36 5.6 7.53 C 5.6 4.81 7.81 2.6 10.53 2.6 C 13.55 2.6 15.66 4.99 15.79 8.55 C 15.92 12.28 15.05 15.32 14.28 17.99 C 13.73 19.91 13.21 21.73 13.1 23.58 C 12.87 27.51 13.68 30.78 15.36 32.8 C 15.62 33.11 15.99 33.27 16.36 33.27 C 16.65 33.27 16.95 33.17 17.19 32.97 C 17.74 32.51 17.82 31.69 17.35 31.13 C 16.11 29.64 15.6 26.95 15.7 23.73 C 15.8 20.6 18.9 15.06 18.34 7.66 Z" fill="#030000"/></g><g><path d=" M 53.96 7.05 C 53.95 6.52 53.52 6.09 52.98 6.09 C 52.98 6.09 52.97 6.09 52.96 6.09 C 52.43 6.09 52 6.54 52.01 7.08 C 52.01 7.1 51.99 9.48 50.02 12.73 C 48.73 14.85 47.72 17.79 47.62 19.1 C 47.58 19.64 47.98 20.11 48.52 20.15 C 48.55 20.15 48.57 20.15 48.6 20.15 C 49.1 20.15 49.53 19.76 49.57 19.25 C 49.64 18.33 50.53 15.66 51.7 13.74 C 53.98 9.96 53.97 7.17 53.96 7.05 Z" fill="#030000"/><path d=" M 57.31 7.24 C 57.29 6.7 56.82 6.27 56.3 6.29 C 55.76 6.31 55.34 6.76 55.35 7.3 C 55.48 11.73 54.24 14.63 53.03 17.44 C 52.09 19.62 51.13 21.88 50.87 24.73 C 50.82 25.27 51.22 25.74 51.76 25.79 C 51.79 25.79 51.82 25.79 51.85 25.79 C 52.35 25.79 52.78 25.41 52.82 24.9 C 53.05 22.36 53.92 20.34 54.83 18.21 C 56.13 15.2 57.46 12.1 57.31 7.24 Z" fill="#030000"/><path d=" M 61.82 7.66 C 61.48 3.1 58.22 0 54.02 0 C 49.86 0 46.48 3.38 46.48 7.54 C 46.48 8.95 46.12 9.33 44.78 9.33 C 44.06 9.33 43.48 9.91 43.48 10.63 C 43.48 11.35 44.06 11.93 44.78 11.93 C 46.39 11.93 49.08 11.36 49.08 7.53 C 49.08 4.81 51.29 2.6 54.01 2.6 C 57.03 2.6 59.14 4.99 59.27 8.55 C 59.4 12.28 58.53 15.32 57.76 17.99 C 57.21 19.91 56.69 21.73 56.58 23.58 C 56.35 27.51 57.16 30.78 58.84 32.8 C 59.1 33.11 59.47 33.27 59.84 33.27 C 60.13 33.27 60.43 33.17 60.67 32.97 C 61.22 32.51 61.3 31.69 60.83 31.13 C 59.59 29.64 59.08 26.95 59.18 23.73 C 59.28 20.6 62.38 15.06 61.82 7.66 Z" fill="#030000"/></g><path d=" M 49.81 60.06 C 45.12 55.23 41.34 52.53 36.51 50.45 C 35.23 49.9 34.59 49.32 34.59 47.22 C 34.59 45.43 35.13 44.86 38.71 45.09 C 40.49 45.2 44.23 44.92 45.49 44.76 C 50.02 44.2 48.54 40.1 45.13 40.65 C 43.44 40.92 38.55 41.18 34.39 40.92 C 32.95 40.83 31.25 40.83 29.78 40.92 C 25.03 41.2 15.4 40.55 13.72 40.41 C 10.96 40.18 10.07 44.01 13.8 44.57 C 15.22 44.79 23.61 45.04 25.8 45.08 C 28.55 45.12 29.58 45.51 29.58 47.21 C 29.58 49.3 28.94 49.89 27.66 50.44 C 22.82 52.52 19.04 55.21 14.36 60.05 C 12.35 62.12 14.84 65.41 17.58 62.83 C 23.94 55.72 28.29 53.65 32.08 53.65 C 35.87 53.65 40.22 55.72 46.58 62.83 C 49.32 65.41 51.82 62.13 49.81 60.06 Z" fill-rule="evenodd" clip-rule="evenodd"/><g><path d=" M 38.37 28.85 C 37.95 28.85 37.61 29.19 37.61 29.61 C 37.61 30.33 37.23 30.77 36.46 30.95 C 35.87 31.09 34.14 31.24 32.37 31.24 C 30.6 31.24 28.87 31.09 28.28 30.95 C 27.51 30.77 27.13 30.33 27.13 29.61 C 27.13 29.19 26.79 28.85 26.37 28.85 C 25.95 28.85 25.61 29.19 25.61 29.61 C 25.61 31.04 26.48 32.09 27.93 32.43 C 28.73 32.62 30.63 32.76 32.36 32.76 C 34.09 32.76 35.99 32.62 36.79 32.43 C 38.24 32.09 39.11 31.04 39.11 29.61 C 39.13 29.19 38.79 28.85 38.37 28.85 Z" fill="none"/><path d=" M 32.98 12.57 C 25.55 12.51 20.05 17.65 19.83 24.32 C 19.67 29.31 21.66 32.98 25.25 35.47 C 29.69 38.55 36.55 37.74 40.47 34.84 C 43.05 32.93 45.03 29.41 44.97 25.25 C 44.87 18.44 40.52 12.63 32.98 12.57 Z M 32.4 23.23 C 33.26 23.23 33.74 23.37 33.74 25.42 C 33.74 27.95 33.45 28.33 32.44 28.33 C 31.49 28.33 31.01 28 31.01 25.42 C 31.02 23.42 31.64 23.23 32.4 23.23 Z M 23.59 22.93 C 23.59 21.98 24.36 21.2 25.32 21.2 C 26.27 21.2 27.05 21.97 27.05 22.93 C 27.05 23.89 26.28 24.66 25.32 24.66 C 24.36 24.66 23.59 23.89 23.59 22.93 Z M 36.81 32.43 C 36.01 32.62 34.11 32.76 32.38 32.76 C 30.65 32.76 28.75 32.62 27.95 32.43 C 26.5 32.09 25.63 31.04 25.63 29.61 C 25.63 29.19 25.97 28.85 26.39 28.85 C 26.81 28.85 27.15 29.19 27.15 29.61 C 27.15 30.33 27.53 30.77 28.3 30.95 C 28.89 31.09 30.62 31.24 32.39 31.24 C 34.15 31.24 35.89 31.09 36.48 30.95 C 37.25 30.77 37.63 30.33 37.63 29.61 C 37.63 29.19 37.97 28.85 38.39 28.85 C 38.81 28.85 39.15 29.19 39.15 29.61 C 39.13 31.04 38.26 32.09 36.81 32.43 Z M 39.34 24.66 C 38.38 24.66 37.61 23.89 37.61 22.93 C 37.61 21.98 38.38 21.2 39.34 21.2 C 40.29 21.2 41.07 21.97 41.07 22.93 C 41.07 23.89 40.29 24.66 39.34 24.66 Z"/></g><path d=" M 52.83 41.04 C 52.78 40.72 52.73 40.4 52.66 40.06 C 52.6 39.72 52.37 39.15 51.56 39.04 C 50.27 38.86 47.96 39.23 45.22 37.53 C 44.84 37.29 44.7 36.64 44.99 36.3 C 45.26 35.98 45.91 36.07 46.31 36.31 C 46.97 36.71 47.97 37.11 49.66 37.24 C 50.47 37.31 51.01 37.21 51.3 36.81 C 51.86 36.06 51.43 34.68 51.3 34.38 C 50.22 31.97 47.33 30.91 47.3 30.9 C 46.8 30.67 46.57 30.08 46.72 29.69 C 46.94 29.15 47.59 29.24 47.84 29.36 C 48.46 29.64 51.21 30.66 52.78 33.71 C 53.1 34.32 53.68 34.19 53.77 33.05 C 53.99 30.36 51.23 29.17 51.12 29.11 C 50.61 28.84 50.39 28.32 50.57 27.91 C 50.78 27.43 51.32 27.4 51.75 27.61 C 53.22 28.3 55.71 30.12 55.39 33.22 C 55.27 34.38 55 35.39 54.6 36.22 C 54.41 36.6 53.97 37.83 54.17 38.87 C 54.31 39.64 54.43 40.34 54.51 40.99 C 54.69 42.04 53.09 42.75 52.83 41.04 Z" fill="#030000"/><path d=" M 6.91 41.04 C 6.96 40.72 7.02 40.4 7.08 40.06 C 7.14 39.72 7.37 39.15 8.18 39.04 C 9.47 38.86 11.78 39.23 14.52 37.53 C 14.9 37.29 15.04 36.64 14.75 36.3 C 14.48 35.98 13.83 36.07 13.43 36.31 C 12.77 36.71 11.77 37.11 10.08 37.24 C 9.27 37.31 8.73 37.21 8.44 36.81 C 7.88 36.06 8.31 34.68 8.44 34.38 C 9.13 32.83 10.58 31.83 11.53 31.32 C 12.69 30.7 11.93 29.26 10.79 29.87 C 9.67 30.47 8.03 31.61 6.95 33.7 C 6.63 34.31 6.05 34.18 5.96 33.04 C 5.74 30.35 8.5 29.16 8.61 29.1 C 9.12 28.83 9.34 28.31 9.16 27.9 C 8.95 27.42 8.41 27.39 7.98 27.6 C 6.51 28.29 4.02 30.11 4.34 33.21 C 4.46 34.37 4.73 35.38 5.13 36.21 C 5.32 36.59 5.76 37.82 5.56 38.86 C 5.42 39.63 5.3 40.33 5.22 40.98 C 5.05 42.04 6.64 42.75 6.91 41.04 Z" fill="#030000"/></svg>