<svg width="55.03" height="61" viewBox="0 0 55.03 61" xmlns="http://www.w3.org/2000/svg" xmlns:xlink="http://www.w3.org/1999/xlink" overflow="visible"><defs></defs><path d="M41.93 12.55 41.92 11.51C41.89 10.25 41.14 9.64 40.01 8.71 38.59 7.55 36.81 6.1 36.2 2.85 35.96 1.58 37.71 1.17 37.97 2.51 38.42 4.87 39.57 6.01 40.76 7 41.52 7.63 41.92 7.25 41.92 6.52 41.92 4.41 41.92 1.07 41.92 1.07 41.92-0.34 43.72-0.34 43.72 1.07 43.72 1.07 43.72 4.38 43.72 6.52 43.72 7.37 44.06 7.68 44.83 7.04 46.03 6.04 47.21 4.9 47.66 2.51 47.91 1.21 49.68 1.53 49.43 2.85 48.82 6.11 47.05 7.55 45.63 8.71 44.51 9.63 43.79 10.23 43.71 11.41L43.71 12.56C43.73 13.93 41.93 13.93 41.93 12.55Z"/><path d="M5.74 11.51C5.72 10.25 4.96 9.64 3.83 8.71 2.41 7.54 0.63 6.1 0.02 2.84-0.22 1.57 1.53 1.16 1.79 2.5 2.24 4.86 3.4 6 4.58 6.99 5.34 7.62 5.74 7.24 5.74 6.51 5.74 4.4 5.74 1.06 5.74 1.06 5.74-0.35 7.54-0.35 7.54 1.06 7.54 1.06 7.54 4.37 7.54 6.51 7.54 7.36 7.88 7.67 8.65 7.03 9.85 6.03 11.03 4.89 11.48 2.5 11.73 1.2 13.5 1.52 13.25 2.84 12.64 6.1 10.87 7.54 9.45 8.7 8.33 9.62 7.57 10.36 7.54 11.54 7.51 12.82 5.76 12.77 5.74 11.51Z"/><path d="M54.57 31.97C53.62 29.74 50.56 27.51 43.13 24.1 38.72 22.08 35.94 20.88 30.25 19.51 26.11 18.51 25.87 17.38 22.15 15.75 16.85 13.43 7.88 15.3 4.16 23.16 2.85 25.95 3.01 29.45 4.04 33.51 4.86 36.76 6.85 35.96 6.61 34.01 6.57 33.65 6.53 33.27 6.46 32.87 6.43 32.65 6.61 32.57 6.76 32.73 9.23 35.4 13.93 35.45 18.8 33.7 23.67 31.95 27.19 28.95 27.41 25.32 27.42 25.12 27.58 25.09 27.7 25.25 28.07 25.75 28.39 26.27 28.71 26.69 29.22 27.35 30.24 27.36 30.42 26.4 30.51 25.91 30.18 25.06 29.85 24.14 29.32 22.7 30.97 21.27 32.2 23.18 32.96 24.36 33.3 25.41 33.68 28.11 34.16 30.86 34.01 34.19 33.26 37.6 32.68 40.23 36.22 41.21 36.84 38.47 37.45 35.78 37.71 32.97 37.61 29.58 37.58 28.61 37.8 27.14 39.96 27.91 41.6 28.49 45.56 30.71 47.64 31.96 50.42 33.63 50.81 35.14 49.55 39.55 49.2 40.78 48.45 43.7 48.25 44.56 47.79 46.53 47.67 47.89 47.59 50.24 47.55 51.48 47.44 56.57 47.38 58.6 47.28 61.7 51.41 61.91 51.44 58.63 51.46 56.62 51.59 51.51 51.67 50.26 51.8 48.31 52.22 46.97 52.49 45.86 52.64 45.23 53.3 42.71 53.5 42.04 54.45 38.69 55.73 34.71 54.57 31.97ZM19.78 32.81C19.05 33.07 18.3 32.86 18.11 32.32 17.92 31.79 18.36 31.15 19.09 30.88 19.82 30.62 20.57 30.84 20.77 31.37 20.96 31.9 20.52 32.55 19.78 32.81ZM24.61 29.07C24.15 29.72 23.62 29.9 23.55 28.87 23.53 28.53 23.46 28.19 23.34 27.84 22.41 25.25 18.99 24.11 15.71 25.29 12.42 26.47 10.51 29.52 11.44 32.11 11.53 32.37 11.65 32.62 11.79 32.84 12.32 33.68 11.84 33.83 11.25 33.66 8.84 32.98 7 31.58 6.43 29.97 4.76 25.32 8.68 20.21 12.99 18.61 18.01 16.74 23.95 18.24 25.69 23.07 26.37 25.03 25.94 27.18 24.61 29.07Z"/><path d="M40.75 39.41C40.31 39.27 39.84 39.52 39.71 39.97L39.01 42.27C38.32 44.55 37.21 45.7 35.74 45.7 34.46 45.7 34.58 44.8 34.81 44.29 34.98 43.92 35.12 43.53 35.24 43.11 35.43 42.44 35.05 41.75 34.38 41.56 33.72 41.36 33.02 41.75 32.83 42.41 32.14 44.81 31.36 47.15 27.45 47.15L19.29 47.15C15.38 47.15 14.6 44.81 13.91 42.41 13.72 41.74 13.02 41.36 12.36 41.56 11.7 41.75 11.31 42.45 11.5 43.11 11.62 43.53 11.77 43.92 11.93 44.29 12.16 44.8 12.29 45.7 11 45.7 9.53 45.7 8.42 44.55 7.73 42.27L7.03 39.97C6.9 39.53 6.43 39.28 5.99 39.41 5.55 39.54 5.3 40.01 5.44 40.45L6.14 42.75C7.3 46.56 9.44 47.36 11.01 47.36 11.01 47.36 11.82 47.36 12.33 47.36 13.52 47.36 13.64 47.96 15.17 48.7 17.66 49.92 18.63 49.54 19.57 50.52 20.18 51.16 20.2 52.36 20.19 53.62L20.19 53.81C20.19 56.44 19.75 57.48 18.97 58.04 18.71 58.23 17.79 58.49 17.12 58.49 15.91 58.49 15.78 58.49 15.78 58.49 15.09 58.49 14.53 59.05 14.53 59.74 14.53 60.43 15.09 60.99 15.78 60.99L30.97 60.99C31.66 60.99 32.22 60.43 32.22 59.74 32.22 59.05 31.66 58.49 30.97 58.49 30.97 58.49 30.84 58.49 29.63 58.49 28.96 58.49 28.04 58.23 27.78 58.04 27 57.48 26.56 56.44 26.56 53.81L26.56 53.62C26.56 52.35 26.57 51.15 27.18 50.52 28.12 49.54 29.09 49.92 31.58 48.7 33.11 47.95 33.23 47.36 34.42 47.36 34.93 47.36 35.74 47.36 35.74 47.36 37.32 47.36 39.45 46.56 40.61 42.75L41.31 40.45C41.44 40.01 41.19 39.54 40.75 39.41ZM24.16 58.49 22.57 58.49C22.14 58.49 21.97 58.21 22.12 57.81 22.51 56.78 22.68 55.47 22.68 53.82L22.68 53.63C22.68 52.59 22.68 51.4 22.38 50.32 22.32 50.09 22.4 49.65 22.91 49.65L23.8 49.65C24.32 49.65 24.4 50.09 24.33 50.32 24.03 51.4 24.03 52.59 24.03 53.63L24.03 53.82C24.03 55.48 24.2 56.78 24.59 57.81 24.75 58.21 24.58 58.49 24.16 58.49Z"/><g><path d="M28.34 45.2 18.38 45.2C17.83 45.2 17.38 44.75 17.38 44.2 17.38 43.65 17.83 43.2 18.38 43.2L28.34 43.2C28.89 43.2 29.34 43.65 29.34 44.2 29.34 44.75 28.89 45.2 28.34 45.2Z"/></g></svg>