<svg version="1.1" width="55.35" height="55.99" viewBox="0 0 55.35 55.99" xmlns="http://www.w3.org/2000/svg" xmlns:xlink="http://www.w3.org/1999/xlink" overflow="visible"><defs></defs><path d=" M 9.14 2.11 C 10.58 3.07 10.97 4.9 11.98 7.09 C 12.04 7.23 11.94 7.25 11.89 7.26 C 8.71 7.72 7.83 8.06 6.09 7.13 C 4.57 6.3 3.85 4.73 4.78 3.08 C 5.6 1.62 7.4 0.97 9.14 2.11 Z" fill-rule="evenodd" clip-rule="evenodd"/><path d=" M 3.31 16.19 C 5.04 16.31 6.28 17.71 8.24 19.11 C 8.36 19.2 8.28 19.27 8.24 19.3 C 5.71 21.28 5.12 22.01 3.15 22.05 C 1.41 22.09 0.01 21.08 0 19.19 C -0.01 17.52 1.24 16.05 3.31 16.19 Z" fill-rule="evenodd" clip-rule="evenodd"/><path d=" M 4.86 44.16 C 6.23 43.09 8.08 43.29 10.48 43.02 C 10.63 43 10.62 43.11 10.61 43.16 C 10.07 46.32 10.11 47.26 8.68 48.62 C 7.42 49.81 5.7 50 4.42 48.61 C 3.29 47.37 3.24 45.45 4.86 44.16 Z" fill-rule="evenodd" clip-rule="evenodd"/><path d=" M 53.39 52.07 C 53.39 52.07 52.29 52.07 51.26 52.07 L 51.26 52.07 C 50.69 52.07 49.89 51.85 49.8 50.48 C 49.1 40.3 46.83 30.27 39.8 23.04 C 38.05 21.24 37.86 20.42 37.86 19.11 C 37.86 17.86 38.67 17.15 40.23 17.11 C 43.5 17.04 47.55 17.57 52.11 19.42 C 54.58 20.42 55.81 17.49 53.59 16.42 L 53.59 16.42 C 49.46 14.53 45.01 13.76 37.69 13.14 C 36.12 13.01 35.61 11.35 37.08 10.57 C 38.96 9.57 40.25 7.86 40.18 5.41 C 40.14 4.27 39.68 2.89 39.05 2.05 C 37.12 -0.54 32.69 -0.81 30.5 2.05 C 29.87 2.88 29.41 4.26 29.37 5.41 C 29.3 7.87 30.58 9.59 32.47 10.57 C 33.94 11.35 33.43 13.01 31.86 13.14 C 24.54 13.76 20.09 14.53 15.96 16.42 L 15.96 16.42 C 13.74 17.49 14.97 20.42 17.44 19.42 C 21.99 17.57 26.04 17.04 29.32 17.11 C 30.87 17.15 31.69 17.86 31.69 19.11 C 31.69 20.42 31.5 21.25 29.75 23.04 C 22.72 30.27 20.45 40.3 19.75 50.48 C 19.66 51.85 18.86 52.07 18.29 52.07 C 17.26 52.07 16.16 52.07 16.16 52.07 C 15.08 52.07 14.2 52.95 14.2 54.03 C 14.2 55.11 15.08 55.99 16.16 55.99 L 53.42 55.99 C 54.5 55.99 55.38 55.11 55.38 54.03 C 55.35 52.95 54.47 52.07 53.39 52.07 Z M 24.8 52.07 C 24.11 52.07 23.73 51.53 23.78 50.81 C 24.41 39.9 27.89 31.32 32.4 26.8 C 34.05 25.15 35.5 25.15 37.12 26.8 L 37.12 26.8 C 41.63 31.32 45.11 39.9 45.74 50.81 C 45.78 51.53 45.4 52.07 44.72 52.07 L 24.8 52.07 Z"/></svg>