<svg version="1.1" width="56.76" height="57.59" viewBox="0 0 56.76 57.59" xmlns="http://www.w3.org/2000/svg" xmlns:xlink="http://www.w3.org/1999/xlink" overflow="visible"><defs></defs><path d=" M 22.03 9.91 C 21.88 13.13 21.48 15.81 20.92 18.03 C 20.21 20.81 18.63 19.99 19.21 16.84 C 19.4 15.79 19.55 14.73 19.64 13.68 C 19.99 9.29 20.07 7.52 20.15 4.78 C 20.23 2.06 17.19 1.99 17.11 4.69 C 17.03 7.37 17.02 9.12 16.61 13.43 C 16.21 17.64 14.9 18.99 14.71 15.31 C 14.3 7.41 13.56 4.29 12.6 1.44 C 11.79 -0.97 8.95 -0.1 9.7 2.34 C 10.57 5.15 11.63 10.83 11.69 15.95 C 11.72 18.3 10.6 18.54 10 16.11 C 8.25 9.08 5.93 5.73 5.83 5.59 C 4.27 3.36 1.79 5.1 3.34 7.33 C 3.36 7.36 5.45 10.42 7.03 16.83 C 7.6 19.11 8.27 21.46 9.34 23.17 C 10.01 24.24 9.03 25.18 8.32 24.21 C 7.49 23.08 6.79 21.83 5.91 19.94 C 4.65 17.26 3.26 15.95 2.14 15.34 C 0.51 14.46 -0.79 16.36 0.56 17.62 C 1.55 18.55 2.58 19.57 3.17 21.06 C 4.76 25.06 6.76 27.85 9.33 29.13 C 11.21 30.07 11.91 30.14 12.08 32.67 C 12.08 32.75 12.12 54.55 12.12 54.55 C 12.12 58.69 17.02 58.53 17.01 54.55 C 17.01 54.55 16.98 36.52 16.98 31.89 C 16.98 30.33 17.46 29.24 18.89 28.09 C 21.8 25.76 24.53 20.68 25.05 10.08 C 25.18 7.53 22.15 7.38 22.03 9.91 Z" fill="#030000"/><path d=" M 46.57 49.89 L 42.37 49.89 C 40.3 49.89 40.3 47.17 42.37 47.17 L 46.57 47.17 C 48.52 47.17 48.52 49.89 46.57 49.89 Z"/><path d=" M 44.43 57.59 C 36.14 57.59 34.72 54.12 32.88 48.28 C 32.38 46.68 31.6 44.12 32.5 42.8 C 33.35 41.54 35.02 41.33 36.19 41.2 C 37.55 41.05 38.74 39.34 41.32 39.39 C 42.71 39.41 43.62 40.08 44.22 40.53 C 44.28 40.58 44.57 40.58 44.64 40.53 C 45.24 40.08 46.15 39.43 47.54 39.39 C 50.26 39.31 51.19 40.84 52.76 41.21 C 53.93 41.49 55.64 41.74 56.46 43.09 C 57.2 44.32 56.51 46.7 55.68 49.06 C 53.84 54.22 52.74 57.59 44.43 57.59 Z M 39.15 43.05 C 38.4 43.53 37.49 43.98 36.39 44.06 C 34.87 44.17 35.02 45.52 35.61 47.41 C 37.37 52.99 37.84 54.5 44.42 54.71 C 50.68 54.51 51.21 53.02 52.95 48.1 C 53.67 46.08 54.55 44.34 52.36 44.05 C 51.36 43.91 50.53 43.46 49.8 43.06 C 49.04 42.64 47.8 41.82 46.36 42.82 C 45.11 43.68 43.72 43.68 42.48 42.82 C 41.73 42.3 40.57 42.15 39.15 43.05 Z" fill="#030000"/><path d=" M 52.93 15.82 C 48.52 15.31 44.35 13.82 41.62 11.75 C 39.63 10.34 39.56 10.15 39.67 9.01 C 39.75 8.2 40.68 8.4 41.84 7.17 C 42.61 6.35 43.05 5.26 43.05 3.85 C 43.05 1.67 41.16 -0.01 39.16 -0.01 C 37.62 -0.01 35.33 0.94 35.25 3.97 C 35.17 6.94 37.02 6.9 36.95 8.87 C 36.9 10.28 34.97 11.54 33.37 13.88 C 30.42 18.18 29.52 20.08 29.59 22.39 C 29.67 24.87 31.48 27.83 32.48 30.55 C 33.15 32.37 33.3 33.36 33.11 36.29 C 32.94 39.01 36.08 39.05 36.27 36.69 C 36.67 31.85 36.39 30.55 35.04 27.06 C 34.01 24.4 33.01 22.13 34.6 19.16 C 34.79 18.81 34.97 18.49 35.14 18.2 L 35.15 18.21 C 35.57 17.47 35.96 17.44 36.5 17.8 C 36.98 18.12 38.06 18.42 38.78 17.97 C 39.31 17.64 39.75 17.1 39.8 16.22 C 39.87 14.91 40.5 14.83 41.2 15.21 C 45.29 17.47 48.59 18.39 52.61 18.82 C 55.11 19.1 55.42 16.11 52.93 15.82 Z" fill-rule="evenodd" clip-rule="evenodd"/></svg>