<svg version="1.1" width="58.73" height="59" viewBox="0 0 58.73 59" xmlns="http://www.w3.org/2000/svg" xmlns:xlink="http://www.w3.org/1999/xlink" overflow="visible"><defs></defs><g><path d=" M 17.81 48.19 C 17.8 48 17.79 47.8 17.78 47.61 C 17.74 46.42 19.36 46.39 19.39 47.57 C 19.39 47.74 19.4 47.91 19.41 48.07 C 19.51 49.28 17.9 49.38 17.81 48.19 Z"/><path d=" M 18.07 44.71 C 18.11 44.52 18.16 44.33 18.21 44.15 C 18.53 43 20.08 43.45 19.76 44.58 C 19.71 44.74 19.67 44.91 19.63 45.07 C 19.37 46.25 17.8 45.88 18.07 44.71 Z"/><path d=" M 19.34 41.47 C 19.44 41.3 19.54 41.14 19.65 40.97 C 20.29 39.97 21.64 40.85 21 41.84 C 20.91 41.98 20.82 42.13 20.74 42.27 C 20.13 43.32 18.75 42.5 19.34 41.47 Z"/><path d=" M 21.52 38.74 C 21.67 38.61 21.81 38.48 21.96 38.36 C 22.86 37.59 23.89 38.83 22.99 39.59 C 22.86 39.7 22.74 39.81 22.61 39.92 C 21.72 40.75 20.64 39.56 21.52 38.74 Z"/><path d=" M 24.4 36.78 C 24.57 36.69 24.75 36.62 24.93 36.54 C 26.02 36.07 26.64 37.56 25.55 38.02 C 25.39 38.08 25.24 38.16 25.09 38.23 C 24 38.76 23.32 37.3 24.4 36.78 Z"/><path d=" M 27.73 35.76 C 27.92 35.73 28.12 35.71 28.31 35.69 C 29.49 35.56 29.64 37.17 28.47 37.29 C 28.3 37.31 28.13 37.33 27.97 37.35 C 26.77 37.53 26.55 35.93 27.73 35.76 Z"/><path d=" M 31.22 35.76 C 31.41 35.79 31.6 35.82 31.79 35.87 C 32.96 36.1 32.63 37.68 31.47 37.44 C 31.3 37.41 31.14 37.38 30.97 37.35 C 29.77 37.17 30.03 35.58 31.22 35.76 Z"/><path d=" M 34.55 36.79 C 34.73 36.87 34.89 36.96 35.07 37.06 C 36.12 37.62 35.34 39.03 34.3 38.47 C 34.15 38.39 34 38.31 33.85 38.24 C 32.75 37.72 33.47 36.27 34.55 36.79 Z"/><path d=" M 37.42 38.76 C 37.57 38.89 37.7 39.03 37.83 39.17 C 38.67 40.02 37.51 41.14 36.69 40.29 C 36.57 40.17 36.45 40.05 36.33 39.94 C 35.44 39.11 36.55 37.94 37.42 38.76 Z"/><path d=" M 39.59 41.49 C 39.69 41.66 39.78 41.83 39.87 42 C 40.42 43.05 38.98 43.78 38.44 42.73 C 38.36 42.58 38.28 42.43 38.2 42.29 C 37.59 41.24 39 40.45 39.59 41.49 Z"/><path d=" M 40.86 44.73 C 40.91 44.92 40.94 45.11 40.97 45.3 C 41.18 46.47 39.59 46.74 39.39 45.58 C 39.36 45.41 39.33 45.25 39.29 45.09 C 39.02 43.9 40.6 43.57 40.86 44.73 Z"/><path d=" M 41.12 48.21 C 41.11 48.41 41.08 48.59 41.06 48.79 C 40.92 49.97 39.32 49.76 39.47 48.59 C 39.49 48.42 39.5 48.26 39.52 48.09 C 39.6 46.87 41.21 47.02 41.12 48.21 Z"/><path d=" M 40.34 51.61 C 40.27 51.79 40.19 51.97 40.11 52.14 C 39.63 53.23 38.16 52.56 38.65 51.48 C 38.72 51.33 38.78 51.17 38.85 51.01 C 39.28 49.88 40.77 50.49 40.34 51.61 Z"/><path d=" M 38.59 54.62 C 38.47 54.77 38.34 54.92 38.21 55.06 C 37.43 55.96 36.22 54.88 37.01 54 C 37.12 53.87 37.23 53.74 37.33 53.61 C 38.09 52.67 39.33 53.69 38.59 54.62 Z"/><path d=" M 36.03 56.99 C 35.87 57.1 35.7 57.2 35.54 57.3 C 34.53 57.93 33.7 56.54 34.7 55.93 C 34.85 55.84 34.98 55.75 35.12 55.66 C 36.13 54.97 37.02 56.32 36.03 56.99 Z"/><path d=" M 32.88 58.49 C 32.7 58.55 32.51 58.6 32.32 58.64 C 31.17 58.94 30.78 57.37 31.92 57.09 C 32.09 57.05 32.25 57 32.41 56.95 C 33.58 56.6 34.03 58.14 32.88 58.49 Z"/><path d=" M 29.44 59 C 29.25 59 29.05 58.99 28.86 58.98 C 27.67 58.93 27.76 57.32 28.94 57.38 C 29.11 57.39 29.27 57.39 29.44 57.39 C 30.66 57.4 30.63 59.01 29.44 59 Z"/><path d=" M 25.99 58.48 C 25.8 58.43 25.62 58.36 25.44 58.29 C 24.32 57.89 24.89 56.38 25.99 56.78 C 26.15 56.84 26.31 56.89 26.47 56.94 C 27.63 57.3 27.13 58.83 25.99 58.48 Z"/><path d=" M 22.86 56.96 C 22.7 56.85 22.55 56.73 22.39 56.62 C 21.44 55.91 22.42 54.63 23.36 55.34 C 23.49 55.44 23.63 55.54 23.77 55.63 C 24.77 56.31 23.84 57.63 22.86 56.96 Z"/><path d=" M 20.31 54.58 C 20.18 54.43 20.07 54.27 19.96 54.11 C 19.26 53.15 20.58 52.22 21.26 53.18 C 21.36 53.32 21.46 53.45 21.56 53.58 C 22.32 54.53 21.05 55.51 20.31 54.58 Z"/><path d=" M 18.57 51.56 C 18.49 51.38 18.43 51.2 18.37 51.01 C 17.99 49.89 19.52 49.38 19.89 50.5 C 19.94 50.66 20.01 50.82 20.06 50.98 C 20.51 52.1 19.01 52.67 18.57 51.56 Z"/><path d=" M 29.47 53.91 C 25.82 53.91 22.86 50.95 22.86 47.31 C 22.86 43.67 25.82 40.7 29.47 40.7 C 33.11 40.7 36.07 43.66 36.07 47.31 C 36.07 50.94 33.11 53.91 29.47 53.91 Z" fill-rule="evenodd" clip-rule="evenodd"/></g><path d=" M 57.3 28.25 L 57.3 28.25 C 54.88 28.25 53.84 27.61 53.2 25.75 C 51.53 20.94 49.37 18.12 46.41 15.16 C 45.63 14.38 44.32 13.34 44.32 12.27 C 44.32 11.47 44.47 10.85 45.79 10.91 C 47.9 11 51.72 12 54.4 13 C 56.21 13.68 56.96 11.59 55.36 10.9 C 53.09 9.91 49.46 8.82 44.24 8.23 C 43.36 8.13 42.99 6.9 44.11 6.38 C 45 5.96 45.92 4.84 45.9 3.4 C 45.88 1.54 44.55 0 42.5 0 C 40.44 0 39.12 1.54 39.09 3.4 C 39.07 4.84 40 5.96 40.89 6.37 C 42.01 6.89 41.64 8.12 40.76 8.22 C 35.54 8.81 33.29 9.74 29.37 9.74 C 25.67 9.74 23.2 8.81 17.98 8.22 C 17.1 8.12 16.73 6.89 17.85 6.37 C 18.74 5.96 19.66 4.84 19.65 3.4 C 19.61 1.54 18.29 0 16.23 0 C 14.17 0 12.85 1.54 12.82 3.4 C 12.8 4.84 13.73 5.96 14.62 6.37 C 15.74 6.89 15.37 8.12 14.49 8.22 C 9.27 8.82 5.64 9.91 3.37 10.9 C 1.76 11.6 2.52 13.68 4.33 13 C 7 12 10.83 11 12.94 10.91 C 14.26 10.85 14.41 11.47 14.41 12.27 C 14.41 13.35 13.1 14.38 12.32 15.16 C 9.36 18.12 7.2 20.95 5.53 25.75 C 4.88 27.61 3.84 28.25 1.43 28.25 C 0.64 28.25 0 28.89 0 29.68 C 0 30.47 0.64 31.1 1.42 31.1 L 1.42 31.1 L 57.3 31.1 C 58.09 31.1 58.72 30.46 58.72 29.68 C 58.73 28.89 58.09 28.25 57.3 28.25 Z M 22.63 28.25 L 9.83 28.25 C 8.49 28.25 8.05 27.86 8.31 26.91 C 10.41 20.84 13.62 17.09 16.23 17.06 C 18.84 17.09 22.05 20.85 24.15 26.91 C 24.41 27.87 23.97 28.25 22.63 28.25 Z M 29.36 28.23 C 27.61 28.1 27.51 27.42 26.93 25.75 C 25.26 20.94 23.1 18.12 20.14 15.16 C 19.36 14.38 18.05 13.34 18.05 12.27 C 18.05 11.47 18.2 10.85 19.52 10.91 C 21.63 11 24.85 12.07 29.36 12.07 C 33.37 12.07 37.09 11 39.2 10.91 C 40.52 10.85 40.67 11.47 40.67 12.27 C 40.67 13.35 39.36 14.38 38.58 15.16 C 35.62 18.12 33.46 20.95 31.79 25.75 C 31.22 27.42 31.11 28.1 29.36 28.23 Z M 48.9 28.25 L 36.1 28.25 C 34.76 28.25 34.32 27.86 34.58 26.91 C 36.68 20.84 39.89 17.09 42.5 17.06 C 45.11 17.09 48.32 20.85 50.42 26.91 C 50.68 27.87 50.24 28.25 48.9 28.25 Z"/></svg>