<svg width="56.73" height="57.32" viewBox="0 0 56.73 57.32" xmlns="http://www.w3.org/2000/svg" xmlns:xlink="http://www.w3.org/1999/xlink" overflow="visible"><defs></defs><path d="M13.84 0 8.38 0C5.8 0 5.8 3.54 8.38 3.54 9.41 3.54 10.06 4.09 10.34 4.43 11.29 5.59 11.09 5.58 12.01 4.41 12.35 3.98 12.84 3.53 13.84 3.53 16.56 3.54 16.56 0 13.84 0Z" fill-rule="evenodd" clip-rule="evenodd"/><path d="M20.34 9.63 1.94 9.63C0.19 9.63 0.19 12.12 1.94 12.12L20.34 12.12C22.16 12.12 22.16 9.63 20.34 9.63Z"/><path d="M18.85 43.04C17.49 42.72 16.68 41.39 14.31 41.45 13.71 41.47 12.77 42.09 12.77 41.11 12.77 31.75 13.48 30.9 14.82 29.74 16.05 28.68 17.72 28.53 18.75 28.74 20.33 29.07 20.83 27 19.3 26.61 19.18 26.58 16.23 25.85 13.47 28 11.88 29.24 11.33 29.14 9.86 28 7.1 25.86 4.16 26.58 4.04 26.61 2.56 26.98 2.93 29.19 4.58 28.75 5.47 28.51 7.32 28.61 8.51 29.74 9.53 30.71 10.56 31.79 10.56 41.14 10.56 42.14 9.57 41.46 8.91 41.45 6.67 41.41 5.63 42.9 4.45 43.03 1.44 43.37 0.14 45 1.36 48.51 3.81 55.54 4.41 57.29 11.62 57.29 18.86 57.29 19.39 55.11 21.85 48.61 23.25 44.87 21.89 43.76 18.85 43.04ZM19.49 47.75C19.35 48.21 19.18 48.63 19.03 49.03 17.52 53.31 17.06 54.61 11.61 54.78 5.89 54.6 5.48 53.29 3.95 48.43L3.74 47.75C3.34 46.43 3.52 45.6 4.63 45.51 5.58 45.44 6.37 45.05 7.03 44.63 8.27 43.85 9.28 43.98 9.94 44.43 11.48 45.49 11.9 45.4 13.31 44.43 14.56 43.56 15.64 44.28 16.31 44.64 16.94 44.99 17.66 45.39 18.54 45.5 19.72 45.68 19.93 46.33 19.49 47.75Z" fill="#030000"/><path d="M13.67 19.36C13.47 20.25 13.94 21.1 14.39 22.29 14.4 22.32 14.46 22.36 14.49 22.34 15.92 21.33 16.35 21.17 16.67 20.17 17.34 18.09 14.21 17.21 13.67 19.36Z" fill-rule="evenodd" clip-rule="evenodd"/><path d="M9.62 19.36C9.82 20.25 9.35 21.1 8.9 22.29 8.89 22.32 8.83 22.36 8.8 22.34 7.37 21.33 6.94 21.17 6.62 20.17 5.95 18.09 9.08 17.21 9.62 19.36Z" fill-rule="evenodd" clip-rule="evenodd"/><path d="M2.88 17.24C3.44 17.97 3.33 18.95 3.47 20.22 3.48 20.3 3.42 20.29 3.4 20.28 1.72 19.99 1.23 20 0.51 19.25-1.08 17.54 1.44 15.38 2.88 17.24Z" fill-rule="evenodd" clip-rule="evenodd"/><g><path d="M39.58 57.32C31.79 57.32 29.45 53.7 27.54 47.62 26.91 45.61 26.13 44.26 27.14 42.78 28.03 41.47 29.77 41.25 30.99 41.11 32.4 40.95 33.65 39.17 36.34 39.22 37.79 39.24 38.74 39.94 39.37 40.41 39.44 40.46 39.74 40.46 39.8 40.41 40.43 39.94 41.38 39.26 42.82 39.22 45.66 39.14 46.63 40.73 48.26 41.12 49.48 41.41 51.26 41.67 52.11 43.08 53.03 44.61 51.91 46.69 51.29 48.43 49.41 53.81 47.37 57.32 39.58 57.32ZM34.08 43.04C33.29 43.54 32.35 44.01 31.21 44.09 29.61 44.2 29.82 45.75 30.4 47.59 32.24 53.41 34.87 54.32 39.59 54.32 44.31 54.32 46.67 53.43 48.49 48.3 49.16 46.42 49.77 44.33 47.88 44.08 46.83 43.94 45.97 43.46 45.21 43.05 44.41 42.61 43.12 41.76 41.62 42.79 40.11 43.84 39.03 43.8 37.57 42.79 36.78 42.26 35.56 42.1 34.08 43.04Z" fill="#030000"/><path d="M42.06 49.8 37.46 49.8C35.19 49.8 35.19 46.82 37.46 46.82L42.06 46.82C44.21 46.82 44.21 49.8 42.06 49.8Z"/><path d="M54.75 6.38C54.26 5.8 53.4 5.72 52.82 6.21 52.82 6.21 46.53 11.54 42.28 15.02 41.43 15.72 40.75 15.51 40.75 14.31L40.75 2.47C40.75 1.71 40.14 1.1 39.38 1.1 38.62 1.1 38.01 1.71 38.01 2.47L38.01 16.92C38.01 17.43 37.59 17.85 37.08 17.85L23.41 17.85C22.65 17.85 22.04 18.46 22.04 19.22 22.04 19.98 22.65 20.59 23.41 20.59 23.41 20.59 30.44 20.59 33.04 20.59 34.52 20.59 34.79 21.25 33.64 22.24 29.73 25.57 24.93 29.45 24.93 29.45 24.35 29.94 24.27 30.8 24.76 31.38 25.03 31.7 25.42 31.87 25.81 31.87 26.12 31.87 26.43 31.77 26.69 31.55 26.69 31.55 32.08 27.09 36.48 23.44 37.32 22.74 38.01 22.81 38.01 24.15L38.01 35.53C38.01 36.29 38.62 36.9 39.38 36.9 40.14 36.9 40.75 36.29 40.75 35.53L40.75 21.52C40.75 21.01 41.17 20.59 41.68 20.59L55.35 20.59C56.11 20.59 56.72 19.98 56.72 19.22 56.72 18.46 56.11 17.85 55.35 17.85L45.72 17.85C44.23 17.85 44.06 17.11 45.12 16.2 49.05 12.84 54.57 8.3 54.57 8.3 55.16 7.82 55.24 6.96 54.75 6.38Z"/><path d="M47.75 25.95C47.22 25.4 46.36 25.39 45.81 25.91 45.26 26.43 45.25 27.3 45.77 27.85L48.53 30.69C48.8 30.97 49.16 31.11 49.52 31.11 49.86 31.11 50.2 30.98 50.47 30.73 51.02 30.21 51.03 29.34 50.51 28.79L47.75 25.95Z"/><path d="M35.7 30.12C36.02 29.43 35.73 28.62 35.04 28.3 34.35 27.98 33.54 28.27 33.22 28.96L31.55 32.56C31.39 32.91 31.38 33.3 31.51 33.63 31.63 33.95 31.87 34.22 32.21 34.38 32.9 34.7 33.71 34.41 34.03 33.72L35.7 30.12Z"/></g></svg>