<svg version="1.1" width="64.28" height="64.62" viewBox="0 0 64.28 64.62" xmlns="http://www.w3.org/2000/svg" xmlns:xlink="http://www.w3.org/1999/xlink" overflow="visible"><defs></defs><path d=" M 22.35 7.66 C 21.56 7.61 20.89 8.23 20.85 9.02 C 20.7 12.05 20.33 14.58 19.8 16.67 C 19.13 19.29 17.64 18.52 18.19 15.55 C 18.37 14.56 18.51 13.56 18.59 12.56 C 18.92 8.42 19 6.75 19.07 4.17 C 19.09 3.38 18.47 2.72 17.68 2.7 C 17.67 2.7 17.65 2.7 17.64 2.7 C 16.87 2.7 16.23 3.31 16.21 4.09 C 16.13 6.62 16.12 8.27 15.73 12.34 C 15.35 16.3 14.12 17.58 13.94 14.11 C 13.56 6.66 13.08 3.14 12.43 1.02 C 12.2 0.27 11.39 -0.16 10.64 0.07 C 9.88 0.3 9.46 1.1 9.69 1.86 C 10.19 3.49 11.37 8.44 11.09 14.7 C 10.99 16.92 10.06 17.14 9.49 14.85 C 7.85 8.23 5.67 5.07 5.57 4.94 C 5.12 4.29 4.23 4.14 3.58 4.59 C 2.94 5.04 2.78 5.93 3.23 6.58 C 3.25 6.61 5.22 9.5 6.72 15.54 C 7.25 17.69 7.89 19.91 8.9 21.52 C 9.53 22.53 8.61 23.42 7.94 22.5 C 7.15 21.44 6.5 20.25 5.66 18.47 C 4.47 15.94 3.15 14.61 2.1 14.13 C 0.37 13.35 -0.74 15.02 0.62 16.28 C 1.55 17.15 2.53 18.12 3.09 19.52 C 4.59 23.29 6.48 25.92 8.9 27.13 C 10.67 28.01 11.33 28.85 11.49 31.24 C 11.49 31.31 11.5 62.31 11.5 62.31 C 11.5 63.58 12.53 64.62 13.81 64.62 C 15.09 64.62 16.12 63.59 16.12 62.31 C 16.12 62.31 16.12 34.1 16.12 29.73 C 16.12 28.25 16.57 27.23 17.92 26.15 C 20.67 23.95 23.24 19.16 23.73 9.16 C 23.75 8.37 23.14 7.69 22.35 7.66 Z" fill="#030000"/><path d=" M 62.53 60.84 C 62.53 60.84 59.76 60.84 58.84 60.84 C 58.33 60.84 57.62 60.65 57.53 59.42 C 56.99 51.49 55.4 41.91 48.6 34.9 C 47.04 33.29 46.87 32.56 46.87 31.39 C 46.87 30.28 47.59 29.64 48.98 29.6 C 51.9 29.53 55.52 30.01 59.59 31.66 C 61.79 32.55 62.89 29.93 60.91 28.98 L 60.91 28.98 C 57.22 27.29 53.24 26.6 46.7 26.05 C 45.3 25.93 44.84 24.45 46.15 23.75 C 47.83 22.86 48.99 21.33 48.92 19.14 C 48.89 18.12 48.47 16.89 47.91 16.14 C 46.18 13.83 42.23 13.58 40.27 16.14 C 39.7 16.88 39.29 18.12 39.26 19.14 C 39.19 21.33 40.34 22.88 42.03 23.75 C 43.34 24.44 42.89 25.93 41.48 26.05 C 34.94 26.6 30.96 27.3 27.27 28.98 L 27.27 28.98 C 25.29 29.93 26.39 32.55 28.59 31.66 C 32.66 30.01 36.28 29.53 39.2 29.6 C 40.59 29.63 41.31 30.27 41.31 31.39 C 41.31 32.56 41.14 33.3 39.58 34.9 C 32.77 41.91 31.19 51.49 30.65 59.42 C 30.57 60.64 29.85 60.84 29.34 60.84 C 28.42 60.84 25.65 60.84 25.65 60.84 C 24.68 60.84 23.9 61.62 23.9 62.59 C 23.9 63.56 24.68 64.34 25.65 64.34 L 62.52 64.34 C 63.49 64.34 64.27 63.56 64.27 62.59 C 64.28 61.62 63.49 60.84 62.53 60.84 Z M 52.99 60.84 L 35.2 60.84 C 34.59 60.84 34.24 60.36 34.28 59.71 C 35 49.37 37.41 42.83 41.98 38.26 C 43.45 36.79 44.75 36.79 46.19 38.26 C 50.76 42.84 53.25 49.37 53.89 59.71 C 53.94 60.36 53.6 60.84 52.99 60.84 Z"/></svg>