<svg version="1.1" width="53.21" height="58.55" viewBox="0 0 53.21 58.55" xmlns="http://www.w3.org/2000/svg" xmlns:xlink="http://www.w3.org/1999/xlink" overflow="visible"><defs></defs><path d=" M 19.55 15.79 C 19.55 18.36 17.46 20.45 14.89 20.45 C 12.32 20.45 10.23 18.37 10.23 15.79 C 10.23 13.22 12.31 11.13 14.89 11.13 C 17.46 11.13 19.55 13.21 19.55 15.79 Z" fill-rule="evenodd" clip-rule="evenodd"/><g><path d=" M 23.1 11.42 C 21.72 11.42 20.06 10.85 20.06 8.16 L 20.06 5.92 C 20.06 4.05 18.54 2.53 16.67 2.53 L 13.11 2.53 C 11.24 2.53 9.72 4.05 9.72 5.92 L 9.72 8.16 C 9.72 10.86 8.07 11.42 6.68 11.42 C 5.98 11.42 5.42 10.86 5.42 10.16 C 5.42 9.46 5.98 8.9 6.68 8.9 C 6.98 8.9 7.19 8.7 7.19 8.24 L 7.19 5.92 C 7.19 2.66 9.85 0 13.11 0 L 16.67 0 C 19.93 0 22.59 2.66 22.59 5.92 L 22.59 8.36 C 22.59 8.77 22.81 8.89 23.1 8.89 C 23.8 8.89 24.36 9.45 24.36 10.15 C 24.36 10.85 23.8 11.42 23.1 11.42 Z"/></g><path d=" M 2.03 29.78 C 4.55 28.32 8.48 27.75 10.73 28.4 C 12.21 28.83 12.74 29.88 12.87 32.25 C 13.06 35.71 13.05 36.45 11.34 38.91 C 10.03 40.8 8.31 42.87 7.13 46.5 C 6.26 49.2 5.94 53.81 6.23 57.2 C 6.38 58.98 9.24 59.15 9.2 56.86 C 9.18 55.12 9.08 51.7 9.66 48.67 C 10.07 46.52 11.68 43.18 13.3 42.21 C 14.56 41.45 16.12 41.94 16.02 43.41 C 15.91 44.96 15.89 47 15.72 48.95 C 15.38 52.91 18.1 55.12 22.79 58.15 C 25.02 59.59 26.37 56.88 24.55 55.83 C 21.65 53.89 18.53 52.38 18.74 48.5 C 18.85 46.44 19 44.99 19.19 42.88 C 19.5 39.46 18.92 36.9 18.17 30.61 C 18 29.15 18.31 28.36 20.67 28.79 C 22.84 29.18 25.29 29.39 28.25 29.36 C 30.35 29.33 30.47 26.71 28.23 26.67 C 24.04 26.6 21.72 25.99 18.02 25.17 C 16.95 24.93 16.77 24.49 16.59 23.96 C 16.36 23.29 15.69 22.91 14.76 22.93 C 13.66 22.96 13.05 23.58 12.94 24.39 C 12.86 25 12.35 25.37 11.6 25.34 C 8.31 25.22 3.6 25.69 0.71 27.65 C -0.9 28.72 0.48 30.68 2.03 29.78 Z" fill-rule="evenodd" clip-rule="evenodd"/><path d=" M 39.63 32.6 L 35.82 34.13 C 35.14 34.4 34.36 34.07 34.09 33.39 C 33.82 32.71 34.15 31.93 34.83 31.66 L 38.64 30.13 C 39.18 29.91 40.39 30.33 40.87 30.51 C 40.99 30.56 41.05 30.64 41.01 30.73 C 40.8 31.15 40.19 32.38 39.63 32.6 Z"/><path d=" M 52.61 32.88 C 51.9 32.29 48.44 29.7 47.19 25.69 C 45.9 21.57 49.22 21.42 49.39 14.6 C 49.51 9.9 48.18 6.96 42.02 4.36 C 41.26 4.04 40.24 4.21 39.92 4.98 C 39.59 5.75 40.07 6.81 40.84 7.14 C 45.86 9.29 46.34 11.7 46.22 14.86 C 46.11 17.69 44.81 17.08 44.43 16.08 C 42.65 11.29 40.71 8.84 35.04 6.29 C 34.27 5.95 33.29 6.23 32.95 6.99 C 32.61 7.75 33.03 8.71 33.8 9.05 C 39.4 11.57 40.41 14.03 41.61 17.29 C 42.86 20.68 40.46 21.44 38.5 20.09 C 36.15 18.47 34.46 18.26 31.92 17.91 C 31.09 17.8 30.34 18.39 30.24 19.21 C 30.13 20.04 30.72 20.75 31.53 20.91 C 35.09 21.63 35.55 22.11 37.57 23.4 C 40.43 25.22 41.73 23.73 43.74 27.29 C 45.7 30.76 47.51 33.62 50.25 35.34 C 50.87 35.73 52.22 36.13 52.78 35.49 C 53.48 34.68 53.25 33.41 52.61 32.88 Z" fill="#030000"/></svg>