<svg version="1.1" width="58.44" height="62.8" viewBox="0 0 58.44 62.8" xmlns="http://www.w3.org/2000/svg" xmlns:xlink="http://www.w3.org/1999/xlink" overflow="visible"><defs></defs><g><path d=" M 9.26 56.54 L 9.23 56.54 C 9.08 56.54 8.92 56.54 8.77 56.53 C 8.42 56.51 8.15 56.21 8.17 55.86 C 8.19 55.51 8.47 55.24 8.83 55.26 C 8.96 55.27 9.09 55.27 9.23 55.27 C 9.58 55.27 9.88 55.55 9.88 55.9 C 9.88 56.26 9.62 56.54 9.26 56.54 Z M 11.38 56.27 C 11.1 56.27 10.84 56.08 10.77 55.79 C 10.68 55.45 10.89 55.11 11.23 55.02 C 11.36 54.99 11.48 54.95 11.61 54.91 C 11.94 54.81 12.3 54.99 12.4 55.33 C 12.5 55.66 12.32 56.02 11.98 56.13 C 11.84 56.17 11.69 56.22 11.54 56.26 C 11.49 56.26 11.44 56.27 11.38 56.27 Z M 6.7 56.16 C 6.64 56.16 6.57 56.15 6.51 56.13 C 6.36 56.08 6.22 56.04 6.07 55.98 C 5.74 55.86 5.57 55.5 5.69 55.17 C 5.81 54.84 6.17 54.67 6.5 54.79 C 6.62 54.83 6.75 54.88 6.88 54.92 C 7.21 55.02 7.4 55.38 7.3 55.71 C 7.22 55.98 6.97 56.16 6.7 56.16 Z M 13.74 55.26 C 13.53 55.26 13.32 55.15 13.2 54.96 C 13.02 54.66 13.11 54.27 13.41 54.09 C 13.52 54.02 13.63 53.95 13.74 53.87 C 14.03 53.67 14.42 53.74 14.62 54.03 C 14.82 54.32 14.75 54.71 14.46 54.91 C 14.33 55 14.21 55.08 14.07 55.16 C 13.97 55.23 13.85 55.26 13.74 55.26 Z M 4.39 55.04 C 4.27 55.04 4.14 55 4.03 54.93 C 3.9 54.84 3.78 54.75 3.66 54.66 C 3.38 54.45 3.33 54.05 3.54 53.77 C 3.75 53.49 4.15 53.44 4.43 53.65 C 4.54 53.73 4.64 53.81 4.75 53.88 C 5.04 54.08 5.12 54.47 4.92 54.76 C 4.79 54.95 4.59 55.04 4.39 55.04 Z M 15.69 53.61 C 15.54 53.61 15.39 53.56 15.27 53.45 C 15.01 53.22 14.98 52.82 15.21 52.55 C 15.3 52.45 15.38 52.35 15.46 52.24 C 15.68 51.97 16.08 51.92 16.35 52.14 C 16.62 52.36 16.67 52.76 16.45 53.03 C 16.35 53.15 16.26 53.27 16.16 53.38 C 16.05 53.53 15.87 53.61 15.69 53.61 Z M 2.51 53.3 C 2.32 53.3 2.14 53.22 2.02 53.06 C 1.92 52.94 1.83 52.82 1.74 52.69 C 1.53 52.4 1.6 52.01 1.88 51.8 C 2.16 51.59 2.56 51.66 2.77 51.94 C 2.85 52.05 2.93 52.15 3.01 52.26 C 3.23 52.53 3.18 52.93 2.91 53.15 C 2.79 53.26 2.65 53.3 2.51 53.3 Z M 17.08 51.45 C 16.99 51.45 16.9 51.43 16.82 51.39 C 16.5 51.25 16.36 50.87 16.5 50.55 C 16.55 50.43 16.61 50.31 16.65 50.18 C 16.78 49.85 17.15 49.69 17.47 49.82 C 17.8 49.95 17.96 50.32 17.83 50.64 C 17.77 50.78 17.71 50.93 17.65 51.07 C 17.55 51.31 17.32 51.45 17.08 51.45 Z M 1.23 51.09 C 0.98 51.09 0.74 50.94 0.64 50.69 C 0.58 50.55 0.53 50.4 0.48 50.26 C 0.37 49.93 0.55 49.57 0.88 49.46 C 1.21 49.35 1.57 49.53 1.68 49.86 C 1.72 49.99 1.77 50.11 1.82 50.23 C 1.95 50.56 1.79 50.92 1.46 51.05 C 1.39 51.07 1.31 51.09 1.23 51.09 Z M 17.77 48.98 C 17.74 48.98 17.72 48.98 17.69 48.98 C 17.34 48.94 17.09 48.62 17.14 48.27 C 17.16 48.14 17.17 48.01 17.18 47.88 C 17.21 47.53 17.52 47.26 17.86 47.29 C 18.21 47.32 18.47 47.62 18.45 47.97 C 18.44 48.12 18.43 48.28 18.41 48.43 C 18.36 48.75 18.08 48.98 17.77 48.98 Z M 0.66 48.59 C 0.33 48.59 0.05 48.34 0.03 48 C 0.01 47.85 0 47.7 0 47.55 C -0.01 47.2 0.27 46.91 0.62 46.9 C 0.62 46.9 0.63 46.9 0.64 46.9 C 0.98 46.9 1.27 47.17 1.27 47.52 C 1.27 47.65 1.28 47.78 1.29 47.92 C 1.32 48.27 1.05 48.57 0.71 48.6 C 0.69 48.59 0.67 48.59 0.66 48.59 Z M 17.69 46.42 C 17.39 46.42 17.12 46.21 17.07 45.9 C 17.05 45.77 17.02 45.64 16.99 45.51 C 16.91 45.17 17.12 44.83 17.46 44.75 C 17.8 44.67 18.14 44.88 18.22 45.22 C 18.26 45.37 18.29 45.52 18.31 45.67 C 18.37 46.02 18.14 46.35 17.8 46.41 C 17.77 46.42 17.73 46.42 17.69 46.42 Z M 0.84 46.04 C 0.79 46.04 0.75 46.04 0.7 46.02 C 0.36 45.94 0.14 45.6 0.22 45.26 C 0.25 45.11 0.29 44.96 0.33 44.82 C 0.42 44.48 0.77 44.28 1.11 44.38 C 1.45 44.47 1.64 44.82 1.55 45.16 C 1.51 45.29 1.48 45.42 1.45 45.55 C 1.39 45.84 1.14 46.04 0.84 46.04 Z M 16.87 44 C 16.64 44 16.42 43.87 16.3 43.66 C 16.24 43.54 16.18 43.43 16.11 43.31 C 15.93 43.01 16.04 42.62 16.34 42.44 C 16.64 42.26 17.03 42.36 17.21 42.67 C 17.29 42.8 17.36 42.94 17.43 43.07 C 17.59 43.38 17.47 43.76 17.16 43.92 C 17.07 43.97 16.97 44 16.87 44 Z M 1.78 43.65 C 1.67 43.65 1.57 43.62 1.46 43.57 C 1.16 43.39 1.05 43 1.23 42.7 C 1.31 42.57 1.39 42.44 1.47 42.31 C 1.66 42.02 2.05 41.93 2.35 42.12 C 2.64 42.31 2.73 42.7 2.54 43 C 2.47 43.11 2.4 43.22 2.33 43.34 C 2.21 43.54 2 43.65 1.78 43.65 Z M 15.37 41.92 C 15.2 41.92 15.04 41.86 14.92 41.73 C 14.83 41.64 14.73 41.54 14.63 41.45 C 14.37 41.21 14.36 40.81 14.59 40.55 C 14.83 40.29 15.23 40.28 15.49 40.51 C 15.6 40.61 15.71 40.72 15.82 40.83 C 16.06 41.08 16.06 41.48 15.81 41.73 C 15.69 41.86 15.53 41.92 15.37 41.92 Z M 3.38 41.65 C 3.21 41.65 3.04 41.58 2.92 41.45 C 2.68 41.19 2.69 40.79 2.95 40.55 C 3.06 40.45 3.18 40.34 3.3 40.24 C 3.57 40.01 3.97 40.05 4.19 40.32 C 4.41 40.59 4.38 40.99 4.11 41.21 C 4.01 41.29 3.91 41.38 3.81 41.47 C 3.69 41.59 3.53 41.65 3.38 41.65 Z M 13.32 40.38 C 13.22 40.38 13.11 40.36 13.02 40.3 C 12.9 40.24 12.79 40.18 12.67 40.12 C 12.35 39.97 12.22 39.59 12.37 39.27 C 12.52 38.95 12.9 38.82 13.22 38.97 C 13.36 39.04 13.5 39.11 13.63 39.18 C 13.94 39.35 14.05 39.73 13.88 40.04 C 13.77 40.26 13.55 40.38 13.32 40.38 Z M 5.49 40.2 C 5.25 40.2 5.03 40.07 4.92 39.84 C 4.77 39.53 4.9 39.15 5.21 38.99 C 5.35 38.92 5.49 38.86 5.63 38.8 C 5.95 38.66 6.32 38.81 6.46 39.13 C 6.6 39.45 6.45 39.82 6.13 39.96 C 6 40.02 5.89 40.08 5.76 40.14 C 5.68 40.18 5.58 40.2 5.49 40.2 Z M 10.92 39.51 C 10.88 39.51 10.84 39.51 10.8 39.5 C 10.67 39.47 10.54 39.45 10.41 39.43 C 10.06 39.38 9.82 39.06 9.88 38.71 C 9.93 38.36 10.25 38.12 10.6 38.18 C 10.75 38.2 10.9 38.23 11.05 38.26 C 11.39 38.33 11.62 38.66 11.55 39.01 C 11.48 39.3 11.21 39.51 10.92 39.51 Z M 7.93 39.44 C 7.62 39.44 7.35 39.21 7.3 38.9 C 7.25 38.55 7.48 38.23 7.83 38.18 C 7.98 38.16 8.13 38.14 8.29 38.12 C 8.64 38.08 8.95 38.34 8.98 38.69 C 9.01 39.04 8.76 39.35 8.41 39.38 C 8.28 39.39 8.15 39.41 8.02 39.43 C 8 39.44 7.96 39.44 7.93 39.44 Z"/><path d=" M 9.23 52.52 C 6.35 52.52 4.01 50.18 4.01 47.3 C 4.01 44.42 6.35 42.08 9.23 42.08 C 12.11 42.08 14.44 44.42 14.44 47.3 C 14.45 50.18 12.11 52.52 9.23 52.52 Z" fill-rule="evenodd" clip-rule="evenodd"/></g><path d=" M 38.36 16.1 C 38.36 18.05 36.78 19.64 34.82 19.64 C 32.87 19.64 31.28 18.06 31.28 16.1 C 31.28 14.15 32.86 12.56 34.82 12.56 C 36.78 12.56 38.36 14.14 38.36 16.1 Z" fill-rule="evenodd" clip-rule="evenodd"/><path d=" M 45.11 9.23 C 46.25 6.17 44.69 2.75 41.63 1.61 L 38.3 0.37 C 35.24 -0.77 31.82 0.79 30.68 3.85 L 29.52 6.95 C 29.36 7.38 29.09 7.49 28.81 7.39 C 28.16 7.15 27.43 7.48 27.19 8.13 C 26.99 8.67 27.18 9.26 27.62 9.59 C 27.9 9.8 28 10.07 27.88 10.37 C 27.36 11.62 26.44 13.46 25.18 14.73 C 24.98 14.93 24.98 15.24 25.18 15.44 C 25.28 15.54 25.41 15.59 25.53 15.59 C 25.66 15.59 25.79 15.54 25.88 15.44 C 27.3 14.02 28.29 11.99 28.84 10.66 C 29.04 10.17 29.37 10.06 29.8 9.96 C 30.83 9.73 33.5 10.13 35.92 11.1 C 39.68 12.6 41.17 13.82 41.99 14.68 C 42.36 15.07 42.42 15.36 42.31 15.99 C 42.08 17.29 41.98 18.99 42.47 20.61 C 42.54 20.83 42.73 20.96 42.95 20.96 C 43 20.96 43.05 20.95 43.1 20.94 C 43.36 20.86 43.51 20.58 43.43 20.32 C 42.96 18.79 43.12 17.11 43.36 15.89 C 43.44 15.5 43.64 15.59 43.9 15.56 C 44.36 15.51 44.77 15.22 44.94 14.76 C 45.18 14.11 44.85 13.38 44.2 13.14 C 43.93 13.04 43.77 12.84 43.91 12.46 L 45.11 9.23 Z M 32.15 7.15 C 32.38 6.55 33.05 4.73 33.05 4.73 C 33.7 2.98 35.66 2.08 37.42 2.74 L 40.75 3.98 C 42.5 4.63 43.4 6.59 42.74 8.35 C 42.74 8.35 41.99 10.32 41.76 10.98 C 41.62 11.38 41.4 11.52 40.99 11.29 C 39.84 10.64 38.4 9.93 36.67 9.24 C 35.14 8.63 33.74 8.23 32.52 7.98 C 32.04 7.87 31.99 7.56 32.15 7.15 Z"/><path d=" M 55.88 26.98 C 48.91 27.33 44.84 26.56 38.91 25.24 C 37.8 24.99 37.28 24.29 37.06 23.67 C 36.75 22.81 35.9 22.31 34.7 22.34 C 33.28 22.38 32.47 23.18 32.35 24.23 C 32.29 24.73 31.92 25.39 30.62 25.46 C 26.25 25.72 16.94 27.5 12.91 29.56 C 9.7 31.2 11.6 34.16 14.2 33.2 C 18.21 31.72 23.97 30.03 27.55 29.84 C 30.27 29.7 31.13 30.02 31.13 34.1 C 31.13 38.36 27.06 40.21 24.79 47.22 C 23.66 50.71 23.25 56.67 23.63 61.06 C 23.83 63.36 27.52 63.58 27.48 60.62 C 27.45 58.36 27.32 53.95 28.07 50.03 C 28.6 47.24 30.69 42.93 32.77 41.68 C 34.4 40.7 36.42 41.33 36.29 43.23 C 36.14 45.23 36.12 47.88 35.9 50.39 C 35.46 55.51 38.95 58.06 45.02 61.98 C 47.9 63.84 49.65 60.34 47.29 58.98 C 43.54 56.47 39.53 54.83 39.81 49.81 C 39.96 47.14 40.14 45.27 40.4 42.54 C 40.91 37.04 39.65 36.03 39.08 32.32 C 38.79 30.43 39.26 29.41 42.32 29.96 C 46.06 30.64 50.43 30.92 56.2 30.52 C 59.56 30.25 58.86 26.83 55.88 26.98 Z" fill-rule="evenodd" clip-rule="evenodd"/></svg>