<svg version="1.1" width="49.5" height="49.76" viewBox="0 0 49.5 49.76" xmlns="http://www.w3.org/2000/svg" xmlns:xlink="http://www.w3.org/1999/xlink" overflow="visible"><defs></defs><path d=" M 47 44.76 C 47 44.76 27.19 44.76 20.44 44.76 C 16.42 44.76 16.06 43.33 16.06 40.47 C 16.07 31.04 16.41 29.03 14.02 21.88 C 11.75 15.09 9.76 10.06 15.31 8.46 C 19.23 7.33 23.58 9.6 26.15 11.53 C 27.86 12.81 28.03 14.85 28.06 15.8 C 28.25 21.43 27.14 28.1 29.77 37.69 C 30.8 41.45 35.27 40.55 34.43 36.63 C 33.97 34.46 33.21 30.77 33.22 28.18 C 33.22 27.2 33.6 26.58 34.34 26.22 C 35.51 25.66 36.44 24.47 36.5 23.09 C 36.54 21.94 36.1 21.07 35.13 20.23 C 34.43 19.62 34.08 19.47 33.89 18.57 C 33.73 17.8 33.96 15.11 34.07 14.35 C 34.38 12.12 34.81 11.1 36.07 11.06 C 37.16 11.03 37.05 11.85 40.19 13.07 C 41.87 13.72 43.79 13.52 45.82 12.56 C 48.98 11.08 50.14 7.37 49.13 4.33 C 48.24 1.65 44.1 -1.38 39.72 0.7 C 35.83 2.55 36.15 6.3 33.82 7.27 C 30.6 8.61 25.31 2.17 16.3 2.05 C 8.93 1.95 3.83 7.18 5 14.34 C 5.64 18.26 7.9 21.99 9.53 27.18 C 10.68 30.83 11.12 33.58 10.84 40.95 C 10.76 43.12 10.46 44.76 7.03 44.76 C 5.9 44.76 2.5 44.76 2.5 44.76 C 1.12 44.76 8.88178e-16 45.88 8.88178e-16 47.26 C 8.88178e-16 48.64 1.12 49.76 2.5 49.76 L 47 49.76 C 48.38 49.76 49.5 48.64 49.5 47.26 C 49.5 45.87 48.38 44.76 47 44.76 Z"/></svg>