<svg version="1.1" width="58.77" height="58.35" viewBox="0 0 58.77 58.35" xmlns="http://www.w3.org/2000/svg" xmlns:xlink="http://www.w3.org/1999/xlink" overflow="visible"><defs></defs><g><g><path d=" M 8.22 57.09 L 8.22 51.78 C 8.22 50.16 10.52 50.16 10.52 51.78 L 10.52 57.09 C 10.52 58.77 8.22 58.77 8.22 57.09 Z" fill="#030000"/></g></g><g><g><path d=" M 16.68 53.44 L 12.23 48.99 C 11.02 47.77 12.65 46.13 13.86 47.36 L 18.31 51.8 C 19.65 53.13 18.01 54.78 16.68 53.44 Z" fill="#030000"/></g></g><g><g><path d=" M 0.44 51.81 L 4.92 47.33 C 6.15 46.08 7.79 47.71 6.55 48.96 L 2.07 53.44 C 0.83 54.66 -0.79 53.03 0.44 51.81 Z" fill="#030000"/></g></g><g><path d=" M 15.15 26.92 C 14.91 26.92 14.66 26.86 14.44 26.74 C 13.71 26.35 13.44 25.44 13.84 24.71 C 14.24 23.97 14.44 23.16 14.44 22.31 C 14.44 20.22 13.19 18.37 11.24 17.59 C 10.56 17.32 9.91 17.05 9.21 16.75 C 8.39 16.4 7.49 16.02 6.37 15.58 C 3.28 14.35 1.28 11.41 1.28 8.08 C 1.29 3.62 4.91 0 9.36 0 C 13.81 0 17.44 3.62 17.44 8.08 C 17.44 9.05 17.27 10 16.93 10.9 C 16.64 11.68 15.78 12.07 15 11.78 C 14.22 11.49 13.83 10.63 14.12 9.85 C 14.33 9.29 14.44 8.69 14.44 8.08 C 14.44 5.28 12.16 3.01 9.36 3.01 C 6.56 3.01 4.29 5.29 4.29 8.09 C 4.29 10.18 5.55 12.03 7.49 12.81 C 8.63 13.26 9.54 13.65 10.38 14 C 11.06 14.29 11.69 14.55 12.35 14.82 C 15.44 16.05 17.43 19 17.43 22.32 C 17.43 23.66 17.1 24.98 16.46 26.15 C 16.2 26.64 15.68 26.92 15.15 26.92 Z" fill="#030000"/></g><g><path d=" M 9.36 44.61 C 4.91 44.61 1.29 40.99 1.29 36.54 C 1.29 34.97 1.74 33.45 2.59 32.14 C 3.04 31.45 3.97 31.25 4.67 31.7 C 5.37 32.15 5.56 33.08 5.11 33.78 C 4.58 34.6 4.29 35.56 4.29 36.55 C 4.29 39.35 6.57 41.62 9.36 41.62 C 12.16 41.62 14.44 39.34 14.44 36.55 C 14.44 34.46 13.19 32.61 11.24 31.83 C 10.55 31.56 9.9 31.28 9.2 30.98 C 8.38 30.63 7.49 30.26 6.38 29.82 C 3.29 28.59 1.29 25.65 1.29 22.32 C 1.29 21.01 1.61 19.72 2.21 18.57 C 2.59 17.84 3.51 17.56 4.23 17.94 C 4.96 18.32 5.25 19.23 4.86 19.97 C 4.48 20.7 4.28 21.49 4.28 22.32 C 4.28 24.41 5.54 26.26 7.48 27.03 C 8.61 27.48 9.52 27.87 10.36 28.22 C 11.04 28.51 11.68 28.78 12.35 29.04 C 15.44 30.27 17.44 33.22 17.44 36.54 C 17.44 40.99 13.81 44.61 9.36 44.61 Z" fill="#030000"/></g><path d=" M 46.87 50.18 C 46.49 48.41 45.32 44.84 45.5 39.31 C 45.53 38.51 45.82 38.03 46.41 37.71 C 47.65 37.05 48.06 36.31 48.16 35.16 C 48.23 34.32 47.83 33.52 47.05 32.83 C 46.48 32.33 46.19 32.21 46.04 31.48 C 45.91 30.85 46.12 27.85 46.21 27.23 C 46.47 25.42 46.81 24.58 47.84 24.55 C 48.73 24.52 48.63 25.19 51.19 26.19 C 52.55 26.72 54.12 26.56 55.77 25.78 C 58.34 24.58 59.29 21.56 58.46 19.08 C 57.73 16.9 54.37 14.43 50.8 16.13 C 47.63 17.64 47.9 20.69 46 21.48 C 43.37 22.57 39.71 17.33 31.85 17.33 C 26.01 17.33 21.58 21.4 22.54 27.23 C 23.06 30.42 24.9 33.46 26.23 37.68 C 27.33 41.17 27.43 47.17 27.23 50.84 C 27.03 54.67 31.45 55.07 31.62 51.28 C 31.92 44.78 32.08 39.96 29.88 33.37 C 28.03 27.84 26.24 24.31 30.59 22.5 C 33.55 21.27 37.67 23.38 39.76 24.95 C 41.15 25.99 41.29 27.65 41.32 28.43 C 41.48 33.02 40.93 43.25 43.07 51.05 C 43.92 54.1 47.56 53.37 46.87 50.18 Z"/></svg>