<svg width="53.71" height="58.09" viewBox="0 0 53.71 58.09" xmlns="http://www.w3.org/2000/svg" xmlns:xlink="http://www.w3.org/1999/xlink" overflow="visible"><defs></defs><path d="M7.18 12.17C9.31 13.16 10.33 12.7 14.07 11.92 14.13 11.91 14.25 11.87 14.17 11.71 12.82 9.19 12.23 7.05 10.45 6 8.31 4.76 6.21 5.67 5.33 7.46 4.35 9.48 5.31 11.3 7.18 12.17Z" fill-rule="evenodd" clip-rule="evenodd"/><path d="M9.81 23.92C9.86 23.88 9.95 23.8 9.8 23.69 7.45 22.07 5.94 20.43 3.87 20.31 1.41 20.19-0.04 21.95 0 23.94 0.05 26.19 1.73 27.37 3.8 27.29 6.15 27.2 6.84 26.32 9.81 23.92Z" fill-rule="evenodd" clip-rule="evenodd"/><path d="M6.33 50.29C8.23 48.8 10.81 49.08 14.14 48.7 14.35 48.68 14.33 48.83 14.32 48.9 13.57 53.29 13.63 54.6 11.64 56.49 9.89 58.15 7.5 58.41 5.73 56.48 4.15 54.75 4.07 52.08 6.33 50.29Z" fill-rule="evenodd" clip-rule="evenodd"/><path d="M51 57.44C50.01 56.51 47.99 54.47 43.97 51.68 43.47 51.33 42.45 50.88 41.27 51.75 39.5 53.07 37.01 55.58 32.99 56.49 30.91 56.96 29.88 54.37 32.35 53.73 33.69 53.38 34.78 53.32 36.6 51.83 39.33 49.6 37.86 47.2 35.1 46.12 30.7 44.39 25.68 46.68 25.62 46.7 23.12 47.62 22.33 44.78 24.38 44.05 25.53 43.63 30.32 41.48 36.15 43.39 37.33 43.78 37.89 42.87 36.59 41.31 33.5 37.61 28.48 39.55 28.26 39.62 25.9 40.34 25.18 37.66 27.17 36.89 29.89 35.85 35.32 35.17 38.87 39.48 41.98 43.26 40.97 45.62 44.41 48.22 48.27 51.14 50.78 53.15 53.01 55.35 54.76 57.05 52.84 59.17 51 57.44Z" fill="#030000"/><path d="M45.63 30.7C46.55 30.7 46.89 30.93 46.89 32.01 46.89 33.75 49.32 33.75 49.32 32.01 49.32 31.12 49.31 30.55 50.05 30.55 50.48 30.55 50.68 30.33 50.68 29.48 50.68 28.7 50.52 28.46 50.12 28.46 49.7 28.46 49.32 28.05 49.32 26.95 49.32 25.23 46.89 25.23 46.89 26.95 46.89 28.07 46.7 28.27 45.64 28.27L45.18 28.27C44.17 28.27 43.58 27.11 44.19 26.3 47.86 21.38 48.98 15.67 47.09 10.57 44.63 3.95 37.72 0 28.61 0 27.9 0 27.33 0.57 27.33 1.28 27.33 1.99 27.9 2.56 28.61 2.56 36.61 2.56 42.62 5.89 44.68 11.47 45.68 14.16 45.65 17.08 44.7 19.93 44.29 21.15 42.49 20.99 42.31 19.72 42.02 17.7 41.34 15.82 40.28 14.2 37.87 10.54 33.72 8.53 28.61 8.53 27.9 8.53 27.33 9.1 27.33 9.81 27.33 10.52 27.9 11.09 28.61 11.09 32.9 11.09 36.2 12.65 38.15 15.61 39 16.9 39.55 18.41 39.79 20.05 39.97 21.26 38.47 21.94 37.64 21.03 35.4 18.59 32.18 17.05 28.61 17.05 27.9 17.05 27.33 17.62 27.33 18.33 27.33 19.04 27.9 19.61 28.61 19.61 33.05 19.61 36.8 22.6 37.96 26.67 38.19 27.47 37.6 28.29 36.77 28.29 35.71 28.29 35.53 28.08 35.53 26.97 35.53 25.25 33.1 25.25 33.1 26.97 33.1 28.07 32.72 28.48 32.3 28.48 31.9 28.48 31.74 28.72 31.74 29.5 31.74 30.35 31.94 30.57 32.37 30.57 33.11 30.57 33.1 31.14 33.1 32.03 33.1 33.77 35.53 33.77 35.53 32.03 35.53 30.95 35.87 30.72 36.79 30.72 37.16 30.72 37.74 30.72 37.74 30.72 38.72 30.7 45.63 30.7 45.63 30.7Z" fill="#030000"/></svg>