<svg version="1.1" width="60.78" height="61.15" viewBox="0 0 60.78 61.15" xmlns="http://www.w3.org/2000/svg" xmlns:xlink="http://www.w3.org/1999/xlink" overflow="visible"><defs></defs><path d=" M 20.6 46.69 C 20.24 47.64 19.26 48.55 18.42 48.29 C 18.15 48.21 17.64 48.02 17.87 47.41 C 18.24 46.43 19.34 43.48 19.34 43.48 C 20.19 41.2 16.94 39.98 16.09 42.26 C 16.09 42.26 14.99 45.2 14.63 46.17 C 14.46 46.63 14.21 46.93 13.46 46.65 C 13.21 46.56 12.71 46.37 12.46 46.27 C 11.81 46.03 11.8 45.67 11.97 45.22 C 12.19 44.65 12.82 42.95 12.82 42.95 C 13.75 40.48 10.49 39.26 9.57 41.73 C 9.57 41.73 7.28 47.91 5.94 51.43 C 5.21 53.34 4.06 52.65 3.8 51.72 C 3.38 50.17 3.39 48.25 4.25 45.93 C 5.86 41.61 11.55 28.49 13.65 24.02 C 14.34 22.55 14.98 20.38 13.77 16.43 C 12.63 12.73 10.61 7.07 9.13 4.19 C 6.25 -1.37 -1.25 1.5 0.18 7.53 C 1 10.96 1.28 12.52 2.66 16.2 C 4.29 20.53 5.32 22.67 7.01 24.25 C 8.28 25.44 8.47 27.15 7.68 29.09 C 6.58 31.83 1.98 42.19 1.03 44.75 C -3.05 55.7 6.39 59.9 7.25 60.36 C 10.42 62.05 12.83 60.89 14.02 57.71 C 14.02 57.71 14.09 57.54 14.76 55.74 C 15.13 54.74 15.98 54.91 16.42 55.07 C 18.23 55.75 20.17 54.8 20.93 53.02 C 21.35 52.03 21.11 51.39 22.45 50.08 C 23.06 49.49 23.55 48.77 23.86 47.92 C 24.74 45.53 21.48 44.31 20.6 46.69 Z M 7.78 20.53 C 5.7 17.27 4.5 14.57 2.71 7.54 C 1.78 3.83 5.47 2.36 7.05 5.75 C 9.55 11.12 10.37 13.83 11.55 18.69 C 12.48 22.5 9.55 23.31 7.78 20.53 Z M 12.71 51.26 C 12.04 53.04 10.76 56.49 10.76 56.49 C 10.05 58.38 7.41 57.39 8.12 55.5 C 8.12 55.5 9.41 52.05 10.09 50.25 C 10.22 49.89 10.59 49.3 11.51 49.65 C 11.64 49.7 11.89 49.79 12.01 49.84 C 12.91 50.16 12.95 50.62 12.71 51.26 Z" fill="#030000"/><g><path d=" M 33.19 19.76 C 34.89 19.77 36.18 20.17 36.18 23 C 36.18 23.22 36.19 26.71 36.19 26.89 C 36.19 28.54 35.76 29.95 34.73 31.26 L 34.73 31.26 C 33.51 32.81 32.32 34.38 31.56 35.47 C 28.17 40.34 28.62 44.48 32.89 47.76 C 33.87 48.51 34.9 49.31 35.73 49.94 C 36.87 50.81 37.01 51.48 35.71 52.48 C 31.39 55.83 28.96 57.54 28.92 57.57 C 28.04 58.22 27.85 59.46 28.5 60.34 C 28.89 60.87 29.49 61.14 30.1 61.14 C 30.51 61.14 30.92 61.01 31.28 60.75 C 31.33 60.72 34.23 58.56 38.85 55.07 C 39.92 54.26 41.41 54.26 42.49 55.07 C 47.11 58.56 50.01 60.71 50.06 60.75 C 50.41 61.01 50.83 61.14 51.24 61.14 C 51.85 61.14 52.45 60.86 52.84 60.34 C 53.49 59.46 53.31 58.22 52.42 57.57 C 52.38 57.54 49.79 55.62 45.63 52.48 C 44.34 51.48 44.47 50.8 45.61 49.94 C 46.53 49.24 47.48 48.51 48.45 47.76 C 52.72 44.48 53.16 40.34 49.78 35.47 C 49.01 34.37 47.8 32.78 46.57 31.22 C 45.42 29.76 45.01 28.52 45.01 27.03 C 45.01 26.9 45 23.17 45.01 23.01 C 45.01 20.18 46.3 19.78 48 19.77 C 51.16 19.76 54.87 20.65 57.49 21.62 C 61 22.91 62.03 19.2 58.87 17.86 C 55.67 16.5 52.57 15.44 43.53 14.42 C 42.01 14.25 41.37 12.11 43.31 11.22 C 44.85 10.51 46.47 8.38 46.44 5.88 C 46.42 2.64 44.2 0.03 40.83 0 C 37.52 -0.02 34.75 2.19 34.75 5.63 C 34.75 8.31 36.04 10.23 38.06 11.39 C 39.7 12.33 39.08 14.29 37.66 14.41 C 28.59 15.18 25.52 16.5 22.32 17.85 C 19.16 19.19 20.19 22.9 23.7 21.61 C 26.32 20.64 30.03 19.75 33.19 19.76 Z M 46.54 37.73 C 48.72 40.86 48.59 42.66 46.05 44.61 C 44.82 45.55 43.64 46.46 42.5 47.33 C 41.42 48.15 39.94 48.15 38.86 47.33 C 37.72 46.46 36.54 45.55 35.31 44.61 C 32.77 42.66 32.64 40.86 34.82 37.73 C 35.7 36.46 37.26 34.45 38.71 32.62 C 39.71 31.36 41.63 31.36 42.63 32.62 C 44.09 34.45 45.65 36.46 46.54 37.73 Z"/></g></svg>