<svg width="33.18" height="55.11" viewBox="0 0 33.18 55.11" xmlns="http://www.w3.org/2000/svg" xmlns:xlink="http://www.w3.org/1999/xlink" overflow="visible"><defs></defs><g><g><path d="M17.09 55.11C9.21 55.11 3.08 49.71 1.09 41.03-0.11 35.75 0 20.08 0 19.42 0 10.38 0.87 0 7.62 0 9.87 0 12.04 1.22 14.1 3.12 15.83 4.72 18.44 7.13 21.35 7.43 28.87 8.21 33.18 12.71 33.18 19.78 33.18 20.43 33.12 35.74 31.93 40.91 29.83 50.06 24.56 55.11 17.09 55.11ZM7.62 4.16C5.95 4.16 4.16 8.17 4.16 19.44 4.16 19.61 4.05 35.31 5.15 40.11 6.71 46.91 11.17 50.96 17.1 50.96 22.59 50.96 26.22 47.27 27.89 39.99 28.97 35.27 29.03 19.94 29.03 19.78 29.03 14.83 26.38 12.14 20.93 11.57 16.64 11.13 13.29 8.03 11.29 6.18 10.2 5.17 8.83 4.16 7.62 4.16Z"/></g></g><g><path d="M21.95 31.67 11.65 31.67C8.79 31.67 8.79 27.51 11.65 27.51L21.95 27.51C24.83 27.51 24.83 31.67 21.95 31.67Z"/></g></svg>