<svg width="60.51" height="60.97" viewBox="0 0 60.51 60.97" xmlns="http://www.w3.org/2000/svg" xmlns:xlink="http://www.w3.org/1999/xlink" overflow="visible"><defs></defs><path d="M53.23 6.92C49.02 11.57 42.94 15.21 40.81 16.22 39.49 16.85 38 17.18 36.75 16.64 36.2 16.4 35.98 15.77 36.6 15.27 38.25 13.92 39.49 12.42 40.23 10.89 41.34 8.6 41.25 6.35 39.98 4.56 38.69 2.74 36.59 1.9 34.07 2.2 33.7 2.24 33.31 2.32 32.92 2.42 32.57 2.51 32.23 2.29 32.12 1.95 32.09 1.86 32.07 1.78 32.04 1.69 31.69 0.61 30.62-0.15 29.5 0.04 28.1 0.28 27.29 1.67 27.71 2.97 27.78 3.18 27.84 3.38 27.9 3.58 28.11 4.24 28.04 4.62 27.45 5.03 25.12 6.67 23.32 8.85 22.48 11.03 22.19 11.79 22.39 12.69 23.07 13.14 24.02 13.76 25.23 13.32 25.6 12.33 26.01 11.22 26.81 10.06 27.89 9.05 28.52 8.46 29 8.78 29.05 9.3 29.07 9.53 29.11 9.76 29.14 9.99 29.3 11.32 29.55 12.57 29.87 13.75 30.1 14.6 29.57 15.36 28.7 15.49 28.31 15.55 27.94 15.57 27.58 15.55 26.52 15.51 25.65 16.45 25.85 17.57 26 18.37 26.76 18.92 27.57 18.94 28.55 18.96 29.59 18.82 30.64 18.53 31.14 18.39 31.7 18.67 31.86 19.17 33.29 23.6 32.29 29.29 32.18 34.02 31.99 42.32 32.48 49.28 35.21 57.74 36.98 63.21 43.81 61.27 42.13 55.77 40.2 49.45 39.05 43.01 39.28 34.3 39.41 29.41 41.94 28.07 46.62 28.8 51.05 29.49 55.58 28.71 59.5 24.82 62 22.33 59.27 18.94 56.36 21.54 52.9 24.63 48.2 25.36 44.41 23.28 43.33 22.69 42.41 21.13 44.61 19.74 48.72 17.14 52.04 15.3 56.59 9.98 58.92 7.24 55.77 4.12 53.23 6.92ZM34.47 5.55C36.39 5.32 37.02 6.22 37.23 6.51 37.77 7.27 37.76 8.25 37.2 9.41 36.76 10.33 36 11.27 35.01 12.17 34.69 12.47 34.15 12.32 34.06 11.9 33.88 11.12 33.74 10.3 33.64 9.43 33.54 8.61 33.43 7.8 33.3 6.96 33.18 6.27 33.15 5.71 34.47 5.55Z" fill="#030000"/><g><path d="M2.78 29.06C2.18 28.54 6.69 24.27 8.19 20.1 8.46 19.36 9.28 18.97 10.02 19.24 10.76 19.51 11.14 20.33 10.88 21.07 9.08 26.06 3.45 29.64 2.78 29.06Z"/></g><g><path d="M24.35 29.06C24.94 28.54 20.44 24.27 18.94 20.1 18.67 19.36 17.86 18.97 17.11 19.24 16.37 19.51 15.99 20.33 16.25 21.07 18.05 26.06 23.67 29.64 24.35 29.06Z"/></g><g><path d="M13.55 45.07C12.85 45.07 12.29 44.5 12.29 43.81L12.29 5.57C12.29 4.87 12.86 4.31 13.55 4.31 14.25 4.31 14.81 4.87 14.81 5.57L14.81 43.8C14.81 44.5 14.24 45.07 13.55 45.07Z" fill="#030000"/></g><g><path d="M13.55 57.37C3.89 57.37 0 54.47 0 48.74 0 45.5 1.95 43.54 3.52 41.96 4.83 40.65 5.63 39.78 5.63 38.67 5.63 37.83 5.24 37.74 5.04 37.74 4.23 37.74 3.58 37.08 3.58 36.28 3.58 35.47 4.24 34.82 5.04 34.82 5.2 34.82 5.35 34.81 5.5 34.81 6.24 34.78 7.18 34.75 7.89 35.44 8.19 35.73 8.55 36.26 8.55 37.14L8.55 38.68C8.55 41.06 6.97 42.64 5.59 44.04 4.16 45.48 2.92 46.72 2.92 48.75 2.92 50.16 1.92 54.45 13.54 54.45 25.16 54.45 24.16 50.16 24.16 48.75 24.16 46.72 22.93 45.48 21.49 44.04 20.1 42.64 18.53 41.06 18.53 38.68L18.53 37.14C18.53 36.26 18.89 35.73 19.19 35.44 19.9 34.75 20.84 34.79 21.59 34.81 21.74 34.82 21.89 34.82 22.05 34.82 22.86 34.82 23.52 35.48 23.52 36.28 23.52 37.09 22.86 37.74 22.05 37.74 21.86 37.74 21.46 37.86 21.46 38.67 21.46 39.78 22.26 40.65 23.57 41.96 25.14 43.54 27.09 45.5 27.09 48.74 27.1 55.88 20.19 57.37 13.55 57.37Z" fill="#030000"/></g></svg>