<svg version="1.1" width="59.68" height="60.7" viewBox="0 0 59.68 60.7" xmlns="http://www.w3.org/2000/svg" xmlns:xlink="http://www.w3.org/1999/xlink" overflow="visible"><defs></defs><path d=" M 57.44 56.22 C 57.44 56.22 52.38 56.22 49.65 56.22 C 48.31 56.22 47.76 55.45 47.76 54.26 C 47.76 53.6 47.76 54.93 47.76 54.26 C 47.76 53.43 48.15 53.13 48.84 53.13 C 51.14 53.13 51.06 53.13 51.06 53.13 C 53.42 53.13 55.34 51.22 55.34 48.86 C 55.34 46.5 53.43 44.58 51.06 44.58 C 51.06 44.58 51.15 44.58 48.85 44.58 C 48.39 44.58 47.75 44.28 47.75 43.51 C 47.75 42.66 47.75 43.17 47.75 43.17 C 47.75 42.65 46.85 41.34 46.41 40.65 C 46.24 40.38 45.97 40.4 45.75 40.7 C 45.24 41.4 44.48 42.66 44.48 43.16 C 44.48 43.16 44.48 42.64 44.48 43.46 C 44.48 44.18 44.09 44.57 43.2 44.57 C 40.95 44.57 41.19 44.57 41.19 44.57 C 38.83 44.57 36.92 46.48 36.92 48.85 C 36.92 51.21 38.84 53.12 41.19 53.12 C 41.19 53.12 40.99 53.12 43.26 53.12 C 44.24 53.12 44.5 53.5 44.5 54.14 C 44.5 54.77 44.5 53.4 44.5 54.14 C 44.5 55.4 43.63 56.21 42.31 56.21 C 39.42 56.21 34.5 56.21 34.5 56.21 C 33.26 56.21 32.26 57.21 32.26 58.45 C 32.26 59.69 33.26 60.69 34.5 60.69 L 57.44 60.69 C 58.68 60.69 59.68 59.68 59.68 58.45 C 59.68 57.22 58.67 56.22 57.44 56.22 Z"/><g><path d=" M 31.86 12.31 C 30.99 11.98 30.38 11.88 29.4 11.72 C 28.34 11.55 27.64 11.63 27.3 9.74 C 26.95 7.77 26.24 3.39 25.86 1.28 C 25.7 0.34 25.22 -6.66134e-16 24.34 -6.66134e-16 C 24.34 -6.66134e-16 20.38 -0.01 20.37 -0.01 C 19.51 -0.01 18.82 0.68 18.82 1.54 L 18.82 2.93 C 18.82 8.73 16.76 11.21 11.92 11.21 L 1.68 11.11 C 0.82 11.11 0.13 11.81 0.13 12.66 C 0.13 13.52 0.83 14.21 1.68 14.21 C 1.68 14.21 2.33 14.3 6.26 14.33 C 11.86 14.36 14.27 16.46 14.27 21.22 L 14.27 40.38 C 14.27 45.19 10.29 45.19 5.47 47.87 C 3.58 48.92 1.26 50.31 0.78 50.58 C 0.04 51.01 -0.22 51.96 0.2 52.69 C 0.63 53.44 1.57 53.68 2.32 53.27 C 3.92 52.41 5.21 51.8 6.19 51.18 C 10.03 48.78 12.15 48.6 13.72 48.52 C 15.71 48.42 16.32 49.63 16.04 51.48 C 15.56 54.75 9.96 57.54 9.63 57.64 C 8.82 57.92 8.4 58.79 8.67 59.61 C 8.95 60.42 9.86 60.93 10.64 60.58 C 13.81 59.15 17.65 56.67 19.28 52.03 C 21.3 46.31 20.1 36.21 20.1 21.77 C 20.1 18.85 21.67 17.14 22.97 16.24 C 25.16 14.71 28.3 14.3 30.76 15.21 C 31.56 15.51 32.46 15.1 32.75 14.29 C 33.07 13.51 32.66 12.62 31.86 12.31 Z M 23.1 12.66 C 22.44 12.95 21.53 13.48 20.94 13.89 C 19.44 14.93 18.71 15.39 18 14.57 C 17.51 14 17.52 13.16 18.75 12.05 C 20.55 10.44 21.83 7.75 21.92 3.43 C 21.93 3.03 22.11 2.84 22.44 2.84 C 22.89 2.84 22.99 3.03 23.06 3.45 C 23.41 5.57 23.91 8.46 24.23 10.31 C 24.39 11.15 24.25 12.17 23.1 12.66 Z" fill="#020303"/><path d=" M 22.76 9.35 C 22.32 9.35 21.96 9.71 21.96 10.16 C 21.96 10.6 22.32 10.96 22.76 10.96 C 23.2 10.96 23.56 10.6 23.56 10.16 C 23.56 9.71 23.2 9.35 22.76 9.35 Z" fill="#020303"/></g><path d=" M 34.15 19.79 L 34.15 35.41 C 34.15 37.36 35.73 38.95 37.69 38.95 L 54.24 38.95 C 56.19 38.95 57.78 37.37 57.78 35.41 L 57.78 19.79 C 57.78 17.84 56.2 16.25 54.24 16.25 L 37.69 16.25 C 35.74 16.25 34.15 17.83 34.15 19.79 Z M 52.76 25.6 L 48.99 25.6 C 48.43 25.6 47.97 25.14 47.97 24.58 L 47.97 21.27 C 47.97 20.71 48.43 20.25 48.99 20.25 L 52.76 20.25 C 53.32 20.25 53.78 20.71 53.78 21.27 L 53.78 24.58 C 53.78 25.14 53.32 25.6 52.76 25.6 Z M 43.97 21.27 L 43.97 24.58 C 43.97 25.14 43.51 25.6 42.95 25.6 L 39.17 25.6 C 38.61 25.6 38.15 25.14 38.15 24.58 L 38.15 21.27 C 38.15 20.71 38.61 20.25 39.17 20.25 L 42.95 20.25 C 43.51 20.25 43.97 20.71 43.97 21.27 Z M 39.17 29.6 L 42.95 29.6 C 43.51 29.6 43.97 30.06 43.97 30.62 L 43.97 33.93 C 43.97 34.49 43.51 34.95 42.95 34.95 L 39.17 34.95 C 38.61 34.95 38.15 34.49 38.15 33.93 L 38.15 30.62 C 38.15 30.06 38.61 29.6 39.17 29.6 Z M 47.97 33.93 L 47.97 30.62 C 47.97 30.06 48.43 29.6 48.99 29.6 L 52.76 29.6 C 53.32 29.6 53.78 30.06 53.78 30.62 L 53.78 33.93 C 53.78 34.49 53.32 34.95 52.76 34.95 L 48.99 34.95 C 48.42 34.95 47.97 34.49 47.97 33.93 Z"/></svg>