<svg width="63.2" height="64.18" viewBox="0 0 63.2 64.18" xmlns="http://www.w3.org/2000/svg" xmlns:xlink="http://www.w3.org/1999/xlink" overflow="visible"><defs></defs><path d="M26.22 26.86C25.36 26.86 25.02 27.03 25.02 27.65 25.02 27.65 25.02 29.24 25.02 29.8 25.02 31.57 24.52 31.72 23.1 31.72 22.81 31.72 21.93 31.72 21.93 31.72 20.8 31.72 20.17 31.72 20.17 29.96L20.17 28.41C20.17 26.71 17.93 26.71 17.93 28.41L17.93 29.96C17.93 33.96 20.94 33.96 21.93 33.96 21.93 33.96 22.82 33.96 23.12 33.96 24.8 33.96 25.02 34.15 25.02 35.76 25.02 37.45 25.02 52.67 25.02 55.35 25.02 57.17 24.46 57.21 23.2 57.21 22.88 57.21 21.92 57.21 21.92 57.21 20.93 57.21 17.92 57.21 17.92 61.21L17.92 62.76C17.92 64.49 20.16 64.49 20.16 62.76L20.16 61.2C20.16 59.44 20.78 59.44 21.92 59.44 21.92 59.44 22.86 59.44 23.18 59.44 24.66 59.44 25.01 59.52 25.01 61.3 25.01 61.85 25.01 63.51 25.01 63.51 25.01 64.13 25.51 64.18 26.13 64.18 26.75 64.18 27.25 64.13 27.25 63.51L27.25 27.65C27.27 27.03 27.12 26.86 26.22 26.86Z" fill="#030000"/><path d="M62.18 28C62.18 28 39.45 10.66 37.14 8.99 34.86 7.33 34.24 6.71 34.24 3.25 34.24-1.08 28.92-1.08 28.92 3.25 28.92 6.39 28.74 7 25.58 9.32 23.39 10.92 1.16 27.88 1.16 27.88-1.48 29.92 0.81 33.35 3.74 31.22 4.62 30.58 6.38 29.21 7.79 28.12 9.1 27.1 9.7 27.55 9.7 29.03L9.7 61.71C9.7 64.99 13.95 64.99 13.95 61.71L13.95 29.03C13.95 24.41 15.46 22.17 20.25 18.49 31.38 9.93 31.38 9.93 42.91 18.49 47.76 22.09 49.21 24.41 49.21 29.03L49.21 61.71C49.21 65 53.46 65 53.46 61.71L53.46 29.03C53.46 27.68 54.28 27.25 55.49 28.17 56.52 28.96 59.59 31.34 59.59 31.34 62.15 33.32 64.67 29.87 62.18 28Z" fill="#030000"/><path d="M43.98 62.79C43.76 62.02 43.36 60.36 42.16 57.71 42.01 57.38 41.63 56.83 40.77 56.92 39.47 57.05 37.43 57.57 35.1 56.8 33.89 56.4 34.17 54.77 35.62 55.2 36.41 55.44 36.98 55.74 38.37 55.53 40.45 55.23 40.43 53.55 39.36 52.16 37.65 49.93 34.39 49.56 34.35 49.56 32.79 49.27 33.26 47.57 34.53 47.83 35.24 47.97 38.34 48.34 40.73 51.09 41.21 51.65 41.78 51.36 41.59 50.16 41.15 47.33 38 46.78 37.86 46.75 36.43 46.4 36.89 44.81 38.14 45.03 39.84 45.33 42.82 46.65 43.31 49.93 43.74 52.8 42.5 53.7 43.46 56.08 44.54 58.75 45.2 60.54 45.66 62.34 46.02 63.74 44.39 64.24 43.98 62.79Z" fill="#030000"/><path d="M42.45 41.12C43.04 41.12 43.26 41.27 43.26 41.96 43.26 43.08 44.82 43.08 44.82 41.96 44.82 41.39 44.82 41.02 45.29 41.02 45.57 41.02 45.7 40.88 45.7 40.33 45.7 39.83 45.6 39.67 45.34 39.67 45.07 39.67 44.82 39.41 44.82 38.7 44.82 37.59 43.26 37.59 43.26 38.7 43.26 39.42 43.14 39.55 42.45 39.55L42.15 39.55C41.5 39.55 41.12 38.81 41.51 38.28 43.87 35.12 44.59 31.45 43.37 28.17 41.79 23.91 37.35 21.37 31.5 21.37 31.05 21.37 30.68 21.74 30.68 22.19 30.68 22.64 31.05 23.01 31.5 23.01 36.64 23.01 40.5 25.15 41.83 28.74 42.47 30.47 42.45 32.34 41.85 34.18 41.59 34.96 40.43 34.86 40.31 34.04 40.12 32.74 39.69 31.53 39 30.49 37.45 28.14 34.79 26.85 31.5 26.85 31.05 26.85 30.68 27.22 30.68 27.67 30.68 28.12 31.05 28.49 31.5 28.49 34.26 28.49 36.38 29.49 37.63 31.4 38.18 32.23 38.53 33.2 38.68 34.25 38.79 35.03 37.83 35.46 37.3 34.88 35.86 33.31 33.79 32.32 31.5 32.32 31.05 32.32 30.68 32.69 30.68 33.14 30.68 33.59 31.05 33.96 31.5 33.96 34.35 33.96 36.76 35.88 37.51 38.5 37.66 39.02 37.28 39.54 36.74 39.54 36.06 39.54 35.94 39.41 35.94 38.69 35.94 37.58 34.38 37.58 34.38 38.69 34.38 39.39 34.13 39.66 33.86 39.66 33.6 39.66 33.5 39.82 33.5 40.32 33.5 40.86 33.63 41.01 33.91 41.01 34.38 41.01 34.38 41.38 34.38 41.95 34.38 43.07 35.94 43.07 35.94 41.95 35.94 41.25 36.16 41.11 36.75 41.11 36.99 41.11 37.36 41.11 37.36 41.11 38.01 41.12 42.45 41.12 42.45 41.12Z" fill="#030000"/></svg>