<svg width="64.49" height="66.3" viewBox="0 0 64.49 66.3" xmlns="http://www.w3.org/2000/svg" xmlns:xlink="http://www.w3.org/1999/xlink" overflow="visible"><defs></defs><g><path d="M21.45 12.44C20.27 13.63 20.46 14.9 21.36 15.78 22.34 16.72 23.78 16.36 24.3 15.83 25.13 14.95 25.23 13.74 24.57 12.83 23.87 11.87 22.27 11.62 21.45 12.44Z" fill="#030000"/><path d="M34.85 26.46C41.9 25.39 47.88 22.37 56.65 21.91 59.86 21.74 59.93 17.73 56.71 17.73 45.22 17.72 32.94 23.79 25.18 21.97 23.8 21.65 22.66 20.67 22.22 19.08 21.62 16.98 20.03 15.7 18.53 14.85 17.93 14.51 17.7 13.3 18.88 12.21 20.59 10.61 21.91 10.24 23.89 10.6 26.22 11.02 27.14 13.3 27.23 13.81 27.55 15.66 26.55 16.89 26 17.37 25.19 18.07 25.1 19.3 25.8 20.11 26.25 20.63 27.71 21.02 28.54 20.31 30.29 18.79 31.61 16.37 31.04 13.14 30.83 11.93 30.14 10.04 28.05 8.61L28.05 8.61C27.52 8.28 27.89 7.91 27.89 7.91L27.88 7.91C29.1 7 29.78 6.03 29.83 5.96 30.24 5.36 30.09 4.55 29.49 4.14 28.89 3.73 28.08 3.88 27.66 4.47 27.64 4.49 25.94 6.9 23.17 6.91 23.1 6.91 23.02 6.92 22.95 6.93 22.61 6.92 22.28 6.93 21.96 6.96L21.96 6.95C21.36 6.96 21.27 6.69 21.28 6.5 21.29 6.45 21.3 6.39 21.3 6.34 21.3 6.34 21.31 6.33 21.31 6.33L21.31 6.33C21.53 5.03 21.44 4.06 21.43 3.97 21.34 3.25 20.69 2.74 19.97 2.82 19.24 2.9 18.73 3.55 18.81 4.27 18.81 4.3 19.1 7.22 17.04 9.05 16.88 9.18 16.74 9.31 16.61 9.44 15.22 10.84 14.07 13.19 13.64 17.5 13.59 18.04 13.82 18.28 14.3 17.72 16.25 15.39 19.07 18.88 18.73 22.61 18.59 24.15 17.98 25.6 17.17 27.27 15.93 29.82 14.66 32.71 14.93 36.87 15.75 49.13 22.49 53.44 28.67 57.79 31.53 59.81 34.49 61.89 36.9 64.76 37.57 65.57 38.91 65.99 39.91 65.15 40.73 64.46 40.57 63.09 39.88 62.26 38.12 60.16 36.19 58.5 34.21 57 32.71 55.86 31.24 54.55 30.75 52.6 30.47 51.49 30.33 50.21 30.26 48.82 30.11 45.69 30.61 45.04 34.12 44.49 36.76 44.08 39.43 43.23 41.84 41.7 42.75 41.12 43.02 39.92 42.44 39.02 41.86 38.11 40.66 37.84 39.76 38.42 37.8 39.67 35.58 40.35 33.37 40.68 30.92 41.05 30.44 40.62 30.54 38.52 30.64 36.44 31.65 36.11 33.35 35.86 37.09 35.3 42.88 34.12 46.63 32.15 47.58 31.65 47.99 30.51 47.51 29.55 47.03 28.59 45.89 28.26 44.9 28.67 39.74 30.84 35.36 31.9 33.72 31.93 32.44 31.95 30.74 31.96 30.43 29.53 30.23 27.76 32.22 26.86 34.85 26.46ZM26.35 47.42C26.4 50.19 25.69 50.82 23.9 48.86 23.22 48.11 22.59 47.31 22.01 46.42 20.99 44.84 21.37 43.89 23.26 44.22 25.94 44.69 26.31 44.76 26.35 47.42ZM26.67 38.11C26.58 40.09 26.3 40.78 24.04 40.39 23.27 40.26 22.58 40.11 22 39.98 19.8 39.47 19.07 38.74 18.86 37.06 18.64 35.1 19.72 34.81 21.41 35.11 22.2 35.25 23.2 35.4 24.36 35.53 26.46 35.77 26.77 36.08 26.67 38.11ZM26.61 30.08C26.8 31.71 25.91 31.78 25.05 31.69 23.67 31.54 22.54 31.36 21.73 31.22 20.41 30.98 20.04 30.23 20.67 28.94 21.03 28.18 21.41 27.42 21.72 26.62 22.22 25.38 22.75 25.37 23.92 25.66 25.71 26.1 25.85 26.6 26.17 27.72 26.37 28.43 26.51 29.22 26.61 30.08Z" fill="#030000"/></g><path d="M59.7 43.22C59.68 39.01 59.05 35.48 58.23 32.66 56.65 27.27 51.08 30.12 52.29 33.98 52.69 35.27 53.07 36.76 53.35 38.46 53.81 41.2 53 42.83 49.79 43.9 46.91 44.86 43.89 46.2 41.16 51.18 40.38 52.61 41.13 54.12 41.92 54.44 42.83 54.81 43.98 54.08 44.59 52.78 45.46 50.91 48.06 47.49 50.94 47.74 52.21 47.85 52.8 48.65 52.85 50.72 52.89 52.68 53 58.64 49.1 62.13 48.03 63.09 48.16 64.47 48.76 65.12 49.36 65.77 50.7 65.73 51.6 64.97 56.06 61.21 56.47 56.31 56.87 52.28 57.08 50.13 58.37 50.77 59 51.59 61.19 54.45 61.17 58.59 58.96 63.32 58.52 64.26 58.67 65.5 59.77 66.14 60.84 66.76 62.08 65.58 62.38 64.92 65.67 57.89 65.05 52.34 61.09 47.49 60.2 46.4 59.71 44.07 59.7 43.22Z" fill="#030000"/><g><path d="M10.06 0.27 3.88 0.27C1.74 0.27 0 2.01 0 4.15L0 10.19C0 12.33 1.74 14.07 3.88 14.07L10.07 14.07C12.21 14.07 13.95 12.33 13.95 10.19L13.95 4.15C13.94 2.01 12.2 0.27 10.06 0.27ZM12.24 10.19C12.24 11.39 11.27 12.36 10.07 12.36L3.88 12.36C2.68 12.36 1.71 11.39 1.71 10.19L1.71 4.15C1.71 2.95 2.68 1.98 3.88 1.98L10.07 1.98C11.27 1.98 12.24 2.95 12.24 4.15L12.24 10.19Z" fill="#030000"/></g><g><path d="M42.08 0 35.89 0C33.75 0 32.01 1.74 32.01 3.88L32.01 9.92C32.01 12.06 33.75 13.8 35.89 13.8L42.08 13.8C44.22 13.8 45.96 12.06 45.96 9.92L45.96 3.88C45.95 1.74 44.21 0 42.08 0ZM44.25 9.92C44.25 11.12 43.28 12.09 42.08 12.09L35.89 12.09C34.69 12.09 33.72 11.12 33.72 9.92L33.72 3.88C33.72 2.68 34.69 1.71 35.89 1.71L42.08 1.71C43.28 1.71 44.25 2.68 44.25 3.88L44.25 9.92Z" fill="#030000"/></g></svg>