<svg version="1.1" width="57.4" height="57.46" viewBox="0 0 57.4 57.46" xmlns="http://www.w3.org/2000/svg" xmlns:xlink="http://www.w3.org/1999/xlink" overflow="visible"><defs></defs><path d=" M 10.05 38.81 C 3.33 38.81 2.18 35.99 0.68 31.26 C 0.19 29.7 -0.41 27.97 0.37 26.82 C 1.06 25.8 2.42 25.63 3.37 25.52 C 4.47 25.4 5.44 24.01 7.53 24.05 C 8.66 24.07 9.4 24.61 9.88 24.98 C 9.93 25.02 10.17 25.02 10.22 24.98 C 10.71 24.61 11.45 24.08 12.58 24.05 C 14.79 23.99 15.54 25.23 16.81 25.53 C 17.76 25.75 19.14 25.96 19.81 27.06 C 20.53 28.25 19.65 30.55 19.18 31.91 C 17.69 36.08 16.8 38.81 10.05 38.81 Z M 5.95 27.2 C 5.36 27.57 4.66 27.92 3.81 27.99 C 2.61 28.07 2.77 29.23 3.21 30.6 C 4.58 34.95 4.95 36.12 10.06 36.27 C 14.94 36.12 15.35 34.96 16.7 31.13 C 17.2 29.72 17.66 28.16 16.24 27.97 C 15.46 27.87 14.81 27.52 14.24 27.2 C 13.64 26.87 12.68 26.23 11.56 27.01 C 11.17 27.28 10.71 27.65 10.05 27.65 C 9.4 27.65 8.94 27.28 8.54 27.01 C 7.96 26.62 7.05 26.5 5.95 27.2 Z" fill="#030000"/><g><path d=" M 18.21 57.24 C 20.52 55.99 23.49 54.17 24.81 53.44 C 26.92 52.26 32.22 50.58 34.47 50.54 C 37.23 50.49 38.65 50.97 40.35 52.24 C 46.18 56.59 54.23 56.31 54.62 56.27 C 55.59 56.19 56.29 55.34 56.22 54.37 C 56.13 53.4 55.28 52.69 54.32 52.77 C 54.24 52.78 48.01 53.24 43.26 50.01 C 41.29 48.67 41.78 47.31 42.22 45.9 C 42.6 44.66 42.94 42.29 42.94 40.72 L 42.94 24.7 C 42.96 21.38 44.72 19.46 46.19 18.43 C 48.68 16.7 52.23 16.23 55.03 17.26 C 55.94 17.6 56.95 17.13 57.29 16.22 C 57.63 15.31 57.16 14.31 56.25 13.96 C 55.27 13.59 54.57 13.48 53.46 13.3 C 52.26 13.11 51.46 13.2 51.08 11.06 C 50.68 8.83 49.45 1.47 49.45 1.47 C 49.29 0.51 48.38 -0.13 47.42 0.03 C 46.56 0.18 45.88 1.43 45.98 2.06 C 46.31 4.27 47.13 8.97 47.6 11.7 C 47.76 12.64 47.6 13.81 46.31 14.36 C 45.56 14.68 44.53 15.28 43.86 15.75 C 42.16 16.93 41.33 17.45 40.52 16.51 C 39.97 15.87 39.98 14.91 41.38 13.66 C 43.5 11.76 44.98 8.56 44.98 3.33 L 44.98 1.76 C 44.99 0.79 44.2 0 43.23 0 C 42.26 0 41.47 0.79 41.47 1.76 L 41.47 3.34 C 41.47 9.92 39.13 12.72 33.65 12.72 L 17.62 12.59 C 16.65 12.59 15.86 13.38 15.86 14.35 C 15.86 15.32 16.65 16.11 17.62 16.11 C 17.62 16.11 22.77 16.21 27.22 16.24 C 33.58 16.28 36.3 18.66 36.3 24.05 L 36.3 41.15 C 36.3 46.7 33.5 46.54 28.25 48.15 C 25.96 48.85 24.06 49.72 22.32 50.62 C 20.14 51.75 16.99 53.88 16.45 54.19 C 15.6 54.67 15.32 55.75 15.79 56.59 C 16.29 57.43 17.35 57.7 18.21 57.24 Z" fill="#020303"/><path d=" M 45.93 12.42 C 46.43 12.42 46.84 12.01 46.84 11.51 C 46.84 11.01 46.43 10.6 45.93 10.6 C 45.43 10.6 45.02 11.01 45.02 11.51 C 45.02 12.01 45.43 12.42 45.93 12.42 Z" fill="#020303"/></g></svg>