<svg width="27.39" height="53.62" viewBox="0 0 27.39 53.62" xmlns="http://www.w3.org/2000/svg" xmlns:xlink="http://www.w3.org/1999/xlink" overflow="visible"><defs></defs><path d="M26.74 33.41C26.25 33.41 25.8 32.93 25.8 31.64 25.8 29.62 22.95 29.62 22.95 31.64 22.95 32.95 22.73 33.18 21.48 33.18L20.94 33.18C19.75 33.18 19.07 31.82 19.78 30.87 24.08 25.09 25.4 18.4 23.18 12.41 20.29 4.64 12.19 0 1.5 0 0.67 0 0 0.67 0 1.5 0 2.33 0.67 3 1.5 3 10.88 3 17.94 6.91 20.36 13.45 21.53 16.61 21.5 20.03 20.39 23.37 19.91 24.8 17.8 24.62 17.58 23.12 17.24 20.75 16.44 18.54 15.19 16.64 12.37 12.36 7.5 10 1.5 10 0.67 10 0 10.67 0 11.5 0 12.33 0.67 13 1.5 13 6.53 13 10.4 14.83 12.69 18.3 13.69 19.82 14.33 21.58 14.61 23.51 14.82 24.93 13.06 25.72 12.09 24.66 9.46 21.8 5.69 20 1.5 20 0.67 20 0 20.67 0 21.5 0 22.33 0.67 23 1.5 23 6.71 23 11.11 26.51 12.47 31.29 12.74 32.23 12.05 33.19 11.07 33.19 9.83 33.19 9.61 32.95 9.61 31.65 9.61 29.63 6.76 29.63 6.76 31.65 6.76 32.94 6.31 33.42 5.82 33.42 5.35 33.42 5.16 33.71 5.16 34.62 5.16 35.61 5.4 35.87 5.9 35.87 6.76 35.87 6.76 36.54 6.76 37.58 6.76 39.62 9.61 39.62 9.61 37.58 9.61 36.31 10.01 36.04 11.09 36.04 11.53 36.04 11.96 36.04 12.2 36.04L12.2 36.04C13.36 36.04 14.31 36.98 14.31 38.15L14.31 38.91C14.31 41.12 13.33 43.21 11.63 44.61L11.6 44.63C10.1 45.87 8.56 47.15 7.5 48.53 7.12 49.04 7.21 49.76 7.72 50.14 7.93 50.3 8.17 50.38 8.42 50.38 8.77 50.38 9.11 50.22 9.34 49.93 10.23 48.76 11.68 47.56 13.07 46.41 13.71 45.88 14.31 46.14 14.31 46.94 14.31 48.09 14.31 51.53 14.31 51.53 14.31 52.53 14.99 53.45 15.97 53.61 17.22 53.81 18.31 52.85 18.31 51.64 18.31 51.64 18.31 48.12 18.31 46.94 18.31 46.05 18.99 45.94 19.55 46.41 20.94 47.57 22.39 48.76 23.28 49.93 23.51 50.23 23.85 50.38 24.2 50.38 24.44 50.38 24.69 50.3 24.9 50.14 25.41 49.76 25.5 49.03 25.12 48.53 24.07 47.15 22.52 45.86 21.02 44.63L20.99 44.61C19.29 43.2 18.31 41.11 18.31 38.91L18.31 38.15C18.31 36.99 19.25 36.04 20.42 36.04L21.48 36.04C22.56 36.04 22.96 36.31 22.96 37.58 22.96 39.62 25.81 39.62 25.81 37.58 25.81 36.54 25.8 35.87 26.67 35.87 27.17 35.87 27.41 35.61 27.41 34.62 27.39 33.69 27.21 33.41 26.74 33.41Z" fill="#030000"/></svg>