<svg version="1.1" width="48.5" height="55.29" viewBox="0 0 48.5 55.29" xmlns="http://www.w3.org/2000/svg" xmlns:xlink="http://www.w3.org/1999/xlink" overflow="visible"><defs></defs><path d=" M 16.27 8.27 C 13.97 6.81 3.62 0.37 3.62 0.37 C 3.37 0.21 2.74 0 2.29 0 C 2.29 0 2.28 0 2.28 0 C 2.28 0 2.28 0 2.28 0 L 2.28 0 C 1.02 0.01 0 1.03 0 2.29 L 0 53 C 0 54.26 1.03 55.29 2.29 55.29 C 3.56 55.29 4.58 54.26 4.58 53 C 4.58 53 4.58 20.24 4.58 7.65 C 4.58 6.71 5.13 6.47 5.76 6.87 C 7.91 8.21 12.56 11.07 14.13 12.03 C 16.69 13.6 18.95 9.97 16.27 8.27 Z"/><path d=" M 46.21 0 C 46.21 0 46.21 0 46.21 0 L 18.36 0 C 17.09 0 16.07 1.03 16.07 2.29 C 16.07 3.55 17.1 4.58 18.36 4.58 C 19.58 4.58 34.04 4.58 41.63 4.58 C 42.9 4.58 43.93 5.61 43.93 6.87 C 43.93 20.24 43.93 53 43.93 53 C 43.93 54.26 44.96 55.29 46.22 55.29 C 47.49 55.29 48.51 54.26 48.51 53 L 48.51 2.29 C 48.5 1.03 47.47 0 46.21 0 Z"/><path d=" M 35.63 41.52 C 35.09 40.86 34.11 40.76 33.44 41.31 C 32.78 41.86 32.78 42.76 33.23 43.5 C 35.02 46.43 33.59 49.75 30.44 50.93 C 25.74 52.68 20.21 52.46 16.79 50.44 C 13.49 48.48 13.1 44.41 17.51 41.63 C 21.31 39.24 23.72 39.39 25.53 35.56 C 26.2 34.14 26.25 33.51 27.92 32.93 C 30.24 32.12 33.43 31.01 33.16 26.29 C 32.95 22.76 30.36 20.76 28.08 18.99 C 27.37 18.44 26.71 17.93 26.16 17.4 C 24.9 16.2 25.08 15.88 24.98 14.41 C 24.93 13.55 24.18 12.9 23.33 12.96 C 22.47 13.02 21.82 13.75 21.88 14.61 C 21.97 15.99 21.62 16.63 21.11 17.16 C 20.54 17.75 19.81 18.32 19.02 18.92 C 16.78 20.64 14.24 22.59 14.16 26.15 C 14.04 30.84 17.23 32.01 19.55 32.86 C 22.55 33.97 23.37 35.67 17.95 38.25 C 8.07 42.96 10.79 50.05 15.34 52.89 C 20.01 55.8 26.89 55.57 31.53 53.84 C 37.48 51.62 38.71 45.3 35.63 41.52 Z M 26.66 20.83 C 28.73 22.43 30.69 23.95 30.84 26.42 C 30.99 29.02 29.83 29.76 27.73 30.52 C 26.33 31.03 25.76 30.83 25.72 29.27 C 25.65 26.87 25.52 24.05 25.39 21.5 C 25.34 20.57 26.12 20.41 26.66 20.83 Z M 20.35 30.68 C 17.83 29.75 16.41 29.09 16.48 26.21 C 16.54 23.76 18.43 22.31 20.43 20.77 C 21.63 19.85 22.19 20.17 22.26 21.51 C 22.39 24.06 22.52 26.92 22.59 29.31 C 22.65 30.97 22.02 31.29 20.35 30.68 Z" fill="#030000"/></svg>