<svg width="63.69" height="57.72" viewBox="0 0 63.69 57.72" xmlns="http://www.w3.org/2000/svg" xmlns:xlink="http://www.w3.org/1999/xlink" overflow="visible"><defs></defs><path d="M39.37 41.56C38.21 45.16 37.79 51.4 38.17 55.92 38.38 58.29 42.18 58.52 42.14 55.47 42.11 53.15 41.98 48.5 42.75 44.46 43.3 41.59 45.45 37.15 47.6 35.86 49.28 34.85 51.36 35.5 51.22 37.46 51.07 39.52 51.04 42.24 50.82 44.83 50.37 50.1 53.96 53.16 60.22 57.19 63.18 59.1 64.99 55.5 62.56 54.1 58.7 51.51 54.57 49.4 54.86 44.23 55.01 41.48 55.22 39.55 55.46 36.74 55.96 30.96 46.53 28.47 41.91 36.04 40.92 37.62 40.04 39.5 39.37 41.56Z" fill-rule="evenodd" clip-rule="evenodd"/><path d="M48.55 26.15C49.6 26.76 51.1 26.79 52.07 26.17 54.26 24.76 59.36 20.69 59.36 13.33 59.36 6.06 54.35 1.99 52.2 0.58 51.63 0.19 51.02 0 50.37 0 49.76 0 49.15 0.17 48.55 0.5 46.85 1.44 41.32 5.13 41.32 13.31 41.32 21.31 46.85 25.16 48.55 26.15ZM56.06 16.08C55.05 20.26 51.95 22.7 50.49 23.64 50.48 23.64 50.34 23.76 50.04 23.57 48.61 22.69 45.55 20.46 44.59 16.1 44.41 15.3 44.55 15.24 44.93 16 45.92 17.99 47.97 19.36 50.34 19.36 52.75 19.36 54.83 17.95 55.8 15.9 56.14 15.19 56.24 15.31 56.06 16.08ZM46.67 13.32C46.67 11.29 48.32 9.65 50.34 9.65 52.37 9.65 54.01 11.29 54.01 13.32 54.01 15.34 52.36 16.99 50.34 16.99 48.31 16.99 46.67 15.34 46.67 13.32ZM49.99 3.1C50.34 2.91 50.46 2.97 50.57 3.04 51.99 3.97 54.93 6.33 55.99 10.3 56.21 11.12 56.03 11.09 55.58 10.29 54.54 8.48 52.58 7.26 50.34 7.26 48.07 7.26 46.09 8.52 45.06 10.37 44.64 11.13 44.45 11.09 44.64 10.29 45.69 5.84 48.88 3.71 49.99 3.1Z"/><g><path d="M16.9 13.75C15.98 14.73 16.17 15.75 16.92 16.44 17.73 17.17 18.88 16.84 19.28 16.4 19.93 15.68 19.97 14.7 19.42 13.98 18.83 13.23 17.54 13.08 16.9 13.75Z" fill="#030000"/><path d="M28.03 24.95C29.09 24.85 34.96 23.71 38.89 22.69 41.38 22.05 40.27 19.03 38.07 19.58 33.31 20.77 25.07 22.27 20.14 21.29 19.02 21.07 18.08 20.31 17.69 19.05 17.15 17.38 15.84 16.4 14.62 15.75 14.13 15.49 13.91 14.53 14.83 13.62 16.16 12.29 17.21 11.96 18.8 12.19 20.68 12.47 21.48 14.27 21.56 14.68 21.87 16.16 21.09 17.17 20.67 17.56 20.04 18.14 20 19.13 20.58 19.76 20.95 20.16 22.14 20.44 22.79 19.84 24.15 18.57 25.15 16.6 24.61 14.03 24.41 13.07 23.81 11.56 22.09 10.47L22.09 10.47C21.66 10.22 21.94 9.91 21.94 9.91L21.94 9.91C22.89 9.15 23.41 8.35 23.45 8.29 23.76 7.8 23.62 7.15 23.13 6.84 22.65 6.55 22 6.69 21.68 7.18 21.67 7.2 20.36 9.17 18.15 9.26 18.09 9.26 18.03 9.27 17.97 9.28 17.7 9.28 17.43 9.3 17.17 9.33L17.17 9.32C16.69 9.34 16.61 9.13 16.61 8.98 16.62 8.94 16.62 8.9 16.62 8.85 16.62 8.85 16.63 8.84 16.63 8.84L16.63 8.84C16.78 7.8 16.67 7.01 16.66 6.95 16.57 6.37 16.04 5.98 15.46 6.07 14.88 6.16 14.49 6.69 14.57 7.26 14.57 7.28 14.88 9.62 13.27 11.14 13.15 11.25 13.04 11.36 12.94 11.46 11.86 12.62 11 14.53 10.77 18 10.74 18.44 10.94 18.62 11.3 18.16 12.8 16.24 15.16 18.97 14.99 21.96 14.92 23.2 14.47 24.38 13.86 25.74 12.93 27.82 11.99 30.17 12.32 33.5 13.3 43.31 18.82 46.59 23.89 49.91 26.24 51.45 28.67 53.04 30.68 55.28 31.24 55.91 32.32 56.21 33.1 55.51 33.74 54.94 33.57 53.84 33 53.2 31.54 51.57 29.94 50.28 28.32 49.13 27.09 48.25 25.87 47.24 25.43 45.7 25.18 44.82 25.03 43.79 24.93 42.68 24.73 40.18 25.12 39.64 27.91 39.1 30.02 38.7 32.13 37.95 34.03 36.66 34.74 36.17 34.93 35.2 34.44 34.5 33.95 33.79 32.98 33.6 32.27 34.09 30.73 35.14 28.97 35.75 27.2 36.07 25.25 36.43 24.85 36.1 24.87 34.41 24.89 32.74 25.69 32.45 27.05 32.2 30.04 31.65 33.35 31.29 36.44 29.87 37.22 29.51 37.6 28.61 37.26 27.82 36.92 27.03 36.02 26.71 35.21 27 30.99 28.52 28.57 28.96 27.24 29.03 26.22 29.08 24.85 29.13 24.54 27.2 24.35 25.81 25.91 25.16 28.03 24.95ZM21.76 41.68C21.87 43.9 21.32 44.43 19.84 42.9 19.27 42.32 18.74 41.69 18.26 40.99 17.4 39.75 17.68 38.98 19.2 39.19 21.36 39.5 21.65 39.55 21.76 41.68ZM21.77 34.21C21.75 35.8 21.54 36.36 19.73 36.11 19.1 36.02 18.55 35.92 18.08 35.83 16.31 35.48 15.7 34.92 15.49 33.57 15.26 32.01 16.12 31.74 17.48 31.94 18.12 32.03 18.92 32.13 19.86 32.2 21.54 32.33 21.8 32.58 21.77 34.21ZM21.51 27.76C21.7 29.06 21 29.14 20.3 29.09 19.19 29.01 18.28 28.9 17.63 28.8 16.56 28.64 16.25 28.05 16.72 27 16.99 26.39 17.27 25.76 17.5 25.11 17.87 24.1 18.29 24.08 19.24 24.28 20.68 24.58 20.81 24.99 21.1 25.87 21.28 26.45 21.41 27.08 21.51 27.76Z" fill="#030000"/></g><g><path d="M7.78 0.64 3 0.64C1.35 0.64 0 1.98 0 3.64L0 8.31C0 9.96 1.34 11.31 3 11.31L7.79 11.31C9.44 11.31 10.79 9.97 10.79 8.31L10.79 3.64C10.78 1.98 9.44 0.64 7.78 0.64ZM9.46 8.31C9.46 9.24 8.71 9.99 7.78 9.99L3 9.99C2.07 9.99 1.32 9.24 1.32 8.31L1.32 3.64C1.32 2.71 2.07 1.96 3 1.96L7.79 1.96C8.72 1.96 9.47 2.71 9.47 3.64L9.47 8.31Z" fill="#030000"/></g><g><path d="M33.33 0.6 28.54 0.6C26.89 0.6 25.54 1.94 25.54 3.6L25.54 8.27C25.54 9.92 26.88 11.27 28.54 11.27L33.33 11.27C34.98 11.27 36.33 9.93 36.33 8.27L36.33 3.6C36.33 1.95 34.99 0.6 33.33 0.6ZM35.01 8.28C35.01 9.21 34.26 9.96 33.33 9.96L28.54 9.96C27.61 9.96 26.86 9.21 26.86 8.28L26.86 3.6C26.86 2.67 27.61 1.92 28.54 1.92L33.33 1.92C34.26 1.92 35.01 2.67 35.01 3.6L35.01 8.28Z" fill="#030000"/></g></svg>