<svg version="1.1" width="38.62" height="57.51" viewBox="0 0 38.62 57.51" xmlns="http://www.w3.org/2000/svg" xmlns:xlink="http://www.w3.org/1999/xlink" overflow="visible"><defs></defs><path d=" M 28.5 47.48 C 27.86 47.04 26.99 47.22 26.55 47.86 C 26.12 48.5 26.31 49.34 26.93 49.81 C 27.77 50.44 27.91 51.17 27.44 52.16 C 26.53 54.1 22.43 55.37 17 54.62 C 15.16 54.37 12.83 53.67 12.97 52.5 C 13.16 50.98 15.93 51.33 18.08 49.49 C 20.45 47.44 19.59 46.87 22.04 46.36 C 26.23 45.49 27.45 41.69 23.21 38.26 C 22.58 37.75 21.99 37.27 21.51 36.78 C 20.4 35.67 20.56 35.39 20.51 34.06 C 20.48 33.28 19.81 32.68 19.05 32.71 C 18.28 32.74 17.67 33.39 17.7 34.17 C 17.75 35.42 17.42 35.99 16.95 36.46 C 16.42 36.98 15.75 37.47 15.03 38 C 11.18 40.82 11.13 43.87 15.42 45.69 C 16.65 46.21 17.74 47.85 13.14 49.12 C 9.91 50.01 8.63 52.91 11.16 55.21 C 12.94 56.83 16.63 57.51 20.02 57.51 C 24.26 57.51 28.96 56.39 30.1 53.11 C 31.16 50.02 29.69 48.28 28.5 47.48 Z M 21.84 39.89 C 22.28 40.19 22.64 40.52 23.01 40.85 C 24.07 41.8 24.15 44 21.92 44.21 C 20.98 44.3 20.41 44.31 20.54 43.16 C 20.64 42.3 20.69 41.16 20.68 40.48 C 20.66 39.64 21.33 39.55 21.84 39.89 Z M 15.3 43.26 C 13.91 42.62 14.03 41.04 16.23 39.7 C 17.39 38.99 17.83 39.2 17.87 40.4 C 17.91 41.56 17.92 42.01 17.76 42.9 C 17.47 44.47 16.76 43.93 15.3 43.26 Z"/><path d=" M 25.37 22.11 C 28.64 22.37 33.86 23.85 35.99 24.63 C 38.6 25.59 39.65 22.68 37.33 21.68 C 34.15 20.3 29.05 18.76 21.72 17.93 C 21.09 17.86 20.61 17.34 20.57 16.71 C 20.53 16.09 20.99 15.58 21.54 15.33 C 22.79 14.75 23.88 13.13 23.85 11.11 C 23.81 8.49 22.24 6.26 19.51 6.24 C 16.82 6.22 14.83 8.19 14.75 10.75 C 14.68 12.93 15.62 14.54 17.26 15.47 C 17.75 15.75 17.98 16.15 18.01 16.54 C 18.08 17.2 17.62 17.84 16.88 17.92 C 9.56 18.76 4.47 20.3 1.28 21.68 C -1.04 22.69 0.01 25.59 2.62 24.63 C 4.75 23.85 9.96 22.37 13.24 22.11 C 15.79 21.9 16.76 22.14 16.76 24.38 C 16.76 25.43 16.47 25.79 15.38 26.26 C 9.71 28.69 6.26 31.02 1.78 35.65 C -0.18 37.67 2.24 40.98 4.91 38.47 C 11.11 31.54 15.68 29.81 19.38 29.81 C 23.05 29.86 27.57 31.63 33.69 38.47 C 36.36 40.98 38.78 37.66 36.82 35.65 C 32.34 31.03 28.88 28.69 23.22 26.26 C 22.13 25.79 21.84 25.35 21.84 24.38 C 21.85 22.15 22.82 21.91 25.37 22.11 Z" fill-rule="evenodd" clip-rule="evenodd"/><path d=" M 12.17 1.44 C 10 2.05 9.02 0.31 5.75 1.38 C 2.89 2.31 4.03 4.4 6.28 4.61 C 8.67 4.83 8.78 3.75 14.48 3.75 C 17.18 3.75 20.38 6.57 27.77 4.45 C 30.19 3.75 31.86 4.74 33.46 4.2 C 35.62 3.48 34.41 1.65 31.84 1.2 C 29.66 0.82 28.71 1.08 26.23 1.62 C 24.33 2.03 20.53 -2.09 12.17 1.44 Z" fill-rule="evenodd" clip-rule="evenodd"/></svg>