<svg version="1.1" width="58.11" height="57.16" viewBox="0 0 58.11 57.16" xmlns="http://www.w3.org/2000/svg" xmlns:xlink="http://www.w3.org/1999/xlink" overflow="visible"><defs></defs><path d=" M 3.19 10.41 C 3.35 13.78 3.76 16.6 4.36 18.93 C 5.1 21.85 6.76 20.99 6.16 17.68 C 5.96 16.58 5.8 15.46 5.71 14.36 C 5.33 9.75 5.25 7.89 5.17 5.02 C 5.08 2.16 8.27 2.08 8.35 4.92 C 8.43 7.74 8.45 9.57 8.88 14.09 C 9.3 18.5 10.67 19.92 10.87 16.06 C 11.3 7.78 12.09 4.5 13.09 1.5 C 13.94 -1.03 16.92 -0.11 16.14 2.44 C 15.23 5.39 14.11 11.35 14.05 16.73 C 14.02 19.2 15.19 19.45 15.82 16.9 C 17.65 9.53 20.08 6.02 20.18 5.87 C 21.82 3.53 24.42 5.35 22.79 7.7 C 22.77 7.73 20.58 10.95 18.91 17.67 C 18.31 20.06 17.61 22.53 16.48 24.32 C 15.78 25.44 16.8 26.43 17.56 25.41 C 18.43 24.23 19.16 22.91 20.09 20.93 C 20.94 19.12 21.84 17.91 22.69 17.11 C 24.51 15.38 26.44 17.64 24.85 19.31 C 24.15 20.05 23.39 21.02 22.96 22.1 C 21.29 26.29 19.19 29.22 16.5 30.56 C 14.53 31.54 13.79 32.47 13.61 35.13 C 13.61 35.21 13.6 53.96 13.6 53.96 C 13.6 58.31 8.45 58.14 8.46 53.96 C 8.46 53.96 8.46 38.32 8.46 33.45 C 8.46 31.81 7.96 30.67 6.46 29.46 C 3.41 27.02 0.54 21.69 0 10.56 C -0.12 7.91 3.06 7.75 3.19 10.41 Z" fill="#030000"/><path d=" M 56.75 16.86 C 53.88 15.61 48.8 14.16 42.34 13.38 C 41.08 13.23 40.56 11.47 42.16 10.73 C 42.97 10.35 43.81 9.56 44.29 8.49 C 44.8 7.37 44.8 7.1 46.29 7.1 L 48.92 7.1 C 49.45 7.1 49.87 6.67 49.87 6.15 C 49.87 5.62 49.44 5.2 48.92 5.2 L 47.23 5.2 C 45.66 5.2 44.92 4.73 44.92 3.11 C 44.91 1.39 43.51 0 41.8 0 L 37.92 0 C 36.2 0 34.8 1.39 34.8 3.11 C 34.8 4.73 34.06 5.2 32.49 5.2 L 30.8 5.2 C 30.27 5.2 29.85 5.63 29.85 6.15 C 29.85 6.68 30.28 7.1 30.8 7.1 L 33.42 7.1 C 34.91 7.1 34.91 7.37 35.42 8.49 C 35.9 9.56 36.74 10.35 37.55 10.73 C 39.15 11.47 38.63 13.26 37.37 13.38 C 34.55 13.64 31.74 14.01 29.48 14.52 C 26.8 15.12 27.58 18.36 30.1 17.85 C 31.22 17.63 32.42 17.44 33.65 17.34 C 36.3 17.13 37.29 17.49 37.4 19.66 L 37.4 19.66 C 37.34 22.33 37.17 26.82 37.17 26.82 C 37.17 29.39 35.62 30.66 35.47 30.8 L 35.48 30.81 C 26.49 40.08 27.23 41.93 26.75 54.7 C 26.63 57.81 30.25 57.91 30.32 54.7 C 31.05 42.63 30.46 41.46 37.82 34.09 C 39.26 32.65 40.53 32.65 41.94 34.09 C 49.3 41.46 48.71 42.63 49.44 54.7 C 49.5 57.91 53.12 57.81 53.01 54.7 C 52.53 41.93 53.26 40.08 44.28 30.81 L 44.29 30.8 C 44.14 30.66 42.59 29.39 42.59 26.82 C 42.59 26.82 42.42 22.5 42.36 19.82 L 42.36 19.82 C 42.31 17.72 43.3 17.45 45.49 17.42 C 47.89 17.4 53.49 18.9 55.48 19.64 C 58.17 20.62 59.15 17.9 56.75 16.86 Z"/></svg>