<svg width="60.46" height="61.01" viewBox="0 0 60.46 61.01" xmlns="http://www.w3.org/2000/svg" xmlns:xlink="http://www.w3.org/1999/xlink" overflow="visible"><defs></defs><path d="M19.11 18.5C22.07 16.1 25.76 13.12 27.09 6.41 27.52 4.2 24.88 3.69 24.45 5.89 23.31 11.64 20.32 14.07 17.41 16.41 15.57 17.9 14.83 17.1 14.84 15.45 14.86 11.99 14.93 1.59 14.93 1.59 14.94-0.5 12.25-0.52 12.23 1.57 12.23 1.57 12.16 12.03 12.14 15.52 12.13 17.42 11.25 17.76 9.57 16.36 6.71 13.96 3.75 11.5 2.69 5.73 2.3 3.58-0.35 4.06 0.04 6.22 1.28 12.95 4.93 15.98 7.86 18.42 10.21 20.37 11.94 21.81 12.09 24.58 12.09 24.58 11.97 43.62 11.97 43.63 11.88 46.57 10.1 48.02 7.65 50 6.41 51 5.05 52.1 3.78 53.54 2.14 55.39 4.34 57 5.69 55.44 6.82 54.14 8.09 53.11 9.34 52.11 11.18 50.62 11.92 51.42 11.91 53.07 11.89 56.53 11.87 59.53 11.87 59.53 11.86 61.52 14.55 61.53 14.57 59.55 14.57 59.55 14.59 56.49 14.61 53.01 14.62 51.11 15.5 50.77 17.17 52.17 18.4 53.19 19.64 54.22 20.75 55.53 22.12 57.14 24.35 55.6 22.72 53.7 21.47 52.24 20.12 51.12 18.89 50.1 16.54 48.14 14.81 46.7 14.66 43.94 14.66 43.94 14.78 24.9 14.78 24.89 14.88 21.92 16.66 20.48 19.11 18.5Z" fill="#030000"/><path d="M54.51 22.06C53.25 19.14 48.79 17.91 44.97 17.67 44.12 17.62 43.42 17.31 43.42 16.31 43.42 15.18 43.73 15.05 44.89 14.92 48.74 14.47 52.14 13.08 54.31 11 54.63 10.69 54.64 10.19 54.33 9.87 54.02 9.55 53.52 9.54 53.2 9.85 51.36 11.62 48.47 12.83 45.15 13.28 43.91 13.45 43.42 13.1 43.42 12.17 43.42 11.73 43.42 10.42 43.42 10.42 43.42 9.76 42.88 9.22 42.22 9.22 41.56 9.22 41.02 9.76 41.02 10.42 41.02 10.42 41.02 11.71 41.02 12.14 41.02 13.21 40.56 13.44 39.63 13.33 36.15 12.92 33.11 11.69 31.2 9.85 30.88 9.54 30.38 9.55 30.07 9.87 29.76 10.19 29.77 10.69 30.09 11 32.26 13.09 35.69 14.49 39.55 14.93 40.56 15.05 41.02 15.18 41.02 16.32 41.02 17.25 40.5 17.62 39.63 17.67 35.68 17.89 31.27 18.55 29.93 21.85 27.82 27.08 25.29 36.67 23.9 48.6 23.84 49.11 24.11 49.59 24.57 49.81 24.74 49.89 24.91 49.93 25.09 49.93 25.4 49.93 25.71 49.81 25.94 49.58 29.84 45.67 34.64 41.49 42.18 41.49 51.18 41.49 58.28 49.44 58.35 49.52 58.69 49.91 59.26 50.04 59.73 49.83 60.21 49.62 60.5 49.12 60.44 48.6 58.85 35.82 56.56 26.78 54.51 22.06ZM32.91 25.35C34.58 26.03 36.78 26.47 39.1 26.67 40.63 26.8 41.02 26.87 41.02 28.48 41.02 29.15 41.02 30.5 41.02 31.18 41.02 32.99 40.67 33.05 39.12 32.93 35.21 32.64 32.51 31.82 31.05 31.05 29.84 30.41 29.78 29.96 30.22 28.42 30.44 27.64 30.68 26.88 30.92 26.13 31.35 24.82 31.76 24.88 32.91 25.35ZM45.62 26.64C47.65 26.44 49.58 26.07 51.12 25.5 52.42 25.02 53.01 24.78 53.59 26.58 53.76 27.11 53.92 27.65 54.08 28.19 54.68 30.26 54.41 30.62 52.68 31.36 51.16 32.01 48.78 32.63 45.55 32.9 43.33 33.08 43.43 32.61 43.43 31.12 43.43 30.56 43.43 29.44 43.43 28.87 43.42 26.91 43.57 26.83 45.62 26.64ZM41.02 22.19C41.02 22.85 41.56 23.39 42.22 23.39 42.88 23.39 43.42 22.85 43.42 22.19 43.42 20.51 43.22 19.91 45.43 20.12 47.97 20.37 49.79 20.88 50.89 21.36 51.96 21.83 51.9 22.58 50.92 23.01 49.41 23.68 46.5 24.41 42.22 24.41 38.07 24.41 35.21 23.72 33.66 23.08 32.49 22.59 32.4 21.84 33.66 21.31 34.78 20.84 36.59 20.35 39.07 20.12 40.59 19.97 41.02 20.3 41.02 22.19ZM30.73 33.56C32.91 34.52 35.91 35.1 39.06 35.33 40.14 35.41 41.03 35.28 41.03 37.1 41.03 38.92 41.13 38.97 39.01 39.33 34.65 40.07 31.23 41.91 28.35 44.17 27.21 45.06 26.86 44.61 27.06 43.35 27.45 40.85 28 37.74 28.71 34.5 28.99 33.17 29.38 32.96 30.73 33.56ZM43.42 37.27C43.42 35.56 43.81 35.44 45.25 35.33 48.35 35.11 51.33 34.55 53.51 33.63 54.56 33.19 55.27 32.73 55.69 34.64 56.39 37.83 56.92 40.89 57.31 43.35 57.53 44.73 56.98 44.93 55.91 44.14 53.32 42.22 49.69 40.14 45.45 39.39 43.85 39.1 43.42 39.08 43.42 37.27Z" fill="#030000"/></svg>