<svg version="1.1" width="56.82" height="65.89" viewBox="0 0 56.82 65.89" xmlns="http://www.w3.org/2000/svg" xmlns:xlink="http://www.w3.org/1999/xlink" overflow="visible"><defs></defs><path d=" M 54.69 22.62 C 50.02 20.59 42.56 18.34 31.82 17.13 C 30.01 16.93 29.26 14.39 31.56 13.32 C 33.39 12.47 34.98 10.1 34.95 7.14 C 34.9 3.3 32.59 0.03 28.59 0 C 24.65 -0.03 21.73 2.86 21.62 6.61 C 21.52 9.8 22.9 12.15 25.29 13.53 C 27.23 14.64 26.5 17.02 24.82 17.11 C 15.82 17.61 6.76 19.96 1.69 22.23 C -1.48 23.65 0.13 28.08 3.88 26.76 C 6.76 25.75 12.37 23.86 18.65 23.36 C 23.76 22.95 24.02 30.21 21.74 33.31 C 18.2 38.13 13.36 42.71 13.62 46.25 C 13.79 48.63 15.41 50.9 21.02 54.69 C 22.12 55.43 22.01 56.12 21.16 56.65 C 17.87 58.71 15.99 59.87 13.52 61.44 C 10.55 63.33 12.98 67.18 15.95 65.43 C 20.39 62.81 23.42 61.03 26.91 58.93 C 27.88 58.35 28.55 58.08 29.92 58.87 C 33.59 61 36.42 62.86 40.95 65.43 C 44.13 67.24 46.14 63.19 43.58 61.57 C 40.58 59.67 39.3 58.88 35.76 56.66 C 34.99 56.18 34.8 55.43 35.76 54.78 C 41.48 50.94 43.12 48.65 43.29 46.25 C 43.54 42.7 38.54 38.2 35.13 33.27 C 32.64 29.67 33 23.52 37.12 23.48 C 40.87 23.44 49.6 25.79 52.71 26.94 C 56.9 28.48 58.43 24.24 54.69 22.62 Z M 26.82 52.42 C 21.94 49.66 19.36 47.9 19.44 45.62 C 19.51 43.86 22.73 40.11 26.2 36.74 C 27.96 35.03 29.43 35.62 30.49 36.72 C 33.87 40.2 37.39 43.84 37.46 45.62 C 37.55 47.89 34.88 49.77 30.14 52.4 C 29.29 52.88 28.31 53.26 26.82 52.42 Z"/></svg>