<svg version="1.1" width="58.88" height="59.9" viewBox="0 0 58.88 59.9" xmlns="http://www.w3.org/2000/svg" xmlns:xlink="http://www.w3.org/1999/xlink" overflow="visible"><defs></defs><path d=" M 37.07 45.41 C 36.03 48.64 35.65 54.23 36 58.28 C 36.18 60.4 39.59 60.61 39.56 57.87 C 39.53 55.79 39.41 51.62 40.11 47.99 C 40.6 45.42 42.53 41.43 44.46 40.28 C 45.96 39.38 47.84 39.95 47.71 41.71 C 47.57 43.56 47.55 46 47.35 48.32 C 46.95 53.05 50.17 55.79 55.78 59.4 C 58.44 61.11 60.06 57.88 57.88 56.63 C 54.42 54.31 50.72 52.42 50.97 47.78 C 51.11 45.31 51.29 43.59 51.51 41.06 C 51.96 35.88 43.5 33.65 39.36 40.43 C 38.46 41.88 37.67 43.57 37.07 45.41 Z" fill-rule="evenodd" clip-rule="evenodd"/><path d=" M 32.54 16.76 C 29.56 15.71 24.98 14.64 19.62 14.01 C 18.31 13.85 17.76 12.01 19.43 11.24 C 20.28 10.85 21.15 10.01 21.66 8.9 C 22.19 7.72 22.2 7.44 23.75 7.44 L 26.5 7.44 C 27.05 7.44 27.5 6.99 27.5 6.44 C 27.5 5.89 27.05 5.44 26.5 5.44 L 24.73 5.44 C 23.08 5.44 22.31 4.95 22.31 3.25 C 22.31 1.45 20.85 -0.01 19.05 -0.01 L 14.99 -0.01 C 13.19 -0.01 11.73 1.45 11.73 3.25 C 11.73 4.95 10.95 5.44 9.31 5.44 L 7.54 5.44 C 6.99 5.44 6.54 5.89 6.54 6.44 C 6.54 6.99 6.99 7.44 7.54 7.44 L 10.29 7.44 C 11.85 7.44 11.85 7.72 12.38 8.9 C 12.88 10.02 13.76 10.85 14.61 11.24 C 16.28 12.01 15.73 13.86 14.42 14.01 C 9.06 14.64 4.48 15.71 1.5 16.76 C -1.04 17.66 -0.1 20.7 2.34 19.97 C 5 19.17 9.15 18.17 11.17 18.19 C 13.47 18.21 14.42 18.45 14.55 20.71 C 14.62 21.83 14.31 29.66 14.31 29.66 C 14.31 32.23 12.76 33.5 12.61 33.64 L 12.62 33.65 C 3.63 42.92 4.37 44.77 3.89 57.54 C 3.77 60.65 7.39 60.75 7.46 57.54 C 8.19 45.47 7.6 44.3 14.96 36.93 C 16.4 35.49 17.67 35.49 19.08 36.93 C 26.44 44.3 25.85 45.47 26.58 57.54 C 26.64 60.75 30.26 60.65 30.15 57.54 C 29.67 44.77 30.4 42.92 21.42 33.65 L 21.43 33.64 C 21.28 33.5 19.73 32.23 19.73 29.66 C 19.73 29.66 19.43 21.82 19.49 20.71 C 19.62 18.45 20.57 18.22 22.87 18.19 C 24.89 18.17 29.04 19.18 31.7 19.97 C 34.14 20.7 35.08 17.65 32.54 16.76 Z"/><path d=" M 49.18 4.41 C 48.12 3.79 46.59 3.76 45.61 4.4 C 36.06 10.52 35.09 23.6 45.47 30.41 C 46.05 30.79 46.67 30.98 47.33 30.98 C 47.95 30.98 48.57 30.81 49.18 30.47 C 59.48 24.77 58.93 10.1 49.18 4.41 Z M 53.15 20.51 C 52.09 25.04 48.84 27.21 47.71 27.83 C 47.36 28.03 47.23 27.96 47.12 27.89 C 45.68 26.94 42.68 24.55 41.61 20.51 C 41.11 18.65 41.12 16.38 41.54 14.64 C 42.56 10.39 45.72 7.91 47.2 6.96 C 47.21 6.96 47.35 6.84 47.65 7.02 C 49.1 7.91 52.22 10.18 53.19 14.62 C 53.73 17.02 53.69 18.26 53.15 20.51 Z"/><path d=" M 44 17.45 C 44 19.32 45.51 20.83 47.38 20.83 C 49.25 20.83 50.76 19.32 50.76 17.45 C 50.76 15.58 49.25 14.07 47.38 14.07 C 45.51 14.07 44 15.59 44 17.45 Z"/></svg>