<svg version="1.1" width="55.91" height="58.8" viewBox="0 0 55.91 58.8" xmlns="http://www.w3.org/2000/svg" xmlns:xlink="http://www.w3.org/1999/xlink" overflow="visible"><defs></defs><path d=" M 20.62 19.83 C 23.79 17.23 27.73 14 29.11 6.78 C 29.56 4.41 26.72 3.87 26.27 6.24 C 25.09 12.43 21.89 15.05 18.79 17.59 C 16.83 19.2 16.02 18.35 16.02 16.58 C 16.02 12.86 16.02 1.69 16.02 1.69 C 16.02 -0.55 13.12 -0.55 13.12 1.69 C 13.12 1.69 13.12 12.93 13.12 16.68 C 13.12 18.72 12.18 19.09 10.37 17.6 C 7.27 15.06 4.07 12.44 2.89 6.25 C 2.45 3.93 -0.39 4.47 0.04 6.78 C 1.42 14 5.37 17.23 8.53 19.83 C 11.07 21.91 12.94 23.45 13.12 26.42 C 13.12 26.42 13.13 42.12 13.13 42.14 C 13.06 45.3 11.15 46.87 8.53 49.01 C 7.21 50.1 5.75 51.29 4.4 52.84 C 2.67 54.84 5.03 56.54 6.48 54.86 C 7.68 53.45 9.04 52.34 10.37 51.25 C 12.33 49.64 13.14 50.49 13.14 52.26 C 13.14 55.98 13.14 57.2 13.14 57.2 C 13.14 59.33 16.03 59.33 16.03 57.2 C 16.03 57.2 16.03 55.92 16.03 52.17 C 16.03 50.13 16.97 49.76 18.78 51.25 C 20.11 52.34 21.45 53.44 22.65 54.83 C 24.13 56.55 26.52 54.88 24.76 52.85 C 23.41 51.29 21.94 50.1 20.62 49.01 C 18.08 46.93 16.21 45.39 16.03 42.42 C 16.03 42.42 16.02 26.72 16.02 26.7 C 16.1 23.54 18 21.98 20.62 19.83 Z" fill="#030000"/><path d=" M 52.56 25.17 C 51.17 27.12 49.21 28.52 46.34 29.06 C 43.16 29.66 40.52 29.51 38.12 29.06 C 35.25 28.52 33.29 27.12 31.9 25.17 C 30.26 22.87 27.46 24.99 29 27.08 C 30.98 29.77 33.6 31.57 37.43 32.3 C 40.14 32.82 40.48 33.44 40.49 35.2 C 40.49 35.2 40.49 38.98 40.49 40.17 C 40.49 40.61 40.28 40.79 39.86 40.79 C 37.4 40.79 37.41 44.25 39.85 44.25 C 40.21 44.25 40.49 44.43 40.49 44.87 C 40.49 45.78 40.49 49.7 40.49 50.57 C 40.49 51.67 40.04 52.18 38.88 52.18 C 36.89 52.18 36.27 52.18 35.85 52.18 C 33.39 52.18 33.4 55.64 35.84 55.64 C 36.9 55.64 47.52 55.64 48.58 55.64 C 51.01 55.64 51.03 52.18 48.57 52.18 C 48.16 52.18 47.53 52.18 45.54 52.18 C 44.41 52.18 43.94 51.71 43.94 50.58 C 43.94 49.71 43.94 45.78 43.94 44.87 C 43.94 44.5 44.12 44.25 44.57 44.25 C 47 44.25 47.02 40.79 44.56 40.79 C 44.18 40.79 43.94 40.61 43.94 40.17 C 43.94 38.98 43.94 35.21 43.94 35.2 C 43.95 33.44 44.29 32.82 47 32.3 C 50.83 31.57 53.45 29.77 55.43 27.08 C 57 24.98 54.2 22.87 52.56 25.17 Z" fill="#030000"/><path d=" M 42.81 4.71 C 43.43 4.77 43.89 5.33 43.82 5.95 C 43.62 7.9 44.2 9.69 44.81 11.58 C 45.94 15.08 47.22 19.04 44.1 24.93 C 43.8 25.48 43.12 25.69 42.57 25.4 C 42.02 25.11 41.81 24.42 42.09 23.87 C 44.76 18.83 43.73 15.64 42.65 12.27 C 41.99 10.24 41.32 8.14 41.56 5.72 C 41.63 5.1 42.18 4.65 42.81 4.71 Z"/><g><path d=" M 40.22 23 C 40.03 23 39.84 22.92 39.71 22.77 C 37.69 20.36 38.44 17.91 39.1 15.74 C 39.41 14.71 39.74 13.64 39.78 12.6 C 39.79 12.24 40.06 11.94 40.46 11.97 C 40.82 11.98 41.1 12.29 41.09 12.65 C 41.05 13.86 40.7 15.01 40.36 16.12 C 39.72 18.23 39.16 20.06 40.73 21.92 C 40.96 22.2 40.93 22.61 40.65 22.84 C 40.52 22.95 40.37 23 40.22 23 Z" fill="#030000"/></g></svg>