<svg width="58.37" height="59.3" viewBox="0 0 58.37 59.3" xmlns="http://www.w3.org/2000/svg" xmlns:xlink="http://www.w3.org/1999/xlink" overflow="visible"><defs></defs><g><g><path d="M19.65 29.94 23.69 29.94C26.31 29.94 26.31 33.77 23.69 33.77L19.65 33.77C17 33.77 17 29.94 19.65 29.94Z"/></g><g><path d="M19.51 18.31 23.52 17.82C26.18 17.5 26.65 21.29 23.99 21.62L19.98 22.11C17.21 22.44 16.75 18.65 19.51 18.31Z"/></g><g><path d="M19.51 45.4 23.52 45.89C26.08 46.21 26.55 42.41 23.99 42.09L19.98 41.6C17.32 41.29 16.86 45.08 19.51 45.4Z"/></g><g><path d="M6.31 29.94 2.27 29.94C-0.55 29.94-0.55 33.77 2.27 33.77L6.31 33.77C9.05 33.77 9.05 29.94 6.31 29.94Z"/></g><g><path d="M6.46 18.31 2.45 17.82C-0.48 17.47-0.95 21.26 1.98 21.62L5.99 22.11C8.7 22.44 9.17 18.64 6.46 18.31Z"/></g><g><path d="M6.46 45.4 2.45 45.9C-0.46 46.26-0.93 42.46 1.98 42.1L5.99 41.61C8.74 41.27 9.21 45.07 6.46 45.4Z"/></g><path d="M11.62 52.09 11.62 11.55C11.62 9.87 14.05 9.87 14.05 11.55L14.05 52.09C14.05 53.96 11.62 53.96 11.62 52.09Z"/></g><path d="M56.52 55.65 54.66 55.65C54.13 55.65 53.37 55.45 53.3 54.17 52.43 38.08 54.03 36.73 46.94 23.66 46.18 22.26 45.61 20.44 45.61 18.86 45.61 17.31 46.01 16.07 48.32 16.16 50.73 16.26 52.34 16.63 56.01 18.22 58.35 19.03 59.29 16.3 57.2 15.36 53.03 13.49 48.85 12.63 45.42 12.63 43.88 12.63 43.51 10.96 44.96 10.18 46.8 9.19 47.98 7.57 47.91 5.16 47.87 4.04 47.53 2.86 46.92 2.04 44.87-0.71 40.41-0.62 38.65 2.02 38.03 2.95 37.64 4.1 37.63 5.35 37.6 7.59 38.91 9.34 40.58 10.18 42.04 10.96 41.66 12.63 40.12 12.63 36.69 12.63 32.51 13.49 28.34 15.36 26.25 16.3 27.18 19.03 29.53 18.22 33.2 16.63 34.81 16.25 37.22 16.16 39.53 16.07 39.93 17.31 39.93 18.86 39.93 20.44 39.36 22.27 38.6 23.66 31.51 36.73 33.11 38.08 32.24 54.17 32.17 55.45 31.41 55.65 30.88 55.65 29.92 55.65 29.02 55.65 29.02 55.65 28.01 55.65 27.2 56.47 27.2 57.47 27.2 58.48 28.02 59.29 29.02 59.29L56.49 59.29C57.5 59.29 58.31 58.47 58.31 57.47 58.34 56.47 57.53 55.65 56.52 55.65ZM48.27 55.65 37.31 55.65C36.67 55.65 36.34 55.15 36.36 54.48 36.84 39.6 35.97 35.98 41.62 26.73 42.75 24.88 43.31 25.69 43.97 26.73 49.61 35.98 48.75 39.6 49.23 54.48L49.23 54.48C49.24 55.15 48.91 55.65 48.27 55.65Z"/></svg>