<svg width="61.64" height="60.57" viewBox="0 0 61.64 60.57" xmlns="http://www.w3.org/2000/svg" xmlns:xlink="http://www.w3.org/1999/xlink" overflow="visible"><defs></defs><path d="M25.2 40.62 5.58 40.62C2.57 40.62 2.56 40.65 2.56 43.66L2.56 57.56C2.56 60.57 2.59 60.58 5.6 60.58L25.17 60.58C28.19 60.58 28.21 60.58 28.21 57.57L28.21 43.67C28.21 40.64 28.21 40.62 25.2 40.62ZM14.02 47.67C14.02 47.67 14.02 47.69 14.02 47.69 14.02 49.2 14.03 49.18 12.52 49.18 12.52 49.18 8.18 49.18 6.79 49.18 5.29 49.18 5.29 49.18 5.29 47.69 5.29 46.56 5.29 45.15 5.29 44.86 5.29 43.36 5.29 43.36 6.78 43.36 7.91 43.36 12.22 43.36 12.51 43.36 14.01 43.36 14.01 43.36 14.01 44.86 14.02 45.15 14.02 47.51 14.02 47.67ZM14.02 56.33C14.02 56.33 14.02 56.35 14.02 56.35 14.02 57.86 14.03 57.83 12.52 57.83 12.52 57.83 8.18 57.83 6.79 57.83 5.29 57.83 5.29 57.83 5.29 56.33 5.29 55.21 5.29 53.69 5.29 53.39 5.29 51.89 5.29 51.89 6.78 51.89 7.91 51.89 12.22 51.89 12.51 51.89 14.01 51.89 14.01 51.89 14.01 53.39 14.02 53.71 14.02 56.18 14.02 56.33ZM25.48 56.33C25.48 56.33 25.48 56.35 25.48 56.35 25.48 57.86 25.49 57.83 23.98 57.83 23.98 57.83 19.64 57.83 18.25 57.83 16.75 57.83 16.75 57.83 16.75 56.33 16.75 55.21 16.75 53.69 16.75 53.39 16.75 51.89 16.75 51.89 18.24 51.89 19.36 51.89 23.69 51.89 23.97 51.89 25.47 51.89 25.47 51.89 25.47 53.39 25.48 53.71 25.48 56.18 25.48 56.33ZM25.48 47.67C25.48 47.67 25.48 47.69 25.48 47.69 25.48 49.2 25.49 49.18 23.98 49.18 23.98 49.18 19.64 49.18 18.25 49.18 16.75 49.18 16.75 49.18 16.75 47.69 16.75 46.56 16.75 45.15 16.75 44.86 16.75 43.36 16.75 43.36 18.24 43.36 19.36 43.36 23.69 43.36 23.97 43.36 25.47 43.36 25.47 43.36 25.47 44.86 25.48 45.15 25.48 47.51 25.48 47.67Z" fill="#030000"/><g><g><path d="M15.36 30.01C14.42 30.01 13.66 30.77 13.66 31.71L13.66 35.29C13.66 36.23 14.42 36.99 15.36 36.99 16.3 36.99 17.06 36.23 17.06 35.29L17.06 31.71C17.06 30.77 16.29 30.01 15.36 30.01Z"/></g></g><g><g><path d="M23.95 30.04C24.88 29.92 25.73 30.59 25.84 31.51L26.28 35.07C26.39 36 25.73 36.85 24.8 36.96 23.87 37.07 23.02 36.41 22.91 35.48L22.47 31.93C22.36 31 23.02 30.15 23.95 30.04Z"/></g></g><g><g><path d="M15.36 22.94C14.42 22.94 13.66 22.18 13.66 21.24L13.66 17.66C13.66 16.72 14.42 15.96 15.36 15.96 16.3 15.96 17.06 16.72 17.06 17.66L17.06 21.24C17.06 22.18 16.29 22.94 15.36 22.94Z"/></g></g><g><g><path d="M23.95 22.91C24.88 23.03 25.73 22.36 25.84 21.44L26.28 17.88C26.39 16.95 25.73 16.1 24.8 15.99 23.87 15.88 23.02 16.54 22.91 17.47L22.47 21.02C22.36 21.95 23.02 22.8 23.95 22.91Z"/></g></g><g><g><path d="M6.76 30.04C5.83 29.92 4.98 30.59 4.87 31.51L4.43 35.07C4.32 36 4.98 36.85 5.91 36.96 6.84 37.07 7.69 36.41 7.8 35.48L8.24 31.93C8.35 31 7.69 30.15 6.76 30.04Z"/></g></g><g><g><path d="M6.76 22.91C5.83 23.03 4.98 22.36 4.87 21.44L4.43 17.88C4.32 16.95 4.98 16.1 5.91 15.99 6.84 15.88 7.69 16.54 7.8 17.47L8.24 21.02C8.35 21.95 7.69 22.8 6.76 22.91Z"/></g></g><path d="M23.81 25.37 1.14 25.37C0.51 25.37 0 25.88 0 26.51 0 27.14 0.51 27.65 1.14 27.65L23.81 27.65C24.44 27.65 24.95 27.14 24.95 26.51 24.95 25.88 24.44 25.37 23.81 25.37Z"/><g><path d="M23.6 0.46C23.6 0.21 23.41 0 23.17 0 22.93 0 22.75 0.2 22.75 0.46 22.75 4.09 18.78 7.34 15.08 8.83 11.8 10.15 9.98 12.03 9.63 13.31 9.56 13.55 9.69 13.81 9.91 13.89 10.14 13.96 10.37 13.82 10.44 13.58 10.68 12.73 12.18 10.99 15.38 9.71 18.43 8.47 23.61 5.14 23.6 0.46Z"/></g><g><path d="M9.9 16.26C9.89 16.26 9.88 16.26 9.86 16.26 9.62 16.27 9.42 16.09 9.42 15.85L9.4 15.5C9.39 15.27 9.55 15.04 9.81 15.05 10.05 15.04 10.25 15.22 10.26 15.46L10.27 15.81C10.28 16.04 10.12 16.23 9.9 16.26Z"/></g><g><path d="M36.06 23.39C36.05 22.93 35.67 22.55 35.21 22.55 35.21 22.55 35.2 22.55 35.2 22.55 34.73 22.56 34.35 22.94 34.36 23.41 34.36 23.43 34.34 25.5 32.63 28.33 31.51 30.18 30.63 32.74 30.54 33.88 30.5 34.35 30.85 34.76 31.32 34.8 31.34 34.8 31.37 34.8 31.39 34.8 31.83 34.8 32.2 34.46 32.24 34.02 32.3 33.22 33.07 30.89 34.09 29.22 36.08 25.93 36.06 23.5 36.06 23.39Z" fill="#030000"/><path d="M38.98 23.56C38.97 23.09 38.55 22.72 38.1 22.73 37.63 22.74 37.26 23.14 37.28 23.61 37.4 27.47 36.31 29.99 35.26 32.44 34.45 34.34 33.6 36.3 33.38 38.78 33.34 39.25 33.68 39.66 34.15 39.7 34.18 39.7 34.2 39.7 34.23 39.7 34.66 39.7 35.04 39.37 35.08 38.93 35.28 36.72 36.04 34.96 36.83 33.1 37.95 30.5 39.11 27.79 38.98 23.56Z" fill="#030000"/><path d="M42.9 23.93C42.6 19.96 39.77 17.26 36.1 17.26 32.48 17.26 29.54 20.2 29.54 23.82 29.54 25.05 29.22 25.38 28.06 25.38 27.43 25.38 26.93 25.89 26.93 26.51 26.93 27.14 27.44 27.65 28.06 27.65 29.46 27.65 31.81 27.15 31.81 23.82 31.81 21.45 33.74 19.53 36.1 19.53 38.73 19.53 40.57 21.62 40.68 24.72 40.8 27.97 40.04 30.61 39.37 32.94 38.89 34.61 38.43 36.19 38.34 37.81 38.14 41.23 38.84 44.08 40.3 45.84 40.52 46.11 40.85 46.25 41.17 46.25 41.42 46.25 41.68 46.16 41.9 45.99 42.38 45.59 42.44 44.88 42.04 44.39 40.96 43.1 40.52 40.75 40.6 37.95 40.69 35.19 43.39 30.37 42.9 23.93Z" fill="#030000"/></g><g><path d="M52.51 23.39C52.52 22.93 52.9 22.55 53.36 22.55 53.36 22.55 53.37 22.55 53.37 22.55 53.84 22.56 54.22 22.94 54.21 23.41 54.21 23.43 54.23 25.5 55.94 28.33 57.06 30.18 57.94 32.74 58.03 33.88 58.07 34.35 57.72 34.76 57.25 34.8 57.23 34.8 57.2 34.8 57.18 34.8 56.74 34.8 56.37 34.46 56.33 34.02 56.27 33.22 55.5 30.89 54.48 29.22 52.5 25.93 52.51 23.5 52.51 23.39Z" fill="#030000"/><path d="M49.6 23.56C49.61 23.09 50.03 22.72 50.48 22.73 50.95 22.74 51.32 23.14 51.3 23.61 51.18 27.47 52.27 29.99 53.32 32.44 54.13 34.34 54.98 36.3 55.2 38.78 55.24 39.25 54.9 39.66 54.43 39.7 54.4 39.7 54.38 39.7 54.35 39.7 53.92 39.7 53.54 39.37 53.5 38.93 53.3 36.72 52.54 34.96 51.75 33.1 50.63 30.5 49.47 27.79 49.6 23.56Z" fill="#030000"/><path d="M45.67 23.93C45.97 19.96 48.8 17.26 52.47 17.26 56.09 17.26 59.03 20.2 59.03 23.82 59.03 25.05 59.35 25.38 60.51 25.38 61.14 25.38 61.64 25.89 61.64 26.51 61.64 27.14 61.13 27.65 60.51 27.65 59.11 27.65 56.76 27.15 56.76 23.82 56.76 21.45 54.83 19.53 52.47 19.53 49.84 19.53 48 21.62 47.89 24.72 47.77 27.97 48.53 30.61 49.2 32.94 49.68 34.61 50.14 36.19 50.23 37.81 50.43 41.23 49.73 44.08 48.27 45.84 48.05 46.11 47.72 46.25 47.4 46.25 47.15 46.25 46.89 46.16 46.67 45.99 46.19 45.59 46.13 44.88 46.53 44.39 47.61 43.1 48.05 40.75 47.97 37.95 47.89 35.19 45.19 30.37 45.67 23.93Z" fill="#030000"/></g></svg>