<svg version="1.1" width="42.98" height="68.36" viewBox="0 0 42.98 68.36" xmlns="http://www.w3.org/2000/svg" xmlns:xlink="http://www.w3.org/1999/xlink" overflow="visible"><defs></defs><path d=" M 38.29 31.92 C 38.21 31.92 38.13 31.91 38.05 31.9 C 37.55 31.82 37.08 31.49 36.75 31.01 C 33.88 26.77 31.34 24.4 27.93 21.72 C 27.02 21.01 26.17 20.65 25.4 20.65 C 25.19 20.65 24.99 20.68 24.79 20.73 C 23.81 20.99 23.28 21.79 22.67 22.71 C 22.3 23.27 21.84 23.96 21.18 24.67 C 17.89 28.18 14.17 29.96 10.14 29.96 C 7.67 29.96 7.83 26.57 10.29 26.57 C 13.64 26.57 16.41 25.22 18.52 22.56 C 20.27 20.35 20.38 18.69 20.17 17.67 C 19.96 16.67 19.46 15.32 17.39 14.22 C 15.16 13.04 12.14 12.39 8.91 12.39 C 6.49 12.39 4.13 12.76 2.61 13.38 C 0.19 14.37 -1.18 11.28 1.33 10.24 C 3.26 9.45 5.9 9.01 8.77 9.01 C 11.48 9.01 14.2 9.41 16.41 10.13 C 17.42 10.46 18.25 10.44 18.7 9.9 C 19.42 9.06 18.74 7.88 18.28 7.27 C 15.93 4.14 12.59 3.49 10.19 3.49 C 8.34 3.49 7 3.88 6.99 3.89 C 4.72 4.71 3.49 1.56 6.02 0.67 C 7.32 0.21 8.82 0 10.41 0 C 13.53 0 17.91 0.92 21.05 5.33 C 23.3 8.49 22.88 9.97 24.82 13.77 C 25.53 15.16 26.38 16.18 27.48 17 C 32.63 20.78 35.52 23.36 38.99 28.66 C 39.11 28.84 39.21 29.02 39.3 29.19 C 39.86 30.3 39.76 31.11 38.99 31.7 C 38.81 31.84 38.56 31.92 38.29 31.92 Z" fill="#030000"/><path d=" M 41.25 55.24 C 40.7 54.57 39.88 54.34 39.22 54.89 C 38.55 55.44 38.45 56.43 39 57.1 C 40.6 58.94 41.2 62.72 36.18 64.6 C 31.44 66.36 23.92 65.73 20.28 64.07 C 18.77 63.38 17.82 62.08 17.73 60.78 C 17.6 58.92 19.24 57.43 21.66 55.85 C 24.39 54.08 26.46 51.96 27.67 49.24 C 28.31 47.8 28.58 46.1 30.26 45.51 C 32.61 44.69 35.82 43.58 35.54 38.81 C 35.34 35.25 32.72 33.23 30.42 31.45 C 29.71 30.9 29.04 30.38 28.48 29.85 C 27.21 28.64 27.39 28.32 27.29 26.84 C 27.24 25.98 26.48 25.32 25.63 25.38 C 24.77 25.43 24.11 26.18 24.16 27.04 C 24.25 28.44 23.9 29.08 23.39 29.61 C 22.82 30.2 22.08 30.78 21.29 31.38 C 19.03 33.11 16.47 35.08 16.38 38.68 C 16.26 43.41 19.47 44.59 21.82 45.45 C 24.85 46.57 25.11 47.94 23.35 50.45 C 22.76 51.29 21.71 52.14 19.99 53.2 C 16.54 55.35 14.58 57.84 14.62 60.61 C 14.64 62.37 15.19 64.77 19.16 66.66 C 23.65 68.8 32.93 68.87 37.36 67.22 C 40.23 66.15 41.89 64.88 42.55 62.9 C 44.01 58.5 41.36 55.37 41.25 55.24 Z M 28.99 33.3 C 31.08 34.92 33.06 36.44 33.2 38.94 C 33.35 41.57 32.18 42.31 30.06 43.08 C 28.65 43.59 28.07 43.4 28.03 41.82 C 27.96 39.4 27.83 36.55 27.7 33.98 C 27.66 33.05 28.44 32.88 28.99 33.3 Z M 22.63 43.24 C 20.09 42.3 18.66 41.63 18.73 38.73 C 18.79 36.26 20.7 34.79 22.72 33.24 C 23.93 32.32 24.49 32.63 24.56 33.98 C 24.69 36.56 24.82 39.43 24.89 41.85 C 24.95 43.54 24.31 43.85 22.63 43.24 Z" fill="#030000"/><path d=" M 12.3 6.44 C 12.3 7.15 11.73 7.72 11.02 7.72 C 10.31 7.72 9.74 7.14 9.74 6.44 C 9.74 5.74 10.31 5.16 11.02 5.16 C 11.73 5.16 12.3 5.73 12.3 6.44 Z" fill="#030000"/><path d=" M 12.96 18.63 C 12.96 19.65 12.14 20.47 11.12 20.47 C 10.1 20.47 9.28 19.65 9.28 18.63 C 9.28 17.61 10.11 16.79 11.12 16.79 C 12.14 16.79 12.96 17.61 12.96 18.63 Z" fill="#030000"/></svg>