<svg version="1.1" width="62.79" height="63.05" viewBox="0 0 62.79 63.05" xmlns="http://www.w3.org/2000/svg" xmlns:xlink="http://www.w3.org/1999/xlink" overflow="visible"><defs></defs><path d=" M 26.05 38.96 L 26.05 36.25 C 26.05 35.81 25.77 35.48 25.44 35.23 C 25.19 35.03 24.99 35.04 24.9 34.09 C 24.37 28.35 19.58 23.82 13.71 23.82 C 7.84 23.82 3.09 28.35 2.53 34.09 C 2.46 34.77 2.41 34.97 2 35.23 C 1.65 35.45 1.38 35.81 1.38 36.26 L 1.38 38.97 C 1.38 42.96 3.3 46.44 6.14 48.78 C 7.34 49.76 7 50.52 6.78 51.07 C 6.3 52.23 4.93 55.76 4.93 55.76 C 4.79 56.12 4.83 56.53 5.05 56.85 C 5.27 57.17 5.63 57.36 6.02 57.36 L 21.4 57.36 C 21.79 57.36 22.15 57.17 22.37 56.85 C 22.59 56.53 22.64 56.12 22.49 55.76 C 22.49 55.76 21.14 52.31 20.68 51.17 C 20.33 50.31 20.33 49.55 21.24 48.82 C 24.12 46.48 26.05 42.97 26.05 38.96 Z M 4.89 34.09 C 5.37 29.64 9.15 26.17 13.72 26.17 C 18.3 26.17 22.07 29.64 22.55 34.09 C 22.58 34.41 22.54 35.08 21.54 35.08 C 17.63 35.08 9.82 35.08 5.92 35.08 C 4.9 35.08 4.85 34.41 4.89 34.09 Z M 18.56 55.01 C 16.13 55.01 11.27 55.01 8.84 55.01 C 8.3 55.01 7.84 54.79 8.19 53.9 C 8.39 53.41 8.82 52.31 9.13 51.53 C 9.37 50.93 9.59 50.71 10.38 50.94 C 11.44 51.25 12.56 51.42 13.72 51.42 C 14.82 51.42 15.88 51.27 16.89 50.99 C 17.73 50.76 18.05 50.86 18.31 51.53 C 18.62 52.31 19.05 53.41 19.25 53.9 C 19.46 54.43 19.22 55.01 18.56 55.01 Z M 13.72 49.08 C 8.21 49.08 3.73 44.54 3.73 38.97 C 3.73 38 4.2 37.43 5.19 37.43 C 9.41 37.43 17.85 37.43 22.07 37.43 C 23.34 37.43 23.71 37.87 23.71 38.97 C 23.71 44.54 19.23 49.08 13.72 49.08 Z" fill="#030000"/><path d=" M 25.97 10.65 C 24.89 10.33 19.53 8.14 17.28 7.48 C 16.22 7.17 15.11 8.08 13.69 8.12 C 12.24 8.16 11.25 7.12 9.85 7.55 C 7.68 8.2 2.53 10.4 1.46 10.65 C 0.82 10.8 0.18 10.4 0.03 9.76 C -0.12 9.12 0.28 8.48 0.92 8.32 C 1.77 8.12 6.87 5.84 9.27 5.23 C 10.81 4.84 11.76 5.17 12.52 5.46 C 13.41 5.81 14.29 5.64 14.67 5.47 C 15.35 5.16 16.29 4.75 17.89 5.16 C 20.34 5.8 25.64 8.11 26.52 8.32 C 27.16 8.47 27.56 9.11 27.41 9.76 C 27.28 10.31 26.56 10.83 25.97 10.65 Z"/><path d=" M 13.32 14.51 C 9.28 14.51 6.21 13.57 6.09 13.53 C 5.46 13.33 5.11 12.66 5.3 12.04 C 5.5 11.41 6.16 11.06 6.79 11.25 C 6.82 11.26 9.66 12.12 13.31 12.12 C 16.97 12.12 19.81 11.26 19.84 11.25 C 20.47 11.05 21.14 11.41 21.33 12.04 C 21.52 12.67 21.17 13.34 20.55 13.53 C 20.43 13.57 17.36 14.51 13.32 14.51 Z"/><g><path d=" M 61 18.26 C 57.08 16.56 53.52 15.41 44.49 14.39 C 42.97 14.22 42.34 12.09 44.27 11.19 C 45.81 10.48 47.43 8.35 47.39 5.86 C 47.35 2.64 45.14 0.03 41.77 0 C 38.46 -0.02 35.7 2.18 35.7 5.62 C 35.7 8.3 36.99 10.21 39.01 11.37 C 40.64 12.3 40.03 14.3 38.61 14.38 C 29.58 15.4 26.02 16.55 22.1 18.25 C 18.96 19.61 20.25 23.18 23.75 21.89 C 26.37 20.93 30.99 19.71 34.14 19.73 C 35.84 19.74 37.13 20.14 37.13 22.97 C 37.13 23.19 37.14 28.67 37.14 28.85 C 37.14 30.49 36.71 31.91 35.68 33.21 L 35.68 33.21 C 34.47 34.76 33.27 36.32 32.52 37.41 C 29.14 42.27 29.59 46.4 33.85 49.68 C 34.83 50.43 35.86 51.23 36.69 51.86 C 37.83 52.73 37.97 53.4 36.67 54.4 C 32.35 57.74 29.93 59.45 29.89 59.48 C 29.01 60.13 28.83 61.37 29.48 62.25 C 29.87 62.78 30.47 63.05 31.07 63.05 C 31.48 63.05 31.89 62.92 32.25 62.66 C 32.3 62.63 35.2 60.48 39.81 56.99 C 40.88 56.18 42.37 56.18 43.44 56.99 C 48.05 60.47 50.95 62.62 51 62.66 C 51.35 62.92 51.77 63.05 52.18 63.05 C 52.79 63.05 53.38 62.77 53.77 62.25 C 54.42 61.37 54.24 60.13 53.36 59.48 C 53.32 59.45 50.74 57.54 46.58 54.4 C 45.29 53.4 45.42 52.73 46.56 51.86 C 47.48 51.16 48.42 50.43 49.4 49.68 C 53.66 46.4 54.11 42.27 50.73 37.41 C 49.97 36.31 48.76 34.73 47.53 33.16 C 46.38 31.7 45.98 30.47 45.98 28.98 C 45.98 28.85 45.97 23.13 45.98 22.97 C 45.98 20.14 47.27 19.74 48.97 19.73 C 52.12 19.72 56.75 20.93 59.37 21.89 C 62.86 23.19 64.14 19.63 61 18.26 Z M 47.47 39.66 C 49.64 42.78 49.51 44.58 46.98 46.53 C 45.75 47.47 44.57 48.38 43.44 49.25 C 42.37 50.07 40.88 50.07 39.81 49.25 C 38.68 48.38 37.49 47.48 36.27 46.53 C 33.74 44.58 33.61 42.78 35.78 39.66 C 36.66 38.39 38.22 36.38 39.67 34.55 C 40.67 33.29 42.59 33.29 43.59 34.55 C 45.03 36.39 46.59 38.4 47.47 39.66 Z"/></g></svg>