<svg width="52.48" height="53.3" viewBox="0 0 52.48 53.3" xmlns="http://www.w3.org/2000/svg" xmlns:xlink="http://www.w3.org/1999/xlink" overflow="visible"><defs></defs><g><g><path d="M19.92 21.34 24 21.34C26.64 21.34 26.64 25.21 24 25.21L19.92 25.21C17.23 25.21 17.23 21.34 19.92 21.34Z"/></g><g><path d="M19.7 10.64 23.75 10.14C26.44 9.82 26.91 13.65 24.22 13.98L20.17 14.48C17.38 14.82 16.91 10.99 19.7 10.64Z"/></g><g><path d="M19.7 36.06 23.75 36.56C26.34 36.88 26.81 33.04 24.22 32.72L20.17 32.23C17.49 31.89 17.02 35.73 19.7 36.06Z"/></g><g><path d="M6.31 21.34 2.22 21.34C-0.63 21.34-0.63 25.21 2.22 25.21L6.3 25.21C9.07 25.21 9.07 21.34 6.31 21.34Z"/></g><g><path d="M6.53 10.64 2.48 10.14C-0.49 9.79-0.96 13.62 2 13.99L6.05 14.49C8.8 14.82 9.27 10.98 6.53 10.64Z"/></g><g><path d="M6.53 36.06 2.48 36.56C-0.46 36.92-0.93 33.08 2.01 32.72L6.06 32.23C8.84 31.88 9.31 35.72 6.53 36.06Z"/></g><path d="M11.9 40.39 11.9 6.31C11.9 4.83 14.04 4.83 14.04 6.31L14.04 40.39C14.04 42.04 11.9 42.04 11.9 40.39Z"/></g><path d="M52.48 45C52.48 40.8 49.07 37.39 44.87 37.39L34.16 37.39C29.96 37.39 26.55 40.8 26.55 45L26.55 45 26.55 45.69C26.55 49.89 29.97 53.3 34.16 53.3L44.87 53.3C49.07 53.3 52.48 49.89 52.48 45.69L52.48 45 52.48 45ZM49.79 45.68C49.79 48.4 47.58 50.61 44.86 50.61L34.16 50.61C31.44 50.61 29.24 48.4 29.24 45.68L29.24 45 29.24 45C29.24 42.29 31.45 40.08 34.17 40.08L44.88 40.08C47.6 40.08 49.8 42.29 49.8 45.01L49.8 45.01 49.8 45.68Z" fill="#030000"/><path d="M47.99 4.27C47.44 3.44 46.32 3.28 45.57 3.89 45.57 3.89 43.99 5.17 41.62 7.08 41.3 7.34 40.83 7.11 40.83 6.71L40.83 1.74C40.83 0.92 40.26 0.16 39.45 0.03 38.41-0.13 37.52 0.66 37.52 1.66 37.52 1.66 37.52 25.77 37.52 32.46 37.52 34.75 40.63 35.3 40.83 32.46L40.82 14.43C40.82 12.88 41.52 11.41 42.73 10.44L47.58 6.52C48.25 5.97 48.47 4.99 47.99 4.27Z" fill="#030000"/></svg>