<svg version="1.1" width="60.07" height="60.7" viewBox="0 0 60.07 60.7" xmlns="http://www.w3.org/2000/svg" xmlns:xlink="http://www.w3.org/1999/xlink" overflow="visible"><defs></defs><g><path d=" M 51.17 26.78 C 51.17 20.95 51.17 22.26 51.17 22.26 C 51.17 17.41 48.34 18.92 48.34 15.49 C 48.34 13.65 49.24 13.81 50.96 13.81 C 53.19 13.81 58.67 13.81 58.67 13.81 C 59.44 13.81 60.06 13.19 60.06 12.42 C 60.06 11.65 59.44 11.03 58.67 11.03 C 58.3 11.03 58.26 10.75 58.26 10.58 C 58.26 10.37 58.26 9.76 58.26 9.76 C 58.26 9.38 57.95 9.06 57.56 9.06 C 57.18 9.06 56.86 9.37 56.86 9.76 C 56.86 9.76 56.86 10.36 56.86 10.56 C 56.86 10.85 56.73 11.03 56.33 11.03 C 54.2 11.03 52.2 11.03 50.83 11.03 C 48.93 11.03 48.54 9.9 48.55 8.95 C 48.55 8.06 48.56 7.22 48.56 7.15 C 48.56 4.14 49.98 2.79 53.16 2.79 C 53.16 2.79 55.33 2.79 56.38 2.79 C 56.71 2.79 56.86 2.99 56.86 3.22 C 56.86 3.42 56.86 4.03 56.86 4.03 C 56.86 4.41 57.17 4.73 57.56 4.73 C 57.94 4.73 58.26 4.42 58.26 4.03 C 58.26 4.03 58.26 3.43 58.26 3.24 C 58.26 2.96 58.39 2.79 58.67 2.79 C 59.44 2.79 60.06 2.17 60.06 1.4 C 60.06 0.63 59.44 0 58.67 0 L 53.16 0 C 48.46 0 45.77 2.6 45.77 7.15 C 45.77 7.29 45.74 11.69 45.74 11.76 C 45.74 16.55 45.1 17.13 41.03 17.3 L 19.53 17.3 C 10.64 17.3 6.06 20.99 6.06 29.07 C 6.06 36.11 3.91 42.49 0.44 45.7 C -0.12 46.22 -0.16 47.11 0.37 47.67 C 0.64 47.97 1.02 48.11 1.39 48.11 C 1.73 48.11 2.07 47.99 2.34 47.74 C 5.83 44.5 8.17 38.69 8.73 32.12 C 8.79 31.38 9.35 30.55 10.28 30.55 L 47.04 30.55 C 49.74 30.56 51.17 28.99 51.17 26.78 Z M 17.59 30.56 C 21.43 30.56 39.32 30.56 44.61 30.55 M 48.39 25.1 C 48.39 27.97 47.75 27.76 44.7 27.76 C 38.46 27.76 17.57 27.77 12.73 27.77 C 12.71 27.77 12.7 27.76 12.68 27.76 C 12.66 27.76 12.65 27.77 12.63 27.77 C 11.29 27.77 8.52 27.27 9.91 24.11 C 10.6 22.55 12.68 20.09 19.54 20.09 L 44.62 20.09 C 47.52 20.09 48.39 21.03 48.39 24.04 C 48.39 24.04 48.39 24.33 48.39 25.1 Z" fill="#030000"/><path d=" M 22.99 22.09 C 22.4 22.09 21.93 22.57 21.93 23.16 L 21.93 25.07 C 21.93 25.66 22.41 26.13 22.99 26.13 C 23.58 26.13 24.06 25.65 24.06 25.07 L 24.06 23.16 C 24.06 22.57 23.58 22.09 22.99 22.09 Z" fill="#030000"/><path d=" M 35.83 22.09 C 35.24 22.09 34.76 22.57 34.76 23.16 L 34.76 25.07 C 34.76 25.66 35.24 26.13 35.83 26.13 C 36.42 26.13 36.9 25.65 36.9 25.07 L 36.9 23.16 C 36.9 22.57 36.43 22.09 35.83 22.09 Z" fill="#030000"/></g><path d=" M 36.07 46.13 C 38.6 46.5 41.33 47.41 42.55 47.84 C 44.43 48.5 45.24 46.28 43.65 45.57 C 41.11 44.43 36.56 43.25 32.04 43 C 31.19 42.95 30.83 41.76 31.8 41.2 C 33 40.51 33.69 39.33 33.64 37.73 C 33.59 35.88 32.17 34.45 30.24 34.42 L 30.24 34.42 C 30.24 34.42 30.23 34.42 30.23 34.42 C 28.69 34.39 26.88 35.57 26.82 37.73 C 26.77 39.33 27.46 40.51 28.66 41.2 C 29.64 41.76 29.27 42.95 28.42 43 C 23.9 43.25 19.35 44.43 16.81 45.57 C 15.22 46.29 16.03 48.51 17.91 47.84 C 19.13 47.41 21.85 46.5 24.39 46.13 C 25.94 45.9 26.26 46.41 26.59 47.21 C 28.03 50.63 27.15 50.65 25.61 51.47 C 22.78 52.98 20.41 54.93 17.58 58.06 C 16.19 59.59 18.06 61.89 19.96 59.98 C 27.11 51.4 32.75 50.72 40.46 59.98 C 42.36 61.89 44.23 59.6 42.84 58.06 C 40.01 54.93 37.64 52.99 34.81 51.47 C 33.28 50.65 32.39 50.63 33.83 47.21 C 34.21 46.41 34.52 45.9 36.07 46.13 Z M 31.72 46.97 C 31.49 47.66 31.29 48.39 31.13 49.08 C 30.83 50.34 29.7 50.59 29.35 49.08 C 29.19 48.39 28.99 47.66 28.77 46.97 C 28.61 46.47 28.73 46.06 29.04 45.91 C 29.73 45.57 30.77 45.57 31.46 45.91 C 31.75 46.07 31.88 46.48 31.72 46.97 Z" fill-rule="evenodd" clip-rule="evenodd"/></svg>