<svg width="57.2" height="58.09" viewBox="0 0 57.2 58.09" xmlns="http://www.w3.org/2000/svg" xmlns:xlink="http://www.w3.org/1999/xlink" overflow="visible"><defs></defs><path d="M54.5 57.44C53.51 56.51 51.49 54.47 47.47 51.68 46.97 51.33 45.95 50.88 44.77 51.75 43 53.07 40.51 55.58 36.49 56.49 34.41 56.96 33.38 54.37 35.85 53.73 37.19 53.38 38.28 53.32 40.1 51.83 42.83 49.6 41.36 47.2 38.6 46.12 34.2 44.39 29.18 46.68 29.12 46.7 26.62 47.62 25.83 44.78 27.88 44.05 29.03 43.63 33.82 41.48 39.65 43.39 40.83 43.78 41.39 42.87 40.09 41.31 37 37.61 31.98 39.55 31.76 39.62 29.4 40.34 28.68 37.66 30.67 36.89 33.39 35.85 38.82 35.17 42.37 39.48 45.48 43.26 44.47 45.62 47.91 48.22 51.77 51.14 54.28 53.15 56.51 55.35 58.25 57.05 56.34 59.17 54.5 57.44Z" fill="#030000"/><path d="M1.62 21.78C6.4 19.07 10.89 16.41 14.45 13.99 15.11 13.59 15.83 12.52 15.68 11.16 15.59 10.31 14.57 10.15 13.47 8.9 12.54 7.84 12.08 6.83 12.08 5.07 12.08 2.33 14.06 1.77636e-15 16.58 1.77636e-15 18.51 1.77636e-15 21.47 1.19 21.49 5 21.51 8.67 19.27 8.68 19.36 11.17 19.42 12.94 20.92 13.91 21.08 17.46 21.41 25.2 21.13 53.47 21.13 54.7 21.13 59.33 16.11 59.11 16.09 54.61 16.03 39.28 16.13 25.26 16.13 21.31 16.13 19.25 14.96 19.01 13.42 19.85 8.44 22.6 6.78 23.62 3.31 25.45 0.55 26.91-1.62 23.61 1.62 21.78Z" fill-rule="evenodd" clip-rule="evenodd"/><path d="M49.13 30.7C50.05 30.7 50.39 30.93 50.39 32.01 50.39 33.75 52.82 33.75 52.82 32.01 52.82 31.12 52.81 30.55 53.55 30.55 53.98 30.55 54.18 30.33 54.18 29.48 54.18 28.7 54.02 28.46 53.62 28.46 53.2 28.46 52.82 28.05 52.82 26.95 52.82 25.23 50.39 25.23 50.39 26.95 50.39 28.07 50.2 28.27 49.14 28.27L48.68 28.27C47.67 28.27 47.08 27.11 47.69 26.3 51.36 21.38 52.48 15.67 50.59 10.57 48.13 3.95 41.22 0 32.11 0 31.4 0 30.83 0.57 30.83 1.28 30.83 1.99 31.4 2.56 32.11 2.56 40.11 2.56 46.12 5.89 48.18 11.47 49.18 14.16 49.15 17.08 48.2 19.93 47.79 21.15 45.99 20.99 45.81 19.72 45.52 17.7 44.84 15.82 43.78 14.2 41.37 10.54 37.22 8.53 32.11 8.53 31.4 8.53 30.83 9.1 30.83 9.81 30.83 10.52 31.4 11.09 32.11 11.09 36.4 11.09 39.7 12.65 41.65 15.61 42.5 16.9 43.05 18.41 43.29 20.05 43.47 21.26 41.97 21.94 41.14 21.03 38.9 18.59 35.68 17.05 32.11 17.05 31.4 17.05 30.83 17.62 30.83 18.33 30.83 19.04 31.4 19.61 32.11 19.61 36.55 19.61 40.3 22.6 41.46 26.67 41.69 27.47 41.1 28.29 40.27 28.29 39.21 28.29 39.03 28.08 39.03 26.97 39.03 25.25 36.6 25.25 36.6 26.97 36.6 28.07 36.22 28.48 35.8 28.48 35.4 28.48 35.24 28.72 35.24 29.5 35.24 30.35 35.44 30.57 35.87 30.57 36.61 30.57 36.6 31.14 36.6 32.03 36.6 33.77 39.03 33.77 39.03 32.03 39.03 30.95 39.37 30.72 40.29 30.72 40.66 30.72 41.24 30.72 41.24 30.72 42.22 30.7 49.13 30.7 49.13 30.7Z" fill="#030000"/></svg>