<svg version="1.1" width="31.89" height="65.52" viewBox="0 0 31.89 65.52" xmlns="http://www.w3.org/2000/svg" xmlns:xlink="http://www.w3.org/1999/xlink" overflow="visible"><defs></defs><path d=" M 30.13 50.82 C 29.54 50.1 28.48 50 27.76 50.59 C 27.04 51.18 27.05 52.16 27.53 52.96 C 29.47 56.13 27.92 59.72 24.51 60.99 C 19.43 62.89 13.45 62.65 9.75 60.46 C 6.18 58.34 5.75 53.94 10.52 50.93 C 14.63 48.34 17.24 48.51 19.19 44.37 C 19.91 42.84 19.97 42.16 21.78 41.53 C 24.29 40.66 27.74 39.46 27.44 34.35 C 27.22 30.53 24.42 28.37 21.95 26.46 C 21.19 25.87 20.47 25.31 19.87 24.74 C 18.51 23.45 18.7 23.1 18.6 21.51 C 18.54 20.58 17.73 19.88 16.82 19.94 C 15.89 20 15.19 20.8 15.25 21.72 C 15.34 23.22 14.97 23.91 14.42 24.48 C 13.8 25.12 13.01 25.73 12.16 26.38 C 9.74 28.23 7 30.34 6.9 34.2 C 6.77 39.27 10.22 40.54 12.73 41.46 C 15.98 42.66 16.86 44.5 11.01 47.29 C 0.32 52.39 3.26 60.05 8.18 63.12 C 13.23 66.27 20.67 66.01 25.69 64.14 C 32.13 61.74 33.45 54.91 30.13 50.82 Z M 20.42 28.44 C 22.66 30.17 24.78 31.81 24.94 34.49 C 25.1 37.31 23.85 38.1 21.58 38.93 C 20.07 39.48 19.45 39.27 19.4 37.57 C 19.33 34.98 19.19 31.92 19.05 29.17 C 18.99 28.17 19.84 27.99 20.42 28.44 Z M 13.6 39.09 C 10.88 38.09 9.34 37.37 9.42 34.25 C 9.49 31.6 11.53 30.03 13.7 28.37 C 14.99 27.38 15.6 27.72 15.68 29.17 C 15.82 31.93 15.96 35.02 16.04 37.61 C 16.09 39.42 15.4 39.76 13.6 39.09 Z" fill="#030000"/><path d=" M 19.37 5.05 C 19.37 3.92 18.46 3.01 17.33 3.01 C 16.2 3.01 15.29 3.92 15.29 5.05 C 15.29 6.24 14.58 7.65 13.55 7.71 C 13.22 7.73 12.58 7.74 12.58 6.97 C 12.58 5.74 12.58 2.05 12.58 2.05 C 12.58 0.92 11.67 0.01 10.54 0.01 C 9.42 0 8.51 0.91 8.51 2.04 C 8.51 2.04 8.51 5.71 8.51 6.94 C 8.51 7.51 8.36 7.95 7.42 7.95 C 7.11 7.95 5.81 7.95 5.81 7.95 C 4.78 7.89 4.07 6.48 4.07 5.29 C 4.07 4.16 3.16 3.25 2.03 3.25 C 0.91 3.25 0 4.17 0 5.29 C 0 6.35 0.24 7.34 0.66 8.24 C 1.59 10.23 1.12 10.66 1.12 12.76 C 1.12 15.14 1.12 20.02 1.12 20.02 C 1.12 23.18 3.69 25.75 6.85 25.75 C 10.01 25.75 12.58 23.18 12.58 20.02 C 12.58 20.02 12.58 19.64 12.58 17.38 C 12.58 16.13 13.58 15.97 14.13 15.97 C 16.4 15.97 18.15 14.13 18.24 11.86 C 18.3 10.59 17.77 9.98 18.7 8 C 19.13 7.1 19.37 6.1 19.37 5.05 Z M 8.51 20.02 C 8.51 20.93 7.77 21.67 6.86 21.67 C 5.95 21.67 5.21 20.93 5.21 20.02 C 5.21 20.02 5.21 15.54 5.21 13.28 C 5.21 12.83 5.37 12.03 6.53 12.03 C 6.69 12.03 7 12.03 7.15 12.03 C 8.28 12.03 8.52 12.52 8.52 13.31 C 8.51 15.54 8.51 20.02 8.51 20.02 Z" fill="#030000" fill-rule="evenodd" clip-rule="evenodd"/></svg>