<svg version="1.1" width="59.57" height="60.14" viewBox="0 0 59.57 60.14" xmlns="http://www.w3.org/2000/svg" xmlns:xlink="http://www.w3.org/1999/xlink" overflow="visible"><defs></defs><path d=" M 13.63 23.5 C 14.01 22.93 13.95 22.23 13.48 21.78 C 12.99 21.31 12.06 21.33 11.68 21.87 C 11.13 22.66 11.37 23.36 11.97 23.76 C 12.6 24.21 13.39 23.86 13.63 23.5 Z" fill="#020303"/><path d=" M 45.78 58.82 C 43.73 51.48 39.36 47.97 31.78 48.37 C 28.55 48.54 27.87 48.68 26.3 46.02 C 24.06 42.25 23.13 38.09 22.42 34.2 C 21.85 31.08 21.27 27.52 20.28 24.76 C 19.94 23.8 19.38 22.92 19.39 21.93 C 19.4 20.7 20.04 20.08 20.5 19.8 C 20.95 19.52 21.09 18.94 20.81 18.49 C 20.54 18.04 19.95 17.91 19.5 18.18 C 18.98 18.5 18.56 18.91 18.24 19.39 C 17.76 20.1 17.3 20.12 16.65 19.64 C 15.29 18.64 13.6 17.93 11.55 17.61 C 7.56 16.98 3.51 16.76 1.51 17.5 C 1.5 17.5 1.48 17.51 1.47 17.51 C 1.46 17.51 1.46 17.51 1.45 17.52 C 0.92 17.72 0.55 18.47 0.72 18.93 C 0.87 19.32 1.59 19.77 2.27 19.48 C 4.28 18.63 7.57 19.04 10.57 19.48 C 17.89 20.56 18.8 25.85 20.06 33.04 C 20.77 37.05 21.54 41.43 23.62 45.57 C 24.64 47.61 24.89 48.99 21.65 48.53 C 18.41 48.08 18.46 46.45 18.37 44.25 C 18.2 40.17 18.01 36.62 17.24 33.81 C 15.44 27.22 13.88 26.29 11.53 25.53 C 10.74 25.28 9.15 24.45 8.24 23.69 C 6.3 22.05 5.04 21.39 2.73 21.64 C 2.15 21.7 1.85 22.39 2.01 22.95 C 2.18 23.51 2.74 23.64 3.33 23.67 C 4.73 23.73 5.08 23.71 7.25 25.55 C 8.47 26.58 10.02 27.27 10.88 27.55 C 12.44 28.05 13.57 28.41 15.2 34.37 C 15.97 37.18 16.12 40.98 16.29 45.38 C 16.46 49.6 19.25 50.35 21.68 50.67 C 24.52 51.04 27.8 51.08 30.49 50.71 C 37.97 49.68 41.49 52.57 43.74 59.4 C 43.86 59.78 44.54 60.28 45.04 60.14 C 45.61 59.96 45.94 59.38 45.78 58.82 Z" fill="#020303"/><g><path d=" M 34.86 59.02 L 1.5 59.02 C 0.67 59.02 0 58.35 0 57.52 C 0 56.69 0.67 56.02 1.5 56.02 L 34.86 56.02 C 35.69 56.02 36.36 56.69 36.36 57.52 C 36.36 58.35 35.69 59.02 34.86 59.02 Z" fill="#020303"/></g><path d=" M 34.86 22.23 C 37.99 22.3 40.51 21.07 42.33 18.58 C 44.95 14.99 43.37 12.66 41.09 11.57 C 37.04 9.63 31.18 10.22 28.67 11.36 C 26.81 12.21 25.62 9.77 27.54 8.89 C 30.73 7.43 36.12 7.18 40.08 8.3 C 41.99 8.84 42.75 7.16 41.61 5.75 C 37.99 1.31 32.07 3.26 32.01 3.28 C 30.19 3.98 28.98 1.56 31.01 0.76 C 33.7 -0.31 39.9 -1.04 43.76 4.09 C 46.7 8 46.88 11.88 49.54 13.63 C 50.94 14.55 53.65 15.46 57.85 16.1 C 60.47 16.5 59.74 19.15 57.92 19 C 53.3 18.62 48.91 16.15 47.44 16.73 C 45.96 17.32 45.89 18.62 44.53 20.16 C 41.65 23.44 38.49 25.02 34.8 24.93 C 32.74 24.91 32.88 22.18 34.86 22.23 Z" fill="#030000"/><path d=" M 58.53 41.16 C 58.2 40.75 57.6 40.7 57.19 41.03 C 56.78 41.36 56.73 41.96 57.06 42.37 C 57.07 42.38 58.04 43.62 57.49 45.28 C 57.28 45.91 56.52 46.5 55.35 46.93 C 52.47 48 47.93 47.85 45.83 46.61 C 44.98 46.1 43.96 45.28 43.95 44.22 C 43.94 43.24 44.78 42.14 46.27 41.2 C 48.6 39.74 49.76 39.09 50.87 36.74 C 51.28 35.87 51.42 34.83 52.45 34.47 C 53.88 33.97 55.83 33.29 55.66 30.39 C 55.53 28.22 53.95 27 52.54 25.91 C 52.11 25.58 51.7 25.26 51.36 24.93 C 50.59 24.2 50.69 24 50.64 23.1 C 50.6 22.57 50.14 22.17 49.63 22.21 C 49.11 22.24 48.71 22.7 48.74 23.22 C 48.79 24.07 48.58 24.46 48.27 24.78 C 47.92 25.14 47.47 25.49 46.99 25.86 C 45.62 26.91 44.06 28.11 44 30.3 C 43.93 33.18 45.88 33.89 47.31 34.42 C 49.15 35.1 49.32 36.14 48.05 37.5 C 47.43 38.16 46.52 38.77 45.25 39.58 C 43.16 40.9 42.02 42.55 42.04 44.24 C 42.06 45.31 42.55 46.87 44.86 48.24 C 46.32 49.1 48.56 49.55 50.86 49.55 C 52.66 49.55 54.5 49.28 56.01 48.71 C 57.76 48.06 58.89 47.08 59.29 45.87 C 60.19 43.22 58.6 41.25 58.53 41.16 Z M 51.67 27.06 C 52.94 28.04 54.14 28.97 54.23 30.49 C 54.32 32.09 53.61 32.54 52.32 33.01 C 51.46 33.32 51.11 33.2 51.08 32.24 C 51.04 30.77 50.96 29.03 50.88 27.47 C 50.86 26.9 51.34 26.8 51.67 27.06 Z M 47.81 33.1 C 46.27 32.53 45.39 32.12 45.44 30.36 C 45.48 28.86 46.64 27.96 47.87 27.02 C 48.6 26.46 48.95 26.65 48.99 27.47 C 49.07 29.04 49.15 30.79 49.2 32.25 C 49.22 33.28 48.82 33.47 47.81 33.1 Z" fill="#030000"/><path d=" M 35.74 16.66 C 35.52 17.55 34.61 18.08 33.73 17.86 C 32.84 17.64 32.31 16.73 32.53 15.85 C 32.76 14.96 33.66 14.43 34.54 14.65 C 35.43 14.88 35.96 15.78 35.74 16.66 Z" fill="#030000"/><path d=" M 37.41 5.74 C 37.26 6.32 36.67 6.67 36.09 6.52 C 35.51 6.37 35.16 5.78 35.31 5.2 C 35.46 4.62 36.05 4.27 36.63 4.42 C 37.21 4.56 37.56 5.15 37.41 5.74 Z" fill="#030000"/></svg>