<svg version="1.1" width="64.16" height="60.8" viewBox="0 0 64.16 60.8" xmlns="http://www.w3.org/2000/svg" xmlns:xlink="http://www.w3.org/1999/xlink" overflow="visible"><defs></defs><path d=" M 33.02 7.19 C 31.64 6.79 24.83 4 21.97 3.16 C 20.62 2.77 19.21 3.93 17.41 3.98 C 15.57 4.03 14.3 2.72 12.53 3.25 C 9.77 4.07 3.22 6.87 1.86 7.19 C 1.04 7.38 0.23 6.88 0.04 6.06 C -0.15 5.24 0.35 4.43 1.17 4.24 C 2.25 3.99 8.74 1.08 11.78 0.31 C 13.74 -0.19 14.95 0.23 15.91 0.61 C 17.04 1.05 18.16 0.83 18.65 0.62 C 19.52 0.23 20.7 -0.3 22.74 0.23 C 25.86 1.04 32.58 3.98 33.71 4.25 C 34.52 4.44 35.03 5.26 34.84 6.07 C 34.67 6.76 33.77 7.41 33.02 7.19 Z"/><path d=" M 16.93 12.1 C 11.8 12.1 7.9 10.91 7.73 10.85 C 6.93 10.6 6.49 9.75 6.73 8.95 C 6.98 8.15 7.83 7.7 8.63 7.95 C 8.67 7.96 12.28 9.06 16.93 9.06 C 21.58 9.06 25.19 7.96 25.22 7.95 C 26.02 7.7 26.87 8.15 27.12 8.95 C 27.37 9.75 26.92 10.6 26.12 10.85 C 25.96 10.9 22.07 12.1 16.93 12.1 Z"/><path d=" M 32.02 35.54 L 32.02 32.3 C 32.02 31.77 31.68 31.38 31.29 31.08 C 30.99 30.85 30.75 30.86 30.64 29.72 C 30.01 22.86 24.28 17.45 17.27 17.45 C 10.26 17.45 4.58 22.87 3.9 29.72 C 3.82 30.53 3.75 30.77 3.27 31.07 C 2.85 31.33 2.53 31.77 2.53 32.3 L 2.53 35.54 C 2.53 40.3 4.82 44.47 8.22 47.26 C 9.65 48.44 9.26 49.34 8.99 50 C 8.42 51.39 6.78 55.61 6.78 55.61 C 6.61 56.04 6.66 56.53 6.92 56.91 C 7.18 57.29 7.61 57.52 8.08 57.52 L 26.47 57.52 C 26.93 57.52 27.37 57.29 27.63 56.91 C 27.89 56.53 27.95 56.04 27.77 55.61 C 27.77 55.61 26.16 51.48 25.6 50.12 C 25.18 49.09 25.18 48.19 26.26 47.31 C 29.71 44.53 32.02 40.33 32.02 35.54 Z M 6.72 29.72 C 7.29 24.4 11.81 20.25 17.27 20.25 C 22.74 20.25 27.25 24.4 27.83 29.72 C 27.87 30.1 27.82 30.9 26.62 30.9 C 21.95 30.9 12.61 30.9 7.94 30.9 C 6.74 30.9 6.68 30.1 6.72 29.72 Z M 23.06 54.72 C 20.15 54.72 14.34 54.72 11.44 54.72 C 10.79 54.72 10.25 54.45 10.67 53.39 C 10.9 52.8 11.42 51.5 11.79 50.56 C 12.07 49.85 12.35 49.58 13.29 49.86 C 14.56 50.23 15.9 50.43 17.28 50.43 C 18.59 50.43 19.86 50.25 21.07 49.92 C 22.07 49.65 22.45 49.76 22.77 50.57 C 23.14 51.51 23.65 52.81 23.89 53.4 C 24.14 54.03 23.85 54.72 23.06 54.72 Z M 17.28 47.63 C 10.7 47.63 5.34 42.21 5.34 35.55 C 5.34 34.38 5.9 33.71 7.09 33.71 C 12.13 33.71 22.22 33.71 27.27 33.71 C 28.78 33.71 29.22 34.24 29.22 35.55 C 29.22 42.21 23.86 47.63 17.28 47.63 Z" fill="#030000"/><path d=" M 62.19 44.42 C 61.53 43.62 60.35 43.51 59.55 44.16 C 58.76 44.82 58.76 45.91 59.3 46.8 C 61.46 50.34 59.73 54.34 55.94 55.75 C 50.28 57.86 43.62 57.6 39.5 55.16 C 35.53 52.8 35.05 47.89 40.36 44.55 C 44.93 41.67 48.75 40.36 48.99 33.85 C 49.06 31.96 49.5 31.12 51.51 30.42 C 54.31 29.45 58.15 28.11 57.82 22.42 C 57.57 18.17 54.45 15.75 51.7 13.63 C 50.85 12.97 50.05 12.35 49.38 11.72 C 47.87 10.28 48.07 9.89 47.96 8.12 C 47.89 7.09 46.99 6.3 45.97 6.37 C 44.94 6.44 44.16 7.33 44.22 8.36 C 44.32 10.03 43.91 10.8 43.29 11.43 C 42.6 12.14 41.72 12.82 40.77 13.55 C 38.07 15.62 35.02 17.97 34.91 22.26 C 34.77 27.91 38.62 29.29 41.41 30.35 C 42.99 30.95 44.27 31.47 44.82 32.53 C 45.8 34.4 45.89 37.52 40.85 40.13 C 29.14 46.2 32.25 54.71 37.73 58.13 C 43.35 61.64 51.64 61.35 57.23 59.27 C 64.42 56.58 65.9 48.97 62.19 44.42 Z M 49.98 15.84 C 52.48 17.77 54.84 19.6 55.01 22.58 C 55.19 25.72 53.8 26.6 51.26 27.52 C 49.58 28.13 48.89 27.9 48.84 26.01 C 48.76 23.12 48.6 19.72 48.45 16.65 C 48.39 15.53 49.34 15.34 49.98 15.84 Z M 42.39 27.7 C 39.36 26.58 37.65 25.78 37.73 22.31 C 37.8 19.36 40.08 17.61 42.49 15.75 C 43.93 14.64 44.61 15.03 44.7 16.64 C 44.86 19.71 45.02 23.15 45.1 26.04 C 45.16 28.06 44.39 28.44 42.39 27.7 Z" fill="#030000"/></svg>