<svg width="53.2" height="61.83" viewBox="0 0 53.2 61.83" xmlns="http://www.w3.org/2000/svg" xmlns:xlink="http://www.w3.org/1999/xlink" overflow="visible"><defs></defs><g><path d="M23.39 14.09C22.35 15.2 22.56 16.35 23.41 17.13 24.32 17.96 25.62 17.59 26.08 17.08 26.81 16.26 26.86 15.15 26.24 14.34 25.58 13.5 24.11 13.33 23.39 14.09Z" fill="#030000"/><path d="M35.99 26.77C37.68 26.61 50.2 24.1 52.14 22.97 52.98 22.48 53.44 21.55 53.06 20.65 52.67 19.75 51.66 19.4 50.74 19.73 47.37 20.9 34.16 24.05 27.06 22.64 25.79 22.39 24.73 21.53 24.28 20.1 23.67 18.21 22.19 17.09 20.8 16.37 20.25 16.08 20 14.99 21.04 13.96 22.55 12.46 23.74 12.08 25.54 12.34 27.67 12.65 28.57 14.7 28.67 15.16 29.02 16.83 28.14 17.98 27.66 18.42 26.95 19.08 26.9 20.2 27.56 20.91 27.98 21.37 29.32 21.68 30.06 21.01 31.6 19.58 32.73 17.34 32.12 14.43 31.89 13.34 31.21 11.64 29.27 10.4L29.27 10.4C28.78 10.12 29.1 9.77 29.1 9.77L29.1 9.77C30.19 8.9 30.77 8 30.82 7.93 31.17 7.38 31.01 6.64 30.46 6.29 29.91 5.93 29.17 6.1 28.81 6.65 28.8 6.67 27.32 8.91 24.81 9 24.74 9 24.68 9.01 24.61 9.03 24.3 9.03 24 9.05 23.71 9.09L23.71 9.08C23.17 9.1 23.07 8.86 23.08 8.69 23.09 8.64 23.09 8.59 23.1 8.54 23.1 8.54 23.11 8.53 23.11 8.53L23.11 8.53C23.28 7.35 23.15 6.46 23.14 6.39 23.04 5.74 22.44 5.29 21.78 5.39 21.12 5.49 20.68 6.09 20.77 6.74 20.78 6.77 21.12 9.41 19.3 11.14 19.16 11.26 19.03 11.39 18.92 11.51 17.7 12.82 16.72 14.99 16.46 18.91 16.43 19.41 16.65 19.61 17.06 19.09 18.76 16.91 21.43 20 21.23 23.39 21.15 24.79 20.64 26.13 19.96 27.67 18.91 30.02 17.84 32.68 18.22 36.45 19.33 47.56 25.58 51.27 31.32 55.03 33.98 56.78 36.73 58.58 39 61.11 39.64 61.82 40.86 62.16 41.74 61.37 42.46 60.72 42.27 59.48 41.62 58.75 39.96 56.9 38.15 55.44 36.32 54.14 34.92 53.15 33.55 52 33.05 50.25 32.77 49.25 32.59 48.09 32.49 46.83 32.26 44 32.7 43.39 35.86 42.78 38.24 42.33 40.64 41.48 42.79 40.01 43.6 39.46 43.8 38.36 43.26 37.56 42.71 36.75 41.61 36.54 40.81 37.09 39.07 38.28 37.07 38.97 35.07 39.33 32.86 39.74 32.4 39.37 32.43 37.45 32.46 35.56 33.36 35.23 34.9 34.95 38.28 34.33 42.03 33.92 45.53 32.32 46.41 31.92 46.84 30.9 46.46 30 46.07 29.1 45.06 28.75 44.14 29.08 39.36 30.8 36.62 31.3 35.12 31.37 33.96 31.43 32.41 31.49 32.06 29.29 31.82 27.74 33.58 27 35.99 26.77ZM28.88 45.71C29.01 48.22 28.38 48.82 26.7 47.09 26.06 46.43 25.46 45.72 24.91 44.93 23.94 43.53 24.25 42.65 25.98 42.9 28.43 43.25 28.77 43.3 28.88 45.71ZM28.9 37.25C28.88 39.05 28.64 39.69 26.58 39.4 25.87 39.3 25.24 39.19 24.72 39.09 22.71 38.69 22.02 38.06 21.78 36.53 21.52 34.76 22.49 34.46 24.03 34.68 24.75 34.78 25.66 34.89 26.72 34.97 28.64 35.13 28.93 35.4 28.9 37.25ZM28.6 29.95C28.82 31.42 28.02 31.51 27.23 31.46 25.97 31.37 24.94 31.24 24.21 31.13 23 30.95 22.65 30.29 23.18 29.09 23.49 28.39 23.8 27.69 24.06 26.95 24.47 25.81 24.96 25.79 26.02 26.01 27.65 26.36 27.8 26.81 28.12 27.81 28.34 28.47 28.49 29.18 28.6 29.95Z" fill="#030000"/></g><g><path d="M10.52 0.28 4.05 0.28C1.82 0.28 0 2.1 0 4.33L0 10.65C0 12.88 1.82 14.7 4.05 14.7L10.52 14.7C12.75 14.7 14.57 12.88 14.57 10.65L14.57 4.33C14.57 2.1 12.75 0.28 10.52 0.28ZM12.79 10.65C12.79 11.9 11.77 12.92 10.52 12.92L4.05 12.92C2.8 12.92 1.78 11.9 1.78 10.65L1.78 4.33C1.78 3.08 2.8 2.06 4.05 2.06L10.52 2.06C11.77 2.06 12.79 3.08 12.79 4.33L12.79 10.65Z" fill="#030000"/></g><g><path d="M43.97 0 37.5 0C35.27 0 33.45 1.82 33.45 4.05L33.45 10.37C33.45 12.6 35.27 14.42 37.5 14.42L43.97 14.42C46.2 14.42 48.02 12.6 48.02 10.37L48.02 4.05C48.02 1.82 46.21 0 43.97 0ZM46.24 10.37C46.24 11.62 45.22 12.64 43.97 12.64L37.5 12.64C36.25 12.64 35.23 11.62 35.23 10.37L35.23 4.05C35.23 2.8 36.25 1.78 37.5 1.78L43.97 1.78C45.22 1.78 46.24 2.8 46.24 4.05L46.24 10.37Z" fill="#030000"/></g></svg>