<svg version="1.1" width="59.86" height="60.73" viewBox="0 0 59.86 60.73" xmlns="http://www.w3.org/2000/svg" xmlns:xlink="http://www.w3.org/1999/xlink" overflow="visible"><defs></defs><path d=" M 33 9.86 C 32.79 8.84 31.81 8.19 30.79 8.39 C 28.43 8.86 27.49 8.04 26.66 7.32 C 20.74 2.14 16.84 0.26 16.68 0.19 C 15.74 -0.25 14.63 0.14 14.18 1.08 C 13.87 1.74 14.1 3.12 15.07 3.58 C 15.08 3.58 15.28 3.69 15.62 3.88 C 15.82 3.99 15.85 4.26 15.76 4.4 C 15.66 4.55 15.38 5.01 15.38 5.01 C 15.14 5.31 15.31 6.93 15.65 7.12 C 15.88 7.25 17.25 6.68 17.5 6.34 C 17.5 6.34 17.77 5.88 17.87 5.74 C 17.98 5.59 18.17 5.46 18.48 5.67 C 19.76 6.55 21.34 7.73 23.2 9.29 C 24.19 10.12 24.31 11.2 24.13 11.94 C 23.94 12.73 22.88 13.35 21.69 13.37 C 20.52 13.39 18.59 12.93 16.68 12.36 C 16.21 12.22 16.2 11.92 16.25 11.7 C 16.28 11.54 16.45 11.06 16.45 11.06 C 16.65 10.4 16.16 9.03 15.81 8.97 C 15.49 8.91 14.26 9.68 14.06 10.34 L 13.87 10.96 C 13.77 11.27 13.48 11.33 13.16 11.21 C 12.56 10.98 12.03 10.79 11.64 10.64 C 10.67 10.26 9.58 10.73 9.2 11.7 C 9.08 12 9.04 12.32 9.08 12.62 C 9.17 13.28 9.6 13.87 10.25 14.13 C 10.82 14.35 15.58 15.98 18.97 16.9 C 19.71 17.1 20.68 17.41 20.81 18 C 20.97 18.74 20.73 19.17 18.82 19.29 C 14.08 19.59 10.56 21.55 1.87 21.55 C 0.84 21.53 0 22.37 0 23.41 C 0 24.45 0.84 25.29 1.88 25.29 C 8.11 25.29 11.74 24.47 14.66 23.81 C 21.51 22.27 24.47 23.12 24.83 29.59 C 25 32.64 24.89 36.04 24.83 38.8 C 24.79 40.93 24.08 42.67 22.65 43.82 C 21.14 45.04 19.06 45.48 16.91 45.02 C 12.5 44.08 9.6 45.39 4.79 47.54 C 3.9 47.94 2.93 48.37 1.86 48.84 C 0.91 49.25 0.47 50.35 0.88 51.31 C 1.29 52.26 2.4 52.7 3.35 52.29 C 4.44 51.82 5.43 51.37 6.33 50.97 C 10.85 48.94 12.92 48.01 16.13 48.7 C 16.92 48.87 17.7 48.95 18.47 48.95 C 19.92 48.96 19.97 49.79 19.24 50.68 C 17.73 52.54 16.02 54.64 14.24 57.96 C 14.09 58.24 14.02 58.54 14.02 58.84 C 14.02 59.51 14.38 60.16 15.01 60.5 C 15.93 60.99 17.06 60.64 17.55 59.73 C 19.15 56.73 20.67 54.86 22.14 53.05 C 26.71 47.43 28.91 44.15 28.91 38.45 C 28.91 38.45 28.91 32.22 28.91 29.14 C 28.91 23.77 27.25 21.53 24.71 19.58 C 23.83 18.9 23.74 16.89 24.69 16.44 C 25.86 15.88 26.8 15.01 27.36 13.93 C 27.95 12.8 29.01 12.3 29.83 12.27 C 30.35 12.25 30.9 12.19 31.51 12.07 C 32.55 11.87 33.21 10.86 33 9.86 Z" fill="#020303"/><path d=" M 57.21 11.14 L 55.11 13.65 C 54.13 14.84 54.31 16.23 55.58 17.28 C 57.53 18.89 58.37 21.68 55.39 24.79 C 54.68 25.54 53.89 26.26 53.34 28.4 C 53.03 29.61 52.47 30.71 51.69 31.66 C 49.71 34.06 46.62 31.52 48.61 29.12 C 50.15 27.26 49.89 24.83 48.83 23.96 C 48.04 23.31 46.96 23.53 46.47 24.12 L 43.15 28.14 C 41.27 30.42 38.19 27.87 40.07 25.6 L 43.37 21.61 C 44.2 20.6 44.09 19.64 43.03 18.77 L 41.78 17.74 C 40.79 16.92 39.89 17 39.09 17.98 L 36.77 20.79 C 34.8 23.18 31.72 20.64 33.69 18.25 L 46.71 2.47 C 49.1 -0.42 53.4 -0.83 56.29 1.56 C 59.18 3.94 59.6 8.24 57.21 11.14 Z M 45.28 15.44 C 46.97 16.83 48.01 15.97 48.64 15.2 L 54.12 8.59 C 56.62 5.57 52.28 1.99 49.79 5.01 L 44.28 11.64 C 43.38 12.73 43.53 13.98 44.65 14.91 L 45.28 15.44 Z" fill="#030000" fill-rule="evenodd" clip-rule="evenodd"/><g><path d=" M 52.82 60.41 L 43.24 60.41 C 39.35 60.41 36.19 57.25 36.19 53.36 L 36.19 43.53 C 36.19 39.64 39.35 36.48 43.24 36.48 L 52.82 36.48 C 56.71 36.48 59.87 39.64 59.87 43.53 L 59.87 53.36 C 59.86 57.25 56.7 60.41 52.82 60.41 Z M 43.77 39.97 C 41.53 39.97 39.72 41.79 39.72 44.02 L 39.72 52.86 C 39.72 55.09 41.53 56.91 43.77 56.91 L 52.28 56.91 C 54.52 56.91 56.33 55.09 56.33 52.86 L 56.33 44.02 C 56.33 41.79 54.51 39.97 52.28 39.97 L 43.77 39.97 Z" fill="#030000"/></g></svg>