<svg version="1.1" width="64.31" height="64.4" viewBox="0 0 64.31 64.4" xmlns="http://www.w3.org/2000/svg" xmlns:xlink="http://www.w3.org/1999/xlink" overflow="visible"><defs></defs><path d=" M 50.83 23.13 C 59.67 19.45 63.92 11.99 64.12 11.63 C 64.5 10.94 64.26 10.08 63.57 9.7 C 62.89 9.32 62.02 9.56 61.63 10.25 C 61.6 10.31 59.06 14.74 53.96 18.2 C 51.85 19.63 50.32 19 51.83 17.18 C 56.9 11.05 58.09 4.95 58.51 2.39 C 58.71 1.15 58.24 0.1 57.17 0.01 C 56.14 -0.09 55.58 0.95 55.36 1.97 C 53.96 8.64 52.28 11.19 49.49 14.73 C 44.31 21.32 40.67 28.16 40.6 39.9 C 40.59 41.3 40.02 41.55 39.12 41.42 C 37.65 41.2 36.14 41.05 34.63 40.96 C 33.46 40.9 32.95 39.25 34.3 38.48 C 35.96 37.53 36.91 35.9 36.85 33.69 C 36.66 27.49 27.63 27.5 27.44 33.69 C 27.37 35.9 28.32 37.53 29.99 38.48 C 31.34 39.25 30.83 40.9 29.66 40.96 C 28.15 41.04 26.64 41.2 25.17 41.42 C 24.27 41.55 23.7 41.3 23.69 39.9 C 23.62 28.16 19.98 21.33 14.8 14.73 C 12.02 11.19 10.34 8.63 8.93 1.97 C 8.72 0.94 8.16 -0.09 7.13 0.01 C 6.06 0.1 5.59 1.15 5.79 2.39 C 6.21 4.95 7.39 11.05 12.47 17.18 C 13.98 19 12.45 19.64 10.34 18.2 C 5.24 14.73 2.7 10.31 2.67 10.25 C 2.29 9.56 1.41 9.31 0.73 9.7 C 0.04 10.08 -0.2 10.95 0.18 11.63 C 0.38 11.99 4.63 19.44 13.47 23.13 C 15.79 24.1 16.6 24.7 17 25.64 C 17.42 26.63 15.62 27.01 14.15 26.64 C 8.35 25.14 4.97 21.75 4.92 21.69 C 4.38 21.13 3.48 21.11 2.91 21.65 C 2.34 22.2 2.32 23.1 2.87 23.66 C 3.1 23.9 7.99 28.9 16.39 29.98 C 17.76 30.16 18.61 30.34 18.85 31.32 C 19.08 32.27 17.12 32.6 16.94 32.63 C 14.36 32.93 11.95 34.01 10.25 35.75 C 9.7 36.31 9.71 37.22 10.28 37.76 C 10.82 38.29 11.89 38.15 12.29 37.73 C 13.49 36.5 15.24 35.71 17.13 35.47 C 18.83 35.24 19.71 35.87 19.87 37.6 C 20.01 39.16 20.02 39.59 19.97 40.6 C 19.91 42.01 19.68 42.48 18.21 42.9 C 16.44 43.4 14.88 43.96 13.66 44.51 C 11.46 45.5 12.58 48.56 15.18 47.65 C 16.86 47.06 20.62 45.8 24.12 45.29 C 26.26 44.98 26.73 45.67 27.07 46.56 C 28.62 50.62 27.93 50.53 25.81 51.66 C 21.9 53.75 18.65 56.45 14.72 60.75 C 12.78 62.88 15.46 65.72 17.7 63.68 C 23.76 56.41 28.4 54.15 32.17 54.15 C 35.94 54.15 40.58 56.41 46.64 63.68 C 48.88 65.72 51.56 62.88 49.62 60.75 C 45.7 56.45 42.44 53.74 38.53 51.66 C 36.41 50.53 35.53 50.7 37.27 46.56 C 37.64 45.68 38.08 44.97 40.22 45.29 C 43.72 45.8 47.48 47.06 49.16 47.65 C 51.76 48.56 52.88 45.5 50.68 44.51 C 49.46 43.96 47.9 43.41 46.13 42.9 C 44.66 42.48 44.44 42.02 44.37 40.6 C 44.33 39.59 44.33 39.16 44.47 37.6 C 44.63 35.86 45.5 35.24 47.21 35.47 C 49.1 35.72 50.85 36.51 52.05 37.73 C 52.45 38.14 53.52 38.29 54.06 37.76 C 54.63 37.21 54.64 36.31 54.09 35.75 C 52.39 34.01 49.98 32.92 47.4 32.63 C 47.22 32.61 45.26 32.27 45.49 31.32 C 45.72 30.34 46.57 30.16 47.95 29.98 C 56.34 28.9 61.23 23.9 61.47 23.66 C 62.01 23.09 62 22.19 61.43 21.65 C 60.86 21.11 59.96 21.13 59.42 21.69 C 59.36 21.75 55.99 25.14 50.19 26.64 C 48.73 27.01 46.93 26.63 47.34 25.64 C 47.71 24.7 48.51 24.1 50.83 23.13 Z M 34.19 46.46 C 33.87 47.42 33.81 47.69 33.54 48.28 C 32.81 49.88 31.52 49.96 30.76 48.28 C 30.49 47.67 30.43 47.43 30.11 46.46 C 29.89 45.78 30.06 45.21 30.48 45 C 31.44 44.52 32.65 44.43 33.81 45 C 34.24 45.21 34.41 45.78 34.19 46.46 Z" fill="#030000"/></svg>