<svg width="57.6" height="59.63" viewBox="0 0 57.6 59.63" xmlns="http://www.w3.org/2000/svg" xmlns:xlink="http://www.w3.org/1999/xlink" overflow="visible"><defs></defs><path d="M22.23 10.01C22.07 13.26 21.68 15.96 21.11 18.21 20.39 21.02 18.79 20.19 19.38 17.01 19.58 15.95 19.73 14.88 19.81 13.81 20.17 9.38 20.25 7.59 20.33 4.83 20.41 2.09 17.34 2.01 17.26 4.74 17.18 7.45 17.17 9.21 16.75 13.56 16.35 17.8 15.03 19.17 14.83 15.45 14.42 7.48 13.66 4.32 12.7 1.44 11.88-1 9.01-0.11 9.77 2.34 10.65 5.18 11.72 10.91 11.78 16.08 11.81 18.46 10.68 18.7 10.07 16.25 8.32 9.17 5.99 5.78 5.89 5.64 4.31 3.39 1.81 5.14 3.38 7.4 3.4 7.43 5.5 10.52 7.1 16.99 7.68 19.29 8.36 21.66 9.43 23.39 10.11 24.47 9.12 25.42 8.4 24.44 7.56 23.3 6.86 22.03 5.96 20.13 4.7 17.42 3.3 16.1 2.16 15.48 0.52 14.59-0.79 16.51 0.57 17.78 1.57 18.72 2.61 19.75 3.21 21.25 4.82 25.29 6.84 28.1 9.43 29.39 11.33 30.34 12.03 30.41 12.2 32.96 12.21 33.03 12.18 56.54 12.18 56.54 12.18 60.72 17.13 60.56 17.12 56.54 17.12 56.54 17.16 36.85 17.16 32.17 17.16 30.59 17.64 29.49 19.09 28.34 22.03 25.99 24.79 20.86 25.31 10.16 25.42 7.6 22.36 7.45 22.23 10.01Z" fill="#030000"/><path d="M56.94 33.41C56.45 33.41 56 32.93 56 31.64 56 29.62 53.15 29.62 53.15 31.64 53.15 32.95 52.93 33.18 51.68 33.18L51.14 33.18C49.95 33.18 49.27 31.82 49.98 30.87 54.28 25.09 55.6 18.4 53.38 12.41 50.5 4.64 42.4 0 31.7 0 30.87 0 30.2 0.67 30.2 1.5 30.2 2.33 30.87 3 31.7 3 41.08 3 48.14 6.91 50.56 13.45 51.73 16.61 51.7 20.03 50.59 23.37 50.11 24.8 48 24.62 47.78 23.12 47.44 20.75 46.64 18.54 45.39 16.64 42.57 12.36 37.71 10 31.7 10 30.87 10 30.2 10.67 30.2 11.5 30.2 12.33 30.87 13 31.7 13 36.73 13 40.6 14.83 42.89 18.3 43.89 19.82 44.53 21.58 44.81 23.51 45.02 24.93 43.26 25.72 42.29 24.66 39.66 21.8 35.89 20 31.7 20 30.87 20 30.2 20.67 30.2 21.5 30.2 22.33 30.87 23 31.7 23 36.91 23 41.31 26.51 42.67 31.29 42.94 32.23 42.25 33.19 41.27 33.19 40.03 33.19 39.81 32.95 39.81 31.65 39.81 29.63 36.96 29.63 36.96 31.65 36.96 32.94 36.51 33.42 36.02 33.42 35.55 33.42 35.36 33.71 35.36 34.62 35.36 35.61 35.6 35.87 36.1 35.87 36.96 35.87 36.96 36.54 36.96 37.58 36.96 39.62 39.81 39.62 39.81 37.58 39.81 36.31 40.21 36.04 41.29 36.04 41.73 36.04 42.16 36.04 42.4 36.04L42.4 36.04C43.56 36.04 44.51 36.98 44.51 38.15L44.51 44.91C44.51 47.12 43.53 49.21 41.83 50.61L41.8 50.63C40.3 51.87 38.76 53.15 37.7 54.53 37.32 55.04 37.41 55.76 37.92 56.14 38.13 56.3 38.37 56.38 38.62 56.38 38.97 56.38 39.31 56.22 39.54 55.93 40.43 54.76 41.88 53.56 43.27 52.41 43.91 51.88 44.51 52.14 44.51 52.94 44.51 54.09 44.51 57.53 44.51 57.53 44.51 58.53 45.19 59.45 46.17 59.61 47.42 59.81 48.51 58.85 48.51 57.64 48.51 57.64 48.51 54.12 48.51 52.94 48.51 52.05 49.19 51.94 49.75 52.41 51.14 53.57 52.59 54.76 53.48 55.93 53.71 56.23 54.05 56.38 54.4 56.38 54.64 56.38 54.89 56.3 55.1 56.14 55.61 55.76 55.7 55.03 55.32 54.53 54.27 53.15 52.72 51.86 51.22 50.63L51.19 50.61C49.49 49.2 48.51 47.11 48.51 44.91L48.51 38.15C48.51 36.99 49.45 36.04 50.62 36.04L51.68 36.04C52.76 36.04 53.16 36.31 53.16 37.58 53.16 39.62 56.01 39.62 56.01 37.58 56.01 36.54 56 35.87 56.87 35.87 57.37 35.87 57.61 35.61 57.61 34.62 57.6 33.69 57.41 33.41 56.94 33.41Z" fill="#030000"/></svg>