<svg version="1.1" width="61.49" height="60.92" viewBox="0 0 61.49 60.92" xmlns="http://www.w3.org/2000/svg" xmlns:xlink="http://www.w3.org/1999/xlink" overflow="visible"><defs></defs><path d=" M 27.15 19.16 C 27.8 18.43 27.73 17.32 27 16.66 C 25.31 15.15 25.39 13.99 25.47 12.95 C 26.01 5.56 25.21 1.57 25.18 1.4 C 24.98 0.44 24.05 -0.17 23.09 0.02 C 22.41 0.16 21.56 0.81 21.71 2.11 C 22.16 6.03 22.22 7.84 22.02 11.47 C 21.96 12.69 21.21 13.39 20.56 13.67 C 19.86 13.98 18.8 13.53 18.1 12.64 C 17.42 11.77 16.67 10.06 16.02 8.3 C 15.51 6.94 14.88 5 14.47 3.52 C 14.21 2.58 13.23 2.02 12.29 2.29 C 11.99 2.37 11.74 2.53 11.53 2.73 C 11.09 3.17 10.88 3.83 11.06 4.47 C 11.21 5.02 12.67 9.54 13.92 12.59 C 14.78 14.7 15.83 15.9 16.74 17.17 C 17.78 18.62 16.63 18.94 15.52 18.89 C 14.81 18.86 12.97 18.94 12.08 19.04 C 8.97 19.38 7.91 20.23 1.77 20.11 C 0.79 20.11 0 20.92 0 21.9 C 0 22.88 0.79 23.65 1.77 23.67 C 6.46 23.75 6.17 23.63 8.15 23.33 C 14.52 22.37 17.39 22.68 17.73 28.78 C 17.89 31.65 17.73 40.27 17.73 40.27 C 17.73 42.28 17.02 43.91 15.68 45 C 14.26 46.15 12.3 46.56 10.28 46.13 C 7.22 45.48 4.93 45.97 2.13 47.09 C -0.61 48.18 0.77 51.45 3.4 50.39 C 5.74 49.45 7.36 49.12 9.55 49.59 C 10.29 49.75 11.03 49.83 11.75 49.83 C 13.12 49.84 13.16 50.62 12.47 51.46 C 11.05 53.21 9.43 55.19 7.77 58.31 C 7.63 58.58 7.56 58.86 7.56 59.14 C 7.56 59.77 7.9 60.38 8.5 60.7 C 9.37 61.16 10.44 60.83 10.89 59.97 C 12.4 57.15 13.83 55.39 15.22 53.68 C 19.52 48.39 21.6 45.3 21.6 39.93 C 21.6 39.93 21.6 31.24 21.6 28.34 C 21.6 24.82 20.84 22.73 19.57 21.16 C 18.42 19.75 19.8 17.42 20.91 17.23 C 22.09 17.03 23.07 17.54 23.56 18.15 C 23.87 18.53 24.23 18.91 24.66 19.3 C 25.38 19.96 26.51 19.89 27.15 19.16 Z"/><path d=" M 56.42 22.24 L 34.98 22.24 C 29.97 22.24 29.96 22.28 29.96 27.29 L 29.96 55.9 C 29.96 60.91 30 60.91 35.01 60.91 L 56.39 60.91 C 61.4 60.91 61.43 60.92 61.43 55.91 L 61.43 27.3 C 61.43 22.29 61.43 22.24 56.42 22.24 Z M 43.42 36.81 C 43.42 36.82 43.42 36.84 43.42 36.84 C 43.42 39.34 43.44 39.31 40.93 39.31 C 40.93 39.31 39.3 39.31 36.98 39.31 C 34.49 39.31 34.49 39.31 34.49 36.83 C 34.49 34.96 34.49 29.77 34.49 29.27 C 34.49 26.78 34.49 26.78 36.97 26.78 C 38.84 26.78 40.44 26.77 40.91 26.77 C 43.41 26.77 43.41 26.78 43.41 29.26 C 43.42 29.77 43.42 36.55 43.42 36.81 Z M 43.42 53.88 C 43.42 53.89 43.42 53.91 43.42 53.91 C 43.42 56.41 43.44 56.38 40.93 56.38 C 40.93 56.38 39.3 56.38 36.98 56.38 C 34.49 56.38 34.49 56.38 34.49 53.9 C 34.49 52.03 34.49 46.84 34.49 46.34 C 34.49 43.85 34.49 43.85 36.97 43.85 C 38.84 43.85 40.44 43.84 40.91 43.84 C 43.41 43.84 43.41 43.85 43.41 46.33 C 43.42 46.85 43.42 53.62 43.42 53.88 Z M 56.89 53.88 C 56.89 53.89 56.89 53.91 56.89 53.91 C 56.89 56.41 56.91 56.38 54.4 56.38 C 54.4 56.38 52.77 56.38 50.45 56.38 C 47.96 56.38 47.96 56.38 47.96 53.9 C 47.96 52.03 47.96 46.84 47.96 46.34 C 47.96 43.85 47.96 43.85 50.44 43.85 C 52.31 43.85 53.91 43.84 54.38 43.84 C 56.88 43.84 56.88 43.85 56.88 46.33 C 56.89 46.85 56.89 53.62 56.89 53.88 Z M 56.89 36.81 C 56.89 36.82 56.89 36.84 56.89 36.84 C 56.89 39.34 56.91 39.31 54.4 39.31 C 54.4 39.31 52.77 39.31 50.45 39.31 C 47.96 39.31 47.96 39.31 47.96 36.83 C 47.96 34.96 47.96 29.77 47.96 29.27 C 47.96 26.78 47.96 26.78 50.44 26.78 C 52.31 26.78 53.91 26.77 54.38 26.77 C 56.88 26.77 56.88 26.78 56.88 29.26 C 56.89 29.77 56.89 36.55 56.89 36.81 Z"/><path d=" M 36.65 18.19 L 36.64 17.22 C 36.62 16.04 35.91 15.47 34.85 14.59 C 33.52 13.5 31.86 12.15 31.28 9.1 C 31.06 7.92 32.69 7.53 32.94 8.78 C 33.36 10.99 34.44 12.06 35.56 12.99 C 36.27 13.58 36.65 13.23 36.65 12.54 C 36.65 10.56 36.65 6.5 36.65 6.5 C 36.65 5.18 38.34 5.18 38.34 6.5 C 38.34 6.5 38.34 10.54 38.34 12.54 C 38.34 13.33 38.66 13.63 39.38 13.03 C 40.51 12.09 41.61 11.02 42.03 8.79 C 42.26 7.58 43.92 7.87 43.69 9.11 C 43.12 12.16 41.46 13.51 40.13 14.6 C 39.08 15.46 38.4 16.02 38.34 17.13 L 38.34 18.21 C 38.34 19.49 36.65 19.49 36.65 18.19 Z"/><path d=" M 54.43 18.19 L 54.42 17.22 C 54.4 16.04 53.69 15.47 52.63 14.59 C 51.3 13.5 49.64 12.15 49.06 9.1 C 48.84 7.92 50.47 7.53 50.72 8.78 C 51.14 10.99 52.22 12.06 53.34 12.99 C 54.05 13.58 54.43 13.23 54.43 12.54 C 54.43 10.56 54.43 6.5 54.43 6.5 C 54.43 5.18 56.12 5.18 56.12 6.5 C 56.12 6.5 56.12 10.54 56.12 12.54 C 56.12 13.33 56.44 13.63 57.16 13.03 C 58.29 12.09 59.39 11.02 59.81 8.79 C 60.05 7.58 61.7 7.87 61.47 9.11 C 60.9 12.16 59.24 13.51 57.91 14.6 C 56.86 15.46 56.18 16.02 56.12 17.13 L 56.12 18.21 C 56.12 19.49 54.43 19.49 54.43 18.19 Z"/></svg>