<svg width="40.75" height="56.74" viewBox="0 0 40.75 56.74" xmlns="http://www.w3.org/2000/svg" xmlns:xlink="http://www.w3.org/1999/xlink" overflow="visible"><defs></defs><path d="M31.58 37.72 8.95 37.72C5.47 37.72 5.46 37.75 5.46 41.23L5.46 53.26C5.46 56.74 5.49 56.74 8.97 56.74L31.55 56.74C35.03 56.74 35.05 56.74 35.05 53.27L35.05 41.24C35.06 37.76 35.06 37.72 31.58 37.72ZM18.68 43.86C18.68 43.86 18.68 43.88 18.68 43.88 18.68 45.62 18.69 45.59 16.96 45.59 16.96 45.59 11.96 45.59 10.35 45.59 8.62 45.59 8.62 45.59 8.62 43.87 8.62 42.57 8.62 42.95 8.62 42.6 8.62 40.87 8.62 40.87 10.34 40.87 11.64 40.87 16.62 40.87 16.95 40.87 18.69 40.87 18.69 40.87 18.69 42.6 18.68 42.96 18.68 43.68 18.68 43.86ZM18.68 51.86C18.68 51.86 18.68 51.88 18.68 51.88 18.68 53.62 18.69 53.59 16.96 53.59 16.96 53.59 11.96 53.59 10.35 53.59 8.62 53.59 8.62 53.59 8.62 51.87 8.62 50.57 8.62 50.83 8.62 50.48 8.62 48.75 8.62 48.75 10.34 48.75 11.64 48.75 16.62 48.75 16.95 48.75 18.69 48.75 18.69 48.75 18.69 50.48 18.68 50.83 18.68 51.68 18.68 51.86ZM31.91 51.86C31.91 51.86 31.91 51.88 31.91 51.88 31.91 53.62 31.92 53.59 30.18 53.59 30.18 53.59 25.17 53.59 23.56 53.59 21.83 53.59 21.83 53.59 21.83 51.87 21.83 50.57 21.83 50.83 21.83 50.48 21.83 48.75 21.83 48.75 23.55 48.75 24.85 48.75 29.83 48.75 30.16 48.75 31.9 48.75 31.9 48.75 31.9 50.48 31.91 50.83 31.91 51.68 31.91 51.86ZM31.91 43.86C31.91 43.86 31.91 43.88 31.91 43.88 31.91 45.62 31.92 45.59 30.18 45.59 30.18 45.59 25.17 45.59 23.56 45.59 21.83 45.59 21.83 45.59 21.83 43.87 21.83 42.57 21.83 42.95 21.83 42.6 21.83 40.87 21.83 40.87 23.55 40.87 24.85 40.87 29.83 40.87 30.16 40.87 31.9 40.87 31.9 40.87 31.9 42.6 31.91 42.96 31.91 43.68 31.91 43.86Z" fill="#030000"/><g><g><path d="M20.23 27.16C19.26 27.16 18.48 27.95 18.48 28.91L18.48 32.62C18.48 33.59 19.27 34.37 20.23 34.37 21.2 34.37 21.99 33.58 21.99 32.62L21.99 28.91C21.99 27.95 21.2 27.16 20.23 27.16Z"/></g></g><g><g><path d="M31.1 27.19C32.06 27.07 32.94 27.76 33.06 28.72L33.51 32.4C33.63 33.36 32.94 34.24 31.98 34.36 31.02 34.48 30.14 33.79 30.02 32.83L29.57 29.15C29.46 28.18 30.14 27.31 31.1 27.19Z"/></g></g><g><g><path d="M20.23 19.85C19.26 19.85 18.48 19.06 18.48 18.1L18.48 14.39C18.48 13.42 19.27 12.64 20.23 12.64 21.2 12.64 21.99 13.43 21.99 14.39L21.99 18.1C21.99 19.06 21.2 19.85 20.23 19.85Z"/></g></g><g><g><path d="M31.1 19.82C32.06 19.94 32.94 19.25 33.06 18.3L33.51 14.62C33.63 13.66 32.94 12.78 31.98 12.66 31.02 12.54 30.14 13.22 30.02 14.19L29.57 17.87C29.46 18.83 30.14 19.7 31.1 19.82Z"/></g></g><g><g><path d="M9.36 27.19C8.4 27.07 7.52 27.76 7.4 28.72L6.95 32.4C6.83 33.36 7.52 34.24 8.48 34.36 9.44 34.48 10.32 33.79 10.44 32.83L10.89 29.15C11 28.18 10.32 27.31 9.36 27.19Z"/></g></g><g><g><path d="M9.36 19.82C8.4 19.94 7.52 19.25 7.4 18.3L6.95 14.62C6.83 13.66 7.52 12.78 8.48 12.66 9.44 12.54 10.32 13.22 10.44 14.19L10.89 17.87C11 18.83 10.32 19.7 9.36 19.82Z"/></g></g><path d="M36.95 22.36 3.45 22.36C2.79 22.36 2.27 22.89 2.27 23.54 2.27 24.19 2.79 24.72 3.45 24.72L36.94 24.72C37.6 24.72 38.12 24.19 38.12 23.54 38.13 22.89 37.6 22.36 36.95 22.36Z"/><g><path d="M13.71 15.62C13.69 15.62 13.67 15.62 13.65 15.62 13.25 15.57 12.97 15.2 13.02 14.81L13.09 14.21C13.13 13.81 13.47 13.47 13.9 13.58 14.31 13.63 14.59 14 14.54 14.4L14.46 14.99C14.42 15.36 14.09 15.64 13.71 15.62Z"/></g><g><path d="M15.1 11.95C14.96 11.95 14.81 11.91 14.68 11.82 14.36 11.59 14.28 11.14 14.51 10.82 16.55 7.97 19.6 7.09 22.75 6.56 23.67 6.4 26.18 5.67 27.31 4.98 28.31 4.37 29.11 5.51 28.11 6.16 26.84 6.98 24.15 7.78 22.88 7.99 19.99 8.49 17.38 9.26 15.67 11.66 15.54 11.85 15.32 11.95 15.1 11.95Z"/></g><path d="M35.11 10.14 35.11 9.36C35.09 8.42 34.53 7.96 33.68 7.26 32.62 6.39 31.29 5.31 30.83 2.87 30.65 1.92 31.96 1.61 32.15 2.61 32.49 4.38 33.35 5.23 34.24 5.97 34.81 6.44 35.11 6.16 35.11 5.61 35.11 4.03 35.11 0.78 35.11 0.78 35.11-0.27 36.46-0.27 36.46 0.78 36.46 0.78 36.46 4.01 36.46 5.61 36.46 6.24 36.72 6.48 37.29 6 38.19 5.25 39.07 4.4 39.41 2.61 39.6 1.64 40.92 1.88 40.74 2.86 40.29 5.3 38.96 6.38 37.9 7.25 37.06 7.94 36.52 8.39 36.47 9.27L36.47 10.13C36.46 11.17 35.11 11.17 35.11 10.14Z"/><path d="M4.3 10.14 4.3 9.36C4.28 8.42 3.72 7.96 2.87 7.26 1.8 6.39 0.47 5.31 0.02 2.87-0.16 1.92 1.15 1.61 1.34 2.61 1.68 4.38 2.54 5.23 3.43 5.97 4 6.45 4.3 6.17 4.3 5.62 4.3 4.04 4.3 0.79 4.3 0.79 4.3-0.26 5.65-0.26 5.65 0.79 5.65 0.79 5.65 4.02 5.65 5.62 5.65 6.25 5.91 6.49 6.48 6.01 7.38 5.26 8.26 4.41 8.6 2.62 8.79 1.65 10.11 1.89 9.93 2.87 9.47 5.31 8.14 6.39 7.08 7.26 6.24 7.95 5.7 8.4 5.65 9.28L5.65 10.14C5.65 11.17 4.3 11.17 4.3 10.14Z"/></svg>