<svg version="1.1" width="55.49" height="55.95" viewBox="0 0 55.49 55.95" xmlns="http://www.w3.org/2000/svg" xmlns:xlink="http://www.w3.org/1999/xlink" overflow="visible"><defs></defs><g><path d=" M 17.6 31.82 C 22.79 35.5 33.29 35.5 38.93 30.94 C 42.42 28.11 45.33 23.33 45.24 17.5 C 45.11 7.94 38.6 0.37 28.46 0.01 C 18.19 -0.34 10.55 6.84 10.25 16.18 C 10.02 23.18 12.6 28.28 17.6 31.82 Z M 14.06 15.66 C 14.69 8.01 21.47 3.51 28.31 3.73 C 34.91 3.94 41.39 9.05 41.34 17.47 C 41.31 23.21 38.67 27.59 34.1 29.45 C 30.23 31.02 26.33 31.15 22.86 30.04 C 17.08 28.19 13.5 22.43 14.06 15.66 Z"/></g><path d=" M 27.82 17.19 C 26.96 17.19 26.26 17.4 26.26 19.66 C 26.26 22.56 26.8 22.93 27.86 22.93 C 28.99 22.93 29.32 22.5 29.32 19.66 C 29.33 17.34 28.78 17.19 27.82 17.19 Z" fill="#030000" fill-rule="evenodd" clip-rule="evenodd"/><path d=" M 21.7 17 C 21.7 17.97 20.91 18.75 19.95 18.75 C 18.98 18.75 18.2 17.96 18.2 17 C 18.2 16.03 18.99 15.25 19.95 15.25 C 20.91 15.24 21.7 16.03 21.7 17 Z" fill-rule="evenodd" clip-rule="evenodd"/><path d=" M 33.49 7.96 C 33.49 9.5 31 10.76 27.93 10.76 C 24.86 10.76 22.37 9.51 22.37 7.96 C 22.37 6.41 24.86 5.16 27.93 5.16 C 31 5.16 33.49 6.41 33.49 7.96 Z" fill-rule="evenodd" clip-rule="evenodd"/><path d=" M 37.56 17 C 37.56 17.97 36.78 18.75 35.81 18.75 C 34.84 18.75 34.06 17.96 34.06 17 C 34.06 16.03 34.84 15.25 35.81 15.25 C 36.77 15.24 37.56 16.03 37.56 17 Z" fill-rule="evenodd" clip-rule="evenodd"/><path d=" M 55.26 40.36 C 53.35 34.68 52.35 33.61 52.03 33.26 C 50.61 31.72 49.88 31.37 46.42 30.29 C 44.38 29.66 43.35 32.6 45.37 33.31 C 48.25 34.32 48.77 34.44 49.69 35.43 C 49.83 35.59 50.63 36.6 52.24 41.39 C 52.45 42 52.12 42.51 51.84 42.66 C 51.52 42.83 51.01 43.1 50.43 43.35 C 49.27 43.83 48.89 43.58 48.67 42.31 C 48.47 41.13 48.43 40.76 48.25 39.47 C 47.96 37.39 45.21 37.68 45.44 39.76 C 45.74 42.42 46.13 45.5 46.42 50.42 C 46.51 52 46.59 52.72 44.59 52.72 C 41.32 52.72 16.03 52.8 12.77 52.8 C 11.14 52.8 10.88 51.97 10.89 50.58 C 10.91 47.31 10.73 43.45 9.55 39.61 C 8.95 37.65 5.98 38.32 6.43 40.32 C 6.61 41.12 6.77 41.92 6.91 42.72 C 7 43.22 6.85 44.08 6.05 43.84 C 5.28 43.61 4.55 43.35 4.11 43.23 C 3.43 43.04 3.08 42.4 3.23 41.61 C 3.46 40.4 3.77 39.16 4.16 37.92 C 5.1 34.92 7 34.4 9.8 33.93 C 11.82 33.6 11.31 30.45 9.28 30.78 C 5.95 31.33 2.58 32.26 1.11 36.96 C 0.69 38.31 0.34 39.68 0.09 41.01 C -0.37 43.43 0.96 45.66 3.24 46.3 C 3.88 46.48 5.26 46.99 6.34 47.31 C 7.4 47.62 7.53 48.42 7.67 49.07 C 7.77 49.54 7.71 50.74 7.59 51.86 C 7.35 54 8.19 55.98 11.39 55.98 C 11.39 55.98 41.3 55.91 45.61 55.91 C 49.98 55.91 49.48 53.45 49.3 50.2 C 49.24 49.2 49.18 47.63 51.05 46.6 C 51.89 46.14 52.8 45.77 53.29 45.52 C 55.09 44.55 55.93 42.35 55.26 40.36 Z"/><path d=" M 31.38 41.89 C 31.38 43.58 30.01 44.95 28.32 44.95 C 26.63 44.95 25.26 43.58 25.26 41.89 C 25.26 40.2 26.63 38.83 28.32 38.83 C 30.02 38.83 31.38 40.2 31.38 41.89 Z" fill-rule="evenodd" clip-rule="evenodd"/></svg>