<svg version="1.1" width="57.21" height="56.34" viewBox="0 0 57.21 56.34" xmlns="http://www.w3.org/2000/svg" xmlns:xlink="http://www.w3.org/1999/xlink" overflow="visible"><defs></defs><g><path d=" M 12.04 51.99 C 20.52 58.01 37.67 58.01 46.89 50.55 C 52.6 45.93 57.34 38.12 57.21 28.59 C 56.98 12.98 46.34 0.6 29.77 0.02 C 13 -0.56 0.51 11.18 0.02 26.44 C -0.35 37.87 3.87 46.2 12.04 51.99 Z M 6.25 25.58 C 7.27 13.08 18.35 5.74 29.53 6.09 C 40.31 6.43 50.9 14.79 50.82 28.53 C 50.77 37.9 46.46 45.06 38.99 48.1 C 32.67 50.67 26.3 50.87 20.62 49.06 C 11.19 46.06 5.34 36.65 6.25 25.58 Z"/></g><path d=" M 28.73 28.08 C 27.33 28.08 26.19 28.43 26.19 32.11 C 26.19 36.84 27.07 37.45 28.81 37.45 C 30.66 37.45 31.2 36.75 31.2 32.11 C 31.19 28.34 30.3 28.08 28.73 28.08 Z" fill="#030000" fill-rule="evenodd" clip-rule="evenodd"/><path d=" M 18.73 27.77 C 18.73 29.35 17.45 30.63 15.87 30.63 C 14.29 30.63 13 29.35 13 27.77 C 13 26.19 14.28 24.91 15.87 24.91 C 17.44 24.9 18.73 26.18 18.73 27.77 Z" fill-rule="evenodd" clip-rule="evenodd"/><path d=" M 37.99 13.08 C 37.99 15.6 33.92 17.65 28.91 17.65 C 23.9 17.65 19.83 15.6 19.83 13.08 C 19.83 10.55 23.89 8.51 28.91 8.51 C 33.93 8.51 37.99 10.55 37.99 13.08 Z" fill-rule="evenodd" clip-rule="evenodd"/><path d=" M 44.64 27.77 C 44.64 29.35 43.36 30.63 41.78 30.63 C 40.2 30.63 38.92 29.35 38.92 27.77 C 38.92 26.19 40.2 24.91 41.78 24.91 C 43.35 24.9 44.64 26.18 44.64 27.77 Z" fill-rule="evenodd" clip-rule="evenodd"/></svg>