<svg version="1.1" width="59.36" height="59.11" viewBox="0 0 59.36 59.11" xmlns="http://www.w3.org/2000/svg" xmlns:xlink="http://www.w3.org/1999/xlink" overflow="visible"><defs></defs><path d=" M 28.18 7.97 C 28.18 7.97 22.47 7.97 19.99 7.97 C 17.9 7.97 17.42 7.37 17.42 5.76 C 17.42 2.91 17.42 1.31 17.42 1.31 C 17.42 0.35 17.36 -4.44089e-16 15.69 -4.44089e-16 C 13.98 -4.44089e-16 13.96 0.35 13.96 1.31 C 13.96 1.31 13.96 2.91 13.96 5.76 C 13.96 7.39 13.39 7.97 11.62 7.97 C 9.05 7.97 3.21 7.97 3.21 7.97 C 2.04 7.97 2.04 9.7 3.21 9.7 C 3.21 9.7 5.52 9.7 7.06 9.7 C 8.64 9.7 8.83 10.27 9.1 11.24 C 9.65 13.19 11.03 14.79 12.85 15.62 C 13.85 16.08 13.97 16.52 13.97 17.24 C 13.97 18.68 13.97 19.08 13.97 19.08 C 13.97 19.76 14.84 21.4 15.35 22.3 C 15.56 22.67 15.86 22.64 16.09 22.24 C 16.6 21.33 17.44 19.75 17.44 19.08 C 17.44 17.38 17.44 18.88 17.44 17.27 C 17.44 16.36 17.76 15.99 18.55 15.64 C 20.41 14.79 21.82 13.14 22.34 11.12 C 22.55 10.29 23 9.72 24.21 9.72 C 25.8 9.72 28.19 9.72 28.19 9.72 C 29.44 9.7 29.44 7.97 28.18 7.97 Z" fill="#030000"/><path d=" M 58.07 19.73 C 57.58 19.72 56.97 19.68 56.33 19.68 C 54.87 19.68 54.43 19.14 54.43 17.78 C 54.43 17.52 54.58 17.32 54.92 17.32 C 56.54 17.32 56.54 14.99 54.92 14.99 C 54.61 14.99 54.43 14.75 54.43 14.56 C 54.43 12.85 52.1 12.85 52.1 14.56 C 52.1 14.85 51.81 14.99 51.61 14.99 C 49.84 14.99 49.84 17.32 51.61 17.32 C 51.86 17.32 52.06 17.52 52.06 17.82 C 52.06 19.01 51.94 19.54 50.02 19.44 C 44.6 19.17 36.64 18.71 32.58 18.87 C 27.24 19.08 25.2 21.22 24.99 21.47 C 24.57 21.95 24.61 22.68 25.08 23.11 C 25.2 23.22 28.1 25.77 32.85 25.77 C 36.15 25.77 41.6 26.46 43.46 27.23 C 46.34 28.42 46.32 30.97 49.89 30.97 C 52.06 30.97 52.04 31.56 52.04 33.03 C 52.04 39.81 52.04 57.85 52.04 57.85 C 52.11 59.63 54.41 59.42 54.41 57.86 C 54.41 57.86 54.41 33.5 54.41 23.87 C 54.41 22.95 54.52 21.95 56.38 22.01 C 57.25 22.04 57.9 22.06 57.98 22.06 C 59.85 22.15 59.75 19.79 58.07 19.73 Z M 50.35 28.41 C 47.69 28.41 48.17 26.59 44.41 24.86 C 42.09 23.79 36.11 23.21 32.86 23.21 C 31.59 23.21 30.49 22.99 29.57 22.69 C 28.57 22.36 28.35 21.75 29.58 21.42 C 30.4 21.2 31.42 21.03 32.68 20.98 C 36.64 20.82 44.74 21.23 50.2 21.56 C 51.66 21.65 52.06 21.84 52.06 23.38 C 52.06 24.18 52.06 25.79 52.06 26.59 C 52.06 28.08 52.05 28.41 50.35 28.41 Z"/><g><path d=" M 16.33 24.48 C 11.33 24.44 7.62 27.91 7.47 32.4 C 7.36 35.76 8.7 38.23 11.12 39.91 C 14.11 41.99 18.74 41.44 21.37 39.49 C 23.11 38.2 24.45 35.83 24.41 33.03 C 24.35 28.43 21.42 24.52 16.33 24.48 Z M 15.95 31.66 C 16.53 31.66 16.85 31.76 16.85 33.14 C 16.85 34.85 16.65 35.1 15.97 35.1 C 15.33 35.1 15.01 34.88 15.01 33.14 C 15.01 31.79 15.43 31.66 15.95 31.66 Z M 10 31.46 C 10 30.82 10.52 30.3 11.16 30.3 C 11.8 30.3 12.32 30.82 12.32 31.46 C 12.32 32.1 11.8 32.63 11.16 32.63 C 10.52 32.63 10 32.1 10 31.46 Z M 18.92 37.86 C 17.66 38.15 14.2 38.15 12.95 37.86 C 11.97 37.63 11.39 36.92 11.39 35.96 C 11.39 35.23 12.41 35.23 12.41 35.96 C 12.41 36.45 12.66 36.74 13.18 36.86 C 14.32 37.13 17.62 37.11 18.69 36.86 C 19.21 36.74 19.46 36.44 19.46 35.96 C 19.46 35.2 20.48 35.2 20.48 35.96 C 20.48 36.92 19.89 37.63 18.92 37.86 Z M 20.62 32.63 C 19.98 32.63 19.46 32.11 19.46 31.46 C 19.46 30.82 19.98 30.3 20.62 30.3 C 21.26 30.3 21.79 30.82 21.79 31.46 C 21.79 32.1 21.26 32.63 20.62 32.63 Z"/></g><path d=" M 29.71 44.11 C 29.67 43.9 29.64 43.68 29.6 43.45 C 29.56 43.22 29.4 42.83 28.86 42.76 C 27.99 42.64 26.19 42.71 24.71 41.82 C 23.98 41.38 24.58 40.48 25.32 40.92 C 25.77 41.19 26.44 41.46 27.58 41.55 C 28.75 41.65 29.28 40.94 28.69 39.62 C 27.97 37.99 26.01 37.28 26 37.28 C 25.2 36.92 25.74 35.95 26.37 36.24 C 26.79 36.43 28.64 37.12 29.7 39.17 C 29.91 39.58 30.3 39.49 30.37 38.73 C 30.52 36.92 28.66 36.12 28.58 36.08 C 27.76 35.65 28.23 34.7 29.01 35.07 C 30 35.53 31.68 36.76 31.46 38.85 C 31.38 39.63 31.2 40.31 30.93 40.87 C 30.8 41.13 30.51 41.95 30.64 42.66 C 30.74 43.18 30.81 43.65 30.87 44.09 C 30.96 44.79 29.91 45.08 29.71 44.11 Z" fill="#030000"/><path d=" M 1.76 44.11 C 1.8 43.9 1.83 43.68 1.87 43.45 C 1.91 43.22 2.07 42.83 2.61 42.76 C 3.48 42.64 5.28 42.71 6.76 41.82 C 7.49 41.38 6.89 40.48 6.15 40.92 C 5.7 41.19 5.03 41.46 3.89 41.55 C 2.72 41.65 2.17 40.98 2.78 39.62 C 3.5 37.99 5.46 37.28 5.47 37.28 C 6.27 36.92 5.73 35.95 5.1 36.24 C 4.68 36.43 2.83 37.12 1.77 39.17 C 1.56 39.58 1.17 39.49 1.1 38.73 C 0.95 36.92 2.81 36.12 2.89 36.08 C 3.71 35.65 3.24 34.7 2.46 35.07 C 1.47 35.53 -0.21 36.76 0.01 38.85 C 0.09 39.63 0.27 40.31 0.54 40.87 C 0.67 41.13 0.96 41.95 0.83 42.66 C 0.73 43.18 0.66 43.65 0.6 44.09 C 0.51 44.79 1.56 45.08 1.76 44.11 Z" fill="#030000"/><path d=" M 27.1 56.72 C 24.1 53.62 21.67 51.89 18.57 50.56 C 17.75 50.21 17.34 49.83 17.34 48.49 C 17.34 46.91 17.68 46.78 19.98 46.8 C 21.19 46.81 23.52 46.69 24.32 46.59 C 26.91 46.26 26.27 43.6 24.09 43.96 C 21.55 44.37 9.92 44.25 7.23 43.77 C 5.29 43.42 4.54 45.97 6.91 46.42 C 8.07 46.64 10.13 46.8 11.48 46.8 C 13.78 46.8 14.13 46.91 14.13 48.49 C 14.13 49.83 13.72 50.21 12.9 50.56 C 9.8 51.89 7.38 53.62 4.37 56.72 C 3.08 58.05 4.68 60.15 6.44 58.5 C 10.52 53.94 13.3 52.61 15.73 52.61 C 18.16 52.61 20.95 53.94 25.03 58.5 C 26.79 60.16 28.38 58.05 27.1 56.72 Z" fill-rule="evenodd" clip-rule="evenodd"/></svg>