<svg width="61.74" height="62.51" viewBox="0 0 61.74 62.51" xmlns="http://www.w3.org/2000/svg" xmlns:xlink="http://www.w3.org/1999/xlink" overflow="visible"><defs></defs><path d="M61.03 19.51C61.03 19.51 45.19 7.43 43.58 6.26 41.99 5.1 41.56 4.67 41.56 2.26 41.56-0.76 37.86-0.76 37.86 2.26 37.86 4.45 37.74 4.87 35.53 6.49 34 7.61 19.16 18.95 19.16 18.95 17.32 20.37 18.92 22.76 20.96 21.28 21.58 20.83 22.15 20.36 23.13 19.6 24.04 18.89 24.46 19.21 24.46 20.23L24.46 60.79C24.46 63.08 27.42 63.08 27.42 60.79L27.42 20.23C27.42 17.01 28.47 15.45 31.81 12.88 39.56 6.92 39.56 6.92 47.6 12.88 50.98 15.39 51.99 17.01 51.99 20.23L51.99 60.79C51.99 63.08 54.95 63.08 54.95 60.79L54.95 20.23C54.95 19.29 55.52 18.99 56.37 19.63 57.09 20.17 59.23 21.84 59.23 21.84 61.01 23.21 62.76 20.81 61.03 19.51Z" fill="#030000"/><path d="M19.92 45.22 19.92 43.15C19.92 42.81 19.71 42.57 19.46 42.37 19.27 42.22 19.11 42.23 19.05 41.5 18.65 37.12 14.99 33.67 10.52 33.67 6.05 33.67 2.42 37.12 1.99 41.5 1.94 42.02 1.9 42.17 1.59 42.36 1.32 42.53 1.12 42.8 1.12 43.14L1.12 45.21C1.12 48.25 2.58 50.9 4.75 52.69 5.66 53.44 5.41 54.02 5.24 54.44 4.87 55.33 3.83 58.02 3.83 58.02 3.58 58.65 3.85 59.24 4.66 59.24L16.39 59.24C17.06 59.24 17.5 58.72 17.22 58.02 17.22 58.02 16.19 55.39 15.84 54.52 15.57 53.86 15.57 53.29 16.26 52.73 18.45 50.95 19.92 48.27 19.92 45.22ZM3.78 41.5C4.15 38.11 7.02 35.46 10.51 35.46 14 35.46 16.87 38.11 17.24 41.5 17.27 41.74 17.23 42.25 16.47 42.25 13.49 42.25 7.54 42.25 4.56 42.25 3.79 42.26 3.76 41.74 3.78 41.5ZM14.2 57.45C12.35 57.45 8.64 57.45 6.79 57.45 6.38 57.45 6.03 57.28 6.29 56.6 6.44 56.22 6.77 55.39 7 54.79 7.18 54.34 7.35 54.17 7.96 54.34 9.48 54.78 11.57 54.74 12.92 54.37 13.56 54.2 13.8 54.27 14 54.79 14.24 55.39 14.56 56.22 14.71 56.6 14.89 57 14.71 57.45 14.2 57.45ZM10.51 52.92C6.31 52.92 2.9 49.46 2.9 45.21 2.9 44.46 3.26 44.04 4.02 44.04 7.24 44.04 13.67 44.04 16.89 44.04 17.86 44.04 18.14 44.37 18.14 45.21 18.13 49.47 14.72 52.92 10.51 52.92Z" fill="#030000"/><path d="M19.63 27.95C19.09 27.71 15.43 26.31 13.41 25.69 12.49 25.4 11.5 26.15 10.41 26.13 9.3 26.11 8.63 25.37 7.56 25.69 5.9 26.19 2.06 27.74 1.27 28.02 0.1 28.44-0.6 26.82 0.72 26.29 1.34 26.04 5.28 24.5 7.12 23.92 8.28 23.55 9.03 23.87 9.61 24.1 10.29 24.37 10.97 24.24 11.26 24.11 11.78 23.88 12.52 23.49 13.73 23.88 15.58 24.47 19.7 26.04 20.34 26.3 21.69 26.84 20.87 28.48 19.63 27.95Z" fill="#030000"/><path d="M10.37 30.66C7.27 30.66 4.92 29.94 4.83 29.91 3.45 29.48 3.99 27.74 5.37 28.16 5.39 28.17 7.57 28.83 10.37 28.83 13.17 28.83 15.35 28.17 15.37 28.16 16.88 27.69 17.42 29.44 15.91 29.91 15.81 29.94 13.46 30.66 10.37 30.66Z" fill="#030000"/><path d="M44.7 49.67 36.07 44.69C35.53 44.38 35.21 43.81 35.21 43.19L35.21 43.19C35.21 42.57 35.54 42 36.07 41.69L44.7 36.71C45.78 36.09 46.57 35 46.66 33.75 46.77 32.31 46.07 30.99 44.84 30.28L36.17 25.27C35.57 24.92 35.2 24.28 35.2 23.59L35.2 18.73C35.2 18.06 34.66 17.52 33.99 17.52 33.32 17.52 32.78 18.06 32.78 18.73L32.78 23.32 32.78 56.56C32.78 57.78 33.31 58.98 34.3 59.68 34.95 60.14 35.7 60.38 36.44 60.38 37.07 60.38 37.7 60.21 38.27 59.88L44.82 56.1C46.05 55.39 46.75 54.07 46.64 52.63 46.57 51.39 45.78 50.3 44.7 49.67ZM43.64 32.37C44.21 32.7 44.27 33.24 44.27 33.45 44.27 33.67 44.21 34.21 43.64 34.54L36.51 38.66C35.93 38.99 35.21 38.58 35.21 37.91L35.21 29.02C35.21 28.35 35.93 27.93 36.51 28.27L43.64 32.37ZM43.64 54.01 37.09 57.79C36.52 58.12 36.02 57.9 35.84 57.79 35.65 57.68 35.21 57.36 35.21 56.71L35.21 48.48C35.21 47.81 35.93 47.39 36.51 47.73L43.64 51.85C44.21 52.18 44.27 52.72 44.27 52.94 44.26 53.15 44.2 53.69 43.64 54.01Z"/></svg>