<svg width="61.82" height="65.76" viewBox="0 0 61.82 65.76" xmlns="http://www.w3.org/2000/svg" xmlns:xlink="http://www.w3.org/1999/xlink" overflow="visible"><defs></defs><path d="M59.09 24.82C56.63 21.76 52.29 16.36 50.48 14.11 48.67 11.86 48.68 11.22 48.12 7.77 47.85 6.07 46.93 1.02 46.93 1.02 46.82 0.36 46.21-0.09 45.55 0.01 44.9 0.12 44.44 0.74 44.55 1.4 44.55 1.4 44.68 2.09 44.86 3.12 45.08 4.34 45.24 5.25 43.8 6.72 41.19 9.39 35.74 14.98 33.6 17.25 32.51 18.41 32.11 18.85 30.8 19.55 29.84 20.06 26.96 21.6 26.96 21.6 25.33 22.49 26.42 24.62 28.1 23.74 28.1 23.74 30.14 22.66 30.82 22.29 32.04 21.64 32.26 22.22 32.26 23.36 32.26 26.8 32.26 34.1 32.26 37.01 32.26 39.14 32.8 40.54 34.38 42.11 35.25 42.98 37.86 45.59 37.86 45.59 39.28 46.95 40.88 45.19 39.57 43.88 39.57 43.88 36.81 41.11 35.88 40.19 34.88 39.19 34.68 38.6 34.68 37.31 34.68 33.86 34.68 25.04 34.68 21.31 34.68 19.67 35.14 19.13 36 18.24 37.8 16.38 42.27 11.77 44.47 9.5 45.47 8.47 45.98 9.74 46.01 10.07 46.17 11.52 46.03 12.35 45.58 14.69 44.75 19.02 43.92 23.36 43.45 25.77 43.21 27.07 42.94 27.7 42.16 28.47 40.91 29.71 37.91 32.66 37.91 32.66 36.54 34.03 38.29 35.71 39.62 34.37 39.62 34.37 41.82 32.23 42.8 31.25 43.4 30.65 44.12 30.84 44.55 31.64 45.44 33.3 46.69 35.63 47.26 36.68 47.91 37.88 48.32 38.86 48.04 40.17 46.75 46.17 42.9 64.18 42.9 64.18 42.53 65.89 44.93 66.39 45.26 64.69 45.26 64.69 49.14 46.58 50.43 40.54 50.63 39.61 51.15 39.57 51.8 39.64 53.11 39.79 55.9 40.1 55.95 40.1 56.56 40.1 57.08 39.64 57.15 39.03 57.23 38.37 56.75 37.76 56.08 37.69 56.08 37.69 53.02 37.35 51.64 37.19 50.47 37.06 49.95 36.61 49.45 35.67 48.88 34.62 47.61 32.25 46.74 30.62 45.86 28.99 45.55 27.71 45.83 26.24 46.09 24.85 46.71 24.45 47.48 25.22 48.61 26.35 52.02 29.76 52.02 29.76 53.35 31.09 55.06 29.38 53.73 28.05 53.73 28.05 49.37 23.69 47.92 22.24 47.19 21.51 46.89 20.68 47.16 19.27 47.29 18.59 47.41 17.95 47.52 17.38 47.93 15.25 48.77 15.87 49.56 16.85 51.29 19 55.56 24.31 57.69 26.97 58.77 28.32 58.76 28.98 58.81 29.97 58.99 33.98 59.38 42.81 59.38 42.81 59.46 44.68 61.88 44.59 61.8 42.7 61.8 42.7 61.41 33.92 61.23 29.93 61.16 27.9 60.36 26.4 59.09 24.82Z"/><path d="M26.87 41.34C26.87 41.34 22.29 41.34 19.74 41.34 17.95 41.34 16.98 40.82 16.98 38.7 16.98 38.43 17 38.03 16.99 37.9 16.93 37.04 16.94 36.71 17.99 36.71 20.15 36.71 21.69 36.71 21.69 36.71 27.02 36.71 27.02 27.74 21.69 27.74 21.69 27.74 20.15 27.74 17.99 27.74 17.57 27.74 16.97 27.43 16.97 26.62 16.97 25.73 16.97 22.87 16.97 22.87 16.97 22.33 16.13 20.96 15.72 20.23 15.56 19.95 15.3 19.97 15.1 20.29 14.62 21.03 13.92 22.35 13.92 22.87 13.92 22.87 13.92 25.71 13.92 26.58 13.92 27.34 13.56 27.74 12.72 27.74 10.62 27.74 8.91 27.74 8.91 27.74 3.19 27.74 3.19 36.71 8.91 36.71 8.91 36.71 10.66 36.71 12.78 36.71 13.7 36.71 13.97 37.11 13.93 37.78 13.93 37.9 13.91 38.31 13.91 38.62 13.91 40.81 13.34 41.33 11.5 41.33 8.8 41.33 2.26 41.33 2.26 41.33-0.73 41.33-0.73 46.03 2.26 46.03L26.89 46.03C29.92 46.04 29.92 41.34 26.87 41.34Z"/></svg>