<svg width="62.08" height="63.05" viewBox="0 0 62.08 63.05" xmlns="http://www.w3.org/2000/svg" xmlns:xlink="http://www.w3.org/1999/xlink" overflow="visible"><defs></defs><g><path d="M58.58 54.31C57.37 54.31 56.2 53.69 55.55 52.57L33.16 14.1C32.21 12.47 29.86 12.47 28.92 14.1L6.52 52.57C5.55 54.24 3.4 54.81 1.73 53.83 0.06 52.86-0.51 50.71 0.47 49.04L28.01 1.74C28.64 0.66 29.79 0 31.04 0 32.29 0 33.44 0.66 34.06 1.74L61.6 49.05C62.57 50.72 62.01 52.86 60.34 53.84 59.78 54.16 59.18 54.31 58.58 54.31Z" fill="#030000"/></g><path d="M37.01 38.66C37.91 38.48 38.58 37.68 38.58 36.74L38.58 30.89C38.58 29.94 37.91 29.15 37.01 28.97 36.56 28.88 36.4 28.69 36.3 28.29 36.09 27.43 35.31 26.79 34.39 26.79L27.67 26.79C26.73 26.79 25.95 27.45 25.75 28.32 25.67 28.66 25.49 28.89 25.07 28.97 24.17 29.14 23.48 29.94 23.48 30.9L23.48 36.75C23.48 37.83 24.36 38.71 25.44 38.71L25.7 38.71 25.7 40.02 25.44 40.02C24.36 40.02 23.48 40.9 23.48 41.98L23.48 47.83C23.48 48.78 24.15 49.57 25.05 49.75 25.61 49.87 25.7 49.98 25.7 50.42 25.7 50.95 25.52 51.04 25.06 51.13 24.16 51.31 23.48 52.1 23.48 53.06L23.48 58.91C23.48 59.86 24.15 60.65 25.05 60.83 25.58 60.94 25.65 61 25.74 61.46 25.91 62.37 26.71 63.05 27.67 63.05L34.39 63.05C35.28 63.05 36.04 62.45 36.27 61.64 36.41 61.17 36.57 60.92 36.99 60.83 37.89 60.65 38.57 59.86 38.57 58.9L38.57 53.05C38.57 52.09 37.88 51.3 36.98 51.12 36.47 51.02 36.35 51.02 36.35 50.43 36.35 49.97 36.44 49.85 37 49.74 37.9 49.56 38.57 48.77 38.57 47.81L38.57 41.96C38.57 41.02 37.9 40.23 37.01 40.04 36.44 39.92 36.35 39.76 36.35 39.35 36.36 38.89 36.4 38.78 37.01 38.66ZM27.68 28.08 34.4 28.08C34.76 28.08 35.05 28.37 35.05 28.73 35.05 28.85 34.98 28.91 34.81 28.91 33.07 28.91 28.23 28.91 27.21 28.91 27.09 28.91 27.02 28.86 27.02 28.73 27.03 28.37 27.32 28.08 27.68 28.08ZM25.46 37.39C25.1 37.39 24.81 37.1 24.81 36.74L24.81 30.89C24.81 30.53 25.1 30.24 25.46 30.24 25.46 30.24 28.21 30.24 29.12 30.24 29.84 30.24 30.07 30.48 30.07 31.25 30.07 33.02 30.07 34.57 30.07 36.35 30.07 37.07 29.78 37.4 29.1 37.4 28.19 37.39 25.46 37.39 25.46 37.39ZM27.65 40.01C27.16 40.01 27.02 39.86 27.02 39.34 27.02 38.86 27.21 38.7 27.65 38.7 29.35 38.7 32.76 38.7 34.46 38.7 34.97 38.7 35.05 38.74 35.05 39.34 35.05 39.92 34.92 40.01 34.46 40.01 32.76 40.01 29.36 40.01 27.65 40.01ZM25.46 48.48C25.1 48.48 24.81 48.19 24.81 47.82L24.81 41.97C24.81 41.61 25.1 41.32 25.46 41.32 25.46 41.32 28.03 41.32 28.92 41.32 29.79 41.32 30.07 41.63 30.07 42.54 30.07 44.25 30.07 45.62 30.07 47.32 30.07 48.23 29.97 48.49 28.88 48.49 28.02 48.48 25.46 48.48 25.46 48.48ZM27.68 51.09C27.14 51.09 27.03 50.98 27.03 50.43 27.03 49.96 27.15 49.78 27.68 49.78 29.2 49.78 32.98 49.78 34.44 49.78 34.91 49.78 35.06 49.97 35.06 50.46 35.06 51.04 34.94 51.09 34.45 51.09 32.98 51.09 29.2 51.09 27.68 51.09ZM25.46 59.56C25.1 59.56 24.81 59.27 24.81 58.91L24.81 53.06C24.81 52.7 25.1 52.41 25.46 52.41 25.46 52.41 28.13 52.41 29.03 52.41 30.1 52.41 30.08 52.82 30.08 53.48 30.08 54.94 30.08 56.5 30.08 58.37 30.08 59.37 29.8 59.57 28.86 59.57 28 59.56 25.46 59.56 25.46 59.56ZM34.4 61.75 27.68 61.75C27.32 61.75 27.03 61.46 27.03 61.1 27.03 60.94 27.11 60.88 27.31 60.88 29.01 60.88 33.07 60.88 34.76 60.88 34.98 60.88 35.05 60.97 35.05 61.1 35.05 61.45 34.76 61.75 34.4 61.75ZM36.62 52.4C36.98 52.4 37.27 52.69 37.27 53.05L37.27 58.9C37.27 59.26 36.98 59.55 36.62 59.55 36.62 59.55 34.15 59.55 33.33 59.55 32.07 59.55 32.04 59.31 32.04 58.36 32.04 56.49 32.04 54.92 32.04 53.46 32.04 52.55 32.23 52.39 33.14 52.39 34.01 52.4 36.62 52.4 36.62 52.4ZM36.62 41.31C36.98 41.31 37.27 41.61 37.27 41.96L37.27 47.81C37.27 48.17 36.98 48.47 36.62 48.47 36.62 48.47 34.16 48.47 33.34 48.47 32.38 48.47 32.04 48.21 32.04 47.29 32.04 45.61 32.04 44.26 32.04 42.58 32.04 41.56 32.24 41.3 33.31 41.3 34.14 41.31 36.62 41.31 36.62 41.31ZM32.04 36.21C32.04 34.48 32.04 33.03 32.04 31.3 32.04 30.42 32.13 30.23 33.22 30.23 34.07 30.23 36.62 30.23 36.62 30.23 36.98 30.23 37.27 30.52 37.27 30.88L37.27 36.73C37.27 37.09 36.98 37.38 36.62 37.38L33.24 37.38C32.31 37.39 32.04 37.17 32.04 36.21Z"/></svg>