<svg version="1.1" width="48.97" height="66.08" viewBox="0 0 48.97 66.08" xmlns="http://www.w3.org/2000/svg" xmlns:xlink="http://www.w3.org/1999/xlink" overflow="visible"><defs></defs><path d=" M 45.33 61.68 C 39.8 55.97 35.33 52.79 29.63 50.34 C 28.12 49.69 27.37 49 27.37 46.53 C 27.37 43.62 28.01 43.14 32.24 43.41 C 34.34 43.54 38.75 43.21 40.24 43.02 C 45.59 42.35 43.84 37.52 39.81 38.17 C 37.82 38.49 32.04 38.8 27.14 38.49 C 25.44 38.38 23.43 38.39 21.7 38.49 C 16.09 38.82 10.71 38.27 8.77 37.83 C 5.58 37.11 3.92 41.44 8.18 42.71 C 9.81 43.19 14.03 43.57 16.6 43.41 C 20.83 43.14 21.47 43.62 21.47 46.53 C 21.47 49 20.71 49.69 19.21 50.34 C 13.5 52.79 9.04 55.97 3.51 61.68 C 1.14 64.12 4.08 68 7.31 64.97 C 14.82 56.57 19.95 54.13 24.43 54.13 C 28.91 54.13 34.04 56.57 41.55 64.97 C 44.76 68.01 47.7 64.13 45.33 61.68 Z" fill-rule="evenodd" clip-rule="evenodd"/><path d=" M 3 40.59 C 3.53 40.36 3.51 39.66 3.46 39.27 C 3.46 39.25 3.26 37.05 3.5 34.35 C 3.53 34.01 3.69 33.42 4.48 33.23 C 5.73 32.93 8.04 33.07 10.57 31.12 C 10.92 30.85 11 30.19 10.67 29.88 C 10.37 29.59 9.75 29.75 9.37 30.02 C 8.76 30.48 7.82 30.97 6.16 31.27 C 5.37 31.41 4.83 31.37 4.5 31.01 C 3.88 30.33 4.16 28.93 4.26 28.62 C 5.08 26.14 7.82 24.81 7.85 24.8 C 8.32 24.53 8.48 23.92 8.3 23.55 C 8.03 23.03 7.4 23.19 7.16 23.33 C 6.58 23.67 3.98 24.95 2.73 28.09 C 2.48 28.73 1.89 28.65 1.69 27.54 C 1.21 24.92 3.8 23.48 3.91 23.41 C 4.39 23.09 4.55 22.56 4.33 22.17 C 4.08 21.72 3.54 21.75 3.13 21.99 C 1.75 22.81 -0.52 24.85 0.1 27.87 C 0.34 29 0.7 29.97 1.17 30.74 C 1.39 31.1 1.95 32.26 1.86 33.3 C 1.63 35.96 1.71 37.74 1.86 39.47 C 1.92 40.26 2.26 40.92 3 40.59 Z" fill="#030000"/><path d=" M 45.97 40.59 C 45.44 40.36 45.46 39.66 45.51 39.27 C 45.51 39.25 45.71 37.05 45.47 34.35 C 45.44 34.01 45.28 33.42 44.49 33.23 C 43.24 32.93 40.93 33.07 38.4 31.12 C 38.05 30.85 37.97 30.19 38.3 29.88 C 38.6 29.59 39.22 29.75 39.6 30.02 C 40.21 30.48 41.15 30.97 42.81 31.27 C 43.6 31.41 44.14 31.37 44.47 31.01 C 45.09 30.33 44.81 28.93 44.71 28.62 C 43.89 26.14 41.15 24.81 41.12 24.8 C 40.65 24.53 40.49 23.92 40.67 23.55 C 40.94 23.03 41.57 23.19 41.81 23.33 C 42.39 23.67 44.99 24.95 46.24 28.09 C 46.49 28.73 47.08 28.65 47.28 27.54 C 47.76 24.92 45.17 23.48 45.06 23.41 C 44.58 23.09 44.42 22.56 44.64 22.17 C 44.89 21.72 45.43 21.75 45.84 21.99 C 47.22 22.81 49.49 24.85 48.87 27.87 C 48.63 29 48.27 29.97 47.8 30.74 C 47.58 31.1 47.02 32.26 47.11 33.3 C 47.34 35.96 47.26 37.74 47.11 39.47 C 47.05 40.26 46.71 40.92 45.97 40.59 Z" fill="#030000"/><path d=" M 41.59 16.01 C 41.59 16.01 38.76 15.72 37.81 15.62 C 37.24 15.56 37.05 15.2 36.87 14.86 C 36.82 14.77 36.76 14.66 36.7 14.53 C 36.46 14.06 36.5 13.73 37.05 13.45 C 39.87 12.03 41.46 10.01 41.46 7.56 C 41.46 4.58 39.11 1.86 35.03 0.09 C 34.41 -0.18 33.7 0.11 33.43 0.72 C 33.16 1.34 33.45 2.05 34.06 2.32 C 37.17 3.66 39.03 5.62 39.03 7.56 C 39.03 9.08 37.85 10.39 35.8 11.37 C 35.05 11.73 34.87 11.73 34.25 11.12 C 32.04 8.94 28.31 7.58 24.5 7.56 C 20.47 7.53 17.63 8.89 15.07 11.16 C 14.58 11.6 14.29 11.64 13.71 11.36 C 11.68 10.38 10.51 9.08 10.51 7.57 C 10.51 5.65 12.34 3.7 15.41 2.36 C 16.03 2.09 16.31 1.38 16.04 0.76 C 15.77 0.14 15.05 -0.13 14.44 0.13 C 10.4 1.9 8.08 4.61 8.08 7.57 C 8.08 9.93 9.56 11.89 12.19 13.3 C 12.69 13.57 12.72 13.89 12.46 14.34 C 12.36 14.51 12.26 14.69 12.17 14.87 C 12.02 15.15 11.8 15.57 11.18 15.63 C 10.24 15.73 7.4 16.02 7.4 16.02 C 6.73 16.09 6.25 16.68 6.32 17.35 C 6.38 17.9 6.79 18.32 7.3 18.42 C 7.41 18.44 7.53 18.45 7.65 18.44 C 7.65 18.44 9.25 18.27 10.19 18.18 C 10.85 18.11 10.93 18.44 10.85 18.95 C 10.77 19.45 10.72 19.97 10.7 20.49 C 10.52 25.98 12.71 30.01 16.66 32.75 C 21.54 36.14 29.09 35.25 33.4 32.06 C 36.23 29.96 38.42 26.09 38.35 21.51 C 38.34 20.66 38.26 19.82 38.12 19.01 C 38.04 18.5 38.17 18.11 38.8 18.17 C 39.74 18.27 41.34 18.43 41.34 18.43 C 41.46 18.44 41.58 18.44 41.69 18.41 C 42.2 18.31 42.61 17.89 42.67 17.34 C 42.74 16.67 42.26 16.08 41.59 16.01 Z M 24.48 19.47 C 25.33 19.47 25.81 19.61 25.81 21.64 C 25.81 24.14 25.52 24.52 24.52 24.52 C 23.58 24.52 23.11 24.19 23.11 21.64 C 23.1 19.66 23.72 19.47 24.48 19.47 Z M 15.82 19.18 C 15.82 18.24 16.58 17.47 17.53 17.47 C 18.47 17.47 19.24 18.23 19.24 19.18 C 19.24 20.13 18.47 20.89 17.53 20.89 C 16.58 20.89 15.82 20.12 15.82 19.18 Z M 28.92 28.58 C 28.13 28.76 26.24 28.9 24.53 28.9 C 22.82 28.9 20.93 28.76 20.14 28.58 C 18.7 28.24 17.85 27.2 17.85 25.79 C 17.85 25.38 18.19 25.04 18.6 25.04 C 19.01 25.04 19.35 25.38 19.35 25.79 C 19.35 26.51 19.72 26.94 20.48 27.12 C 21.07 27.26 22.78 27.4 24.53 27.4 C 26.28 27.4 27.99 27.25 28.58 27.12 C 29.34 26.94 29.71 26.51 29.71 25.79 C 29.71 25.38 30.05 25.04 30.46 25.04 C 30.87 25.04 31.21 25.38 31.21 25.79 C 31.21 27.2 30.36 28.24 28.92 28.58 Z M 31.41 20.89 C 30.46 20.89 29.7 20.12 29.7 19.18 C 29.7 18.24 30.47 17.47 31.41 17.47 C 32.35 17.47 33.12 18.23 33.12 19.18 C 33.12 20.12 32.36 20.89 31.41 20.89 Z" fill="#020303"/></svg>