<svg version="1.1" width="64.34" height="61.83" viewBox="0 0 64.34 61.83" xmlns="http://www.w3.org/2000/svg" xmlns:xlink="http://www.w3.org/1999/xlink" overflow="visible"><defs></defs><path d=" M 39.8 16.62 C 39.25 16.62 38.81 16.75 38.81 18.18 C 38.81 20.02 39.15 20.26 39.83 20.26 C 40.55 20.26 40.76 19.99 40.76 18.18 C 40.76 16.72 40.41 16.62 39.8 16.62 Z" fill="#030000" fill-rule="evenodd" clip-rule="evenodd"/><path d=" M 35.91 16.5 C 35.91 17.11 35.41 17.61 34.79 17.61 C 34.18 17.61 33.68 17.11 33.68 16.5 C 33.68 15.88 34.18 15.38 34.79 15.38 C 35.41 15.39 35.91 15.88 35.91 16.5 Z" fill-rule="evenodd" clip-rule="evenodd"/><path d=" M 43.4 10.79 C 43.4 11.77 41.82 12.57 39.87 12.57 C 37.92 12.57 36.34 11.77 36.34 10.79 C 36.34 9.81 37.92 9.01 39.87 9.01 C 41.82 9.01 43.4 9.81 43.4 10.79 Z" fill-rule="evenodd" clip-rule="evenodd"/><path d=" M 45.98 16.5 C 45.98 17.11 45.48 17.61 44.87 17.61 C 44.25 17.61 43.76 17.11 43.76 16.5 C 43.76 15.88 44.26 15.38 44.87 15.38 C 45.49 15.39 45.98 15.88 45.98 16.5 Z" fill-rule="evenodd" clip-rule="evenodd"/><path d=" M 64.23 58.48 C 63.96 57.91 63.28 57.67 62.71 57.94 C 61.52 58.51 58.77 59.48 57.24 57.08 C 56.5 55.92 56.58 53.41 56.74 52.16 C 57.62 45.45 58.53 39.58 53.06 35.57 C 50.17 33.45 45.87 32.74 41.71 32.59 C 41.19 32.57 41.07 32.46 41.09 31.88 C 41.09 31.74 41.1 29.42 41.11 29.22 C 41.19 27.85 41.45 27.5 42.21 27.36 C 43.96 27.03 45.6 26.37 46.86 25.35 C 49.08 23.56 50.92 20.52 50.87 16.81 C 50.78 10.74 46.91 5.58 40.19 5.52 C 33.58 5.47 28.68 10.05 28.49 15.98 C 28.35 20.43 30.14 23.66 33.32 25.91 C 34.47 26.73 36.03 27.25 37.73 27.47 C 38.34 27.55 38.58 27.87 38.56 29.11 C 38.56 29.36 38.54 31.7 38.52 31.82 C 38.42 32.32 38.46 32.56 37.64 32.58 C 36.13 32.63 34.72 32.71 33.5 32.78 C 32.62 32.83 31.2 32.79 31.2 32.79 C 29.97 32.75 29.48 32.36 28.82 31.29 C 26.34 27.28 21.42 27.97 19.14 28.92 C 18.56 29.16 18.28 29.83 18.53 30.41 C 18.77 30.99 19.43 31.27 20.02 31.03 C 20.17 30.97 22.93 29.91 25.16 30.89 C 26.27 31.38 26.72 32.46 24.91 32.67 C 20.74 33.14 18.38 35.27 18.27 35.38 C 17.81 35.81 17.78 36.53 18.22 36.99 C 18.65 37.45 19.37 37.47 19.83 37.04 C 19.85 37.02 21.88 35.17 25.54 34.89 C 27.69 34.73 27.81 35.58 27.31 36.79 C 26.52 38.73 24.18 39.13 22.75 40.83 C 22.35 41.31 22.31 42.05 22.8 42.45 C 23.24 42.8 23.98 42.83 24.42 42.4 C 25.56 41.24 26.73 40.72 27.4 40.2 C 28.46 39.39 29.15 38.31 29.5 37.14 C 29.89 35.87 30.79 35.46 31.53 35.35 C 32.12 35.33 32.82 35.29 33.64 35.24 C 34.6 35.18 35.73 35.12 36.96 35.07 C 37.49 35.05 37.67 35.28 37.43 35.71 C 36.59 37.23 35.21 38.47 33.08 39.88 C 30.17 41.81 28.51 44.08 28.54 46.46 C 28.56 47.97 29.16 50.37 32.52 52.11 C 36.61 54.22 41.78 54.5 46.24 52.78 C 48.7 51.83 50.41 50.41 50.98 48.71 C 52.24 44.94 49.9 42.16 49.8 42.04 C 49.33 41.46 48.48 41.38 47.91 41.85 C 47.33 42.32 47.25 43.17 47.72 43.75 C 47.74 43.77 49.1 45.52 48.32 47.85 C 48.03 48.74 46.95 49.57 45.3 50.19 C 41.23 51.71 36.86 51.55 33.9 49.79 C 32.7 49.08 31.26 47.91 31.24 46.42 C 31.22 45.03 32.54 43.63 34.52 42.16 C 38.05 39.53 39.51 37.91 40.3 35.71 C 40.5 35.14 40.78 35.02 41.27 35.04 C 45.14 35.16 49.15 35.74 51.6 37.54 C 55.54 40.43 55.3 44.46 54.29 51.76 C 54.06 53.41 53.73 56.17 55.12 58.37 C 56.19 60.05 57.88 60.91 59.87 60.91 C 61.06 60.91 62.36 60.6 63.7 59.96 C 64.26 59.73 64.5 59.05 64.23 58.48 Z M 31.06 15.65 C 31.38 11.28 36.02 7.86 39.85 7.86 C 44.04 7.87 48.41 11.46 48.38 16.8 C 48.36 20.44 46.68 23.23 43.78 24.4 C 41.32 25.4 38.86 25.44 36.64 24.78 C 32.42 23.52 30.74 19.96 31.06 15.65 Z"/><path d=" M 1.12 14.92 C 4.53 13.04 7.75 11.22 10.19 9.57 C 10.64 9.29 11.13 8.57 11.03 7.63 C 10.96 7.05 10.27 6.94 9.52 6.09 C 8.87 5.36 8.56 4.68 8.56 3.47 C 8.56 1.6 9.91 0 11.64 0 C 12.96 0 14.98 0.81 15 3.42 C 15.02 5.93 13.48 5.94 13.54 7.63 C 13.58 8.84 14.61 9.5 14.71 11.93 C 14.94 17.22 14.8 52.62 14.8 59.44 C 14.8 62.78 11.36 62.46 11.35 59.38 C 11.31 48.9 11.34 17.27 11.34 14.57 C 11.34 13.16 10.52 12.99 9.47 13.57 C 6.06 15.45 5.42 15.84 2.27 17.42 C 0.37 18.38 -1.11 16.15 1.12 14.92 Z" fill-rule="evenodd" clip-rule="evenodd"/></svg>