<svg width="51.04" height="62.11" viewBox="0 0 51.04 62.11" xmlns="http://www.w3.org/2000/svg" xmlns:xlink="http://www.w3.org/1999/xlink" overflow="visible"><defs></defs><path d="M42.65 29.16C42.65 25.64 35.95 23.93 25.14 23.93 15.3 23.93 8.31 25.59 8.31 29.16 8.31 29.19 8.31 44.59 8.31 44.59 8.31 46.56 8.06 46.79 5.91 47.64 2.38 49.05 0 52.63 0 57.07L0 60.28C0 61.29 0.82 62.11 1.83 62.11 2.84 62.11 3.66 61.29 3.66 60.28L3.66 57.07C3.66 54.44 4.85 52.32 6.71 51.3 9.2 49.94 9.67 51.13 10.96 52.84 13.87 56.71 19 59.01 25.47 59.01 32.32 59.01 37.41 56.82 40.21 52.9 41.49 51.1 42.11 49.8 44.72 51.53 46.35 52.61 47.38 54.62 47.38 57.06L47.38 60.27C47.38 61.28 48.2 62.1 49.21 62.1 50.22 62.1 51.04 61.28 51.04 60.27L51.04 57.06C51.04 52.61 48.64 49.01 45.08 47.62 42.87 46.75 42.64 46.56 42.64 44.59 42.65 44.59 42.65 29.2 42.65 29.16ZM12.47 33.36C16.44 34.79 22.27 35.01 25.47 35.01 30 35.01 35.02 34.67 38.46 33.45 39.72 33 39.89 33.35 39.89 34.36 39.89 35.18 39.89 37.65 39.89 37.65 39.89 43.98 28.85 44.47 25.47 44.47 16.84 44.47 11.05 41.73 11.05 37.65 11.05 37.65 11.05 35.07 11.05 34.21 11.06 33.27 11.4 32.98 12.47 33.36ZM25.48 26.62C35.97 26.62 39.86 28.36 39.88 29.26 39.92 30.48 35.71 32.27 25.48 32.27 15.57 32.27 11.03 30.39 11.08 29.26 11.11 28.47 14.96 26.62 25.48 26.62ZM25.48 56.26C16.72 56.26 11.15 51.68 11.06 44.59 11.05 43.98 11.27 43.5 11.97 43.98 14.96 46.04 19.64 47.22 25.48 47.22 31.4 47.22 36 46.13 38.94 44.16 39.53 43.77 39.9 43.85 39.9 44.59 39.9 55.13 29.81 56.26 25.48 56.26Z" fill="#020303"/><path d="M33.97 3.39C33.53 2.73 32.64 2.6 32.04 3.09 32.04 3.09 30.78 4.11 28.9 5.63 28.65 5.83 28.27 5.66 28.27 5.33L28.27 1.37C28.27 0.72 27.82 0.11 27.17 0.01 26.34-0.12 25.64 0.51 25.64 1.31 25.64 1.31 25.64 15.71 25.64 21.03 25.64 22.85 28.11 23.29 28.27 21.03L28.26 11.47C28.26 10.24 28.82 9.07 29.78 8.29L33.64 5.17C34.18 4.75 34.35 3.97 33.97 3.39Z" fill="#030000"/></svg>