<svg version="1.1" width="59.81" height="59.53" viewBox="0 0 59.81 59.53" xmlns="http://www.w3.org/2000/svg" xmlns:xlink="http://www.w3.org/1999/xlink" overflow="visible"><defs></defs><path d=" M 1.59 21.03 C 6.27 18.38 10.29 16.09 13.78 13.72 C 14.43 13.32 15.13 12.28 14.99 10.95 C 14.9 10.11 13.9 9.96 12.82 8.73 C 11.9 7.69 11.46 6.7 11.46 4.97 C 11.46 2.29 13.4 0 15.87 0 C 17.76 0 20.66 1.17 20.68 4.9 C 20.7 8.49 18.5 8.51 18.59 10.95 C 18.65 12.69 20.12 13.63 20.28 17.12 C 20.61 24.7 20.4 55.11 20.4 56.32 C 20.4 60.6 15.48 60.65 15.46 56.24 C 15.4 41.2 15.43 24.78 15.43 20.9 C 15.43 18.88 14.28 18.64 12.78 19.47 C 7.89 22.17 6.65 22.84 3.26 24.63 C 0.54 26.06 -1.59 22.83 1.59 21.03 Z" fill-rule="evenodd" clip-rule="evenodd"/><path d=" M 55.87 23.58 C 54.23 25.88 51.92 27.53 48.53 28.17 C 44.78 28.87 41.66 28.7 38.83 28.17 C 35.44 27.53 33.13 25.88 31.49 23.58 C 29.56 20.87 26.25 23.36 28.07 25.83 C 30.41 29.01 33.5 31.13 38.02 31.99 C 41.22 32.6 41.62 33.33 41.63 35.41 C 41.63 35.41 41.63 39.87 41.63 41.28 C 41.63 41.8 41.39 42.02 40.89 42.02 C 37.98 42.02 38 46.1 40.88 46.1 C 41.3 46.1 41.64 46.31 41.64 46.84 C 41.64 47.91 41.64 52.53 41.64 53.56 C 41.64 54.86 41.11 55.46 39.74 55.46 C 37.39 55.46 36.66 55.46 36.17 55.46 C 33.27 55.46 33.28 59.54 36.16 59.54 C 37.41 59.54 49.94 59.54 51.2 59.54 C 54.07 59.54 54.09 55.46 51.19 55.46 C 50.7 55.46 49.97 55.46 47.62 55.46 C 46.28 55.46 45.74 54.9 45.74 53.57 C 45.74 52.54 45.74 47.91 45.74 46.84 C 45.74 46.4 45.96 46.1 46.49 46.1 C 49.36 46.1 49.38 42.02 46.48 42.02 C 46.03 42.02 45.75 41.81 45.75 41.28 C 45.75 39.88 45.75 35.42 45.75 35.41 C 45.76 33.33 46.16 32.6 49.36 31.99 C 53.88 31.13 56.97 29.01 59.31 25.83 C 61.1 23.37 57.8 20.87 55.87 23.58 Z" fill="#030000"/><path d=" M 43.92 0.01 C 44.65 0.08 45.18 0.73 45.1 1.46 C 44.87 3.74 45.55 5.83 46.26 8.04 C 47.58 12.13 49.07 16.76 45.43 23.65 C 45.08 24.3 44.28 24.54 43.64 24.2 C 42.99 23.86 42.75 23.06 43.08 22.41 C 46.2 16.51 45 12.79 43.73 8.85 C 42.96 6.48 42.17 4.02 42.46 1.19 C 42.54 0.46 43.19 -0.07 43.92 0.01 Z"/><g><path d=" M 40.9 21.38 C 40.68 21.38 40.46 21.29 40.3 21.11 C 37.94 18.3 38.81 15.43 39.58 12.9 C 39.95 11.7 40.33 10.45 40.37 9.23 C 40.38 8.81 40.7 8.45 41.16 8.49 C 41.58 8.5 41.91 8.86 41.89 9.28 C 41.84 10.69 41.43 12.04 41.04 13.34 C 40.29 15.81 39.63 17.95 41.47 20.12 C 41.74 20.44 41.7 20.93 41.37 21.2 C 41.24 21.32 41.07 21.38 40.9 21.38 Z" fill="#030000"/></g></svg>