<svg width="55.82" height="57.23" viewBox="0 0 55.82 57.23" xmlns="http://www.w3.org/2000/svg" xmlns:xlink="http://www.w3.org/1999/xlink" overflow="visible"><defs></defs><g><g><path d="M0.5 41.17C-0.26 40.61-0.23 39.16 1.08 39.01 8.08 38.23 13.82 33.35 15.7 26.56 17.58 19.77 15.17 12.63 9.56 8.37 8.6 7.64 9.14 6.31 10.17 6.21 23.11 4.96 34.53 17.04 30.75 30.72 26.98 44.37 11.01 48.93 0.5 41.17ZM7.5 41.95C16.54 44.45 25.94 39.13 28.44 30.08 30.94 21.04 25.62 11.64 16.57 9.14 15.42 8.82 14.49 9.69 15.53 11.27 18.57 15.88 19.55 21.64 18.02 27.19 16.47 32.79 12.62 37.26 7.58 39.64 6.26 40.26 5.77 41.47 7.5 41.95Z" fill="#030000"/></g></g><path d="M55.43 6.4C54.61 5.16 52.93 4.92 51.8 5.83 51.8 5.83 49.43 7.74 45.88 10.61 45.41 10.99 44.69 10.66 44.69 10.05L44.69 2.59C44.69 1.36 43.84 0.22 42.63 0.03 41.07-0.22 39.74 0.97 39.74 2.47 39.74 2.47 39.74 44.3 39.74 54.33 39.74 57.76 44.39 58.59 44.7 54.34L44.69 21.62C44.69 19.3 45.74 17.1 47.55 15.64L54.82 9.76C55.82 8.95 56.15 7.48 55.43 6.4Z" fill="#030000"/></svg>