<svg width="55.05" height="61.27" viewBox="0 0 55.05 61.27" xmlns="http://www.w3.org/2000/svg" xmlns:xlink="http://www.w3.org/1999/xlink" overflow="visible"><defs></defs><g><path d="M19.32 56.13C6.5 56.13 0 52.28 0 44.67 0 40.37 2.59 37.76 4.67 35.67 6.41 33.92 7.47 32.78 7.47 31.3 7.47 30.19 6.95 30.06 6.69 30.06 5.62 30.06 4.75 29.19 4.75 28.12 4.75 27.05 5.62 26.18 6.69 26.18 6.9 26.18 7.1 26.17 7.3 26.17 8.29 26.13 9.53 26.09 10.48 27 10.88 27.39 11.36 28.09 11.36 29.26L11.36 31.31C11.36 34.47 9.27 36.57 7.42 38.42 5.52 40.33 3.88 41.98 3.88 44.68 3.88 46.55 3.88 52.25 19.32 52.25 34.75 52.25 34.75 46.55 34.75 44.68 34.75 41.98 33.11 40.33 31.21 38.42 29.37 36.57 27.28 34.46 27.28 31.31L27.28 29.26C27.28 28.09 27.76 27.39 28.16 27 29.11 26.09 30.35 26.13 31.34 26.17 31.54 26.18 31.74 26.18 31.95 26.18 33.02 26.18 33.89 27.05 33.89 28.12 33.89 29.19 33.02 30.06 31.95 30.06 31.69 30.06 31.17 30.22 31.17 31.3 31.17 32.78 32.23 33.92 33.97 35.67 36.05 37.76 38.64 40.37 38.64 44.67 38.64 54.15 28.14 56.13 19.32 56.13Z" fill="#030000"/></g><path d="M51.55 20.95C51.55 19.06 52.43 18.54 53.41 17.66 54.42 16.75 55.05 15.44 55.05 13.98L55.05 2.4C55.05-0.36 52.81 0.02 50.05 0.02 47.29 0.02 45.05-0.36 45.05 2.4L45.05 13.97C45.05 15.44 45.69 16.76 46.7 17.66 47.89 18.72 48.55 19.2 48.55 20.94 48.55 23.12 48.55 38.14 48.55 40.32 48.55 42.21 47.67 42.74 46.69 43.61 45.68 44.52 45.05 45.83 45.05 47.29L45.05 58.86C45.05 61.62 47.29 61.24 50.05 61.24 52.81 61.24 55.05 61.62 55.05 58.86L55.05 47.3C55.05 45.83 54.41 44.51 53.4 43.61 52.21 42.55 51.55 42.07 51.55 40.33 51.55 38.15 51.55 23.12 51.55 20.95Z"/><g><path d="M9.38 23.65C9.13 23.06 12.96 21 14.87 18.12 15.82 16.69 17.29 18.29 16.34 19.71 14.05 23.16 9.67 24.32 9.38 23.65Z"/></g><g><path d="M30.69 22.31C31 21.84 26.33 20.2 23.99 17.91 22.84 16.77 21.04 18.05 22.2 19.18 25 21.92 30.34 22.84 30.69 22.31Z"/></g><g><path d="M17.34 37.42 17.34 21.15C17.34 18 21.47 18 21.47 21.15L21.47 37.41C21.47 40.68 17.34 40.68 17.34 37.42Z" fill="#030000"/></g><g><path d="M6.58 8.58C6.23 7.93 11.63 5.64 14.35 2.45 15.69 0.87 17.76 2.62 16.41 4.2 13.15 8.02 6.98 9.32 6.58 8.58Z"/></g><g><path d="M31.77 8.87C32.11 8.18 26.87 5.74 24.24 2.35 22.94 0.67 20.94 2.53 22.25 4.2 25.4 8.26 31.39 9.65 31.77 8.87Z"/></g><g><path d="M17.22 16.01 17.22 4.08C17.22 1.77 21.35 1.77 21.35 4.08L21.35 16C21.35 18.4 17.22 18.4 17.22 16.01Z" fill="#030000"/></g></svg>