<svg width="50.14" height="56.54" viewBox="0 0 50.14 56.54" xmlns="http://www.w3.org/2000/svg" xmlns:xlink="http://www.w3.org/1999/xlink" overflow="visible"><defs></defs><path d="M14.55 11.55C17.21 9.71 17.25 5.59 17.25 5.55 17.26 4.6 18.5 4.6 18.5 5.55 18.5 5.75 18.46 10.36 15.26 12.57 14.53 13.1 13.78 12.07 14.55 11.55Z"/><path d="M15.82 17.67C15.34 16.92 16.36 16.21 16.87 17 17.62 18.19 20.73 19.09 21.4 16.71 21.65 15.8 21.4 15.1 21 14.34 20 12.47 20.13 10.02 22.09 8.56 22.77 8.04 23.54 9.03 22.84 9.56 21.61 10.48 21.36 12.29 22.15 13.83 22.58 14.69 22.99 15.7 22.61 17.05 21.64 20.5 17.17 19.8 15.82 17.67Z"/><path d="M3.49 19.55C3.11 18.2 3.55 17.15 3.96 16.33 5.15 13.94 3.75 12.42 3.26 12.06 2.65 11.6 3.34 10.54 4.01 11.06 5.77 12.44 6.17 14.71 5.1 16.84 4.7 17.64 4.44 18.31 4.7 19.22 5.39 21.69 8.54 20.59 9.23 19.51 9.69 18.78 10.72 19.5 10.28 20.18 8.79 22.5 4.39 22.81 3.49 19.55Z"/><path d="M7.31 12.06C7.31 11.31 7.01 10.63 6.7 9.91 6.09 8.52 5.41 6.95 6.44 4.4 6.78 3.57 7.97 3.96 7.6 4.87 6.76 6.94 7.29 8.14 7.84 9.41 8.19 10.21 8.56 11.04 8.56 12.06 8.56 13.09 7.31 13.09 7.31 12.06Z"/><path d="M13.2 18.08C10.71 17.48 8.71 13.11 12.17 8.48 13.87 6.2 14.6 3.69 12.83 1.03 12.27 0.18 13.35-0.4 13.87 0.34 15.89 3.23 15.15 6.7 13.21 9.16 9.89 13.37 12.43 16.59 13.5 16.86 14.32 17.07 13.92 18.25 13.2 18.08Z"/><path d="M40.28 11.55C42.94 9.71 42.98 5.59 42.98 5.55 42.99 4.6 44.23 4.6 44.23 5.55 44.23 5.75 44.19 10.36 40.99 12.57 40.25 13.1 39.51 12.07 40.28 11.55Z"/><path d="M40.65 19.47C40.17 18.72 41.2 18.01 41.7 18.8 42.45 19.99 45.56 20.89 46.23 18.51 46.48 17.6 46.23 16.9 45.83 16.14 44.83 14.27 44.96 11.82 46.92 10.36 47.6 9.84 48.37 10.83 47.67 11.36 46.44 12.28 46.19 14.09 46.97 15.63 47.4 16.49 47.81 17.5 47.43 18.85 46.47 22.3 42 21.61 40.65 19.47Z"/><path d="M28.31 16.74C27.94 15.39 28.37 14.34 28.78 13.52 29.97 11.13 28.57 9.61 28.08 9.25 27.47 8.79 28.15 7.73 28.83 8.25 30.59 9.63 30.99 11.9 29.92 14.03 29.51 14.83 29.27 15.5 29.52 16.41 30.21 18.88 33.36 17.78 34.05 16.7 34.51 15.97 35.54 16.69 35.1 17.37 33.62 19.69 29.22 20.01 28.31 16.74Z"/><path d="M33.04 12.06C33.04 11.31 32.74 10.63 32.43 9.91 31.82 8.52 31.14 6.95 32.17 4.4 32.51 3.56 33.7 3.95 33.33 4.87 32.49 6.94 33.02 8.14 33.57 9.41 33.92 10.21 34.29 11.04 34.29 12.06 34.29 13.09 33.04 13.09 33.04 12.06Z"/><path d="M38.93 18.08C36.44 17.48 34.44 13.11 37.9 8.48 39.6 6.2 40.33 3.69 38.56 1.03 38 0.18 39.08-0.4 39.6 0.34 41.63 3.23 40.88 6.7 38.94 9.16 35.62 13.37 38.15 16.59 39.23 16.86 40.05 17.07 39.65 18.25 38.93 18.08Z"/><path d="M49.42 41.35C49.42 41.35 31.96 30.58 28.26 28.29 27.81 28.01 27.37 27.42 28.26 26.87 29.94 25.83 34.99 22.71 34.99 22.71 35.5 22.39 35.66 21.72 35.34 21.21 35.02 20.7 34.35 20.54 33.84 20.85 33.84 20.85 29.62 23.45 28.22 24.32 25.12 26.23 24.93 26.23 21.83 24.32 20.43 23.45 16.21 20.85 16.21 20.85 15.7 20.53 15.02 20.69 14.71 21.21 14.39 21.72 14.55 22.4 15.06 22.71 15.06 22.71 20.14 25.84 21.83 26.89 22.6 27.37 22.52 27.84 21.83 28.26 18.13 30.56 0.69 41.29 0.69 41.29-0.82 42.23 0.43 44.02 1.84 43.15 1.84 43.15 18.42 32.96 21.84 30.85 24.96 28.92 25.04 28.89 28.27 30.88 31.68 32.99 48.28 43.23 48.28 43.23 49.68 44.09 50.99 42.33 49.42 41.35Z" fill="#030000"/><path d="M26.72 46.36C29.75 44.26 29.8 39.56 29.8 39.51 29.81 38.43 31.22 38.43 31.22 39.51 31.22 39.73 31.18 45 27.52 47.53 26.69 48.12 25.84 46.96 26.72 46.36Z"/><path d="M27.91 54.51C27.36 53.65 28.53 52.84 29.11 53.75 29.97 55.11 33.52 56.14 34.28 53.42 34.57 52.38 34.28 51.58 33.82 50.71 32.68 48.58 32.83 45.78 35.06 44.11 35.83 43.52 36.72 44.65 35.91 45.25 34.5 46.31 34.22 48.37 35.12 50.13 35.62 51.11 36.08 52.26 35.65 53.8 34.55 57.74 29.45 56.94 27.91 54.51Z"/><path d="M13.44 53.69C13.01 52.15 13.51 50.95 13.97 50.02 15.33 47.29 13.73 45.56 13.17 45.14 12.47 44.62 13.25 43.4 14.02 44 16.03 45.57 16.48 48.17 15.26 50.6 14.8 51.52 14.51 52.27 14.8 53.31 15.58 56.13 19.18 54.88 19.97 53.64 20.49 52.81 21.67 53.62 21.17 54.4 19.5 57.06 14.48 57.42 13.44 53.69Z"/><path d="M18.58 46.94C18.58 46.08 18.24 45.31 17.88 44.49 17.19 42.9 16.4 41.11 17.59 38.2 17.98 37.24 19.34 37.69 18.91 38.73 17.95 41.09 18.55 42.46 19.19 43.91 19.59 44.83 20.01 45.78 20.01 46.93 20 48.11 18.58 48.11 18.58 46.94Z"/><path d="M25.51 53.76C22.64 53.23 20.08 48.38 23.73 42.88 25.52 40.18 26.2 37.27 24.02 34.35 23.33 33.42 24.52 32.69 25.16 33.5 27.65 36.67 27.02 40.68 24.96 43.6 21.44 48.61 24.53 52.12 25.78 52.36 26.73 52.55 26.34 53.92 25.51 53.76Z"/></svg>