<svg width="46.37" height="46.73" viewBox="0 0 46.37 46.73" xmlns="http://www.w3.org/2000/svg" xmlns:xlink="http://www.w3.org/1999/xlink" overflow="visible"><defs></defs><path d="M41.17 18.14 30.5 4.7C29.51 3.44 29.72 1.61 30.99 0.62 32.25-0.37 34.08-0.15 35.07 1.11L45.74 14.55C46.53 15.56 46.39 18.33 46.3 19.45 46.28 19.75 46.14 19.91 45.93 19.88 44.93 19.72 41.99 19.19 41.17 18.14Z" fill="#030000"/><path d="M5.2 18.14 15.86 4.7C16.85 3.44 16.64 1.61 15.37 0.62 14.11-0.37 12.28-0.15 11.29 1.11L0.63 14.55C-0.16 15.56-0.02 18.33 0.07 19.45 0.09 19.75 0.23 19.91 0.44 19.88 1.43 19.72 4.38 19.19 5.2 18.14Z" fill="#030000"/><g><path d="M28.71 20.45 16.93 20.45C12.86 20.45 9.55 23.76 9.55 27.83L9.55 39.34C9.55 43.41 12.86 46.72 16.93 46.72L28.72 46.72C32.79 46.72 36.1 43.41 36.1 39.34L36.1 27.84C36.09 23.76 32.78 20.45 28.71 20.45ZM32.85 39.35C32.85 41.63 31 43.49 28.72 43.49L16.93 43.49C14.65 43.49 12.8 41.64 12.8 39.35L12.8 27.84C12.8 25.56 14.65 23.7 16.93 23.7L28.72 23.7C31 23.7 32.85 25.55 32.85 27.84L32.85 39.35Z" fill="#030000"/></g></svg>