<svg version="1.1" width="53.62" height="54.1" viewBox="0 0 53.62 54.1" xmlns="http://www.w3.org/2000/svg" xmlns:xlink="http://www.w3.org/1999/xlink" overflow="visible"><defs></defs><path d=" M 10.9 2.91 C 12.62 3.98 13.13 6.11 14.38 8.62 C 14.46 8.78 14.34 8.81 14.28 8.82 C 10.59 9.48 9.58 9.9 7.52 8.87 C 5.71 7.96 4.82 6.15 5.84 4.2 C 6.75 2.46 8.83 1.63 10.9 2.91 Z" fill-rule="evenodd" clip-rule="evenodd"/><path d=" M 3.76 17.05 C 5.79 17.13 7.28 18.72 9.62 20.29 C 9.77 20.39 9.68 20.47 9.63 20.51 C 6.75 22.91 6.08 23.78 3.78 23.9 C 1.75 24 0.08 22.87 0 20.67 C -0.06 18.71 1.34 16.96 3.76 17.05 Z" fill-rule="evenodd" clip-rule="evenodd"/><path d=" M 5.92 47 C 7.34 45.55 9.52 45.5 12.24 44.81 C 12.41 44.77 12.41 44.9 12.41 44.95 C 12.27 48.7 12.47 49.77 11.02 51.57 C 9.74 53.15 7.79 53.63 6.1 52.22 C 4.6 50.95 4.23 48.74 5.92 47 Z" fill-rule="evenodd" clip-rule="evenodd"/><path d=" M 37.86 0.01 C 38.61 0.09 39.15 0.75 39.07 1.5 C 38.83 3.83 39.53 5.97 40.26 8.24 C 41.61 12.43 43.14 17.17 39.42 24.23 C 39.07 24.89 38.24 25.14 37.58 24.8 C 36.92 24.45 36.67 23.63 37.01 22.96 C 40.21 16.92 38.98 13.11 37.68 9.08 C 36.89 6.65 36.09 4.14 36.37 1.24 C 36.45 0.47 37.11 -0.07 37.86 0.01 Z"/><g><path d=" M 34.76 21.9 C 34.53 21.9 34.31 21.81 34.15 21.62 C 31.73 18.74 32.63 15.8 33.41 13.21 C 33.78 11.98 34.17 10.7 34.22 9.46 C 34.24 9.03 34.56 8.67 35.03 8.71 C 35.46 8.73 35.8 9.09 35.78 9.52 C 35.73 10.97 35.31 12.34 34.9 13.67 C 34.13 16.2 33.46 18.39 35.34 20.62 C 35.62 20.95 35.58 21.45 35.24 21.72 C 35.11 21.84 34.94 21.89 34.76 21.9 Z" fill="#030000"/></g><path d=" M 49.6 24.67 C 47.93 27.01 45.57 28.7 42.12 29.35 C 38.29 30.07 35.12 29.89 32.23 29.35 C 28.77 28.7 26.42 27.02 24.75 24.67 C 22.78 21.91 19.41 24.45 21.27 26.96 C 23.65 30.2 26.81 32.36 31.41 33.24 C 34.67 33.86 35.07 34.61 35.09 36.72 C 35.09 36.72 35.09 37.66 35.09 39.09 C 35.09 39.62 34.84 39.84 34.34 39.84 C 31.38 39.84 31.4 44 34.33 44 C 34.76 44 35.1 44.21 35.1 44.75 C 35.1 45.84 35.1 46.95 35.1 48 C 35.1 49.32 34.56 49.94 33.16 49.94 C 30.77 49.94 30.02 49.94 29.52 49.94 C 26.56 49.94 26.58 54.1 29.51 54.1 C 30.79 54.1 43.56 54.1 44.84 54.1 C 47.77 54.1 47.79 49.94 44.83 49.94 C 44.33 49.94 43.58 49.94 41.19 49.94 C 39.83 49.94 39.27 49.37 39.27 48.01 C 39.27 46.96 39.27 45.85 39.27 44.75 C 39.27 44.3 39.49 44 40.03 44 C 42.96 44 42.98 39.84 40.02 39.84 C 39.57 39.84 39.27 39.62 39.27 39.09 C 39.27 37.66 39.27 36.73 39.27 36.72 C 39.28 34.6 39.69 33.86 42.95 33.24 C 47.56 32.36 50.71 30.2 53.09 26.96 C 54.93 24.45 51.56 21.91 49.6 24.67 Z" fill="#030000"/></svg>