<svg version="1.1" width="62.17" height="61.57" viewBox="0 0 62.17 61.57" xmlns="http://www.w3.org/2000/svg" xmlns:xlink="http://www.w3.org/1999/xlink" overflow="visible"><defs></defs><path d=" M 47.9 51.33 C 46.66 47.64 46.01 46.95 45.8 46.72 C 44.85 45.68 44.19 45.47 42.99 45.07 C 42.74 44.99 42.47 44.9 42.15 44.79 C 41.61 44.6 41.02 44.89 40.83 45.43 C 40.64 45.97 40.93 46.56 41.47 46.75 C 41.8 46.86 42.08 46.96 42.34 47.04 C 43.42 47.4 43.68 47.48 44.27 48.12 C 44.36 48.22 44.88 48.88 45.93 51.99 C 46.06 52.39 45.85 52.72 45.67 52.82 C 45.46 52.93 45.34 53.11 44.96 53.27 C 44.21 53.58 43.93 53.29 43.82 52.57 C 43.7 51.81 43.59 50.81 43.59 50.81 C 43.55 50.24 43.08 49.81 42.49 49.84 C 41.92 49.87 41.48 50.37 41.52 50.94 C 41.67 52.98 41.9 54.6 42.34 57.98 C 42.47 59 42.45 59.47 41.15 59.47 C 39.03 59.47 16.36 59.52 14.24 59.52 C 13.18 59.52 13.07 58.98 13.02 58.08 C 12.85 54.98 12.61 54.04 11.89 50.84 C 11.76 50.28 11.21 49.93 10.65 50.06 C 10.09 50.19 9.74 50.74 9.87 51.3 C 9.99 51.82 10.09 52.34 10.18 52.85 C 10.24 53.17 10.14 53.73 9.62 53.58 C 9.12 53.43 8.65 53.26 8.36 53.18 C 7.91 53.05 7.69 52.64 7.79 52.13 C 7.94 51.35 8.14 50.54 8.39 49.74 C 9 47.79 10.24 47.45 12.05 47.15 C 12.61 47.06 13 46.52 12.9 45.96 C 12.81 45.4 12.27 45.01 11.71 45.11 C 9.55 45.46 7.36 46.07 6.41 49.12 C 6.14 50 5.92 50.88 5.75 51.75 C 5.46 53.32 6.32 54.76 7.8 55.18 C 8.21 55.3 9.11 55.63 9.81 55.83 C 10.5 56.03 10.63 56.54 10.67 56.97 C 10.71 57.35 10.76 57.89 10.62 58.89 C 10.42 60.28 11.01 61.57 13.08 61.57 C 13.08 61.57 38.82 61.52 41.62 61.52 C 43.35 61.52 44.51 60.85 44.51 58.95 C 44.51 58.37 44.44 57.94 44.37 57.33 C 44.27 56.43 44.14 55.92 45.15 55.36 C 45.69 55.06 46.28 54.82 46.61 54.66 C 47.78 54.05 48.33 52.62 47.9 51.33 Z"/><path d=" M 28.9 53.56 C 28.9 54.46 28.17 55.19 27.27 55.19 C 26.37 55.19 25.64 54.46 25.64 53.56 C 25.64 52.66 26.37 51.93 27.27 51.93 C 28.17 51.93 28.9 52.66 28.9 53.56 Z" fill-rule="evenodd" clip-rule="evenodd"/><g><path d=" M 62.05 58.74 C 61.74 58.09 60.97 57.82 60.32 58.13 C 58.97 58.78 55.85 59.87 54.11 57.15 C 53.27 55.83 53.36 52.98 53.55 51.56 C 54.63 43.36 55.44 37.68 49.12 32.67 C 43.77 28.43 35.74 28.14 28.25 27.93 C 27.66 27.91 27.54 27.72 27.62 27.16 C 27.7 26.67 27.74 26.27 27.78 25.92 C 27.95 25.58 28.29 25.54 28.93 25.42 C 30.96 25.04 32.87 24.27 34.34 23.08 C 36.92 20.99 39.07 17.46 39.01 13.14 C 38.91 6.08 34.4 0.06 26.58 0 C 18.89 -0.06 13.18 5.27 12.96 12.17 C 12.79 17.34 14.88 21.1 18.58 23.72 C 19.92 24.67 21.73 25.28 23.71 25.54 C 24.45 25.64 24.72 25.89 24.67 26.51 C 24.67 26.52 24.63 26.97 24.62 27.06 C 24.56 27.64 24.56 27.9 23.62 27.92 C 21.91 27.97 20.31 28.07 18.92 28.15 C 17.92 28.21 15.1 28.17 15.1 28.17 C 13.71 28.13 13.15 27.68 12.4 26.47 C 9.57 21.91 4 22.7 1.41 23.78 C 0.75 24.06 0.44 24.81 0.71 25.47 C 0.98 26.13 1.74 26.45 2.4 26.17 C 2.57 26.1 5.71 24.9 8.23 26.02 C 9.49 26.57 10.01 27.81 7.95 28.04 C 3.22 28.58 0.54 30.99 0.41 31.12 C -0.11 31.61 -0.14 32.43 0.35 32.95 C 0.84 33.47 1.66 33.5 2.18 33.01 C 2.21 32.99 4.51 30.89 8.66 30.57 C 11.1 30.38 11.23 31.36 10.67 32.73 C 9.78 34.93 7.12 35.38 5.49 37.32 C 5.03 37.87 4.99 38.71 5.55 39.15 C 6.05 39.54 6.89 39.59 7.38 39.09 C 8.68 37.77 10 37.18 10.77 36.59 C 11.98 35.67 12.76 34.44 13.16 33.12 C 13.6 31.67 14.62 31.21 15.47 31.09 C 16.14 31.07 18.14 31.02 19.08 30.96 C 20.17 30.89 21.46 30.82 22.85 30.77 C 23.46 30.75 23.64 31 23.39 31.5 C 22.77 32.75 22.32 33.17 20.42 34.07 C 16.84 35.77 14.9 38.22 14.94 40.92 C 14.96 42.64 15.39 45.27 19.2 47.24 C 23.84 49.64 29.54 49.65 33.77 48 C 36.53 46.92 37.89 45.41 38.55 43.49 C 39.75 40.01 37.94 37.47 37.29 36.68 C 36.76 36.03 35.79 35.93 35.14 36.47 C 34.49 37.01 34.42 37.95 34.93 38.62 C 35.48 39.33 36.38 40.85 35.77 42.27 C 35.35 43.25 34.66 44.34 32.84 45.17 C 29.05 46.91 24.12 46.62 20.76 44.62 C 19.39 43.81 18.02 42.58 18 40.89 C 17.98 39.32 18.91 37.89 21.44 36.7 C 24.36 35.33 25.75 34.01 26.66 31.5 C 26.89 30.86 27.2 30.73 27.75 30.74 C 38.03 30.78 43.9 32.05 47.46 34.95 C 51.95 38.6 51.99 42.29 50.77 51.16 C 50.51 53.04 50.13 56.16 51.72 58.67 C 52.93 60.58 54.85 61.56 57.11 61.56 C 58.46 61.56 59.94 61.21 61.45 60.48 C 62.08 60.16 62.36 59.39 62.05 58.74 Z M 22.46 22.4 C 17.54 20.94 15.59 16.79 15.96 11.78 C 16.33 6.7 21.74 2.71 26.19 2.71 C 31.07 2.71 36.16 6.89 36.12 13.11 C 36.1 17.35 34.15 20.59 30.77 21.96 C 27.91 23.13 25.04 23.17 22.46 22.4 Z"/><path d=" M 26.12 12.91 C 25.49 12.91 24.97 13.07 24.97 14.73 C 24.97 16.87 25.37 17.15 26.16 17.15 C 27 17.15 27.24 16.83 27.24 14.73 C 27.24 13.02 26.84 12.91 26.12 12.91 Z"/><path d=" M 20.3 11.47 C 19.59 11.47 19.01 12.05 19.01 12.77 C 19.01 13.48 19.59 14.07 20.3 14.07 C 21.02 14.07 21.6 13.49 21.6 12.77 C 21.6 12.05 21.02 11.47 20.3 11.47 Z"/><path d=" M 26.21 4.05 C 23.94 4.05 22.1 4.97 22.1 6.12 C 22.1 7.26 23.94 8.19 26.21 8.19 C 28.48 8.19 30.32 7.26 30.32 6.12 C 30.32 4.98 28.48 4.05 26.21 4.05 Z"/><path d=" M 32.02 14.06 C 32.74 14.06 33.32 13.48 33.32 12.76 C 33.32 12.04 32.74 11.46 32.02 11.46 C 31.31 11.46 30.73 12.04 30.73 12.76 C 30.73 13.48 31.31 14.06 32.02 14.06 Z"/></g></svg>