<svg width="62.17" height="65.04" viewBox="0 0 62.17 65.04" xmlns="http://www.w3.org/2000/svg" xmlns:xlink="http://www.w3.org/1999/xlink" overflow="visible"><defs></defs><path d="M55.42 30.34C55.42 27.51 50.03 26.13 41.34 26.13 33.42 26.13 27.81 27.46 27.81 30.34 27.81 30.36 27.81 42.75 27.81 42.75 27.81 44.33 27.61 44.52 25.88 45.2 23.04 46.33 21.13 49.21 21.13 52.78L21.13 63.48C21.13 64.29 21.79 64.95 22.6 64.95 23.41 64.95 24.07 64.29 24.07 63.48L24.07 52.78C24.07 50.66 25.03 48.96 26.52 48.14 28.52 47.05 28.9 48 29.94 49.38 32.28 52.49 36.4 54.34 41.61 54.34 47.12 54.34 51.21 52.58 53.46 49.43 54.49 47.98 54.98 46.94 57.09 48.33 58.4 49.2 59.23 50.81 59.23 52.78L59.23 63.48C59.23 64.29 59.89 64.95 60.7 64.95 61.51 64.95 62.17 64.29 62.17 63.48L62.17 52.78C62.17 49.2 60.24 46.31 57.38 45.19 55.6 44.49 55.42 44.34 55.42 42.75 55.42 42.75 55.42 30.37 55.42 30.34ZM31.16 33.72C34.35 34.87 39.04 35.05 41.62 35.05 45.26 35.05 49.3 34.78 52.06 33.8 53.07 33.44 53.21 33.72 53.21 34.53 53.21 35.19 53.21 37.17 53.21 37.17 53.21 42.26 44.33 42.66 41.61 42.66 34.67 42.66 30.01 40.45 30.01 37.17 30.01 37.17 30.01 35.1 30.01 34.4 30.02 33.65 30.29 33.41 31.16 33.72ZM41.61 28.3C50.05 28.3 53.17 29.7 53.19 30.42 53.22 31.4 49.84 32.84 41.61 32.84 33.64 32.84 29.99 31.33 30.03 30.42 30.06 29.79 33.16 28.3 41.61 28.3ZM41.61 52.14C34.57 52.14 30.09 48.45 30.01 42.75 30 42.26 30.18 41.87 30.74 42.26 33.14 43.92 36.91 44.86 41.6 44.86 46.36 44.86 50.06 43.99 52.43 42.4 52.9 42.08 53.2 42.15 53.2 42.75 53.21 51.22 45.1 52.14 41.61 52.14Z" fill="#020303"/><path d="M1.25 16.71C5.07 14.61 8.68 12.57 11.41 10.71 11.92 10.4 12.47 9.58 12.35 8.54 12.28 7.89 11.5 7.76 10.66 6.81 9.94 6.01 9.59 5.24 9.59 3.89 9.59 1.79 11.1 0 13.04 0 14.52 0 16.79 0.91 16.8 3.83 16.82 6.64 15.1 6.65 15.17 8.55 15.22 9.91 16.37 10.65 16.49 13.37 16.75 19.29 16.59 61.42 16.59 62.37 16.59 66.12 12.74 65.75 12.73 62.3 12.69 50.56 12.73 19.35 12.73 16.32 12.73 14.74 11.81 14.55 10.64 15.2 6.82 17.31 6.1 17.74 2.57 19.52 0.41 20.6-1.24 18.09 1.25 16.71Z" fill-rule="evenodd" clip-rule="evenodd"/><path d="M47.35 5.43C46.91 4.77 46.02 4.64 45.42 5.13 45.42 5.13 44.16 6.15 42.28 7.67 42.03 7.87 41.65 7.7 41.65 7.37L41.65 3.41C41.65 2.76 41.2 2.15 40.55 2.05 39.72 1.92 39.02 2.55 39.02 3.35 39.02 3.35 39.02 17.75 39.02 23.07 39.02 24.89 41.49 25.33 41.65 23.07L41.64 13.51C41.64 12.28 42.2 11.11 43.16 10.33L47.02 7.21C47.56 6.78 47.73 6 47.35 5.43Z" fill="#030000"/></svg>