<svg width="49.8" height="56.02" viewBox="0 0 49.8 56.02" xmlns="http://www.w3.org/2000/svg" xmlns:xlink="http://www.w3.org/1999/xlink" overflow="visible"><defs></defs><path d="M12.79 12.8C15.73 10.76 15.78 6.2 15.78 6.15 15.79 5.1 17.16 5.1 17.16 6.15 17.16 6.37 17.12 11.48 13.57 13.94 12.76 14.52 11.94 13.39 12.79 12.8Z"/><path d="M14.2 19.59C13.66 18.75 14.8 17.97 15.36 18.85 16.2 20.17 19.64 21.17 20.38 18.53 20.66 17.52 20.38 16.74 19.93 15.9 18.82 13.83 18.97 11.11 21.14 9.49 21.89 8.92 22.75 10.01 21.97 10.6 20.6 11.62 20.33 13.63 21.2 15.34 21.68 16.29 22.13 17.41 21.71 18.91 20.65 22.73 15.69 21.95 14.2 19.59Z"/><path d="M0.52 21.67C0.1 20.18 0.58 19.01 1.04 18.1 2.36 15.45 0.81 13.77 0.27 13.36-0.41 12.85 0.35 11.67 1.1 12.26 3.05 13.78 3.49 16.3 2.31 18.67 1.86 19.56 1.58 20.3 1.86 21.3 2.62 24.04 6.11 22.82 6.88 21.62 7.38 20.81 8.53 21.6 8.04 22.36 6.4 24.94 1.53 25.29 0.52 21.67Z"/><path d="M4.76 13.37C4.76 12.53 4.43 11.78 4.08 10.99 3.41 9.45 2.65 7.71 3.8 4.88 4.17 3.95 5.49 4.39 5.08 5.4 4.15 7.69 4.73 9.02 5.35 10.43 5.74 11.32 6.14 12.24 6.14 13.37 6.14 14.51 4.76 14.51 4.76 13.37Z"/><path d="M11.29 20.04C8.53 19.37 6.32 14.53 10.14 9.4 12.02 6.88 12.83 4.09 10.87 1.15 10.25 0.21 11.45-0.44 12.02 0.38 14.27 3.59 13.44 7.44 11.29 10.16 7.61 14.83 10.42 18.39 11.62 18.7 12.54 18.93 12.09 20.23 11.29 20.04Z"/><path d="M41.31 12.8C44.25 10.76 44.3 6.2 44.3 6.15 44.31 5.1 45.68 5.1 45.68 6.15 45.68 6.37 45.64 11.48 42.09 13.94 41.28 14.52 40.46 13.39 41.31 12.8Z"/><path d="M41.72 21.59C41.18 20.75 42.32 19.97 42.89 20.85 43.73 22.17 47.17 23.17 47.91 20.53 48.19 19.52 47.91 18.74 47.46 17.9 46.35 15.83 46.5 13.11 48.66 11.49 49.41 10.92 50.27 12.01 49.49 12.6 48.12 13.62 47.85 15.63 48.72 17.34 49.2 18.29 49.65 19.41 49.23 20.91 48.17 24.73 43.21 23.95 41.72 21.59Z"/><path d="M28.04 18.67C27.62 17.18 28.11 16.01 28.56 15.1 29.88 12.45 28.33 10.77 27.79 10.36 27.11 9.85 27.87 8.67 28.62 9.26 30.57 10.78 31.01 13.3 29.82 15.67 29.37 16.56 29.09 17.29 29.37 18.3 30.13 21.04 33.62 19.82 34.39 18.62 34.89 17.81 36.04 18.6 35.55 19.36 33.92 21.94 29.05 22.29 28.04 18.67Z"/><path d="M33.29 13.37C33.29 12.53 32.96 11.78 32.61 10.99 31.94 9.45 31.18 7.71 32.32 4.88 32.7 3.95 34.02 4.39 33.6 5.4 32.67 7.69 33.25 9.02 33.87 10.43 34.26 11.32 34.66 12.24 34.66 13.37 34.67 14.51 33.29 14.51 33.29 13.37Z"/><path d="M39.81 20.04C37.05 19.37 34.84 14.53 38.66 9.4 40.54 6.88 41.35 4.09 39.39 1.15 38.77 0.21 39.96-0.44 40.54 0.38 42.79 3.59 41.96 7.44 39.81 10.16 36.13 14.83 38.94 18.39 40.14 18.7 41.06 18.93 40.61 20.23 39.81 20.04Z"/><path d="M26.53 43.2C26.82 40.9 26.75 38.92 26.47 37.31 26.06 35 22.72 35.16 23.15 37.98 23.25 38.62 23.32 39.33 23.35 40.11 23.41 41.66 22.85 42.5 20.99 42.87 19.33 43.2 17.57 43.72 15.7 46.28 14.57 47.84 16.51 48.96 17.48 47.41 18.09 46.44 19.78 44.73 21.35 45.07 22.05 45.22 22.32 45.71 22.19 46.86 22.07 47.95 21.71 51.25 19.31 52.9 17.83 53.92 19.1 55.54 20.49 54.65 23.22 52.88 23.8 50.21 24.31 48 24.58 46.82 25.25 47.27 25.53 47.77 26.54 49.51 26.23 51.79 24.67 54.26 23.72 55.76 25.6 56.74 26.45 55.39 28.77 51.73 28.82 48.62 26.98 45.66 26.58 45 26.47 43.67 26.53 43.2Z" fill="#030000"/><path d="M44.39 41.5C44.39 41.5 32.09 33.91 27.99 31.37 27.49 31.06 27 30.4 27.99 29.79 29.86 28.64 35.45 25.18 35.45 25.18 36.02 24.83 36.2 24.08 35.84 23.51 35.49 22.94 34.74 22.76 34.17 23.12 34.17 23.12 29.49 26.01 27.93 26.97 24.5 29.09 24.29 29.09 20.85 26.97 19.29 26.01 14.62 23.12 14.62 23.12 14.05 22.77 13.3 22.94 12.95 23.51 12.6 24.08 12.77 24.83 13.34 25.18 13.34 25.18 18.97 28.65 20.85 29.81 21.7 30.34 21.62 30.86 20.85 31.33 16.75 33.88 4.41 41.5 4.41 41.5 3.84 41.85 3.66 42.6 4.02 43.17 4.25 43.54 4.65 43.75 5.05 43.75 5.27 43.75 5.49 43.69 5.68 43.57 5.68 43.57 17.06 36.54 20.86 34.2 24.32 32.06 24.41 32.02 27.99 34.23 31.77 36.56 43.12 43.57 43.12 43.57 43.32 43.69 43.54 43.75 43.75 43.75 44.16 43.75 44.55 43.55 44.78 43.17 45.13 42.6 44.96 41.85 44.39 41.5Z" fill="#030000"/></svg>