<svg width="44.89" height="59.58" viewBox="0 0 44.89 59.58" xmlns="http://www.w3.org/2000/svg" xmlns:xlink="http://www.w3.org/1999/xlink" overflow="visible"><defs></defs><g><path d="M22.45 59.58C7.55 59.58 0 55.39 0 47.13 0 42.46 3.01 39.63 5.43 37.36 7.45 35.46 8.69 34.22 8.69 32.61 8.69 31.4 8.08 31.27 7.78 31.27 6.53 31.27 5.52 30.33 5.52 29.16 5.52 27.99 6.53 27.05 7.78 27.05 8.02 27.05 8.26 27.04 8.49 27.03 9.64 26.99 11.08 26.94 12.18 27.93 12.65 28.35 13.2 29.12 13.2 30.38L13.2 32.6C13.2 36.03 10.77 38.31 8.63 40.32 6.42 42.39 4.52 44.19 4.52 47.11 4.52 49.14 4.52 55.33 22.45 55.33 40.38 55.33 40.38 49.14 40.38 47.11 40.38 44.18 38.47 42.39 36.27 40.32 34.13 38.31 31.7 36.03 31.7 32.6L31.7 30.4C31.7 29.13 32.26 28.36 32.72 27.95 33.82 26.96 35.26 27.01 36.41 27.05 36.64 27.06 36.88 27.07 37.12 27.07 38.37 27.07 39.38 28.02 39.38 29.18 39.38 30.35 38.37 31.29 37.12 31.29 36.82 31.29 36.21 31.47 36.21 32.63 36.21 34.23 37.45 35.48 39.47 37.38 41.89 39.65 44.9 42.48 44.9 47.15 44.89 57.42 32.69 59.58 22.45 59.58Z" fill="#030000"/></g><g><path d="M11.15 23.02C10.88 22.4 14.9 20.24 16.91 17.22 17.9 15.72 19.45 17.4 18.45 18.89 16.05 22.52 11.46 23.73 11.15 23.02Z"/></g><g><path d="M33.49 21.62C33.81 21.13 28.91 19.41 26.46 17.01 25.25 15.82 23.37 17.15 24.59 18.34 27.53 21.21 33.12 22.18 33.49 21.62Z"/></g><g><path d="M19.5 37.46 19.5 20.41C19.5 17.1 23.83 17.1 23.83 20.41L23.83 37.46C23.83 40.88 19.5 40.88 19.5 37.46Z" fill="#030000"/></g><g><path d="M8.22 7.23C7.85 6.55 13.51 4.14 16.36 0.8 17.76-0.86 19.93 0.98 18.52 2.63 15.11 6.64 8.64 8.01 8.22 7.23Z"/></g><g><path d="M34.63 7.53C34.99 6.8 29.49 4.25 26.73 0.69 25.37-1.07 23.27 0.88 24.64 2.63 27.95 6.89 34.22 8.36 34.63 7.53Z"/></g><g><path d="M19.38 15.02 19.38 2.52C19.38 0.1 23.71 0.1 23.71 2.52L23.71 15.02C23.71 17.53 19.38 17.53 19.38 15.02Z" fill="#030000"/></g></svg>