<svg width="60.1" height="59.75" viewBox="0 0 60.1 59.75" xmlns="http://www.w3.org/2000/svg" xmlns:xlink="http://www.w3.org/1999/xlink" overflow="visible"><defs></defs><path d="M58.95 39.1C58.95 39.1 57.68 39.1 57.26 39.1 55.69 39.1 54.95 38.15 54.95 36.81 54.95 35.55 54.95 33.02 54.95 31.76 54.95 30 55.56 29.56 57.17 29.56 57.62 29.56 58.99 29.56 58.99 29.56 59.6 29.56 60.1 29.06 60.1 28.45 60.1 27.84 59.6 27.34 58.99 27.34 58.99 27.34 57.7 27.34 57.27 27.34 55.99 27.34 54.96 26.66 54.96 25.18 54.96 23.88 54.96 21.29 54.96 19.99 54.96 18.44 55.79 17.8 57.23 17.8 57.56 17.8 59 17.8 59 17.8 59.62 17.8 60.11 17.3 60.11 16.69 60.11 16.07 59.61 15.58 59 15.58 59 15.58 57.56 15.58 57.23 15.58 55.92 15.58 54.96 15.08 54.96 13.43 54.96 8.52 50.97 4.53 46.06 4.53 46.06 4.53 37.64 4.53 34.83 4.53 33.18 4.53 33.06 3.65 34.01 2.69 34.2 2.5 34.78 1.92 34.78 1.92 35.21 1.48 35.21 0.78 34.78 0.35 34.34-0.08 33.64-0.08 33.21 0.35 33.21 0.35 31.75 1.81 31.27 2.3 29.44 4.14 28.49 4.53 25.34 4.53 22.45 4.53 13.77 4.53 13.77 4.53 8.86 4.53 4.87 8.52 4.87 13.43 4.87 13.43 4.87 22.71 4.87 25.8 4.87 28.2 4.37 29.34 3.09 30.63 2.4 31.32 0.34 33.39 0.34 33.39-0.09 33.83-0.09 34.53 0.34 34.96 0.56 35.18 0.84 35.28 1.12 35.28 1.41 35.28 1.69 35.17 1.91 34.95 1.91 34.95 2.86 33.99 3.18 33.68 4.06 32.8 4.86 32.17 4.86 34.56 4.86 37.35 4.86 45.73 4.86 45.73 4.86 50.64 8.85 54.63 13.76 54.63 13.76 54.63 22.82 54.63 25.84 54.63 27.68 54.63 28.37 54.76 28.37 56.96 28.37 57.39 28.37 58.67 28.37 58.67 28.37 59.29 28.87 59.78 29.48 59.78 30.09 59.78 30.59 59.28 30.59 58.67 30.59 58.67 30.59 57.46 30.59 57.06 30.59 55.49 30.86 54.64 32.94 54.64 36.22 54.64 46.06 54.64 46.06 54.64 50.97 54.64 54.96 50.65 54.96 45.74 54.96 45.74 54.96 44 54.96 43.42 54.96 42.04 55.63 41.35 57.23 41.35 57.66 41.35 58.96 41.35 58.96 41.35 59.58 41.35 60.07 40.85 60.07 40.24 60.07 39.6 59.57 39.1 58.95 39.1ZM50.17 39.1C45.88 39.1 37.3 39.1 33.01 39.1 31.06 39.1 30.59 38.45 30.59 36.9 30.59 35.65 30.59 33.15 30.59 31.89 30.59 30.31 31.33 29.55 32.93 29.55 37.24 29.55 45.86 29.55 50.17 29.55 51.94 29.55 52.73 30.13 52.73 31.89 52.73 33.13 52.73 35.61 52.73 36.85 52.72 38.44 51.81 39.1 50.17 39.1ZM50.16 27.33C45.86 27.33 37.26 27.33 32.96 27.33 31.34 27.33 30.58 26.79 30.58 25.01 30.58 23.79 30.58 21.36 30.58 20.14 30.58 18.42 31.11 17.78 32.96 17.78 37.26 17.78 45.86 17.78 50.16 17.78 52.19 17.78 52.72 18.53 52.72 20.11 52.72 21.33 52.72 23.76 52.72 24.98 52.72 26.83 52.04 27.33 50.16 27.33ZM46.05 6.74C49.73 6.74 52.72 9.73 52.72 13.41 52.72 14.86 52.14 15.56 50.35 15.56 44.61 15.56 30.05 15.56 24.43 15.56 23.17 15.56 21.81 14.92 23.45 13.27 24.46 12.26 26.72 9.98 28.29 8.4 29.53 7.15 30.22 6.73 32.46 6.73 35.86 6.74 46.05 6.74 46.05 6.74ZM7.08 13.41C7.08 9.73 10.07 6.74 13.75 6.74 13.75 6.74 21.35 6.74 23.89 6.74 25.77 6.74 25.41 8.16 24.83 8.74 21 12.59 13.33 20.29 9.5 24.14 8.33 25.32 7.08 25.05 7.08 23.23 7.08 20.78 7.08 13.41 7.08 13.41ZM13.75 52.38C10.07 52.38 7.08 49.39 7.08 45.71 7.08 45.71 7.08 35.87 7.08 32.59 7.08 30.69 7.57 29.24 8.94 27.87 11.38 25.41 15.58 21.2 17.34 19.42 18.63 18.12 19.14 17.79 21.49 17.79 23.1 17.79 25.06 17.79 26.01 17.79 27.37 17.79 28.37 18.15 28.37 20.06 28.37 21.31 28.37 23.8 28.37 25.05 28.37 26.68 27.86 27.34 26.02 27.34 24.18 27.34 18.67 27.34 18.67 27.34 18.05 27.34 17.56 27.84 17.56 28.45 17.56 29.06 18.06 29.56 18.67 29.56 18.67 29.56 24.18 29.56 26.02 29.56 27.89 29.56 28.37 30.21 28.37 31.85 28.37 33.1 28.37 35.59 28.37 36.84 28.37 38.68 27.52 39.11 26.02 39.11 24.18 39.11 18.67 39.11 18.67 39.11 18.05 39.11 17.56 39.61 17.56 40.22 17.56 40.84 18.06 41.33 18.67 41.33 18.67 41.33 24.18 41.33 26.02 41.33 27.71 41.33 28.37 42.15 28.37 43.53 28.37 45.17 28.37 48.46 28.37 50.1 28.37 51.94 28.18 52.39 26 52.39 22.93 52.38 13.75 52.38 13.75 52.38ZM52.72 45.71C52.72 49.39 49.73 52.38 46.05 52.38 46.05 52.38 36.27 52.38 33.01 52.38 31.12 52.38 30.58 51.6 30.58 50.11 30.58 48.49 30.58 45.24 30.58 43.62 30.58 42.09 31.2 41.32 32.96 41.32 37.26 41.32 45.86 41.32 50.16 41.32 52.23 41.32 52.72 41.93 52.72 43.48 52.72 44.04 52.72 45.71 52.72 45.71Z"/></svg>