<svg width="64.67" height="68.57" viewBox="0 0 64.67 68.57" xmlns="http://www.w3.org/2000/svg" xmlns:xlink="http://www.w3.org/1999/xlink" overflow="visible"><defs></defs><path d="M50.45 68.56C49.71 68.49 49.4 67.6 49.28 67.08 49.27 67.06 48.46 64.19 46.92 60.89 46.72 60.48 46.25 59.8 45.23 59.89 43.61 60.04 40.94 61.19 37.01 59.8 36.47 59.61 36.07 58.81 36.3 58.28 36.52 57.78 37.33 57.72 37.9 57.91 38.85 58.23 40.19 58.45 42.3 58.13 43.3 57.98 43.92 57.69 44.15 57.1 44.57 55.98 43.58 54.33 43.3 53.98 41.16 51.19 37.28 50.68 37.24 50.67 36.56 50.53 36.07 49.82 36.12 49.29 36.2 48.52 37.02 48.46 37.37 48.53 38.22 48.71 41.91 49.23 44.87 52.68 45.47 53.38 46.12 53.03 45.85 51.55 45.18 48.04 41.43 47.31 41.27 47.26 40.56 47.06 40.11 46.46 40.19 45.87 40.28 45.19 40.93 45 41.52 45.13 43.55 45.59 47.2 47.21 47.89 51.28 48.15 52.81 48.17 54.19 47.98 55.36 47.89 55.91 47.77 57.61 48.38 58.89 49.9 62.16 50.66 64.44 51.3 66.68 51.57 67.68 51.48 68.66 50.45 68.56Z" fill="#030000"/><path d="M50.95 28.91C50.52 30.03 49.97 31.09 49.25 32.37 48.21 34.24 49.19 36.21 48.72 38.58 47.97 42.29 44.69 43.47 43.06 43.59 41.52 43.68 41.31 41.62 42.91 41.5 42.94 41.5 46.09 41.1 46.77 38.12 46.94 37.36 46.73 37.27 46.48 37.66 45.02 39.96 42.58 40.94 40.77 41.26 39.31 41.53 38.88 39.47 40.42 39.2 41.84 38.95 44.43 37.99 45.45 35.51 46.74 32.38 43.07 30 39.99 31.63 38.53 32.41 37.7 30.49 39.09 29.76 40.96 28.77 42.99 28.84 45.17 29.85 46.19 30.32 46.63 30.97 47.25 30.88 47.51 30.84 47.85 30.66 48.2 29.99 48.55 29.3 48.88 28.65 49.16 27.94 49.71 26.54 51.53 27.41 50.95 28.91Z" fill="#030000"/><g><path d="M19.94 32.75C18.92 32.75 15.87 32.75 15.87 32.75 11.82 32.75 10.02 34.35 10.02 37.93 10.02 39.19 10.67 39.71 11.95 38.94 12.47 38.63 12.97 38.16 13.47 37.54 15.11 35.48 16.79 35.05 18.28 34.69 18.66 34.59 19.02 34.5 19.38 34.39 19.83 34.24 20.21 34 20.52 33.73 21.12 33.19 20.96 32.75 19.94 32.75Z" fill="none"/><path d="M30.69 31.79C30.69 31.26 30.18 30.83 29.55 30.83L15.86 30.83C10.54 30.83 7.72 33.29 7.72 37.94L7.72 56C7.72 56.07 7.72 58.69 7.72 58.77 7.67 60.99 6.84 64.45 2.16 64.45 1.53 64.45 1.02 64.88 1.02 65.41 1.02 65.94 1.53 66.37 2.16 66.37 6.96 66.37 9.88 63.57 10.01 58.86 10.01 58.75 10.01 56.1 10.01 55.99 10.01 55.41 10.09 55.1 11.06 54.92 14.2 54.36 18.18 52.89 21.76 49.29 23 48.04 21.21 46.2 19.64 47.79 16.89 50.56 13.9 51.87 11.38 52.45 10.29 52.71 10.01 52.32 10.01 51.6 10.01 51.15 10.01 50.26 10.01 49.81 10.01 48.84 10.45 48.54 11.49 48.25 13.4 47.72 15.7 46.51 17.78 43.86 19.84 41.23 21.75 40.75 23.96 40.19 24.64 40.02 25.33 39.84 26.05 39.6 27.8 39.02 27.06 37.12 25.18 37.68 24.54 37.87 23.93 38.05 23.28 38.21 20.85 38.82 18.33 39.46 15.78 42.7 14.31 44.57 12.76 45.56 11.41 46.06 10.43 46.43 10.01 46.12 10.01 45.27 10.01 44.73 10.01 43.65 10.01 43.11 10.01 42.09 10.37 41.85 11.48 41.55 12.87 41.17 14.28 40.31 15.56 38.7 16.69 37.27 17.66 37.03 18.99 36.7 19.41 36.6 19.84 36.49 20.29 36.34 22.02 35.77 23.06 34.53 23.62 33.65 24.13 32.84 24.77 32.73 25.47 32.73 26.22 32.73 29.53 32.73 29.55 32.73 30.18 32.75 30.69 32.32 30.69 31.79ZM20.51 33.72C20.2 33.99 19.82 34.24 19.37 34.38 19.01 34.5 18.65 34.59 18.27 34.68 16.78 35.05 15.1 35.47 13.46 37.53 12.96 38.15 12.46 38.62 11.94 38.93 10.66 39.7 10.01 39.19 10.01 37.92 10.01 34.33 11.81 32.74 15.86 32.74 15.86 32.74 18.92 32.74 19.93 32.74 20.96 32.75 21.12 33.19 20.51 33.72Z"/></g><path d="M38.13 20.85C38.18 19.66 39.11 18.78 40.03 17.4 40.09 17.31 40.14 17.37 40.16 17.39 41.57 19.08 42.08 19.48 42.16 20.83 42.23 22.02 41.56 23 40.26 23.05 39.11 23.1 38.08 22.28 38.13 20.85Z" fill-rule="evenodd" clip-rule="evenodd"/><path d="M22.46 20.85C22.51 19.66 23.44 18.78 24.36 17.4 24.42 17.31 24.47 17.37 24.49 17.39 25.9 19.08 26.41 19.48 26.49 20.83 26.56 22.02 25.89 23 24.59 23.05 23.44 23.1 22.41 22.28 22.46 20.85Z" fill-rule="evenodd" clip-rule="evenodd"/><path d="M53 23.6C53.05 22.41 53.98 21.53 54.9 20.15 54.96 20.06 55.01 20.12 55.03 20.15 56.44 21.84 56.95 22.23 57.03 23.59 57.1 24.78 56.43 25.76 55.13 25.81 53.98 25.85 52.95 25.03 53 23.6Z" fill-rule="evenodd" clip-rule="evenodd"/><path d="M11.25 23.85C11.2 22.66 10.27 21.78 9.35 20.4 9.29 20.31 9.24 20.37 9.22 20.39 7.81 22.08 7.29 22.48 7.22 23.83 7.15 25.02 7.82 26 9.12 26.05 10.27 26.1 11.3 25.28 11.25 23.85Z" fill-rule="evenodd" clip-rule="evenodd"/><path d="M23.24 1.79C20.55 2.55 19.34 0.38 15.28 1.71 11.74 2.87 13.15 5.46 15.94 5.71 18.9 5.98 19.03 4.64 26.1 4.64 29.45 4.64 33.41 8.14 42.57 5.5 45.56 4.64 47.64 5.86 49.62 5.19 52.3 4.3 50.8 2.02 47.62 1.47 44.92 1.01 43.75 1.33 40.67 2 38.32 2.52 33.61-2.59 23.24 1.79Z" fill="#030000" fill-rule="evenodd" clip-rule="evenodd"/><path d="M64.58 21.35C64.06 19.28 63.46 17.52 62.75 16.31 60.95 13.22 57.13 11.21 51.39 10.34 47.67 9.77 44.39 9.89 43.8 9.91L33.57 9.91C33.57 9.91 32.79 9.82 32.77 9.27 32.82 9.15 32.85 9.03 32.85 8.91 32.86 8.89 32.86 8.88 32.87 8.86L32.85 8.86C32.85 8.47 32.68 8.1 32.33 7.88 31.79 7.54 31.07 7.7 30.73 8.24 30.6 8.45 30.49 8.65 30.37 8.86L30.36 8.86C30.36 8.86 30.36 8.87 30.36 8.87 30.29 9 30.22 9.13 30.15 9.26 29.9 9.56 29.37 9.91 28.17 9.91L20.86 9.91C20.27 9.88 16.99 9.77 13.27 10.34 7.54 11.21 3.72 13.22 1.91 16.31 1.2 17.52 0.6 19.27 0.08 21.35-0.18 22.51 0.08 23.74 1.45 23.74 2.82 23.74 3.49 23.18 3.93 21.27 4.29 19.98 4.68 18.93 5.12 18.18 7.62 13.89 17.25 13.44 20.76 13.62 20.79 13.62 20.83 13.62 20.86 13.62 20.89 13.62 20.93 13.63 20.96 13.62L27.89 13.62C28.14 13.63 29.1 13.73 29.29 14.99 29.36 15.42 29.42 15.81 29.47 16.17 29.65 17.39 29.81 18.44 30.37 19.86 30.63 20.53 30.97 21.16 31.29 21.77 32.02 23.13 32.71 24.42 32.71 26.18 32.71 28.34 32.31 29.67 31.89 30.48 31.08 32.02 33.09 33.26 33.93 31.57 34.53 30.37 35.03 28.65 35.03 26.18 35.03 23.83 34.13 22.15 33.34 20.67 33.03 20.1 32.74 19.55 32.53 19.01 32.07 17.84 31.95 17 31.77 15.83 31.72 15.49 31.67 15.13 31.6 14.74 31.63 14.35 31.81 13.62 32.87 13.62L43.71 13.62C45.69 13.62 43.78 13.62 43.81 13.62 43.85 13.62 43.88 13.63 43.91 13.62 47.42 13.44 57.04 13.89 59.55 18.18 59.98 18.92 60.38 19.98 60.74 21.27 61.17 23.18 61.85 23.74 63.21 23.74 64.58 23.74 64.84 22.5 64.58 21.35Z"/></svg>