<svg width="51.58" height="57.08" viewBox="0 0 51.58 57.08" xmlns="http://www.w3.org/2000/svg" xmlns:xlink="http://www.w3.org/1999/xlink" overflow="visible"><defs></defs><path d="M14.97 11.88C17.7 9.99 17.75 5.75 17.75 5.71 17.75 4.73 19.03 4.74 19.03 5.71 19.03 5.91 18.99 10.65 15.7 12.94 14.94 13.47 14.18 12.42 14.97 11.88Z"/><path d="M16.28 18.18C15.78 17.4 16.84 16.67 17.36 17.49 18.14 18.72 21.34 19.64 22.02 17.19 22.28 16.25 22.02 15.53 21.6 14.75 20.57 12.83 20.71 10.3 22.72 8.8 23.42 8.27 24.22 9.28 23.49 9.83 22.22 10.78 21.97 12.64 22.77 14.23 23.22 15.11 23.63 16.15 23.25 17.54 22.27 21.09 17.67 20.37 16.28 18.18Z"/><path d="M3.59 20.11C3.2 18.72 3.65 17.64 4.07 16.8 5.3 14.34 3.86 12.78 3.35 12.4 2.72 11.93 3.43 10.83 4.12 11.38 5.93 12.8 6.34 15.13 5.24 17.33 4.82 18.16 4.57 18.84 4.82 19.77 5.53 22.31 8.77 21.18 9.48 20.07 9.95 19.32 11.01 20.06 10.56 20.75 9.04 23.14 4.52 23.47 3.59 20.11Z"/><path d="M7.52 12.41C7.52 11.63 7.22 10.94 6.89 10.2 6.27 8.77 5.56 7.15 6.63 4.53 6.98 3.67 8.2 4.07 7.82 5.01 6.95 7.14 7.5 8.37 8.07 9.68 8.43 10.51 8.81 11.36 8.81 12.4 8.8 13.46 7.52 13.46 7.52 12.41Z"/><path d="M13.58 18.6C11.02 17.98 8.96 13.49 12.52 8.72 14.26 6.38 15.02 3.8 13.2 1.06 12.62 0.19 13.73-0.41 14.27 0.35 16.35 3.33 15.59 6.9 13.59 9.43 10.17 13.76 12.78 17.07 13.89 17.36 14.74 17.57 14.32 18.78 13.58 18.6Z"/><path d="M41.45 11.88C44.18 9.99 44.22 5.75 44.22 5.71 44.23 4.73 45.5 4.74 45.5 5.71 45.5 5.91 45.46 10.65 42.17 12.94 41.42 13.47 40.65 12.42 41.45 11.88Z"/><path d="M41.82 20.04C41.32 19.26 42.38 18.53 42.9 19.35 43.68 20.58 46.87 21.5 47.56 19.05 47.82 18.11 47.56 17.39 47.15 16.61 46.13 14.69 46.26 12.16 48.27 10.66 48.97 10.13 49.77 11.14 49.04 11.69 47.77 12.64 47.52 14.5 48.32 16.09 48.77 16.97 49.18 18.01 48.8 19.4 47.81 22.95 43.21 22.23 41.82 20.04Z"/><path d="M29.13 17.25C28.75 15.86 29.19 14.78 29.61 13.94 30.84 11.48 29.4 9.92 28.89 9.54 28.26 9.07 28.96 7.97 29.66 8.52 31.47 9.93 31.88 12.27 30.78 14.47 30.36 15.3 30.11 15.98 30.36 16.91 31.07 19.45 34.31 18.32 35.02 17.21 35.49 16.46 36.55 17.2 36.1 17.89 34.59 20.29 30.06 20.62 29.13 17.25Z"/><path d="M34 12.41C34 11.63 33.69 10.94 33.37 10.2 32.74 8.77 32.04 7.16 33.1 4.53 33.45 3.67 34.67 4.07 34.29 5.01 33.43 7.14 33.97 8.37 34.54 9.68 34.9 10.51 35.28 11.36 35.28 12.4 35.28 13.46 34 13.46 34 12.41Z"/><path d="M40.05 18.6C37.49 17.98 35.43 13.49 38.99 8.72 40.73 6.38 41.49 3.8 39.67 1.06 39.09 0.19 40.2-0.41 40.74 0.35 42.82 3.33 42.06 6.9 40.06 9.43 36.64 13.76 39.25 17.07 40.36 17.36 41.21 17.57 40.79 18.78 40.05 18.6Z"/><path d="M50.84 42.55C50.84 42.55 32.88 31.47 29.07 29.12 28.6 28.83 28.15 28.22 29.07 27.66 30.8 26.59 35.99 23.38 35.99 23.38 36.52 23.05 36.68 22.36 36.36 21.83 36.03 21.3 35.34 21.14 34.81 21.46 34.81 21.46 30.47 24.14 29.02 25.03 25.84 27 25.64 27 22.45 25.03 21 24.14 16.67 21.46 16.67 21.46 16.14 21.13 15.45 21.3 15.12 21.83 14.79 22.36 14.96 23.05 15.48 23.38 15.48 23.38 20.71 26.6 22.45 27.68 23.24 28.17 23.16 28.65 22.45 29.09 18.65 31.44 0.71 42.48 0.71 42.48-0.84 43.44 0.44 45.29 1.89 44.39 1.89 44.39 18.94 33.9 22.46 31.73 25.67 29.75 25.75 29.71 29.07 31.76 32.58 33.93 49.66 44.46 49.66 44.46 51.12 45.36 52.46 43.55 50.84 42.55Z" fill="#030000"/><path d="M33.42 49.75C32.65 48.66 31.38 49.7 32.17 50.78 33.29 52.32 32.53 53.76 30.71 54.66 28.48 55.76 24.7 55.83 22.61 54.38 20.83 53.15 20.8 51.16 22.98 49.78 24.96 48.53 26.09 48.01 27.03 46.01 27.38 45.27 27.63 44.31 28.85 43.83 30.28 43.27 31.1 42.5 30.97 40.59 30.85 38.75 29.51 37.7 28.32 36.78 27.95 36.49 27.6 36.22 27.32 35.95 26.66 35.33 26.75 35.16 26.71 34.39 26.63 33.16 25.01 33.27 25.09 34.49 25.13 35.21 24.95 35.55 24.69 35.82 24.39 36.13 24.01 36.42 23.6 36.74 22.43 37.64 21.11 38.66 21.06 40.52 21 42.97 22.66 43.58 23.87 44.02 25.44 44.6 25.7 45.44 24.82 46.59 23.96 47.71 22.14 48.27 20.82 49.62 18.99 51.48 19.41 54.24 21.79 55.77 24.12 57.27 28.38 57.56 31.28 56.17 34.48 54.64 35.04 52.02 33.42 49.75ZM27.59 37.75C28.67 38.59 29.69 39.38 29.77 40.67 29.85 42.03 29.24 42.41 28.15 42.81 27.42 43.08 27.12 42.97 27.1 42.16 27.06 40.91 27 39.43 26.93 38.11 26.9 37.62 27.31 37.53 27.59 37.75ZM24.3 42.89C22.99 42.41 22.25 42.06 22.28 40.56 22.31 39.28 23.3 38.52 24.34 37.72 24.96 37.24 25.26 37.41 25.29 38.1 25.36 39.43 25.43 40.92 25.46 42.17 25.5 43.04 25.17 43.21 24.3 42.89Z" fill="#030000"/></svg>