<svg version="1.1" width="33.81" height="55.6" viewBox="0 0 33.81 55.6" xmlns="http://www.w3.org/2000/svg" xmlns:xlink="http://www.w3.org/1999/xlink" overflow="visible"><defs></defs><path d=" M 17.62 0.01 C 18.39 0.09 18.95 0.77 18.87 1.54 C 18.63 3.94 19.34 6.14 20.09 8.47 C 21.48 12.77 23.05 17.65 19.22 24.9 C 18.86 25.58 18.01 25.84 17.33 25.48 C 16.65 25.12 16.39 24.28 16.75 23.59 C 20.04 17.38 18.77 13.47 17.43 9.32 C 16.62 6.82 15.79 4.24 16.09 1.26 C 16.17 0.49 16.85 -0.07 17.62 0.01 Z"/><g><path d=" M 14.44 22.5 C 14.21 22.5 13.98 22.41 13.81 22.21 C 11.32 19.25 12.24 16.23 13.05 13.56 C 13.43 12.29 13.83 10.98 13.88 9.7 C 13.9 9.25 14.23 8.88 14.72 8.92 C 15.16 8.94 15.51 9.31 15.49 9.75 C 15.44 11.24 15.01 12.65 14.59 14.02 C 13.8 16.62 13.11 18.87 15.04 21.16 C 15.32 21.5 15.28 22.01 14.94 22.3 C 14.8 22.44 14.62 22.5 14.44 22.5 Z" fill="#030000"/></g><path d=" M 29.68 25.36 C 27.97 27.77 25.54 29.5 21.99 30.17 C 18.06 30.91 14.79 30.73 11.83 30.17 C 8.28 29.5 5.85 27.77 4.14 25.36 C 2.12 22.52 -1.35 25.13 0.56 27.72 C 3.01 31.05 6.25 33.27 10.99 34.17 C 14.34 34.81 14.76 35.57 14.77 37.75 C 14.77 37.75 14.77 38.71 14.77 40.19 C 14.77 40.74 14.52 40.96 14 40.96 C 10.96 40.96 10.98 45.23 13.99 45.23 C 14.43 45.23 14.78 45.45 14.78 46 C 14.78 47.12 14.78 48.26 14.78 49.34 C 14.78 50.7 14.22 51.33 12.79 51.33 C 10.33 51.33 9.56 51.33 9.05 51.33 C 6.01 51.33 6.03 55.6 9.04 55.6 C 10.35 55.6 23.48 55.6 24.79 55.6 C 27.8 55.6 27.82 51.33 24.78 51.33 C 24.27 51.33 23.5 51.33 21.04 51.33 C 19.64 51.33 19.07 50.74 19.07 49.35 C 19.07 48.27 19.07 47.13 19.07 46 C 19.07 45.54 19.3 45.23 19.85 45.23 C 22.86 45.23 22.88 40.96 19.84 40.96 C 19.37 40.96 19.07 40.74 19.07 40.19 C 19.07 38.72 19.07 37.76 19.07 37.75 C 19.08 35.57 19.5 34.81 22.85 34.17 C 27.59 33.27 30.83 31.04 33.28 27.72 C 35.16 25.13 31.7 22.52 29.68 25.36 Z" fill="#030000"/></svg>