<svg width="60.06" height="60.69" viewBox="0 0 60.06 60.69" xmlns="http://www.w3.org/2000/svg" xmlns:xlink="http://www.w3.org/1999/xlink" overflow="visible"><defs></defs><g><path d="M11.22 8.38C11.59 7.84 11.52 7.18 11.08 6.75 10.62 6.31 9.74 6.32 9.37 6.84 8.85 7.58 9.07 8.25 9.64 8.63 10.25 9.05 10.99 8.72 11.22 8.38Z" fill="#060102"/><path d="M42.31 41.85C40.23 36.72 37.35 33.57 33.3 32.23 31.27 31.56 29.13 31.91 26.82 31.87 24.44 31.83 22.94 31.49 21.89 29.72 19.76 26.14 18.89 22.2 18.21 18.51 17.93 16.98 18.11 16.1 19.99 16.15 20.75 16.17 21.44 16.29 22.08 16.39 22.87 16.53 23.6 16.63 24.33 16.57 25.78 16.45 25.62 14.5 24.1 14.61 23.62 14.65 22.99 14.64 22.09 14.43 21.28 14.24 20.34 14.09 19.22 14.16 17.96 14.24 17.41 14.1 17.17 13.06 16.89 11.87 17.19 11.48 18.48 11.31 19.42 11.19 20.26 11.25 21.04 11.3 22.29 11.39 23.39 11.46 24.47 10.77 25.11 10.36 25.75 9.39 24.73 8.95 23.81 8.56 23.54 9.7 20.87 9.34 20.17 9.25 19.39 9.19 18.5 9.29 16.3 9.52 16.18 9.41 15.4 8 14.78 6.88 15.19 6.44 16.28 6.1 17.62 5.68 18.38 5.07 18.79 4.72 19.98 3.71 18.82 2.16 17.57 3.12 16.3 4.08 14.98 4.39 13.6 4 8.77 2.65 6.28 2.44 0.87 4.13 0.86 4.13 0.85 4.14 0.83 4.14 0.82 4.15 0.82 4.15 0.82 4.15-0.62 4.69-0.03 6.45 1.59 6 3.96 5.35 5.99 4.61 8.82 5.11 14.08 6.04 14.87 11.29 16.07 17.21 17.04 21.99 17.27 24.15 19.37 29.28 20.03 30.9 21.56 32.47 18.83 32.08 15.97 31.68 15.85 31.45 15.75 29.02 15.58 24.73 15.43 21.02 14.64 18.13 12.94 11.89 11.46 11 9.22 10.28 6.06 9.28 6.3 6.57 2.86 6.85 1.07 7 1.4 9.07 3.14 8.8 4.87 8.53 5.17 10.95 8.62 12.21 10.08 12.74 11.17 13.03 12.71 18.67 13.44 21.34 13.58 24.94 13.75 29.11 13.91 33.11 14.09 37.64 14.82 42.52 16.44 53.39 18.29 59.48 18.37 59.74 18.82 61.21 20.77 60.73 20.29 59.15 20.27 59.09 18.41 52.93 16.81 42.22 16.51 40.22 16.31 38.28 16.16 36.41 16.01 34.5 16.55 33.88 18.85 34.12 20.22 34.26 20.3 34.46 20.51 37.32 20.81 41.55 21.69 49.26 24.13 59.8 24.46 61.23 26.43 60.85 26.09 59.35 23.84 49.61 22.95 42.23 22.59 37.92 22.31 34.5 23.27 34.47 24.65 34.27 26.68 33.97 27.41 34.96 27.53 36.58 27.84 40.62 29.49 48.12 29.49 59.59 29.49 61.02 31.5 61.1 31.5 59.59 31.5 47.57 29.76 39.71 29.56 36.05 29.43 33.66 33.37 34.41 34.38 36.75 38.34 45.98 35.36 58.58 35.33 58.71 34.95 60.3 36.9 60.69 37.28 59.19 37.39 58.7 39.91 48.09 37.21 38.77 36.8 37.35 37.14 37.07 37.94 38.02 39.71 40.15 40.34 42.22 40.4 42.4 40.78 43.84 42.95 43.41 42.31 41.85Z" fill="#060102"/></g><path d="M49.57 0C50.07 0.05 50.43 0.49 50.38 0.99 50.22 2.55 50.69 3.97 51.17 5.49 52.07 8.28 53.09 11.45 50.61 16.15 50.37 16.59 49.82 16.76 49.38 16.53 48.94 16.3 48.77 15.75 49 15.3 51.13 11.27 50.31 8.73 49.44 6.04 48.92 4.42 48.38 2.74 48.57 0.81 48.62 0.32 49.07-0.05 49.57 0Z"/><g><path d="M47.5 14.61C47.35 14.61 47.2 14.55 47.09 14.42 45.47 12.5 46.07 10.54 46.6 8.81 46.85 7.99 47.11 7.14 47.14 6.31 47.15 6.02 47.36 5.78 47.68 5.81 47.97 5.82 48.19 6.06 48.18 6.35 48.14 7.32 47.87 8.23 47.6 9.12 47.09 10.81 46.64 12.27 47.89 13.75 48.07 13.97 48.05 14.3 47.82 14.49 47.73 14.57 47.62 14.61 47.5 14.61Z" fill="#030000"/></g><path d="M57.38 16.6C56.27 18.16 54.7 19.29 52.39 19.72 49.84 20.2 47.72 20.08 45.8 19.72 43.5 19.29 41.93 18.16 40.81 16.6 39.5 14.76 37.25 16.45 38.49 18.13 40.08 20.29 42.18 21.73 45.25 22.31 47.42 22.72 47.69 23.22 47.7 24.63 47.7 24.63 47.7 30.9 47.7 31.86 47.7 32.22 47.54 32.36 47.2 32.36 45.23 32.36 45.24 35.13 47.19 35.13 47.47 35.13 47.7 35.27 47.7 35.63 47.7 36.36 47.7 55.92 47.7 56.62 47.7 57.5 47.34 57.91 46.41 57.91 44.81 57.91 44.32 57.91 43.98 57.91 42.01 57.91 42.02 60.68 43.97 60.68 44.82 60.68 53.33 60.68 54.18 60.68 56.13 60.68 56.14 57.91 54.17 57.91 53.84 57.91 53.34 57.91 51.74 57.91 50.83 57.91 50.46 57.53 50.46 56.63 50.46 55.93 50.46 36.36 50.46 35.63 50.46 35.33 50.61 35.13 50.97 35.13 52.92 35.13 52.93 32.36 50.96 32.36 50.66 32.36 50.46 32.22 50.46 31.86 50.46 30.91 50.46 24.64 50.46 24.63 50.47 23.22 50.74 22.72 52.91 22.31 55.98 21.73 58.08 20.28 59.67 18.13 60.94 16.46 58.7 14.76 57.38 16.6Z" fill="#030000"/></svg>