<svg width="61.65" height="61.05" viewBox="0 0 61.65 61.05" xmlns="http://www.w3.org/2000/svg" xmlns:xlink="http://www.w3.org/1999/xlink" overflow="visible"><defs></defs><path d="M55.31 11.86C56.28 10.19 56.3 9.54 55.32 8.02 53.79 5.63 49.35 0.06 41.31 0.06 33.38 0.06 28.94 5.52 27.4 7.87 26.62 9.06 26.54 10.42 27.33 11.85 28.27 13.55 31.75 18.83 39.22 19.61 40.84 19.78 40.97 20.36 40.19 21.01 39.19 21.85 38.49 22.78 37.34 24.23 34.31 28.03 33.76 29.99 33.83 32.14 33.9 34.45 35.34 36.24 36.26 38.77 37 40.78 36.76 41.25 36.64 44.62 36.56 46.81 39.43 46.89 39.57 44.84 39.89 40.09 40.12 39.56 38.73 35.96 37.77 33.49 36.68 31.7 38.34 29.04 39.2 27.66 40.08 26.58 40.95 25.56 42.11 24.22 43.33 25.6 43.83 26.16 46.74 29.39 49.37 31.2 52.77 32.79 54.87 33.77 56.45 31.39 53.96 30.23 50.22 28.48 47.67 26.36 45.46 23.54 44.64 22.49 43.61 21.49 43.28 20.9 42.94 20.29 42.84 19.69 43.73 19.57 50.81 18.56 54.34 13.53 55.31 11.86ZM45.32 9.9C45.32 12.11 43.52 13.91 41.31 13.91 39.1 13.91 37.31 12.11 37.31 9.9 37.31 7.69 39.11 5.89 41.31 5.89 43.53 5.89 45.32 7.69 45.32 9.9ZM38.03 16.12C33.17 14.98 30.85 11.5 30.18 10.28 29.97 9.9 30.04 9.77 30.12 9.65 31.14 8.1 33.71 4.89 38.04 3.74 38.94 3.5 38.9 3.69 38.03 4.19 36.05 5.33 34.72 7.46 34.72 9.9 34.72 12.37 36.09 14.53 38.11 15.66 38.94 16.12 38.89 16.32 38.03 16.12ZM52.51 10.23C51.55 11.79 49.12 15.13 44.36 16.18 43.49 16.37 43.42 16.22 44.26 15.81 46.43 14.73 47.92 12.49 47.92 9.91 47.92 7.28 46.38 5.01 44.15 3.95 43.37 3.58 43.49 3.46 44.34 3.67 48.9 4.77 51.56 8.15 52.59 9.74 52.59 9.75 52.71 9.9 52.51 10.23Z"/><g><g><path d="M1.52 19.48C-0.4 19.48-0.4 16.86 1.52 16.86 2.99 16.86 8.82 16.86 9.7 16.86 11.16 16.86 11.48 16.45 11.48 15.07 11.48 13.91 11.49 3.87 11.49 1.56 11.49-0.51 14.11-0.51 14.11 1.56 14.11 3.81 14.11 13.73 14.11 15.07 14.11 18.31 13.02 19.48 9.78 19.48 8.76 19.48 3.01 19.48 1.52 19.48Z" fill="#030000"/></g><g><path d="M59.03 52.32 28.15 52.32C22 52.32 17.78 51.37 17.86 44.26 17.94 36.73 17.86 9.08 17.86 1.55 17.86-0.44 20.48-0.44 20.48 1.55L20.48 43.83C20.56 46.8 20.92 49.64 27.28 49.7L59.03 49.7C61 49.71 61 52.32 59.03 52.32Z" fill="#030000"/></g></g><g><path d="M60.12 56.07 26.15 56.07C23.18 56.07 20.52 55.36 18.26 53.96 17.37 53.41 15.96 53.03 14.4 54.89 11.77 58.01 8.97 58.41 5.13 58.42 3.53 58.42 3.48 58.42 1.52 58.42-0.51 58.42-0.51 61.04 1.52 61.04 3.07 61.04 5.06 61.04 5.08 61.04 9.42 61.04 12.34 60.66 15.48 57.59 16.32 56.77 16.95 56.54 17.86 56.98 20.54 58.26 23.14 58.68 26.14 58.68L60.11 58.68C62.15 58.69 62.15 56.07 60.12 56.07Z" fill="#030000"/><path d="M1.44 54.94C2.93 54.94 4.14 54.94 5.15 54.94L5.15 54.93C13.45 54.87 14.1 49.95 14.1 46.82 14.1 46.82 14.1 28.77 14.1 27.36 14.1 25.04 12.64 23.18 10.33 23.18 8.76 23.18 3.48 23.18 1.52 23.18-0.51 23.18-0.51 25.8 1.52 25.8 3.09 25.8 8.69 25.79 9.58 25.79 10.72 25.79 11.47 26.84 11.47 27.52 11.47 28.68 11.48 46.82 11.48 46.82 11.48 50.75 9.15 52.32 5.07 52.32 4.19 52.32 2.9 52.32 1.43 52.32-0.48 52.33-0.48 54.94 1.44 54.94Z" fill="#030000"/></g></svg>