<svg width="54.16" height="65.42" viewBox="0 0 54.16 65.42" xmlns="http://www.w3.org/2000/svg" xmlns:xlink="http://www.w3.org/1999/xlink" overflow="visible"><defs></defs><path d="M43.55 22.42C42.34 22.14 40.35 21.89 40.29 23.35 40.24 24.59 41.85 24.32 41.71 26.09 41.66 26.75 41.49 29.17 41.39 29.69 41.2 30.65 39.79 29.25 39.61 31.29 39.47 32.89 40.84 31.95 40.75 33.2 40.48 36.81 38.82 39.03 35.43 39.72 34.6 39.89 33.85 39.74 33.85 38.4 33.85 37.04 33.85 32.96 33.85 32.96 33.85 32.32 33.33 31.81 32.7 31.81 32.06 31.81 31.55 32.33 31.55 32.96 31.55 32.96 31.55 37 31.55 38.35 31.55 39.76 30.67 39.81 29.84 39.6 26.68 38.79 25.36 36.59 24.86 33.33 24.67 32.08 26.35 32.57 26 31 25.57 29.08 24.4 30.63 24.22 29.67 24.12 29.15 23.95 26.73 23.9 26.07 23.76 24.29 25.41 24.56 25.32 23.32 25.21 21.81 23.4 22.18 22.19 22.39 21.47 22.51 21.37 23.11 21.39 24.3 21.73 35.29 23.26 40.8 29.97 41.92 31.17 42.12 31.56 42.38 31.56 43.79 31.56 45.43 31.56 45.83 31.56 45.83 31.56 46.47 32.08 46.98 32.71 46.98 33.35 46.98 33.86 46.46 33.86 45.83 33.86 45.83 33.86 45.48 33.86 43.86 33.86 42.64 34.06 42.22 35.9 41.86 42.54 40.6 44.14 34.8 44.12 24.29 44.09 23.14 44.26 22.58 43.55 22.42Z" fill="#030000"/><path d="M49.6 65.32C48.86 65.4 48.41 64.6 48.22 64.13 48.21 64.1 46.99 61.5 44.97 58.63 44.72 58.27 44.14 57.71 43.14 58.01 41.54 58.49 39.03 60.15 34.92 59.62 34.35 59.55 33.84 58.85 33.99 58.29 34.13 57.77 34.94 57.53 35.54 57.61 36.53 57.73 37.91 57.66 39.96 56.91 40.94 56.55 41.52 56.15 41.65 55.53 41.91 54.36 40.68 52.97 40.36 52.69 37.82 50.44 33.87 50.74 33.83 50.74 33.12 50.74 32.54 50.16 32.52 49.63 32.48 48.88 33.3 48.64 33.65 48.64 34.53 48.64 38.29 48.38 41.74 51.1 42.44 51.65 43.05 51.18 42.55 49.81 41.38 46.55 37.52 46.62 37.36 46.61 36.62 46.57 36.09 46.07 36.08 45.49 36.07 44.82 36.69 44.5 37.3 44.5 39.39 44.52 43.28 45.33 44.55 49.13 45.03 50.56 45.25 51.88 45.22 53.06 45.21 53.61 45.34 55.27 46.13 56.39 48.12 59.24 49.2 61.28 50.16 63.32 50.6 64.24 50.65 65.2 49.6 65.32Z" fill="#030000"/><path d="M32.39 17.39C32.79 17.39 33.11 17.71 33.11 18.11 33.11 19.36 33.59 20.45 34.1 21.61 35.04 23.75 36.1 26.18 34.51 30.11 34.36 30.48 33.94 30.65 33.57 30.51 33.2 30.36 33.02 29.94 33.17 29.57 34.54 26.2 33.69 24.25 32.78 22.19 32.23 20.95 31.67 19.66 31.67 18.11 31.67 17.71 31.99 17.39 32.39 17.39Z"/><path d="M31.16 30.51C31.33 30.61 31.54 30.64 31.74 30.55 32.05 30.41 32.2 30.04 32.06 29.73 31.16 27.66 31.44 25.4 31.96 23.65 32.29 22.52 31.1 22.15 30.78 23.2 30.18 25.17 29.85 27.77 30.92 30.23 30.97 30.35 31.06 30.44 31.16 30.51Z"/><path d="M53.42 20.16C53.42 20.16 38.92 9.11 36.84 7.59 34.78 6.09 34.22 5.53 34.22 2.4 34.22 1.07 33.14 -4.44089e-16 31.82 -4.44089e-16 30.49 -4.44089e-16 29.42 1.07 29.42 2.4 29.42 5.24 29.26 5.78 26.4 7.88 24.42 9.33 5.56 23.72 5.56 23.72 4.72 24.36 4.57 25.56 5.21 26.39 5.63 26.94 6.82 27.51 7.89 26.73 8.68 26.15 9.07 25.85 10.34 24.86 11.67 23.82 12.06 24.48 12.06 25.77 12.06 28.07 12.06 32.15 12.06 36.29 11.81 38.13 10.88 38.32 8.85 38.32 8.35 38.32 6.85 38.32 6.85 38.32 4.91 38.32 3.85 38.32 3.85 35.32L3.85 32.67C3.85 31.61 2.99 30.75 1.93 30.75 0.86 30.75 0 31.61 0 32.67L0 35.32C0 42.16 5.15 42.16 6.84 42.16 6.84 42.16 8.36 42.16 8.87 42.16 11.14 42.16 11.85 42.37 12.06 43.81 12.06 47.28 12.06 50.73 12.06 50.73 12.06 52.65 11.17 53.49 9.03 53.49 8.49 53.49 6.85 53.49 6.85 53.49 5.16 53.49 0.01 53.49 0.01 60.33L0.01 62.98C0.01 64.04 0.87 64.9 1.93 64.9 2.99 64.9 3.85 64.04 3.85 62.98L3.85 60.33C3.85 57.33 4.92 57.33 6.85 57.33 6.85 57.33 8.46 57.33 9 57.33 11.53 57.33 12.14 57.46 12.14 60.51 12.14 61.45 12.14 64.28 12.14 64.28 12.14 65.34 13 65.43 14.05 65.43 15.1 65.43 15.97 65.34 15.97 64.28L15.9 27.33C15.9 22 15.64 20.75 21.59 16.18 31.65 8.46 31.64 8.45 42.06 16.18 45.09 18.43 51.1 23.19 51.1 23.19 51.82 23.74 53.03 23.8 53.77 22.85 54.41 22 54.26 20.8 53.42 20.16Z" fill="#030000"/></svg>