<svg width="60.35" height="61.58" viewBox="0 0 60.35 61.58" xmlns="http://www.w3.org/2000/svg" xmlns:xlink="http://www.w3.org/1999/xlink" overflow="visible"><defs></defs><path d="M58.9 21.03C58.9 21.03 57.79 21.2 57.42 21.26 56.01 21.48 55.64 21.11 55.64 19.62 55.64 19.42 55.64 18.81 55.64 18.81 55.64 18.12 55.08 17.56 54.39 17.56 53.7 17.56 53.14 18.12 53.14 18.81 53.14 18.81 53.14 19.45 53.14 19.66 53.14 21.56 52.59 22 49.88 22.43 45.21 23.17 41.17 23.15 36.7 22.45 33.57 21.95 33.31 21.12 33.31 19.7 33.31 19.48 33.31 18.81 33.31 18.81 33.31 18.12 32.75 17.56 32.06 17.56 31.37 17.56 30.81 18.12 30.81 18.81 30.81 18.81 30.81 19.51 30.81 19.74 30.81 21.18 30.55 21.43 28.78 21.15 28.46 21.1 27.51 20.95 27.51 20.95 26.83 20.84 26.18 21.31 26.08 21.99 25.97 22.67 26.44 23.32 27.12 23.42 27.12 23.42 28.01 23.56 28.3 23.61 30.49 23.96 30.8 24.71 30.8 26.59 30.8 28.17 30.8 32.91 30.8 32.91 30.8 37.68 32.02 44.03 42.6 44.03L43.84 44.03C54.42 44.03 55.64 37.68 55.64 32.91 55.64 32.91 55.64 27.76 55.64 26.04 55.64 24.79 56.29 23.98 57.73 23.75 58.12 23.69 59.29 23.5 59.29 23.5 59.97 23.39 60.44 22.75 60.33 22.07 60.23 21.39 59.58 20.92 58.9 21.03ZM53.14 32.91C53.14 33.75 53.51 34.74 51.92 35 45.63 36.04 40.68 35.94 34.62 35.01 33.12 34.78 33.31 33.54 33.31 32.91 33.31 31.49 33.56 30.92 35.31 31.2 39.77 31.91 46.5 31.94 51.26 31.19 53.34 30.85 53.14 31.72 53.14 32.91ZM43.84 41.52 42.6 41.52C39.07 41.52 36.82 40.65 35.42 39.37 34.34 38.38 34.98 37.56 35.61 37.65 41.99 38.48 44.16 38.48 50.59 37.69 51.57 37.57 52.45 37.97 51.14 39.26 49.76 40.61 47.48 41.52 43.84 41.52ZM50.83 28.71C46.17 29.45 40.13 29.42 35.66 28.71 33.36 28.35 33.3 27.64 33.3 26.15 33.3 24.51 34.52 24.63 36.3 24.92 40.78 25.63 45.63 25.64 50.31 24.9 52 24.63 53.11 24.9 53.13 26.04 53.18 28.16 53.11 28.35 50.83 28.71Z" fill="#020303"/><path d="M19.87 18.89C22.92 16.38 26.73 13.27 28.06 6.3 28.2 5.54 27.71 4.81 26.95 4.67 26.19 4.53 25.46 5.02 25.32 5.78 24.18 11.75 21.1 14.28 18.11 16.73 16.22 18.28 15.44 17.46 15.44 15.75 15.44 12.16 15.44 1.39 15.44 1.39 15.44 0.62 14.81-0.01 14.04-0.01 13.27-0.01 12.64 0.61 12.64 1.39 12.64 1.39 12.64 12.23 12.64 15.84 12.64 17.81 11.74 18.16 9.99 16.73 6.99 14.29 3.9 11.75 2.77 5.79 2.62 5.03 1.89 4.53 1.13 4.68 0.38 4.82-0.12 5.55 0.02 6.31 1.35 13.27 5.15 16.39 8.21 18.9 10.66 20.91 12.46 22.39 12.63 25.25 12.63 25.25 12.64 43.72 12.64 43.73 12.57 46.78 10.73 48.29 8.21 50.36 6.93 51.41 5.53 52.56 4.22 54.06 2.41 56.15 4.69 57.79 6.22 56.01 7.38 54.65 8.69 53.58 9.98 52.53 11.87 50.98 12.65 51.8 12.65 53.51 12.65 57.1 12.65 60.2 12.65 60.2 12.65 60.97 13.28 61.6 14.05 61.6 14.82 61.6 15.45 60.98 15.45 60.2 15.45 60.2 15.45 57.03 15.45 53.42 15.45 51.45 16.35 51.1 18.1 52.53 19.38 53.58 20.68 54.64 21.83 55.98 23.38 57.77 25.67 56.16 23.86 54.07 22.56 52.57 21.15 51.41 19.87 50.37 17.42 48.36 15.62 46.88 15.45 44.02 15.45 44.02 15.44 25.55 15.44 25.54 15.5 22.48 17.34 20.97 19.87 18.89Z" fill="#030000"/><path d="M26.56 49.39C26.56 50.67 26.75 51.17 27.46 51.17 27.46 51.17 30.39 51.17 31.03 51.17 33.08 51.17 33.25 51.92 33.25 54.03 33.25 54.46 33.25 55.92 33.25 55.92 33.25 58.57 35.84 58.72 35.84 55.92 35.84 55.92 35.84 54.44 35.84 54 35.84 51.5 36.06 51.17 37.92 51.17 39.87 51.17 45.27 51.17 48.37 51.17 50.47 51.17 50.52 52.01 50.52 53.87 50.52 54.34 50.56 56.03 50.56 56.03 50.56 58.63 53.15 58.62 53.15 56.03 53.15 56.03 53.11 54.36 53.11 53.89 53.11 51.69 53.2 51.16 55.26 51.16 55.9 51.16 59.18 51.16 59.18 51.16 59.9 51.16 59.96 50.42 59.96 49.5 59.96 48.58 59.9 47.83 59.18 47.83L27.46 47.83C26.75 47.83 26.56 48.06 26.56 49.39Z" fill="#030000"/></svg>