<svg width="39.94" height="53.75" viewBox="0 0 39.94 53.75" xmlns="http://www.w3.org/2000/svg" xmlns:xlink="http://www.w3.org/1999/xlink" overflow="visible"><defs></defs><path d="M1.5 19.27C5.93 16.76 8.56 15.23 11.86 12.99 12.47 12.62 13.14 11.63 13 10.37 12.91 9.58 11.97 9.43 10.95 8.27 10.08 7.29 9.66 6.35 9.66 4.71 9.67 2.17 11.5 0 13.84 0 15.63 0 18.37 1.11 18.4 4.64 18.42 8.04 16.34 8.06 16.42 10.36 16.48 12 17.87 12.9 18.02 16.2 18.33 23.38 18.14 49.61 18.14 50.75 18.14 54.66 13.48 54.84 13.46 50.67 13.41 36.44 13.43 23.44 13.43 19.77 13.43 17.86 12.34 17.63 10.92 18.42 6.29 20.97 6.29 20.97 3.08 22.67 0.51 24.03-1.5 20.97 1.5 19.27Z" fill-rule="evenodd" clip-rule="evenodd"/><path d="M28.56 51.02C28.56 54.16 31.11 53.73 34.25 53.73 37.39 53.73 39.94 54.16 39.94 51.02L39.94 40.82C39.94 39.15 39.21 37.65 38.06 36.62 36.71 35.41 35.96 34.87 35.96 32.89L35.96 32.89C35.96 31.87 36.45 30.94 37.22 30.27 38.17 29.44 38.77 28.23 38.77 26.87 38.77 25.51 38.17 24.29 37.22 23.47 36.45 22.8 35.96 21.87 35.96 20.85L35.96 20.85C35.96 18.7 36.96 18.1 38.07 17.1 39.22 16.07 39.94 14.58 39.94 12.91L39.94 2.73C39.94-0.41 37.39 0.02 34.25 0.02 31.11 0.02 28.56-0.41 28.56 2.73L28.56 2.7 28.56 12.9C28.56 14.57 29.29 16.07 30.44 17.1 31.79 18.31 32.54 18.85 32.54 20.83L32.54 20.83C32.54 21.85 32.05 22.78 31.28 23.45 30.33 24.28 29.73 25.49 29.73 26.85 29.73 28.21 30.33 29.43 31.28 30.25 32.05 30.92 32.54 31.85 32.54 32.87L32.54 32.87C32.54 35.02 31.54 35.62 30.43 36.62 29.28 37.65 28.56 39.14 28.56 40.81L28.56 50.97 28.56 51.02Z"/></svg>