<svg width="49.79" height="65.25" viewBox="0 0 49.79 65.25" xmlns="http://www.w3.org/2000/svg" xmlns:xlink="http://www.w3.org/1999/xlink" overflow="visible"><defs></defs><path d="M42.59 3.94C42.59 3.94 41.33 4.14 40.91 4.2 39.31 4.45 38.89 4.03 38.89 2.34 38.89 2.11 38.89 1.42 38.89 1.42 38.89 0.64 38.25 0 37.47 0 36.69 0 36.05 0.64 36.05 1.42 36.05 1.42 36.05 2.14 36.05 2.38 36.05 4.53 35.43 5.04 32.35 5.52 27.06 6.36 20.22 6.34 15.15 5.54 11.61 4.98 11.31 4.04 11.31 2.42 11.31 2.17 11.31 1.41 11.31 1.41 11.32 0.64 10.69 0 9.9 0 9.12 0 8.48 0.64 8.48 1.42 8.48 1.42 8.48 2.21 8.48 2.47 8.48 4.1 8.19 4.38 6.19 4.07 5.83 4.01 4.76 3.84 4.76 3.84 3.99 3.72 3.26 4.25 3.14 5.02 3.02 5.79 3.54 6.52 4.32 6.65 4.32 6.65 5.33 6.81 5.66 6.86 8.14 7.25 8.49 8.11 8.49 10.24 8.49 12.03 8.49 17.4 8.49 17.4 8.48 22.8 9.87 30 21.85 30L25.52 30C37.5 30 38.89 22.81 38.89 17.4 38.89 17.4 38.89 11.56 38.89 9.62 38.89 8.2 39.62 7.29 41.26 7.03 41.7 6.96 43.03 6.75 43.03 6.75 43.8 6.63 44.33 5.9 44.21 5.13 44.09 4.34 43.36 3.81 42.59 3.94ZM36.05 17.39C36.05 18.34 36.46 19.46 34.67 19.76 27.54 20.94 19.68 20.83 12.81 19.77 11.11 19.51 11.32 18.1 11.32 17.39 11.32 15.78 11.61 15.14 13.59 15.45 18.65 16.25 28.54 16.29 33.93 15.43 36.28 15.07 36.05 16.05 36.05 17.39ZM25.52 27.16 21.85 27.16C17.85 27.16 15.3 26.17 13.72 24.72 12.5 23.6 13.22 22.67 13.93 22.77 21.16 23.71 25.88 23.72 33.17 22.81 34.28 22.67 35.28 23.13 33.8 24.58 32.23 26.12 29.65 27.16 25.52 27.16ZM33.44 12.64C28.15 13.48 19.06 13.45 13.99 12.64 11.38 12.23 11.32 11.42 11.32 9.74 11.32 7.88 12.7 8.02 14.71 8.34 19.79 9.14 27.55 9.15 32.85 8.32 34.76 8.02 36.02 8.32 36.05 9.61 36.1 12.02 36.03 12.23 33.44 12.64Z" fill="#020303"/><path d="M37.98 61.34C37.98 61.34 29.81 61.34 27.43 61.34 25.75 61.34 25.18 61.09 25.18 59.14 25.18 58.91 25.19 57.91 25.19 57.79 25.14 57.07 25.14 56.8 26.13 56.8 28.14 56.8 30.74 56.8 30.74 56.8 32.8 56.8 34.48 55.13 34.48 53.06 34.48 50.99 32.81 49.32 30.74 49.32 30.74 49.32 28.15 49.32 26.14 49.32 25.74 49.32 25.18 49.06 25.18 48.38 25.18 47.64 25.18 43.16 25.18 43.16 25.18 42.7 24.4 41.57 24.01 40.96 23.86 40.72 23.62 40.75 23.43 41 22.98 41.62 22.32 42.72 22.32 43.15 22.32 43.15 22.32 47.62 22.32 48.34 22.32 48.97 21.98 49.31 21.2 49.31 19.23 49.31 16.49 49.31 16.49 49.31 14.43 49.31 12.76 50.98 12.76 53.05 12.76 55.11 14.43 56.79 16.49 56.79 16.49 56.79 19.27 56.79 21.25 56.79 22.11 56.79 22.36 57.12 22.33 57.68 22.33 57.78 22.31 58.79 22.31 59.06 22.31 60.88 21.78 61.32 20.05 61.32 17.52 61.32 9.56 61.32 9.56 61.32 8.48 61.32 7.6 62.2 7.6 63.28 7.6 64.36 8.48 65.24 9.56 65.24L37.99 65.24C39.07 65.24 39.95 64.36 39.95 63.28 39.94 62.21 39.06 61.34 37.98 61.34Z"/><path d="M0 34.57C0 36.22 0.28 36.87 1.35 36.87 1.35 36.87 5.71 36.87 6.68 36.87 9.73 36.87 9.98 37.84 9.98 40.56 9.98 41.12 9.98 43.01 9.98 43.01 9.98 46.44 13.84 46.63 13.84 43.01 13.84 43.01 13.84 41.1 13.84 40.53 13.84 37.3 14.17 36.87 16.94 36.87 19.85 36.87 27.9 36.87 32.52 36.87 35.66 36.87 35.72 37.95 35.72 40.36 35.72 40.97 35.78 43.16 35.78 43.16 35.78 46.52 39.64 46.51 39.64 43.16 39.64 43.16 39.58 41 39.58 40.4 39.58 37.56 39.71 36.88 42.78 36.88 43.73 36.88 48.63 36.88 48.63 36.88 49.7 36.88 49.79 35.92 49.79 34.73 49.79 33.54 49.7 32.57 48.63 32.57L1.35 32.57C0.28 32.56 0 32.84 0 34.57Z" fill="#030000"/></svg>