<svg width="19.53" height="60.28" viewBox="0 0 19.53 60.28" xmlns="http://www.w3.org/2000/svg" xmlns:xlink="http://www.w3.org/1999/xlink" overflow="visible"><defs></defs><path d="M16.75 45.22 4.61 38.21C3.86 37.78 3.39 36.97 3.39 36.1L3.39 36.1C3.39 35.23 3.85 34.43 4.61 33.99L16.75 26.98C18.27 26.1 19.37 24.57 19.51 22.82 19.67 20.79 18.68 18.94 16.95 17.94L4.75 10.9C3.91 10.41 3.39 9.51 3.39 8.54L3.39 1.7C3.39 0.76 2.63 0 1.7 0 0.76 0 0 0.76 0 1.7L0 8.16 0 54.92C0 56.63 0.74 58.32 2.14 59.31 3.06 59.96 4.11 60.29 5.15 60.29 6.03 60.29 6.92 60.06 7.73 59.59L16.95 54.27C18.68 53.27 19.67 51.42 19.51 49.39 19.37 47.63 18.27 46.09 16.75 45.22ZM15.25 20.88C16.05 21.34 16.13 22.1 16.13 22.4 16.13 22.71 16.04 23.47 15.25 23.93L5.23 29.72C4.41 30.19 3.39 29.6 3.39 28.66L3.39 16.15C3.39 15.21 4.41 14.62 5.23 15.09L15.25 20.88ZM15.25 51.32 6.03 56.64C5.23 57.1 4.53 56.79 4.27 56.64 4.01 56.49 3.39 56.03 3.39 55.11L3.39 43.54C3.39 42.6 4.41 42.01 5.23 42.48L15.26 48.27C16.06 48.73 16.14 49.49 16.14 49.8 16.13 50.1 16.05 50.86 15.25 51.32Z"/></svg>