<svg width="57.88" height="65.44" viewBox="0 0 57.88 65.44" xmlns="http://www.w3.org/2000/svg" xmlns:xlink="http://www.w3.org/1999/xlink" overflow="visible"><defs></defs><path d="M56.77 12.44 32.22 12.44C30.28 12.44 27.35 12.44 27.35 17.3 27.35 19.73 26.17 19.96 24.12 19.96 21.56 19.96 13.87 19.96 13.87 19.96 12.47 19.96 12.24 18.96 12.21 18.44 12.24 16.39 12.81 15.2 13.89 13.95 15.35 12.25 19.85 7.25 19.85 7.25 20.23 6.82 20.59 5.22 20.73 4.49 20.77 4.27 20.64 4.17 20.4 4.25 19.68 4.49 18.19 5.02 17.81 5.44 17.81 5.44 14.85 8.85 12.88 11.03 12.23 11.74 11.71 11.76 11.7 10.67 11.69 7.86 11.73 2.79 11.73 2.79 11.73 2.21 10.94 0.78 10.56 0.14 10.44-0.06 10.29-0.04 10.16 0.18 9.78 0.84 9.01 2.22 9.01 2.78 9.01 2.78 9.05 7.72 9.02 10.62 9.01 11.52 8.55 11.72 7.94 11.03 6 8.86 2.96 5.43 2.96 5.43 2.57 4.99 0.93 4.43 0.25 4.21 0.07 4.15-0.03 4.22 0.01 4.38 0.15 5.05 0.54 6.79 0.94 7.24 0.94 7.24 5.49 12.25 6.94 13.98 8.29 15.6 8.59 16.5 8.59 18.46 8.59 19 8.59 63.41 8.59 63.41 8.59 66.12 12.21 66.12 12.21 63.41 12.21 63.41 12.21 38.99 12.21 29.95 12.21 28.18 13.88 28.28 13.88 28.28L13.88 28.28C13.88 28.28 25.4 28.28 28.96 28.28 31.86 28.28 33.22 27 33.22 23.77 33.22 20.72 34.37 20.72 36.28 20.72L42.62 20.72C43.98 20.72 44.06 18.91 42.58 18.91L36.28 18.91C34.34 18.91 31.41 18.91 31.41 23.77 31.41 25.77 30.6 26.47 28.88 26.47 28.88 26.47 26.49 26.47 25.93 26.47 24.99 26.47 24.86 26.34 24.86 25.54 24.86 24.81 24.86 23.45 24.86 22.73 24.86 22.1 24.92 21.74 25.78 21.7 27.78 21.61 29.17 20.5 29.17 17.31 29.17 14.76 29.82 14.26 32.22 14.26L56.75 14.26C58.31 14.25 58.19 12.44 56.77 12.44ZM23.19 25.32C23.19 26.33 23.21 26.46 22.08 26.46 20.03 26.46 13.6 26.46 13.6 26.46 12.6 26.46 12.21 26.11 12.21 25.29L12.21 23.11C12.21 22.15 12.54 21.76 13.46 21.76 15.6 21.76 19.99 21.77 22.03 21.77 23.1 21.77 23.2 21.86 23.2 22.94 23.19 23.54 23.19 24.73 23.19 25.32Z"/><path d="M56.15 61.52C56.08 60.1 55.97 60.19 54.78 59.44 53.56 58.67 51.66 57.48 50.83 56.96 49.68 56.23 49.59 56.16 49.58 54.87 49.57 54.23 49.84 53.9 50.63 53.9 50.71 53.9 51.35 53.9 51.43 53.9 52.57 53.9 53.5 52.98 53.5 51.83 53.5 50.69 52.58 49.77 51.43 49.77 50.22 49.77 49.6 49.33 49.6 48.04 49.62 41.56 49.64 36.66 49.63 33.71 49.63 32.76 49.65 32.72 50.83 32.72 50.94 32.72 51.16 32.72 51.26 32.72 52.14 32.72 52.2 32.76 52.61 33.5 52.85 33.93 53.56 35.21 53.56 35.21 54.3 36.55 55.61 35.87 54.87 34.64 54.87 34.64 50.27 26.95 48.73 24.39 48.36 23.77 48.09 23.89 47.81 24.39 46.35 26.96 41.97 34.67 41.97 34.67 41.29 35.86 42.47 36.67 43.39 35.05 43.39 35.05 44.07 33.85 44.3 33.45 44.63 32.86 44.74 32.78 45.52 32.79 45.65 32.79 45.9 32.79 46.02 32.79 46.88 32.8 46.99 32.87 46.98 33.78 46.97 36.69 46.97 41.77 46.96 48.32 46.96 49.42 46.67 49.78 45.24 49.78 44.1 49.78 43.17 50.7 43.17 51.84 43.17 52.98 44.1 53.91 45.24 53.91 45.29 53.91 45.74 53.91 45.78 53.91 46.63 53.91 46.94 54.31 46.95 55.09 46.95 56.18 46.77 56.3 46.01 56.76 45.14 57.28 43.1 58.52 41.87 59.27 40.81 59.91 40.71 59.92 40.61 61.07 40.51 62.22 40.47 62.9 40.38 64.52 40.33 65.4 40.75 65.31 41.21 65.03 42.74 64.09 45.79 62.2 47.31 61.26 48.31 60.64 48.41 60.67 49.42 61.29 50.96 62.23 54.03 64.1 55.57 65.04 56.11 65.37 56.32 65.29 56.28 64.63 56.23 63.11 56.2 62.56 56.15 61.52Z" fill="#030000"/></svg>