<svg width="11.52" height="54.44" viewBox="0 0 11.52 54.44" xmlns="http://www.w3.org/2000/svg" xmlns:xlink="http://www.w3.org/1999/xlink" overflow="visible"><defs></defs><path d="M0 51.67C0 54.85 2.58 54.42 5.76 54.42 8.94 54.42 11.52 54.86 11.52 51.67L11.52 41.34C11.52 39.64 10.78 38.13 9.61 37.09 8.24 35.86 7.48 35.31 7.48 33.31L7.48 33.31C7.48 32.28 7.97 31.33 8.75 30.65 9.71 29.81 10.32 28.58 10.32 27.2 10.32 25.82 9.71 24.59 8.75 23.75 7.97 23.07 7.48 22.13 7.48 21.09L7.48 21.09C7.48 18.91 8.49 18.31 9.62 17.3 10.78 16.25 11.51 14.75 11.51 13.06L11.51 2.77C11.51-0.41 8.93 0.02 5.75 0.02 2.58 0.02 0-0.42 0 2.77L0 2.73 0 13.06C0 14.76 0.74 16.27 1.91 17.31 3.28 18.54 4.04 19.09 4.04 21.09L4.04 21.09C4.04 22.12 3.55 23.07 2.77 23.75 1.81 24.59 1.2 25.82 1.2 27.2 1.2 28.58 1.81 29.81 2.77 30.65 3.55 31.33 4.04 32.27 4.04 33.31L4.04 33.31C4.04 35.49 3.03 36.09 1.9 37.1 0.73 38.14 0 39.65 0 41.34L0 51.63 0 51.67Z"/></svg>