<svg width="57.88" height="65.44" viewBox="0 0 57.88 65.44" xmlns="http://www.w3.org/2000/svg" xmlns:xlink="http://www.w3.org/1999/xlink" overflow="visible"><defs></defs><path d="M56.77 12.44 32.22 12.44C30.28 12.44 27.35 12.44 27.35 17.3 27.35 19.73 26.17 19.96 24.12 19.96 21.56 19.96 13.87 19.96 13.87 19.96 12.47 19.96 12.24 18.96 12.21 18.44 12.24 16.39 12.81 15.2 13.89 13.95 15.35 12.25 19.85 7.25 19.85 7.25 20.23 6.82 20.59 5.22 20.73 4.49 20.77 4.27 20.64 4.17 20.4 4.25 19.68 4.49 18.19 5.02 17.81 5.44 17.81 5.44 14.85 8.85 12.88 11.03 12.23 11.74 11.71 11.76 11.7 10.67 11.69 7.86 11.73 2.79 11.73 2.79 11.73 2.21 10.94 0.78 10.56 0.14 10.44-0.06 10.29-0.04 10.16 0.18 9.78 0.84 9.01 2.22 9.01 2.78 9.01 2.78 9.05 7.72 9.02 10.62 9.01 11.52 8.55 11.72 7.94 11.03 6 8.86 2.96 5.43 2.96 5.43 2.57 4.99 0.93 4.43 0.25 4.21 0.07 4.15-0.03 4.22 0.01 4.38 0.15 5.05 0.54 6.79 0.94 7.24 0.94 7.24 5.49 12.25 6.94 13.98 8.29 15.6 8.59 16.5 8.59 18.46 8.59 19 8.59 63.41 8.59 63.41 8.59 66.12 12.21 66.12 12.21 63.41 12.21 63.41 12.21 38.99 12.21 29.95 12.21 28.18 13.88 28.28 13.88 28.28L13.88 28.28C13.88 28.28 25.4 28.28 28.96 28.28 31.86 28.28 33.22 27 33.22 23.77 33.22 20.72 34.37 20.72 36.28 20.72L42.62 20.72C43.98 20.72 44.06 18.91 42.58 18.91L36.28 18.91C34.34 18.91 31.41 18.91 31.41 23.77 31.41 25.77 30.6 26.47 28.88 26.47 28.88 26.47 26.49 26.47 25.93 26.47 24.99 26.47 24.86 26.34 24.86 25.54 24.86 24.81 24.86 23.45 24.86 22.73 24.86 22.1 24.92 21.74 25.78 21.7 27.78 21.61 29.17 20.5 29.17 17.31 29.17 14.76 29.82 14.26 32.22 14.26L56.75 14.26C58.31 14.25 58.19 12.44 56.77 12.44ZM23.19 25.32C23.19 26.33 23.21 26.46 22.08 26.46 20.03 26.46 13.6 26.46 13.6 26.46 12.6 26.46 12.21 26.11 12.21 25.29L12.21 23.11C12.21 22.15 12.54 21.76 13.46 21.76 15.6 21.76 19.99 21.77 22.03 21.77 23.1 21.77 23.2 21.86 23.2 22.94 23.19 23.54 23.19 24.73 23.19 25.32Z"/></svg>