<svg width="63.2" height="64.18" viewBox="0 0 63.2 64.18" xmlns="http://www.w3.org/2000/svg" xmlns:xlink="http://www.w3.org/1999/xlink" overflow="visible"><defs></defs><path d="M62.17 28C62.17 28 39.44 10.66 37.13 8.99 34.85 7.33 34.23 6.71 34.23 3.25 34.23-1.08 28.91-1.08 28.91 3.25 28.91 6.39 28.73 7 25.57 9.32 23.39 10.92 1.16 27.88 1.16 27.88-1.48 29.92 0.81 33.35 3.74 31.22 4.62 30.58 6.38 29.21 7.79 28.12 9.1 27.1 9.7 27.56 9.7 29.03L9.7 61.72C9.7 65 13.95 65 13.95 61.72L13.95 29.03C13.95 24.41 15.46 22.17 20.25 18.49 31.38 9.93 31.38 9.93 42.91 18.49 47.76 22.09 49.21 24.41 49.21 29.03L49.21 61.72C49.21 65.01 53.46 65.01 53.46 61.72L53.46 29.03C53.46 27.68 54.28 27.25 55.49 28.17 56.52 28.95 59.59 31.34 59.59 31.34 62.15 33.32 64.67 29.87 62.17 28Z" fill="#030000"/><path d="M36.81 52.75 27.72 47.5C27.16 47.17 26.81 46.57 26.81 45.92L26.81 45.92C26.81 45.27 27.16 44.67 27.72 44.34L36.81 39.09C37.95 38.43 38.77 37.29 38.87 35.98 38.99 34.46 38.25 33.07 36.95 32.33L27.82 27.06C27.19 26.7 26.8 26.02 26.8 25.29L26.8 20.17C26.8 19.47 26.23 18.9 25.53 18.9 24.83 18.9 24.26 19.47 24.26 20.17L24.26 25 24.26 60C24.26 61.28 24.82 62.54 25.86 63.29 26.55 63.78 27.33 64.02 28.11 64.02 28.77 64.02 29.43 63.85 30.04 63.5L36.94 59.52C38.24 58.77 38.97 57.39 38.86 55.87 38.77 54.55 37.94 53.4 36.81 52.75ZM35.69 34.53C36.28 34.87 36.35 35.44 36.35 35.67 36.35 35.9 36.29 36.47 35.69 36.81L28.19 41.14C27.58 41.49 26.82 41.05 26.82 40.35L26.82 30.99C26.82 30.29 27.58 29.84 28.19 30.2L35.69 34.53ZM35.69 57.31 28.79 61.29C28.19 61.63 27.67 61.4 27.47 61.29 27.27 61.18 26.81 60.84 26.81 60.15L26.81 51.49C26.81 50.79 27.57 50.34 28.18 50.7L35.68 55.03C36.27 55.37 36.34 55.94 36.34 56.17 36.35 56.4 36.28 56.97 35.69 57.31Z"/></svg>