<svg width="61.2" height="61.08" viewBox="0 0 61.2 61.08" xmlns="http://www.w3.org/2000/svg" xmlns:xlink="http://www.w3.org/1999/xlink" overflow="visible"><defs></defs><path d="M57.39 5.48C57.39 5.48 55.64 5.76 55.06 5.85 52.83 6.2 52.25 5.62 52.25 3.26 52.25 2.94 52.25 1.98 52.25 1.98 52.25 0.89 51.36 0.01 50.27 0.01 49.18 0.01 48.29 0.9 48.29 1.98 48.29 1.98 48.29 2.98 48.29 3.32 48.29 6.32 47.42 7.02 43.15 7.69 35.8 8.86 26.28 8.83 19.23 7.71 14.3 6.93 13.89 5.62 13.89 3.37 13.89 3.02 13.89 1.97 13.89 1.97 13.88 0.89 13 0 11.91 0 10.82 0 9.93 0.89 9.93 1.97 9.93 1.97 9.93 3.07 9.93 3.43 9.93 5.7 9.52 6.1 6.74 5.65 6.24 5.57 4.74 5.33 4.74 5.33 3.67 5.17 2.65 5.91 2.48 6.99 2.31 8.07 3.05 9.08 4.13 9.25 4.13 9.25 5.53 9.47 6 9.54 9.45 10.09 9.94 11.28 9.94 14.24 9.94 16.73 9.94 24.2 9.94 24.2 9.94 31.73 11.87 41.74 28.55 41.74L33.66 41.74C50.34 41.74 52.27 31.73 52.27 24.2 52.27 24.2 52.27 16.08 52.27 13.37 52.27 11.39 53.29 10.12 55.56 9.76 56.18 9.66 58.03 9.37 58.03 9.37 59.11 9.2 59.84 8.19 59.67 7.11 59.49 6.04 58.47 5.31 57.39 5.48ZM48.3 24.21C48.3 25.53 48.88 27.09 46.38 27.5 36.46 29.15 25.51 28.98 15.95 27.52 13.59 27.16 13.88 25.2 13.88 24.21 13.88 21.97 14.28 21.08 17.04 21.51 24.08 22.63 37.84 22.68 45.35 21.49 48.62 20.97 48.3 22.34 48.3 24.21ZM33.65 37.79 28.54 37.79C22.97 37.79 19.43 36.42 17.23 34.4 15.53 32.84 16.53 31.55 17.52 31.68 27.59 33 34.16 33 44.29 31.74 45.83 31.55 47.23 32.19 45.16 34.21 42.98 36.35 39.39 37.79 33.65 37.79ZM44.67 17.6C37.31 18.76 24.65 18.72 17.6 17.6 13.97 17.03 13.88 15.91 13.88 13.56 13.88 10.97 15.8 11.17 18.61 11.61 25.68 12.73 36.48 12.74 43.85 11.58 46.51 11.16 48.27 11.58 48.3 13.38 48.37 16.73 48.27 17.03 44.67 17.6Z" fill="#020303"/><path d="M0 46.58C0 48.74 0.35 49.58 1.66 49.58 1.66 49.58 7.02 49.58 8.21 49.58 11.96 49.58 12.27 50.84 12.27 54.41 12.27 55.14 12.27 57.61 12.27 57.61 12.27 62.09 17.02 62.34 17.02 57.61 17.02 57.61 17.02 55.12 17.02 54.37 17.02 50.15 17.43 49.59 20.83 49.59 24.41 49.59 34.3 49.59 39.98 49.59 43.83 49.59 43.91 51 43.91 54.15 43.91 54.95 43.98 57.8 43.98 57.8 43.98 62.19 48.73 62.18 48.73 57.8 48.73 57.8 48.66 54.98 48.66 54.19 48.66 50.47 48.82 49.59 52.6 49.59 53.77 49.59 59.79 49.59 59.79 49.59 61.1 49.59 61.22 48.33 61.22 46.78 61.22 45.23 61.11 43.96 59.79 43.96L1.66 43.96C0.35 43.95 0 44.32 0 46.58Z" fill="#030000"/></svg>