<svg width="58.96" height="60.18" viewBox="0 0 58.96 60.18" xmlns="http://www.w3.org/2000/svg" xmlns:xlink="http://www.w3.org/1999/xlink" overflow="visible"><defs></defs><path d="M2.79 9.11C2.93 12.06 3.29 14.52 3.81 16.56 4.46 19.12 5.91 18.36 5.38 15.47 5.2 14.51 5.06 13.53 4.99 12.56 4.67 8.53 4.59 6.9 4.52 4.39 4.45 1.89 7.24 1.82 7.31 4.31 7.38 6.78 7.39 8.38 7.77 12.34 8.14 16.2 9.34 17.44 9.51 14.06 9.89 6.8 10.58 3.93 11.46 1.31 12.2-0.91 14.82-0.1 14.12 2.13 13.32 4.71 12.35 9.93 12.29 14.64 12.26 16.8 13.29 17.02 13.84 14.79 15.44 8.34 17.57 5.27 17.66 5.14 19.1 3.1 21.37 4.69 19.95 6.74 19.93 6.77 18.02 9.58 16.56 15.46 16.04 17.55 15.42 19.71 14.44 21.28 13.82 22.26 14.72 23.13 15.38 22.24 16.15 21.2 16.78 20.05 17.6 18.32 18.76 15.86 20.03 14.65 21.07 14.09 22.57 13.28 23.76 15.03 22.51 16.19 21.6 17.04 20.66 17.98 20.11 19.35 18.65 23.02 16.81 25.58 14.46 26.76 12.73 27.62 12.09 28.43 11.93 30.76 11.93 30.83 11.92 55.57 11.92 55.57 11.92 59.38 7.42 59.22 7.42 55.57 7.42 55.57 7.42 33.56 7.42 29.3 7.42 27.86 6.98 26.87 5.67 25.81 2.99 23.65 0.47 18.98 0 9.24-0.1 6.92 2.68 6.78 2.79 9.11Z" fill="#030000"/><path d="M49.71 28.41C48.29 28.41 45.38 28.41 43.94 28.41 43.12 28.41 42.78 28.17 42.78 27.53 42.78 27.26 42.78 26.09 42.78 26.09 42.78 25.58 42.86 25.01 43.95 25.01 45.26 25.01 49.2 25.01 49.2 25.01 50.49 25.01 51.74 24.11 51.74 23 51.74 21.89 50.69 20.99 49.41 20.99 49.41 20.99 45.24 20.99 43.85 20.99 43.01 20.99 42.79 20.6 42.79 20.07 42.79 19.71 42.79 15.38 42.79 15.38 42.79 14.59 42.04 13.94 41.12 13.94 40.2 13.94 39.45 14.58 39.45 15.38 39.45 15.38 39.45 19.71 39.45 20.07 39.45 20.72 39.33 20.99 38.4 20.99 37.01 20.99 32.83 20.99 32.83 20.99 31.54 20.99 30.5 21.89 30.5 23 30.5 24.11 31.55 25.01 32.83 25.01 32.83 25.01 36.89 25.01 38.25 25.01 39.33 25.01 39.46 25.59 39.46 26.11 39.46 26.11 39.46 27.41 39.46 27.5 39.46 28.03 39.18 28.42 38.36 28.42 36.11 28.42 34.01 28.42 32.47 28.42 29.47 28.42 28.48 28.78 28.48 31.58 28.48 34.16 28.48 39.3 28.48 41.88 28.48 44.87 29.52 45.11 32.43 45.11 33.95 45.11 36.86 45.11 38.34 45.11 39.08 45.11 39.45 45.4 39.45 46.03 39.45 46.23 39.45 47.69 39.45 47.69 39.45 48.14 39.19 48.47 38.56 48.47 37.12 48.47 32.82 48.47 32.82 48.47 31.53 48.47 30.49 49.37 30.49 50.48 30.49 51.59 31.54 52.49 32.82 52.49 32.82 52.49 37.07 52.49 38.48 52.49 39.01 52.49 39.44 52.76 39.44 53.31 39.44 53.68 39.44 58.72 39.44 58.72 39.44 59.51 40.19 60.16 41.11 60.16 42.03 60.16 42.78 59.52 42.78 58.72 42.78 58.72 42.78 53.67 42.78 53.31 42.78 52.79 43.22 52.49 43.82 52.49 45.22 52.49 49.4 52.49 49.4 52.49 50.69 52.49 51.73 51.59 51.73 50.48 51.73 49.37 50.68 48.47 49.4 48.47 49.4 48.47 45.12 48.47 43.7 48.47 43.34 48.47 42.78 48.39 42.78 47.68 42.78 47.68 42.78 46.22 42.78 46.03 42.78 45.44 43.06 45.11 43.88 45.11 45.33 45.11 48.31 45.11 49.67 45.11 52.29 45.11 53.77 44.64 53.77 41.88 53.77 39.31 53.77 34.18 53.77 31.61 53.77 29.37 53.72 28.41 49.71 28.41ZM32.55 32.45C34.09 32.45 35.99 32.45 38.25 32.45 39.31 32.45 39.45 32.95 39.45 33.54 39.45 34.42 39.19 34.73 38.22 34.73 35.99 34.73 34.11 34.73 32.58 34.73 31.48 34.73 31.28 34.59 31.28 33.58 31.28 32.6 31.51 32.45 32.55 32.45ZM37.91 41.07C35.65 41.07 34.01 41.07 32.71 41.07 31.52 41.07 31.27 40.88 31.27 39.9 31.27 38.96 31.47 38.79 32.69 38.79 33.98 38.79 35.63 38.79 37.89 38.79 39.15 38.79 39.44 39.02 39.44 39.92 39.45 40.7 39.31 41.07 37.91 41.07ZM49.63 41.07C48.39 41.07 46.47 41.07 44.34 41.07 43.05 41.07 42.8 40.83 42.8 39.87 42.8 39.01 43.22 38.78 44.26 38.78 46.39 38.78 48.31 38.78 49.55 38.78 50.84 38.78 51.02 39.01 51.02 39.97 51.02 40.9 50.74 41.07 49.63 41.07ZM51.02 33.64C51.02 34.57 50.88 34.74 49.73 34.74 48.31 34.74 46.41 34.74 44.36 34.74 43.23 34.74 42.81 34.65 42.8 33.61 42.8 32.52 43.04 32.45 44.25 32.45 46.35 32.45 48.29 32.45 49.75 32.45 51.23 32.45 51.02 32.99 51.02 33.64Z" fill="#030000"/><path d="M55.94 4.87C54.62 2.68 51.81 1.26 47.59 0.64 44.87 0.24 39.16 0.24 36.43 0.64 32.22 1.26 29.41 2.68 28.08 4.87 25.32 9.43 25.13 17.31 25.06 19.07 25.03 19.79 25.62 20.43 26.38 20.43 27.14 20.43 27.77 19.87 27.79 19.16 27.96 14.56 28.39 9.57 30.44 6.19 31.87 3.83 37.02 2.99 42.1 3.01 47.19 3.02 52.2 3.9 53.59 6.19 55.64 9.57 56.06 14.56 56.24 19.16 56.27 19.87 56.89 20.43 57.65 20.43 58.4 20.43 58.99 19.79 58.97 19.07 58.89 17.31 58.71 9.42 55.94 4.87Z" fill="#030000"/></svg>