<svg width="56.73" height="58.84" viewBox="0 0 56.73 58.84" xmlns="http://www.w3.org/2000/svg" xmlns:xlink="http://www.w3.org/1999/xlink" overflow="visible"><defs></defs><path d="M13.62 1.56C12.8 0.62 11.38 0.21 9.87 0.52 8.97 0.7 8.29 1 7.78 1.4 6.78 2.18 6.97 2.32 5.57 2.32 2.46 2.31 0 3.76 0 8.06L0 56.44C0 57.12 0.55 57.66 1.23 57.66 1.91 57.66 2.46 57.11 2.46 56.44L2.46 8.06C2.46 6.04 3.03 4.93 5.04 4.8 6.24 4.72 6.26 5.25 6.22 6.03 6.08 9.07 6.22 33.46 6.22 42.26 6.22 44.06 7.14 44.61 9.49 44.61 11.81 44.61 12.76 44.06 12.76 42.26 12.76 33.8 12.63 8.65 12.78 5.76 12.82 5.09 13.15 4.76 13.86 4.75 16.98 4.71 17.37 6.08 17.37 8.69L17.37 56.75C17.37 57.43 17.92 57.98 18.6 57.98 19.28 57.98 19.82 57.43 19.82 56.75L19.82 8.33C19.82 4.15 18.63 2.72 15.29 2.37 14.06 2.24 14.07 2.07 13.62 1.56Z" fill="#030000"/><g><path d="M13.85 37.03C13.62 37.03 13.44 36.85 13.44 36.62L13.44 5.76C13.44 5.53 13.62 5.35 13.85 5.35 14.08 5.35 14.26 5.53 14.26 5.76L14.26 36.61C14.26 36.84 14.08 37.03 13.85 37.03Z" fill="#030000"/></g><path d="M49.55 0 33.79 0C29.19 0 26.61 2.79 26.61 7.14 26.61 7.14 26.61 54.61 26.61 56.24 26.61 59.61 31.18 59.81 31.18 56.19 31.18 55.35 31.18 34.59 31.18 33.3 31.18 29.55 34.08 29.7 35.75 29.7L48.13 29.7C50.65 29.7 52.16 30.92 52.16 33.92 52.16 34.86 52.16 54.61 52.16 56.24 52.16 59.61 56.73 59.81 56.73 56.19 56.73 51.98 56.73 7.14 56.73 7.14 56.73 2.79 54.14 0 49.55 0ZM52.16 22.21C52.16 24.09 51.07 25.16 49.01 25.16L34.33 25.16C32.27 25.16 31.18 24.09 31.18 22.21L31.18 7.52C31.18 5.64 32.27 4.57 34.33 4.57L49.01 4.57C51.07 4.57 52.16 5.64 52.16 7.52L52.16 22.21Z" fill="#030000"/></svg>