<svg width="61.65" height="61.56" viewBox="0 0 61.65 61.56" xmlns="http://www.w3.org/2000/svg" xmlns:xlink="http://www.w3.org/1999/xlink" overflow="visible"><defs></defs><g><g><path d="M1.52 19.99C-0.4 19.99-0.4 17.37 1.52 17.37 2.99 17.37 8.82 17.37 9.7 17.37 11.16 17.37 11.48 16.96 11.48 15.58 11.48 14.42 11.49 8.38 11.49 6.07 11.49 4 14.11 4 14.11 6.07 14.11 8.32 14.11 14.24 14.11 15.58 14.11 18.82 13.02 19.99 9.78 19.99 8.76 19.99 3.01 19.99 1.52 19.99Z" fill="#030000"/></g><g><path d="M59.03 52.83 28.15 52.83C22 52.83 17.79 51.88 17.86 44.77 17.94 37.24 17.86 13.59 17.86 6.06 17.86 4.07 20.48 4.07 20.48 6.06L20.48 44.34C20.56 47.31 20.91 50.15 27.28 50.21L59.03 50.21C61 50.21 61 52.83 59.03 52.83Z" fill="#030000"/></g></g><g><path d="M60.12 56.58 26.15 56.58C23.18 56.58 20.52 55.87 18.26 54.47 17.37 53.92 15.97 53.54 14.4 55.4 11.77 58.53 8.97 58.92 5.13 58.93 3.53 58.93 3.48 58.93 1.52 58.93-0.51 58.93-0.51 61.55 1.52 61.55 3.07 61.55 5.06 61.55 5.08 61.55 9.42 61.55 12.34 61.17 15.48 58.1 16.32 57.28 16.95 57.05 17.86 57.49 20.54 58.77 23.15 59.19 26.14 59.19L60.11 59.19C62.15 59.2 62.15 56.58 60.12 56.58Z" fill="#030000"/><path d="M1.44 55.45C2.93 55.45 4.15 55.45 5.15 55.45L5.15 55.44C13.45 55.38 14.1 50.46 14.1 47.33 14.1 47.33 14.1 29.28 14.1 27.87 14.1 25.55 12.64 23.69 10.32 23.69 8.75 23.69 3.48 23.69 1.51 23.69-0.52 23.69-0.52 26.31 1.51 26.31 3.08 26.31 8.68 26.3 9.57 26.3 10.72 26.3 11.46 27.35 11.46 28.03 11.46 29.19 11.47 47.33 11.47 47.33 11.47 51.26 9.13 52.83 5.06 52.83 4.18 52.83 2.89 52.83 1.42 52.83-0.48 52.83-0.48 55.45 1.44 55.45Z" fill="#030000"/></g><path d="M47.72 33.84 38.63 28.59C38.07 28.26 37.72 27.66 37.72 27.01L37.72 27.01C37.72 26.36 38.07 25.76 38.63 25.43L47.72 20.18C48.86 19.52 49.68 18.38 49.78 17.07 49.9 15.55 49.16 14.16 47.86 13.42L38.73 8.15C38.1 7.79 37.71 7.11 37.71 6.38L37.71 1.27C37.71 0.57 37.14 0 36.44 0 35.74 0 35.17 0.57 35.17 1.27L35.17 6.1 35.17 41.09C35.17 42.37 35.73 43.63 36.77 44.38 37.46 44.87 38.24 45.11 39.02 45.11 39.68 45.11 40.34 44.94 40.95 44.59L47.85 40.61C49.15 39.86 49.88 38.48 49.77 36.96 49.69 35.64 48.86 34.49 47.72 33.84ZM46.6 15.62C47.19 15.96 47.26 16.53 47.26 16.76 47.26 16.99 47.2 17.56 46.6 17.9L39.1 22.23C38.49 22.58 37.73 22.14 37.73 21.44L37.73 12.08C37.73 11.38 38.49 10.93 39.1 11.29L46.6 15.62ZM46.6 38.4 39.7 42.38C39.1 42.72 38.58 42.49 38.38 42.38 38.18 42.27 37.72 41.93 37.72 41.24L37.72 32.58C37.72 31.88 38.48 31.43 39.09 31.79L46.59 36.12C47.18 36.46 47.25 37.03 47.25 37.26 47.26 37.49 47.2 38.06 46.6 38.4Z"/></svg>