<svg width="54.4" height="61" viewBox="0 0 54.4 61" xmlns="http://www.w3.org/2000/svg" xmlns:xlink="http://www.w3.org/1999/xlink" overflow="visible"><defs></defs><path d="M44.85 34.51C44.85 34.51 44.58 34.52 44.08 34.53 44.08 34.53 43.46 34.53 42.6 34.53 41.06 34.53 40.71 33.92 40.71 32.62 40.71 30.05 40.71 27.7 40.71 25.76 40.71 24.66 40.84 23.47 43.07 23.54 44.11 23.57 44.89 23.57 44.98 23.57 47.2 23.57 47.07 20.85 45.07 20.78 44.48 20.76 43.75 20.75 42.99 20.75 41.24 20.75 40.72 20.1 40.72 18.48 40.72 18.17 40.89 17.93 41.3 17.93 43.24 17.93 43.24 15.14 41.3 15.14 40.93 15.14 40.72 14.86 40.72 14.63 40.72 12.58 37.93 12.58 37.93 14.63 37.93 14.97 37.59 15.14 37.35 15.14 35.24 15.14 35.24 17.93 37.35 17.93 37.65 17.93 37.89 18.17 37.89 18.53 37.89 19.48 37.66 20.79 35.63 20.79 30.57 20.79 12.08 20.79 12.08 20.79 9.45 20.76 6.08 20.79 3.29 24.15 2.13 25.54 1.62 26.23 1.08 26.97 0.85 27.29 0.6 27.62 0.29 28.03-0.18 28.65-0.06 29.53 0.56 30 0.81 30.2 1.11 30.29 1.41 30.29 1.83 30.29 2.25 30.1 2.53 29.73 2.86 29.3 3.11 28.96 3.35 28.63 3.89 27.9 4.35 27.27 5.45 25.95 7.4 23.61 9.52 23.62 12.07 23.61 12.07 23.61 30.56 23.61 35.62 23.61 37.5 23.61 37.88 24.26 37.88 25.85 37.88 25.85 37.88 30.93 37.88 32.62 37.88 33.63 37.41 34.6 35.96 34.44 33.88 34.22 32.48 33.56 30.83 32.33 30.33 31.96 29.79 31.55 29.12 31.1 25.77 28.81 21.11 27.69 14.85 27.69 11.39 27.69 9.66 27.77 7.15 28.18 6.38 28.31 5.86 29.03 5.99 29.8 6.12 30.57 6.85 31.09 7.61 30.96 9.95 30.58 11.56 30.5 14.86 30.5 20.52 30.5 24.67 31.45 27.53 33.41 28.16 33.84 28.68 34.23 29.14 34.58 31.49 36.33 33.36 37.08 35.94 37.3 37.24 37.41 37.86 37.58 37.86 39.19 37.86 45.52 37.86 59.49 37.86 59.49 37.94 61.62 40.69 61.37 40.69 59.5 40.69 59.5 40.69 51.25 40.69 39.28 40.69 37.95 41.04 37.37 42.6 37.38 43.74 37.38 44.6 37.38 44.6 37.38 45.35 37.38 46.54 37.3 46.59 36.01 46.63 35.49 46.43 34.6 44.85 34.51Z"/><path d="M6.57 13.81 6.56 12.75C6.53 11.47 5.77 10.84 4.61 9.89 3.16 8.71 1.35 7.24 0.73 3.92 0.49 2.63 2.27 2.2 2.53 3.57 2.99 5.98 4.17 7.14 5.38 8.15 6.16 8.79 6.56 8.41 6.56 7.66 6.56 5.51 6.56 1.08 6.56 1.08 6.56-0.36 8.4-0.36 8.4 1.08 8.4 1.08 8.4 5.47 8.4 7.65 8.4 8.51 8.75 8.83 9.53 8.18 10.76 7.16 11.95 6 12.41 3.57 12.67 2.25 14.47 2.57 14.22 3.91 13.6 7.23 11.79 8.7 10.35 9.89 9.21 10.83 8.47 11.44 8.4 12.64L8.4 13.81C8.4 15.22 6.57 15.22 6.57 13.81Z"/><path d="M46.72 13.81 46.71 12.75C46.68 11.47 45.92 10.84 44.76 9.89 43.31 8.71 41.5 7.23 40.88 3.91 40.64 2.62 42.42 2.2 42.68 3.56 43.14 5.97 44.32 7.13 45.53 8.14 46.31 8.78 46.72 8.4 46.72 7.65 46.72 5.5 46.72 1.07 46.72 1.07 46.72-0.37 48.56-0.37 48.56 1.07 48.56 1.07 48.56 5.46 48.56 7.64 48.56 8.5 48.91 8.82 49.69 8.17 50.92 7.15 52.11 5.99 52.57 3.56 52.83 2.24 54.63 2.56 54.38 3.9 53.76 7.22 51.95 8.69 50.5 9.88 49.36 10.82 48.62 11.43 48.55 12.63L48.55 13.8C48.55 15.22 46.72 15.22 46.72 13.81Z"/></svg>