<svg width="42.83" height="49.26" viewBox="0 0 42.83 49.26" xmlns="http://www.w3.org/2000/svg" xmlns:xlink="http://www.w3.org/1999/xlink" overflow="visible"><defs></defs><path d="M23.28 16.75C20.47 13.17 19.91 13.32 20.5 11.12 20.72 10.3 21.63 10.41 22.97 8.99 24.02 7.88 24.48 6.59 24.48 4.84 24.47 2.1 22.11 0 19.6 0 17.68 0 14.81 1.19 14.71 4.98 14.61 8.7 17.03 8.59 16.92 11.06 16.85 12.68 14.43 12.67 10.41 13.79 0.7 16.51-0.74 20.85 6.04 30.01 7.29 31.69 8.6 32.88 9.9 34.69 10.8 35.93 11.04 36.53 10.1 37.37 9.94 37.51 9.09 38.22 9.09 38.22 7.2 39.83 9.36 42.34 11.24 40.73 11.24 40.73 11.88 40.21 12.09 40.03 13 39.3 13.72 39.17 14.49 39.97 15.29 40.81 16.25 42.18 17.16 43.12 18.09 44.09 18.04 45.34 15.15 45.1 12.1 44.85 5.99 44.62 3.06 44.27-0.62 43.83-1.21 47.91 2.42 48.25 9.17 48.88 13.55 49.18 16.26 49.18 18.03 49.18 21.32 49.73 22.67 47.52 23.98 45.37 22.67 43.59 20.68 40.85 19.81 39.66 18.87 38.54 18.05 37.41 17.72 36.96 17.18 36.08 18.15 35.24 26.83 27.79 30.72 26.24 23.28 16.75ZM7.54 25.14C5.41 21.66 5.02 19.21 10.42 17.72 12.4 17.17 12.43 18.13 11.78 19.36 10.43 21.9 9.76 23.56 8.96 25.09 8.55 25.87 8.16 26.15 7.54 25.14ZM16.07 32.67C15.77 32.93 14.69 33.87 13.65 32.7 11.85 30.69 11.93 29.64 12.94 27.56 13.7 26 14.43 24.42 15.05 22.98 15.26 22.49 15.59 22.47 16.05 22.79 16.38 23.02 16.82 23.08 17.25 23.08 18.72 23.08 19.92 21.89 19.92 20.41 19.92 19.6 19.8 18.14 21.25 19.78 26.25 25.45 21.23 28.16 16.07 32.67Z" fill-rule="evenodd" clip-rule="evenodd"/><path d="M32.4 46.76C32.4 49.64 34.73 49.24 37.61 49.24 40.49 49.24 42.82 49.63 42.82 46.76L42.82 37.41C42.82 35.88 42.15 34.51 41.1 33.56 39.86 32.45 39.18 31.95 39.18 30.14L39.18 30.14C39.18 29.2 39.63 28.35 40.33 27.74 41.2 26.98 41.75 25.87 41.75 24.62 41.75 23.37 41.2 22.26 40.33 21.5 39.62 20.89 39.18 20.03 39.18 19.1L39.18 19.1C39.18 17.13 40.1 16.58 41.11 15.67 42.16 14.72 42.82 13.36 42.82 11.83L42.82 2.5C42.82-0.38 40.49 0.02 37.61 0.02 34.73 0.02 32.4-0.37 32.4 2.5L32.4 2.47 32.4 11.82C32.4 13.35 33.07 14.72 34.12 15.67 35.36 16.78 36.04 17.28 36.04 19.09L36.04 19.09C36.04 20.03 35.59 20.88 34.89 21.49 34.02 22.25 33.47 23.36 33.47 24.61 33.47 25.86 34.02 26.97 34.89 27.73 35.6 28.34 36.04 29.2 36.04 30.13L36.04 30.13C36.04 32.1 35.12 32.65 34.11 33.56 33.06 34.51 32.4 35.87 32.4 37.4L32.4 46.71 32.4 46.76Z"/></svg>