<svg width="49.62" height="56.32" viewBox="0 0 49.62 56.32" xmlns="http://www.w3.org/2000/svg" xmlns:xlink="http://www.w3.org/1999/xlink" overflow="visible"><defs></defs><path d="M47.75 22.8C47.75 22.8 47.46 22.81 46.93 22.82 46.93 22.82 46.27 22.82 45.35 22.82 43.71 22.82 43.34 22.17 43.34 20.79 43.34 18.05 43.34 15.55 43.34 13.49 43.34 12.32 43.48 11.05 45.85 11.13 46.95 11.17 47.78 11.16 47.88 11.16 50.24 11.16 50.1 8.26 47.97 8.19 47.34 8.17 46.57 8.15 45.75 8.15 43.89 8.15 43.33 7.46 43.33 5.73 43.33 5.4 43.52 5.15 43.95 5.15 46.01 5.15 46.01 2.18 43.95 2.18 43.56 2.18 43.33 1.88 43.33 1.64 43.33-0.54 40.36-0.54 40.36 1.64 40.36 2 40 2.18 39.74 2.18 37.49 2.18 37.49 5.15 39.74 5.15 40.06 5.15 40.32 5.4 40.32 5.79 40.32 6.81 40.07 8.19 37.92 8.19 32.54 8.19 12.85 8.19 12.85 8.19 10.05 8.16 6.47 8.19 3.49 11.76 2.26 13.24 1.71 13.98 1.14 14.76 0.89 15.1 0.63 15.45 0.3 15.89-0.2 16.55-0.08 17.49 0.58 17.99 0.86 18.2 1.18 18.3 1.5 18.3 1.95 18.3 2.4 18.1 2.69 17.71 3.04 17.25 3.31 16.89 3.57 16.54 4.14 15.77 4.63 15.1 5.81 13.68 7.88 11.19 10.15 11.2 12.86 11.19 12.86 11.19 32.55 11.19 37.93 11.19 39.94 11.19 40.33 11.88 40.33 13.57 40.33 13.57 40.33 18.98 40.33 20.78 40.33 21.86 39.83 22.88 38.29 22.72 36.07 22.48 34.58 21.78 32.83 20.48 32.3 20.09 31.72 19.65 31.01 19.17 27.45 16.73 22.48 15.54 15.82 15.54 12.13 15.54 10.29 15.63 7.62 16.07 6.8 16.2 6.25 16.98 6.38 17.79 6.51 18.61 7.29 19.17 8.1 19.03 10.59 18.62 12.3 18.54 15.81 18.54 21.84 18.54 26.25 19.55 29.3 21.64 29.97 22.1 30.52 22.51 31.02 22.88 33.52 24.75 35.52 25.55 38.26 25.77 39.64 25.88 40.31 26.07 40.31 27.78 40.31 34.51 40.31 54.72 40.31 54.72 40.4 56.98 43.32 56.72 43.32 54.73 43.32 54.73 43.32 40.62 43.32 27.88 43.32 26.47 43.69 25.85 45.35 25.85 46.56 25.85 47.47 25.85 47.48 25.85 48.28 25.85 49.54 25.77 49.6 24.39 49.64 23.84 49.42 22.89 47.75 22.8Z"/></svg>