<svg width="60.23" height="53.07" viewBox="0 0 60.23 53.07" xmlns="http://www.w3.org/2000/svg" xmlns:xlink="http://www.w3.org/1999/xlink" overflow="visible"><defs></defs><path d="M33.74 24.86C35.17 23.88 37.29 23.26 39.65 23.25 43.96 23.24 47.46 24.8 47.47 27.82 47.48 30.76 43.99 32.41 39.68 32.43 37.15 32.44 34.9 31.74 33.47 30.64" stroke="#030000" stroke-width="3" stroke-linecap="round" stroke-miterlimit="10" fill="none"/><path d="M57.37 36.29C51.94 37.52 45.68 37.05 43.62 36.7 41.58 36.35 39.58 35.23 40.16 32.48 40.47 31.03 41.05 29.63 41.87 28.1 42.89 26.19 43.88 24.26 44.71 21.57 45.04 20.52 44.44 19.4 43.39 19.07 42.33 18.75 41.21 19.34 40.89 20.39 40.16 22.74 39.27 24.48 38.35 26.21 37.14 28.47 36.39 30.62 35.98 32.85 35.15 37.39 32.81 39.37 30.49 41.19 27.06 43.89 23.32 45.41 19.56 45.68 14.47 46.03 14.89 52.38 19.98 52.05 22.59 51.88 27.46 51.13 34.1 46.23 36.19 44.69 38.37 44.93 39.77 46.84 42.69 50.82 47.23 52.9 53.86 53.06 56.99 53.14 57.42 49.12 53.96 49.04 48.41 48.9 44.45 46.97 42.77 43.52 42.29 42.54 42.32 41.05 44.62 41.16 48.93 41.37 52.27 41.73 58.29 40.2 61.33 39.42 60.63 35.55 57.37 36.29Z" fill="#030000"/><g><path d="M13.78 41.91C4.63 41.91 0 39.16 0 33.74 0 30.67 1.85 28.82 3.33 27.32 4.57 26.07 5.33 25.26 5.33 24.2 5.33 23.41 4.96 23.32 4.77 23.32 4.01 23.32 3.38 22.7 3.38 21.94 3.38 21.17 4 20.55 4.77 20.55 4.92 20.55 5.07 20.54 5.2 20.54 5.91 20.51 6.79 20.48 7.47 21.13 7.75 21.4 8.1 21.91 8.1 22.74L8.1 24.2C8.1 26.45 6.61 27.95 5.3 29.27 3.94 30.63 2.77 31.81 2.77 33.73 2.77 35.06 2.77 39.13 13.77 39.13 24.77 39.13 24.77 35.07 24.77 33.73 24.77 31.81 23.6 30.63 22.25 29.27 20.93 27.95 19.44 26.45 19.44 24.2L19.44 22.74C19.44 21.91 19.78 21.4 20.07 21.13 20.75 20.48 21.63 20.51 22.34 20.54 22.48 20.55 22.63 20.55 22.77 20.55 23.54 20.55 24.16 21.17 24.16 21.94 24.16 22.7 23.54 23.32 22.77 23.32 22.59 23.32 22.22 23.44 22.22 24.2 22.22 25.25 22.98 26.07 24.22 27.32 25.71 28.81 27.55 30.67 27.55 33.74 27.55 40.49 20.06 41.91 13.78 41.91Z" fill="#030000"/></g><g><path d="M4.88 18.77C4.66 18.26 7.94 16.51 9.57 14.04 10.38 12.82 11.64 14.19 10.83 15.4 8.87 18.36 5.13 19.35 4.88 18.77Z"/></g><g><path d="M23.09 17.63C23.35 17.23 19.36 15.83 17.36 13.87 16.37 12.9 14.84 13.99 15.83 14.95 18.23 17.3 22.79 18.08 23.09 17.63Z"/></g><g><path d="M11.69 30.54 11.69 16.64C11.69 13.94 15.22 13.94 15.22 16.64L15.22 30.54C15.22 33.33 11.69 33.33 11.69 30.54Z" fill="#030000"/></g><g><path d="M2.49 5.9C2.19 5.34 6.81 3.38 9.13 0.66 10.27-0.69 12.04 0.81 10.89 2.15 8.11 5.42 2.83 6.53 2.49 5.9Z"/></g><g><path d="M24.02 6.14C24.31 5.55 19.83 3.46 17.58 0.57 16.47-0.87 14.76 0.72 15.88 2.15 18.58 5.62 23.69 6.81 24.02 6.14Z"/></g><g><path d="M11.59 12.24 11.59 2.05C11.59 0.07 15.12 0.07 15.12 2.05L15.12 12.24C15.12 14.29 11.59 14.29 11.59 12.24Z" fill="#030000"/></g></svg>