<svg width="60.88" height="65.44" viewBox="0 0 60.88 65.44" xmlns="http://www.w3.org/2000/svg" xmlns:xlink="http://www.w3.org/1999/xlink" overflow="visible"><defs></defs><path d="M59.76 12.44 34.22 12.44C32.28 12.44 29.35 12.44 29.35 17.3 29.35 19.73 28.17 19.96 26.12 19.96 23.56 19.96 13.87 19.96 13.87 19.96 12.47 19.96 12.24 18.96 12.21 18.44 12.24 16.39 12.81 15.2 13.89 13.95 15.35 12.25 19.85 7.25 19.85 7.25 20.23 6.82 20.59 5.22 20.73 4.49 20.77 4.27 20.64 4.17 20.4 4.25 19.68 4.49 18.19 5.02 17.82 5.44 17.82 5.44 14.86 8.85 12.89 11.03 12.24 11.74 11.72 11.76 11.71 10.67 11.7 7.86 11.74 2.79 11.74 2.79 11.74 2.21 10.94 0.78 10.57 0.14 10.45-0.06 10.3-0.04 10.17 0.18 9.79 0.84 9.02 2.22 9.02 2.78 9.02 2.78 9.06 7.72 9.03 10.62 9.02 11.52 8.56 11.72 7.95 11.03 6.01 8.86 2.97 5.43 2.97 5.43 2.57 4.99 0.93 4.43 0.25 4.21 0.07 4.15-0.03 4.22 0.01 4.38 0.15 5.05 0.54 6.79 0.94 7.24 0.94 7.24 5.49 12.25 6.93 13.98 8.28 15.6 8.58 16.5 8.58 18.46 8.58 19 8.58 63.41 8.58 63.41 8.58 66.12 12.2 66.12 12.2 63.41 12.2 63.41 12.2 38.99 12.2 29.95 12.2 28.18 13.87 28.28 13.87 28.28L13.87 28.28C13.87 28.28 27.39 28.28 30.95 28.28 33.85 28.28 35.21 27 35.21 23.77 35.21 20.72 36.36 20.72 38.27 20.72L44.61 20.72C45.97 20.72 46.05 18.91 44.57 18.91L38.27 18.91C36.33 18.91 33.4 18.91 33.4 23.77 33.4 25.77 32.59 26.47 30.87 26.47 30.87 26.47 28.48 26.47 27.92 26.47 26.98 26.47 26.85 26.34 26.85 25.54 26.85 24.81 26.85 23.45 26.85 22.73 26.85 22.1 26.91 21.74 27.77 21.7 29.77 21.61 31.16 20.5 31.16 17.31 31.16 14.76 31.81 14.26 34.21 14.26L59.74 14.26C61.31 14.25 61.19 12.44 59.76 12.44ZM25.19 25.32C25.19 26.33 25.21 26.46 24.08 26.46 22.03 26.46 13.6 26.46 13.6 26.46 12.6 26.46 12.21 26.11 12.21 25.29L12.21 23.11C12.21 22.15 12.54 21.76 13.46 21.76 15.6 21.76 21.99 21.77 24.03 21.77 25.1 21.77 25.2 21.86 25.2 22.94 25.19 23.54 25.19 24.73 25.19 25.32Z"/><path d="M18.47 49.95C21.64 48.47 24.35 46.26 25.86 44.02 26.98 42.46 27.66 41.92 27.58 41.02 27.52 40.38 26.78 40.54 25.87 39.57 25.26 38.92 24.92 38.06 24.92 36.95 24.92 35.23 26.41 33.91 27.99 33.91 29.2 33.91 31.01 34.66 31.07 37.05 31.13 39.39 29.68 39.36 29.73 40.92 29.77 42.03 31.29 43.02 32.55 44.87 34.88 48.26 35.58 49.76 35.53 51.58 35.47 53.53 34.04 55.87 33.25 58.01 32.62 59.72 32.82 63.23 32.86 64.01 32.95 65.87 30.54 65.93 30.38 64.2 29.91 59.25 30.05 58.31 31.23 55.27 32.04 53.17 32.83 51.38 31.57 49.04 30.81 47.63 30.24 46.87 29.49 46.01 28.51 44.87 27.48 46.04 27.05 46.51 24.58 49.25 22.36 50.78 19.47 52.13 17.7 52.95 16.36 50.94 18.47 49.95Z" fill-rule="evenodd" clip-rule="evenodd"/><path d="M41.61 49.95C44.78 48.47 47.49 46.26 49 44.02 50.12 42.46 50.8 41.92 50.72 41.02 50.66 40.38 49.92 40.54 49.01 39.57 48.4 38.92 48.06 38.06 48.06 36.95 48.06 35.23 49.55 33.91 51.13 33.91 52.34 33.91 54.15 34.66 54.21 37.05 54.27 39.39 52.82 39.36 52.87 40.92 52.91 42.03 54.43 43.02 55.69 44.87 58.02 48.26 58.72 49.76 58.67 51.58 58.61 53.53 57.18 55.87 56.39 58.01 55.76 59.72 55.96 63.23 56 64.01 56.09 65.87 53.68 65.93 53.52 64.2 53.05 59.25 53.19 58.31 54.37 55.27 55.18 53.17 55.97 51.38 54.71 49.04 53.95 47.63 53.38 46.87 52.63 46.01 51.65 44.87 50.62 46.04 50.19 46.51 47.72 49.25 45.5 50.78 42.61 52.13 40.83 52.95 39.49 50.94 41.61 49.95Z" fill-rule="evenodd" clip-rule="evenodd"/></svg>