<svg width="61.08" height="58.47" viewBox="0 0 61.08 58.47" xmlns="http://www.w3.org/2000/svg" xmlns:xlink="http://www.w3.org/1999/xlink" overflow="visible"><defs></defs><g><path d="M13.78 58.47C4.63 58.47 0 55.72 0 50.3 0 47.23 1.85 45.38 3.33 43.88 4.57 42.63 5.33 41.82 5.33 40.76 5.33 39.97 4.96 39.88 4.77 39.88 4.01 39.88 3.38 39.26 3.38 38.5 3.38 37.73 4 37.11 4.77 37.11 4.92 37.11 5.07 37.1 5.2 37.1 5.91 37.07 6.79 37.04 7.47 37.69 7.75 37.96 8.1 38.47 8.1 39.3L8.1 40.76C8.1 43.01 6.61 44.51 5.3 45.83 3.94 47.19 2.77 48.37 2.77 50.29 2.77 51.62 2.77 55.69 13.77 55.69 24.77 55.69 24.77 51.63 24.77 50.29 24.77 48.37 23.6 47.19 22.25 45.83 20.93 44.51 19.44 43.01 19.44 40.76L19.44 39.3C19.44 38.47 19.78 37.96 20.07 37.69 20.75 37.04 21.63 37.07 22.34 37.1 22.48 37.11 22.63 37.11 22.77 37.11 23.54 37.11 24.16 37.73 24.16 38.5 24.16 39.26 23.54 39.88 22.77 39.88 22.59 39.88 22.22 40 22.22 40.76 22.22 41.81 22.98 42.63 24.22 43.88 25.71 45.37 27.55 47.23 27.55 50.3 27.55 57.05 20.06 58.47 13.78 58.47Z" fill="#030000"/></g><g><path d="M32.1 11.46C31.09 12.54 31.3 13.66 32.12 14.42 33.01 15.22 34.27 14.86 34.72 14.37 35.43 13.57 35.48 12.5 34.87 11.71 34.22 10.89 32.8 10.72 32.1 11.46Z" fill="#030000"/><path d="M44.35 23.79C45.99 23.63 58.17 21.2 60.05 20.1 60.87 19.62 61.32 18.72 60.95 17.85 60.57 16.98 59.59 16.64 58.7 16.95 55.43 18.09 42.59 21.15 35.68 19.78 34.45 19.53 33.42 18.7 32.98 17.31 32.39 15.47 30.94 14.39 29.6 13.68 29.06 13.4 28.82 12.34 29.84 11.33 31.31 9.87 32.46 9.5 34.21 9.76 36.28 10.06 37.15 12.05 37.25 12.5 37.59 14.13 36.74 15.24 36.27 15.67 35.58 16.31 35.53 17.4 36.17 18.09 36.58 18.53 37.88 18.84 38.6 18.18 40.1 16.79 41.2 14.61 40.6 11.78 40.38 10.72 39.72 9.07 37.82 7.87L37.82 7.87C37.35 7.59 37.66 7.26 37.66 7.26L37.66 7.26C38.71 6.42 39.28 5.55 39.33 5.48 39.67 4.94 39.51 4.23 38.98 3.88 38.44 3.53 37.73 3.69 37.38 4.23 37.36 4.25 35.93 6.42 33.49 6.52 33.42 6.52 33.36 6.53 33.3 6.55 33 6.55 32.71 6.57 32.43 6.6L32.43 6.6C31.9 6.62 31.81 6.39 31.81 6.22 31.82 6.17 31.82 6.13 31.83 6.08 31.83 6.08 31.84 6.07 31.84 6.07L31.84 6.07C32 4.92 31.88 4.06 31.87 3.99 31.77 3.36 31.18 2.92 30.55 3.02 29.91 3.12 29.48 3.7 29.57 4.33 29.58 4.36 29.91 6.93 28.14 8.6 28.01 8.72 27.88 8.84 27.77 8.96 26.59 10.23 25.63 12.34 25.38 16.16 25.35 16.64 25.57 16.85 25.96 16.34 27.6 14.2 30.2 17.2 30 20.5 29.92 21.87 29.42 23.16 28.76 24.66 27.74 26.95 26.7 29.53 27.06 33.2 28.15 44 34.23 47.6 39.8 51.26 42.39 52.96 45.06 54.71 47.27 57.17 47.89 57.86 49.08 58.19 49.94 57.43 50.64 56.8 50.46 55.59 49.83 54.88 48.22 53.08 46.46 51.67 44.67 50.4 43.31 49.44 41.97 48.32 41.49 46.62 41.21 45.65 41.05 44.52 40.94 43.3 40.71 40.54 41.14 39.95 44.22 39.36 46.54 38.92 48.87 38.09 50.96 36.67 51.75 36.14 51.95 35.07 51.41 34.29 50.88 33.51 49.81 33.3 49.03 33.84 47.34 35 45.4 35.67 43.45 36.02 41.3 36.41 40.86 36.05 40.89 34.19 40.92 32.35 41.8 32.03 43.3 31.76 46.59 31.16 50.23 30.76 53.64 29.2 54.5 28.81 54.91 27.82 54.54 26.95 54.16 26.08 53.18 25.73 52.29 26.05 47.64 27.72 44.98 28.2 43.53 28.28 42.4 28.34 40.9 28.39 40.56 26.26 40.29 24.73 42.01 24.01 44.35 23.79ZM37.44 42.2C37.56 44.64 36.96 45.22 35.32 43.54 34.69 42.9 34.11 42.21 33.58 41.44 32.63 40.07 32.94 39.22 34.62 39.46 37 39.81 37.33 39.86 37.44 42.2ZM37.46 33.98C37.44 35.73 37.21 36.35 35.21 36.07 34.52 35.97 33.91 35.87 33.4 35.77 31.45 35.39 30.78 34.77 30.55 33.29 30.29 31.57 31.24 31.28 32.74 31.49 33.44 31.59 34.33 31.7 35.36 31.78 37.2 31.91 37.49 32.18 37.46 33.98ZM37.17 26.88C37.38 28.31 36.6 28.4 35.84 28.35 34.61 28.26 33.62 28.14 32.9 28.03 31.73 27.86 31.38 27.21 31.9 26.05 32.2 25.37 32.5 24.68 32.76 23.97 33.16 22.86 33.63 22.84 34.67 23.06 36.26 23.39 36.4 23.84 36.71 24.81 36.91 25.44 37.06 26.13 37.17 26.88Z" fill="#030000"/></g><g><path d="M4.88 35.33C4.66 34.82 7.94 33.07 9.57 30.6 10.38 29.38 11.64 30.75 10.83 31.96 8.87 34.92 5.13 35.91 4.88 35.33Z"/></g><g><path d="M23.09 34.19C23.35 33.79 19.36 32.39 17.36 30.43 16.37 29.46 14.84 30.55 15.83 31.51 18.23 33.86 22.79 34.64 23.09 34.19Z"/></g><g><path d="M11.69 47.1 11.69 33.2C11.69 30.5 15.22 30.5 15.22 33.2L15.22 47.1C15.22 49.89 11.69 49.89 11.69 47.1Z" fill="#030000"/></g><g><path d="M2.49 22.46C2.19 21.9 6.81 19.94 9.13 17.22 10.27 15.87 12.04 17.37 10.89 18.71 8.11 21.98 2.83 23.09 2.49 22.46Z"/></g><g><path d="M24.02 22.7C24.31 22.11 19.83 20.02 17.58 17.13 16.47 15.69 14.76 17.28 15.88 18.71 18.58 22.18 23.69 23.37 24.02 22.7Z"/></g><g><path d="M11.59 28.8 11.59 18.61C11.59 16.63 15.12 16.63 15.12 18.61L15.12 28.8C15.12 30.85 11.59 30.85 11.59 28.8Z" fill="#030000"/></g><g><path d="M23.51 0.07 19.21 0.07C17.72 0.07 16.52 1.28 16.52 2.77L16.52 6.97C16.52 8.46 17.73 9.67 19.21 9.67L23.51 9.67C25 9.67 26.2 8.46 26.2 6.97L26.2 2.77C26.21 1.28 25 0.07 23.51 0.07ZM25.02 6.96C25.02 7.79 24.34 8.47 23.51 8.47L19.21 8.47C18.38 8.47 17.7 7.79 17.7 6.96L17.7 2.76C17.7 1.93 18.38 1.25 19.21 1.25L23.51 1.25C24.34 1.25 25.02 1.93 25.02 2.76L25.02 6.96Z" fill="#030000"/></g><g><path d="M48.32 0 44.02 0C42.53 0 41.33 1.21 41.33 2.7L41.33 6.9C41.33 8.39 42.54 9.6 44.02 9.6L48.32 9.6C49.81 9.6 51.01 8.39 51.01 6.9L51.01 2.7C51.02 1.21 49.81 0 48.32 0ZM49.83 6.9C49.83 7.73 49.15 8.41 48.32 8.41L44.02 8.41C43.19 8.41 42.51 7.73 42.51 6.9L42.51 2.7C42.51 1.87 43.19 1.19 44.02 1.19L48.32 1.19C49.15 1.19 49.83 1.87 49.83 2.7L49.83 6.9Z" fill="#030000"/></g></svg>