<svg width="59.72" height="61.21" viewBox="0 0 59.72 61.21" xmlns="http://www.w3.org/2000/svg" xmlns:xlink="http://www.w3.org/1999/xlink" overflow="visible"><defs></defs><g><path d="M57.97 21.42 37.84 21.42C36.13 21.42 35.3 21.45 34.84 23.52 34.73 24.02 34.69 24.43 34.69 24.9L52.5 24.9C56.13 24.9 56.24 24.95 56.24 28.66L56.24 54.27C56.24 57.52 56.2 57.71 52.72 57.71L45.75 57.71C42.61 57.71 41.86 57.23 41.86 54.27 41.86 52.72 41.86 48.08 41.86 48.08 41.86 41.47 36.48 36.09 29.87 36.09 23.26 36.09 17.88 41.47 17.88 48.08 17.88 48.08 17.88 53.03 17.88 54.52 17.88 56.95 17.48 57.71 14.69 57.71L7.01 57.71C3.49 57.71 3.49 57.6 3.49 54.41L3.49 28.63C3.49 25.36 3.8 24.91 7.3 24.91L25.15 24.91C25.15 24.59 25.16 24 25.03 23.48 24.57 21.61 23.74 21.42 22.03 21.42L1.74 21.42C0.78 21.42 0 22.2 0 23.16L0 59.46C0 60.42 0.78 61.2 1.74 61.2L17.46 61.2C20.38 61.2 21.35 59.51 21.35 57.08 21.35 55.38 21.35 48.08 21.35 48.08 21.35 43.39 25.16 39.58 29.85 39.58 34.54 39.58 38.35 43.39 38.35 48.08 38.35 48.08 38.35 55.35 38.35 57.05 38.35 59.75 39.64 61.2 42.46 61.2L57.97 61.2C58.93 61.2 59.71 60.42 59.71 59.46L59.71 23.16C59.72 22.2 58.94 21.42 57.97 21.42Z" fill="#030000"/></g><path d="M31.81 3.96C31.81 3.96 31.73 3.71 31.64 3.29 31.56 2.88 31.47 2.31 31.47 1.67 31.47 1.44 31.42 1.22 31.34 1.02 31.26 0.82 31.13 0.64 30.98 0.49 30.83 0.34 30.65 0.22 30.45 0.13 30.25 0.05 30.03 0 29.8 0 29.57 0 29.35 0.05 29.15 0.13 28.95 0.21 28.77 0.34 28.62 0.49 28.47 0.64 28.35 0.82 28.26 1.02 28.18 1.22 28.13 1.44 28.13 1.67 28.13 2.26 28.13 2.72 28.09 3.08 28.05 3.44 27.98 3.7 27.84 3.89 27.7 4.08 27.49 4.19 27.19 4.26 26.89 4.33 26.48 4.35 25.95 4.35M21.97 4.34C21.25 4.32 17.81 4.16 17.81 4.16 16.71 4.77 16.73 6.01 16.73 6.01 16.73 6.01 16.92 6.89 17.22 7.19 17.52 7.49 17.94 7.68 18.4 7.68 19.21 7.68 19.7 7.72 20.09 7.95 20.48 8.17 20.76 8.58 21.15 9.29 21.6 10.1 22.24 11.24 22.87 12.35 23.5 13.46 24.12 14.55 24.51 15.26 25.52 17.11 26.27 18.49 26.83 19.66 27.39 20.83 27.75 21.8 27.97 22.84 28.23 24.06 29.09 24.64 29.95 24.64 30.81 24.64 31.66 24.05 31.89 22.9 32.09 21.9 32.44 20.98 32.98 19.82 33.53 18.67 34.28 17.28 35.31 15.39 35.54 14.96 36.19 13.82 36.89 12.59 37.59 11.36 38.35 10.04 38.78 9.26 39.18 8.54 39.46 8.14 39.82 7.92 40.18 7.7 40.63 7.67 41.39 7.67 41.85 7.67 42.27 7.48 42.57 7.18 42.87 6.88 43.06 6.46 43.06 6 43.06 6 43.9 4.45 42.06 3.83M24.57 9.47C23.98 8.4 24.46 7.68 25.86 7.68 27.95 7.68 32.2 7.68 34.1 7.68 35.98 7.68 36.21 8.41 35.43 9.76 34.66 11.09 33.78 12.62 33.27 13.4 30.26 18.01 29.73 18.29 26.71 13.18 25.91 11.83 25.4 10.96 24.57 9.47Z" fill="#030000"/><g><path d="M23.58 55.92 23.58 51.86C23.58 49.27 25.69 47.16 28.28 47.16L31.46 47.16C34.05 47.16 36.16 49.27 36.16 51.86L36.16 55.92C36.16 58.51 34.05 60.62 31.46 60.62L28.28 60.62C25.69 60.62 23.58 58.51 23.58 55.92ZM34.5 51.86C34.5 50.18 33.14 48.82 31.46 48.82L28.28 48.82C26.6 48.82 25.24 50.18 25.24 51.86L25.24 55.92C25.24 57.6 26.6 58.96 28.28 58.96L31.46 58.96C33.14 58.96 34.5 57.6 34.5 55.92L34.5 51.86Z" fill="#030000"/></g><path d="" fill="#030000"/></svg>