<svg width="61.65" height="61.05" viewBox="0 0 61.65 61.05" xmlns="http://www.w3.org/2000/svg" xmlns:xlink="http://www.w3.org/1999/xlink" overflow="visible"><defs></defs><g><g><path d="M1.52 19.48C-0.4 19.48-0.4 16.86 1.52 16.86 2.99 16.86 8.82 16.86 9.7 16.86 11.15 16.86 11.48 16.45 11.48 15.07 11.48 13.91 11.49 3.87 11.49 1.56 11.49-0.51 14.11-0.51 14.11 1.56 14.11 3.81 14.11 13.73 14.11 15.07 14.11 18.31 13.02 19.48 9.78 19.48 8.76 19.48 3.01 19.48 1.52 19.48Z" fill="#030000"/></g><g><path d="M59.03 52.32 28.15 52.32C22 52.32 17.79 51.37 17.86 44.26 17.94 36.73 17.86 9.08 17.86 1.55 17.86-0.44 20.48-0.44 20.48 1.55L20.48 43.83C20.56 46.8 20.91 49.64 27.28 49.7L59.03 49.7C61 49.71 61 52.32 59.03 52.32Z" fill="#030000"/></g></g><g><path d="M60.12 56.07 26.15 56.07C23.18 56.07 20.52 55.36 18.26 53.96 17.37 53.41 15.96 53.03 14.4 54.89 11.77 58.01 8.97 58.41 5.13 58.42 3.53 58.42 3.48 58.42 1.52 58.42-0.51 58.42-0.51 61.04 1.52 61.04 3.07 61.04 5.06 61.04 5.08 61.04 9.42 61.04 12.34 60.66 15.48 57.59 16.32 56.77 16.95 56.54 17.86 56.98 20.54 58.26 23.14 58.68 26.14 58.68L60.11 58.68C62.15 58.69 62.15 56.07 60.12 56.07Z" fill="#030000"/><path d="M1.44 54.94C2.93 54.94 4.15 54.94 5.15 54.94L5.15 54.93C13.45 54.87 14.1 49.95 14.1 46.82 14.1 46.82 14.1 28.77 14.1 27.36 14.1 25.04 12.64 23.18 10.33 23.18 8.76 23.18 3.49 23.18 1.52 23.18-0.51 23.18-0.51 25.8 1.52 25.8 3.09 25.8 8.69 25.79 9.58 25.79 10.72 25.79 11.47 26.84 11.47 27.52 11.47 28.68 11.48 46.82 11.48 46.82 11.48 50.75 9.15 52.32 5.07 52.32 4.19 52.32 2.9 52.32 1.43 52.32-0.48 52.33-0.48 54.94 1.44 54.94Z" fill="#030000"/></g><g><path d="M57.79 24.88C52.01 23.85 45.37 21.58 43.71 13.89 43.21 11.57 42.86 7.77 42.85 3.59 42.85 1.85 44.47 1.93 44.54 3.42 44.73 7.45 44.8 11.34 45.35 13.52 46.94 19.85 52.24 22.29 58.05 23.21 58.39 23.26 58.88 23.84 59.12 24.14 59.2 24.25 59.2 24.35 59.1 24.41 58.81 24.59 58.17 24.95 57.79 24.88Z" fill="#030000"/></g><g><path d="M40.23 15.46C38.47 19.26 35.6 22.21 31.17 23.1 30.83 23.17 30.17 23.65 29.86 23.93 29.76 24.02 29.76 24.12 29.86 24.17 30.23 24.36 30.95 24.82 31.19 24.79 36.44 24.14 39.67 20.61 41.73 16.24 42.29 15.04 40.73 14.39 40.23 15.46Z" fill="#030000"/></g><path d="M61.36 1.71C60.9 2.82 60.34 3.86 59.59 5.12 58.51 6.96 59.51 8.91 59.01 11.23 58.22 14.89 54.83 16.07 53.14 16.19 51.55 16.29 51.34 14.26 53 14.14 53.03 14.14 56.29 13.73 57 10.79 57.18 10.04 56.96 9.95 56.71 10.34 55.19 12.62 52.67 13.59 50.79 13.91 49.28 14.18 48.85 12.16 50.44 11.88 51.9 11.62 54.58 10.67 55.65 8.23 57 5.14 53.22 2.81 50.02 4.43 48.5 5.21 47.66 3.32 49.09 2.59 51.03 1.61 53.12 1.66 55.37 2.65 56.42 3.11 56.88 3.74 57.51 3.66 57.77 3.62 58.14 3.44 58.5 2.78 58.87 2.1 59.21 1.45 59.5 0.75 60.09-0.61 61.97 0.23 61.36 1.71Z" fill="#030000"/><path d="M25.42 1.71C25.88 2.82 26.44 3.86 27.19 5.12 28.27 6.96 27.27 8.91 27.77 11.23 28.56 14.89 31.95 16.07 33.64 16.19 35.23 16.29 35.44 14.26 33.78 14.14 33.75 14.14 30.49 13.73 29.78 10.79 29.6 10.04 29.82 9.95 30.07 10.34 31.59 12.62 34.11 13.59 35.99 13.91 37.5 14.18 37.93 12.16 36.34 11.88 34.88 11.62 32.2 10.67 31.13 8.23 29.78 5.14 33.56 2.81 36.76 4.43 38.28 5.21 39.12 3.32 37.69 2.59 35.75 1.61 33.66 1.66 31.41 2.65 30.36 3.11 29.9 3.74 29.27 3.66 29 3.62 28.63 3.44 28.27 2.78 27.9 2.1 27.56 1.45 27.27 0.75 26.69-0.61 24.81 0.23 25.42 1.71Z" fill="#030000"/><path d="M47.88 40.26 42.96 36.8C42.66 36.59 42.47 36.19 42.47 35.76L42.47 35.76C42.47 35.33 42.66 34.94 42.96 34.72L47.88 31.26C48.5 30.83 48.94 30.07 49 29.21 49.06 28.21 48.67 27.3 47.96 26.8L43.02 23.33C42.68 23.09 42.47 22.65 42.47 22.17L42.47 21C42.47 20.54 42.16 20.16 41.78 20.16 41.4 20.16 41.09 20.53 41.09 21L41.09 21.98 41.09 45.03C41.09 45.88 41.39 46.71 41.96 47.2 42.33 47.52 42.76 47.68 43.18 47.68 43.54 47.68 43.9 47.56 44.22 47.34L47.95 44.72C48.65 44.23 49.05 43.31 48.99 42.31 48.95 41.45 48.5 40.69 47.88 40.26ZM47.28 28.26C47.6 28.49 47.64 28.86 47.64 29.01 47.64 29.16 47.61 29.54 47.28 29.76L43.22 32.61C42.89 32.84 42.48 32.55 42.48 32.09L42.48 25.92C42.48 25.46 42.89 25.17 43.22 25.4L47.28 28.26ZM47.28 43.27 43.55 45.89C43.23 46.12 42.94 45.97 42.84 45.89 42.73 45.81 42.48 45.59 42.48 45.14L42.48 39.43C42.48 38.97 42.89 38.68 43.22 38.91L47.28 41.76C47.6 41.99 47.64 42.36 47.64 42.51 47.64 42.67 47.6 43.04 47.28 43.27Z"/></svg>