<svg width="61.9" height="59.98" viewBox="0 0 61.9 59.98" xmlns="http://www.w3.org/2000/svg" xmlns:xlink="http://www.w3.org/1999/xlink" overflow="visible"><defs></defs><g><g><path d="M2.42 20.56C0.45 20.56 0.45 17.87 2.42 17.87 3.93 17.87 5.46 17.87 6.37 17.87 7.86 17.87 8.2 17.45 8.2 16.03 8.2 14.83 8.2 3.96 8.2 1.59 8.2-0.54 10.89-0.54 10.89 1.59 10.89 3.89 10.89 14.65 10.89 16.03 10.89 19.35 9.78 20.56 6.44 20.56 5.4 20.56 3.95 20.56 2.42 20.56Z" fill="#030000"/></g><g><path d="M60.33 49.78 25.31 49.78C19 49.78 14.67 48.81 14.75 41.51 14.83 33.78 14.75 9.32 14.75 1.59 14.75-0.45 17.44-0.45 17.44 1.59L17.44 41.06C17.52 44.11 17.89 47.02 24.42 47.09L60.34 47.09C62.36 47.1 62.36 49.78 60.33 49.78Z" fill="#030000"/></g><g><path d="M1.63 59.98C-0.54 59.98-0.54 57.29 1.63 57.29 5.59 57.29 8.59 55.7 11.04 52.28 12.49 50.26 14.24 50.91 15.15 51.47 17.48 52.91 20.2 53.63 23.25 53.63L60.33 53.63C62.42 53.63 62.42 56.32 60.33 56.32L23.25 56.32C20.17 56.32 17.35 55.68 14.86 54.4 13.94 53.92 13.26 53.86 12.5 54.79 9.64 58.27 6.08 59.98 1.63 59.98Z" fill="#030000"/></g><g><path d="M1.63 52.91C-0.52 52.91-0.52 50.22 1.63 50.22 5.81 50.22 8.21 46.2 8.21 39.2 8.21 39.2 8.2 30.02 8.2 28.83 8.2 28.13 7.43 27.05 6.25 27.05 5.33 27.05 4.04 27.06 2.43 27.06 0.35 27.06 0.35 24.37 2.43 24.37 4.45 24.37 5.41 24.37 7.02 24.37 9.4 24.37 10.9 26.28 10.9 28.66 10.9 30.11 10.9 39.2 10.9 39.2 10.89 42.41 10.22 52.91 1.63 52.91Z" fill="#030000"/></g></g><path d="M45.93 21.42C44.82 21.42 42.15 21.42 41.03 21.42 40.39 21.42 40.13 21.2 40.13 20.62 40.13 20.38 40.13 20.24 40.13 20.24 40.13 19.78 40.2 19.26 41.04 19.26 42.06 19.26 45.54 19.26 45.54 19.26 48.14 19.31 48.07 15.62 45.7 15.62 45.7 15.62 42.04 15.62 40.96 15.62 40.3 15.62 40.13 15.27 40.13 14.79 40.13 14.46 40.13 13.49 40.13 13.49 40.13 11.99 38.37 11.99 38.37 13.49 38.37 13.49 38.37 14.47 38.37 14.79 38.37 15.38 38.27 15.62 37.55 15.62 36.46 15.62 32.77 15.62 32.77 15.62 30.34 15.62 30.34 19.26 32.77 19.26 32.77 19.26 36.38 19.26 37.43 19.26 38.28 19.26 38.37 19.78 38.37 20.25 38.37 20.25 38.37 20.5 38.37 20.58 38.37 21.06 38.15 21.41 37.51 21.41 35.75 21.41 33.68 21.41 32.48 21.41 30.14 21.41 29.37 21.74 29.37 24.27 29.37 26.6 29.37 31.26 29.37 33.59 29.37 36.3 30.18 36.51 32.45 36.51 33.64 36.51 36.34 36.51 37.5 36.51 38.08 36.51 38.37 36.77 38.37 37.35 38.37 37.53 38.37 38.07 38.37 38.07 38.37 38.48 38.17 38.78 37.68 38.78 36.56 38.78 32.77 38.78 32.77 38.78 30.34 38.78 30.34 42.42 32.77 42.42 32.77 42.42 36.52 42.42 37.62 42.42 38.04 42.42 38.37 42.66 38.37 43.16 38.37 43.49 38.37 44.49 38.37 44.49 38.37 45.94 40.13 45.94 40.13 44.49 40.13 44.49 40.13 43.49 40.13 43.16 40.13 42.69 40.47 42.42 40.94 42.42 42.03 42.42 45.7 42.42 45.7 42.42 48.11 42.42 48.11 38.78 45.7 38.78 45.7 38.78 41.96 38.78 40.84 38.78 40.56 38.78 40.12 38.71 40.12 38.06 40.12 38.06 40.12 37.53 40.12 37.35 40.12 36.82 40.34 36.51 40.97 36.51 42.1 36.51 44.83 36.51 45.89 36.51 47.93 36.51 49.09 36.09 49.09 33.59 49.09 31.27 49.09 26.63 49.09 24.3 49.1 22.29 49.06 21.42 45.93 21.42ZM32.55 25.08C33.76 25.08 35.67 25.08 37.43 25.08 38.26 25.08 38.36 25.53 38.36 26.07 38.36 26.87 38.16 27.15 37.4 27.15 35.66 27.15 33.76 27.15 32.56 27.15 31.7 27.15 31.55 27.03 31.55 26.11 31.55 25.21 31.74 25.08 32.55 25.08ZM37.17 32.87C35.41 32.87 33.69 32.87 32.68 32.87 31.76 32.87 31.56 32.7 31.56 31.81 31.56 30.96 31.72 30.8 32.67 30.8 33.68 30.8 35.4 30.8 37.17 30.8 38.15 30.8 38.38 31.01 38.38 31.82 38.37 32.53 38.25 32.87 37.17 32.87ZM45.87 32.87C44.9 32.87 43 32.87 41.34 32.87 40.34 32.87 40.14 32.65 40.14 31.79 40.14 31.01 40.47 30.8 41.28 30.8 42.94 30.8 44.84 30.8 45.81 30.8 46.82 30.8 46.95 31.01 46.95 31.88 46.95 32.72 46.74 32.87 45.87 32.87ZM46.95 26.15C46.95 26.99 46.84 27.14 45.94 27.14 44.83 27.14 42.95 27.14 41.35 27.14 40.47 27.14 40.14 27.06 40.14 26.12 40.14 25.13 40.33 25.07 41.27 25.07 42.91 25.07 44.83 25.07 45.96 25.07 47.12 25.08 46.95 25.57 46.95 26.15Z" fill="#030000"/><path d="M55.05 5.44C53.54 3.44 50.34 2.14 45.54 1.57 42.44 1.2 35.85 1.21 32.75 1.57 27.95 2.14 24.75 3.44 23.24 5.44 20.09 9.61 20.32 14.84 20.24 16.45 20.21 17.11 20.93 17.7 21.79 17.7 22.62 17.7 23.31 17.19 23.34 16.54 23.53 12.33 23.59 9.75 25.92 6.65 27.61 4.41 33.86 3.51 40.04 3.64 45.42 3.75 50.79 4.57 52.36 6.65 54.69 9.74 54.74 12.32 54.94 16.54 54.97 17.19 55.66 17.7 56.49 17.7 57.45 17.7 58.07 17.12 58.04 16.45 57.97 14.84 58.19 9.61 55.05 5.44Z" fill="#030000"/></svg>