<svg width="58.9" height="61.4" viewBox="0 0 58.9 61.4" xmlns="http://www.w3.org/2000/svg" xmlns:xlink="http://www.w3.org/1999/xlink" overflow="visible"><defs></defs><g><path d="M33.99 39.46C25.86 39.46 19.25 32.85 19.25 24.72 19.25 18.07 23.68 12.43 29.74 10.6 31.73 10 32.43 9.18 32.43 6.96 32.43 5.08 32.43 1.57 32.43 1.57 32.43 0.7 33.13 -6.66134e-16 34 -6.66134e-16 34.87 -6.66134e-16 35.57 0.7 35.57 1.57 35.57 1.57 35.57 6.03 35.57 8.44 35.57 11.44 34.46 12.72 32.08 13.27 26.56 14.53 22.39 18.97 22.39 24.72 22.39 31.12 27.6 36.33 34 36.33 40.4 36.33 45.61 31.12 45.61 24.72 45.61 23.85 46.31 23.15 47.18 23.15 48.05 23.15 48.75 23.85 48.75 24.72 48.73 32.85 42.11 39.46 33.99 39.46Z"/></g><g><path d="M48.66 61.4C47.79 61.4 47.09 60.7 47.09 59.83 47.09 59.83 47.09 45.07 47.09 39.24 47.09 37.26 47.95 35.06 50.66 33.9 53.64 32.62 55.76 30.31 55.76 27.09 55.76 23.17 52.57 19.99 48.66 19.99 44.74 19.99 41.56 23.18 41.56 27.09 41.56 27.96 40.86 28.66 39.99 28.66 39.13 28.66 38.42 27.96 38.42 27.09 38.42 21.45 43.01 16.85 48.66 16.85 54.3 16.85 58.9 21.44 58.9 27.09 58.9 31.24 56.41 34.83 52.85 36.43 51.67 36.96 50.23 37.8 50.23 39.72 50.23 45.04 50.23 59.84 50.23 59.84 50.23 60.7 49.53 61.4 48.66 61.4Z"/></g><path d="M9.64 49.84C3.2 49.84 2.1 47.14 0.66 42.61 0.19 41.12-0.39 39.45 0.36 38.35 1.02 37.37 2.32 37.21 3.23 37.1 4.29 36.98 5.22 35.66 7.22 35.69 8.3 35.71 9.01 36.22 9.47 36.58 9.52 36.62 9.75 36.62 9.8 36.58 10.27 36.23 10.98 35.72 12.06 35.69 14.18 35.63 14.9 36.82 16.12 37.11 17.03 37.33 18.36 37.52 18.99 38.57 19.68 39.71 18.84 41.91 18.38 43.21 16.96 47.22 16.1 49.84 9.64 49.84ZM5.7 38.71C5.14 39.07 4.46 39.41 3.65 39.46 2.51 39.54 2.66 40.65 3.07 41.96 4.38 46.12 4.74 47.25 9.64 47.4 14.31 47.25 14.71 46.14 16 42.47 16.48 41.12 16.92 39.63 15.56 39.45 14.81 39.35 14.19 39.01 13.65 38.71 13.08 38.4 12.16 37.79 11.08 38.53 10.71 38.79 10.26 39.15 9.63 39.15 9 39.15 8.56 38.79 8.18 38.53 7.63 38.15 6.76 38.04 5.7 38.71Z" fill="#030000"/></svg>