<svg width="61.53" height="65.44" viewBox="0 0 61.53 65.44" xmlns="http://www.w3.org/2000/svg" xmlns:xlink="http://www.w3.org/1999/xlink" overflow="visible"><defs></defs><path d="M60.42 12.44 29.65 12.44C27.71 12.44 24.78 12.44 24.78 17.3 24.78 19.73 23.6 19.96 21.55 19.96 18.99 19.96 13.87 19.96 13.87 19.96 12.47 19.96 12.24 18.96 12.21 18.44 12.24 16.39 12.81 15.2 13.89 13.95 15.35 12.25 19.85 7.25 19.85 7.25 20.23 6.82 20.59 5.22 20.73 4.49 20.77 4.27 20.64 4.17 20.4 4.25 19.68 4.49 18.19 5.02 17.82 5.44 17.82 5.44 14.86 8.85 12.89 11.03 12.24 11.74 11.72 11.76 11.71 10.67 11.7 7.86 11.74 2.79 11.74 2.79 11.74 2.21 10.94 0.78 10.57 0.14 10.45-0.06 10.3-0.04 10.17 0.18 9.79 0.84 9.02 2.22 9.02 2.78 9.02 2.78 9.06 7.72 9.03 10.62 9.02 11.52 8.56 11.72 7.95 11.03 6.01 8.86 2.97 5.43 2.97 5.43 2.57 4.99 0.93 4.43 0.25 4.21 0.07 4.15-0.03 4.22 0.01 4.38 0.15 5.05 0.54 6.79 0.94 7.24 0.94 7.24 5.49 12.25 6.93 13.98 8.28 15.6 8.58 16.5 8.58 18.46 8.58 19 8.58 63.41 8.58 63.41 8.58 66.12 12.2 66.12 12.2 63.41 12.2 63.41 12.2 38.99 12.2 29.95 12.2 28.18 13.87 28.28 13.87 28.28L13.87 28.28C13.87 28.28 22.82 28.28 26.38 28.28 29.28 28.28 30.64 27 30.64 23.77 30.64 20.72 31.79 20.72 33.7 20.72L46.27 20.72C47.63 20.72 47.71 18.91 46.23 18.91L33.69 18.91C31.75 18.91 28.82 18.91 28.82 23.77 28.82 25.77 28.01 26.47 26.29 26.47 26.29 26.47 23.9 26.47 23.34 26.47 22.4 26.47 22.27 26.34 22.27 25.54 22.27 24.81 22.27 23.45 22.27 22.73 22.27 22.1 22.33 21.74 23.19 21.7 25.19 21.61 26.58 20.5 26.58 17.31 26.58 14.76 27.23 14.26 29.63 14.26L60.4 14.26C61.97 14.25 61.85 12.44 60.42 12.44ZM20.62 25.32C20.62 26.33 20.64 26.46 19.51 26.46 17.46 26.46 13.6 26.46 13.6 26.46 12.6 26.46 12.21 26.11 12.21 25.29L12.21 23.11C12.21 22.15 12.54 21.76 13.46 21.76 15.6 21.76 17.42 21.77 19.46 21.77 20.53 21.77 20.63 21.86 20.63 22.94 20.62 23.54 20.62 24.73 20.62 25.32Z"/><path d="M56.18 34.94C56.18 34.94 55.25 35.09 54.93 35.14 53.74 35.33 53.43 35.02 53.43 33.75 53.43 33.58 53.43 33.07 53.43 33.07 53.43 32.49 52.96 32.02 52.38 32.02 51.8 32.02 51.33 32.49 51.33 33.07 51.33 33.07 51.33 33.61 51.33 33.78 51.33 35.38 50.87 35.75 48.58 36.12 44.65 36.74 37.57 36.73 33.81 36.13 31.18 35.71 30.96 35.01 30.96 33.81 30.96 33.62 30.96 33.06 30.96 33.06 30.96 32.48 30.49 32.01 29.9 32.01 29.32 32.01 28.85 32.48 28.85 33.06 28.85 33.06 28.85 33.64 28.85 33.84 28.85 35.05 28.63 35.26 27.15 35.03 26.88 34.99 26.08 34.86 26.08 34.86 25.5 34.77 24.96 35.16 24.87 35.74 24.78 36.31 25.17 36.86 25.74 36.95 25.74 36.95 26.49 37.07 26.74 37.11 28.58 37.4 28.84 38.04 28.84 39.62 28.84 40.95 28.84 44.94 28.84 44.94 28.84 48.96 29.87 54.3 38.77 54.3L43.5 54.3C52.4 54.3 53.43 48.96 53.43 44.94 53.43 44.94 53.43 40.61 53.43 39.16 53.43 38.1 53.98 37.42 55.19 37.23 55.52 37.18 56.51 37.02 56.51 37.02 57.09 36.93 57.48 36.39 57.39 35.81 57.29 35.25 56.75 34.85 56.18 34.94ZM51.33 44.94C51.33 45.64 51.64 46.48 50.3 46.7 45.01 47.58 37.16 47.49 32.06 46.71 30.8 46.52 30.96 45.47 30.96 44.94 30.96 43.74 31.17 43.27 32.64 43.5 36.4 44.1 45.74 44.12 49.75 43.49 51.5 43.21 51.33 43.94 51.33 44.94ZM43.5 52.19 38.77 52.19C35.8 52.19 33.91 51.46 32.73 50.38 31.94 49.66 32.32 48.75 33.05 48.85 38.42 49.55 43.93 49.55 49.34 48.88 49.97 48.8 50.75 49.19 49.64 50.27 48.48 51.42 46.57 52.19 43.5 52.19ZM49.39 41.41C45.46 42.03 36.7 42.01 32.94 41.41 31 41.1 30.95 40.51 30.95 39.26 30.95 37.88 31.98 37.98 33.47 38.22 37.24 38.82 45.01 38.83 48.94 38.2 50.36 37.97 51.3 38.2 51.32 39.16 51.36 40.95 51.31 41.11 49.39 41.41Z" fill="#020303"/><path d="M21.12 58.51C21.12 59.36 21.28 59.7 21.9 59.7 21.9 59.7 25.25 59.7 25.8 59.7 27.56 59.7 27.7 60.2 27.7 61.61 27.7 61.9 27.7 61.48 27.7 61.48 27.7 62.6 27.7 63.22 25.96 63.22L24.42 63.22C23.8 63.22 23.31 63.72 23.31 64.33 23.31 64.94 23.81 65.44 24.42 65.44L25.96 65.44C29.93 65.44 29.93 62.45 29.93 61.47 29.93 61.47 29.93 61.88 29.93 61.59 29.93 59.92 30.12 59.7 31.72 59.7 33.4 59.7 47.79 59.7 50.46 59.7 52.27 59.7 52.3 60.26 52.3 61.5 52.3 61.82 52.3 61.47 52.3 61.47 52.3 62.45 52.3 65.44 56.27 65.44L57.81 65.44C58.42 65.44 58.92 64.94 58.92 64.33 58.92 63.71 58.42 63.22 57.81 63.22L56.27 63.22C54.53 63.22 54.53 62.6 54.53 61.48 54.53 61.48 54.53 61.84 54.53 61.53 54.53 60.06 54.61 59.71 56.38 59.71 56.93 59.71 60.48 59.71 60.48 59.71 61.1 59.71 61.15 59.21 61.15 58.6 61.15 57.98 61.1 57.49 60.48 57.49L21.9 57.49C21.28 57.47 21.12 57.62 21.12 58.51Z" fill="#030000"/></svg>