<svg width="58.53" height="58.17" viewBox="0 0 58.53 58.17" xmlns="http://www.w3.org/2000/svg" xmlns:xlink="http://www.w3.org/1999/xlink" overflow="visible"><defs></defs><path d="M8.28 56.4 8.28 30.48C8.28 27.65 6.57 27.61 4.6 29.14 3.75 29.8 3.23 30.21 2.87 30.47 0.78 31.99-1.11 29.16 0.78 27.7 1 27.54 23.31 10.52 25.5 8.91 28.78 6.51 29.01 5.8 29.01 2.5 29.01-0.83 33.74-0.83 33.74 2.5 33.74 6.17 34.48 6.89 36.81 8.58 39.12 10.26 57.71 24.4 57.87 24.54 59.57 25.95 57.6 28.25 55.95 26.96 55.88 26.91 46.59 19.64 43.23 17.15 37.18 12.66 34.15 10.5 31.36 10.5 28.85 10.5 27.46 11.88 18.47 18.49 12.14 23.14 11.34 25.18 11.34 30.55L11.34 56.45C11.35 58.77 8.28 58.75 8.28 56.4Z" fill="#030000"/><path d="M48.24 51.48C48.24 47.94 45.36 45.06 41.82 45.06L26.01 45.06C22.47 45.06 19.59 47.94 19.59 51.48L19.59 51.48 19.59 51.75C19.59 55.3 22.47 58.18 26.01 58.18L41.82 58.18C45.36 58.18 48.24 55.3 48.24 51.75L48.24 51.48 48.24 51.48ZM45.98 51.75C45.98 54.04 44.12 55.91 41.82 55.91L26.01 55.91C23.72 55.91 21.85 54.04 21.85 51.75L21.85 51.48 21.85 51.48C21.85 49.19 23.71 47.33 26.01 47.33L41.82 47.33C44.11 47.33 45.97 49.19 45.97 51.49L45.97 51.49 45.97 51.75Z" fill="#030000"/><path d="M38.93 19.37C38.46 18.66 37.51 18.53 36.87 19.05 36.87 19.05 35.53 20.14 33.51 21.77 33.24 21.99 32.84 21.8 32.84 21.45L32.84 17.22C32.84 16.52 32.36 15.87 31.67 15.76 30.79 15.62 30.03 16.29 30.03 17.15 30.03 17.15 30.03 35.11 30.03 40.8 30.03 42.75 32.67 43.22 32.84 40.8L32.83 28.01C32.83 26.69 33.43 25.44 34.45 24.61L38.58 21.27C39.15 20.81 39.33 19.98 38.93 19.37Z" fill="#030000"/></svg>