<svg width="56.53" height="63.92" viewBox="0 0 56.53 63.92" xmlns="http://www.w3.org/2000/svg" xmlns:xlink="http://www.w3.org/1999/xlink" overflow="visible"><defs></defs><path d="M52.65 16.93C52.65 16.93 51.07 17.18 50.54 17.26 48.53 17.58 48 17.05 48 14.92 48 14.63 48 13.76 48 13.76 48 12.78 47.2 11.97 46.21 11.97 45.22 11.97 44.42 12.77 44.42 13.76 44.42 13.76 44.42 14.67 44.42 14.97 44.42 17.68 43.63 18.31 39.77 18.93 33.12 19.98 24.51 19.96 18.13 18.95 13.67 18.24 13.3 17.06 13.3 15.03 13.3 14.71 13.3 13.76 13.3 13.76 13.3 12.78 12.5 11.97 11.51 11.97 10.52 11.97 9.72 12.77 9.72 13.76 9.72 13.76 9.72 14.75 9.72 15.08 9.72 17.14 9.35 17.49 6.83 17.09 6.38 17.02 5.02 16.8 5.02 16.8 4.05 16.65 3.13 17.31 2.98 18.29 2.82 19.27 3.49 20.18 4.46 20.34 4.46 20.34 5.73 20.54 6.15 20.61 9.27 21.1 9.71 22.18 9.71 24.86 9.71 27.11 9.71 32.87 9.71 32.87 9.71 39.68 11.45 47.73 26.53 47.73L31.15 47.73C46.23 47.73 47.98 39.68 47.98 32.87 47.98 32.87 47.98 26.53 47.98 24.08 47.98 22.29 48.9 21.14 50.96 20.82 51.52 20.73 53.19 20.47 53.19 20.47 54.16 20.32 54.83 19.4 54.68 18.43 54.54 17.44 53.63 16.78 52.65 16.93ZM44.43 32.87C44.43 34.06 43.99 34.63 42.69 34.85 33.72 36.33 23.83 36.17 15.18 34.86 13.78 34.65 13.31 33.76 13.31 32.87 13.31 30.84 13.67 30.04 16.17 30.43 22.54 31.44 34.98 31.48 41.76 30.41 44.72 29.94 44.43 31.18 44.43 32.87ZM31.18 44.15 26.56 44.15C21.52 44.15 18.32 42.91 16.33 41.08 14.79 39.67 15.7 38.51 16.6 38.62 25.7 39.81 31.64 39.81 40.81 38.67 42.21 38.5 43.47 39.07 41.6 40.9 39.62 42.85 36.37 44.15 31.18 44.15ZM41.15 26.89C34.5 27.94 23.05 27.9 16.67 26.89 13.39 26.37 13.31 25.21 13.31 24.24 13.31 21.9 15.05 22.08 17.58 22.48 23.97 23.49 33.73 23.51 40.4 22.45 42.81 22.07 44.43 22.45 44.43 24.08 44.43 25.22 44.4 26.37 41.15 26.89Z" fill="#020303"/><g><path d="M28.35 3.38C28.46 2.64 22.4 2.4 18.62 0.37 17.95 0.01 17.09 0.25 16.71 0.9 16.33 1.55 16.57 2.37 17.24 2.73 21.76 5.16 28.22 4.21 28.35 3.38Z" fill="#030000"/></g><g><path d="M7.78 10.44C7.15 10.02 11.1 5.55 12.15 1.48 12.34 0.76 13.09 0.31 13.85 0.48 14.6 0.65 15.06 1.38 14.87 2.11 13.61 6.98 8.5 10.92 7.78 10.44Z" fill="#030000"/></g><g><path d="M16.38 14.85C15.61 14.82 16.43 9.02 15.03 5.08 14.78 4.38 15.17 3.61 15.91 3.36 16.64 3.12 17.43 3.48 17.68 4.19 19.35 8.91 17.25 14.87 16.38 14.85Z" fill="#030000"/></g><g><path d="M52.39 4.5C52.58 3.78 46.57 2.89 43.04 0.47 42.41 0.04 41.54 0.18 41.09 0.79 40.64 1.4 40.79 2.24 41.42 2.67 45.65 5.56 52.17 5.31 52.39 4.5Z" fill="#030000"/></g><g><path d="M31.19 9.33C30.61 8.84 35.01 4.82 36.48 0.89 36.74 0.19 37.54-0.17 38.27 0.08 39 0.33 39.37 1.11 39.11 1.81 37.35 6.51 31.85 9.88 31.19 9.33Z" fill="#030000"/></g><g><path d="M39.27 14.63C38.51 14.52 39.94 8.84 38.97 4.77 38.8 4.05 39.26 3.33 40.02 3.16 40.77 2.99 41.52 3.45 41.7 4.17 42.86 9.04 40.13 14.74 39.27 14.63Z" fill="#030000"/></g><path d="M0 52.18C0 53.93 0.32 54.61 1.53 54.61 1.53 54.61 6.48 54.61 7.58 54.61 11.04 54.61 11.33 55.63 11.33 58.51 11.33 59.1 11.33 61.09 11.33 61.09 11.33 64.71 15.71 64.92 15.71 61.09 15.71 61.09 15.71 59.07 15.71 58.47 15.71 55.05 16.09 54.6 19.23 54.6 22.53 54.6 31.67 54.6 36.92 54.6 40.48 54.6 40.55 55.74 40.55 58.29 40.55 58.94 40.62 61.25 40.62 61.25 40.62 64.8 45 64.79 45 61.25 45 61.25 44.93 58.97 44.93 58.33 44.93 55.32 45.08 54.61 48.57 54.61 49.65 54.61 55.21 54.61 55.21 54.61 56.42 54.61 56.53 53.59 56.53 52.34 56.53 51.08 56.43 50.06 55.21 50.06L1.53 50.06C0.32 50.06 0 50.36 0 52.18Z" fill="#030000"/></svg>