<svg width="56.84" height="56.66" viewBox="0 0 56.84 56.66" xmlns="http://www.w3.org/2000/svg" xmlns:xlink="http://www.w3.org/1999/xlink" overflow="visible"><defs></defs><path d="M15.46 27.67C15.46 26.68 15.92 26.41 16.43 25.95 16.96 25.48 17.29 24.79 17.29 24.03L17.29 18.62C17.29 17.18 16.12 17.38 14.68 17.38 13.24 17.38 12.07 17.18 12.07 18.62L12.07 24.03C12.07 24.8 12.4 25.48 12.93 25.96 13.55 26.52 13.89 26.76 13.89 27.67 13.89 28.81 13.89 31.16 13.89 32.3 13.89 33.29 13.43 33.56 12.92 34.02 12.39 34.49 12.06 35.18 12.06 35.94L12.06 41.98C12.06 43.42 13.23 43.22 14.67 43.22 16.11 43.22 17.28 43.42 17.28 41.98L17.28 35.94C17.28 35.17 16.95 34.49 16.42 34.01 15.8 33.45 15.46 33.21 15.46 32.3 15.46 31.16 15.46 28.81 15.46 27.67Z"/><g><path d="M27.1 11.48C28 11.39 28.66 10.59 28.57 9.7 28.48 8.8 27.68 8.14 26.79 8.23 25.89 8.32 25.23 9.12 25.32 10.02 25.4 10.91 26.2 11.57 27.1 11.48Z" fill="#030000"/><path d="M54.6 18.74C47.9 18.96 43.36 22.28 39.23 25.31 34.47 28.79 31.14 31.02 26.82 30.05 25.66 29.79 24.37 29.32 24.22 27.64 24.1 26.26 24.32 21.44 24.41 20.36 24.57 18.31 25.58 18.36 27.82 18.14 32.31 17.71 35.61 13.71 35.18 9.21 34.75 4.72 30.74 1.41 26.26 1.84 24.75 2 23.39 2.55 22.24 3.38 21.52 3.9 20.91 3.94 20.38 3.27 19.9 2.64 18.5 0.72 18.5 0.72 17.26-0.95 15.16 0.6 16.39 2.28 16.39 2.28 18.05 4.57 18.63 5.32 19.28 6.16 19.36 6.95 19.09 8.06 18.87 8.93 18.8 9.85 18.89 10.79 19.06 12.56 19.88 14.08 20.87 15.38 22.12 17.01 21.85 20.24 21.67 23.07 21.22 30.37 21.84 34.22 27.29 38.35 28.22 39.06 28.38 39.68 27.31 40.56 26.29 41.4 24.76 42.5 22.64 43.59 17.71 46.13 17.9 50.46 18.69 52.41 19.45 54.28 21.92 53.42 21.11 51.42 21.07 51.32 20.34 49.46 21.66 47.67 22.11 47.06 22.43 47.54 22.44 47.87 22.46 49.11 22.77 50.2 23.17 50.91 24.21 52.74 26.49 51.64 25.48 49.68 25.31 49.34 23.95 46.4 27.19 43.92 28.42 43.07 29.4 42.24 30.14 41.56 30.79 40.95 31.65 40.62 32.66 40.84 33.3 40.98 33.96 41.09 34.63 41.14 35.99 41.26 36.19 42.14 35.47 43.02 34.64 44.06 33.52 45.33 32.28 46.45 28.16 50.16 29.36 54.31 30.66 55.97 31.98 57.65 33.96 56.02 32.76 54.41 32.69 54.32 31.5 52.67 32.38 50.57 32.59 50.08 32.99 50.02 33.13 50.57 33.45 51.8 34.05 52.78 34.61 53.39 36.12 55.03 37.9 53.16 36.54 51.63 36.29 51.35 34.25 48.86 36.74 45.65 37.9 44.31 38.73 43.1 39.29 42.18 39.95 41.09 40.55 40.75 41.54 40.6 50.08 39.24 53.12 43.98 52.34 50.47 52.08 52.61 54.66 52.97 54.94 50.78 55.93 42.95 51.78 36.68 40.65 38.09 35.4 38.76 30.82 38.43 27.65 35.2 27.22 34.77 26.22 34.04 27.61 34.16 33.12 34.6 36.75 32.01 41.53 28.51 45.47 25.62 49.26 22.85 54.84 22.7 57.47 22.6 57.62 18.64 54.6 18.74ZM26.41 4.31C29.47 4.02 32.19 6.27 32.48 9.32 32.77 12.38 30.53 15.1 27.47 15.39 24.41 15.68 21.71 13.6 21.4 10.38 21.11 7.33 23.35 4.6 26.41 4.31Z" fill="#030000"/></g><path d="M6 7.96C7.75 8.77 8.58 8.39 11.64 7.75 11.69 7.74 11.79 7.71 11.72 7.58 10.61 5.51 10.13 3.75 8.67 2.9 6.92 1.89 5.2 2.63 4.48 4.1 3.68 5.76 4.46 7.25 6 7.96Z" fill-rule="evenodd" clip-rule="evenodd"/><path d="M8.04 20.45C8.08 20.42 8.15 20.35 8.03 20.26 6.1 18.93 4.87 17.59 3.18 17.49 1.16 17.4-0.04 18.84 0 20.48 0.04 22.32 1.42 23.29 3.11 23.22 5.04 23.15 5.61 22.42 8.04 20.45Z" fill-rule="evenodd" clip-rule="evenodd"/><path d="M5.3 48.67C6.86 47.45 8.98 47.68 11.7 47.37 11.87 47.35 11.86 47.47 11.85 47.53 11.23 51.13 11.28 52.2 9.65 53.75 8.22 55.11 6.26 55.33 4.8 53.74 3.51 52.33 3.45 50.15 5.3 48.67Z" fill-rule="evenodd" clip-rule="evenodd"/></svg>