<svg width="57.25" height="61.13" viewBox="0 0 57.25 61.13" xmlns="http://www.w3.org/2000/svg" xmlns:xlink="http://www.w3.org/1999/xlink" overflow="visible"><defs></defs><path d="M18.91 58.77C17.42 58.77 17.19 58.48 17.41 57.22 17.61 56.06 17.83 54.83 17.94 54.18 18.17 52.73 17.51 51.49 15.43 51.49L12.33 51.49C11.11 51.49 10.62 51.22 10.86 49.9 11.05 48.83 11.28 47.51 11.38 46.88 11.61 45.42 11.06 44.46 9.34 44.46L4.49 44.46C2.83 44.46 2.54 43.86 2.54 42.45L2.54 1.87C2.54 1.17 1.97 0.6 1.27 0.6 0.57 0.6 0 1.16 0 1.87L0 59.85C0 60.52 0.6 61.14 1.2 61.14L19.16 61.14C19.81 61.14 20.34 60.61 20.34 59.96 20.34 59.31 19.82 58.78 19.16 58.78L18.91 58.78ZM4.64 46.98 6.66 46.98C8.37 46.98 8.64 47.7 8.44 48.93 8.36 49.42 8.18 50.45 8.03 51.29 7.64 53.5 8.82 54.02 10.44 54.02L13.67 54.02C14.91 54.02 15.29 54.45 15.08 55.78 15.04 56.03 14.97 56.42 14.9 56.85 14.64 58.35 14.13 58.77 12.47 58.77L4.31 58.77C2.68 58.77 2.54 58.32 2.54 56.92L2.54 48.9C2.54 47.45 3.11 46.98 4.64 46.98" fill="#1E1718"/><path d="M11.8 25.78C16.96 21.24 21.16 18.69 26.85 16.03 29.32 14.87 28.74 13.54 27.85 12.87 27.07 12.29 25.95 12.89 23.81 12.23 22.27 11.76 20.95 10.72 19.95 8.98 18.4 6.28 19.16 2.7 21.53 1.09 23.92-0.53 28.27-0.68 30.35 2.99 32.66 7.08 30.01 9.05 31.1 10.86 32.03 12.41 34.23 12.49 38.19 14.72 42.64 17.23 50.35 21.6 52.24 22.65 57.08 25.33 58.07 27.75 56.67 32.89 55.7 36.48 55.14 38.09 53.69 42.72 52.49 46.55 51.98 48.69 52.07 58.13 52.11 62.05 47.39 62.19 47.23 58.17 46.78 46.63 47.94 44.69 49.35 39 50.94 32.58 53.02 29.97 49.04 27.25 45.6 24.91 39.31 21.76 34.25 19.67 32.64 19.01 30.68 18.88 26.82 20.73 21.01 23.52 17.74 26.31 14.5 29.13 11.82 31.47 9.02 28.23 11.8 25.78Z" fill="#1E1718" fill-rule="evenodd" clip-rule="evenodd"/><g><path d="M33.03 59.56C25.5 59.56 21.69 57.15 21.69 52.4 21.69 49.71 23.21 48.09 24.43 46.78 25.45 45.69 26.08 44.97 26.08 44.05 26.08 43.36 25.77 43.28 25.62 43.28 24.99 43.28 24.48 42.74 24.48 42.07 24.48 41.4 24.99 40.86 25.62 40.86 25.74 40.86 25.86 40.86 25.98 40.85 26.56 40.83 27.29 40.8 27.85 41.37 28.09 41.61 28.37 42.05 28.37 42.78L28.37 44.06C28.37 46.03 27.14 47.34 26.06 48.5 24.94 49.69 23.98 50.72 23.98 52.41 23.98 53.58 23.98 57.14 33.04 57.14 42.1 57.14 42.1 53.58 42.1 52.41 42.1 50.73 41.14 49.69 40.02 48.5 38.94 47.34 37.71 46.03 37.71 44.06L37.71 42.78C37.71 42.05 37.99 41.61 38.23 41.37 38.79 40.8 39.51 40.83 40.1 40.85 40.22 40.85 40.34 40.86 40.46 40.86 41.09 40.86 41.6 41.4 41.6 42.07 41.6 42.74 41.09 43.28 40.46 43.28 40.31 43.28 40 43.38 40 44.05 40 44.97 40.62 45.69 41.65 46.78 42.87 48.09 44.39 49.71 44.39 52.4 44.38 58.31 38.21 59.56 33.03 59.56Z" fill="#030000"/></g><g><path d="M27.2 39.26C27.05 38.89 29.3 37.6 30.42 35.8 30.97 34.91 31.84 35.91 31.28 36.8 29.94 38.96 27.37 39.68 27.2 39.26Z"/></g><g><path d="M39.71 38.42C39.89 38.13 37.15 37.1 35.77 35.67 35.09 34.96 34.04 35.75 34.72 36.46 36.37 38.18 39.5 38.76 39.71 38.42Z"/></g><g><path d="M31.87 47.86 31.87 37.7C31.87 35.73 34.29 35.73 34.29 37.7L34.29 47.86C34.3 49.9 31.87 49.9 31.87 47.86Z" fill="#030000"/></g><g><path d="M25.55 29.85C25.34 29.44 28.52 28.01 30.11 26.02 30.9 25.03 32.11 26.13 31.32 27.11 29.41 29.5 25.79 30.31 25.55 29.85Z"/></g><g><path d="M40.34 30.03C40.54 29.6 37.46 28.07 35.92 25.95 35.16 24.9 33.98 26.06 34.75 27.11 36.6 29.65 40.11 30.52 40.34 30.03Z"/></g><g><path d="M31.8 34.49 31.8 27.04C31.8 25.6 34.22 25.6 34.22 27.04L34.22 34.49C34.23 35.98 31.8 35.98 31.8 34.49Z" fill="#030000"/></g></svg>