<svg width="58.8" height="62.1" viewBox="0 0 58.8 62.1" xmlns="http://www.w3.org/2000/svg" xmlns:xlink="http://www.w3.org/1999/xlink" overflow="visible"><defs></defs><path d="M7.44 5.32C8.87 6.19 9.32 7.93 10.38 10 10.44 10.13 10.35 10.16 10.3 10.17 7.26 10.75 6.43 11.11 4.72 10.28 3.22 9.55 2.46 8.06 3.29 6.44 4.01 5 5.72 4.29 7.44 5.32Z" fill-rule="evenodd" clip-rule="evenodd"/><path d="M3.07 20.22C4.74 20.27 5.99 21.56 7.94 22.83 8.06 22.91 7.99 22.98 7.95 23.01 5.6 25.02 5.05 25.74 3.16 25.87 1.48 25.98 0.09 25.06 0 23.24-0.07 21.63 1.06 20.17 3.07 20.22Z" fill-rule="evenodd" clip-rule="evenodd"/><path d="M4.68 48.22C6 47.19 7.79 47.38 10.09 47.12 10.23 47.1 10.22 47.21 10.21 47.26 9.69 50.31 9.73 51.21 8.35 52.52 7.14 53.67 5.48 53.85 4.25 52.51 3.17 51.31 3.12 49.46 4.68 48.22Z" fill-rule="evenodd" clip-rule="evenodd"/><path d="M12.63 26.19C17.88 21.57 22.14 18.99 27.92 16.28 30.43 15.1 29.84 13.75 28.93 13.07 28.14 12.48 27 13.09 24.82 12.42 23.26 11.94 21.91 10.88 20.9 9.11 19.32 6.37 20.09 2.73 22.5 1.1 24.92-0.54 29.35-0.7 31.46 3.03 33.81 7.19 31.12 9.19 32.22 11.03 33.17 12.61 35.4 12.68 39.43 14.95 43.95 17.5 51.79 21.94 53.7 23 58.62 25.72 59.62 28.18 58.2 33.4 57.21 37.04 56.65 38.68 55.18 43.39 53.96 47.28 53.44 49.46 53.53 59.05 53.57 63.04 48.77 63.18 48.61 59.09 48.16 47.36 49.33 45.39 50.76 39.62 52.38 33.09 54.49 30.44 50.44 27.68 46.95 25.3 40.56 22.1 35.41 19.98 33.77 19.31 31.78 19.18 27.86 21.06 21.96 23.9 18.64 26.73 15.34 29.6 12.64 31.97 9.8 28.68 12.63 26.19Z" fill-rule="evenodd" clip-rule="evenodd"/><g><path d="M29.97 60.89C22.44 60.89 18.63 58.48 18.63 53.73 18.63 51.04 20.15 49.42 21.37 48.11 22.39 47.02 23.02 46.3 23.02 45.38 23.02 44.69 22.71 44.61 22.56 44.61 21.93 44.61 21.42 44.07 21.42 43.4 21.42 42.73 21.93 42.19 22.56 42.19 22.68 42.19 22.8 42.19 22.92 42.18 23.5 42.16 24.23 42.13 24.79 42.7 25.03 42.94 25.31 43.38 25.31 44.11L25.31 45.39C25.31 47.36 24.08 48.67 23 49.83 21.88 51.02 20.92 52.05 20.92 53.74 20.92 54.91 20.92 58.47 29.98 58.47 39.04 58.47 39.04 54.91 39.04 53.74 39.04 52.06 38.08 51.02 36.96 49.83 35.88 48.67 34.65 47.36 34.65 45.39L34.65 44.1C34.65 43.37 34.93 42.93 35.17 42.69 35.73 42.12 36.45 42.15 37.04 42.17 37.16 42.17 37.28 42.18 37.4 42.18 38.03 42.18 38.54 42.72 38.54 43.39 38.54 44.06 38.03 44.6 37.4 44.6 37.25 44.6 36.94 44.7 36.94 45.37 36.94 46.29 37.56 47.01 38.59 48.1 39.81 49.41 41.33 51.03 41.33 53.72 41.32 59.65 35.15 60.89 29.97 60.89Z" fill="#030000"/></g><g><path d="M24.14 40.59C23.99 40.22 26.24 38.93 27.36 37.13 27.91 36.24 28.78 37.24 28.22 38.13 26.88 40.29 24.3 41.01 24.14 40.59Z"/></g><g><path d="M36.65 39.75C36.83 39.46 34.09 38.43 32.71 37 32.03 36.29 30.98 37.08 31.66 37.79 33.31 39.51 36.44 40.09 36.65 39.75Z"/></g><g><path d="M28.81 49.19 28.81 39.03C28.81 37.06 31.23 37.06 31.23 39.03L31.23 49.19C31.24 51.23 28.81 51.23 28.81 49.19Z" fill="#030000"/></g><g><path d="M22.49 31.18C22.28 30.77 25.46 29.34 27.05 27.35 27.84 26.36 29.05 27.46 28.26 28.44 26.35 30.83 22.73 31.64 22.49 31.18Z"/></g><g><path d="M37.28 31.36C37.48 30.93 34.4 29.4 32.86 27.28 32.1 26.23 30.92 27.39 31.69 28.44 33.54 30.98 37.05 31.85 37.28 31.36Z"/></g><g><path d="M28.74 35.82 28.74 28.37C28.74 26.93 31.16 26.93 31.16 28.37L31.16 35.82C31.17 37.32 28.74 37.32 28.74 35.82Z" fill="#030000"/></g></svg>