<svg width="58.54" height="60.28" viewBox="0 0 58.54 60.28" xmlns="http://www.w3.org/2000/svg" xmlns:xlink="http://www.w3.org/1999/xlink" overflow="visible"><defs></defs><path d="M54.82 4.66C50.48 7.83 45.22 9.34 39.82 9.34 34.43 9.34 29.24 7.72 24.83 4.66 22.39 2.98 19.92 6.32 22.45 8.08 27.57 11.63 33.57 13.5 39.82 13.5 43.36 13.5 43.44 14.42 42.23 16.76 40.18 20.71 39.44 22.44 38.11 26.49 37.55 28.21 37.06 28.46 35.31 29.31 32.64 30.61 30.52 33.22 29.8 35.86 29.65 36.4 29.97 36.95 30.51 37.1 31.05 37.25 31.6 36.93 31.75 36.39 32.09 35.13 32.85 33.85 33.86 32.8 36.21 30.38 36.83 31.83 36.58 34.19 35.87 40.94 38.72 47.47 45.48 48.04 47.01 48.17 47.18 46.17 45.65 46.03 40.2 45.52 38.04 40.81 38.36 34.29 38.49 31.68 39.39 29.97 42.66 31.35 47.34 33.32 51.14 37.73 51.19 37.79 51.56 38.21 52.19 38.26 52.61 37.9 53.03 37.54 53.08 36.9 52.72 36.48 52.6 36.34 51.25 34.77 49.16 33.06 47.24 31.48 44.69 29.78 41.89 28.94 40.58 28.54 39.66 28.9 40.45 26.06 40.93 24.32 42.07 20.67 45.13 15.88 47.34 12.42 48.27 12.64 52.4 10.78 54.07 10.03 55.67 9.13 57.19 8.07 60.15 6.02 57.75 2.52 54.82 4.66Z"/><path d="M16.75 45.22 4.61 38.21C3.86 37.78 3.39 36.97 3.39 36.1L3.39 36.1C3.39 35.23 3.85 34.43 4.61 33.99L16.75 26.98C18.27 26.1 19.37 24.57 19.51 22.82 19.67 20.79 18.68 18.94 16.95 17.94L4.75 10.9C3.91 10.41 3.39 9.51 3.39 8.54L3.39 1.7C3.39 0.76 2.63 0 1.7 0 0.76 0 0 0.76 0 1.7L0 8.16 0 54.92C0 56.63 0.74 58.32 2.14 59.31 3.06 59.96 4.11 60.29 5.15 60.29 6.03 60.29 6.92 60.06 7.73 59.59L16.95 54.27C18.68 53.27 19.67 51.42 19.51 49.39 19.37 47.63 18.27 46.09 16.75 45.22ZM15.25 20.88C16.05 21.34 16.13 22.1 16.13 22.4 16.13 22.71 16.04 23.47 15.25 23.93L5.23 29.72C4.41 30.19 3.39 29.6 3.39 28.66L3.39 16.15C3.39 15.21 4.41 14.62 5.23 15.09L15.25 20.88ZM15.25 51.32 6.03 56.64C5.23 57.1 4.53 56.79 4.27 56.64 4.01 56.49 3.39 56.03 3.39 55.11L3.39 43.54C3.39 42.6 4.41 42.01 5.23 42.48L15.26 48.27C16.06 48.73 16.14 49.49 16.14 49.8 16.13 50.1 16.05 50.86 15.25 51.32Z"/></svg>