<svg width="57.88" height="65.44" viewBox="0 0 57.88 65.44" xmlns="http://www.w3.org/2000/svg" xmlns:xlink="http://www.w3.org/1999/xlink" overflow="visible"><defs></defs><path d="M56.76 12.44 34.22 12.44C32.28 12.44 29.35 12.44 29.35 17.3 29.35 19.73 28.17 19.96 26.12 19.96 23.56 19.96 13.87 19.96 13.87 19.96 12.47 19.96 12.24 18.96 12.21 18.44 12.24 16.39 12.81 15.2 13.89 13.95 15.35 12.25 19.85 7.25 19.85 7.25 20.23 6.82 20.59 5.22 20.73 4.49 20.77 4.27 20.64 4.17 20.4 4.25 19.68 4.49 18.19 5.02 17.81 5.44 17.81 5.44 14.85 8.85 12.88 11.03 12.23 11.74 11.71 11.76 11.7 10.67 11.69 7.86 11.73 2.79 11.73 2.79 11.73 2.21 10.94 0.78 10.56 0.14 10.44-0.06 10.29-0.04 10.16 0.18 9.78 0.84 9.01 2.22 9.01 2.78 9.01 2.78 9.05 7.72 9.02 10.62 9.01 11.52 8.55 11.72 7.94 11.03 6 8.86 2.96 5.43 2.96 5.43 2.57 4.99 0.93 4.43 0.25 4.21 0.07 4.15-0.03 4.22 0.01 4.38 0.15 5.05 0.54 6.79 0.94 7.24 0.94 7.24 5.49 12.25 6.93 13.98 8.28 15.6 8.58 16.5 8.58 18.46 8.58 19 8.58 63.41 8.58 63.41 8.58 66.12 12.2 66.12 12.2 63.41 12.2 63.41 12.2 38.99 12.2 29.95 12.2 28.18 13.87 28.28 13.87 28.28L13.87 28.28C13.87 28.28 27.39 28.28 30.95 28.28 33.85 28.28 35.21 27 35.21 23.77 35.21 20.72 36.36 20.72 38.27 20.72L42.61 20.72C43.97 20.72 44.05 18.91 42.57 18.91L38.27 18.91C36.33 18.91 33.4 18.91 33.4 23.77 33.4 25.77 32.59 26.47 30.87 26.47 30.87 26.47 28.48 26.47 27.92 26.47 26.98 26.47 26.85 26.34 26.85 25.54 26.85 24.81 26.85 23.45 26.85 22.73 26.85 22.1 26.91 21.74 27.77 21.7 29.77 21.61 31.16 20.5 31.16 17.31 31.16 14.76 31.81 14.26 34.21 14.26L56.74 14.26C58.31 14.25 58.19 12.44 56.76 12.44ZM25.19 25.32C25.19 26.33 25.21 26.46 24.08 26.46 22.03 26.46 13.6 26.46 13.6 26.46 12.6 26.46 12.21 26.11 12.21 25.29L12.21 23.11C12.21 22.15 12.54 21.76 13.46 21.76 15.6 21.76 21.99 21.77 24.03 21.77 25.1 21.77 25.2 21.86 25.2 22.94 25.19 23.54 25.19 24.73 25.19 25.32Z"/><path d="M51.02 50.2C51.12 51.38 50.63 52 49.93 52.08 49.71 52.1 49.27 52.13 49.24 51.61 49.2 50.77 49.06 48.25 49.06 48.25 48.95 46.25 46.17 46.39 46.28 48.4 46.28 48.4 46.41 50.91 46.46 51.74 46.48 52.13 46.39 52.44 45.76 52.47 45.55 52.48 45.12 52.5 44.91 52.52 44.35 52.55 44.23 52.29 44.21 51.9 44.19 51.41 44.11 49.96 44.11 49.96 44.01 48 41.23 48.15 41.33 50.11 41.33 50.11 41.63 55.38 41.78 58.4 41.86 60.04 40.79 59.9 40.31 59.3 39.5 58.3 38.89 56.88 38.78 54.9 38.58 51.21 38.39 44.05 38.52 40.09 38.62 37.07 36.81 34.98 33.81 34.47 32.88 34.31 24.08 33.42 23.58 33.42 21.14 33.43 21.41 35.73 22.87 36.07 24.04 36.34 32.64 37.02 33.41 37.2 35 37.58 35.78 38.38 35.77 40 35.75 43.43 35.91 52.88 36.03 55.06 36.54 64.41 44.13 64.52 46.04 64.53 48.97 64.55 49.85 62.57 49.74 60.41 49.74 60.41 49.73 60.26 49.65 58.72 49.6 57.87 50.28 57.72 50.65 57.7 52.2 57.62 53.32 56.29 53.3 54.74 53.29 53.87 52.91 53.48 53.47 52.09 53.72 51.46 53.86 50.77 53.82 50.05 53.68 47.9 50.84 48.06 51.02 50.2ZM46.69 56.08C46.77 57.61 46.93 60.55 46.93 60.55 47.02 62.2 44.76 62.32 44.67 60.67 44.67 60.67 44.51 57.73 44.43 56.18 44.41 55.87 44.49 55.32 45.28 55.28 45.39 55.27 45.6 55.26 45.71 55.26 46.48 55.21 46.66 55.54 46.69 56.08Z" fill="#030000"/></svg>