<svg width="61.4" height="65.44" viewBox="0 0 61.4 65.44" xmlns="http://www.w3.org/2000/svg" xmlns:xlink="http://www.w3.org/1999/xlink" overflow="visible"><defs></defs><path d="M60.28 12.44 39.74 12.44C37.8 12.44 34.87 12.44 34.87 17.3 34.87 19.73 33.69 19.96 31.64 19.96 29.08 19.96 21.39 19.96 21.39 19.96 19.99 19.96 19.76 18.96 19.73 18.44 19.76 16.39 20.33 15.2 21.4 13.95 22.86 12.25 27.36 7.25 27.36 7.25 27.74 6.82 28.1 5.22 28.24 4.49 28.28 4.27 28.15 4.17 27.91 4.25 27.19 4.49 25.7 5.02 25.33 5.44 25.33 5.44 22.37 8.85 20.4 11.03 19.75 11.74 19.23 11.76 19.22 10.67 19.21 7.86 19.25 2.79 19.25 2.79 19.25 2.21 18.46 0.78 18.08 0.14 17.96-0.06 17.81-0.04 17.68 0.18 17.3 0.84 16.53 2.22 16.53 2.78 16.53 2.78 16.57 7.72 16.54 10.62 16.53 11.52 16.07 11.72 15.46 11.03 13.52 8.86 10.48 5.43 10.48 5.43 10.09 4.99 8.44 4.42 7.76 4.2 7.59 4.15 7.49 4.22 7.52 4.38 7.66 5.05 8.05 6.79 8.45 7.24 8.45 7.24 13 12.25 14.45 13.98 15.8 15.6 16.1 16.5 16.1 18.46 16.1 19 16.1 63.41 16.1 63.41 16.1 66.12 19.72 66.12 19.72 63.41 19.72 63.41 19.72 38.99 19.72 29.95 19.72 28.18 21.39 28.28 21.39 28.28L21.39 28.28C21.39 28.28 32.91 28.28 36.47 28.28 39.37 28.28 40.73 27 40.73 23.77 40.73 20.72 41.88 20.72 43.79 20.72L50.13 20.72C51.49 20.72 51.57 18.91 50.09 18.91L43.79 18.91C41.85 18.91 38.92 18.91 38.92 23.77 38.92 25.77 38.11 26.47 36.39 26.47 36.39 26.47 34 26.47 33.44 26.47 32.5 26.47 32.37 26.34 32.37 25.54 32.37 24.81 32.37 23.45 32.37 22.73 32.37 22.1 32.43 21.74 33.29 21.7 35.29 21.61 36.68 20.5 36.68 17.31 36.68 14.76 37.33 14.26 39.73 14.26L60.26 14.26C61.83 14.25 61.71 12.44 60.28 12.44ZM30.71 25.32C30.71 26.33 30.73 26.46 29.6 26.46 27.55 26.46 21.12 26.46 21.12 26.46 20.12 26.46 19.73 26.11 19.73 25.29L19.73 23.11C19.73 22.15 20.06 21.76 20.98 21.76 23.12 21.76 27.51 21.77 29.55 21.77 30.62 21.77 30.72 21.86 30.72 22.94 30.71 23.54 30.71 24.73 30.71 25.32Z"/><path d="M58.21 46.01C54.11 47.36 50.01 47.32 46.63 46.23 45.21 45.78 45.62 44.35 46.6 44.09 48.95 43.46 52.04 40.83 52.13 37.64 52.25 33.5 50.14 29.62 44.68 29.41 39.68 29.22 36.81 32.81 37.05 36.86 37.29 41.06 39.92 42.99 42.3 43.89 43.37 44.29 43.56 45.92 42.08 45.87 37.78 45.74 31.76 46.36 28.45 47.38 26.24 48.06 26.49 51.08 29.53 50.46 33.14 49.73 35.99 49.3 39.91 49.85 40.97 50 41.9 50.91 41.89 52.46 41.87 55.64 41.16 58.45 40.24 61.37 39.09 65 42.36 66.7 44.4 63.6 45.77 61.51 46.74 56.03 46.87 52.4 46.95 50.26 48.38 50.35 49.26 50.38 51.2 50.44 55.33 50.8 59.7 48.99 62.11 47.98 61.59 44.9 58.21 46.01ZM42.57 41.91C39.98 40.9 38.96 38.42 39.11 36.12 39.3 33.13 41.98 31.22 44.67 31.27 47.35 31.31 50.11 33.37 50.09 36.8 50.08 39.13 48.95 40.74 47.14 41.67 45.64 42.45 43.95 42.45 42.57 41.91Z" fill-rule="evenodd" clip-rule="evenodd"/><path d="M44.65 36.56C44.26 36.56 43.94 36.66 43.94 37.69 43.94 39.01 44.19 39.18 44.67 39.18 45.19 39.18 45.34 38.98 45.34 37.69 45.33 36.64 45.09 36.56 44.65 36.56Z" fill="#030000" fill-rule="evenodd" clip-rule="evenodd"/><path d="M41.78 36.48C41.78 36.92 41.42 37.28 40.98 37.28 40.54 37.28 40.18 36.92 40.18 36.48 40.18 36.04 40.54 35.68 40.98 35.68 41.42 35.68 41.78 36.03 41.78 36.48Z" fill-rule="evenodd" clip-rule="evenodd"/><path d="M49.02 36.48C49.02 36.92 48.66 37.28 48.22 37.28 47.78 37.28 47.42 36.92 47.42 36.48 47.42 36.04 47.78 35.68 48.22 35.68 48.66 35.68 49.02 36.03 49.02 36.48Z" fill-rule="evenodd" clip-rule="evenodd"/><path d="M3.75 21.24C5.37 21.99 6.14 21.64 8.97 21.05 9.01 21.04 9.11 21.01 9.05 20.89 8.02 18.97 7.58 17.35 6.22 16.55 4.59 15.61 3.01 16.3 2.34 17.66 1.6 19.2 2.33 20.58 3.75 21.24Z" fill-rule="evenodd" clip-rule="evenodd"/><path d="M7.44 32.81C7.48 32.78 7.55 32.72 7.44 32.64 5.65 31.41 4.51 30.16 2.94 30.08 1.07 29.98-0.03 31.31 0 32.83 0.04 34.54 1.32 35.43 2.88 35.37 4.66 35.3 5.19 34.63 7.44 32.81Z" fill-rule="evenodd" clip-rule="evenodd"/><path d="M3.11 57.49C4.55 56.36 6.51 56.57 9.03 56.28 9.19 56.26 9.17 56.37 9.17 56.43 8.6 59.77 8.65 60.76 7.13 62.19 5.8 63.45 3.99 63.65 2.64 62.18 1.45 60.87 1.39 58.85 3.11 57.49Z" fill-rule="evenodd" clip-rule="evenodd"/></svg>