<svg width="51.67" height="62.69" viewBox="0 0 51.67 62.69" xmlns="http://www.w3.org/2000/svg" xmlns:xlink="http://www.w3.org/1999/xlink" overflow="visible"><defs></defs><path d="M35.26 28.6C33.71 28.6 30.54 28.6 28.97 28.6 28.08 28.6 27.71 28.29 27.71 27.48 27.71 27.14 27.71 26.95 27.71 26.95 27.71 26.3 27.8 25.59 28.98 25.59 30.41 25.59 34.7 25.59 34.7 25.59 36.11 25.59 37.47 24.45 37.47 23.04 37.47 21.63 36.33 20.49 34.93 20.49 34.93 20.49 30.38 20.49 28.86 20.49 27.94 20.49 27.7 20 27.7 19.33 27.7 18.87 27.7 17.51 27.7 17.51 27.7 16.51 26.89 15.69 25.88 15.69 24.88 15.69 24.06 16.5 24.06 17.51 24.06 17.51 24.06 18.88 24.06 19.33 24.06 20.15 23.92 20.49 22.91 20.49 21.39 20.49 16.83 20.49 16.83 20.49 15.43 20.49 14.28 21.63 14.28 23.04 14.28 24.45 15.42 25.59 16.83 25.59 16.83 25.59 21.26 25.59 22.74 25.59 23.92 25.59 24.06 26.32 24.06 26.98 24.06 26.98 24.06 27.32 24.06 27.44 24.06 28.12 23.76 28.61 22.86 28.61 20.4 28.61 18.12 28.61 16.44 28.61 13.17 28.61 12.09 29.07 12.09 32.61 12.09 35.87 12.09 42.38 12.09 45.64 12.09 49.42 13.22 49.73 16.4 49.73 18.06 49.73 21.24 49.73 22.85 49.73 23.66 49.73 24.06 50.1 24.06 50.9 24.06 51.15 24.06 51.9 24.06 51.9 24.06 52.47 23.77 52.89 23.09 52.89 21.52 52.89 16.83 52.89 16.83 52.89 15.43 52.89 14.28 54.03 14.28 55.44 14.28 56.84 15.42 57.99 16.83 57.99 16.83 57.99 21.46 57.99 23.01 57.99 23.59 57.99 24.06 58.33 24.06 59.03 24.06 59.5 24.06 60.89 24.06 60.89 24.06 61.89 24.87 62.71 25.88 62.71 26.89 62.71 27.7 61.9 27.7 60.89 27.7 60.89 27.7 59.5 27.7 59.03 27.7 58.37 28.18 57.99 28.84 57.99 30.36 57.99 34.93 57.99 34.93 57.99 36.34 57.99 37.47 56.85 37.47 55.44 37.47 54.03 36.33 52.89 34.93 52.89 34.93 52.89 30.26 52.89 28.71 52.89 28.32 52.89 27.71 52.8 27.71 51.89 27.71 51.89 27.71 51.15 27.71 50.9 27.71 50.16 28.02 49.73 28.91 49.73 30.49 49.73 33.74 49.73 35.23 49.73 38.08 49.73 39.71 49.14 39.71 45.64 39.71 42.39 39.71 35.9 39.71 32.65 39.69 29.81 39.63 28.6 35.26 28.6ZM16.54 33.71C18.23 33.71 20.3 33.71 22.76 33.71 23.92 33.71 24.06 34.34 24.06 35.09 24.06 36.21 23.77 36.6 22.72 36.6 20.28 36.6 18.23 36.6 16.57 36.6 15.37 36.6 15.15 36.43 15.15 35.15 15.15 33.9 15.4 33.71 16.54 33.71ZM22.39 44.61C19.93 44.61 18.13 44.61 16.72 44.61 15.43 44.61 15.15 44.37 15.15 43.12 15.15 41.93 15.37 41.71 16.7 41.71 18.11 41.71 19.91 41.71 22.38 41.71 23.75 41.71 24.07 42 24.07 43.14 24.06 44.14 23.91 44.61 22.39 44.61ZM35.18 44.61C33.82 44.61 31.73 44.61 29.4 44.61 28 44.61 27.73 44.3 27.72 43.09 27.72 42 28.19 41.71 29.32 41.71 31.65 41.71 33.73 41.71 35.09 41.71 36.5 41.71 36.69 42 36.69 43.22 36.69 44.4 36.39 44.61 35.18 44.61ZM36.69 35.21C36.69 36.38 36.53 36.6 35.28 36.6 33.73 36.6 31.66 36.6 29.42 36.6 28.19 36.6 27.72 36.49 27.72 35.17 27.72 33.79 27.98 33.7 29.3 33.7 31.59 33.7 33.71 33.7 35.29 33.7 36.92 33.71 36.69 34.39 36.69 35.21Z" fill="#030000"/><path d="M47.57 7.31C45.51 3.78 41.13 1.48 34.58 0.48 30.34-0.16 21.34-0.16 17.1 0.49 10.54 1.49 6.17 3.79 4.11 7.32-0.19 14.69 0.11 23.91 0.01 26.76-0.03 27.93 0.95 28.96 2.13 28.96 3.27 28.96 4.21 28.06 4.25 26.91 4.52 19.48 4.59 14.92 7.77 9.46 10.08 5.51 18.63 3.92 27.07 4.14 34.42 4.33 41.76 5.79 43.9 9.45 47.09 14.91 47.16 19.47 47.42 26.9 47.46 28.05 48.4 28.95 49.54 28.95 50.86 28.95 51.71 27.92 51.66 26.75 51.56 23.9 51.87 14.68 47.57 7.31Z" fill="#030000"/></svg>