<svg width="47.28" height="61.96" viewBox="0 0 47.28 61.96" xmlns="http://www.w3.org/2000/svg" xmlns:xlink="http://www.w3.org/1999/xlink" overflow="visible"><defs></defs><path d="M1.39 26.01C6.56 21.37 10.85 18.84 16.6 16.16 19.1 14.99 18.51 13.64 17.61 12.97 16.82 12.38 16.48 13.05 13.52 12.32 11.94 11.94 10.63 10.79 9.62 9.03 8.06 6.3 8.92 2.56 11.67 0.91 14.48-0.78 18.49-0.11 20.19 2.96 22.49 7.11 19.8 9.1 20.9 10.93 21.99 12.76 23.94 13.1 26.98 14.63 28.8 15.54 40.86 21.6 41.19 21.76 46.88 24.51 48.11 28.83 46.82 33.15 45.8 36.58 44.97 39.15 43.2 43.89 41.78 47.69 42.04 49.77 42.08 58.94 42.1 62.9 37.31 62.97 37.21 58.98 36.89 47.05 37.36 45.74 39.14 40.11 41.22 33.55 43.05 30.22 39.02 27.47 35.55 25.1 29.19 21.92 24.07 19.81 22.44 19.14 20.46 19.01 16.57 20.88 10.7 23.7 7.1 26.77 3.83 29.63 1.11 32.01-1.79 28.87 1.39 26.01Z" fill="#1E1718" fill-rule="evenodd" clip-rule="evenodd"/><g><path d="M18.66 61.12C9.62 61.12 5.04 58.4 5.04 53.04 5.04 50.01 6.87 48.17 8.33 46.7 9.55 45.47 10.31 44.66 10.31 43.62 10.31 42.84 9.94 42.75 9.76 42.75 9 42.75 8.39 42.14 8.39 41.38 8.39 40.62 9 40.01 9.76 40.01 9.91 40.01 10.05 40.01 10.19 40 10.89 39.97 11.76 39.94 12.43 40.59 12.71 40.86 13.05 41.36 13.05 42.18L13.05 43.62C13.05 45.84 11.58 47.33 10.28 48.63 8.94 49.98 7.78 51.14 7.78 53.04 7.78 54.36 7.78 58.38 18.66 58.38 29.54 58.38 29.54 54.36 29.54 53.04 29.54 51.14 28.38 49.98 27.04 48.63 25.74 47.32 24.27 45.84 24.27 43.62L24.27 42.18C24.27 41.36 24.61 40.86 24.89 40.59 25.56 39.95 26.43 39.98 27.13 40 27.27 40.01 27.41 40.01 27.56 40.01 28.32 40.01 28.93 40.62 28.93 41.38 28.93 42.14 28.32 42.75 27.56 42.75 27.38 42.75 27.01 42.87 27.01 43.62 27.01 44.66 27.76 45.47 28.98 46.7 30.45 48.18 32.27 50.01 32.27 53.04 32.28 59.72 24.88 61.12 18.66 61.12Z" fill="#1E1718"/></g><g><path d="M11.39 38.54C11.2 38.16 14.12 36.83 15.58 34.97 16.3 34.05 17.43 35.08 16.7 36 14.95 38.23 11.61 38.97 11.39 38.54Z"/></g><g><path d="M27.63 37.67C27.86 37.37 24.3 36.31 22.52 34.83 21.64 34.1 20.27 34.92 21.16 35.65 23.29 37.42 27.36 38.02 27.63 37.67Z"/></g><g><path d="M17.46 47.42 17.46 36.93C17.46 34.9 20.61 34.9 20.61 36.93L20.61 47.42C20.61 49.52 17.46 49.52 17.46 47.42Z" fill="#030000"/></g><g><path d="M9.26 28.82C8.99 28.4 13.11 26.92 15.18 24.86 16.2 23.84 17.78 24.97 16.75 25.99 14.27 28.46 9.57 29.3 9.26 28.82Z"/></g><g><path d="M28.45 29.01C28.71 28.56 24.72 26.99 22.71 24.8 21.72 23.71 20.2 24.91 21.19 25.99 23.6 28.61 28.16 29.51 28.45 29.01Z"/></g><g><path d="M17.37 33.61 17.37 25.92C17.37 24.43 20.52 24.43 20.52 25.92L20.52 33.61C20.52 35.16 17.37 35.16 17.37 33.61Z" fill="#030000"/></g></svg>