<svg width="61.77" height="54.11" viewBox="0 0 61.77 54.11" xmlns="http://www.w3.org/2000/svg" xmlns:xlink="http://www.w3.org/1999/xlink" overflow="visible"><defs></defs><path d="M37.58 15.48C37.58 15.48 36.46 15.66 36.08 15.72 34.65 15.95 34.28 15.57 34.28 14.05 34.28 13.84 34.28 13.23 34.28 13.23 34.28 12.53 33.71 11.96 33.01 11.96 32.31 11.96 31.74 12.53 31.74 13.23 31.74 13.23 31.74 13.88 31.74 14.09 31.74 16.01 31.18 16.46 28.44 16.9 23.71 17.65 17.6 17.63 13.07 16.92 9.9 16.42 9.64 15.58 9.64 14.13 9.64 13.9 9.64 13.23 9.64 13.23 9.64 12.53 9.07 11.96 8.37 11.96 7.67 11.96 7.1 12.53 7.1 13.23 7.1 13.23 7.1 13.94 7.1 14.17 7.1 15.63 6.84 15.88 5.05 15.6 4.73 15.55 3.77 15.4 3.77 15.4 3.08 15.29 2.43 15.76 2.32 16.46 2.21 17.15 2.68 17.8 3.37 17.91 3.37 17.91 4.27 18.05 4.57 18.1 6.79 18.45 7.1 19.21 7.1 21.12 7.1 22.72 7.1 30.25 7.1 30.25 7.1 35.08 8.34 41.51 19.05 41.51L22.33 41.51C33.04 41.51 34.28 35.08 34.28 30.25 34.28 30.25 34.28 22.31 34.28 20.57 34.28 19.3 34.94 18.49 36.39 18.25 36.79 18.19 37.97 18 37.97 18 38.66 17.89 39.13 17.24 39.02 16.55 38.92 15.84 38.27 15.37 37.58 15.48ZM12.67 19.42C17.21 20.14 24.14 20.15 28.88 19.4 30.59 19.13 31.74 19.69 31.74 21.55 31.74 23.7 31.72 23.89 29.41 24.26 24.69 25.01 16.56 24.98 12.03 24.26 9.7 23.89 9.64 23.17 9.64 21.67 9.64 19.62 10.87 19.14 12.67 19.42ZM29.58 36.82C28.18 38.19 26.05 39 22.37 39L19.09 39C15.51 39 13.24 38.12 11.82 36.82 10.73 35.82 10.34 33.86 12.01 34.07 18.51 34.91 22.93 34.91 29.39 34.07 31.06 33.86 30.67 35.82 29.58 36.82ZM31.74 28.8C31.74 30.24 31.78 31.14 30.51 31.35 24.14 32.4 17.11 32.3 10.97 31.36 9.45 31.13 9.64 29.43 9.64 28.8 9.64 27.36 9.9 26.5 11.67 26.78 16.19 27.5 25.03 27.53 29.85 26.77 31.94 26.43 31.74 27.6 31.74 28.8Z" fill="#020303"/><g><path d="M57.01 21.07C57.59 21.07 58.07 20.6 58.07 20.01 58.07 19.42 57.6 18.95 57.01 18.95L52.25 18.95C51.67 18.95 51.19 19.42 51.19 20.01 51.19 20.59 51.66 21.07 52.25 21.07L57.01 21.07Z" fill="#030000"/><path d="M44.67 0C42.57 0 40.51 0.38 38.55 1.13 38.14 1.29 37.87 1.67 37.87 2.11 37.87 2.55 38.13 2.94 38.54 3.1 44.3 5.4 48.03 10.9 48.03 17.1 48.03 23.3 44.31 28.8 38.54 31.1 38.16 31.25 37.88 31.61 37.89 32.02 37.91 32.89 40.15 33.2 43.14 30.94 47.44 27.69 50.14 22.68 50.14 17.1 50.14 11.91 47.85 7.15 44.03 3.95 43 3.09 42.92 2.12 44.67 2.12 51.78 2.12 57.74 7.1 59.27 13.76L54.78 13.76C54.2 13.76 53.72 14.23 53.72 14.82 53.72 15.4 54.19 15.88 54.78 15.88L59.54 15.88C59.56 15.88 59.58 15.88 59.59 15.88 59.62 16.29 59.65 16.7 59.65 17.12 59.65 23.8 55.19 29.3 49.19 31.38 47.95 31.81 49.13 33.9 52.23 32.44 57.93 29.76 61.76 23.83 61.76 17.12 61.77 7.67 54.1 0 44.67 0Z" fill="#030000"/></g><path d="M0 45.52C0 46.8 0.23 47.3 1.1 47.3 1.1 47.3 4.67 47.3 5.46 47.3 7.96 47.3 8.17 48.05 8.17 50.16 8.17 50.59 8.17 52.05 8.17 52.05 8.17 54.7 11.33 54.85 11.33 52.05 11.33 52.05 11.33 50.57 11.33 50.13 11.33 47.63 11.6 47.3 13.87 47.3 16.25 47.3 22.85 47.3 26.63 47.3 29.2 47.3 29.25 48.14 29.25 50 29.25 50.47 29.3 52.16 29.3 52.16 29.3 54.76 32.46 54.75 32.46 52.16 32.46 52.16 32.41 50.49 32.41 50.02 32.41 47.82 32.52 47.29 35.03 47.29 35.81 47.29 39.82 47.29 39.82 47.29 40.7 47.29 40.77 46.55 40.77 45.63 40.77 44.71 40.7 43.96 39.82 43.96L1.1 43.96C0.23 43.97 0 44.19 0 45.52Z" fill="#030000"/></svg>