<svg version="1.1" width="56.42" height="58.25" viewBox="0 0 56.42 58.25" xmlns="http://www.w3.org/2000/svg" xmlns:xlink="http://www.w3.org/1999/xlink" overflow="visible"><defs></defs><path d=" M 35.8 53.2 C 40.53 49.57 40.24 41.98 40.23 41.9 C 40.16 40.15 42.44 40.04 42.53 41.79 C 42.55 42.15 42.89 50.65 37.19 55.02 C 35.88 56.06 34.42 54.24 35.8 53.2 Z"/><path d=" M 42.97 54.67 C 42.08 53.28 43.98 51.97 44.91 53.44 C 46.3 55.64 52.04 57.3 53.26 52.9 C 53.73 51.22 53.26 49.92 52.52 48.52 C 50.68 45.07 50.92 40.55 54.53 37.86 C 55.78 36.91 57.21 38.73 55.91 39.7 C 53.63 41.41 53.19 44.74 54.63 47.58 C 55.43 49.16 56.18 51.03 55.49 53.52 C 53.71 59.9 45.46 58.61 42.97 54.67 Z"/><path d=" M 0.86 53.81 C 0.17 51.32 0.97 49.38 1.72 47.87 C 3.92 43.46 1.34 40.66 0.43 39.99 C -0.7 39.15 0.57 37.18 1.81 38.15 C 5.05 40.69 5.79 44.88 3.82 48.81 C 3.07 50.29 2.61 51.52 3.08 53.19 C 4.35 57.74 10.16 55.73 11.43 53.72 C 12.27 52.38 14.18 53.69 13.37 54.95 C 10.65 59.25 2.54 59.83 0.86 53.81 Z"/><path d=" M 16.86 53.01 C 16.63 51.64 15.89 50.5 15.11 49.28 C 13.59 46.93 11.87 44.28 12.99 39.33 C 13.36 37.7 15.64 38.06 15.23 39.84 C 14.32 43.85 15.64 45.88 17.04 48.03 C 17.92 49.39 18.83 50.79 19.14 52.64 C 19.44 54.51 17.17 54.88 16.86 53.01 Z"/><path d=" M 28.12 41.89 C 22.29 41.89 20.55 39.18 19.11 34.63 C 18.63 33.13 18.06 32.11 18.81 31.01 C 19.48 30.03 20.78 29.86 21.69 29.76 C 22.75 29.64 23.68 28.31 25.69 28.35 C 26.77 28.37 27.48 28.89 27.95 29.24 C 28 29.28 28.22 29.28 28.28 29.24 C 28.75 28.88 29.46 28.38 30.54 28.35 C 32.67 28.29 33.39 29.48 34.61 29.77 C 35.53 29.99 36.85 30.18 37.49 31.24 C 38.18 32.38 37.34 33.94 36.88 35.24 C 35.47 39.26 33.94 41.89 28.12 41.89 Z M 24 31.2 C 23.41 31.57 22.71 31.93 21.85 31.99 C 20.65 32.08 20.81 33.23 21.25 34.61 C 22.62 38.96 24.6 39.65 28.12 39.65 C 31.64 39.65 33.42 38.99 34.77 35.15 C 35.27 33.74 35.73 32.18 34.31 31.99 C 33.53 31.88 32.88 31.53 32.31 31.22 C 31.71 30.89 30.75 30.25 29.62 31.03 C 28.49 31.81 27.69 31.78 26.59 31.03 C 26.02 30.62 25.11 30.5 24 31.2 Z" fill="#030000"/><path d=" M 29.97 36.27 L 26.53 36.27 C 24.83 36.27 24.83 34.04 26.53 34.04 L 29.97 34.04 C 31.58 34.03 31.58 36.27 29.97 36.27 Z"/><path d=" M 46.21 0.41 C 45.8 -0.08 45.08 -0.14 44.6 0.27 C 44.6 0.27 34.08 9.14 30.53 12.04 C 29.82 12.62 29.25 12.45 29.25 11.44 L 29.25 5.24 C 29.25 4.61 28.74 4.09 28.1 4.09 C 27.47 4.09 26.95 4.6 26.95 5.24 L 26.95 13.64 C 26.95 14.07 26.6 14.42 26.17 14.42 L 14.09 14.42 C 13.46 14.42 12.94 14.93 12.94 15.57 C 12.94 16.2 13.45 16.72 14.09 16.72 C 14.09 16.72 20.62 16.72 22.8 16.72 C 24.04 16.72 24.27 17.28 23.3 18.1 C 20.03 20.87 10.13 29.1 10.13 29.1 C 9.64 29.51 9.58 30.23 9.99 30.71 C 10.22 30.98 10.54 31.12 10.87 31.12 C 11.13 31.12 11.39 31.03 11.61 30.85 C 11.61 30.85 22 22.13 25.68 19.08 C 26.39 18.49 26.96 18.56 26.96 19.68 L 26.96 25.88 C 26.96 26.51 27.47 27.03 28.11 27.03 C 28.74 27.03 29.26 26.52 29.26 25.88 L 29.26 17.48 C 29.26 17.05 29.61 16.7 30.04 16.7 L 42.12 16.7 C 42.75 16.7 43.27 16.19 43.27 15.55 C 43.27 14.92 42.76 14.4 42.12 14.4 L 33.4 14.4 C 32.15 14.4 32.01 13.78 32.9 13.02 C 36.18 10.21 46.07 2 46.07 2 C 46.55 1.62 46.62 0.9 46.21 0.41 Z"/><path d=" M 35.1 21.19 C 34.66 20.73 33.94 20.72 33.48 21.16 C 33.02 21.6 33.01 22.32 33.45 22.78 L 34.75 24.13 C 34.98 24.36 35.28 24.48 35.58 24.48 C 35.87 24.48 36.15 24.37 36.37 24.16 C 36.83 23.72 36.84 23 36.4 22.54 L 35.1 21.19 Z"/><path d=" M 25.02 24.67 C 25.28 24.1 25.03 23.41 24.46 23.15 C 23.89 22.89 23.2 23.14 22.94 23.71 L 22.16 25.41 C 22.02 25.7 22.02 26.03 22.13 26.31 C 22.23 26.58 22.44 26.8 22.72 26.93 C 23.29 27.2 23.98 26.94 24.24 26.37 L 25.02 24.67 Z"/><path d=" M 31.44 56.24 C 27.84 55.97 24.05 51.59 24.75 45.32 C 24.94 43.65 27.12 43.86 26.97 45.55 C 26.48 50.81 30.08 53.81 31.63 53.94 C 33.19 54.08 32.8 56.35 31.44 56.24 Z"/></svg>