<svg version="1.1" width="45.54" height="58.85" viewBox="0 0 45.54 58.85" xmlns="http://www.w3.org/2000/svg" xmlns:xlink="http://www.w3.org/1999/xlink" overflow="visible"><defs></defs><path d=" M 44.29 36.71 C 43.31 38.12 41.7 38.96 39.98 38.96 C 38.26 38.96 36.66 38.13 35.68 36.73 C 34.69 35.32 33.08 34.49 31.38 34.49 C 29.67 34.49 28.06 35.33 27.08 36.74 C 26.1 38.14 24.49 38.97 22.77 38.97 C 21.06 38.97 19.45 38.13 18.47 36.73 C 17.5 35.33 15.89 34.49 14.17 34.49 C 12.45 34.49 10.84 35.33 9.87 36.74 C 8.89 38.13 7.28 38.97 5.57 38.97 C 3.86 38.97 2.25 38.13 1.26 36.73" stroke="#020303" stroke-width="2.5" stroke-linecap="round" stroke-miterlimit="10" fill="none"/><g><path d=" M 25.69 9.12 C 25.33 8.54 24.09 7.88 23.04 8.71 C 22.25 9.45 21.86 11.31 23.49 11.92 C 25.08 12.51 26.59 10.58 25.69 9.12 Z" fill="#020303"/></g><path d=" M 22.8 58.85 C 14.93 58.85 13.58 55.55 11.83 50.01 C 11.25 48.18 10.55 46.15 11.46 44.81 C 12.27 43.61 13.86 43.41 14.97 43.29 C 16.26 43.15 17.4 41.52 19.84 41.57 C 21.16 41.59 22.02 42.22 22.6 42.65 C 22.66 42.7 22.93 42.7 23 42.65 C 23.57 42.22 24.43 41.6 25.75 41.57 C 28.34 41.5 29.22 42.95 30.7 43.3 C 31.82 43.56 33.43 43.8 34.21 45.09 C 35.05 46.48 34.03 49.17 33.47 50.76 C 31.75 55.66 30.7 58.85 22.8 58.85 Z M 17.79 45.05 C 17.07 45.5 16.22 45.94 15.17 46.01 C 13.71 46.11 13.91 47.52 14.43 49.2 C 16.1 54.5 16.55 55.93 22.8 56.13 C 28.75 55.94 29.25 54.53 30.9 49.85 C 31.51 48.14 32.07 46.24 30.34 46.01 C 29.39 45.88 28.6 45.45 27.91 45.07 C 27.18 44.67 26.01 43.89 24.64 44.84 C 23.26 45.79 22.29 45.76 20.95 44.84 C 20.25 44.34 19.14 44.2 17.79 45.05 Z" fill="#030000"/><path d=" M 25.06 51.57 L 20.87 51.57 C 18.81 51.57 18.81 48.85 20.87 48.85 L 25.06 48.85 C 27.01 48.86 27.01 51.57 25.06 51.57 Z"/><path d=" M 34.14 10.36 C 31.75 4.24 28.89 2.07 28.23 1.49 C 26.11 -0.44 23.7 -0.49 21.78 1.34 C 21.35 1.75 20.75 2.23 20.05 2.68 C 19.74 2.88 19.64 2.65 19.7 2.47 C 19.83 2.07 19.74 1.61 19.43 1.28 C 18.96 0.77 18.01 1 17.45 1.5 C 16.19 2.63 13.6 5.04 11.52 10.36 C 9.87 14.59 9.06 20.9 11.06 26.94 C 11.91 29.52 13.24 31.6 17.96 31.63 C 19.31 31.63 20.57 31.41 21.51 31.25 C 22.63 31.06 22.91 31.06 23.88 31.31 C 24.81 31.54 26.16 31.88 27.63 31.88 C 30.43 31.88 33.34 30.37 34.51 26.95 C 36.58 20.91 35.84 14.71 34.14 10.36 Z M 21.6 27.52 C 21.6 28.68 20.7 28.97 20.11 29.05 C 18.27 29.33 16.03 29.46 14.46 28.08 C 13.96 27.65 13.75 27.28 13.47 26.48 C 13.33 26.07 13.2 25.65 13.09 25.23 C 12.9 24.53 13.08 24.07 13.86 24.34 C 16 25.1 18.32 24.91 20.12 24.64 C 20.97 24.51 21.59 24.91 21.59 25.77 L 21.59 27.52 Z M 19.81 22.27 C 17.88 22.57 15.55 22.74 13.72 21.63 C 12.77 21.06 12.25 20.52 12.32 18.44 C 12.33 18.16 12.34 17.89 12.36 17.62 C 12.45 16.38 13.2 16.16 14.05 16.58 C 15.52 17.31 17.42 17.9 19.74 18.17 C 21.3 18.35 21.59 18.83 21.6 20.11 C 21.61 21.85 21.12 22.06 19.81 22.27 Z M 22.8 15.95 C 19.62 15.95 16.49 15.21 14.73 14.24 C 13.49 13.55 13.11 12.9 13.76 11.23 C 14.25 9.97 14.77 8.89 15.29 7.98 C 15.98 6.76 16.24 6.72 17.79 6.32 C 20.17 5.71 22.35 4.13 23.44 3.08 C 24.43 2.13 25.44 2.19 26.63 3.27 L 26.83 3.45 C 27.93 4.44 29.98 6.28 31.91 11.24 C 32.48 12.69 32.27 13.52 30.89 14.27 C 29.14 15.22 26.53 15.95 22.8 15.95 Z M 32.35 25.88 C 32.19 26.37 31.49 27.86 30.88 28.38 C 29.38 29.64 27.59 29.63 25.69 29.25 C 24.5 29.01 24 28.66 24 27.07 L 24 26.17 C 24 24.95 24.36 24.6 25.77 24.88 C 26.62 25.05 27.56 25.18 28.54 25.18 C 29.41 25.18 30.3 25.07 31.19 24.79 C 32.27 24.45 32.66 24.94 32.35 25.88 Z M 32.04 21.68 C 30.2 23.02 28.04 22.89 26.21 22.52 C 24.43 22.16 24 21.75 24 20.08 C 24 18.39 24.56 18.33 25.96 18.16 C 28.13 17.9 29.94 17.37 31.36 16.7 C 32.39 16.21 33.23 16.22 33.33 17.65 C 33.35 17.91 33.36 18.17 33.37 18.43 C 33.44 20.43 33.11 20.89 32.04 21.68 Z"/></svg>