<svg version="1.1" width="48.33" height="57.35" viewBox="0 0 48.33 57.35" xmlns="http://www.w3.org/2000/svg" xmlns:xlink="http://www.w3.org/1999/xlink" overflow="visible"><defs></defs><path d=" M 24.19 57.35 C 16.53 57.35 14.23 53.79 12.35 47.81 C 11.73 45.84 10.97 44.5 11.95 43.05 C 12.83 41.76 14.54 41.54 15.74 41.41 C 17.13 41.25 18.36 39.5 21 39.55 C 22.43 39.57 23.36 40.26 23.98 40.72 C 24.05 40.77 24.34 40.77 24.41 40.72 C 25.03 40.25 25.96 39.59 27.38 39.55 C 30.17 39.47 31.13 41.04 32.73 41.42 C 33.93 41.7 35.68 41.96 36.52 43.35 C 37.43 44.85 36.32 46.9 35.72 48.61 C 33.85 53.9 31.84 57.35 24.19 57.35 Z M 18.77 43.3 C 18 43.79 17.07 44.26 15.94 44.34 C 14.36 44.45 14.57 45.97 15.15 47.78 C 16.95 53.5 19.55 54.4 24.19 54.4 C 28.83 54.4 31.16 53.53 32.94 48.48 C 33.6 46.63 34.2 44.58 32.34 44.33 C 31.31 44.19 30.46 43.72 29.71 43.31 C 28.92 42.88 27.66 42.04 26.18 43.06 C 24.69 44.09 23.64 44.05 22.2 43.06 C 21.42 42.53 20.23 42.38 18.77 43.3 Z" fill="#030000"/><path d=" M 26.62 49.96 L 22.1 49.96 C 19.87 49.96 19.87 47.03 22.1 47.03 L 26.62 47.03 C 28.73 47.02 28.73 49.96 26.62 49.96 Z"/><path d=" M 47.98 0.54 C 47.45 -0.1 46.49 -0.18 45.86 0.35 C 45.86 0.35 32.02 12.01 27.36 15.83 C 26.42 16.6 25.68 16.37 25.68 15.04 L 25.68 2.04 C 25.68 1.21 25.01 0.53 24.17 0.53 C 23.34 0.53 22.66 1.2 22.66 2.04 L 22.66 17.93 C 22.66 18.5 22.2 18.95 21.64 18.95 L 5.75 18.95 C 4.92 18.95 4.24 19.62 4.24 20.46 C 4.24 21.29 4.91 21.97 5.75 21.97 C 5.75 21.97 14.34 21.97 17.2 21.97 C 18.83 21.97 19.13 22.7 17.86 23.78 C 13.56 27.44 0.55 38.27 0.55 38.27 C -0.09 38.8 -0.17 39.75 0.36 40.39 C 0.66 40.75 1.09 40.93 1.52 40.93 C 1.86 40.93 2.2 40.81 2.49 40.58 C 2.49 40.58 16.15 29.11 20.99 25.1 C 21.92 24.33 22.67 24.41 22.67 25.89 L 22.67 36.12 C 22.67 36.95 23.34 37.63 24.18 37.63 C 25.01 37.63 25.69 36.96 25.69 36.12 L 25.69 23 C 25.69 22.43 26.15 21.98 26.71 21.98 L 42.6 21.98 C 43.43 21.98 44.11 21.31 44.11 20.47 C 44.11 19.64 43.44 18.96 42.6 18.96 L 31.13 18.96 C 29.49 18.96 29.31 18.15 30.47 17.15 C 34.79 13.46 47.78 2.66 47.78 2.66 C 48.43 2.13 48.51 1.18 47.98 0.54 Z"/><path d=" M 33.36 27.86 C 32.78 27.26 31.83 27.24 31.23 27.82 C 30.63 28.4 30.61 29.35 31.19 29.95 L 34.23 33.08 C 34.53 33.39 34.92 33.54 35.32 33.54 C 35.7 33.54 36.07 33.4 36.36 33.12 C 36.96 32.54 36.98 31.59 36.4 30.99 L 33.36 27.86 Z"/><path d=" M 20.11 32.45 C 20.46 31.7 20.14 30.8 19.39 30.45 C 18.64 30.1 17.74 30.42 17.39 31.17 L 15.56 35.13 C 15.38 35.52 15.38 35.94 15.52 36.31 C 15.65 36.66 15.92 36.96 16.29 37.13 C 17.04 37.48 17.94 37.16 18.29 36.41 L 20.11 32.45 Z"/></svg>