<svg version="1.1" width="58.85" height="61.08" viewBox="0 0 58.85 61.08" xmlns="http://www.w3.org/2000/svg" xmlns:xlink="http://www.w3.org/1999/xlink" overflow="visible"><defs></defs><path d=" M 53.73 28.52 C 46.69 30.84 39.64 30.76 33.84 28.9 C 32.36 28.43 32.05 27.59 32.19 26.63 C 32.33 25.69 32.96 25.44 33.79 25.22 C 38.3 24.04 42.9 20.1 43.21 13.94 C 43.57 6.84 39.86 0.36 30.48 0 C 21.9 -0.33 17.13 6.49 17.37 12.8 C 17.65 20.01 22.3 23.33 26.38 24.87 C 26.75 25.01 27.66 25.7 27.69 26.53 C 27.72 27.51 27.12 28.28 26.01 28.27 C 17.17 28.22 8.31 29.22 2.61 30.86 C -1.46 32.03 -0.76 37.21 4.47 36.15 C 10.67 34.89 15.57 34.17 22.3 35.09 C 24.12 35.34 25.72 36.9 25.71 39.58 C 25.68 45.04 24.46 49.87 22.88 54.87 C 20.9 61.12 27.37 63.41 30.34 58.15 C 32.45 54.42 34.02 45.7 34.25 39.47 C 34.39 35.79 36.84 35.95 38.35 36 C 41.69 36.1 48.77 36.72 56.28 33.62 C 60.43 31.91 59.54 26.61 53.73 28.52 Z M 26.88 21.48 C 22.44 19.74 20.69 15.49 20.93 11.54 C 21.25 6.4 25.86 3.13 30.47 3.21 C 35.08 3.29 39.82 6.82 39.78 12.7 C 39.76 16.71 37.82 19.46 34.72 21.07 C 32.14 22.41 29.25 22.41 26.88 21.48 Z" fill-rule="evenodd" clip-rule="evenodd"/><path d=" M 30.44 12.3 C 29.77 12.3 29.22 12.47 29.22 14.23 C 29.22 16.5 29.64 16.8 30.48 16.8 C 31.37 16.8 31.63 16.46 31.63 14.23 C 31.62 12.42 31.19 12.3 30.44 12.3 Z" fill="#030000" fill-rule="evenodd" clip-rule="evenodd"/><circle cx="24.14" cy="12.15" r="1.38" fill-rule="evenodd" clip-rule="evenodd"/><circle cx="36.58" cy="12.15" r="1.38" fill-rule="evenodd" clip-rule="evenodd"/></svg>